  0
SECTION
  2
BLOCKS
  0
ENDSEC
  0
SECTION
  2
ENTITIES
  0
LINE
  8
0
 10
112
 20
152
 11
104
 21
152
  0
LINE
  8
0
 10
104
 20
152
 11
53.2254
 21
217.695
  0
LINE
  8
0
 10
53.2254
 20
217.695
 11
49.7283
 21
221.579
  0
LINE
  8
0
 10
49.7283
 20
221.579
 11
45.5
 21
224.651
  0
LINE
  8
0
 10
45.5
 20
224.651
 11
40.7254
 21
226.776
  0
LINE
  8
0
 10
40.7254
 20
226.776
 11
35.6132
 21
227.863
  0
LINE
  8
0
 10
35.6132
 20
227.863
 11
30.3868
 21
227.863
  0
LINE
  8
0
 10
30.3868
 20
227.863
 11
25.2746
 21
226.776
  0
LINE
  8
0
 10
25.2746
 20
226.776
 11
20.5
 21
224.651
  0
LINE
  8
0
 10
20.5
 20
224.651
 11
16.2717
 21
221.579
  0
LINE
  8
0
 10
16.2717
 20
221.579
 11
12.7746
 21
217.695
  0
LINE
  8
0
 10
12.7746
 20
217.695
 11
10.1614
 21
213.168
  0
LINE
  8
0
 10
10.1614
 20
213.168
 11
8.5463
 21
208.198
  0
LINE
  8
0
 10
8.5463
 20
208.198
 11
8
 21
203
  0
LINE
  8
0
 10
8
 20
203
 11
8
 21
152
  0
LINE
  8
0
 10
8
 20
152
 11
0
 21
152
  0
LINE
  8
0
 10
0
 20
152
 11
0
 21
0
  0
LINE
  8
0
 10
0
 20
0
 11
112
 21
0
  0
LINE
  8
0
 10
112
 20
0
 11
112
 21
152
  0
LINE
  8
0
 10
32.0729
 20
200.147
 11
30.5729
 21
201.237
  0
LINE
  8
0
 10
30.5729
 20
201.237
 11
30
 21
203
  0
LINE
  8
0
 10
30
 20
203
 11
30.5729
 21
204.763
  0
LINE
  8
0
 10
30.5729
 20
204.763
 11
32.0729
 21
205.853
  0
LINE
  8
0
 10
32.0729
 20
205.853
 11
33.927
 21
205.853
  0
LINE
  8
0
 10
33.927
 20
205.853
 11
35.427
 21
204.763
  0
LINE
  8
0
 10
35.427
 20
204.763
 11
36
 21
203
  0
LINE
  8
0
 10
36
 20
203
 11
35.427
 21
201.237
  0
LINE
  8
0
 10
35.427
 20
201.237
 11
33.927
 21
200.147
  0
LINE
  8
0
 10
33.927
 20
200.147
 11
32.0729
 21
200.147
  0
LINE
  8
0
 10
108.191
 20
147.412
 11
108.191
 21
148.588
  0
LINE
  8
0
 10
108.191
 20
148.588
 11
109.309
 21
148.951
  0
LINE
  8
0
 10
109.309
 20
148.951
 11
110
 21
148
  0
LINE
  8
0
 10
110
 20
148
 11
109.309
 21
147.049
  0
LINE
  8
0
 10
109.309
 20
147.049
 11
108.191
 21
147.412
  0
LINE
  8
0
 10
2.19098
 20
147.412
 11
2.19098
 21
148.588
  0
LINE
  8
0
 10
2.19098
 20
148.588
 11
3.30901
 21
148.951
  0
LINE
  8
0
 10
3.30901
 20
148.951
 11
4
 21
148
  0
LINE
  8
0
 10
4
 20
148
 11
3.30901
 21
147.049
  0
LINE
  8
0
 10
3.30901
 20
147.049
 11
2.19098
 21
147.412
  0
LINE
  8
0
 10
2.19098
 20
142.412
 11
2.19098
 21
143.588
  0
LINE
  8
0
 10
2.19098
 20
143.588
 11
3.30901
 21
143.951
  0
LINE
  8
0
 10
3.30901
 20
143.951
 11
4
 21
143
  0
LINE
  8
0
 10
4
 20
143
 11
3.30901
 21
142.049
  0
LINE
  8
0
 10
3.30901
 20
142.049
 11
2.19098
 21
142.412
  0
LINE
  8
0
 10
108.191
 20
142.412
 11
108.191
 21
143.588
  0
LINE
  8
0
 10
108.191
 20
143.588
 11
109.309
 21
143.951
  0
LINE
  8
0
 10
109.309
 20
143.951
 11
110
 21
143
  0
LINE
  8
0
 10
110
 20
143
 11
109.309
 21
142.049
  0
LINE
  8
0
 10
109.309
 20
142.049
 11
108.191
 21
142.412
  0
LINE
  8
0
 10
108.191
 20
137.412
 11
108.191
 21
138.588
  0
LINE
  8
0
 10
108.191
 20
138.588
 11
109.309
 21
138.951
  0
LINE
  8
0
 10
109.309
 20
138.951
 11
110
 21
138
  0
LINE
  8
0
 10
110
 20
138
 11
109.309
 21
137.049
  0
LINE
  8
0
 10
109.309
 20
137.049
 11
108.191
 21
137.412
  0
LINE
  8
0
 10
2.19098
 20
137.412
 11
2.19098
 21
138.588
  0
LINE
  8
0
 10
2.19098
 20
138.588
 11
3.30901
 21
138.951
  0
LINE
  8
0
 10
3.30901
 20
138.951
 11
4
 21
138
  0
LINE
  8
0
 10
4
 20
138
 11
3.30901
 21
137.049
  0
LINE
  8
0
 10
3.30901
 20
137.049
 11
2.19098
 21
137.412
  0
LINE
  8
0
 10
108.191
 20
132.412
 11
108.191
 21
133.588
  0
LINE
  8
0
 10
108.191
 20
133.588
 11
109.309
 21
133.951
  0
LINE
  8
0
 10
109.309
 20
133.951
 11
110
 21
133
  0
LINE
  8
0
 10
110
 20
133
 11
109.309
 21
132.049
  0
LINE
  8
0
 10
109.309
 20
132.049
 11
108.191
 21
132.412
  0
LINE
  8
0
 10
2.19098
 20
132.412
 11
2.19098
 21
133.588
  0
LINE
  8
0
 10
2.19098
 20
133.588
 11
3.30901
 21
133.951
  0
LINE
  8
0
 10
3.30901
 20
133.951
 11
4
 21
133
  0
LINE
  8
0
 10
4
 20
133
 11
3.30901
 21
132.049
  0
LINE
  8
0
 10
3.30901
 20
132.049
 11
2.19098
 21
132.412
  0
LINE
  8
0
 10
108.191
 20
127.412
 11
108.191
 21
128.588
  0
LINE
  8
0
 10
108.191
 20
128.588
 11
109.309
 21
128.951
  0
LINE
  8
0
 10
109.309
 20
128.951
 11
110
 21
128
  0
LINE
  8
0
 10
110
 20
128
 11
109.309
 21
127.049
  0
LINE
  8
0
 10
109.309
 20
127.049
 11
108.191
 21
127.412
  0
LINE
  8
0
 10
2.19098
 20
127.412
 11
2.19098
 21
128.588
  0
LINE
  8
0
 10
2.19098
 20
128.588
 11
3.30901
 21
128.951
  0
LINE
  8
0
 10
3.30901
 20
128.951
 11
4
 21
128
  0
LINE
  8
0
 10
4
 20
128
 11
3.30901
 21
127.049
  0
LINE
  8
0
 10
3.30901
 20
127.049
 11
2.19098
 21
127.412
  0
LINE
  8
0
 10
108.191
 20
122.412
 11
108.191
 21
123.588
  0
LINE
  8
0
 10
108.191
 20
123.588
 11
109.309
 21
123.951
  0
LINE
  8
0
 10
109.309
 20
123.951
 11
110
 21
123
  0
LINE
  8
0
 10
110
 20
123
 11
109.309
 21
122.049
  0
LINE
  8
0
 10
109.309
 20
122.049
 11
108.191
 21
122.412
  0
LINE
  8
0
 10
2.19098
 20
122.412
 11
2.19098
 21
123.588
  0
LINE
  8
0
 10
2.19098
 20
123.588
 11
3.30901
 21
123.951
  0
LINE
  8
0
 10
3.30901
 20
123.951
 11
4
 21
123
  0
LINE
  8
0
 10
4
 20
123
 11
3.30901
 21
122.049
  0
LINE
  8
0
 10
3.30901
 20
122.049
 11
2.19098
 21
122.412
  0
LINE
  8
0
 10
108.191
 20
117.412
 11
108.191
 21
118.588
  0
LINE
  8
0
 10
108.191
 20
118.588
 11
109.309
 21
118.951
  0
LINE
  8
0
 10
109.309
 20
118.951
 11
110
 21
118
  0
LINE
  8
0
 10
110
 20
118
 11
109.309
 21
117.049
  0
LINE
  8
0
 10
109.309
 20
117.049
 11
108.191
 21
117.412
  0
LINE
  8
0
 10
2.19098
 20
117.412
 11
2.19098
 21
118.588
  0
LINE
  8
0
 10
2.19098
 20
118.588
 11
3.30901
 21
118.951
  0
LINE
  8
0
 10
3.30901
 20
118.951
 11
4
 21
118
  0
LINE
  8
0
 10
4
 20
118
 11
3.30901
 21
117.049
  0
LINE
  8
0
 10
3.30901
 20
117.049
 11
2.19098
 21
117.412
  0
LINE
  8
0
 10
108.191
 20
112.412
 11
108.191
 21
113.588
  0
LINE
  8
0
 10
108.191
 20
113.588
 11
109.309
 21
113.951
  0
LINE
  8
0
 10
109.309
 20
113.951
 11
110
 21
113
  0
LINE
  8
0
 10
110
 20
113
 11
109.309
 21
112.049
  0
LINE
  8
0
 10
109.309
 20
112.049
 11
108.191
 21
112.412
  0
LINE
  8
0
 10
2.19098
 20
112.412
 11
2.19098
 21
113.588
  0
LINE
  8
0
 10
2.19098
 20
113.588
 11
3.30901
 21
113.951
  0
LINE
  8
0
 10
3.30901
 20
113.951
 11
4
 21
113
  0
LINE
  8
0
 10
4
 20
113
 11
3.30901
 21
112.049
  0
LINE
  8
0
 10
3.30901
 20
112.049
 11
2.19098
 21
112.412
  0
LINE
  8
0
 10
2.19098
 20
107.412
 11
2.19098
 21
108.588
  0
LINE
  8
0
 10
2.19098
 20
108.588
 11
3.30901
 21
108.951
  0
LINE
  8
0
 10
3.30901
 20
108.951
 11
4
 21
108
  0
LINE
  8
0
 10
4
 20
108
 11
3.30901
 21
107.049
  0
LINE
  8
0
 10
3.30901
 20
107.049
 11
2.19098
 21
107.412
  0
LINE
  8
0
 10
108.191
 20
107.412
 11
108.191
 21
108.588
  0
LINE
  8
0
 10
108.191
 20
108.588
 11
109.309
 21
108.951
  0
LINE
  8
0
 10
109.309
 20
108.951
 11
110
 21
108
  0
LINE
  8
0
 10
110
 20
108
 11
109.309
 21
107.049
  0
LINE
  8
0
 10
109.309
 20
107.049
 11
108.191
 21
107.412
  0
LINE
  8
0
 10
108.191
 20
102.412
 11
108.191
 21
103.588
  0
LINE
  8
0
 10
108.191
 20
103.588
 11
109.309
 21
103.951
  0
LINE
  8
0
 10
109.309
 20
103.951
 11
110
 21
103
  0
LINE
  8
0
 10
110
 20
103
 11
109.309
 21
102.049
  0
LINE
  8
0
 10
109.309
 20
102.049
 11
108.191
 21
102.412
  0
LINE
  8
0
 10
2.19098
 20
102.412
 11
2.19098
 21
103.588
  0
LINE
  8
0
 10
2.19098
 20
103.588
 11
3.30901
 21
103.951
  0
LINE
  8
0
 10
3.30901
 20
103.951
 11
4
 21
103
  0
LINE
  8
0
 10
4
 20
103
 11
3.30901
 21
102.049
  0
LINE
  8
0
 10
3.30901
 20
102.049
 11
2.19098
 21
102.412
  0
LINE
  8
0
 10
108.191
 20
97.4122
 11
108.191
 21
98.5878
  0
LINE
  8
0
 10
108.191
 20
98.5878
 11
109.309
 21
98.951
  0
LINE
  8
0
 10
109.309
 20
98.951
 11
110
 21
98
  0
LINE
  8
0
 10
110
 20
98
 11
109.309
 21
97.0489
  0
LINE
  8
0
 10
109.309
 20
97.0489
 11
108.191
 21
97.4122
  0
LINE
  8
0
 10
2.19098
 20
97.4122
 11
2.19098
 21
98.5878
  0
LINE
  8
0
 10
2.19098
 20
98.5878
 11
3.30901
 21
98.951
  0
LINE
  8
0
 10
3.30901
 20
98.951
 11
4
 21
98
  0
LINE
  8
0
 10
4
 20
98
 11
3.30901
 21
97.0489
  0
LINE
  8
0
 10
3.30901
 20
97.0489
 11
2.19098
 21
97.4122
  0
LINE
  8
0
 10
108.191
 20
92.4122
 11
108.191
 21
93.5878
  0
LINE
  8
0
 10
108.191
 20
93.5878
 11
109.309
 21
93.951
  0
LINE
  8
0
 10
109.309
 20
93.951
 11
110
 21
93
  0
LINE
  8
0
 10
110
 20
93
 11
109.309
 21
92.0489
  0
LINE
  8
0
 10
109.309
 20
92.0489
 11
108.191
 21
92.4122
  0
LINE
  8
0
 10
2.19098
 20
92.4122
 11
2.19098
 21
93.5878
  0
LINE
  8
0
 10
2.19098
 20
93.5878
 11
3.30901
 21
93.951
  0
LINE
  8
0
 10
3.30901
 20
93.951
 11
4
 21
93
  0
LINE
  8
0
 10
4
 20
93
 11
3.30901
 21
92.0489
  0
LINE
  8
0
 10
3.30901
 20
92.0489
 11
2.19098
 21
92.4122
  0
LINE
  8
0
 10
108.191
 20
87.4122
 11
108.191
 21
88.5878
  0
LINE
  8
0
 10
108.191
 20
88.5878
 11
109.309
 21
88.951
  0
LINE
  8
0
 10
109.309
 20
88.951
 11
110
 21
88
  0
LINE
  8
0
 10
110
 20
88
 11
109.309
 21
87.0489
  0
LINE
  8
0
 10
109.309
 20
87.0489
 11
108.191
 21
87.4122
  0
LINE
  8
0
 10
2.19098
 20
87.4122
 11
2.19098
 21
88.5878
  0
LINE
  8
0
 10
2.19098
 20
88.5878
 11
3.30901
 21
88.951
  0
LINE
  8
0
 10
3.30901
 20
88.951
 11
4
 21
88
  0
LINE
  8
0
 10
4
 20
88
 11
3.30901
 21
87.0489
  0
LINE
  8
0
 10
3.30901
 20
87.0489
 11
2.19098
 21
87.4122
  0
LINE
  8
0
 10
108.191
 20
82.4122
 11
108.191
 21
83.5878
  0
LINE
  8
0
 10
108.191
 20
83.5878
 11
109.309
 21
83.951
  0
LINE
  8
0
 10
109.309
 20
83.951
 11
110
 21
83
  0
LINE
  8
0
 10
110
 20
83
 11
109.309
 21
82.0489
  0
LINE
  8
0
 10
109.309
 20
82.0489
 11
108.191
 21
82.4122
  0
LINE
  8
0
 10
2.19098
 20
82.4122
 11
2.19098
 21
83.5878
  0
LINE
  8
0
 10
2.19098
 20
83.5878
 11
3.30901
 21
83.951
  0
LINE
  8
0
 10
3.30901
 20
83.951
 11
4
 21
83
  0
LINE
  8
0
 10
4
 20
83
 11
3.30901
 21
82.0489
  0
LINE
  8
0
 10
3.30901
 20
82.0489
 11
2.19098
 21
82.4122
  0
LINE
  8
0
 10
2.19098
 20
77.4122
 11
2.19098
 21
78.5878
  0
LINE
  8
0
 10
2.19098
 20
78.5878
 11
3.30901
 21
78.951
  0
LINE
  8
0
 10
3.30901
 20
78.951
 11
4
 21
78
  0
LINE
  8
0
 10
4
 20
78
 11
3.30901
 21
77.0489
  0
LINE
  8
0
 10
3.30901
 20
77.0489
 11
2.19098
 21
77.4122
  0
LINE
  8
0
 10
108.191
 20
77.4122
 11
108.191
 21
78.5878
  0
LINE
  8
0
 10
108.191
 20
78.5878
 11
109.309
 21
78.951
  0
LINE
  8
0
 10
109.309
 20
78.951
 11
110
 21
78
  0
LINE
  8
0
 10
110
 20
78
 11
109.309
 21
77.0489
  0
LINE
  8
0
 10
109.309
 20
77.0489
 11
108.191
 21
77.4122
  0
LINE
  8
0
 10
108.191
 20
72.4122
 11
108.191
 21
73.5878
  0
LINE
  8
0
 10
108.191
 20
73.5878
 11
109.309
 21
73.951
  0
LINE
  8
0
 10
109.309
 20
73.951
 11
110
 21
73
  0
LINE
  8
0
 10
110
 20
73
 11
109.309
 21
72.0489
  0
LINE
  8
0
 10
109.309
 20
72.0489
 11
108.191
 21
72.4122
  0
LINE
  8
0
 10
2.19098
 20
72.4122
 11
2.19098
 21
73.5878
  0
LINE
  8
0
 10
2.19098
 20
73.5878
 11
3.30901
 21
73.951
  0
LINE
  8
0
 10
3.30901
 20
73.951
 11
4
 21
73
  0
LINE
  8
0
 10
4
 20
73
 11
3.30901
 21
72.0489
  0
LINE
  8
0
 10
3.30901
 20
72.0489
 11
2.19098
 21
72.4122
  0
LINE
  8
0
 10
2.19098
 20
67.4122
 11
2.19098
 21
68.5878
  0
LINE
  8
0
 10
2.19098
 20
68.5878
 11
3.30901
 21
68.951
  0
LINE
  8
0
 10
3.30901
 20
68.951
 11
4
 21
68
  0
LINE
  8
0
 10
4
 20
68
 11
3.30901
 21
67.0489
  0
LINE
  8
0
 10
3.30901
 20
67.0489
 11
2.19098
 21
67.4122
  0
LINE
  8
0
 10
108.191
 20
67.4122
 11
108.191
 21
68.5878
  0
LINE
  8
0
 10
108.191
 20
68.5878
 11
109.309
 21
68.951
  0
LINE
  8
0
 10
109.309
 20
68.951
 11
110
 21
68
  0
LINE
  8
0
 10
110
 20
68
 11
109.309
 21
67.0489
  0
LINE
  8
0
 10
109.309
 20
67.0489
 11
108.191
 21
67.4122
  0
LINE
  8
0
 10
108.191
 20
62.4122
 11
108.191
 21
63.5878
  0
LINE
  8
0
 10
108.191
 20
63.5878
 11
109.309
 21
63.951
  0
LINE
  8
0
 10
109.309
 20
63.951
 11
110
 21
63
  0
LINE
  8
0
 10
110
 20
63
 11
109.309
 21
62.0489
  0
LINE
  8
0
 10
109.309
 20
62.0489
 11
108.191
 21
62.4122
  0
LINE
  8
0
 10
2.19098
 20
62.4122
 11
2.19098
 21
63.5878
  0
LINE
  8
0
 10
2.19098
 20
63.5878
 11
3.30901
 21
63.951
  0
LINE
  8
0
 10
3.30901
 20
63.951
 11
4
 21
63
  0
LINE
  8
0
 10
4
 20
63
 11
3.30901
 21
62.0489
  0
LINE
  8
0
 10
3.30901
 20
62.0489
 11
2.19098
 21
62.4122
  0
LINE
  8
0
 10
108.191
 20
57.4122
 11
108.191
 21
58.5878
  0
LINE
  8
0
 10
108.191
 20
58.5878
 11
109.309
 21
58.951
  0
LINE
  8
0
 10
109.309
 20
58.951
 11
110
 21
58
  0
LINE
  8
0
 10
110
 20
58
 11
109.309
 21
57.0489
  0
LINE
  8
0
 10
109.309
 20
57.0489
 11
108.191
 21
57.4122
  0
LINE
  8
0
 10
2.19098
 20
57.4122
 11
2.19098
 21
58.5878
  0
LINE
  8
0
 10
2.19098
 20
58.5878
 11
3.30901
 21
58.951
  0
LINE
  8
0
 10
3.30901
 20
58.951
 11
4
 21
58
  0
LINE
  8
0
 10
4
 20
58
 11
3.30901
 21
57.0489
  0
LINE
  8
0
 10
3.30901
 20
57.0489
 11
2.19098
 21
57.4122
  0
LINE
  8
0
 10
108.191
 20
52.4122
 11
108.191
 21
53.5878
  0
LINE
  8
0
 10
108.191
 20
53.5878
 11
109.309
 21
53.951
  0
LINE
  8
0
 10
109.309
 20
53.951
 11
110
 21
53
  0
LINE
  8
0
 10
110
 20
53
 11
109.309
 21
52.0489
  0
LINE
  8
0
 10
109.309
 20
52.0489
 11
108.191
 21
52.4122
  0
LINE
  8
0
 10
2.19098
 20
52.4122
 11
2.19098
 21
53.5878
  0
LINE
  8
0
 10
2.19098
 20
53.5878
 11
3.30901
 21
53.951
  0
LINE
  8
0
 10
3.30901
 20
53.951
 11
4
 21
53
  0
LINE
  8
0
 10
4
 20
53
 11
3.30901
 21
52.0489
  0
LINE
  8
0
 10
3.30901
 20
52.0489
 11
2.19098
 21
52.4122
  0
LINE
  8
0
 10
108.191
 20
47.4122
 11
108.191
 21
48.5878
  0
LINE
  8
0
 10
108.191
 20
48.5878
 11
109.309
 21
48.951
  0
LINE
  8
0
 10
109.309
 20
48.951
 11
110
 21
48
  0
LINE
  8
0
 10
110
 20
48
 11
109.309
 21
47.0489
  0
LINE
  8
0
 10
109.309
 20
47.0489
 11
108.191
 21
47.4122
  0
LINE
  8
0
 10
2.19098
 20
47.4122
 11
2.19098
 21
48.5878
  0
LINE
  8
0
 10
2.19098
 20
48.5878
 11
3.30901
 21
48.951
  0
LINE
  8
0
 10
3.30901
 20
48.951
 11
4
 21
48
  0
LINE
  8
0
 10
4
 20
48
 11
3.30901
 21
47.0489
  0
LINE
  8
0
 10
3.30901
 20
47.0489
 11
2.19098
 21
47.4122
  0
LINE
  8
0
 10
32.0729
 20
42.1468
 11
30.5729
 21
43.2366
  0
LINE
  8
0
 10
30.5729
 20
43.2366
 11
30
 21
45
  0
LINE
  8
0
 10
30
 20
45
 11
30.5729
 21
46.7634
  0
LINE
  8
0
 10
30.5729
 20
46.7634
 11
32.0729
 21
47.8532
  0
LINE
  8
0
 10
32.0729
 20
47.8532
 11
33.927
 21
47.8532
  0
LINE
  8
0
 10
33.927
 20
47.8532
 11
35.427
 21
46.7634
  0
LINE
  8
0
 10
35.427
 20
46.7634
 11
36
 21
45
  0
LINE
  8
0
 10
36
 20
45
 11
35.427
 21
43.2366
  0
LINE
  8
0
 10
35.427
 20
43.2366
 11
33.927
 21
42.1468
  0
LINE
  8
0
 10
33.927
 20
42.1468
 11
32.0729
 21
42.1468
  0
LINE
  8
0
 10
108.191
 20
42.4122
 11
108.191
 21
43.5878
  0
LINE
  8
0
 10
108.191
 20
43.5878
 11
109.309
 21
43.951
  0
LINE
  8
0
 10
109.309
 20
43.951
 11
110
 21
43
  0
LINE
  8
0
 10
110
 20
43
 11
109.309
 21
42.0489
  0
LINE
  8
0
 10
109.309
 20
42.0489
 11
108.191
 21
42.4122
  0
LINE
  8
0
 10
2.19098
 20
42.4122
 11
2.19098
 21
43.5878
  0
LINE
  8
0
 10
2.19098
 20
43.5878
 11
3.30901
 21
43.951
  0
LINE
  8
0
 10
3.30901
 20
43.951
 11
4
 21
43
  0
LINE
  8
0
 10
4
 20
43
 11
3.30901
 21
42.0489
  0
LINE
  8
0
 10
3.30901
 20
42.0489
 11
2.19098
 21
42.4122
  0
LINE
  8
0
 10
2.19098
 20
37.4122
 11
2.19098
 21
38.5878
  0
LINE
  8
0
 10
2.19098
 20
38.5878
 11
3.30901
 21
38.951
  0
LINE
  8
0
 10
3.30901
 20
38.951
 11
4
 21
38
  0
LINE
  8
0
 10
4
 20
38
 11
3.30901
 21
37.0489
  0
LINE
  8
0
 10
3.30901
 20
37.0489
 11
2.19098
 21
37.4122
  0
LINE
  8
0
 10
108.191
 20
37.4122
 11
108.191
 21
38.5878
  0
LINE
  8
0
 10
108.191
 20
38.5878
 11
109.309
 21
38.951
  0
LINE
  8
0
 10
109.309
 20
38.951
 11
110
 21
38
  0
LINE
  8
0
 10
110
 20
38
 11
109.309
 21
37.0489
  0
LINE
  8
0
 10
109.309
 20
37.0489
 11
108.191
 21
37.4122
  0
LINE
  8
0
 10
2.19098
 20
32.4122
 11
2.19098
 21
33.5878
  0
LINE
  8
0
 10
2.19098
 20
33.5878
 11
3.30901
 21
33.951
  0
LINE
  8
0
 10
3.30901
 20
33.951
 11
4
 21
33
  0
LINE
  8
0
 10
4
 20
33
 11
3.30901
 21
32.0489
  0
LINE
  8
0
 10
3.30901
 20
32.0489
 11
2.19098
 21
32.4122
  0
LINE
  8
0
 10
108.191
 20
32.4122
 11
108.191
 21
33.5878
  0
LINE
  8
0
 10
108.191
 20
33.5878
 11
109.309
 21
33.951
  0
LINE
  8
0
 10
109.309
 20
33.951
 11
110
 21
33
  0
LINE
  8
0
 10
110
 20
33
 11
109.309
 21
32.0489
  0
LINE
  8
0
 10
109.309
 20
32.0489
 11
108.191
 21
32.4122
  0
LINE
  8
0
 10
108.191
 20
27.4122
 11
108.191
 21
28.5878
  0
LINE
  8
0
 10
108.191
 20
28.5878
 11
109.309
 21
28.951
  0
LINE
  8
0
 10
109.309
 20
28.951
 11
110
 21
28
  0
LINE
  8
0
 10
110
 20
28
 11
109.309
 21
27.0489
  0
LINE
  8
0
 10
109.309
 20
27.0489
 11
108.191
 21
27.4122
  0
LINE
  8
0
 10
2.19098
 20
27.4122
 11
2.19098
 21
28.5878
  0
LINE
  8
0
 10
2.19098
 20
28.5878
 11
3.30901
 21
28.951
  0
LINE
  8
0
 10
3.30901
 20
28.951
 11
4
 21
28
  0
LINE
  8
0
 10
4
 20
28
 11
3.30901
 21
27.0489
  0
LINE
  8
0
 10
3.30901
 20
27.0489
 11
2.19098
 21
27.4122
  0
LINE
  8
0
 10
108.191
 20
22.4122
 11
108.191
 21
23.5878
  0
LINE
  8
0
 10
108.191
 20
23.5878
 11
109.309
 21
23.951
  0
LINE
  8
0
 10
109.309
 20
23.951
 11
110
 21
23
  0
LINE
  8
0
 10
110
 20
23
 11
109.309
 21
22.0489
  0
LINE
  8
0
 10
109.309
 20
22.0489
 11
108.191
 21
22.4122
  0
LINE
  8
0
 10
2.19098
 20
22.4122
 11
2.19098
 21
23.5878
  0
LINE
  8
0
 10
2.19098
 20
23.5878
 11
3.30901
 21
23.951
  0
LINE
  8
0
 10
3.30901
 20
23.951
 11
4
 21
23
  0
LINE
  8
0
 10
4
 20
23
 11
3.30901
 21
22.0489
  0
LINE
  8
0
 10
3.30901
 20
22.0489
 11
2.19098
 21
22.4122
  0
LINE
  8
0
 10
108.191
 20
17.4122
 11
108.191
 21
18.5878
  0
LINE
  8
0
 10
108.191
 20
18.5878
 11
109.309
 21
18.951
  0
LINE
  8
0
 10
109.309
 20
18.951
 11
110
 21
18
  0
LINE
  8
0
 10
110
 20
18
 11
109.309
 21
17.0489
  0
LINE
  8
0
 10
109.309
 20
17.0489
 11
108.191
 21
17.4122
  0
LINE
  8
0
 10
2.19098
 20
17.4122
 11
2.19098
 21
18.5878
  0
LINE
  8
0
 10
2.19098
 20
18.5878
 11
3.30901
 21
18.951
  0
LINE
  8
0
 10
3.30901
 20
18.951
 11
4
 21
18
  0
LINE
  8
0
 10
4
 20
18
 11
3.30901
 21
17.0489
  0
LINE
  8
0
 10
3.30901
 20
17.0489
 11
2.19098
 21
17.4122
  0
LINE
  8
0
 10
108.191
 20
12.4122
 11
108.191
 21
13.5878
  0
LINE
  8
0
 10
108.191
 20
13.5878
 11
109.309
 21
13.951
  0
LINE
  8
0
 10
109.309
 20
13.951
 11
110
 21
13
  0
LINE
  8
0
 10
110
 20
13
 11
109.309
 21
12.0489
  0
LINE
  8
0
 10
109.309
 20
12.0489
 11
108.191
 21
12.4122
  0
LINE
  8
0
 10
2.19098
 20
12.4122
 11
2.19098
 21
13.5878
  0
LINE
  8
0
 10
2.19098
 20
13.5878
 11
3.30901
 21
13.951
  0
LINE
  8
0
 10
3.30901
 20
13.951
 11
4
 21
13
  0
LINE
  8
0
 10
4
 20
13
 11
3.30901
 21
12.0489
  0
LINE
  8
0
 10
3.30901
 20
12.0489
 11
2.19098
 21
12.4122
  0
LINE
  8
0
 10
108.191
 20
7.4122
 11
108.191
 21
8.58778
  0
LINE
  8
0
 10
108.191
 20
8.58778
 11
109.309
 21
8.95105
  0
LINE
  8
0
 10
109.309
 20
8.95105
 11
110
 21
8
  0
LINE
  8
0
 10
110
 20
8
 11
109.309
 21
7.04893
  0
LINE
  8
0
 10
109.309
 20
7.04893
 11
108.191
 21
7.4122
  0
LINE
  8
0
 10
2.19098
 20
7.4122
 11
2.19098
 21
8.58778
  0
LINE
  8
0
 10
2.19098
 20
8.58778
 11
3.30901
 21
8.95105
  0
LINE
  8
0
 10
3.30901
 20
8.95105
 11
4
 21
8
  0
LINE
  8
0
 10
4
 20
8
 11
3.30901
 21
7.04893
  0
LINE
  8
0
 10
3.30901
 20
7.04893
 11
2.19098
 21
7.4122
  0
LINE
  8
0
 10
2.19098
 20
2.4122
 11
2.19098
 21
3.58778
  0
LINE
  8
0
 10
2.19098
 20
3.58778
 11
3.30901
 21
3.95105
  0
LINE
  8
0
 10
3.30901
 20
3.95105
 11
4
 21
3
  0
LINE
  8
0
 10
4
 20
3
 11
3.30901
 21
2.04893
  0
LINE
  8
0
 10
3.30901
 20
2.04893
 11
2.19098
 21
2.4122
  0
LINE
  8
0
 10
108.191
 20
2.4122
 11
108.191
 21
3.58778
  0
LINE
  8
0
 10
108.191
 20
3.58778
 11
109.309
 21
3.95105
  0
LINE
  8
0
 10
109.309
 20
3.95105
 11
110
 21
3
  0
LINE
  8
0
 10
110
 20
3
 11
109.309
 21
2.04893
  0
LINE
  8
0
 10
109.309
 20
2.04893
 11
108.191
 21
2.4122
  0
ENDSEC
  0
SECTION
  2
OBJECTS
  0
DICTIONARY
  0
ENDSEC
  0
EOF
