<?xml version="1.0" standalone="no"?>
<!DOCTYPE svg PUBLIC "-//W3C//DTD SVG 1.1//EN" "http://www.w3.org/Graphics/SVG/1.1/DTD/svg11.dtd">
<svg width="112" height="228" viewBox="0 -228 112 228" xmlns="http://www.w3.org/2000/svg" version="1.1">
<title>OpenSCAD Model</title>
<path d="
M 112,-152 L 104,-152 L 53.2254,-217.695 L 49.7283,-221.579 L 45.5,-224.651 L 40.7254,-226.776
 L 35.6132,-227.863 L 30.3868,-227.863 L 25.2746,-226.776 L 20.5,-224.651 L 16.2717,-221.579 L 12.7746,-217.695
 L 10.1614,-213.168 L 8.5463,-208.198 L 8,-203 L 8,-152 L 0,-152 L 0,-0
 L 112,-0 z
M 108.191,-147.412 L 108.191,-148.588 L 109.309,-148.951 L 110,-148 L 109.309,-147.049 z
M 2.19098,-147.412 L 2.19098,-148.588 L 3.30901,-148.951 L 4,-148 L 3.30901,-147.049 z
M 108.191,-142.412 L 108.191,-143.588 L 109.309,-143.951 L 110,-143 L 109.309,-142.049 z
M 2.19098,-142.412 L 2.19098,-143.588 L 3.30901,-143.951 L 4,-143 L 3.30901,-142.049 z
M 108.191,-137.412 L 108.191,-138.588 L 109.309,-138.951 L 110,-138 L 109.309,-137.049 z
M 2.19098,-137.412 L 2.19098,-138.588 L 3.30901,-138.951 L 4,-138 L 3.30901,-137.049 z
M 108.191,-132.412 L 108.191,-133.588 L 109.309,-133.951 L 110,-133 L 109.309,-132.049 z
M 2.19098,-132.412 L 2.19098,-133.588 L 3.30901,-133.951 L 4,-133 L 3.30901,-132.049 z
M 108.191,-127.412 L 108.191,-128.588 L 109.309,-128.951 L 110,-128 L 109.309,-127.049 z
M 2.19098,-127.412 L 2.19098,-128.588 L 3.30901,-128.951 L 4,-128 L 3.30901,-127.049 z
M 108.191,-122.412 L 108.191,-123.588 L 109.309,-123.951 L 110,-123 L 109.309,-122.049 z
M 2.19098,-122.412 L 2.19098,-123.588 L 3.30901,-123.951 L 4,-123 L 3.30901,-122.049 z
M 108.191,-117.412 L 108.191,-118.588 L 109.309,-118.951 L 110,-118 L 109.309,-117.049 z
M 2.19098,-117.412 L 2.19098,-118.588 L 3.30901,-118.951 L 4,-118 L 3.30901,-117.049 z
M 2.19098,-112.412 L 2.19098,-113.588 L 3.30901,-113.951 L 4,-113 L 3.30901,-112.049 z
M 108.191,-112.412 L 108.191,-113.588 L 109.309,-113.951 L 110,-113 L 109.309,-112.049 z
M 108.191,-107.412 L 108.191,-108.588 L 109.309,-108.951 L 110,-108 L 109.309,-107.049 z
M 2.19098,-107.412 L 2.19098,-108.588 L 3.30901,-108.951 L 4,-108 L 3.30901,-107.049 z
M 108.191,-102.412 L 108.191,-103.588 L 109.309,-103.951 L 110,-103 L 109.309,-102.049 z
M 2.19098,-102.412 L 2.19098,-103.588 L 3.30901,-103.951 L 4,-103 L 3.30901,-102.049 z
M 108.191,-97.4122 L 108.191,-98.5878 L 109.309,-98.951 L 110,-98 L 109.309,-97.0489 z
M 2.19098,-97.4122 L 2.19098,-98.5878 L 3.30901,-98.951 L 4,-98 L 3.30901,-97.0489 z
M 108.191,-92.4122 L 108.191,-93.5878 L 109.309,-93.951 L 110,-93 L 109.309,-92.0489 z
M 2.19098,-92.4122 L 2.19098,-93.5878 L 3.30901,-93.951 L 4,-93 L 3.30901,-92.0489 z
M 108.191,-87.4122 L 108.191,-88.5878 L 109.309,-88.951 L 110,-88 L 109.309,-87.0489 z
M 2.19098,-87.4122 L 2.19098,-88.5878 L 3.30901,-88.951 L 4,-88 L 3.30901,-87.0489 z
M 108.191,-82.4122 L 108.191,-83.5878 L 109.309,-83.951 L 110,-83 L 109.309,-82.0489 z
M 2.19098,-82.4122 L 2.19098,-83.5878 L 3.30901,-83.951 L 4,-83 L 3.30901,-82.0489 z
M 108.191,-77.4122 L 108.191,-78.5878 L 109.309,-78.951 L 110,-78 L 109.309,-77.0489 z
M 2.19098,-77.4122 L 2.19098,-78.5878 L 3.30901,-78.951 L 4,-78 L 3.30901,-77.0489 z
M 108.191,-72.4122 L 108.191,-73.5878 L 109.309,-73.951 L 110,-73 L 109.309,-72.0489 z
M 2.19098,-72.4122 L 2.19098,-73.5878 L 3.30901,-73.951 L 4,-73 L 3.30901,-72.0489 z
M 108.191,-67.4122 L 108.191,-68.5878 L 109.309,-68.951 L 110,-68 L 109.309,-67.0489 z
M 2.19098,-67.4122 L 2.19098,-68.5878 L 3.30901,-68.951 L 4,-68 L 3.30901,-67.0489 z
M 108.191,-62.4122 L 108.191,-63.5878 L 109.309,-63.951 L 110,-63 L 109.309,-62.0489 z
M 2.19098,-62.4122 L 2.19098,-63.5878 L 3.30901,-63.951 L 4,-63 L 3.30901,-62.0489 z
M 108.191,-57.4122 L 108.191,-58.5878 L 109.309,-58.951 L 110,-58 L 109.309,-57.0489 z
M 2.19098,-57.4122 L 2.19098,-58.5878 L 3.30901,-58.951 L 4,-58 L 3.30901,-57.0489 z
M 108.191,-52.4122 L 108.191,-53.5878 L 109.309,-53.951 L 110,-53 L 109.309,-52.0489 z
M 2.19098,-52.4122 L 2.19098,-53.5878 L 3.30901,-53.951 L 4,-53 L 3.30901,-52.0489 z
M 108.191,-47.4122 L 108.191,-48.5878 L 109.309,-48.951 L 110,-48 L 109.309,-47.0489 z
M 2.19098,-47.4122 L 2.19098,-48.5878 L 3.30901,-48.951 L 4,-48 L 3.30901,-47.0489 z
M 108.191,-42.4122 L 108.191,-43.5878 L 109.309,-43.951 L 110,-43 L 109.309,-42.0489 z
M 2.19098,-42.4122 L 2.19098,-43.5878 L 3.30901,-43.951 L 4,-43 L 3.30901,-42.0489 z
M 108.191,-37.4122 L 108.191,-38.5878 L 109.309,-38.951 L 110,-38 L 109.309,-37.0489 z
M 2.19098,-37.4122 L 2.19098,-38.5878 L 3.30901,-38.951 L 4,-38 L 3.30901,-37.0489 z
M 108.191,-32.4122 L 108.191,-33.5878 L 109.309,-33.951 L 110,-33 L 109.309,-32.0489 z
M 2.19098,-32.4122 L 2.19098,-33.5878 L 3.30901,-33.951 L 4,-33 L 3.30901,-32.0489 z
M 108.191,-27.4122 L 108.191,-28.5878 L 109.309,-28.951 L 110,-28 L 109.309,-27.0489 z
M 2.19098,-27.4122 L 2.19098,-28.5878 L 3.30901,-28.951 L 4,-28 L 3.30901,-27.0489 z
M 108.191,-22.4122 L 108.191,-23.5878 L 109.309,-23.951 L 110,-23 L 109.309,-22.0489 z
M 2.19098,-22.4122 L 2.19098,-23.5878 L 3.30901,-23.951 L 4,-23 L 3.30901,-22.0489 z
M 108.191,-17.4122 L 108.191,-18.5878 L 109.309,-18.951 L 110,-18 L 109.309,-17.0489 z
M 2.19098,-17.4122 L 2.19098,-18.5878 L 3.30901,-18.951 L 4,-18 L 3.30901,-17.0489 z
M 108.191,-12.4122 L 108.191,-13.5878 L 109.309,-13.951 L 110,-13 L 109.309,-12.0489 z
M 2.19098,-12.4122 L 2.19098,-13.5878 L 3.30901,-13.951 L 4,-13 L 3.30901,-12.0489 z
M 108.191,-7.4122 L 108.191,-8.58778 L 109.309,-8.95105 L 110,-8 L 109.309,-7.04893 z
M 2.19098,-7.4122 L 2.19098,-8.58778 L 3.30901,-8.95105 L 4,-8 L 3.30901,-7.04893 z
M 2.19098,-2.4122 L 2.19098,-3.58778 L 3.30901,-3.95105 L 4,-3 L 3.30901,-2.04893 z
M 108.191,-2.4122 L 108.191,-3.58778 L 109.309,-3.95105 L 110,-3 L 109.309,-2.04893 z
" stroke="black" fill="lightgray" stroke-width="0.5"/></svg>
