  0
SECTION
  2
BLOCKS
  0
ENDSEC
  0
SECTION
  2
ENTITIES
  0
LINE
  8
0
 10
59.1803
 20
-19.0211
 11
63
 21
-17.3205
  0
LINE
  8
0
 10
63
 20
-17.3205
 11
66.3826
 21
-14.8629
  0
LINE
  8
0
 10
66.3826
 20
-14.8629
 11
69.1803
 21
-11.7557
  0
LINE
  8
0
 10
69.1803
 20
-11.7557
 11
71.2709
 21
-8.13472
  0
LINE
  8
0
 10
71.2709
 20
-8.13472
 11
72.5629
 21
-4.15823
  0
LINE
  8
0
 10
72.5629
 20
-4.15823
 11
73
 21
0
  0
LINE
  8
0
 10
73
 20
0
 11
73
 21
130
  0
LINE
  8
0
 10
73
 20
130
 11
72.5629
 21
134.158
  0
LINE
  8
0
 10
72.5629
 20
134.158
 11
71.2709
 21
138.135
  0
LINE
  8
0
 10
71.2709
 20
138.135
 11
69.1803
 21
141.756
  0
LINE
  8
0
 10
69.1803
 20
141.756
 11
66.3826
 21
144.863
  0
LINE
  8
0
 10
66.3826
 20
144.863
 11
63
 21
147.32
  0
LINE
  8
0
 10
63
 20
147.32
 11
59.1803
 21
149.021
  0
LINE
  8
0
 10
59.1803
 20
149.021
 11
55.0906
 21
149.89
  0
LINE
  8
0
 10
55.0906
 20
149.89
 11
-2.09056
 21
149.89
  0
LINE
  8
0
 10
-2.09056
 20
149.89
 11
-6.18033
 21
149.021
  0
LINE
  8
0
 10
-6.18033
 20
149.021
 11
-9.99998
 21
147.32
  0
LINE
  8
0
 10
-9.99998
 20
147.32
 11
-13.3826
 21
144.863
  0
LINE
  8
0
 10
-13.3826
 20
144.863
 11
-16.1803
 21
141.756
  0
LINE
  8
0
 10
-16.1803
 20
141.756
 11
-18.2709
 21
138.135
  0
LINE
  8
0
 10
-18.2709
 20
138.135
 11
-19.5629
 21
134.158
  0
LINE
  8
0
 10
-19.5629
 20
134.158
 11
-20
 21
130
  0
LINE
  8
0
 10
-20
 20
130
 11
-20
 21
0
  0
LINE
  8
0
 10
-20
 20
0
 11
-19.5629
 21
-4.15823
  0
LINE
  8
0
 10
-19.5629
 20
-4.15823
 11
-18.2709
 21
-8.13472
  0
LINE
  8
0
 10
-18.2709
 20
-8.13472
 11
-16.1803
 21
-11.7557
  0
LINE
  8
0
 10
-16.1803
 20
-11.7557
 11
-13.3826
 21
-14.8629
  0
LINE
  8
0
 10
-13.3826
 20
-14.8629
 11
-10
 21
-17.3205
  0
LINE
  8
0
 10
-10
 20
-17.3205
 11
-6.18033
 21
-19.0211
  0
LINE
  8
0
 10
-6.18033
 20
-19.0211
 11
-2.09056
 21
-19.8904
  0
LINE
  8
0
 10
-2.09056
 20
-19.8904
 11
55.0906
 21
-19.8904
  0
LINE
  8
0
 10
55.0906
 20
-19.8904
 11
59.1803
 21
-19.0211
  0
LINE
  8
0
 10
-13
 20
135.5
 11
-14.7678
 21
136.232
  0
LINE
  8
0
 10
-14.7678
 20
136.232
 11
-15.5
 21
138
  0
LINE
  8
0
 10
-15.5
 20
138
 11
-14.7678
 21
139.768
  0
LINE
  8
0
 10
-14.7678
 20
139.768
 11
-13
 21
140.5
  0
LINE
  8
0
 10
-13
 20
140.5
 11
27
 21
143
  0
LINE
  8
0
 10
27
 20
143
 11
67
 21
140.5
  0
LINE
  8
0
 10
67
 20
140.5
 11
68.7678
 21
139.768
  0
LINE
  8
0
 10
68.7678
 20
139.768
 11
69.5
 21
138
  0
LINE
  8
0
 10
69.5
 20
138
 11
68.7678
 21
136.232
  0
LINE
  8
0
 10
68.7678
 20
136.232
 11
67
 21
135.5
  0
LINE
  8
0
 10
67
 20
135.5
 11
27
 21
133
  0
LINE
  8
0
 10
27
 20
133
 11
-13
 21
135.5
  0
LINE
  8
0
 10
41.6811
 20
107.57
 11
45.482
 21
111.371
  0
LINE
  8
0
 10
45.482
 20
111.371
 11
44.8624
 21
112.325
  0
LINE
  8
0
 10
44.8624
 20
112.325
 11
43.9259
 21
114.765
  0
LINE
  8
0
 10
43.9259
 20
114.765
 11
43.5171
 21
117.346
  0
LINE
  8
0
 10
43.5171
 20
117.346
 11
43.6539
 21
119.955
  0
LINE
  8
0
 10
43.6539
 20
119.955
 11
44.3302
 21
122.48
  0
LINE
  8
0
 10
44.3302
 20
122.48
 11
45.5166
 21
124.808
  0
LINE
  8
0
 10
45.5166
 20
124.808
 11
47.1612
 21
126.839
  0
LINE
  8
0
 10
47.1612
 20
126.839
 11
49.192
 21
128.483
  0
LINE
  8
0
 10
49.192
 20
128.483
 11
51.5204
 21
129.67
  0
LINE
  8
0
 10
51.5204
 20
129.67
 11
54.0446
 21
130.346
  0
LINE
  8
0
 10
54.0446
 20
130.346
 11
68.0208
 21
132.521
  0
LINE
  8
0
 10
68.0208
 20
132.521
 11
69.7886
 21
131.789
  0
LINE
  8
0
 10
69.7886
 20
131.789
 11
70.5208
 21
130.021
  0
LINE
  8
0
 10
70.5208
 20
130.021
 11
68.3461
 21
116.045
  0
LINE
  8
0
 10
68.3461
 20
116.045
 11
67.6697
 21
113.52
  0
LINE
  8
0
 10
67.6697
 20
113.52
 11
66.4834
 21
111.192
  0
LINE
  8
0
 10
66.4834
 20
111.192
 11
64.8388
 21
109.161
  0
LINE
  8
0
 10
64.8388
 20
109.161
 11
62.808
 21
107.517
  0
LINE
  8
0
 10
62.808
 20
107.517
 11
60.4796
 21
106.33
  0
LINE
  8
0
 10
60.4796
 20
106.33
 11
57.9554
 21
105.654
  0
LINE
  8
0
 10
57.9554
 20
105.654
 11
55.3458
 21
105.517
  0
LINE
  8
0
 10
55.3458
 20
105.517
 11
52.7648
 21
105.926
  0
LINE
  8
0
 10
52.7648
 20
105.926
 11
50.3251
 21
106.862
  0
LINE
  8
0
 10
50.3251
 20
106.862
 11
49.3711
 21
107.482
  0
LINE
  8
0
 10
49.3711
 20
107.482
 11
45.5702
 21
103.681
  0
LINE
  8
0
 10
45.5702
 20
103.681
 11
41.6811
 21
107.57
  0
LINE
  8
0
 10
-3
 20
92.5
 11
-2.99998
 21
130.5
  0
LINE
  8
0
 10
-2.99998
 20
130.5
 11
15
 21
130.5
  0
LINE
  8
0
 10
15
 20
130.5
 11
15
 21
126
  0
LINE
  8
0
 10
15
 20
126
 11
35
 21
126
  0
LINE
  8
0
 10
35
 20
126
 11
35
 21
99
  0
LINE
  8
0
 10
35
 20
99
 11
15
 21
99
  0
LINE
  8
0
 10
15
 20
99
 11
15
 21
92.5
  0
LINE
  8
0
 10
15
 20
92.5
 11
-3
 21
92.5
  0
LINE
  8
0
 10
-18
 20
30
 11
-18
 21
130.5
  0
LINE
  8
0
 10
-18
 20
130.5
 11
-8.5
 21
130.5
  0
LINE
  8
0
 10
-8.5
 20
130.5
 11
-8.5
 21
30
  0
LINE
  8
0
 10
-8.5
 20
30
 11
-18
 21
30
  0
LINE
  8
0
 10
34.8502
 20
73.0603
 11
32.6008
 21
73.5384
  0
LINE
  8
0
 10
32.6008
 20
73.5384
 11
30.5
 21
74.4737
  0
LINE
  8
0
 10
30.5
 20
74.4737
 11
28.6396
 21
75.8254
  0
LINE
  8
0
 10
28.6396
 20
75.8254
 11
27.1008
 21
77.5343
  0
LINE
  8
0
 10
27.1008
 20
77.5343
 11
25.951
 21
79.5259
  0
LINE
  8
0
 10
25.951
 20
79.5259
 11
25.2404
 21
81.713
  0
LINE
  8
0
 10
25.2404
 20
81.713
 11
25
 21
84
  0
LINE
  8
0
 10
25
 20
84
 11
25.2404
 21
86.287
  0
LINE
  8
0
 10
25.2404
 20
86.287
 11
25.951
 21
88.4741
  0
LINE
  8
0
 10
25.951
 20
88.4741
 11
27.1008
 21
90.4656
  0
LINE
  8
0
 10
27.1008
 20
90.4656
 11
28.6396
 21
92.1746
  0
LINE
  8
0
 10
28.6396
 20
92.1746
 11
30.5
 21
93.5263
  0
LINE
  8
0
 10
30.5
 20
93.5263
 11
32.6008
 21
94.4616
  0
LINE
  8
0
 10
32.6008
 20
94.4616
 11
34.8502
 21
94.9397
  0
LINE
  8
0
 10
34.8502
 20
94.9397
 11
36
 21
94.9397
  0
LINE
  8
0
 10
36
 20
94.9397
 11
36
 21
95
  0
LINE
  8
0
 10
36
 20
95
 11
52
 21
95
  0
LINE
  8
0
 10
52
 20
95
 11
52
 21
103
  0
LINE
  8
0
 10
52
 20
103
 11
61
 21
103
  0
LINE
  8
0
 10
61
 20
103
 11
61
 21
95
  0
LINE
  8
0
 10
61
 20
95
 11
69
 21
95
  0
LINE
  8
0
 10
69
 20
95
 11
69
 21
75
  0
LINE
  8
0
 10
69
 20
75
 11
42.2244
 21
75
  0
LINE
  8
0
 10
42.2244
 20
75
 11
41.5
 21
74.4737
  0
LINE
  8
0
 10
41.5
 20
74.4737
 11
39.3992
 21
73.5384
  0
LINE
  8
0
 10
39.3992
 20
73.5384
 11
37.1498
 21
73.0603
  0
LINE
  8
0
 10
37.1498
 20
73.0603
 11
34.8502
 21
73.0603
  0
LINE
  8
0
 10
8.52092
 20
59.9275
 11
5.6274
 21
60.5425
  0
LINE
  8
0
 10
5.6274
 20
60.5425
 11
2.92499
 21
61.7457
  0
LINE
  8
0
 10
2.92499
 20
61.7457
 11
0.531799
 21
63.4845
  0
LINE
  8
0
 10
0.531799
 20
63.4845
 11
-1.44759
 21
65.6828
  0
LINE
  8
0
 10
-1.44759
 20
65.6828
 11
-2.92667
 21
68.2447
  0
LINE
  8
0
 10
-2.92667
 20
68.2447
 11
-3.84077
 21
71.058
  0
LINE
  8
0
 10
-3.84077
 20
71.058
 11
-4.14999
 21
74
  0
LINE
  8
0
 10
-4.14999
 20
74
 11
-3.84077
 21
76.9419
  0
LINE
  8
0
 10
-3.84077
 20
76.9419
 11
-2.92667
 21
79.7553
  0
LINE
  8
0
 10
-2.92667
 20
79.7553
 11
-1.44759
 21
82.3172
  0
LINE
  8
0
 10
-1.44759
 20
82.3172
 11
0.531799
 21
84.5155
  0
LINE
  8
0
 10
0.531799
 20
84.5155
 11
2.92499
 21
86.2543
  0
LINE
  8
0
 10
2.92499
 20
86.2543
 11
5.6274
 21
87.4574
  0
LINE
  8
0
 10
5.6274
 20
87.4574
 11
8.52092
 21
88.0725
  0
LINE
  8
0
 10
8.52092
 20
88.0725
 11
11.4791
 21
88.0725
  0
LINE
  8
0
 10
11.4791
 20
88.0725
 11
14.3726
 21
87.4574
  0
LINE
  8
0
 10
14.3726
 20
87.4574
 11
17.075
 21
86.2543
  0
LINE
  8
0
 10
17.075
 20
86.2543
 11
19.4682
 21
84.5155
  0
LINE
  8
0
 10
19.4682
 20
84.5155
 11
21.4476
 21
82.3172
  0
LINE
  8
0
 10
21.4476
 20
82.3172
 11
22.9267
 21
79.7553
  0
LINE
  8
0
 10
22.9267
 20
79.7553
 11
23.8408
 21
76.9419
  0
LINE
  8
0
 10
23.8408
 20
76.9419
 11
24.15
 21
74
  0
LINE
  8
0
 10
24.15
 20
74
 11
23.8408
 21
71.058
  0
LINE
  8
0
 10
23.8408
 20
71.058
 11
22.9267
 21
68.2447
  0
LINE
  8
0
 10
22.9267
 20
68.2447
 11
21.4476
 21
65.6828
  0
LINE
  8
0
 10
21.4476
 20
65.6828
 11
19.4682
 21
63.4845
  0
LINE
  8
0
 10
19.4682
 20
63.4845
 11
17.075
 21
61.7457
  0
LINE
  8
0
 10
17.075
 20
61.7457
 11
14.3726
 21
60.5425
  0
LINE
  8
0
 10
14.3726
 20
60.5425
 11
11.4791
 21
59.9275
  0
LINE
  8
0
 10
11.4791
 20
59.9275
 11
8.52092
 21
59.9275
  0
LINE
  8
0
 10
30
 20
32
 11
30
 21
42.5
  0
LINE
  8
0
 10
30
 20
42.5
 11
15
 21
42.5
  0
LINE
  8
0
 10
15
 20
42.5
 11
15
 21
47
  0
LINE
  8
0
 10
15
 20
47
 11
30
 21
47
  0
LINE
  8
0
 10
30
 20
47
 11
30
 21
71
  0
LINE
  8
0
 10
30
 20
71
 11
69
 21
71
  0
LINE
  8
0
 10
69
 20
71
 11
69
 21
32
  0
LINE
  8
0
 10
69
 20
32
 11
30
 21
32
  0
LINE
  8
0
 10
-2.40936
 20
33.0466
 11
-4.10356
 21
33.8902
  0
LINE
  8
0
 10
-4.10356
 20
33.8902
 11
-5.37862
 21
35.2889
  0
LINE
  8
0
 10
-5.37862
 20
35.2889
 11
-6.0623
 21
37.0537
  0
LINE
  8
0
 10
-6.0623
 20
37.0537
 11
-6.0623
 21
38.9463
  0
LINE
  8
0
 10
-6.0623
 20
38.9463
 11
-5.37862
 21
40.7111
  0
LINE
  8
0
 10
-5.37862
 20
40.7111
 11
-4.10356
 21
42.1098
  0
LINE
  8
0
 10
-4.10356
 20
42.1098
 11
-2.40936
 21
42.9534
  0
LINE
  8
0
 10
-2.40936
 20
42.9534
 11
-0.524811
 21
43.128
  0
LINE
  8
0
 10
-0.524811
 20
43.128
 11
1.29555
 21
42.6101
  0
LINE
  8
0
 10
1.29555
 20
42.6101
 11
2.80589
 21
41.4695
  0
LINE
  8
0
 10
2.80589
 20
41.4695
 11
3.80223
 21
39.8604
  0
LINE
  8
0
 10
3.80223
 20
39.8604
 11
4.14999
 21
38
  0
LINE
  8
0
 10
4.14999
 20
38
 11
3.80223
 21
36.1396
  0
LINE
  8
0
 10
3.80223
 20
36.1396
 11
2.80589
 21
34.5305
  0
LINE
  8
0
 10
2.80589
 20
34.5305
 11
1.29555
 21
33.3899
  0
LINE
  8
0
 10
1.29555
 20
33.3899
 11
-0.524811
 21
32.872
  0
LINE
  8
0
 10
-0.524811
 20
32.872
 11
-2.40936
 21
33.0466
  0
LINE
  8
0
 10
-16
 20
24
 11
18.7686
 21
36.6547
  0
LINE
  8
0
 10
18.7686
 20
36.6547
 11
22.3598
 21
26.788
  0
LINE
  8
0
 10
22.3598
 20
26.788
 11
-12.4088
 21
14.1332
  0
LINE
  8
0
 10
-12.4088
 20
14.1332
 11
-16
 21
24
  0
LINE
  8
0
 10
7.79129
 20
-16.8288
 11
4.29172
 21
-16.7066
  0
LINE
  8
0
 10
4.29172
 20
-16.7066
 11
0.894043
 21
-15.8594
  0
LINE
  8
0
 10
0.894043
 20
-15.8594
 11
-8.38264
 21
-13.4939
  0
LINE
  8
0
 10
-8.38264
 20
-13.4939
 11
-10.675
 21
-12.3759
  0
LINE
  8
0
 10
-10.675
 20
-12.3759
 11
-12.6848
 21
-10.8056
  0
LINE
  8
0
 10
-12.6848
 20
-10.8056
 11
-14.3242
 21
-8.85185
  0
LINE
  8
0
 10
-14.3242
 20
-8.85185
 11
-15.5216
 21
-6.5999
  0
LINE
  8
0
 10
-15.5216
 20
-6.5999
 11
-16.2247
 21
-4.14821
  0
LINE
  8
0
 10
-16.2247
 20
-4.14821
 11
-16.4026
 21
-1.60393
  0
LINE
  8
0
 10
-16.4026
 20
-1.60393
 11
-16.0476
 21
0.921738
  0
LINE
  8
0
 10
-16.0476
 20
0.921738
 11
-15.1753
 21
3.31842
  0
LINE
  8
0
 10
-15.1753
 20
3.31842
 11
-13.8237
 21
5.48135
  0
LINE
  8
0
 10
-13.8237
 20
5.48135
 11
-12.052
 21
7.31602
  0
LINE
  8
0
 10
-12.052
 20
7.31602
 11
-4.1438
 21
12.7117
  0
LINE
  8
0
 10
-4.1438
 20
12.7117
 11
-1.24075
 21
14.6698
  0
LINE
  8
0
 10
-1.24075
 20
14.6698
 11
2.00595
 21
15.9816
  0
LINE
  8
0
 10
2.00595
 20
15.9816
 11
24.2632
 21
24.9554
  0
LINE
  8
0
 10
24.2632
 20
24.9554
 11
40.5914
 21
29.3493
  0
LINE
  8
0
 10
40.5914
 20
29.3493
 11
45.3782
 21
30.1934
  0
LINE
  8
0
 10
45.3782
 20
30.1934
 11
50.2358
 21
30.0237
  0
LINE
  8
0
 10
50.2358
 20
30.0237
 11
54.952
 21
28.8478
  0
LINE
  8
0
 10
54.952
 20
28.8478
 11
59.3206
 21
26.7171
  0
LINE
  8
0
 10
59.3206
 20
26.7171
 11
63.1508
 21
23.7246
  0
LINE
  8
0
 10
63.1508
 20
23.7246
 11
66.2751
 21
20.0012
  0
LINE
  8
0
 10
66.2751
 20
20.0012
 11
68.557
 21
15.7096
  0
LINE
  8
0
 10
68.557
 20
15.7096
 11
69.8968
 21
11.0373
  0
LINE
  8
0
 10
69.8968
 20
11.0373
 11
70.2358
 21
6.18858
  0
LINE
  8
0
 10
70.2358
 20
6.18858
 11
69.5594
 21
1.37531
  0
LINE
  8
0
 10
69.5594
 20
1.37531
 11
67.897
 21
-3.19212
  0
LINE
  8
0
 10
67.897
 20
-3.19212
 11
65.3212
 21
-7.31412
  0
LINE
  8
0
 10
65.3212
 20
-7.31412
 11
61.9448
 21
-10.8105
  0
LINE
  8
0
 10
61.9448
 20
-10.8105
 11
57.9152
 21
-13.5285
  0
LINE
  8
0
 10
57.9152
 20
-13.5285
 11
53.4086
 21
-15.3493
  0
LINE
  8
0
 10
53.4086
 20
-15.3493
 11
48.6218
 21
-16.1934
  0
LINE
  8
0
 10
48.6218
 20
-16.1934
 11
31.7755
 21
-17.649
  0
LINE
  8
0
 10
31.7755
 20
-17.649
 11
7.79129
 21
-16.8288
  0
ENDSEC
  0
SECTION
  2
OBJECTS
  0
DICTIONARY
  0
ENDSEC
  0
EOF
