  0
SECTION
  2
BLOCKS
  0
ENDSEC
  0
SECTION
  2
ENTITIES
  0
LINE
  8
0
 10
164.871
 20
-18.0701
 11
168.5
 21
-16.4545
  0
LINE
  8
0
 10
168.5
 20
-16.4545
 11
171.713
 21
-14.1198
  0
LINE
  8
0
 10
171.713
 20
-14.1198
 11
174.371
 21
-11.1679
  0
LINE
  8
0
 10
174.371
 20
-11.1679
 11
176.357
 21
-7.72798
  0
LINE
  8
0
 10
176.357
 20
-7.72798
 11
177.585
 21
-3.95032
  0
LINE
  8
0
 10
177.585
 20
-3.95032
 11
178
 21
0
  0
LINE
  8
0
 10
178
 20
0
 11
178
 21
215
  0
LINE
  8
0
 10
178
 20
215
 11
177.585
 21
218.95
  0
LINE
  8
0
 10
177.585
 20
218.95
 11
176.357
 21
222.728
  0
LINE
  8
0
 10
176.357
 20
222.728
 11
174.371
 21
226.168
  0
LINE
  8
0
 10
174.371
 20
226.168
 11
171.713
 21
229.12
  0
LINE
  8
0
 10
171.713
 20
229.12
 11
168.5
 21
231.454
  0
LINE
  8
0
 10
168.5
 20
231.454
 11
164.871
 21
233.07
  0
LINE
  8
0
 10
164.871
 20
233.07
 11
160.986
 21
233.896
  0
LINE
  8
0
 10
160.986
 20
233.896
 11
-1.98604
 21
233.896
  0
LINE
  8
0
 10
-1.98604
 20
233.896
 11
-5.87132
 21
233.07
  0
LINE
  8
0
 10
-5.87132
 20
233.07
 11
-9.49998
 21
231.454
  0
LINE
  8
0
 10
-9.49998
 20
231.454
 11
-12.7135
 21
229.12
  0
LINE
  8
0
 10
-12.7135
 20
229.12
 11
-15.3713
 21
226.168
  0
LINE
  8
0
 10
-15.3713
 20
226.168
 11
-17.3574
 21
222.728
  0
LINE
  8
0
 10
-17.3574
 20
222.728
 11
-18.5848
 21
218.95
  0
LINE
  8
0
 10
-18.5848
 20
218.95
 11
-19
 21
215
  0
LINE
  8
0
 10
-19
 20
215
 11
-19
 21
0
  0
LINE
  8
0
 10
-19
 20
0
 11
-18.5848
 21
-3.95032
  0
LINE
  8
0
 10
-18.5848
 20
-3.95032
 11
-17.3574
 21
-7.72798
  0
LINE
  8
0
 10
-17.3574
 20
-7.72798
 11
-15.3713
 21
-11.1679
  0
LINE
  8
0
 10
-15.3713
 20
-11.1679
 11
-12.7135
 21
-14.1198
  0
LINE
  8
0
 10
-12.7135
 20
-14.1198
 11
-9.5
 21
-16.4545
  0
LINE
  8
0
 10
-9.5
 20
-16.4545
 11
-5.87132
 21
-18.0701
  0
LINE
  8
0
 10
-5.87132
 20
-18.0701
 11
-1.98604
 21
-18.8959
  0
LINE
  8
0
 10
-1.98604
 20
-18.8959
 11
160.986
 21
-18.8959
  0
LINE
  8
0
 10
160.986
 20
-18.8959
 11
164.871
 21
-18.0701
  0
LINE
  8
0
 10
-10
 20
170
 11
-10
 21
199
  0
LINE
  8
0
 10
-10
 20
199
 11
64
 21
199
  0
LINE
  8
0
 10
64
 20
199
 11
64
 21
170
  0
LINE
  8
0
 10
64
 20
170
 11
36
 21
170
  0
LINE
  8
0
 10
36
 20
170
 11
36
 21
129
  0
LINE
  8
0
 10
36
 20
129
 11
27
 21
129
  0
LINE
  8
0
 10
27
 20
129
 11
27
 21
32.7766
  0
LINE
  8
0
 10
27
 20
32.7766
 11
27.3598
 21
31.788
  0
LINE
  8
0
 10
27.3598
 20
31.788
 11
27
 21
31.657
  0
LINE
  8
0
 10
27
 20
31.657
 11
27
 21
-12
  0
LINE
  8
0
 10
27
 20
-12
 11
11
 21
-12
  0
LINE
  8
0
 10
11
 20
-12
 11
11
 21
25.8335
  0
LINE
  8
0
 10
11
 20
25.8335
 11
-7.40878
 21
19.1332
  0
LINE
  8
0
 10
-7.40878
 20
19.1332
 11
-11
 21
29
  0
LINE
  8
0
 10
-11
 20
29
 11
11
 21
37.0073
  0
LINE
  8
0
 10
11
 20
37.0073
 11
11
 21
97.5
  0
LINE
  8
0
 10
11
 20
97.5
 11
2
 21
97.5
  0
LINE
  8
0
 10
2
 20
97.5
 11
2
 21
170
  0
LINE
  8
0
 10
2
 20
170
 11
-10
 21
170
  0
LINE
  8
0
 10
82
 20
-10
 11
82
 21
145
  0
LINE
  8
0
 10
82
 20
145
 11
169
 21
145
  0
LINE
  8
0
 10
169
 20
145
 11
169
 21
-10
  0
LINE
  8
0
 10
169
 20
-10
 11
82
 21
-10
  0
LINE
  8
0
 10
-13
 20
35
 11
-13
 21
135.5
  0
LINE
  8
0
 10
-13
 20
135.5
 11
-3.5
 21
135.5
  0
LINE
  8
0
 10
-3.5
 20
135.5
 11
-3.5
 21
35
  0
LINE
  8
0
 10
-3.5
 20
35
 11
-13
 21
35
  0
LINE
  8
0
 10
39.8502
 20
78.0603
 11
37.6008
 21
78.5384
  0
LINE
  8
0
 10
37.6008
 20
78.5384
 11
35.5
 21
79.4737
  0
LINE
  8
0
 10
35.5
 20
79.4737
 11
33.6396
 21
80.8254
  0
LINE
  8
0
 10
33.6396
 20
80.8254
 11
32.1008
 21
82.5343
  0
LINE
  8
0
 10
32.1008
 20
82.5343
 11
30.951
 21
84.5259
  0
LINE
  8
0
 10
30.951
 20
84.5259
 11
30.2404
 21
86.713
  0
LINE
  8
0
 10
30.2404
 20
86.713
 11
30
 21
89
  0
LINE
  8
0
 10
30
 20
89
 11
30.2404
 21
91.287
  0
LINE
  8
0
 10
30.2404
 20
91.287
 11
30.951
 21
93.4741
  0
LINE
  8
0
 10
30.951
 20
93.4741
 11
32.1008
 21
95.4656
  0
LINE
  8
0
 10
32.1008
 20
95.4656
 11
33.6396
 21
97.1746
  0
LINE
  8
0
 10
33.6396
 20
97.1746
 11
35.5
 21
98.5263
  0
LINE
  8
0
 10
35.5
 20
98.5263
 11
37.6008
 21
99.4616
  0
LINE
  8
0
 10
37.6008
 20
99.4616
 11
39.8502
 21
99.9397
  0
LINE
  8
0
 10
39.8502
 20
99.9397
 11
42.1498
 21
99.9397
  0
LINE
  8
0
 10
42.1498
 20
99.9397
 11
44.3992
 21
99.4616
  0
LINE
  8
0
 10
44.3992
 20
99.4616
 11
46.5
 21
98.5263
  0
LINE
  8
0
 10
46.5
 20
98.5263
 11
48.3604
 21
97.1746
  0
LINE
  8
0
 10
48.3604
 20
97.1746
 11
49.8992
 21
95.4656
  0
LINE
  8
0
 10
49.8992
 20
95.4656
 11
51.049
 21
93.4741
  0
LINE
  8
0
 10
51.049
 20
93.4741
 11
51.7596
 21
91.287
  0
LINE
  8
0
 10
51.7596
 20
91.287
 11
52
 21
89
  0
LINE
  8
0
 10
52
 20
89
 11
51.7596
 21
86.713
  0
LINE
  8
0
 10
51.7596
 20
86.713
 11
51.049
 21
84.5259
  0
LINE
  8
0
 10
51.049
 20
84.5259
 11
49.8992
 21
82.5343
  0
LINE
  8
0
 10
49.8992
 20
82.5343
 11
48.3604
 21
80.8254
  0
LINE
  8
0
 10
48.3604
 20
80.8254
 11
46.5
 21
79.4737
  0
LINE
  8
0
 10
46.5
 20
79.4737
 11
44.3992
 21
78.5384
  0
LINE
  8
0
 10
44.3992
 20
78.5384
 11
42.1498
 21
78.0603
  0
LINE
  8
0
 10
42.1498
 20
78.0603
 11
39.8502
 21
78.0603
  0
LINE
  8
0
 10
2.59062
 20
38.0466
 11
0.896423
 21
38.8902
  0
LINE
  8
0
 10
0.896423
 20
38.8902
 11
-0.378616
 21
40.2889
  0
LINE
  8
0
 10
-0.378616
 20
40.2889
 11
-1.0623
 21
42.0537
  0
LINE
  8
0
 10
-1.0623
 20
42.0537
 11
-1.0623
 21
43.9463
  0
LINE
  8
0
 10
-1.0623
 20
43.9463
 11
-0.378616
 21
45.7111
  0
LINE
  8
0
 10
-0.378616
 20
45.7111
 11
0.896423
 21
47.1098
  0
LINE
  8
0
 10
0.896423
 20
47.1098
 11
2.59062
 21
47.9534
  0
LINE
  8
0
 10
2.59062
 20
47.9534
 11
4.47517
 21
48.128
  0
LINE
  8
0
 10
4.47517
 20
48.128
 11
6.29555
 21
47.6101
  0
LINE
  8
0
 10
6.29555
 20
47.6101
 11
7.80589
 21
46.4695
  0
LINE
  8
0
 10
7.80589
 20
46.4695
 11
8.80223
 21
44.8604
  0
LINE
  8
0
 10
8.80223
 20
44.8604
 11
9.14999
 21
43
  0
LINE
  8
0
 10
9.14999
 20
43
 11
8.80223
 21
41.1396
  0
LINE
  8
0
 10
8.80223
 20
41.1396
 11
7.80589
 21
39.5305
  0
LINE
  8
0
 10
7.80589
 20
39.5305
 11
6.29555
 21
38.3899
  0
LINE
  8
0
 10
6.29555
 20
38.3899
 11
4.47517
 21
37.872
  0
LINE
  8
0
 10
4.47517
 20
37.872
 11
2.59062
 21
38.0466
  0
ENDSEC
  0
SECTION
  2
OBJECTS
  0
DICTIONARY
  0
ENDSEC
  0
EOF
