  0
SECTION
  2
BLOCKS
  0
ENDSEC
  0
SECTION
  2
ENTITIES
  0
LINE
  8
0
 10
164.871
 20
-18.0701
 11
168.5
 21
-16.4545
  0
LINE
  8
0
 10
168.5
 20
-16.4545
 11
171.713
 21
-14.1198
  0
LINE
  8
0
 10
171.713
 20
-14.1198
 11
174.371
 21
-11.1679
  0
LINE
  8
0
 10
174.371
 20
-11.1679
 11
176.357
 21
-7.72798
  0
LINE
  8
0
 10
176.357
 20
-7.72798
 11
177.585
 21
-3.95032
  0
LINE
  8
0
 10
177.585
 20
-3.95032
 11
178
 21
0
  0
LINE
  8
0
 10
178
 20
0
 11
178
 21
215
  0
LINE
  8
0
 10
178
 20
215
 11
177.585
 21
218.95
  0
LINE
  8
0
 10
177.585
 20
218.95
 11
176.357
 21
222.728
  0
LINE
  8
0
 10
176.357
 20
222.728
 11
174.371
 21
226.168
  0
LINE
  8
0
 10
174.371
 20
226.168
 11
171.713
 21
229.12
  0
LINE
  8
0
 10
171.713
 20
229.12
 11
168.5
 21
231.454
  0
LINE
  8
0
 10
168.5
 20
231.454
 11
164.871
 21
233.07
  0
LINE
  8
0
 10
164.871
 20
233.07
 11
160.986
 21
233.896
  0
LINE
  8
0
 10
160.986
 20
233.896
 11
-1.98604
 21
233.896
  0
LINE
  8
0
 10
-1.98604
 20
233.896
 11
-5.87132
 21
233.07
  0
LINE
  8
0
 10
-5.87132
 20
233.07
 11
-9.49998
 21
231.454
  0
LINE
  8
0
 10
-9.49998
 20
231.454
 11
-12.7135
 21
229.12
  0
LINE
  8
0
 10
-12.7135
 20
229.12
 11
-15.3713
 21
226.168
  0
LINE
  8
0
 10
-15.3713
 20
226.168
 11
-17.3574
 21
222.728
  0
LINE
  8
0
 10
-17.3574
 20
222.728
 11
-18.5848
 21
218.95
  0
LINE
  8
0
 10
-18.5848
 20
218.95
 11
-19
 21
215
  0
LINE
  8
0
 10
-19
 20
215
 11
-19
 21
0
  0
LINE
  8
0
 10
-19
 20
0
 11
-18.5848
 21
-3.95032
  0
LINE
  8
0
 10
-18.5848
 20
-3.95032
 11
-17.3574
 21
-7.72798
  0
LINE
  8
0
 10
-17.3574
 20
-7.72798
 11
-15.3713
 21
-11.1679
  0
LINE
  8
0
 10
-15.3713
 20
-11.1679
 11
-12.7135
 21
-14.1198
  0
LINE
  8
0
 10
-12.7135
 20
-14.1198
 11
-9.5
 21
-16.4545
  0
LINE
  8
0
 10
-9.5
 20
-16.4545
 11
-5.87132
 21
-18.0701
  0
LINE
  8
0
 10
-5.87132
 20
-18.0701
 11
-1.98604
 21
-18.8959
  0
LINE
  8
0
 10
-1.98604
 20
-18.8959
 11
160.986
 21
-18.8959
  0
LINE
  8
0
 10
160.986
 20
-18.8959
 11
164.871
 21
-18.0701
  0
LINE
  8
0
 10
-10
 20
140
 11
-10
 21
144.194
  0
LINE
  8
0
 10
-10
 20
144.194
 11
-10.75
 21
144.505
  0
LINE
  8
0
 10
-10.75
 20
144.505
 11
-12.3033
 21
145.697
  0
LINE
  8
0
 10
-12.3033
 20
145.697
 11
-13.4952
 21
147.25
  0
LINE
  8
0
 10
-13.4952
 20
147.25
 11
-14.2444
 21
149.059
  0
LINE
  8
0
 10
-14.2444
 20
149.059
 11
-14.5
 21
151
  0
LINE
  8
0
 10
-14.5
 20
151
 11
-14.2444
 21
152.941
  0
LINE
  8
0
 10
-14.2444
 20
152.941
 11
-13.4952
 21
154.75
  0
LINE
  8
0
 10
-13.4952
 20
154.75
 11
-12.3033
 21
156.303
  0
LINE
  8
0
 10
-12.3033
 20
156.303
 11
-10
 21
158.29
  0
LINE
  8
0
 10
-10
 20
158.29
 11
-10
 21
166
  0
LINE
  8
0
 10
-10
 20
166
 11
2
 21
166
  0
LINE
  8
0
 10
2
 20
166
 11
2
 21
170
  0
LINE
  8
0
 10
2
 20
170
 11
-10
 21
170
  0
LINE
  8
0
 10
-10
 20
170
 11
-10
 21
199
  0
LINE
  8
0
 10
-10
 20
199
 11
64
 21
199
  0
LINE
  8
0
 10
64
 20
199
 11
64
 21
170
  0
LINE
  8
0
 10
64
 20
170
 11
36
 21
170
  0
LINE
  8
0
 10
36
 20
170
 11
36
 21
166
  0
LINE
  8
0
 10
36
 20
166
 11
66
 21
166
  0
LINE
  8
0
 10
66
 20
166
 11
66
 21
158.29
  0
LINE
  8
0
 10
66
 20
158.29
 11
68.3033
 21
156.303
  0
LINE
  8
0
 10
68.3033
 20
156.303
 11
69.4952
 21
154.75
  0
LINE
  8
0
 10
69.4952
 20
154.75
 11
70.2444
 21
152.941
  0
LINE
  8
0
 10
70.2444
 20
152.941
 11
70.5
 21
151
  0
LINE
  8
0
 10
70.5
 20
151
 11
70.2444
 21
149.059
  0
LINE
  8
0
 10
70.2444
 20
149.059
 11
69.4952
 21
147.25
  0
LINE
  8
0
 10
69.4952
 20
147.25
 11
68.3033
 21
145.697
  0
LINE
  8
0
 10
68.3033
 20
145.697
 11
66.75
 21
144.505
  0
LINE
  8
0
 10
66.75
 20
144.505
 11
66
 21
144.194
  0
LINE
  8
0
 10
66
 20
144.194
 11
66
 21
140
  0
LINE
  8
0
 10
66
 20
140
 11
36
 21
140
  0
LINE
  8
0
 10
36
 20
140
 11
36
 21
131
  0
LINE
  8
0
 10
36
 20
131
 11
40
 21
131
  0
LINE
  8
0
 10
40
 20
131
 11
40
 21
104
  0
LINE
  8
0
 10
40
 20
104
 11
27
 21
104
  0
LINE
  8
0
 10
27
 20
104
 11
27
 21
86.3604
  0
LINE
  8
0
 10
27
 20
86.3604
 11
27.9267
 21
84.7553
  0
LINE
  8
0
 10
27.9267
 20
84.7553
 11
28.8408
 21
81.9419
  0
LINE
  8
0
 10
28.8408
 20
81.9419
 11
29.15
 21
79
  0
LINE
  8
0
 10
29.15
 20
79
 11
28.8408
 21
76.058
  0
LINE
  8
0
 10
28.8408
 20
76.058
 11
27.9267
 21
73.2447
  0
LINE
  8
0
 10
27.9267
 20
73.2447
 11
27
 21
71.6396
  0
LINE
  8
0
 10
27
 20
71.6396
 11
27
 21
59.5
  0
LINE
  8
0
 10
27
 20
59.5
 11
31
 21
59.5
  0
LINE
  8
0
 10
31
 20
59.5
 11
31
 21
54.5
  0
LINE
  8
0
 10
31
 20
54.5
 11
27
 21
54.5
  0
LINE
  8
0
 10
27
 20
54.5
 11
27
 21
32.7766
  0
LINE
  8
0
 10
27
 20
32.7766
 11
27.3598
 21
31.788
  0
LINE
  8
0
 10
27.3598
 20
31.788
 11
27
 21
31.657
  0
LINE
  8
0
 10
27
 20
31.657
 11
27
 21
29.0429
  0
LINE
  8
0
 10
27
 20
29.0429
 11
29.2632
 21
29.9554
  0
LINE
  8
0
 10
29.2632
 20
29.9554
 11
45.5914
 21
34.3493
  0
LINE
  8
0
 10
45.5914
 20
34.3493
 11
50.3782
 21
35.1934
  0
LINE
  8
0
 10
50.3782
 20
35.1934
 11
55.2358
 21
35.0237
  0
LINE
  8
0
 10
55.2358
 20
35.0237
 11
59.952
 21
33.8478
  0
LINE
  8
0
 10
59.952
 20
33.8478
 11
64.3206
 21
31.7171
  0
LINE
  8
0
 10
64.3206
 20
31.7171
 11
68.1508
 21
28.7246
  0
LINE
  8
0
 10
68.1508
 20
28.7246
 11
71.2751
 21
25.0012
  0
LINE
  8
0
 10
71.2751
 20
25.0012
 11
73.557
 21
20.7096
  0
LINE
  8
0
 10
73.557
 20
20.7096
 11
74.8968
 21
16.0373
  0
LINE
  8
0
 10
74.8968
 20
16.0373
 11
75.2358
 21
11.1886
  0
LINE
  8
0
 10
75.2358
 20
11.1886
 11
74.5594
 21
6.37531
  0
LINE
  8
0
 10
74.5594
 20
6.37531
 11
72.897
 21
1.80786
  0
LINE
  8
0
 10
72.897
 20
1.80786
 11
70.3212
 21
-2.31412
  0
LINE
  8
0
 10
70.3212
 20
-2.31412
 11
66.9448
 21
-5.81053
  0
LINE
  8
0
 10
66.9448
 20
-5.81053
 11
62.9152
 21
-8.52852
  0
LINE
  8
0
 10
62.9152
 20
-8.52852
 11
58.4086
 21
-10.3493
  0
LINE
  8
0
 10
58.4086
 20
-10.3493
 11
53.6218
 21
-11.1934
  0
LINE
  8
0
 10
53.6218
 20
-11.1934
 11
36.7755
 21
-12.649
  0
LINE
  8
0
 10
36.7755
 20
-12.649
 11
17.7981
 21
-12
  0
LINE
  8
0
 10
17.7981
 20
-12
 11
11
 21
-12
  0
LINE
  8
0
 10
11
 20
-12
 11
11
 21
-11.7662
  0
LINE
  8
0
 10
11
 20
-11.7662
 11
9.29172
 21
-11.7066
  0
LINE
  8
0
 10
9.29172
 20
-11.7066
 11
5.89404
 21
-10.8594
  0
LINE
  8
0
 10
5.89404
 20
-10.8594
 11
-3.38264
 21
-8.49394
  0
LINE
  8
0
 10
-3.38264
 20
-8.49394
 11
-5.675
 21
-7.37589
  0
LINE
  8
0
 10
-5.675
 20
-7.37589
 11
-7.68483
 21
-5.80565
  0
LINE
  8
0
 10
-7.68483
 20
-5.80565
 11
-9.32425
 21
-3.85185
  0
LINE
  8
0
 10
-9.32425
 20
-3.85185
 11
-10.5216
 21
-1.5999
  0
LINE
  8
0
 10
-10.5216
 20
-1.5999
 11
-11.2247
 21
0.851776
  0
LINE
  8
0
 10
-11.2247
 20
0.851776
 11
-11.4026
 21
3.39606
  0
LINE
  8
0
 10
-11.4026
 20
3.39606
 11
-11.0476
 21
5.92174
  0
LINE
  8
0
 10
-11.0476
 20
5.92174
 11
-10.1753
 21
8.31842
  0
LINE
  8
0
 10
-10.1753
 20
8.31842
 11
-8.82373
 21
10.4814
  0
LINE
  8
0
 10
-8.82373
 20
10.4814
 11
-7.052
 21
12.316
  0
LINE
  8
0
 10
-7.052
 20
12.316
 11
0.856186
 21
17.7117
  0
LINE
  8
0
 10
0.856186
 20
17.7117
 11
3.75923
 21
19.6698
  0
LINE
  8
0
 10
3.75923
 20
19.6698
 11
7.00595
 21
20.9816
  0
LINE
  8
0
 10
7.00595
 20
20.9816
 11
11
 21
22.5919
  0
LINE
  8
0
 10
11
 20
22.5919
 11
11
 21
25.8335
  0
LINE
  8
0
 10
11
 20
25.8335
 11
-7.40878
 21
19.1332
  0
LINE
  8
0
 10
-7.40878
 20
19.1332
 11
-11
 21
29
  0
LINE
  8
0
 10
-11
 20
29
 11
11
 21
37.0073
  0
LINE
  8
0
 10
11
 20
37.0073
 11
11
 21
52
  0
LINE
  8
0
 10
11
 20
52
 11
7.5
 21
52
  0
LINE
  8
0
 10
7.5
 20
52
 11
7.5
 21
54
  0
LINE
  8
0
 10
7.5
 20
54
 11
2
 21
54
  0
LINE
  8
0
 10
2
 20
54
 11
1.99998
 21
60
  0
LINE
  8
0
 10
1.99998
 20
60
 11
7.49998
 21
60
  0
LINE
  8
0
 10
7.49998
 20
60
 11
7.49998
 21
62
  0
LINE
  8
0
 10
7.49998
 20
62
 11
11
 21
62
  0
LINE
  8
0
 10
11
 20
62
 11
11
 21
65.4633
  0
LINE
  8
0
 10
11
 20
65.4633
 11
10.6274
 21
65.5425
  0
LINE
  8
0
 10
10.6274
 20
65.5425
 11
7.92499
 21
66.7457
  0
LINE
  8
0
 10
7.92499
 20
66.7457
 11
5.5318
 21
68.4845
  0
LINE
  8
0
 10
5.5318
 20
68.4845
 11
3.5524
 21
70.6828
  0
LINE
  8
0
 10
3.5524
 20
70.6828
 11
2.07332
 21
73.2447
  0
LINE
  8
0
 10
2.07332
 20
73.2447
 11
1.15921
 21
76.058
  0
LINE
  8
0
 10
1.15921
 20
76.058
 11
0.849991
 21
79
  0
LINE
  8
0
 10
0.849991
 20
79
 11
1.15921
 21
81.9419
  0
LINE
  8
0
 10
1.15921
 20
81.9419
 11
2.07332
 21
84.7553
  0
LINE
  8
0
 10
2.07332
 20
84.7553
 11
3.5524
 21
87.3172
  0
LINE
  8
0
 10
3.5524
 20
87.3172
 11
5.5318
 21
89.5155
  0
LINE
  8
0
 10
5.5318
 20
89.5155
 11
7.92499
 21
91.2543
  0
LINE
  8
0
 10
7.92499
 20
91.2543
 11
10.6274
 21
92.4574
  0
LINE
  8
0
 10
10.6274
 20
92.4574
 11
11
 21
92.5366
  0
LINE
  8
0
 10
11
 20
92.5366
 11
11
 21
97.5
  0
LINE
  8
0
 10
11
 20
97.5
 11
2
 21
97.5
  0
LINE
  8
0
 10
2
 20
97.5
 11
2
 21
140
  0
LINE
  8
0
 10
2
 20
140
 11
-10
 21
140
  0
LINE
  8
0
 10
82
 20
-10
 11
82
 21
145
  0
LINE
  8
0
 10
82
 20
145
 11
169
 21
145
  0
LINE
  8
0
 10
169
 20
145
 11
169
 21
-10
  0
LINE
  8
0
 10
169
 20
-10
 11
82
 21
-10
  0
LINE
  8
0
 10
46.6811
 20
112.57
 11
50.482
 21
116.371
  0
LINE
  8
0
 10
50.482
 20
116.371
 11
49.8624
 21
117.325
  0
LINE
  8
0
 10
49.8624
 20
117.325
 11
48.9259
 21
119.765
  0
LINE
  8
0
 10
48.9259
 20
119.765
 11
48.5171
 21
122.346
  0
LINE
  8
0
 10
48.5171
 20
122.346
 11
48.6539
 21
124.955
  0
LINE
  8
0
 10
48.6539
 20
124.955
 11
49.3302
 21
127.48
  0
LINE
  8
0
 10
49.3302
 20
127.48
 11
50.5166
 21
129.808
  0
LINE
  8
0
 10
50.5166
 20
129.808
 11
52.1612
 21
131.839
  0
LINE
  8
0
 10
52.1612
 20
131.839
 11
54.192
 21
133.483
  0
LINE
  8
0
 10
54.192
 20
133.483
 11
56.5204
 21
134.67
  0
LINE
  8
0
 10
56.5204
 20
134.67
 11
59.0446
 21
135.346
  0
LINE
  8
0
 10
59.0446
 20
135.346
 11
73.0208
 21
137.521
  0
LINE
  8
0
 10
73.0208
 20
137.521
 11
74.7886
 21
136.789
  0
LINE
  8
0
 10
74.7886
 20
136.789
 11
75.5208
 21
135.021
  0
LINE
  8
0
 10
75.5208
 20
135.021
 11
73.3461
 21
121.045
  0
LINE
  8
0
 10
73.3461
 20
121.045
 11
72.6697
 21
118.52
  0
LINE
  8
0
 10
72.6697
 20
118.52
 11
71.4834
 21
116.192
  0
LINE
  8
0
 10
71.4834
 20
116.192
 11
69.8388
 21
114.161
  0
LINE
  8
0
 10
69.8388
 20
114.161
 11
67.808
 21
112.517
  0
LINE
  8
0
 10
67.808
 20
112.517
 11
65.4796
 21
111.33
  0
LINE
  8
0
 10
65.4796
 20
111.33
 11
62.9554
 21
110.654
  0
LINE
  8
0
 10
62.9554
 20
110.654
 11
60.3458
 21
110.517
  0
LINE
  8
0
 10
60.3458
 20
110.517
 11
57.7648
 21
110.926
  0
LINE
  8
0
 10
57.7648
 20
110.926
 11
55.3251
 21
111.862
  0
LINE
  8
0
 10
55.3251
 20
111.862
 11
54.3711
 21
112.482
  0
LINE
  8
0
 10
54.3711
 20
112.482
 11
50.5702
 21
108.681
  0
LINE
  8
0
 10
50.5702
 20
108.681
 11
46.6811
 21
112.57
  0
LINE
  8
0
 10
-13
 20
35
 11
-13
 21
135.5
  0
LINE
  8
0
 10
-13
 20
135.5
 11
-3.5
 21
135.5
  0
LINE
  8
0
 10
-3.5
 20
135.5
 11
-3.5
 21
35
  0
LINE
  8
0
 10
-3.5
 20
35
 11
-13
 21
35
  0
LINE
  8
0
 10
39.8502
 20
78.0603
 11
37.6008
 21
78.5384
  0
LINE
  8
0
 10
37.6008
 20
78.5384
 11
35.5
 21
79.4737
  0
LINE
  8
0
 10
35.5
 20
79.4737
 11
33.6396
 21
80.8254
  0
LINE
  8
0
 10
33.6396
 20
80.8254
 11
32.1008
 21
82.5343
  0
LINE
  8
0
 10
32.1008
 20
82.5343
 11
30.951
 21
84.5259
  0
LINE
  8
0
 10
30.951
 20
84.5259
 11
30.2404
 21
86.713
  0
LINE
  8
0
 10
30.2404
 20
86.713
 11
30
 21
89
  0
LINE
  8
0
 10
30
 20
89
 11
30.2404
 21
91.287
  0
LINE
  8
0
 10
30.2404
 20
91.287
 11
30.951
 21
93.4741
  0
LINE
  8
0
 10
30.951
 20
93.4741
 11
32.1008
 21
95.4656
  0
LINE
  8
0
 10
32.1008
 20
95.4656
 11
33.6396
 21
97.1746
  0
LINE
  8
0
 10
33.6396
 20
97.1746
 11
35.5
 21
98.5263
  0
LINE
  8
0
 10
35.5
 20
98.5263
 11
37.6008
 21
99.4616
  0
LINE
  8
0
 10
37.6008
 20
99.4616
 11
39.8502
 21
99.9397
  0
LINE
  8
0
 10
39.8502
 20
99.9397
 11
41
 21
99.9397
  0
LINE
  8
0
 10
41
 20
99.9397
 11
41
 21
100
  0
LINE
  8
0
 10
41
 20
100
 11
57
 21
100
  0
LINE
  8
0
 10
57
 20
100
 11
57
 21
108
  0
LINE
  8
0
 10
57
 20
108
 11
66
 21
108
  0
LINE
  8
0
 10
66
 20
108
 11
66
 21
100
  0
LINE
  8
0
 10
66
 20
100
 11
74
 21
100
  0
LINE
  8
0
 10
74
 20
100
 11
74
 21
80
  0
LINE
  8
0
 10
74
 20
80
 11
47.2244
 21
80
  0
LINE
  8
0
 10
47.2244
 20
80
 11
46.5
 21
79.4737
  0
LINE
  8
0
 10
46.5
 20
79.4737
 11
44.3992
 21
78.5384
  0
LINE
  8
0
 10
44.3992
 20
78.5384
 11
42.1498
 21
78.0603
  0
LINE
  8
0
 10
42.1498
 20
78.0603
 11
39.8502
 21
78.0603
  0
LINE
  8
0
 10
2.59062
 20
38.0466
 11
0.896423
 21
38.8902
  0
LINE
  8
0
 10
0.896423
 20
38.8902
 11
-0.378616
 21
40.2889
  0
LINE
  8
0
 10
-0.378616
 20
40.2889
 11
-1.0623
 21
42.0537
  0
LINE
  8
0
 10
-1.0623
 20
42.0537
 11
-1.0623
 21
43.9463
  0
LINE
  8
0
 10
-1.0623
 20
43.9463
 11
-0.378616
 21
45.7111
  0
LINE
  8
0
 10
-0.378616
 20
45.7111
 11
0.896423
 21
47.1098
  0
LINE
  8
0
 10
0.896423
 20
47.1098
 11
2.59062
 21
47.9534
  0
LINE
  8
0
 10
2.59062
 20
47.9534
 11
4.47517
 21
48.128
  0
LINE
  8
0
 10
4.47517
 20
48.128
 11
6.29555
 21
47.6101
  0
LINE
  8
0
 10
6.29555
 20
47.6101
 11
7.80589
 21
46.4695
  0
LINE
  8
0
 10
7.80589
 20
46.4695
 11
8.80223
 21
44.8604
  0
LINE
  8
0
 10
8.80223
 20
44.8604
 11
9.14999
 21
43
  0
LINE
  8
0
 10
9.14999
 20
43
 11
8.80223
 21
41.1396
  0
LINE
  8
0
 10
8.80223
 20
41.1396
 11
7.80589
 21
39.5305
  0
LINE
  8
0
 10
7.80589
 20
39.5305
 11
6.29555
 21
38.3899
  0
LINE
  8
0
 10
6.29555
 20
38.3899
 11
4.47517
 21
37.872
  0
LINE
  8
0
 10
4.47517
 20
37.872
 11
2.59062
 21
38.0466
  0
ENDSEC
  0
SECTION
  2
OBJECTS
  0
DICTIONARY
  0
ENDSEC
  0
EOF
