  0
SECTION
  2
BLOCKS
  0
ENDSEC
  0
SECTION
  2
ENTITIES
  0
LINE
  8
0
 10
59.1803
 20
-19.0211
 11
63
 21
-17.3205
  0
LINE
  8
0
 10
63
 20
-17.3205
 11
66.3826
 21
-14.8629
  0
LINE
  8
0
 10
66.3826
 20
-14.8629
 11
69.1803
 21
-11.7557
  0
LINE
  8
0
 10
69.1803
 20
-11.7557
 11
71.2709
 21
-8.13472
  0
LINE
  8
0
 10
71.2709
 20
-8.13472
 11
72.5629
 21
-4.15823
  0
LINE
  8
0
 10
72.5629
 20
-4.15823
 11
73
 21
0
  0
LINE
  8
0
 10
73
 20
0
 11
73
 21
131
  0
LINE
  8
0
 10
73
 20
131
 11
72.5629
 21
135.158
  0
LINE
  8
0
 10
72.5629
 20
135.158
 11
71.2709
 21
139.135
  0
LINE
  8
0
 10
71.2709
 20
139.135
 11
69.1803
 21
142.756
  0
LINE
  8
0
 10
69.1803
 20
142.756
 11
66.3826
 21
145.863
  0
LINE
  8
0
 10
66.3826
 20
145.863
 11
63
 21
148.32
  0
LINE
  8
0
 10
63
 20
148.32
 11
59.1803
 21
150.021
  0
LINE
  8
0
 10
59.1803
 20
150.021
 11
55.0906
 21
150.89
  0
LINE
  8
0
 10
55.0906
 20
150.89
 11
-2.09056
 21
150.89
  0
LINE
  8
0
 10
-2.09056
 20
150.89
 11
-6.18033
 21
150.021
  0
LINE
  8
0
 10
-6.18033
 20
150.021
 11
-9.99998
 21
148.32
  0
LINE
  8
0
 10
-9.99998
 20
148.32
 11
-13.3826
 21
145.863
  0
LINE
  8
0
 10
-13.3826
 20
145.863
 11
-16.1803
 21
142.756
  0
LINE
  8
0
 10
-16.1803
 20
142.756
 11
-18.2709
 21
139.135
  0
LINE
  8
0
 10
-18.2709
 20
139.135
 11
-19.5629
 21
135.158
  0
LINE
  8
0
 10
-19.5629
 20
135.158
 11
-20
 21
131
  0
LINE
  8
0
 10
-20
 20
131
 11
-20
 21
0
  0
LINE
  8
0
 10
-20
 20
0
 11
-19.5629
 21
-4.15823
  0
LINE
  8
0
 10
-19.5629
 20
-4.15823
 11
-18.2709
 21
-8.13472
  0
LINE
  8
0
 10
-18.2709
 20
-8.13472
 11
-16.1803
 21
-11.7557
  0
LINE
  8
0
 10
-16.1803
 20
-11.7557
 11
-13.3826
 21
-14.8629
  0
LINE
  8
0
 10
-13.3826
 20
-14.8629
 11
-10
 21
-17.3205
  0
LINE
  8
0
 10
-10
 20
-17.3205
 11
-6.18033
 21
-19.0211
  0
LINE
  8
0
 10
-6.18033
 20
-19.0211
 11
-2.09056
 21
-19.8904
  0
LINE
  8
0
 10
-2.09056
 20
-19.8904
 11
55.0906
 21
-19.8904
  0
LINE
  8
0
 10
55.0906
 20
-19.8904
 11
59.1803
 21
-19.0211
  0
LINE
  8
0
 10
-13
 20
137.5
 11
-14.7678
 21
138.232
  0
LINE
  8
0
 10
-14.7678
 20
138.232
 11
-15.5
 21
140
  0
LINE
  8
0
 10
-15.5
 20
140
 11
-14.7678
 21
141.768
  0
LINE
  8
0
 10
-14.7678
 20
141.768
 11
-13
 21
142.5
  0
LINE
  8
0
 10
-13
 20
142.5
 11
27
 21
145
  0
LINE
  8
0
 10
27
 20
145
 11
67
 21
142.5
  0
LINE
  8
0
 10
67
 20
142.5
 11
68.7678
 21
141.768
  0
LINE
  8
0
 10
68.7678
 20
141.768
 11
69.5
 21
140
  0
LINE
  8
0
 10
69.5
 20
140
 11
68.7678
 21
138.232
  0
LINE
  8
0
 10
68.7678
 20
138.232
 11
67
 21
137.5
  0
LINE
  8
0
 10
67
 20
137.5
 11
27
 21
135
  0
LINE
  8
0
 10
27
 20
135
 11
-13
 21
137.5
  0
LINE
  8
0
 10
-18
 20
36
 11
-18
 21
136.5
  0
LINE
  8
0
 10
-18
 20
136.5
 11
-8.5
 21
136.5
  0
LINE
  8
0
 10
-8.5
 20
136.5
 11
-8.5
 21
36
  0
LINE
  8
0
 10
-8.5
 20
36
 11
-18
 21
36
  0
LINE
  8
0
 10
34
 20
93
 11
34
 21
85
  0
LINE
  8
0
 10
34
 20
85
 11
38
 21
85
  0
LINE
  8
0
 10
38
 20
85
 11
38
 21
65
  0
LINE
  8
0
 10
38
 20
65
 11
5
 21
65
  0
LINE
  8
0
 10
5
 20
65
 11
5
 21
65.0603
  0
LINE
  8
0
 10
5
 20
65.0603
 11
3.85019
 21
65.0603
  0
LINE
  8
0
 10
3.85019
 20
65.0603
 11
1.60081
 21
65.5384
  0
LINE
  8
0
 10
1.60081
 20
65.5384
 11
-0.5
 21
66.4737
  0
LINE
  8
0
 10
-0.5
 20
66.4737
 11
-2.36043
 21
67.8254
  0
LINE
  8
0
 10
-2.36043
 20
67.8254
 11
-3.89919
 21
69.5343
  0
LINE
  8
0
 10
-3.89919
 20
69.5343
 11
-5.049
 21
71.5259
  0
LINE
  8
0
 10
-5.049
 20
71.5259
 11
-5.75961
 21
73.713
  0
LINE
  8
0
 10
-5.75961
 20
73.713
 11
-6
 21
76
  0
LINE
  8
0
 10
-6
 20
76
 11
-5.75961
 21
78.287
  0
LINE
  8
0
 10
-5.75961
 20
78.287
 11
-5.049
 21
80.4741
  0
LINE
  8
0
 10
-5.049
 20
80.4741
 11
-3.89919
 21
82.4656
  0
LINE
  8
0
 10
-3.89919
 20
82.4656
 11
-2.36043
 21
84.1746
  0
LINE
  8
0
 10
-2.36043
 20
84.1746
 11
-0.499985
 21
85.5263
  0
LINE
  8
0
 10
-0.499985
 20
85.5263
 11
1.60081
 21
86.4616
  0
LINE
  8
0
 10
1.60081
 20
86.4616
 11
3.85019
 21
86.9397
  0
LINE
  8
0
 10
3.85019
 20
86.9397
 11
6.14981
 21
86.9397
  0
LINE
  8
0
 10
6.14981
 20
86.9397
 11
8.39919
 21
86.4616
  0
LINE
  8
0
 10
8.39919
 20
86.4616
 11
10.5
 21
85.5263
  0
LINE
  8
0
 10
10.5
 20
85.5263
 11
11.2243
 21
85
  0
LINE
  8
0
 10
11.2243
 20
85
 11
25
 21
85
  0
LINE
  8
0
 10
25
 20
85
 11
25
 21
93
  0
LINE
  8
0
 10
25
 20
93
 11
34
 21
93
  0
LINE
  8
0
 10
-7
 20
20
 11
-7
 21
30.5
  0
LINE
  8
0
 10
-7
 20
30.5
 11
-18
 21
30.5
  0
LINE
  8
0
 10
-18
 20
30.5
 11
-18
 21
35
  0
LINE
  8
0
 10
-18
 20
35
 11
-7
 21
35
  0
LINE
  8
0
 10
-7
 20
35
 11
-7
 21
59
  0
LINE
  8
0
 10
-7
 20
59
 11
32
 21
59
  0
LINE
  8
0
 10
32
 20
59
 11
32
 21
20
  0
LINE
  8
0
 10
32
 20
20
 11
-7
 21
20
  0
LINE
  8
0
 10
39
 20
-10
 11
39
 21
10
  0
LINE
  8
0
 10
39
 20
10
 11
33.5
 21
10
  0
LINE
  8
0
 10
33.5
 20
10
 11
33.5
 21
28
  0
LINE
  8
0
 10
33.5
 20
28
 11
71.5
 21
28
  0
LINE
  8
0
 10
71.5
 20
28
 11
71.5
 21
10
  0
LINE
  8
0
 10
71.5
 20
10
 11
66
 21
10
  0
LINE
  8
0
 10
66
 20
10
 11
66
 21
-10
  0
LINE
  8
0
 10
66
 20
-10
 11
39
 21
-10
  0
LINE
  8
0
 10
27.6808
 20
-13.8753
 11
26.5989
 21
-14.2268
  0
LINE
  8
0
 10
26.5989
 20
-14.2268
 11
24
 21
-14.5
  0
LINE
  8
0
 10
24
 20
-14.5
 11
21.4011
 21
-14.2268
  0
LINE
  8
0
 10
21.4011
 20
-14.2268
 11
18.9158
 21
-13.4193
  0
LINE
  8
0
 10
18.9158
 20
-13.4193
 11
16.6527
 21
-12.1127
  0
LINE
  8
0
 10
16.6527
 20
-12.1127
 11
14.7107
 21
-10.3641
  0
LINE
  8
0
 10
14.7107
 20
-10.3641
 11
13.1747
 21
-8.25
  0
LINE
  8
0
 10
13.1747
 20
-8.25
 11
12.1118
 21
-5.8627
  0
LINE
  8
0
 10
12.1118
 20
-5.8627
 11
11.5685
 21
-3.30661
  0
LINE
  8
0
 10
11.5685
 20
-3.30661
 11
8.66986
 21
14.5526
  0
LINE
  8
0
 10
8.66986
 20
14.5526
 11
8.42012
 21
16.4496
  0
LINE
  8
0
 10
8.42012
 20
16.4496
 11
9.58493
 21
17.9676
  0
LINE
  8
0
 10
9.58493
 20
17.9676
 11
11.482
 21
18.2174
  0
LINE
  8
0
 10
11.482
 20
18.2174
 11
29.0842
 21
9.4193
  0
LINE
  8
0
 10
29.0842
 20
9.4193
 11
31.3473
 21
8.11269
  0
LINE
  8
0
 10
31.3473
 20
8.11269
 11
33.2893
 21
6.36412
  0
LINE
  8
0
 10
33.2893
 20
6.36412
 11
34.8253
 21
4.24998
  0
LINE
  8
0
 10
34.8253
 20
4.24998
 11
35.8882
 21
1.8627
  0
LINE
  8
0
 10
35.8882
 20
1.8627
 11
36.4315
 21
-0.693375
  0
LINE
  8
0
 10
36.4315
 20
-0.693375
 11
36.4315
 21
-3.30659
  0
LINE
  8
0
 10
36.4315
 20
-3.30659
 11
35.8882
 21
-5.8627
  0
LINE
  8
0
 10
35.8882
 20
-5.8627
 11
34.8253
 21
-8.24998
  0
LINE
  8
0
 10
34.8253
 20
-8.24998
 11
33.2893
 21
-10.3641
  0
LINE
  8
0
 10
33.2893
 20
-10.3641
 11
32.4439
 21
-11.1253
  0
LINE
  8
0
 10
32.4439
 20
-11.1253
 11
35.1316
 21
-15.7804
  0
LINE
  8
0
 10
35.1316
 20
-15.7804
 11
30.3684
 21
-18.5304
  0
LINE
  8
0
 10
30.3684
 20
-18.5304
 11
27.6808
 21
-13.8753
  0
LINE
  8
0
 10
-6.47906
 20
-14.0725
 11
-9.37259
 21
-13.4574
  0
LINE
  8
0
 10
-9.37259
 20
-13.4574
 11
-12.075
 21
-12.2543
  0
LINE
  8
0
 10
-12.075
 20
-12.2543
 11
-14.4682
 21
-10.5155
  0
LINE
  8
0
 10
-14.4682
 20
-10.5155
 11
-16.4476
 21
-8.31715
  0
LINE
  8
0
 10
-16.4476
 20
-8.31715
 11
-17.9267
 21
-5.75531
  0
LINE
  8
0
 10
-17.9267
 20
-5.75531
 11
-18.8408
 21
-2.94194
  0
LINE
  8
0
 10
-18.8408
 20
-2.94194
 11
-19.15
 21
0
  0
LINE
  8
0
 10
-19.15
 20
0
 11
-18.8408
 21
2.94194
  0
LINE
  8
0
 10
-18.8408
 20
2.94194
 11
-17.9267
 21
5.75531
  0
LINE
  8
0
 10
-17.9267
 20
5.75531
 11
-16.4476
 21
8.31715
  0
LINE
  8
0
 10
-16.4476
 20
8.31715
 11
-14.4682
 21
10.5155
  0
LINE
  8
0
 10
-14.4682
 20
10.5155
 11
-12.075
 21
12.2543
  0
LINE
  8
0
 10
-12.075
 20
12.2543
 11
-9.37259
 21
13.4574
  0
LINE
  8
0
 10
-9.37259
 20
13.4574
 11
-6.47906
 21
14.0725
  0
LINE
  8
0
 10
-6.47906
 20
14.0725
 11
-3.52092
 21
14.0725
  0
LINE
  8
0
 10
-3.52092
 20
14.0725
 11
-0.627396
 21
13.4574
  0
LINE
  8
0
 10
-0.627396
 20
13.4574
 11
2.075
 21
12.2543
  0
LINE
  8
0
 10
2.075
 20
12.2543
 11
4.46819
 21
10.5155
  0
LINE
  8
0
 10
4.46819
 20
10.5155
 11
6.44759
 21
8.31715
  0
LINE
  8
0
 10
6.44759
 20
8.31715
 11
7.92667
 21
5.75531
  0
LINE
  8
0
 10
7.92667
 20
5.75531
 11
8.84077
 21
2.94194
  0
LINE
  8
0
 10
8.84077
 20
2.94194
 11
9.14999
 21
0
  0
LINE
  8
0
 10
9.14999
 20
0
 11
8.84077
 21
-2.94194
  0
LINE
  8
0
 10
8.84077
 20
-2.94194
 11
7.92667
 21
-5.75531
  0
LINE
  8
0
 10
7.92667
 20
-5.75531
 11
6.44759
 21
-8.31715
  0
LINE
  8
0
 10
6.44759
 20
-8.31715
 11
4.46819
 21
-10.5155
  0
LINE
  8
0
 10
4.46819
 20
-10.5155
 11
2.075
 21
-12.2543
  0
LINE
  8
0
 10
2.075
 20
-12.2543
 11
-0.627396
 21
-13.4574
  0
LINE
  8
0
 10
-0.627396
 20
-13.4574
 11
-3.52092
 21
-14.0725
  0
LINE
  8
0
 10
-3.52092
 20
-14.0725
 11
-6.47906
 21
-14.0725
  0
ENDSEC
  0
SECTION
  2
OBJECTS
  0
DICTIONARY
  0
ENDSEC
  0
EOF
