  0
SECTION
  2
BLOCKS
  0
ENDSEC
  0
SECTION
  2
ENTITIES
  0
LINE
  8
0
 10
59.1803
 20
-19.0211
 11
63
 21
-17.3205
  0
LINE
  8
0
 10
63
 20
-17.3205
 11
66.3826
 21
-14.8629
  0
LINE
  8
0
 10
66.3826
 20
-14.8629
 11
69.1803
 21
-11.7557
  0
LINE
  8
0
 10
69.1803
 20
-11.7557
 11
71.2709
 21
-8.13472
  0
LINE
  8
0
 10
71.2709
 20
-8.13472
 11
72.5629
 21
-4.15823
  0
LINE
  8
0
 10
72.5629
 20
-4.15823
 11
73
 21
0
  0
LINE
  8
0
 10
73
 20
0
 11
73
 21
130
  0
LINE
  8
0
 10
73
 20
130
 11
72.5629
 21
134.158
  0
LINE
  8
0
 10
72.5629
 20
134.158
 11
71.2709
 21
138.135
  0
LINE
  8
0
 10
71.2709
 20
138.135
 11
69.1803
 21
141.756
  0
LINE
  8
0
 10
69.1803
 20
141.756
 11
66.3826
 21
144.863
  0
LINE
  8
0
 10
66.3826
 20
144.863
 11
63
 21
147.32
  0
LINE
  8
0
 10
63
 20
147.32
 11
59.1803
 21
149.021
  0
LINE
  8
0
 10
59.1803
 20
149.021
 11
55.0906
 21
149.89
  0
LINE
  8
0
 10
55.0906
 20
149.89
 11
-2.09056
 21
149.89
  0
LINE
  8
0
 10
-2.09056
 20
149.89
 11
-6.18033
 21
149.021
  0
LINE
  8
0
 10
-6.18033
 20
149.021
 11
-9.99998
 21
147.32
  0
LINE
  8
0
 10
-9.99998
 20
147.32
 11
-13.3826
 21
144.863
  0
LINE
  8
0
 10
-13.3826
 20
144.863
 11
-16.1803
 21
141.756
  0
LINE
  8
0
 10
-16.1803
 20
141.756
 11
-18.2709
 21
138.135
  0
LINE
  8
0
 10
-18.2709
 20
138.135
 11
-19.5629
 21
134.158
  0
LINE
  8
0
 10
-19.5629
 20
134.158
 11
-20
 21
130
  0
LINE
  8
0
 10
-20
 20
130
 11
-20
 21
0
  0
LINE
  8
0
 10
-20
 20
0
 11
-19.5629
 21
-4.15823
  0
LINE
  8
0
 10
-19.5629
 20
-4.15823
 11
-18.2709
 21
-8.13472
  0
LINE
  8
0
 10
-18.2709
 20
-8.13472
 11
-16.1803
 21
-11.7557
  0
LINE
  8
0
 10
-16.1803
 20
-11.7557
 11
-13.3826
 21
-14.8629
  0
LINE
  8
0
 10
-13.3826
 20
-14.8629
 11
-10
 21
-17.3205
  0
LINE
  8
0
 10
-10
 20
-17.3205
 11
-6.18033
 21
-19.0211
  0
LINE
  8
0
 10
-6.18033
 20
-19.0211
 11
-2.09056
 21
-19.8904
  0
LINE
  8
0
 10
-2.09056
 20
-19.8904
 11
55.0906
 21
-19.8904
  0
LINE
  8
0
 10
55.0906
 20
-19.8904
 11
59.1803
 21
-19.0211
  0
LINE
  8
0
 10
-13
 20
135.5
 11
-14.7678
 21
136.232
  0
LINE
  8
0
 10
-14.7678
 20
136.232
 11
-15.5
 21
138
  0
LINE
  8
0
 10
-15.5
 20
138
 11
-14.7678
 21
139.768
  0
LINE
  8
0
 10
-14.7678
 20
139.768
 11
-13
 21
140.5
  0
LINE
  8
0
 10
-13
 20
140.5
 11
27
 21
143
  0
LINE
  8
0
 10
27
 20
143
 11
67
 21
140.5
  0
LINE
  8
0
 10
67
 20
140.5
 11
68.7678
 21
139.768
  0
LINE
  8
0
 10
68.7678
 20
139.768
 11
69.5
 21
138
  0
LINE
  8
0
 10
69.5
 20
138
 11
68.7678
 21
136.232
  0
LINE
  8
0
 10
68.7678
 20
136.232
 11
67
 21
135.5
  0
LINE
  8
0
 10
67
 20
135.5
 11
27
 21
133
  0
LINE
  8
0
 10
27
 20
133
 11
-13
 21
135.5
  0
LINE
  8
0
 10
-18
 20
30
 11
-18
 21
130.5
  0
LINE
  8
0
 10
-18
 20
130.5
 11
-8.5
 21
130.5
  0
LINE
  8
0
 10
-8.5
 20
130.5
 11
-8.5
 21
30
  0
LINE
  8
0
 10
-8.5
 20
30
 11
-18
 21
30
  0
LINE
  8
0
 10
61
 20
103
 11
61
 21
95
  0
LINE
  8
0
 10
61
 20
95
 11
69
 21
95
  0
LINE
  8
0
 10
69
 20
95
 11
69
 21
75
  0
LINE
  8
0
 10
69
 20
75
 11
36
 21
75
  0
LINE
  8
0
 10
36
 20
75
 11
36
 21
75.0603
  0
LINE
  8
0
 10
36
 20
75.0603
 11
34.8502
 21
75.0603
  0
LINE
  8
0
 10
34.8502
 20
75.0603
 11
32.6008
 21
75.5384
  0
LINE
  8
0
 10
32.6008
 20
75.5384
 11
30.5
 21
76.4737
  0
LINE
  8
0
 10
30.5
 20
76.4737
 11
28.6396
 21
77.8254
  0
LINE
  8
0
 10
28.6396
 20
77.8254
 11
27.1008
 21
79.5343
  0
LINE
  8
0
 10
27.1008
 20
79.5343
 11
25.951
 21
81.5259
  0
LINE
  8
0
 10
25.951
 20
81.5259
 11
25.2404
 21
83.713
  0
LINE
  8
0
 10
25.2404
 20
83.713
 11
25
 21
86
  0
LINE
  8
0
 10
25
 20
86
 11
25.2404
 21
88.287
  0
LINE
  8
0
 10
25.2404
 20
88.287
 11
25.951
 21
90.4741
  0
LINE
  8
0
 10
25.951
 20
90.4741
 11
27.1008
 21
92.4656
  0
LINE
  8
0
 10
27.1008
 20
92.4656
 11
28.6396
 21
94.1746
  0
LINE
  8
0
 10
28.6396
 20
94.1746
 11
30.5
 21
95.5263
  0
LINE
  8
0
 10
30.5
 20
95.5263
 11
32.6008
 21
96.4616
  0
LINE
  8
0
 10
32.6008
 20
96.4616
 11
34.8502
 21
96.9397
  0
LINE
  8
0
 10
34.8502
 20
96.9397
 11
37.1498
 21
96.9397
  0
LINE
  8
0
 10
37.1498
 20
96.9397
 11
39.3992
 21
96.4616
  0
LINE
  8
0
 10
39.3992
 20
96.4616
 11
41.5
 21
95.5263
  0
LINE
  8
0
 10
41.5
 20
95.5263
 11
42.2243
 21
95
  0
LINE
  8
0
 10
42.2243
 20
95
 11
52
 21
95
  0
LINE
  8
0
 10
52
 20
95
 11
52
 21
103
  0
LINE
  8
0
 10
52
 20
103
 11
61
 21
103
  0
LINE
  8
0
 10
30
 20
33
 11
30
 21
43.5
  0
LINE
  8
0
 10
30
 20
43.5
 11
15
 21
43.5
  0
LINE
  8
0
 10
15
 20
43.5
 11
15
 21
48
  0
LINE
  8
0
 10
15
 20
48
 11
30
 21
48
  0
LINE
  8
0
 10
30
 20
48
 11
30
 21
72
  0
LINE
  8
0
 10
30
 20
72
 11
69
 21
72
  0
LINE
  8
0
 10
69
 20
72
 11
69
 21
33
  0
LINE
  8
0
 10
69
 20
33
 11
30
 21
33
  0
LINE
  8
0
 10
39
 20
-8
 11
39
 21
12
  0
LINE
  8
0
 10
39
 20
12
 11
32.5
 21
12
  0
LINE
  8
0
 10
32.5
 20
12
 11
32.5
 21
30
  0
LINE
  8
0
 10
32.5
 20
30
 11
70.5
 21
30
  0
LINE
  8
0
 10
70.5
 20
30
 11
70.5
 21
12
  0
LINE
  8
0
 10
70.5
 20
12
 11
66
 21
12
  0
LINE
  8
0
 10
66
 20
12
 11
66
 21
-8
  0
LINE
  8
0
 10
66
 20
-8
 11
39
 21
-8
  0
LINE
  8
0
 10
28.6808
 20
-12.8753
 11
27.5989
 21
-13.2268
  0
LINE
  8
0
 10
27.5989
 20
-13.2268
 11
25
 21
-13.5
  0
LINE
  8
0
 10
25
 20
-13.5
 11
22.4011
 21
-13.2268
  0
LINE
  8
0
 10
22.4011
 20
-13.2268
 11
19.9158
 21
-12.4193
  0
LINE
  8
0
 10
19.9158
 20
-12.4193
 11
17.6527
 21
-11.1127
  0
LINE
  8
0
 10
17.6527
 20
-11.1127
 11
15.7107
 21
-9.36412
  0
LINE
  8
0
 10
15.7107
 20
-9.36412
 11
14.1747
 21
-7.24998
  0
LINE
  8
0
 10
14.1747
 20
-7.24998
 11
13.1118
 21
-4.8627
  0
LINE
  8
0
 10
13.1118
 20
-4.8627
 11
12.5685
 21
-2.30661
  0
LINE
  8
0
 10
12.5685
 20
-2.30661
 11
12.5685
 21
0.306595
  0
LINE
  8
0
 10
12.5685
 20
0.306595
 11
14.0852
 21
14.3695
  0
LINE
  8
0
 10
14.0852
 20
14.3695
 11
15.25
 21
15.8875
  0
LINE
  8
0
 10
15.25
 20
15.8875
 11
17.147
 21
16.1372
  0
LINE
  8
0
 10
17.147
 20
16.1372
 11
30.0842
 21
10.4193
  0
LINE
  8
0
 10
30.0842
 20
10.4193
 11
32.3473
 21
9.11269
  0
LINE
  8
0
 10
32.3473
 20
9.11269
 11
34.2893
 21
7.36412
  0
LINE
  8
0
 10
34.2893
 20
7.36412
 11
35.8253
 21
5.24998
  0
LINE
  8
0
 10
35.8253
 20
5.24998
 11
36.8882
 21
2.8627
  0
LINE
  8
0
 10
36.8882
 20
2.8627
 11
37.4315
 21
0.30661
  0
LINE
  8
0
 10
37.4315
 20
0.30661
 11
37.4315
 21
-2.30659
  0
LINE
  8
0
 10
37.4315
 20
-2.30659
 11
36.8882
 21
-4.8627
  0
LINE
  8
0
 10
36.8882
 20
-4.8627
 11
35.8253
 21
-7.24998
  0
LINE
  8
0
 10
35.8253
 20
-7.24998
 11
34.2893
 21
-9.36412
  0
LINE
  8
0
 10
34.2893
 20
-9.36412
 11
33.4439
 21
-10.1253
  0
LINE
  8
0
 10
33.4439
 20
-10.1253
 11
36.1316
 21
-14.7804
  0
LINE
  8
0
 10
36.1316
 20
-14.7804
 11
31.3684
 21
-17.5304
  0
LINE
  8
0
 10
31.3684
 20
-17.5304
 11
28.6808
 21
-12.8753
  0
LINE
  8
0
 10
-4.47906
 20
-17.0725
 11
-7.37259
 21
-16.4574
  0
LINE
  8
0
 10
-7.37259
 20
-16.4574
 11
-10.075
 21
-15.2543
  0
LINE
  8
0
 10
-10.075
 20
-15.2543
 11
-12.4682
 21
-13.5155
  0
LINE
  8
0
 10
-12.4682
 20
-13.5155
 11
-14.4476
 21
-11.3172
  0
LINE
  8
0
 10
-14.4476
 20
-11.3172
 11
-15.9267
 21
-8.75531
  0
LINE
  8
0
 10
-15.9267
 20
-8.75531
 11
-16.8408
 21
-5.94194
  0
LINE
  8
0
 10
-16.8408
 20
-5.94194
 11
-17.15
 21
-2.99998
  0
LINE
  8
0
 10
-17.15
 20
-2.99998
 11
-16.8408
 21
-0.0580444
  0
LINE
  8
0
 10
-16.8408
 20
-0.0580444
 11
-15.9267
 21
2.75531
  0
LINE
  8
0
 10
-15.9267
 20
2.75531
 11
-14.4476
 21
5.31715
  0
LINE
  8
0
 10
-14.4476
 20
5.31715
 11
-12.4682
 21
7.51549
  0
LINE
  8
0
 10
-12.4682
 20
7.51549
 11
-10.075
 21
9.25426
  0
LINE
  8
0
 10
-10.075
 20
9.25426
 11
-7.37259
 21
10.4574
  0
LINE
  8
0
 10
-7.37259
 20
10.4574
 11
-4.47906
 21
11.0725
  0
LINE
  8
0
 10
-4.47906
 20
11.0725
 11
-1.52092
 21
11.0725
  0
LINE
  8
0
 10
-1.52092
 20
11.0725
 11
1.37259
 21
10.4574
  0
LINE
  8
0
 10
1.37259
 20
10.4574
 11
4.075
 21
9.25426
  0
LINE
  8
0
 10
4.075
 20
9.25426
 11
6.46819
 21
7.51549
  0
LINE
  8
0
 10
6.46819
 20
7.51549
 11
8.44759
 21
5.31715
  0
LINE
  8
0
 10
8.44759
 20
5.31715
 11
9.92667
 21
2.75531
  0
LINE
  8
0
 10
9.92667
 20
2.75531
 11
10.8408
 21
-0.0580444
  0
LINE
  8
0
 10
10.8408
 20
-0.0580444
 11
11.15
 21
-3
  0
LINE
  8
0
 10
11.15
 20
-3
 11
10.8408
 21
-5.94194
  0
LINE
  8
0
 10
10.8408
 20
-5.94194
 11
9.92667
 21
-8.75531
  0
LINE
  8
0
 10
9.92667
 20
-8.75531
 11
8.44759
 21
-11.3172
  0
LINE
  8
0
 10
8.44759
 20
-11.3172
 11
6.46819
 21
-13.5155
  0
LINE
  8
0
 10
6.46819
 20
-13.5155
 11
4.075
 21
-15.2543
  0
LINE
  8
0
 10
4.075
 20
-15.2543
 11
1.37259
 21
-16.4574
  0
LINE
  8
0
 10
1.37259
 20
-16.4574
 11
-1.52092
 21
-17.0725
  0
LINE
  8
0
 10
-1.52092
 20
-17.0725
 11
-4.47906
 21
-17.0725
  0
ENDSEC
  0
SECTION
  2
OBJECTS
  0
DICTIONARY
  0
ENDSEC
  0
EOF
