solid OpenSCAD_Model
  facet normal -0.998629 -0.0523532 0
    outer loop
      vertex -0.099452 -0.010453 0
      vertex -0.099452 -0.010453 19.05
      vertex -0.1 0 0
    endloop
  endfacet
  facet normal -0.998629 -0.0523532 0
    outer loop
      vertex -0.1 0 0
      vertex -0.099452 -0.010453 19.05
      vertex -0.1 0 19.05
    endloop
  endfacet
  facet normal 0 0 -1
    outer loop
      vertex -0.1 152.4 0
      vertex -0.099452 152.41 0
      vertex -0.1 0 0
    endloop
  endfacet
  facet normal 0 0 -1
    outer loop
      vertex -0.1 0 0
      vertex -0.099452 152.41 0
      vertex -0.097815 152.421 0
    endloop
  endfacet
  facet normal 0 0 -1
    outer loop
      vertex -0.1 0 0
      vertex -0.097815 152.421 0
      vertex -0.095106 152.431 0
    endloop
  endfacet
  facet normal 0 0 -1
    outer loop
      vertex -0.1 0 0
      vertex -0.095106 152.431 0
      vertex -0.091355 152.441 0
    endloop
  endfacet
  facet normal 0 0 -1
    outer loop
      vertex -0.1 0 0
      vertex -0.091355 152.441 0
      vertex -0.086603 152.45 0
    endloop
  endfacet
  facet normal 0 0 -1
    outer loop
      vertex -0.1 0 0
      vertex -0.086603 152.45 0
      vertex -0.080902 152.459 0
    endloop
  endfacet
  facet normal 0 0 -1
    outer loop
      vertex -0.1 0 0
      vertex -0.080902 152.459 0
      vertex -0.074314 152.467 0
    endloop
  endfacet
  facet normal 0 0 -1
    outer loop
      vertex -0.1 0 0
      vertex -0.074314 152.467 0
      vertex -0.066913 152.474 0
    endloop
  endfacet
  facet normal 0 0 -1
    outer loop
      vertex -0.1 0 0
      vertex -0.066913 152.474 0
      vertex -0.058779 152.481 0
    endloop
  endfacet
  facet normal 0 0 -1
    outer loop
      vertex -0.1 0 0
      vertex -0.058779 152.481 0
      vertex -0.05 152.487 0
    endloop
  endfacet
  facet normal 0 0 -1
    outer loop
      vertex -0.1 0 0
      vertex -0.05 152.487 0
      vertex -0.040674 152.491 0
    endloop
  endfacet
  facet normal 0 0 -1
    outer loop
      vertex -0.1 0 0
      vertex -0.040674 152.491 0
      vertex -0.030902 152.495 0
    endloop
  endfacet
  facet normal 0 0 -1
    outer loop
      vertex -0.1 0 0
      vertex -0.030902 152.495 0
      vertex -0.020791 152.498 0
    endloop
  endfacet
  facet normal 0 0 -1
    outer loop
      vertex -0.1 0 0
      vertex -0.020791 152.498 0
      vertex -0.010453 152.499 0
    endloop
  endfacet
  facet normal 0 0 -1
    outer loop
      vertex -0.1 0 0
      vertex -0.010453 152.499 0
      vertex 0 152.5 0
    endloop
  endfacet
  facet normal 0 0 -1
    outer loop
      vertex -0.1 0 0
      vertex 0 152.5 0
      vertex 0.010453 152.499 0
    endloop
  endfacet
  facet normal 0 0 -1
    outer loop
      vertex -0.1 0 0
      vertex 0.010453 152.499 0
      vertex 0.020791 152.498 0
    endloop
  endfacet
  facet normal 0 0 -1
    outer loop
      vertex -0.1 0 0
      vertex 0.020791 152.498 0
      vertex 0.030902 152.495 0
    endloop
  endfacet
  facet normal 0 0 -1
    outer loop
      vertex -0.1 0 0
      vertex 0.030902 152.495 0
      vertex 0.040674 152.491 0
    endloop
  endfacet
  facet normal 0 0 -1
    outer loop
      vertex -0.1 0 0
      vertex 0.040674 152.491 0
      vertex 0.05 152.487 0
    endloop
  endfacet
  facet normal 0 0 -1
    outer loop
      vertex -0.1 0 0
      vertex 0.05 152.487 0
      vertex 0.058779 152.481 0
    endloop
  endfacet
  facet normal 0 0 -1
    outer loop
      vertex -0.1 0 0
      vertex 0.058779 152.481 0
      vertex 0.066913 152.474 0
    endloop
  endfacet
  facet normal 0 0 -1
    outer loop
      vertex -0.1 0 0
      vertex 0.066913 152.474 0
      vertex 0.074314 152.467 0
    endloop
  endfacet
  facet normal 0 0 -1
    outer loop
      vertex -0.1 0 0
      vertex 0.074314 152.467 0
      vertex 19.1243 133.417 0
    endloop
  endfacet
  facet normal 0 0 -1
    outer loop
      vertex -0.1 0 0
      vertex 19.1243 133.417 0
      vertex 19.1309 133.409 0
    endloop
  endfacet
  facet normal 0 0 -1
    outer loop
      vertex -0.1 0 0
      vertex 19.1309 133.409 0
      vertex 19.1366 133.4 0
    endloop
  endfacet
  facet normal 0 0 -1
    outer loop
      vertex -0.1 0 0
      vertex 19.1366 133.4 0
      vertex 19.1414 133.391 0
    endloop
  endfacet
  facet normal 0 0 -1
    outer loop
      vertex -0.1 0 0
      vertex 19.1414 133.391 0
      vertex 19.1451 133.381 0
    endloop
  endfacet
  facet normal 0 0 -1
    outer loop
      vertex -0.1 0 0
      vertex 19.1451 133.381 0
      vertex 19.1478 133.371 0
    endloop
  endfacet
  facet normal 0 0 -1
    outer loop
      vertex -0.1 0 0
      vertex 19.1478 133.371 0
      vertex 19.1495 133.36 0
    endloop
  endfacet
  facet normal 0 0 -1
    outer loop
      vertex -0.1 0 0
      vertex 19.1495 133.36 0
      vertex 19.15 133.35 0
    endloop
  endfacet
  facet normal 0 0 -1
    outer loop
      vertex -0.1 0 0
      vertex 19.15 133.35 0
      vertex 19.15 19.05 0
    endloop
  endfacet
  facet normal 0 0 -1
    outer loop
      vertex -0.1 0 0
      vertex 19.15 19.05 0
      vertex 19.1495 19.0395 0
    endloop
  endfacet
  facet normal 0 0 -1
    outer loop
      vertex -0.1 0 0
      vertex 19.1495 19.0395 0
      vertex 19.1478 19.0292 0
    endloop
  endfacet
  facet normal 0 0 -1
    outer loop
      vertex -0.1 0 0
      vertex 19.1478 19.0292 0
      vertex 19.1451 19.0191 0
    endloop
  endfacet
  facet normal 0 0 -1
    outer loop
      vertex -0.1 0 0
      vertex 19.1451 19.0191 0
      vertex 19.1414 19.0093 0
    endloop
  endfacet
  facet normal 0 0 -1
    outer loop
      vertex -0.1 0 0
      vertex 19.1414 19.0093 0
      vertex 19.1366 19 0
    endloop
  endfacet
  facet normal 0 0 -1
    outer loop
      vertex -0.1 0 0
      vertex 19.1366 19 0
      vertex 19.1309 18.9912 0
    endloop
  endfacet
  facet normal 0 0 -1
    outer loop
      vertex -0.1 0 0
      vertex 19.1309 18.9912 0
      vertex 19.1243 18.9831 0
    endloop
  endfacet
  facet normal 0 0 -1
    outer loop
      vertex -0.1 0 0
      vertex 19.1243 18.9831 0
      vertex 19.1169 18.9757 0
    endloop
  endfacet
  facet normal 0 0 -1
    outer loop
      vertex -0.1 0 0
      vertex 19.1169 18.9757 0
      vertex 0.066913 -0.074314 0
    endloop
  endfacet
  facet normal 0 0 -1
    outer loop
      vertex -0.1 0 0
      vertex 0.066913 -0.074314 0
      vertex 0.058779 -0.080902 0
    endloop
  endfacet
  facet normal 0 0 -1
    outer loop
      vertex -0.1 0 0
      vertex 0.058779 -0.080902 0
      vertex 0.05 -0.086603 0
    endloop
  endfacet
  facet normal 0 0 -1
    outer loop
      vertex -0.1 0 0
      vertex 0.05 -0.086603 0
      vertex 0.040674 -0.091355 0
    endloop
  endfacet
  facet normal 0 0 -1
    outer loop
      vertex -0.1 0 0
      vertex 0.040674 -0.091355 0
      vertex 0.030902 -0.095106 0
    endloop
  endfacet
  facet normal 0 0 -1
    outer loop
      vertex -0.1 0 0
      vertex 0.030902 -0.095106 0
      vertex 0.020791 -0.097815 0
    endloop
  endfacet
  facet normal 0 0 -1
    outer loop
      vertex -0.1 0 0
      vertex 0.020791 -0.097815 0
      vertex 0.010453 -0.099452 0
    endloop
  endfacet
  facet normal 0 0 -1
    outer loop
      vertex -0.1 0 0
      vertex 0.010453 -0.099452 0
      vertex 0 -0.1 0
    endloop
  endfacet
  facet normal 0 0 -1
    outer loop
      vertex -0.1 0 0
      vertex 0 -0.1 0
      vertex -0.010453 -0.099452 0
    endloop
  endfacet
  facet normal 0 0 -1
    outer loop
      vertex -0.1 0 0
      vertex -0.010453 -0.099452 0
      vertex -0.020791 -0.097815 0
    endloop
  endfacet
  facet normal 0 0 -1
    outer loop
      vertex -0.1 0 0
      vertex -0.020791 -0.097815 0
      vertex -0.030902 -0.095106 0
    endloop
  endfacet
  facet normal 0 0 -1
    outer loop
      vertex -0.1 0 0
      vertex -0.030902 -0.095106 0
      vertex -0.040674 -0.091355 0
    endloop
  endfacet
  facet normal 0 0 -1
    outer loop
      vertex -0.1 0 0
      vertex -0.040674 -0.091355 0
      vertex -0.05 -0.086603 0
    endloop
  endfacet
  facet normal 0 0 -1
    outer loop
      vertex -0.1 0 0
      vertex -0.05 -0.086603 0
      vertex -0.058779 -0.080902 0
    endloop
  endfacet
  facet normal 0 0 -1
    outer loop
      vertex -0.1 0 0
      vertex -0.058779 -0.080902 0
      vertex -0.066913 -0.074314 0
    endloop
  endfacet
  facet normal 0 0 -1
    outer loop
      vertex -0.1 0 0
      vertex -0.066913 -0.074314 0
      vertex -0.074314 -0.066913 0
    endloop
  endfacet
  facet normal 0 0 -1
    outer loop
      vertex -0.1 0 0
      vertex -0.074314 -0.066913 0
      vertex -0.080902 -0.058779 0
    endloop
  endfacet
  facet normal 0 0 -1
    outer loop
      vertex -0.1 0 0
      vertex -0.080902 -0.058779 0
      vertex -0.086603 -0.05 0
    endloop
  endfacet
  facet normal 0 0 -1
    outer loop
      vertex -0.1 0 0
      vertex -0.086603 -0.05 0
      vertex -0.091355 -0.040674 0
    endloop
  endfacet
  facet normal 0 0 -1
    outer loop
      vertex -0.1 0 0
      vertex -0.091355 -0.040674 0
      vertex -0.095106 -0.030902 0
    endloop
  endfacet
  facet normal 0 0 -1
    outer loop
      vertex -0.1 0 0
      vertex -0.095106 -0.030902 0
      vertex -0.097815 -0.020791 0
    endloop
  endfacet
  facet normal 0 0 -1
    outer loop
      vertex -0.1 0 0
      vertex -0.097815 -0.020791 0
      vertex -0.099452 -0.010453 0
    endloop
  endfacet
  facet normal -1 0 0
    outer loop
      vertex -0.1 0 19.05
      vertex -0.1 152.4 19.05
      vertex -0.1 0 0
    endloop
  endfacet
  facet normal -1 0 0
    outer loop
      vertex -0.1 0 0
      vertex -0.1 152.4 19.05
      vertex -0.1 152.4 0
    endloop
  endfacet
  facet normal 0 0 1
    outer loop
      vertex -0.1 0 19.05
      vertex -0.099452 -0.010453 19.05
      vertex -0.097815 -0.020791 19.05
    endloop
  endfacet
  facet normal 0 0 1
    outer loop
      vertex -0.091355 -0.040674 19.05
      vertex -0.1 0 19.05
      vertex -0.095106 -0.030902 19.05
    endloop
  endfacet
  facet normal 0 0 1
    outer loop
      vertex -0.095106 -0.030902 19.05
      vertex -0.1 0 19.05
      vertex -0.097815 -0.020791 19.05
    endloop
  endfacet
  facet normal 0 0 1
    outer loop
      vertex -0.086603 -0.05 19.05
      vertex -0.1 0 19.05
      vertex -0.091355 -0.040674 19.05
    endloop
  endfacet
  facet normal 0 0 1
    outer loop
      vertex -0.080902 -0.058779 19.05
      vertex -0.1 0 19.05
      vertex -0.086603 -0.05 19.05
    endloop
  endfacet
  facet normal 0 0 1
    outer loop
      vertex -0.074314 -0.066913 19.05
      vertex -0.1 0 19.05
      vertex -0.080902 -0.058779 19.05
    endloop
  endfacet
  facet normal 0 0 1
    outer loop
      vertex -0.066913 -0.074314 19.05
      vertex -0.1 0 19.05
      vertex -0.074314 -0.066913 19.05
    endloop
  endfacet
  facet normal 0 0 1
    outer loop
      vertex -0.058779 -0.080902 19.05
      vertex -0.1 0 19.05
      vertex -0.066913 -0.074314 19.05
    endloop
  endfacet
  facet normal 0 0 1
    outer loop
      vertex -0.05 -0.086603 19.05
      vertex -0.1 0 19.05
      vertex -0.058779 -0.080902 19.05
    endloop
  endfacet
  facet normal 0 0 1
    outer loop
      vertex -0.040674 -0.091355 19.05
      vertex -0.1 0 19.05
      vertex -0.05 -0.086603 19.05
    endloop
  endfacet
  facet normal 0 0 1
    outer loop
      vertex -0.030902 -0.095106 19.05
      vertex -0.1 0 19.05
      vertex -0.040674 -0.091355 19.05
    endloop
  endfacet
  facet normal 0 0 1
    outer loop
      vertex -0.020791 -0.097815 19.05
      vertex -0.1 0 19.05
      vertex -0.030902 -0.095106 19.05
    endloop
  endfacet
  facet normal 0 0 1
    outer loop
      vertex -0.010453 -0.099452 19.05
      vertex -0.1 0 19.05
      vertex -0.020791 -0.097815 19.05
    endloop
  endfacet
  facet normal 0 0 1
    outer loop
      vertex 0 -0.1 19.05
      vertex -0.1 0 19.05
      vertex -0.010453 -0.099452 19.05
    endloop
  endfacet
  facet normal 0 0 1
    outer loop
      vertex 0.010453 -0.099452 19.05
      vertex -0.1 0 19.05
      vertex 0 -0.1 19.05
    endloop
  endfacet
  facet normal 0 0 1
    outer loop
      vertex 0.020791 -0.097815 19.05
      vertex -0.1 0 19.05
      vertex 0.010453 -0.099452 19.05
    endloop
  endfacet
  facet normal 0 0 1
    outer loop
      vertex 0.030902 -0.095106 19.05
      vertex -0.1 0 19.05
      vertex 0.020791 -0.097815 19.05
    endloop
  endfacet
  facet normal 0 0 1
    outer loop
      vertex 0.040674 -0.091355 19.05
      vertex -0.1 0 19.05
      vertex 0.030902 -0.095106 19.05
    endloop
  endfacet
  facet normal 0 0 1
    outer loop
      vertex 0.05 -0.086603 19.05
      vertex -0.1 0 19.05
      vertex 0.040674 -0.091355 19.05
    endloop
  endfacet
  facet normal 0 0 1
    outer loop
      vertex 0.058779 -0.080902 19.05
      vertex -0.1 0 19.05
      vertex 0.05 -0.086603 19.05
    endloop
  endfacet
  facet normal 0 0 1
    outer loop
      vertex 0.066913 -0.074314 19.05
      vertex -0.1 0 19.05
      vertex 0.058779 -0.080902 19.05
    endloop
  endfacet
  facet normal 0 0 1
    outer loop
      vertex 19.1169 18.9757 19.05
      vertex -0.1 0 19.05
      vertex 0.066913 -0.074314 19.05
    endloop
  endfacet
  facet normal 0 0 1
    outer loop
      vertex 19.1243 18.9831 19.05
      vertex -0.1 0 19.05
      vertex 19.1169 18.9757 19.05
    endloop
  endfacet
  facet normal 0 0 1
    outer loop
      vertex 19.1309 18.9912 19.05
      vertex -0.1 0 19.05
      vertex 19.1243 18.9831 19.05
    endloop
  endfacet
  facet normal 0 0 1
    outer loop
      vertex 19.1366 19 19.05
      vertex -0.1 0 19.05
      vertex 19.1309 18.9912 19.05
    endloop
  endfacet
  facet normal 0 0 1
    outer loop
      vertex 19.1414 19.0093 19.05
      vertex -0.1 0 19.05
      vertex 19.1366 19 19.05
    endloop
  endfacet
  facet normal 0 0 1
    outer loop
      vertex 19.1451 19.0191 19.05
      vertex -0.1 0 19.05
      vertex 19.1414 19.0093 19.05
    endloop
  endfacet
  facet normal 0 0 1
    outer loop
      vertex 19.1478 19.0292 19.05
      vertex -0.1 0 19.05
      vertex 19.1451 19.0191 19.05
    endloop
  endfacet
  facet normal 0 0 1
    outer loop
      vertex 19.1495 19.0395 19.05
      vertex -0.1 0 19.05
      vertex 19.1478 19.0292 19.05
    endloop
  endfacet
  facet normal 0 0 1
    outer loop
      vertex 19.15 19.05 19.05
      vertex -0.1 0 19.05
      vertex 19.1495 19.0395 19.05
    endloop
  endfacet
  facet normal 0 0 1
    outer loop
      vertex 19.15 133.35 19.05
      vertex -0.1 0 19.05
      vertex 19.15 19.05 19.05
    endloop
  endfacet
  facet normal 0 0 1
    outer loop
      vertex 19.1495 133.36 19.05
      vertex -0.1 0 19.05
      vertex 19.15 133.35 19.05
    endloop
  endfacet
  facet normal 0 0 1
    outer loop
      vertex 19.1478 133.371 19.05
      vertex -0.1 0 19.05
      vertex 19.1495 133.36 19.05
    endloop
  endfacet
  facet normal 0 0 1
    outer loop
      vertex 19.1451 133.381 19.05
      vertex -0.1 0 19.05
      vertex 19.1478 133.371 19.05
    endloop
  endfacet
  facet normal 0 0 1
    outer loop
      vertex 19.1414 133.391 19.05
      vertex -0.1 0 19.05
      vertex 19.1451 133.381 19.05
    endloop
  endfacet
  facet normal 0 0 1
    outer loop
      vertex 19.1366 133.4 19.05
      vertex -0.1 0 19.05
      vertex 19.1414 133.391 19.05
    endloop
  endfacet
  facet normal 0 0 1
    outer loop
      vertex 19.1309 133.409 19.05
      vertex -0.1 0 19.05
      vertex 19.1366 133.4 19.05
    endloop
  endfacet
  facet normal 0 0 1
    outer loop
      vertex 19.1243 133.417 19.05
      vertex -0.1 0 19.05
      vertex 19.1309 133.409 19.05
    endloop
  endfacet
  facet normal 0 0 1
    outer loop
      vertex 0.074314 152.467 19.05
      vertex -0.1 0 19.05
      vertex 19.1243 133.417 19.05
    endloop
  endfacet
  facet normal 0 0 1
    outer loop
      vertex 0.066913 152.474 19.05
      vertex -0.1 0 19.05
      vertex 0.074314 152.467 19.05
    endloop
  endfacet
  facet normal 0 0 1
    outer loop
      vertex 0.058779 152.481 19.05
      vertex -0.1 0 19.05
      vertex 0.066913 152.474 19.05
    endloop
  endfacet
  facet normal 0 0 1
    outer loop
      vertex 0.05 152.487 19.05
      vertex -0.1 0 19.05
      vertex 0.058779 152.481 19.05
    endloop
  endfacet
  facet normal 0 0 1
    outer loop
      vertex 0.040674 152.491 19.05
      vertex -0.1 0 19.05
      vertex 0.05 152.487 19.05
    endloop
  endfacet
  facet normal 0 0 1
    outer loop
      vertex 0.030902 152.495 19.05
      vertex -0.1 0 19.05
      vertex 0.040674 152.491 19.05
    endloop
  endfacet
  facet normal 0 0 1
    outer loop
      vertex 0.020791 152.498 19.05
      vertex -0.1 0 19.05
      vertex 0.030902 152.495 19.05
    endloop
  endfacet
  facet normal 0 0 1
    outer loop
      vertex 0.010453 152.499 19.05
      vertex -0.1 0 19.05
      vertex 0.020791 152.498 19.05
    endloop
  endfacet
  facet normal 0 0 1
    outer loop
      vertex 0 152.5 19.05
      vertex -0.1 0 19.05
      vertex 0.010453 152.499 19.05
    endloop
  endfacet
  facet normal 0 0 1
    outer loop
      vertex -0.010453 152.499 19.05
      vertex -0.1 0 19.05
      vertex 0 152.5 19.05
    endloop
  endfacet
  facet normal 0 0 1
    outer loop
      vertex -0.020791 152.498 19.05
      vertex -0.1 0 19.05
      vertex -0.010453 152.499 19.05
    endloop
  endfacet
  facet normal 0 0 1
    outer loop
      vertex -0.030902 152.495 19.05
      vertex -0.1 0 19.05
      vertex -0.020791 152.498 19.05
    endloop
  endfacet
  facet normal 0 0 1
    outer loop
      vertex -0.040674 152.491 19.05
      vertex -0.1 0 19.05
      vertex -0.030902 152.495 19.05
    endloop
  endfacet
  facet normal 0 0 1
    outer loop
      vertex -0.05 152.487 19.05
      vertex -0.1 0 19.05
      vertex -0.040674 152.491 19.05
    endloop
  endfacet
  facet normal 0 0 1
    outer loop
      vertex -0.058779 152.481 19.05
      vertex -0.1 0 19.05
      vertex -0.05 152.487 19.05
    endloop
  endfacet
  facet normal 0 0 1
    outer loop
      vertex -0.066913 152.474 19.05
      vertex -0.1 0 19.05
      vertex -0.058779 152.481 19.05
    endloop
  endfacet
  facet normal 0 0 1
    outer loop
      vertex -0.074314 152.467 19.05
      vertex -0.1 0 19.05
      vertex -0.066913 152.474 19.05
    endloop
  endfacet
  facet normal 0 0 1
    outer loop
      vertex -0.080902 152.459 19.05
      vertex -0.1 0 19.05
      vertex -0.074314 152.467 19.05
    endloop
  endfacet
  facet normal 0 0 1
    outer loop
      vertex -0.086603 152.45 19.05
      vertex -0.1 0 19.05
      vertex -0.080902 152.459 19.05
    endloop
  endfacet
  facet normal 0 0 1
    outer loop
      vertex -0.091355 152.441 19.05
      vertex -0.1 0 19.05
      vertex -0.086603 152.45 19.05
    endloop
  endfacet
  facet normal 0 0 1
    outer loop
      vertex -0.095106 152.431 19.05
      vertex -0.1 0 19.05
      vertex -0.091355 152.441 19.05
    endloop
  endfacet
  facet normal 0 0 1
    outer loop
      vertex -0.097815 152.421 19.05
      vertex -0.1 0 19.05
      vertex -0.095106 152.431 19.05
    endloop
  endfacet
  facet normal 0 0 1
    outer loop
      vertex -0.099452 152.41 19.05
      vertex -0.1 0 19.05
      vertex -0.097815 152.421 19.05
    endloop
  endfacet
  facet normal 0 0 1
    outer loop
      vertex -0.1 152.4 19.05
      vertex -0.1 0 19.05
      vertex -0.099452 152.41 19.05
    endloop
  endfacet
  facet normal -0.987694 -0.156399 0
    outer loop
      vertex -0.097815 -0.020791 0
      vertex -0.097815 -0.020791 19.05
      vertex -0.099452 -0.010453 0
    endloop
  endfacet
  facet normal -0.987694 -0.156399 0
    outer loop
      vertex -0.099452 -0.010453 0
      vertex -0.097815 -0.020791 19.05
      vertex -0.099452 -0.010453 19.05
    endloop
  endfacet
  facet normal -0.965931 -0.258798 0
    outer loop
      vertex -0.095106 -0.030902 0
      vertex -0.095106 -0.030902 19.05
      vertex -0.097815 -0.020791 0
    endloop
  endfacet
  facet normal -0.965931 -0.258798 0
    outer loop
      vertex -0.097815 -0.020791 0
      vertex -0.095106 -0.030902 19.05
      vertex -0.097815 -0.020791 19.05
    endloop
  endfacet
  facet normal -0.933584 -0.358358 0
    outer loop
      vertex -0.091355 -0.040674 0
      vertex -0.091355 -0.040674 19.05
      vertex -0.095106 -0.030902 0
    endloop
  endfacet
  facet normal -0.933584 -0.358358 0
    outer loop
      vertex -0.095106 -0.030902 0
      vertex -0.091355 -0.040674 19.05
      vertex -0.095106 -0.030902 19.05
    endloop
  endfacet
  facet normal -0.891 -0.454003 0
    outer loop
      vertex -0.086603 -0.05 0
      vertex -0.086603 -0.05 19.05
      vertex -0.091355 -0.040674 0
    endloop
  endfacet
  facet normal -0.891 -0.454003 0
    outer loop
      vertex -0.091355 -0.040674 0
      vertex -0.086603 -0.05 19.05
      vertex -0.091355 -0.040674 19.05
    endloop
  endfacet
  facet normal -0.838677 -0.544629 0
    outer loop
      vertex -0.080902 -0.058779 0
      vertex -0.080902 -0.058779 19.05
      vertex -0.086603 -0.05 0
    endloop
  endfacet
  facet normal -0.838677 -0.544629 0
    outer loop
      vertex -0.086603 -0.05 0
      vertex -0.080902 -0.058779 19.05
      vertex -0.086603 -0.05 19.05
    endloop
  endfacet
  facet normal -0.777089 -0.629391 0
    outer loop
      vertex -0.074314 -0.066913 0
      vertex -0.074314 -0.066913 19.05
      vertex -0.080902 -0.058779 0
    endloop
  endfacet
  facet normal -0.777089 -0.629391 0
    outer loop
      vertex -0.080902 -0.058779 0
      vertex -0.074314 -0.066913 19.05
      vertex -0.080902 -0.058779 19.05
    endloop
  endfacet
  facet normal -0.707107 -0.707107 0
    outer loop
      vertex -0.074314 -0.066913 0
      vertex -0.066913 -0.074314 0
      vertex -0.066913 -0.074314 19.05
    endloop
  endfacet
  facet normal -0.707107 -0.707107 0
    outer loop
      vertex -0.074314 -0.066913 19.05
      vertex -0.074314 -0.066913 0
      vertex -0.066913 -0.074314 19.05
    endloop
  endfacet
  facet normal -0.629391 -0.777089 0
    outer loop
      vertex -0.066913 -0.074314 0
      vertex -0.058779 -0.080902 0
      vertex -0.058779 -0.080902 19.05
    endloop
  endfacet
  facet normal -0.629391 -0.777089 0
    outer loop
      vertex -0.066913 -0.074314 19.05
      vertex -0.066913 -0.074314 0
      vertex -0.058779 -0.080902 19.05
    endloop
  endfacet
  facet normal -0.544629 -0.838677 0
    outer loop
      vertex -0.058779 -0.080902 0
      vertex -0.05 -0.086603 0
      vertex -0.05 -0.086603 19.05
    endloop
  endfacet
  facet normal -0.544629 -0.838677 0
    outer loop
      vertex -0.058779 -0.080902 19.05
      vertex -0.058779 -0.080902 0
      vertex -0.05 -0.086603 19.05
    endloop
  endfacet
  facet normal -0.454003 -0.891 0
    outer loop
      vertex -0.05 -0.086603 0
      vertex -0.040674 -0.091355 0
      vertex -0.040674 -0.091355 19.05
    endloop
  endfacet
  facet normal -0.454003 -0.891 0
    outer loop
      vertex -0.05 -0.086603 19.05
      vertex -0.05 -0.086603 0
      vertex -0.040674 -0.091355 19.05
    endloop
  endfacet
  facet normal -0.358358 -0.933584 0
    outer loop
      vertex -0.040674 -0.091355 0
      vertex -0.030902 -0.095106 0
      vertex -0.030902 -0.095106 19.05
    endloop
  endfacet
  facet normal -0.358358 -0.933584 0
    outer loop
      vertex -0.040674 -0.091355 19.05
      vertex -0.040674 -0.091355 0
      vertex -0.030902 -0.095106 19.05
    endloop
  endfacet
  facet normal -0.258798 -0.965931 0
    outer loop
      vertex -0.030902 -0.095106 0
      vertex -0.020791 -0.097815 0
      vertex -0.020791 -0.097815 19.05
    endloop
  endfacet
  facet normal -0.258798 -0.965931 0
    outer loop
      vertex -0.030902 -0.095106 19.05
      vertex -0.030902 -0.095106 0
      vertex -0.020791 -0.097815 19.05
    endloop
  endfacet
  facet normal -0.156399 -0.987694 0
    outer loop
      vertex -0.020791 -0.097815 0
      vertex -0.010453 -0.099452 0
      vertex -0.010453 -0.099452 19.05
    endloop
  endfacet
  facet normal -0.156399 -0.987694 0
    outer loop
      vertex -0.020791 -0.097815 19.05
      vertex -0.020791 -0.097815 0
      vertex -0.010453 -0.099452 19.05
    endloop
  endfacet
  facet normal -0.0523532 -0.998629 0
    outer loop
      vertex -0.010453 -0.099452 0
      vertex 0 -0.1 0
      vertex 0 -0.1 19.05
    endloop
  endfacet
  facet normal -0.0523532 -0.998629 0
    outer loop
      vertex -0.010453 -0.099452 19.05
      vertex -0.010453 -0.099452 0
      vertex 0 -0.1 19.05
    endloop
  endfacet
  facet normal 0.0523532 -0.998629 0
    outer loop
      vertex 0 -0.1 0
      vertex 0.010453 -0.099452 0
      vertex 0.010453 -0.099452 19.05
    endloop
  endfacet
  facet normal 0.0523532 -0.998629 0
    outer loop
      vertex 0 -0.1 19.05
      vertex 0 -0.1 0
      vertex 0.010453 -0.099452 19.05
    endloop
  endfacet
  facet normal 0.156399 -0.987694 0
    outer loop
      vertex 0.010453 -0.099452 0
      vertex 0.020791 -0.097815 0
      vertex 0.020791 -0.097815 19.05
    endloop
  endfacet
  facet normal 0.156399 -0.987694 0
    outer loop
      vertex 0.010453 -0.099452 19.05
      vertex 0.010453 -0.099452 0
      vertex 0.020791 -0.097815 19.05
    endloop
  endfacet
  facet normal 0.258798 -0.965931 0
    outer loop
      vertex 0.020791 -0.097815 0
      vertex 0.030902 -0.095106 0
      vertex 0.030902 -0.095106 19.05
    endloop
  endfacet
  facet normal 0.258798 -0.965931 0
    outer loop
      vertex 0.020791 -0.097815 19.05
      vertex 0.020791 -0.097815 0
      vertex 0.030902 -0.095106 19.05
    endloop
  endfacet
  facet normal 0.358358 -0.933584 0
    outer loop
      vertex 0.030902 -0.095106 0
      vertex 0.040674 -0.091355 0
      vertex 0.040674 -0.091355 19.05
    endloop
  endfacet
  facet normal 0.358358 -0.933584 0
    outer loop
      vertex 0.030902 -0.095106 19.05
      vertex 0.030902 -0.095106 0
      vertex 0.040674 -0.091355 19.05
    endloop
  endfacet
  facet normal 0.454003 -0.891 0
    outer loop
      vertex 0.040674 -0.091355 0
      vertex 0.05 -0.086603 0
      vertex 0.05 -0.086603 19.05
    endloop
  endfacet
  facet normal 0.454003 -0.891 0
    outer loop
      vertex 0.040674 -0.091355 19.05
      vertex 0.040674 -0.091355 0
      vertex 0.05 -0.086603 19.05
    endloop
  endfacet
  facet normal 0.544629 -0.838677 0
    outer loop
      vertex 0.05 -0.086603 0
      vertex 0.058779 -0.080902 0
      vertex 0.058779 -0.080902 19.05
    endloop
  endfacet
  facet normal 0.544629 -0.838677 0
    outer loop
      vertex 0.05 -0.086603 19.05
      vertex 0.05 -0.086603 0
      vertex 0.058779 -0.080902 19.05
    endloop
  endfacet
  facet normal 0.629391 -0.777089 0
    outer loop
      vertex 0.058779 -0.080902 0
      vertex 0.066913 -0.074314 0
      vertex 0.066913 -0.074314 19.05
    endloop
  endfacet
  facet normal 0.629391 -0.777089 0
    outer loop
      vertex 0.058779 -0.080902 19.05
      vertex 0.058779 -0.080902 0
      vertex 0.066913 -0.074314 19.05
    endloop
  endfacet
  facet normal 0.707107 -0.707107 0
    outer loop
      vertex 0.066913 -0.074314 0
      vertex 19.1169 18.9757 0
      vertex 19.1169 18.9757 19.05
    endloop
  endfacet
  facet normal 0.707107 -0.707107 0
    outer loop
      vertex 0.066913 -0.074314 19.05
      vertex 0.066913 -0.074314 0
      vertex 19.1169 18.9757 19.05
    endloop
  endfacet
  facet normal 0.707107 -0.707107 0
    outer loop
      vertex 19.1169 18.9757 0
      vertex 19.1243 18.9831 0
      vertex 19.1243 18.9831 19.05
    endloop
  endfacet
  facet normal 0.707107 -0.707107 0
    outer loop
      vertex 19.1169 18.9757 19.05
      vertex 19.1169 18.9757 0
      vertex 19.1243 18.9831 19.05
    endloop
  endfacet
  facet normal 0.777089 -0.629391 0
    outer loop
      vertex 19.1243 18.9831 0
      vertex 19.1309 18.9912 0
      vertex 19.1309 18.9912 19.05
    endloop
  endfacet
  facet normal 0.777089 -0.629391 0
    outer loop
      vertex 19.1243 18.9831 19.05
      vertex 19.1243 18.9831 0
      vertex 19.1309 18.9912 19.05
    endloop
  endfacet
  facet normal 0.838677 -0.544629 0
    outer loop
      vertex 19.1309 18.9912 0
      vertex 19.1366 19 0
      vertex 19.1366 19 19.05
    endloop
  endfacet
  facet normal 0.838677 -0.544629 0
    outer loop
      vertex 19.1309 18.9912 19.05
      vertex 19.1309 18.9912 0
      vertex 19.1366 19 19.05
    endloop
  endfacet
  facet normal 0.891 -0.454003 0
    outer loop
      vertex 19.1366 19 0
      vertex 19.1414 19.0093 0
      vertex 19.1414 19.0093 19.05
    endloop
  endfacet
  facet normal 0.891 -0.454003 0
    outer loop
      vertex 19.1366 19 19.05
      vertex 19.1366 19 0
      vertex 19.1414 19.0093 19.05
    endloop
  endfacet
  facet normal 0.933584 -0.358358 0
    outer loop
      vertex 19.1414 19.0093 0
      vertex 19.1451 19.0191 0
      vertex 19.1451 19.0191 19.05
    endloop
  endfacet
  facet normal 0.933584 -0.358358 0
    outer loop
      vertex 19.1414 19.0093 19.05
      vertex 19.1414 19.0093 0
      vertex 19.1451 19.0191 19.05
    endloop
  endfacet
  facet normal 0.965931 -0.258798 0
    outer loop
      vertex 19.1451 19.0191 0
      vertex 19.1478 19.0292 0
      vertex 19.1478 19.0292 19.05
    endloop
  endfacet
  facet normal 0.965931 -0.258798 0
    outer loop
      vertex 19.1451 19.0191 19.05
      vertex 19.1451 19.0191 0
      vertex 19.1478 19.0292 19.05
    endloop
  endfacet
  facet normal 0.987694 -0.156399 0
    outer loop
      vertex 19.1478 19.0292 0
      vertex 19.1495 19.0395 0
      vertex 19.1495 19.0395 19.05
    endloop
  endfacet
  facet normal 0.987694 -0.156399 0
    outer loop
      vertex 19.1478 19.0292 19.05
      vertex 19.1478 19.0292 0
      vertex 19.1495 19.0395 19.05
    endloop
  endfacet
  facet normal 0.998629 -0.0523532 0
    outer loop
      vertex 19.1495 19.0395 0
      vertex 19.15 19.05 0
      vertex 19.15 19.05 19.05
    endloop
  endfacet
  facet normal 0.998629 -0.0523532 0
    outer loop
      vertex 19.1495 19.0395 19.05
      vertex 19.1495 19.0395 0
      vertex 19.15 19.05 19.05
    endloop
  endfacet
  facet normal 1 0 0
    outer loop
      vertex 19.15 19.05 0
      vertex 19.15 133.35 0
      vertex 19.15 133.35 19.05
    endloop
  endfacet
  facet normal 1 0 0
    outer loop
      vertex 19.15 19.05 19.05
      vertex 19.15 19.05 0
      vertex 19.15 133.35 19.05
    endloop
  endfacet
  facet normal 0.998629 0.0523532 0
    outer loop
      vertex 19.1495 133.36 0
      vertex 19.1495 133.36 19.05
      vertex 19.15 133.35 19.05
    endloop
  endfacet
  facet normal 0.998629 0.0523532 0
    outer loop
      vertex 19.15 133.35 0
      vertex 19.1495 133.36 0
      vertex 19.15 133.35 19.05
    endloop
  endfacet
  facet normal 0.987694 0.156399 0
    outer loop
      vertex 19.1478 133.371 0
      vertex 19.1478 133.371 19.05
      vertex 19.1495 133.36 19.05
    endloop
  endfacet
  facet normal 0.987694 0.156399 0
    outer loop
      vertex 19.1495 133.36 0
      vertex 19.1478 133.371 0
      vertex 19.1495 133.36 19.05
    endloop
  endfacet
  facet normal 0.965931 0.258798 0
    outer loop
      vertex 19.1451 133.381 0
      vertex 19.1451 133.381 19.05
      vertex 19.1478 133.371 19.05
    endloop
  endfacet
  facet normal 0.965931 0.258798 0
    outer loop
      vertex 19.1478 133.371 0
      vertex 19.1451 133.381 0
      vertex 19.1478 133.371 19.05
    endloop
  endfacet
  facet normal 0.933584 0.358358 0
    outer loop
      vertex 19.1414 133.391 0
      vertex 19.1414 133.391 19.05
      vertex 19.1451 133.381 19.05
    endloop
  endfacet
  facet normal 0.933584 0.358358 0
    outer loop
      vertex 19.1451 133.381 0
      vertex 19.1414 133.391 0
      vertex 19.1451 133.381 19.05
    endloop
  endfacet
  facet normal 0.891 0.454003 0
    outer loop
      vertex 19.1366 133.4 0
      vertex 19.1366 133.4 19.05
      vertex 19.1414 133.391 19.05
    endloop
  endfacet
  facet normal 0.891 0.454003 0
    outer loop
      vertex 19.1414 133.391 0
      vertex 19.1366 133.4 0
      vertex 19.1414 133.391 19.05
    endloop
  endfacet
  facet normal 0.838677 0.544629 0
    outer loop
      vertex 19.1309 133.409 0
      vertex 19.1309 133.409 19.05
      vertex 19.1366 133.4 19.05
    endloop
  endfacet
  facet normal 0.838677 0.544629 0
    outer loop
      vertex 19.1366 133.4 0
      vertex 19.1309 133.409 0
      vertex 19.1366 133.4 19.05
    endloop
  endfacet
  facet normal 0.777089 0.629391 0
    outer loop
      vertex 19.1243 133.417 0
      vertex 19.1243 133.417 19.05
      vertex 19.1309 133.409 19.05
    endloop
  endfacet
  facet normal 0.777089 0.629391 0
    outer loop
      vertex 19.1309 133.409 0
      vertex 19.1243 133.417 0
      vertex 19.1309 133.409 19.05
    endloop
  endfacet
  facet normal 0.707107 0.707107 0
    outer loop
      vertex 0.074314 152.467 0
      vertex 0.074314 152.467 19.05
      vertex 19.1243 133.417 19.05
    endloop
  endfacet
  facet normal 0.707107 0.707107 0
    outer loop
      vertex 19.1243 133.417 0
      vertex 0.074314 152.467 0
      vertex 19.1243 133.417 19.05
    endloop
  endfacet
  facet normal 0.707107 0.707107 0
    outer loop
      vertex 0.066913 152.474 19.05
      vertex 0.074314 152.467 19.05
      vertex 0.066913 152.474 0
    endloop
  endfacet
  facet normal 0.707107 0.707107 0
    outer loop
      vertex 0.066913 152.474 0
      vertex 0.074314 152.467 19.05
      vertex 0.074314 152.467 0
    endloop
  endfacet
  facet normal 0.629391 0.777089 0
    outer loop
      vertex 0.058779 152.481 19.05
      vertex 0.066913 152.474 19.05
      vertex 0.058779 152.481 0
    endloop
  endfacet
  facet normal 0.629391 0.777089 0
    outer loop
      vertex 0.058779 152.481 0
      vertex 0.066913 152.474 19.05
      vertex 0.066913 152.474 0
    endloop
  endfacet
  facet normal 0.544629 0.838677 0
    outer loop
      vertex 0.05 152.487 19.05
      vertex 0.058779 152.481 19.05
      vertex 0.05 152.487 0
    endloop
  endfacet
  facet normal 0.544629 0.838677 0
    outer loop
      vertex 0.05 152.487 0
      vertex 0.058779 152.481 19.05
      vertex 0.058779 152.481 0
    endloop
  endfacet
  facet normal 0.454003 0.891 0
    outer loop
      vertex 0.040674 152.491 19.05
      vertex 0.05 152.487 19.05
      vertex 0.040674 152.491 0
    endloop
  endfacet
  facet normal 0.454003 0.891 0
    outer loop
      vertex 0.040674 152.491 0
      vertex 0.05 152.487 19.05
      vertex 0.05 152.487 0
    endloop
  endfacet
  facet normal 0.358358 0.933584 0
    outer loop
      vertex 0.030902 152.495 19.05
      vertex 0.040674 152.491 19.05
      vertex 0.030902 152.495 0
    endloop
  endfacet
  facet normal 0.358358 0.933584 0
    outer loop
      vertex 0.030902 152.495 0
      vertex 0.040674 152.491 19.05
      vertex 0.040674 152.491 0
    endloop
  endfacet
  facet normal 0.258798 0.965931 0
    outer loop
      vertex 0.020791 152.498 19.05
      vertex 0.030902 152.495 19.05
      vertex 0.020791 152.498 0
    endloop
  endfacet
  facet normal 0.258798 0.965931 0
    outer loop
      vertex 0.020791 152.498 0
      vertex 0.030902 152.495 19.05
      vertex 0.030902 152.495 0
    endloop
  endfacet
  facet normal 0.156399 0.987694 0
    outer loop
      vertex 0.010453 152.499 19.05
      vertex 0.020791 152.498 19.05
      vertex 0.010453 152.499 0
    endloop
  endfacet
  facet normal 0.156399 0.987694 0
    outer loop
      vertex 0.010453 152.499 0
      vertex 0.020791 152.498 19.05
      vertex 0.020791 152.498 0
    endloop
  endfacet
  facet normal 0.0523532 0.998629 0
    outer loop
      vertex 0 152.5 19.05
      vertex 0.010453 152.499 19.05
      vertex 0 152.5 0
    endloop
  endfacet
  facet normal 0.0523532 0.998629 0
    outer loop
      vertex 0 152.5 0
      vertex 0.010453 152.499 19.05
      vertex 0.010453 152.499 0
    endloop
  endfacet
  facet normal -0.0523532 0.998629 0
    outer loop
      vertex -0.010453 152.499 19.05
      vertex 0 152.5 19.05
      vertex -0.010453 152.499 0
    endloop
  endfacet
  facet normal -0.0523532 0.998629 0
    outer loop
      vertex -0.010453 152.499 0
      vertex 0 152.5 19.05
      vertex 0 152.5 0
    endloop
  endfacet
  facet normal -0.156399 0.987694 0
    outer loop
      vertex -0.020791 152.498 19.05
      vertex -0.010453 152.499 19.05
      vertex -0.020791 152.498 0
    endloop
  endfacet
  facet normal -0.156399 0.987694 0
    outer loop
      vertex -0.020791 152.498 0
      vertex -0.010453 152.499 19.05
      vertex -0.010453 152.499 0
    endloop
  endfacet
  facet normal -0.258798 0.965931 0
    outer loop
      vertex -0.030902 152.495 19.05
      vertex -0.020791 152.498 19.05
      vertex -0.030902 152.495 0
    endloop
  endfacet
  facet normal -0.258798 0.965931 0
    outer loop
      vertex -0.030902 152.495 0
      vertex -0.020791 152.498 19.05
      vertex -0.020791 152.498 0
    endloop
  endfacet
  facet normal -0.358358 0.933584 0
    outer loop
      vertex -0.040674 152.491 19.05
      vertex -0.030902 152.495 19.05
      vertex -0.040674 152.491 0
    endloop
  endfacet
  facet normal -0.358358 0.933584 0
    outer loop
      vertex -0.040674 152.491 0
      vertex -0.030902 152.495 19.05
      vertex -0.030902 152.495 0
    endloop
  endfacet
  facet normal -0.454003 0.891 0
    outer loop
      vertex -0.05 152.487 19.05
      vertex -0.040674 152.491 19.05
      vertex -0.05 152.487 0
    endloop
  endfacet
  facet normal -0.454003 0.891 0
    outer loop
      vertex -0.05 152.487 0
      vertex -0.040674 152.491 19.05
      vertex -0.040674 152.491 0
    endloop
  endfacet
  facet normal -0.544629 0.838677 0
    outer loop
      vertex -0.058779 152.481 19.05
      vertex -0.05 152.487 19.05
      vertex -0.058779 152.481 0
    endloop
  endfacet
  facet normal -0.544629 0.838677 0
    outer loop
      vertex -0.058779 152.481 0
      vertex -0.05 152.487 19.05
      vertex -0.05 152.487 0
    endloop
  endfacet
  facet normal -0.629391 0.777089 0
    outer loop
      vertex -0.066913 152.474 19.05
      vertex -0.058779 152.481 19.05
      vertex -0.066913 152.474 0
    endloop
  endfacet
  facet normal -0.629391 0.777089 0
    outer loop
      vertex -0.066913 152.474 0
      vertex -0.058779 152.481 19.05
      vertex -0.058779 152.481 0
    endloop
  endfacet
  facet normal -0.707107 0.707107 0
    outer loop
      vertex -0.074314 152.467 19.05
      vertex -0.066913 152.474 19.05
      vertex -0.074314 152.467 0
    endloop
  endfacet
  facet normal -0.707107 0.707107 0
    outer loop
      vertex -0.074314 152.467 0
      vertex -0.066913 152.474 19.05
      vertex -0.066913 152.474 0
    endloop
  endfacet
  facet normal -0.777089 0.629391 0
    outer loop
      vertex -0.080902 152.459 19.05
      vertex -0.074314 152.467 19.05
      vertex -0.080902 152.459 0
    endloop
  endfacet
  facet normal -0.777089 0.629391 0
    outer loop
      vertex -0.080902 152.459 0
      vertex -0.074314 152.467 19.05
      vertex -0.074314 152.467 0
    endloop
  endfacet
  facet normal -0.838677 0.544629 0
    outer loop
      vertex -0.086603 152.45 19.05
      vertex -0.080902 152.459 19.05
      vertex -0.086603 152.45 0
    endloop
  endfacet
  facet normal -0.838677 0.544629 0
    outer loop
      vertex -0.086603 152.45 0
      vertex -0.080902 152.459 19.05
      vertex -0.080902 152.459 0
    endloop
  endfacet
  facet normal -0.891 0.454003 0
    outer loop
      vertex -0.091355 152.441 19.05
      vertex -0.086603 152.45 19.05
      vertex -0.091355 152.441 0
    endloop
  endfacet
  facet normal -0.891 0.454003 0
    outer loop
      vertex -0.091355 152.441 0
      vertex -0.086603 152.45 19.05
      vertex -0.086603 152.45 0
    endloop
  endfacet
  facet normal -0.933584 0.358358 0
    outer loop
      vertex -0.095106 152.431 19.05
      vertex -0.091355 152.441 19.05
      vertex -0.095106 152.431 0
    endloop
  endfacet
  facet normal -0.933584 0.358358 0
    outer loop
      vertex -0.095106 152.431 0
      vertex -0.091355 152.441 19.05
      vertex -0.091355 152.441 0
    endloop
  endfacet
  facet normal -0.965931 0.258798 0
    outer loop
      vertex -0.097815 152.421 19.05
      vertex -0.095106 152.431 19.05
      vertex -0.097815 152.421 0
    endloop
  endfacet
  facet normal -0.965931 0.258798 0
    outer loop
      vertex -0.097815 152.421 0
      vertex -0.095106 152.431 19.05
      vertex -0.095106 152.431 0
    endloop
  endfacet
  facet normal -0.987694 0.156399 0
    outer loop
      vertex -0.099452 152.41 19.05
      vertex -0.097815 152.421 19.05
      vertex -0.099452 152.41 0
    endloop
  endfacet
  facet normal -0.987694 0.156399 0
    outer loop
      vertex -0.099452 152.41 0
      vertex -0.097815 152.421 19.05
      vertex -0.097815 152.421 0
    endloop
  endfacet
  facet normal -0.998629 0.0523532 0
    outer loop
      vertex -0.1 152.4 19.05
      vertex -0.099452 152.41 19.05
      vertex -0.1 152.4 0
    endloop
  endfacet
  facet normal -0.998629 0.0523532 0
    outer loop
      vertex -0.1 152.4 0
      vertex -0.099452 152.41 19.05
      vertex -0.099452 152.41 0
    endloop
  endfacet
endsolid OpenSCAD_Model
