solid OpenSCAD_Model
  facet normal 0 0 -1
    outer loop
      vertex -52.4 0 0
      vertex -51.9868 6.56746 0
      vertex -51.9868 -6.56746 0
    endloop
  endfacet
  facet normal 0 0 -1
    outer loop
      vertex -51.9868 -6.56746 0
      vertex -51.9868 6.56746 0
      vertex -50.7538 13.0313 0
    endloop
  endfacet
  facet normal 0 0 -1
    outer loop
      vertex -51.9868 -6.56746 0
      vertex -50.7538 13.0313 0
      vertex -48.7203 19.2897 0
    endloop
  endfacet
  facet normal 0 0 -1
    outer loop
      vertex -51.9868 -6.56746 0
      vertex -48.7203 19.2897 0
      vertex -45.9185 25.2439 0
    endloop
  endfacet
  facet normal 0 0 -1
    outer loop
      vertex -51.9868 -6.56746 0
      vertex -45.9185 25.2439 0
      vertex -42.3925 30.7999 0
    endloop
  endfacet
  facet normal 0 0 -1
    outer loop
      vertex -51.9868 -6.56746 0
      vertex -42.3925 30.7999 0
      vertex -38.198 35.8703 0
    endloop
  endfacet
  facet normal 0 0 -1
    outer loop
      vertex -51.9868 -6.56746 0
      vertex -38.198 35.8703 0
      vertex -33.401 40.3749 0
    endloop
  endfacet
  facet normal 0 0 -1
    outer loop
      vertex -51.9868 -6.56746 0
      vertex -33.401 40.3749 0
      vertex -28.0773 44.2428 0
    endloop
  endfacet
  facet normal 0 0 -1
    outer loop
      vertex -51.9868 -6.56746 0
      vertex -28.0773 44.2428 0
      vertex -22.3108 47.4129 0
    endloop
  endfacet
  facet normal 0 0 -1
    outer loop
      vertex -51.9868 -6.56746 0
      vertex -22.3108 47.4129 0
      vertex -16.1925 49.8354 0
    endloop
  endfacet
  facet normal 0 0 -1
    outer loop
      vertex -51.9868 -6.56746 0
      vertex -16.1925 49.8354 0
      vertex -9.81878 51.4719 0
    endloop
  endfacet
  facet normal 0 0 -1
    outer loop
      vertex -51.9868 -6.56746 0
      vertex -9.81878 51.4719 0
      vertex -3.29022 52.2966 0
    endloop
  endfacet
  facet normal 0 0 -1
    outer loop
      vertex -51.9868 -6.56746 0
      vertex -3.29022 52.2966 0
      vertex 3.29022 52.2966 0
    endloop
  endfacet
  facet normal 0 0 -1
    outer loop
      vertex -51.9868 -6.56746 0
      vertex 3.29022 52.2966 0
      vertex 9.81878 51.4719 0
    endloop
  endfacet
  facet normal 0 0 -1
    outer loop
      vertex -51.9868 -6.56746 0
      vertex 9.81878 51.4719 0
      vertex 16.1925 49.8354 0
    endloop
  endfacet
  facet normal 0 0 -1
    outer loop
      vertex -51.9868 -6.56746 0
      vertex 16.1925 49.8354 0
      vertex 22.3108 47.4129 0
    endloop
  endfacet
  facet normal 0 0 -1
    outer loop
      vertex -51.9868 -6.56746 0
      vertex 22.3108 47.4129 0
      vertex 28.0773 44.2428 0
    endloop
  endfacet
  facet normal 0 0 -1
    outer loop
      vertex -51.9868 -6.56746 0
      vertex 28.0773 44.2428 0
      vertex 33.401 40.3749 0
    endloop
  endfacet
  facet normal 0 0 -1
    outer loop
      vertex -51.9868 -6.56746 0
      vertex 33.401 40.3749 0
      vertex 38.198 35.8703 0
    endloop
  endfacet
  facet normal 0 0 -1
    outer loop
      vertex -51.9868 -6.56746 0
      vertex 38.198 35.8703 0
      vertex 42.3925 30.7999 0
    endloop
  endfacet
  facet normal 0 0 -1
    outer loop
      vertex -51.9868 -6.56746 0
      vertex 42.3925 30.7999 0
      vertex 45.9185 25.2439 0
    endloop
  endfacet
  facet normal 0 0 -1
    outer loop
      vertex -51.9868 -6.56746 0
      vertex 45.9185 25.2439 0
      vertex 48.7203 19.2897 0
    endloop
  endfacet
  facet normal 0 0 -1
    outer loop
      vertex -51.9868 -6.56746 0
      vertex 48.7203 19.2897 0
      vertex 50.7538 13.0313 0
    endloop
  endfacet
  facet normal 0 0 -1
    outer loop
      vertex 2.42146 0.621725 0
      vertex 50.7538 13.0313 0
      vertex 51.9868 6.56746 0
    endloop
  endfacet
  facet normal 0 0 -1
    outer loop
      vertex 2.48029 -0.313333 0
      vertex 51.9868 6.56746 0
      vertex 52.4 0 0
    endloop
  endfacet
  facet normal 0 0 -1
    outer loop
      vertex -51.9868 -6.56746 0
      vertex 52.4 0 0
      vertex 51.9868 -6.56746 0
    endloop
  endfacet
  facet normal 0 0 -1
    outer loop
      vertex -51.9868 -6.56746 0
      vertex 51.9868 -6.56746 0
      vertex 50.7538 -13.0313 0
    endloop
  endfacet
  facet normal 0 0 -1
    outer loop
      vertex -51.9868 -6.56746 0
      vertex 50.7538 -13.0313 0
      vertex 48.7203 -19.2897 0
    endloop
  endfacet
  facet normal 0 0 -1
    outer loop
      vertex -51.9868 -6.56746 0
      vertex 48.7203 -19.2897 0
      vertex 45.9185 -25.2439 0
    endloop
  endfacet
  facet normal 0 0 -1
    outer loop
      vertex -51.9868 -6.56746 0
      vertex 45.9185 -25.2439 0
      vertex 42.3925 -30.7999 0
    endloop
  endfacet
  facet normal 0 0 -1
    outer loop
      vertex -51.9868 -6.56746 0
      vertex 42.3925 -30.7999 0
      vertex 38.198 -35.8703 0
    endloop
  endfacet
  facet normal 0 0 -1
    outer loop
      vertex -51.9868 -6.56746 0
      vertex 38.198 -35.8703 0
      vertex 33.401 -40.3749 0
    endloop
  endfacet
  facet normal 0 0 -1
    outer loop
      vertex -51.9868 -6.56746 0
      vertex 33.401 -40.3749 0
      vertex 28.0773 -44.2428 0
    endloop
  endfacet
  facet normal 0 0 -1
    outer loop
      vertex -51.9868 -6.56746 0
      vertex 28.0773 -44.2428 0
      vertex 22.3108 -47.4129 0
    endloop
  endfacet
  facet normal 0 0 -1
    outer loop
      vertex -51.9868 -6.56746 0
      vertex 22.3108 -47.4129 0
      vertex 16.1925 -49.8354 0
    endloop
  endfacet
  facet normal 0 0 -1
    outer loop
      vertex -51.9868 -6.56746 0
      vertex 16.1925 -49.8354 0
      vertex 9.81878 -51.4719 0
    endloop
  endfacet
  facet normal 0 0 -1
    outer loop
      vertex -51.9868 -6.56746 0
      vertex 9.81878 -51.4719 0
      vertex 3.29022 -52.2966 0
    endloop
  endfacet
  facet normal 0 0 -1
    outer loop
      vertex -51.9868 -6.56746 0
      vertex 3.29022 -52.2966 0
      vertex -3.29022 -52.2966 0
    endloop
  endfacet
  facet normal 0 0 -1
    outer loop
      vertex -51.9868 -6.56746 0
      vertex -3.29022 -52.2966 0
      vertex -9.81878 -51.4719 0
    endloop
  endfacet
  facet normal 0 0 -1
    outer loop
      vertex -51.9868 -6.56746 0
      vertex -9.81878 -51.4719 0
      vertex -16.1925 -49.8354 0
    endloop
  endfacet
  facet normal 0 0 -1
    outer loop
      vertex -51.9868 -6.56746 0
      vertex -16.1925 -49.8354 0
      vertex -22.3108 -47.4129 0
    endloop
  endfacet
  facet normal 0 0 -1
    outer loop
      vertex -51.9868 -6.56746 0
      vertex -22.3108 -47.4129 0
      vertex -28.0773 -44.2428 0
    endloop
  endfacet
  facet normal 0 0 -1
    outer loop
      vertex -51.9868 -6.56746 0
      vertex -28.0773 -44.2428 0
      vertex -33.401 -40.3749 0
    endloop
  endfacet
  facet normal 0 0 -1
    outer loop
      vertex -51.9868 -6.56746 0
      vertex -33.401 -40.3749 0
      vertex -38.198 -35.8703 0
    endloop
  endfacet
  facet normal 0 0 -1
    outer loop
      vertex -51.9868 -6.56746 0
      vertex -38.198 -35.8703 0
      vertex -42.3925 -30.7999 0
    endloop
  endfacet
  facet normal 0 0 -1
    outer loop
      vertex -51.9868 -6.56746 0
      vertex -42.3925 -30.7999 0
      vertex -45.9185 -25.2439 0
    endloop
  endfacet
  facet normal 0 0 -1
    outer loop
      vertex -51.9868 -6.56746 0
      vertex -45.9185 -25.2439 0
      vertex -48.7203 -19.2897 0
    endloop
  endfacet
  facet normal 0 0 -1
    outer loop
      vertex -51.9868 -6.56746 0
      vertex -48.7203 -19.2897 0
      vertex -50.7538 -13.0313 0
    endloop
  endfacet
  facet normal 0 0 -1
    outer loop
      vertex -0.772542 2.37764 0
      vertex -51.9868 -6.56746 0
      vertex -0.468453 2.45572 0
    endloop
  endfacet
  facet normal 0 0 -1
    outer loop
      vertex -51.9868 -6.56746 0
      vertex -2.5 0 0
      vertex -2.48029 -0.313333 0
    endloop
  endfacet
  facet normal 0 0 -1
    outer loop
      vertex 2.42146 0.621725 0
      vertex 51.9868 6.56746 0
      vertex 2.48029 0.313333 0
    endloop
  endfacet
  facet normal 0 0 -1
    outer loop
      vertex -51.9868 -6.56746 0
      vertex -2.42146 -0.621725 0
      vertex -2.32444 -0.920311 0
    endloop
  endfacet
  facet normal 0 0 -1
    outer loop
      vertex -51.9868 -6.56746 0
      vertex -2.32444 -0.920311 0
      vertex -2.19077 -1.20438 0
    endloop
  endfacet
  facet normal 0 0 -1
    outer loop
      vertex -51.9868 -6.56746 0
      vertex -2.19077 -1.20438 0
      vertex -2.02254 -1.46946 0
    endloop
  endfacet
  facet normal 0 0 -1
    outer loop
      vertex -51.9868 -6.56746 0
      vertex -2.02254 -1.46946 0
      vertex -1.82242 -1.71137 0
    endloop
  endfacet
  facet normal 0 0 -1
    outer loop
      vertex -51.9868 -6.56746 0
      vertex -1.82242 -1.71137 0
      vertex -1.59356 -1.92628 0
    endloop
  endfacet
  facet normal 0 0 -1
    outer loop
      vertex -51.9868 -6.56746 0
      vertex -1.59356 -1.92628 0
      vertex -1.33957 -2.11082 0
    endloop
  endfacet
  facet normal 0 0 -1
    outer loop
      vertex -51.9868 -6.56746 0
      vertex -1.33957 -2.11082 0
      vertex -1.06445 -2.26207 0
    endloop
  endfacet
  facet normal 0 0 -1
    outer loop
      vertex -51.9868 -6.56746 0
      vertex -1.06445 -2.26207 0
      vertex -0.772542 -2.37764 0
    endloop
  endfacet
  facet normal 0 0 -1
    outer loop
      vertex -51.9868 -6.56746 0
      vertex -0.772542 -2.37764 0
      vertex -0.468453 -2.45572 0
    endloop
  endfacet
  facet normal 0 0 -1
    outer loop
      vertex -51.9868 -6.56746 0
      vertex -0.468453 -2.45572 0
      vertex -0.156976 -2.49507 0
    endloop
  endfacet
  facet normal 0 0 -1
    outer loop
      vertex -51.9868 -6.56746 0
      vertex -0.156976 -2.49507 0
      vertex 0.156976 -2.49507 0
    endloop
  endfacet
  facet normal 0 0 -1
    outer loop
      vertex -51.9868 -6.56746 0
      vertex 0.156976 -2.49507 0
      vertex 52.4 0 0
    endloop
  endfacet
  facet normal 0 0 -1
    outer loop
      vertex 0.772542 -2.37764 0
      vertex 52.4 0 0
      vertex 0.468453 -2.45572 0
    endloop
  endfacet
  facet normal 0 0 -1
    outer loop
      vertex 1.06445 -2.26207 0
      vertex 52.4 0 0
      vertex 0.772542 -2.37764 0
    endloop
  endfacet
  facet normal 0 0 -1
    outer loop
      vertex 1.33957 -2.11082 0
      vertex 52.4 0 0
      vertex 1.06445 -2.26207 0
    endloop
  endfacet
  facet normal 0 0 -1
    outer loop
      vertex 1.59356 -1.92628 0
      vertex 52.4 0 0
      vertex 1.33957 -2.11082 0
    endloop
  endfacet
  facet normal 0 0 -1
    outer loop
      vertex 1.82242 -1.71137 0
      vertex 52.4 0 0
      vertex 1.59356 -1.92628 0
    endloop
  endfacet
  facet normal 0 0 -1
    outer loop
      vertex 2.02254 -1.46946 0
      vertex 52.4 0 0
      vertex 1.82242 -1.71137 0
    endloop
  endfacet
  facet normal 0 0 -1
    outer loop
      vertex 2.19077 -1.20438 0
      vertex 52.4 0 0
      vertex 2.02254 -1.46946 0
    endloop
  endfacet
  facet normal 0 0 -1
    outer loop
      vertex 2.32444 -0.920311 0
      vertex 52.4 0 0
      vertex 2.19077 -1.20438 0
    endloop
  endfacet
  facet normal 0 0 -1
    outer loop
      vertex 2.42146 -0.621725 0
      vertex 52.4 0 0
      vertex 2.32444 -0.920311 0
    endloop
  endfacet
  facet normal 0 0 -1
    outer loop
      vertex 2.48029 -0.313333 0
      vertex 52.4 0 0
      vertex 2.42146 -0.621725 0
    endloop
  endfacet
  facet normal 0 0 -1
    outer loop
      vertex 2.5 0 0
      vertex 51.9868 6.56746 0
      vertex 2.48029 -0.313333 0
    endloop
  endfacet
  facet normal 0 0 -1
    outer loop
      vertex 2.48029 0.313333 0
      vertex 51.9868 6.56746 0
      vertex 2.5 0 0
    endloop
  endfacet
  facet normal 0 0 -1
    outer loop
      vertex 0.468453 -2.45572 0
      vertex 52.4 0 0
      vertex 0.156976 -2.49507 0
    endloop
  endfacet
  facet normal 0 0 -1
    outer loop
      vertex 2.32444 0.920311 0
      vertex 50.7538 13.0313 0
      vertex 2.42146 0.621725 0
    endloop
  endfacet
  facet normal 0 0 -1
    outer loop
      vertex 2.19077 1.20438 0
      vertex 50.7538 13.0313 0
      vertex 2.32444 0.920311 0
    endloop
  endfacet
  facet normal 0 0 -1
    outer loop
      vertex 2.02254 1.46946 0
      vertex 50.7538 13.0313 0
      vertex 2.19077 1.20438 0
    endloop
  endfacet
  facet normal 0 0 -1
    outer loop
      vertex 1.82242 1.71137 0
      vertex 50.7538 13.0313 0
      vertex 2.02254 1.46946 0
    endloop
  endfacet
  facet normal 0 0 -1
    outer loop
      vertex 1.59356 1.92628 0
      vertex 50.7538 13.0313 0
      vertex 1.82242 1.71137 0
    endloop
  endfacet
  facet normal 0 0 -1
    outer loop
      vertex 1.33957 2.11082 0
      vertex 50.7538 13.0313 0
      vertex 1.59356 1.92628 0
    endloop
  endfacet
  facet normal 0 0 -1
    outer loop
      vertex 1.06445 2.26207 0
      vertex 50.7538 13.0313 0
      vertex 1.33957 2.11082 0
    endloop
  endfacet
  facet normal 0 0 -1
    outer loop
      vertex 0.772542 2.37764 0
      vertex 50.7538 13.0313 0
      vertex 1.06445 2.26207 0
    endloop
  endfacet
  facet normal 0 0 -1
    outer loop
      vertex 0.468453 2.45572 0
      vertex 50.7538 13.0313 0
      vertex 0.772542 2.37764 0
    endloop
  endfacet
  facet normal 0 0 -1
    outer loop
      vertex 0.156976 2.49507 0
      vertex 50.7538 13.0313 0
      vertex 0.468453 2.45572 0
    endloop
  endfacet
  facet normal 0 0 -1
    outer loop
      vertex -0.156976 2.49507 0
      vertex 50.7538 13.0313 0
      vertex 0.156976 2.49507 0
    endloop
  endfacet
  facet normal 0 0 -1
    outer loop
      vertex -0.468453 2.45572 0
      vertex 50.7538 13.0313 0
      vertex -0.156976 2.49507 0
    endloop
  endfacet
  facet normal 0 0 -1
    outer loop
      vertex -51.9868 -6.56746 0
      vertex 50.7538 13.0313 0
      vertex -0.468453 2.45572 0
    endloop
  endfacet
  facet normal 0 0 -1
    outer loop
      vertex -1.06445 2.26207 0
      vertex -51.9868 -6.56746 0
      vertex -0.772542 2.37764 0
    endloop
  endfacet
  facet normal 0 0 -1
    outer loop
      vertex -1.33957 2.11082 0
      vertex -51.9868 -6.56746 0
      vertex -1.06445 2.26207 0
    endloop
  endfacet
  facet normal 0 0 -1
    outer loop
      vertex -1.59356 1.92628 0
      vertex -51.9868 -6.56746 0
      vertex -1.33957 2.11082 0
    endloop
  endfacet
  facet normal 0 0 -1
    outer loop
      vertex -1.82242 1.71137 0
      vertex -51.9868 -6.56746 0
      vertex -1.59356 1.92628 0
    endloop
  endfacet
  facet normal 0 0 -1
    outer loop
      vertex -2.02254 1.46946 0
      vertex -51.9868 -6.56746 0
      vertex -1.82242 1.71137 0
    endloop
  endfacet
  facet normal 0 0 -1
    outer loop
      vertex -2.19077 1.20438 0
      vertex -51.9868 -6.56746 0
      vertex -2.02254 1.46946 0
    endloop
  endfacet
  facet normal 0 0 -1
    outer loop
      vertex -2.32444 0.920311 0
      vertex -51.9868 -6.56746 0
      vertex -2.19077 1.20438 0
    endloop
  endfacet
  facet normal 0 0 -1
    outer loop
      vertex -2.42146 0.621725 0
      vertex -51.9868 -6.56746 0
      vertex -2.32444 0.920311 0
    endloop
  endfacet
  facet normal 0 0 -1
    outer loop
      vertex -2.48029 0.313333 0
      vertex -51.9868 -6.56746 0
      vertex -2.42146 0.621725 0
    endloop
  endfacet
  facet normal 0 0 -1
    outer loop
      vertex -51.9868 -6.56746 0
      vertex -2.48029 0.313333 0
      vertex -2.5 0 0
    endloop
  endfacet
  facet normal 0 0 -1
    outer loop
      vertex -2.42146 -0.621725 0
      vertex -51.9868 -6.56746 0
      vertex -2.48029 -0.313333 0
    endloop
  endfacet
  facet normal -0.998027 0.0627906 0
    outer loop
      vertex -52.4 0 0
      vertex -52.4 0 6
      vertex -51.9868 6.56746 0
    endloop
  endfacet
  facet normal -0.998027 0.0627906 0
    outer loop
      vertex -51.9868 6.56746 0
      vertex -52.4 0 6
      vertex -51.9868 6.56746 6
    endloop
  endfacet
  facet normal -0.998027 -0.0627906 0
    outer loop
      vertex -52.4 0 0
      vertex -51.9868 -6.56746 0
      vertex -52.4 0 6
    endloop
  endfacet
  facet normal -0.998027 -0.0627906 0
    outer loop
      vertex -52.4 0 6
      vertex -51.9868 -6.56746 0
      vertex -51.9868 -6.56746 6
    endloop
  endfacet
  facet normal -0.982287 -0.187381 0
    outer loop
      vertex -51.9868 -6.56746 0
      vertex -50.7538 -13.0313 0
      vertex -51.9868 -6.56746 6
    endloop
  endfacet
  facet normal -0.982287 -0.187381 0
    outer loop
      vertex -51.9868 -6.56746 6
      vertex -50.7538 -13.0313 0
      vertex -50.7538 -13.0313 6
    endloop
  endfacet
  facet normal -0.951057 -0.309017 0
    outer loop
      vertex -50.7538 -13.0313 0
      vertex -48.7203 -19.2897 0
      vertex -50.7538 -13.0313 6
    endloop
  endfacet
  facet normal -0.951057 -0.309017 0
    outer loop
      vertex -50.7538 -13.0313 6
      vertex -48.7203 -19.2897 0
      vertex -48.7203 -19.2897 6
    endloop
  endfacet
  facet normal -0.904827 -0.425779 0
    outer loop
      vertex -48.7203 -19.2897 0
      vertex -45.9185 -25.2439 0
      vertex -48.7203 -19.2897 6
    endloop
  endfacet
  facet normal -0.904827 -0.425779 0
    outer loop
      vertex -48.7203 -19.2897 6
      vertex -45.9185 -25.2439 0
      vertex -45.9185 -25.2439 6
    endloop
  endfacet
  facet normal -0.844328 -0.535827 0
    outer loop
      vertex -45.9185 -25.2439 0
      vertex -42.3925 -30.7999 0
      vertex -45.9185 -25.2439 6
    endloop
  endfacet
  facet normal -0.844328 -0.535827 0
    outer loop
      vertex -45.9185 -25.2439 6
      vertex -42.3925 -30.7999 0
      vertex -42.3925 -30.7999 6
    endloop
  endfacet
  facet normal -0.770513 -0.637424 0
    outer loop
      vertex -42.3925 -30.7999 0
      vertex -38.198 -35.8703 0
      vertex -42.3925 -30.7999 6
    endloop
  endfacet
  facet normal -0.770513 -0.637424 0
    outer loop
      vertex -42.3925 -30.7999 6
      vertex -38.198 -35.8703 0
      vertex -38.198 -35.8703 6
    endloop
  endfacet
  facet normal -0.684547 -0.728969 0
    outer loop
      vertex -38.198 -35.8703 6
      vertex -38.198 -35.8703 0
      vertex -33.401 -40.3749 0
    endloop
  endfacet
  facet normal -0.684547 -0.728969 0
    outer loop
      vertex -33.401 -40.3749 6
      vertex -38.198 -35.8703 6
      vertex -33.401 -40.3749 0
    endloop
  endfacet
  facet normal -0.587785 -0.809017 0
    outer loop
      vertex -33.401 -40.3749 6
      vertex -33.401 -40.3749 0
      vertex -28.0773 -44.2428 0
    endloop
  endfacet
  facet normal -0.587785 -0.809017 0
    outer loop
      vertex -28.0773 -44.2428 6
      vertex -33.401 -40.3749 6
      vertex -28.0773 -44.2428 0
    endloop
  endfacet
  facet normal -0.481754 -0.876307 0
    outer loop
      vertex -28.0773 -44.2428 6
      vertex -28.0773 -44.2428 0
      vertex -22.3108 -47.4129 0
    endloop
  endfacet
  facet normal -0.481754 -0.876307 0
    outer loop
      vertex -22.3108 -47.4129 6
      vertex -28.0773 -44.2428 6
      vertex -22.3108 -47.4129 0
    endloop
  endfacet
  facet normal -0.368124 -0.929777 0
    outer loop
      vertex -22.3108 -47.4129 6
      vertex -22.3108 -47.4129 0
      vertex -16.1925 -49.8354 0
    endloop
  endfacet
  facet normal -0.368124 -0.929777 0
    outer loop
      vertex -16.1925 -49.8354 6
      vertex -22.3108 -47.4129 6
      vertex -16.1925 -49.8354 0
    endloop
  endfacet
  facet normal -0.24869 -0.968583 0
    outer loop
      vertex -16.1925 -49.8354 6
      vertex -16.1925 -49.8354 0
      vertex -9.81878 -51.4719 0
    endloop
  endfacet
  facet normal -0.24869 -0.968583 0
    outer loop
      vertex -9.81878 -51.4719 6
      vertex -16.1925 -49.8354 6
      vertex -9.81878 -51.4719 0
    endloop
  endfacet
  facet normal -0.125333 -0.992115 0
    outer loop
      vertex -9.81878 -51.4719 6
      vertex -9.81878 -51.4719 0
      vertex -3.29022 -52.2966 0
    endloop
  endfacet
  facet normal -0.125333 -0.992115 0
    outer loop
      vertex -3.29022 -52.2966 6
      vertex -9.81878 -51.4719 6
      vertex -3.29022 -52.2966 0
    endloop
  endfacet
  facet normal 0 -1 0
    outer loop
      vertex -3.29022 -52.2966 6
      vertex -3.29022 -52.2966 0
      vertex 3.29022 -52.2966 0
    endloop
  endfacet
  facet normal 0 -1 0
    outer loop
      vertex 3.29022 -52.2966 6
      vertex -3.29022 -52.2966 6
      vertex 3.29022 -52.2966 0
    endloop
  endfacet
  facet normal 0.125333 -0.992115 0
    outer loop
      vertex 3.29022 -52.2966 6
      vertex 3.29022 -52.2966 0
      vertex 9.81878 -51.4719 0
    endloop
  endfacet
  facet normal 0.125333 -0.992115 0
    outer loop
      vertex 9.81878 -51.4719 6
      vertex 3.29022 -52.2966 6
      vertex 9.81878 -51.4719 0
    endloop
  endfacet
  facet normal 0.24869 -0.968583 0
    outer loop
      vertex 9.81878 -51.4719 6
      vertex 9.81878 -51.4719 0
      vertex 16.1925 -49.8354 0
    endloop
  endfacet
  facet normal 0.24869 -0.968583 0
    outer loop
      vertex 16.1925 -49.8354 6
      vertex 9.81878 -51.4719 6
      vertex 16.1925 -49.8354 0
    endloop
  endfacet
  facet normal 0.368124 -0.929777 0
    outer loop
      vertex 16.1925 -49.8354 6
      vertex 16.1925 -49.8354 0
      vertex 22.3108 -47.4129 0
    endloop
  endfacet
  facet normal 0.368124 -0.929777 0
    outer loop
      vertex 22.3108 -47.4129 6
      vertex 16.1925 -49.8354 6
      vertex 22.3108 -47.4129 0
    endloop
  endfacet
  facet normal 0.481754 -0.876307 0
    outer loop
      vertex 22.3108 -47.4129 6
      vertex 22.3108 -47.4129 0
      vertex 28.0773 -44.2428 0
    endloop
  endfacet
  facet normal 0.481754 -0.876307 0
    outer loop
      vertex 28.0773 -44.2428 6
      vertex 22.3108 -47.4129 6
      vertex 28.0773 -44.2428 0
    endloop
  endfacet
  facet normal 0.587785 -0.809017 0
    outer loop
      vertex 28.0773 -44.2428 6
      vertex 28.0773 -44.2428 0
      vertex 33.401 -40.3749 0
    endloop
  endfacet
  facet normal 0.587785 -0.809017 0
    outer loop
      vertex 33.401 -40.3749 6
      vertex 28.0773 -44.2428 6
      vertex 33.401 -40.3749 0
    endloop
  endfacet
  facet normal 0.684547 -0.728969 0
    outer loop
      vertex 33.401 -40.3749 6
      vertex 33.401 -40.3749 0
      vertex 38.198 -35.8703 0
    endloop
  endfacet
  facet normal 0.684547 -0.728969 0
    outer loop
      vertex 38.198 -35.8703 6
      vertex 33.401 -40.3749 6
      vertex 38.198 -35.8703 0
    endloop
  endfacet
  facet normal 0.770513 -0.637424 0
    outer loop
      vertex 38.198 -35.8703 6
      vertex 38.198 -35.8703 0
      vertex 42.3925 -30.7999 0
    endloop
  endfacet
  facet normal 0.770513 -0.637424 0
    outer loop
      vertex 42.3925 -30.7999 6
      vertex 38.198 -35.8703 6
      vertex 42.3925 -30.7999 0
    endloop
  endfacet
  facet normal 0.844328 -0.535827 0
    outer loop
      vertex 42.3925 -30.7999 6
      vertex 42.3925 -30.7999 0
      vertex 45.9185 -25.2439 0
    endloop
  endfacet
  facet normal 0.844328 -0.535827 0
    outer loop
      vertex 45.9185 -25.2439 6
      vertex 42.3925 -30.7999 6
      vertex 45.9185 -25.2439 0
    endloop
  endfacet
  facet normal 0.904827 -0.425779 0
    outer loop
      vertex 45.9185 -25.2439 6
      vertex 45.9185 -25.2439 0
      vertex 48.7203 -19.2897 0
    endloop
  endfacet
  facet normal 0.904827 -0.425779 0
    outer loop
      vertex 48.7203 -19.2897 6
      vertex 45.9185 -25.2439 6
      vertex 48.7203 -19.2897 0
    endloop
  endfacet
  facet normal 0.951057 -0.309017 0
    outer loop
      vertex 48.7203 -19.2897 6
      vertex 48.7203 -19.2897 0
      vertex 50.7538 -13.0313 0
    endloop
  endfacet
  facet normal 0.951057 -0.309017 0
    outer loop
      vertex 50.7538 -13.0313 6
      vertex 48.7203 -19.2897 6
      vertex 50.7538 -13.0313 0
    endloop
  endfacet
  facet normal 0.982287 -0.187381 0
    outer loop
      vertex 50.7538 -13.0313 6
      vertex 50.7538 -13.0313 0
      vertex 51.9868 -6.56746 0
    endloop
  endfacet
  facet normal 0.982287 -0.187381 0
    outer loop
      vertex 51.9868 -6.56746 6
      vertex 50.7538 -13.0313 6
      vertex 51.9868 -6.56746 0
    endloop
  endfacet
  facet normal 0.998027 -0.0627906 0
    outer loop
      vertex 51.9868 -6.56746 6
      vertex 51.9868 -6.56746 0
      vertex 52.4 0 0
    endloop
  endfacet
  facet normal 0.998027 -0.0627906 0
    outer loop
      vertex 52.4 0 6
      vertex 51.9868 -6.56746 6
      vertex 52.4 0 0
    endloop
  endfacet
  facet normal 0.998027 0.0627906 0
    outer loop
      vertex 52.4 0 0
      vertex 51.9868 6.56746 0
      vertex 51.9868 6.56746 6
    endloop
  endfacet
  facet normal 0.998027 0.0627906 0
    outer loop
      vertex 52.4 0 6
      vertex 52.4 0 0
      vertex 51.9868 6.56746 6
    endloop
  endfacet
  facet normal 0.982287 0.187381 0
    outer loop
      vertex 51.9868 6.56746 0
      vertex 50.7538 13.0313 0
      vertex 50.7538 13.0313 6
    endloop
  endfacet
  facet normal 0.982287 0.187381 0
    outer loop
      vertex 51.9868 6.56746 6
      vertex 51.9868 6.56746 0
      vertex 50.7538 13.0313 6
    endloop
  endfacet
  facet normal 0.951057 0.309017 0
    outer loop
      vertex 50.7538 13.0313 0
      vertex 48.7203 19.2897 0
      vertex 48.7203 19.2897 6
    endloop
  endfacet
  facet normal 0.951057 0.309017 0
    outer loop
      vertex 50.7538 13.0313 6
      vertex 50.7538 13.0313 0
      vertex 48.7203 19.2897 6
    endloop
  endfacet
  facet normal 0.904827 0.425779 0
    outer loop
      vertex 48.7203 19.2897 0
      vertex 45.9185 25.2439 0
      vertex 45.9185 25.2439 6
    endloop
  endfacet
  facet normal 0.904827 0.425779 0
    outer loop
      vertex 48.7203 19.2897 6
      vertex 48.7203 19.2897 0
      vertex 45.9185 25.2439 6
    endloop
  endfacet
  facet normal 0.844328 0.535827 0
    outer loop
      vertex 45.9185 25.2439 0
      vertex 42.3925 30.7999 0
      vertex 42.3925 30.7999 6
    endloop
  endfacet
  facet normal 0.844328 0.535827 0
    outer loop
      vertex 45.9185 25.2439 6
      vertex 45.9185 25.2439 0
      vertex 42.3925 30.7999 6
    endloop
  endfacet
  facet normal 0.770513 0.637424 0
    outer loop
      vertex 42.3925 30.7999 0
      vertex 38.198 35.8703 0
      vertex 38.198 35.8703 6
    endloop
  endfacet
  facet normal 0.770513 0.637424 0
    outer loop
      vertex 42.3925 30.7999 6
      vertex 42.3925 30.7999 0
      vertex 38.198 35.8703 6
    endloop
  endfacet
  facet normal 0.684547 0.728969 0
    outer loop
      vertex 33.401 40.3749 0
      vertex 33.401 40.3749 6
      vertex 38.198 35.8703 0
    endloop
  endfacet
  facet normal 0.684547 0.728969 0
    outer loop
      vertex 38.198 35.8703 0
      vertex 33.401 40.3749 6
      vertex 38.198 35.8703 6
    endloop
  endfacet
  facet normal 0.587785 0.809017 0
    outer loop
      vertex 28.0773 44.2428 0
      vertex 28.0773 44.2428 6
      vertex 33.401 40.3749 0
    endloop
  endfacet
  facet normal 0.587785 0.809017 0
    outer loop
      vertex 33.401 40.3749 0
      vertex 28.0773 44.2428 6
      vertex 33.401 40.3749 6
    endloop
  endfacet
  facet normal 0.481754 0.876307 0
    outer loop
      vertex 22.3108 47.4129 0
      vertex 22.3108 47.4129 6
      vertex 28.0773 44.2428 0
    endloop
  endfacet
  facet normal 0.481754 0.876307 0
    outer loop
      vertex 28.0773 44.2428 0
      vertex 22.3108 47.4129 6
      vertex 28.0773 44.2428 6
    endloop
  endfacet
  facet normal 0.368124 0.929777 0
    outer loop
      vertex 16.1925 49.8354 0
      vertex 16.1925 49.8354 6
      vertex 22.3108 47.4129 0
    endloop
  endfacet
  facet normal 0.368124 0.929777 0
    outer loop
      vertex 22.3108 47.4129 0
      vertex 16.1925 49.8354 6
      vertex 22.3108 47.4129 6
    endloop
  endfacet
  facet normal 0.24869 0.968583 0
    outer loop
      vertex 9.81878 51.4719 0
      vertex 9.81878 51.4719 6
      vertex 16.1925 49.8354 0
    endloop
  endfacet
  facet normal 0.24869 0.968583 0
    outer loop
      vertex 16.1925 49.8354 0
      vertex 9.81878 51.4719 6
      vertex 16.1925 49.8354 6
    endloop
  endfacet
  facet normal 0.125333 0.992115 0
    outer loop
      vertex 3.29022 52.2966 0
      vertex 3.29022 52.2966 6
      vertex 9.81878 51.4719 0
    endloop
  endfacet
  facet normal 0.125333 0.992115 0
    outer loop
      vertex 9.81878 51.4719 0
      vertex 3.29022 52.2966 6
      vertex 9.81878 51.4719 6
    endloop
  endfacet
  facet normal 0 1 0
    outer loop
      vertex -3.29022 52.2966 0
      vertex -3.29022 52.2966 6
      vertex 3.29022 52.2966 0
    endloop
  endfacet
  facet normal 0 1 0
    outer loop
      vertex 3.29022 52.2966 0
      vertex -3.29022 52.2966 6
      vertex 3.29022 52.2966 6
    endloop
  endfacet
  facet normal -0.125333 0.992115 0
    outer loop
      vertex -9.81878 51.4719 0
      vertex -9.81878 51.4719 6
      vertex -3.29022 52.2966 0
    endloop
  endfacet
  facet normal -0.125333 0.992115 0
    outer loop
      vertex -3.29022 52.2966 0
      vertex -9.81878 51.4719 6
      vertex -3.29022 52.2966 6
    endloop
  endfacet
  facet normal -0.24869 0.968583 0
    outer loop
      vertex -16.1925 49.8354 0
      vertex -16.1925 49.8354 6
      vertex -9.81878 51.4719 0
    endloop
  endfacet
  facet normal -0.24869 0.968583 0
    outer loop
      vertex -9.81878 51.4719 0
      vertex -16.1925 49.8354 6
      vertex -9.81878 51.4719 6
    endloop
  endfacet
  facet normal -0.368124 0.929777 0
    outer loop
      vertex -22.3108 47.4129 0
      vertex -22.3108 47.4129 6
      vertex -16.1925 49.8354 0
    endloop
  endfacet
  facet normal -0.368124 0.929777 0
    outer loop
      vertex -16.1925 49.8354 0
      vertex -22.3108 47.4129 6
      vertex -16.1925 49.8354 6
    endloop
  endfacet
  facet normal -0.481754 0.876307 0
    outer loop
      vertex -28.0773 44.2428 0
      vertex -28.0773 44.2428 6
      vertex -22.3108 47.4129 0
    endloop
  endfacet
  facet normal -0.481754 0.876307 0
    outer loop
      vertex -22.3108 47.4129 0
      vertex -28.0773 44.2428 6
      vertex -22.3108 47.4129 6
    endloop
  endfacet
  facet normal -0.587785 0.809017 0
    outer loop
      vertex -33.401 40.3749 0
      vertex -33.401 40.3749 6
      vertex -28.0773 44.2428 0
    endloop
  endfacet
  facet normal -0.587785 0.809017 0
    outer loop
      vertex -28.0773 44.2428 0
      vertex -33.401 40.3749 6
      vertex -28.0773 44.2428 6
    endloop
  endfacet
  facet normal -0.684547 0.728969 0
    outer loop
      vertex -38.198 35.8703 0
      vertex -38.198 35.8703 6
      vertex -33.401 40.3749 0
    endloop
  endfacet
  facet normal -0.684547 0.728969 0
    outer loop
      vertex -33.401 40.3749 0
      vertex -38.198 35.8703 6
      vertex -33.401 40.3749 6
    endloop
  endfacet
  facet normal -0.770513 0.637424 0
    outer loop
      vertex -42.3925 30.7999 0
      vertex -42.3925 30.7999 6
      vertex -38.198 35.8703 0
    endloop
  endfacet
  facet normal -0.770513 0.637424 0
    outer loop
      vertex -38.198 35.8703 0
      vertex -42.3925 30.7999 6
      vertex -38.198 35.8703 6
    endloop
  endfacet
  facet normal -0.844328 0.535827 0
    outer loop
      vertex -45.9185 25.2439 0
      vertex -45.9185 25.2439 6
      vertex -42.3925 30.7999 0
    endloop
  endfacet
  facet normal -0.844328 0.535827 0
    outer loop
      vertex -42.3925 30.7999 0
      vertex -45.9185 25.2439 6
      vertex -42.3925 30.7999 6
    endloop
  endfacet
  facet normal -0.904827 0.425779 0
    outer loop
      vertex -48.7203 19.2897 0
      vertex -48.7203 19.2897 6
      vertex -45.9185 25.2439 0
    endloop
  endfacet
  facet normal -0.904827 0.425779 0
    outer loop
      vertex -45.9185 25.2439 0
      vertex -48.7203 19.2897 6
      vertex -45.9185 25.2439 6
    endloop
  endfacet
  facet normal -0.951057 0.309017 0
    outer loop
      vertex -50.7538 13.0313 0
      vertex -50.7538 13.0313 6
      vertex -48.7203 19.2897 0
    endloop
  endfacet
  facet normal -0.951057 0.309017 0
    outer loop
      vertex -48.7203 19.2897 0
      vertex -50.7538 13.0313 6
      vertex -48.7203 19.2897 6
    endloop
  endfacet
  facet normal -0.982287 0.187381 0
    outer loop
      vertex -51.9868 6.56746 0
      vertex -51.9868 6.56746 6
      vertex -50.7538 13.0313 0
    endloop
  endfacet
  facet normal -0.982287 0.187381 0
    outer loop
      vertex -50.7538 13.0313 0
      vertex -51.9868 6.56746 6
      vertex -50.7538 13.0313 6
    endloop
  endfacet
  facet normal 0.998027 0.0627898 0
    outer loop
      vertex -2.5 0 1
      vertex -2.48029 -0.313333 1
      vertex -2.48029 -0.313333 0
    endloop
  endfacet
  facet normal 0.998027 0.0627898 0
    outer loop
      vertex -2.5 0 0
      vertex -2.5 0 1
      vertex -2.48029 -0.313333 0
    endloop
  endfacet
  facet normal 0.998027 -0.0627898 0
    outer loop
      vertex -2.48029 0.313333 0
      vertex -2.48029 0.313333 1
      vertex -2.5 0 1
    endloop
  endfacet
  facet normal 0.998027 -0.0627898 0
    outer loop
      vertex -2.5 0 0
      vertex -2.48029 0.313333 0
      vertex -2.5 0 1
    endloop
  endfacet
  facet normal 0.982287 -0.187382 0
    outer loop
      vertex -2.42146 0.621725 0
      vertex -2.42146 0.621725 1
      vertex -2.48029 0.313333 1
    endloop
  endfacet
  facet normal 0.982287 -0.187382 0
    outer loop
      vertex -2.48029 0.313333 0
      vertex -2.42146 0.621725 0
      vertex -2.48029 0.313333 1
    endloop
  endfacet
  facet normal 0.951056 -0.309019 0
    outer loop
      vertex -2.32444 0.920311 0
      vertex -2.32444 0.920311 1
      vertex -2.42146 0.621725 1
    endloop
  endfacet
  facet normal 0.951056 -0.309019 0
    outer loop
      vertex -2.42146 0.621725 0
      vertex -2.32444 0.920311 0
      vertex -2.42146 0.621725 1
    endloop
  endfacet
  facet normal 0.904828 -0.425778 0
    outer loop
      vertex -2.19077 1.20438 0
      vertex -2.19077 1.20438 1
      vertex -2.32444 0.920311 1
    endloop
  endfacet
  facet normal 0.904828 -0.425778 0
    outer loop
      vertex -2.32444 0.920311 0
      vertex -2.19077 1.20438 0
      vertex -2.32444 0.920311 1
    endloop
  endfacet
  facet normal 0.844327 -0.535829 0
    outer loop
      vertex -2.02254 1.46946 0
      vertex -2.02254 1.46946 1
      vertex -2.19077 1.20438 1
    endloop
  endfacet
  facet normal 0.844327 -0.535829 0
    outer loop
      vertex -2.19077 1.20438 0
      vertex -2.02254 1.46946 0
      vertex -2.19077 1.20438 1
    endloop
  endfacet
  facet normal 0.770515 -0.637422 0
    outer loop
      vertex -1.82242 1.71137 0
      vertex -1.82242 1.71137 1
      vertex -2.02254 1.46946 1
    endloop
  endfacet
  facet normal 0.770515 -0.637422 0
    outer loop
      vertex -2.02254 1.46946 0
      vertex -1.82242 1.71137 0
      vertex -2.02254 1.46946 1
    endloop
  endfacet
  facet normal 0.684546 -0.72897 0
    outer loop
      vertex -1.59356 1.92628 0
      vertex -1.59356 1.92628 1
      vertex -1.82242 1.71137 1
    endloop
  endfacet
  facet normal 0.684546 -0.72897 0
    outer loop
      vertex -1.82242 1.71137 0
      vertex -1.59356 1.92628 0
      vertex -1.82242 1.71137 1
    endloop
  endfacet
  facet normal 0.587786 -0.809017 0
    outer loop
      vertex -1.33957 2.11082 0
      vertex -1.33957 2.11082 1
      vertex -1.59356 1.92628 1
    endloop
  endfacet
  facet normal 0.587786 -0.809017 0
    outer loop
      vertex -1.59356 1.92628 0
      vertex -1.33957 2.11082 0
      vertex -1.59356 1.92628 1
    endloop
  endfacet
  facet normal 0.481754 -0.876307 0
    outer loop
      vertex -1.06445 2.26207 0
      vertex -1.06445 2.26207 1
      vertex -1.33957 2.11082 1
    endloop
  endfacet
  facet normal 0.481754 -0.876307 0
    outer loop
      vertex -1.33957 2.11082 0
      vertex -1.06445 2.26207 0
      vertex -1.33957 2.11082 1
    endloop
  endfacet
  facet normal 0.368122 -0.929777 0
    outer loop
      vertex -0.772542 2.37764 0
      vertex -0.772542 2.37764 1
      vertex -1.06445 2.26207 1
    endloop
  endfacet
  facet normal 0.368122 -0.929777 0
    outer loop
      vertex -1.06445 2.26207 0
      vertex -0.772542 2.37764 0
      vertex -1.06445 2.26207 1
    endloop
  endfacet
  facet normal 0.248691 -0.968583 0
    outer loop
      vertex -0.468453 2.45572 0
      vertex -0.468453 2.45572 1
      vertex -0.772542 2.37764 1
    endloop
  endfacet
  facet normal 0.248691 -0.968583 0
    outer loop
      vertex -0.772542 2.37764 0
      vertex -0.468453 2.45572 0
      vertex -0.772542 2.37764 1
    endloop
  endfacet
  facet normal 0.125334 -0.992115 0
    outer loop
      vertex -0.156976 2.49507 0
      vertex -0.156976 2.49507 1
      vertex -0.468453 2.45572 1
    endloop
  endfacet
  facet normal 0.125334 -0.992115 0
    outer loop
      vertex -0.468453 2.45572 0
      vertex -0.156976 2.49507 0
      vertex -0.468453 2.45572 1
    endloop
  endfacet
  facet normal 0 -1 0
    outer loop
      vertex 0.156976 2.49507 0
      vertex 0.156976 2.49507 1
      vertex -0.156976 2.49507 1
    endloop
  endfacet
  facet normal 0 -1 0
    outer loop
      vertex -0.156976 2.49507 0
      vertex 0.156976 2.49507 0
      vertex -0.156976 2.49507 1
    endloop
  endfacet
  facet normal -0.125334 -0.992115 0
    outer loop
      vertex 0.468453 2.45572 0
      vertex 0.468453 2.45572 1
      vertex 0.156976 2.49507 1
    endloop
  endfacet
  facet normal -0.125334 -0.992115 0
    outer loop
      vertex 0.156976 2.49507 0
      vertex 0.468453 2.45572 0
      vertex 0.156976 2.49507 1
    endloop
  endfacet
  facet normal -0.248691 -0.968583 0
    outer loop
      vertex 0.772542 2.37764 0
      vertex 0.772542 2.37764 1
      vertex 0.468453 2.45572 1
    endloop
  endfacet
  facet normal -0.248691 -0.968583 0
    outer loop
      vertex 0.468453 2.45572 0
      vertex 0.772542 2.37764 0
      vertex 0.468453 2.45572 1
    endloop
  endfacet
  facet normal -0.368122 -0.929777 0
    outer loop
      vertex 1.06445 2.26207 0
      vertex 1.06445 2.26207 1
      vertex 0.772542 2.37764 1
    endloop
  endfacet
  facet normal -0.368122 -0.929777 0
    outer loop
      vertex 0.772542 2.37764 0
      vertex 1.06445 2.26207 0
      vertex 0.772542 2.37764 1
    endloop
  endfacet
  facet normal -0.481754 -0.876307 0
    outer loop
      vertex 1.33957 2.11082 0
      vertex 1.33957 2.11082 1
      vertex 1.06445 2.26207 1
    endloop
  endfacet
  facet normal -0.481754 -0.876307 0
    outer loop
      vertex 1.06445 2.26207 0
      vertex 1.33957 2.11082 0
      vertex 1.06445 2.26207 1
    endloop
  endfacet
  facet normal -0.587786 -0.809017 0
    outer loop
      vertex 1.59356 1.92628 0
      vertex 1.59356 1.92628 1
      vertex 1.33957 2.11082 1
    endloop
  endfacet
  facet normal -0.587786 -0.809017 0
    outer loop
      vertex 1.33957 2.11082 0
      vertex 1.59356 1.92628 0
      vertex 1.33957 2.11082 1
    endloop
  endfacet
  facet normal -0.684546 -0.72897 0
    outer loop
      vertex 1.82242 1.71137 0
      vertex 1.82242 1.71137 1
      vertex 1.59356 1.92628 1
    endloop
  endfacet
  facet normal -0.684546 -0.72897 0
    outer loop
      vertex 1.59356 1.92628 0
      vertex 1.82242 1.71137 0
      vertex 1.59356 1.92628 1
    endloop
  endfacet
  facet normal -0.770515 -0.637422 0
    outer loop
      vertex 2.02254 1.46946 1
      vertex 1.82242 1.71137 1
      vertex 2.02254 1.46946 0
    endloop
  endfacet
  facet normal -0.770515 -0.637422 0
    outer loop
      vertex 2.02254 1.46946 0
      vertex 1.82242 1.71137 1
      vertex 1.82242 1.71137 0
    endloop
  endfacet
  facet normal -0.844327 -0.535829 0
    outer loop
      vertex 2.19077 1.20438 1
      vertex 2.02254 1.46946 1
      vertex 2.19077 1.20438 0
    endloop
  endfacet
  facet normal -0.844327 -0.535829 0
    outer loop
      vertex 2.19077 1.20438 0
      vertex 2.02254 1.46946 1
      vertex 2.02254 1.46946 0
    endloop
  endfacet
  facet normal -0.904828 -0.425778 0
    outer loop
      vertex 2.32444 0.920311 1
      vertex 2.19077 1.20438 1
      vertex 2.32444 0.920311 0
    endloop
  endfacet
  facet normal -0.904828 -0.425778 0
    outer loop
      vertex 2.32444 0.920311 0
      vertex 2.19077 1.20438 1
      vertex 2.19077 1.20438 0
    endloop
  endfacet
  facet normal -0.951056 -0.309019 0
    outer loop
      vertex 2.42146 0.621725 1
      vertex 2.32444 0.920311 1
      vertex 2.42146 0.621725 0
    endloop
  endfacet
  facet normal -0.951056 -0.309019 0
    outer loop
      vertex 2.42146 0.621725 0
      vertex 2.32444 0.920311 1
      vertex 2.32444 0.920311 0
    endloop
  endfacet
  facet normal -0.982287 -0.187382 0
    outer loop
      vertex 2.48029 0.313333 1
      vertex 2.42146 0.621725 1
      vertex 2.48029 0.313333 0
    endloop
  endfacet
  facet normal -0.982287 -0.187382 0
    outer loop
      vertex 2.48029 0.313333 0
      vertex 2.42146 0.621725 1
      vertex 2.42146 0.621725 0
    endloop
  endfacet
  facet normal -0.998027 -0.0627898 0
    outer loop
      vertex 2.5 0 1
      vertex 2.48029 0.313333 1
      vertex 2.5 0 0
    endloop
  endfacet
  facet normal -0.998027 -0.0627898 0
    outer loop
      vertex 2.5 0 0
      vertex 2.48029 0.313333 1
      vertex 2.48029 0.313333 0
    endloop
  endfacet
  facet normal -0.998027 0.0627898 0
    outer loop
      vertex 2.5 0 1
      vertex 2.5 0 0
      vertex 2.48029 -0.313333 1
    endloop
  endfacet
  facet normal -0.998027 0.0627898 0
    outer loop
      vertex 2.48029 -0.313333 1
      vertex 2.5 0 0
      vertex 2.48029 -0.313333 0
    endloop
  endfacet
  facet normal -0.982287 0.187382 0
    outer loop
      vertex 2.48029 -0.313333 1
      vertex 2.48029 -0.313333 0
      vertex 2.42146 -0.621725 1
    endloop
  endfacet
  facet normal -0.982287 0.187382 0
    outer loop
      vertex 2.42146 -0.621725 1
      vertex 2.48029 -0.313333 0
      vertex 2.42146 -0.621725 0
    endloop
  endfacet
  facet normal -0.951056 0.309019 0
    outer loop
      vertex 2.42146 -0.621725 1
      vertex 2.42146 -0.621725 0
      vertex 2.32444 -0.920311 1
    endloop
  endfacet
  facet normal -0.951056 0.309019 0
    outer loop
      vertex 2.32444 -0.920311 1
      vertex 2.42146 -0.621725 0
      vertex 2.32444 -0.920311 0
    endloop
  endfacet
  facet normal -0.904828 0.425778 0
    outer loop
      vertex 2.32444 -0.920311 1
      vertex 2.32444 -0.920311 0
      vertex 2.19077 -1.20438 1
    endloop
  endfacet
  facet normal -0.904828 0.425778 0
    outer loop
      vertex 2.19077 -1.20438 1
      vertex 2.32444 -0.920311 0
      vertex 2.19077 -1.20438 0
    endloop
  endfacet
  facet normal -0.844327 0.535829 0
    outer loop
      vertex 2.19077 -1.20438 1
      vertex 2.19077 -1.20438 0
      vertex 2.02254 -1.46946 1
    endloop
  endfacet
  facet normal -0.844327 0.535829 0
    outer loop
      vertex 2.02254 -1.46946 1
      vertex 2.19077 -1.20438 0
      vertex 2.02254 -1.46946 0
    endloop
  endfacet
  facet normal -0.770515 0.637422 0
    outer loop
      vertex 2.02254 -1.46946 1
      vertex 2.02254 -1.46946 0
      vertex 1.82242 -1.71137 1
    endloop
  endfacet
  facet normal -0.770515 0.637422 0
    outer loop
      vertex 1.82242 -1.71137 1
      vertex 2.02254 -1.46946 0
      vertex 1.82242 -1.71137 0
    endloop
  endfacet
  facet normal -0.684546 0.72897 0
    outer loop
      vertex 1.82242 -1.71137 1
      vertex 1.82242 -1.71137 0
      vertex 1.59356 -1.92628 1
    endloop
  endfacet
  facet normal -0.684546 0.72897 0
    outer loop
      vertex 1.59356 -1.92628 1
      vertex 1.82242 -1.71137 0
      vertex 1.59356 -1.92628 0
    endloop
  endfacet
  facet normal -0.587786 0.809017 0
    outer loop
      vertex 1.59356 -1.92628 1
      vertex 1.59356 -1.92628 0
      vertex 1.33957 -2.11082 1
    endloop
  endfacet
  facet normal -0.587786 0.809017 0
    outer loop
      vertex 1.33957 -2.11082 1
      vertex 1.59356 -1.92628 0
      vertex 1.33957 -2.11082 0
    endloop
  endfacet
  facet normal -0.481754 0.876307 0
    outer loop
      vertex 1.33957 -2.11082 1
      vertex 1.33957 -2.11082 0
      vertex 1.06445 -2.26207 1
    endloop
  endfacet
  facet normal -0.481754 0.876307 0
    outer loop
      vertex 1.06445 -2.26207 1
      vertex 1.33957 -2.11082 0
      vertex 1.06445 -2.26207 0
    endloop
  endfacet
  facet normal -0.368122 0.929777 0
    outer loop
      vertex 1.06445 -2.26207 1
      vertex 1.06445 -2.26207 0
      vertex 0.772542 -2.37764 1
    endloop
  endfacet
  facet normal -0.368122 0.929777 0
    outer loop
      vertex 0.772542 -2.37764 1
      vertex 1.06445 -2.26207 0
      vertex 0.772542 -2.37764 0
    endloop
  endfacet
  facet normal -0.248691 0.968583 0
    outer loop
      vertex 0.772542 -2.37764 1
      vertex 0.772542 -2.37764 0
      vertex 0.468453 -2.45572 1
    endloop
  endfacet
  facet normal -0.248691 0.968583 0
    outer loop
      vertex 0.468453 -2.45572 1
      vertex 0.772542 -2.37764 0
      vertex 0.468453 -2.45572 0
    endloop
  endfacet
  facet normal -0.125334 0.992115 0
    outer loop
      vertex 0.468453 -2.45572 1
      vertex 0.468453 -2.45572 0
      vertex 0.156976 -2.49507 1
    endloop
  endfacet
  facet normal -0.125334 0.992115 0
    outer loop
      vertex 0.156976 -2.49507 1
      vertex 0.468453 -2.45572 0
      vertex 0.156976 -2.49507 0
    endloop
  endfacet
  facet normal 0 1 0
    outer loop
      vertex 0.156976 -2.49507 1
      vertex 0.156976 -2.49507 0
      vertex -0.156976 -2.49507 1
    endloop
  endfacet
  facet normal 0 1 0
    outer loop
      vertex -0.156976 -2.49507 1
      vertex 0.156976 -2.49507 0
      vertex -0.156976 -2.49507 0
    endloop
  endfacet
  facet normal 0.125334 0.992115 0
    outer loop
      vertex -0.156976 -2.49507 1
      vertex -0.156976 -2.49507 0
      vertex -0.468453 -2.45572 1
    endloop
  endfacet
  facet normal 0.125334 0.992115 0
    outer loop
      vertex -0.468453 -2.45572 1
      vertex -0.156976 -2.49507 0
      vertex -0.468453 -2.45572 0
    endloop
  endfacet
  facet normal 0.248691 0.968583 0
    outer loop
      vertex -0.468453 -2.45572 1
      vertex -0.468453 -2.45572 0
      vertex -0.772542 -2.37764 1
    endloop
  endfacet
  facet normal 0.248691 0.968583 0
    outer loop
      vertex -0.772542 -2.37764 1
      vertex -0.468453 -2.45572 0
      vertex -0.772542 -2.37764 0
    endloop
  endfacet
  facet normal 0.368122 0.929777 0
    outer loop
      vertex -0.772542 -2.37764 1
      vertex -0.772542 -2.37764 0
      vertex -1.06445 -2.26207 1
    endloop
  endfacet
  facet normal 0.368122 0.929777 0
    outer loop
      vertex -1.06445 -2.26207 1
      vertex -0.772542 -2.37764 0
      vertex -1.06445 -2.26207 0
    endloop
  endfacet
  facet normal 0.481754 0.876307 0
    outer loop
      vertex -1.06445 -2.26207 1
      vertex -1.06445 -2.26207 0
      vertex -1.33957 -2.11082 1
    endloop
  endfacet
  facet normal 0.481754 0.876307 0
    outer loop
      vertex -1.33957 -2.11082 1
      vertex -1.06445 -2.26207 0
      vertex -1.33957 -2.11082 0
    endloop
  endfacet
  facet normal 0.587786 0.809017 0
    outer loop
      vertex -1.33957 -2.11082 1
      vertex -1.33957 -2.11082 0
      vertex -1.59356 -1.92628 1
    endloop
  endfacet
  facet normal 0.587786 0.809017 0
    outer loop
      vertex -1.59356 -1.92628 1
      vertex -1.33957 -2.11082 0
      vertex -1.59356 -1.92628 0
    endloop
  endfacet
  facet normal 0.684546 0.72897 0
    outer loop
      vertex -1.59356 -1.92628 1
      vertex -1.59356 -1.92628 0
      vertex -1.82242 -1.71137 1
    endloop
  endfacet
  facet normal 0.684546 0.72897 0
    outer loop
      vertex -1.82242 -1.71137 1
      vertex -1.59356 -1.92628 0
      vertex -1.82242 -1.71137 0
    endloop
  endfacet
  facet normal 0.770515 0.637422 0
    outer loop
      vertex -2.02254 -1.46946 1
      vertex -1.82242 -1.71137 1
      vertex -1.82242 -1.71137 0
    endloop
  endfacet
  facet normal 0.770515 0.637422 0
    outer loop
      vertex -2.02254 -1.46946 0
      vertex -2.02254 -1.46946 1
      vertex -1.82242 -1.71137 0
    endloop
  endfacet
  facet normal 0.844327 0.535829 0
    outer loop
      vertex -2.19077 -1.20438 1
      vertex -2.02254 -1.46946 1
      vertex -2.02254 -1.46946 0
    endloop
  endfacet
  facet normal 0.844327 0.535829 0
    outer loop
      vertex -2.19077 -1.20438 0
      vertex -2.19077 -1.20438 1
      vertex -2.02254 -1.46946 0
    endloop
  endfacet
  facet normal 0.904828 0.425778 0
    outer loop
      vertex -2.32444 -0.920311 1
      vertex -2.19077 -1.20438 1
      vertex -2.19077 -1.20438 0
    endloop
  endfacet
  facet normal 0.904828 0.425778 0
    outer loop
      vertex -2.32444 -0.920311 0
      vertex -2.32444 -0.920311 1
      vertex -2.19077 -1.20438 0
    endloop
  endfacet
  facet normal 0.951056 0.309019 0
    outer loop
      vertex -2.42146 -0.621725 1
      vertex -2.32444 -0.920311 1
      vertex -2.32444 -0.920311 0
    endloop
  endfacet
  facet normal 0.951056 0.309019 0
    outer loop
      vertex -2.42146 -0.621725 0
      vertex -2.42146 -0.621725 1
      vertex -2.32444 -0.920311 0
    endloop
  endfacet
  facet normal 0.982287 0.187382 0
    outer loop
      vertex -2.48029 -0.313333 1
      vertex -2.42146 -0.621725 1
      vertex -2.42146 -0.621725 0
    endloop
  endfacet
  facet normal 0.982287 0.187382 0
    outer loop
      vertex -2.48029 -0.313333 0
      vertex -2.48029 -0.313333 1
      vertex -2.42146 -0.621725 0
    endloop
  endfacet
  facet normal 0 0 1
    outer loop
      vertex -51.9868 6.56746 6
      vertex -52.4 0 6
      vertex -51.9868 -6.56746 6
    endloop
  endfacet
  facet normal 0 0 1
    outer loop
      vertex -51.0939 -6.45466 6
      vertex -51.9868 6.56746 6
      vertex -50.7538 -13.0313 6
    endloop
  endfacet
  facet normal 0 0 1
    outer loop
      vertex -50.7538 -13.0313 6
      vertex -51.9868 6.56746 6
      vertex -51.9868 -6.56746 6
    endloop
  endfacet
  facet normal 0 0 1
    outer loop
      vertex -51.0939 6.45466 6
      vertex -49.882 12.8075 6
      vertex -51.9868 6.56746 6
    endloop
  endfacet
  facet normal 0 0 1
    outer loop
      vertex -47.8835 -18.9584 6
      vertex -49.882 -12.8075 6
      vertex -48.7203 -19.2897 6
    endloop
  endfacet
  facet normal 0 0 1
    outer loop
      vertex 49.882 12.8075 6
      vertex 51.0939 6.45466 6
      vertex 51.9868 6.56746 6
    endloop
  endfacet
  facet normal 0 0 1
    outer loop
      vertex 47.8835 18.9584 6
      vertex 49.882 12.8075 6
      vertex 50.7538 13.0313 6
    endloop
  endfacet
  facet normal 0 0 1
    outer loop
      vertex 45.1298 24.8103 6
      vertex 47.8835 18.9584 6
      vertex 48.7203 19.2897 6
    endloop
  endfacet
  facet normal 0 0 1
    outer loop
      vertex 41.6644 30.2709 6
      vertex 45.1298 24.8103 6
      vertex 45.9185 25.2439 6
    endloop
  endfacet
  facet normal 0 0 1
    outer loop
      vertex 37.5419 35.2542 6
      vertex 41.6644 30.2709 6
      vertex 42.3925 30.7999 6
    endloop
  endfacet
  facet normal 0 0 1
    outer loop
      vertex 32.8273 39.6814 6
      vertex 37.5419 35.2542 6
      vertex 38.198 35.8703 6
    endloop
  endfacet
  facet normal 0 0 1
    outer loop
      vertex 27.5951 43.4829 6
      vertex 32.8273 39.6814 6
      vertex 33.401 40.3749 6
    endloop
  endfacet
  facet normal 0 0 1
    outer loop
      vertex 21.9276 46.5986 6
      vertex 27.5951 43.4829 6
      vertex 28.0773 44.2428 6
    endloop
  endfacet
  facet normal 0 0 1
    outer loop
      vertex 15.9144 48.9794 6
      vertex 21.9276 46.5986 6
      vertex 22.3108 47.4129 6
    endloop
  endfacet
  facet normal 0 0 1
    outer loop
      vertex 9.65014 50.5878 6
      vertex 15.9144 48.9794 6
      vertex 16.1925 49.8354 6
    endloop
  endfacet
  facet normal 0 0 1
    outer loop
      vertex 3.23371 51.3984 6
      vertex 9.65014 50.5878 6
      vertex 9.81878 51.4719 6
    endloop
  endfacet
  facet normal 0 0 1
    outer loop
      vertex -3.23371 51.3984 6
      vertex 3.23371 51.3984 6
      vertex 3.29022 52.2966 6
    endloop
  endfacet
  facet normal 0 0 1
    outer loop
      vertex -9.65014 50.5878 6
      vertex -3.23371 51.3984 6
      vertex -3.29022 52.2966 6
    endloop
  endfacet
  facet normal 0 0 1
    outer loop
      vertex -15.9144 48.9794 6
      vertex -9.65014 50.5878 6
      vertex -9.81878 51.4719 6
    endloop
  endfacet
  facet normal 0 0 1
    outer loop
      vertex -21.9276 46.5986 6
      vertex -15.9144 48.9794 6
      vertex -16.1925 49.8354 6
    endloop
  endfacet
  facet normal 0 0 1
    outer loop
      vertex -27.5951 43.4829 6
      vertex -21.9276 46.5986 6
      vertex -22.3108 47.4129 6
    endloop
  endfacet
  facet normal 0 0 1
    outer loop
      vertex -32.8273 39.6814 6
      vertex -27.5951 43.4829 6
      vertex -28.0773 44.2428 6
    endloop
  endfacet
  facet normal 0 0 1
    outer loop
      vertex 51.0939 6.45466 6
      vertex 51.5 0 6
      vertex 52.4 0 6
    endloop
  endfacet
  facet normal 0 0 1
    outer loop
      vertex -48.7203 19.2897 6
      vertex -51.9868 6.56746 6
      vertex -45.9185 25.2439 6
    endloop
  endfacet
  facet normal 0 0 1
    outer loop
      vertex -50.7538 13.0313 6
      vertex -51.9868 6.56746 6
      vertex -48.7203 19.2897 6
    endloop
  endfacet
  facet normal 0 0 1
    outer loop
      vertex -48.7203 -19.2897 6
      vertex -51.0939 -6.45466 6
      vertex -50.7538 -13.0313 6
    endloop
  endfacet
  facet normal 0 0 1
    outer loop
      vertex -51.5 0 6
      vertex -51.9868 6.56746 6
      vertex -51.0939 -6.45466 6
    endloop
  endfacet
  facet normal 0 0 1
    outer loop
      vertex 49.882 -12.8075 6
      vertex 47.8835 -18.9584 6
      vertex 50.7538 -13.0313 6
    endloop
  endfacet
  facet normal 0 0 1
    outer loop
      vertex -41.6644 30.2709 6
      vertex -37.5419 35.2542 6
      vertex -38.198 35.8703 6
    endloop
  endfacet
  facet normal 0 0 1
    outer loop
      vertex -45.9185 25.2439 6
      vertex -51.9868 6.56746 6
      vertex -49.882 12.8075 6
    endloop
  endfacet
  facet normal 0 0 1
    outer loop
      vertex -45.9185 25.2439 6
      vertex -47.8835 18.9584 6
      vertex -42.3925 30.7999 6
    endloop
  endfacet
  facet normal 0 0 1
    outer loop
      vertex -45.9185 25.2439 6
      vertex -49.882 12.8075 6
      vertex -47.8835 18.9584 6
    endloop
  endfacet
  facet normal 0 0 1
    outer loop
      vertex -47.8835 18.9584 6
      vertex -45.1298 24.8103 6
      vertex -42.3925 30.7999 6
    endloop
  endfacet
  facet normal 0 0 1
    outer loop
      vertex -42.3925 30.7999 6
      vertex -41.6644 30.2709 6
      vertex -38.198 35.8703 6
    endloop
  endfacet
  facet normal 0 0 1
    outer loop
      vertex -45.1298 24.8103 6
      vertex -41.6644 30.2709 6
      vertex -42.3925 30.7999 6
    endloop
  endfacet
  facet normal 0 0 1
    outer loop
      vertex -38.198 35.8703 6
      vertex -37.5419 35.2542 6
      vertex -33.401 40.3749 6
    endloop
  endfacet
  facet normal 0 0 1
    outer loop
      vertex -33.401 40.3749 6
      vertex -32.8273 39.6814 6
      vertex -28.0773 44.2428 6
    endloop
  endfacet
  facet normal 0 0 1
    outer loop
      vertex -28.0773 44.2428 6
      vertex -27.5951 43.4829 6
      vertex -22.3108 47.4129 6
    endloop
  endfacet
  facet normal 0 0 1
    outer loop
      vertex -22.3108 47.4129 6
      vertex -21.9276 46.5986 6
      vertex -16.1925 49.8354 6
    endloop
  endfacet
  facet normal 0 0 1
    outer loop
      vertex -16.1925 49.8354 6
      vertex -15.9144 48.9794 6
      vertex -9.81878 51.4719 6
    endloop
  endfacet
  facet normal 0 0 1
    outer loop
      vertex -9.81878 51.4719 6
      vertex -9.65014 50.5878 6
      vertex -3.29022 52.2966 6
    endloop
  endfacet
  facet normal 0 0 1
    outer loop
      vertex -3.29022 52.2966 6
      vertex -3.23371 51.3984 6
      vertex 3.29022 52.2966 6
    endloop
  endfacet
  facet normal 0 0 1
    outer loop
      vertex 3.29022 52.2966 6
      vertex 3.23371 51.3984 6
      vertex 9.81878 51.4719 6
    endloop
  endfacet
  facet normal 0 0 1
    outer loop
      vertex 9.81878 51.4719 6
      vertex 9.65014 50.5878 6
      vertex 16.1925 49.8354 6
    endloop
  endfacet
  facet normal 0 0 1
    outer loop
      vertex 16.1925 49.8354 6
      vertex 15.9144 48.9794 6
      vertex 22.3108 47.4129 6
    endloop
  endfacet
  facet normal 0 0 1
    outer loop
      vertex 22.3108 47.4129 6
      vertex 21.9276 46.5986 6
      vertex 28.0773 44.2428 6
    endloop
  endfacet
  facet normal 0 0 1
    outer loop
      vertex 28.0773 44.2428 6
      vertex 27.5951 43.4829 6
      vertex 33.401 40.3749 6
    endloop
  endfacet
  facet normal 0 0 1
    outer loop
      vertex 33.401 40.3749 6
      vertex 32.8273 39.6814 6
      vertex 38.198 35.8703 6
    endloop
  endfacet
  facet normal 0 0 1
    outer loop
      vertex 38.198 35.8703 6
      vertex 37.5419 35.2542 6
      vertex 42.3925 30.7999 6
    endloop
  endfacet
  facet normal 0 0 1
    outer loop
      vertex 42.3925 30.7999 6
      vertex 41.6644 30.2709 6
      vertex 45.9185 25.2439 6
    endloop
  endfacet
  facet normal 0 0 1
    outer loop
      vertex 45.9185 25.2439 6
      vertex 45.1298 24.8103 6
      vertex 48.7203 19.2897 6
    endloop
  endfacet
  facet normal 0 0 1
    outer loop
      vertex 48.7203 19.2897 6
      vertex 47.8835 18.9584 6
      vertex 50.7538 13.0313 6
    endloop
  endfacet
  facet normal 0 0 1
    outer loop
      vertex 50.7538 13.0313 6
      vertex 49.882 12.8075 6
      vertex 51.9868 6.56746 6
    endloop
  endfacet
  facet normal 0 0 1
    outer loop
      vertex 51.9868 6.56746 6
      vertex 51.0939 6.45466 6
      vertex 52.4 0 6
    endloop
  endfacet
  facet normal 0 0 1
    outer loop
      vertex 52.4 0 6
      vertex 51.5 0 6
      vertex 51.9868 -6.56746 6
    endloop
  endfacet
  facet normal 0 0 1
    outer loop
      vertex 51.9868 -6.56746 6
      vertex 51.0939 -6.45466 6
      vertex 50.7538 -13.0313 6
    endloop
  endfacet
  facet normal 0 0 1
    outer loop
      vertex -37.5419 35.2542 6
      vertex -32.8273 39.6814 6
      vertex -33.401 40.3749 6
    endloop
  endfacet
  facet normal 0 0 1
    outer loop
      vertex 51.0939 -6.45466 6
      vertex 49.882 -12.8075 6
      vertex 50.7538 -13.0313 6
    endloop
  endfacet
  facet normal 0 0 1
    outer loop
      vertex 50.7538 -13.0313 6
      vertex 47.8835 -18.9584 6
      vertex 48.7203 -19.2897 6
    endloop
  endfacet
  facet normal 0 0 1
    outer loop
      vertex 48.7203 -19.2897 6
      vertex 45.1298 -24.8103 6
      vertex 45.9185 -25.2439 6
    endloop
  endfacet
  facet normal 0 0 1
    outer loop
      vertex 45.9185 -25.2439 6
      vertex 41.6644 -30.2709 6
      vertex 42.3925 -30.7999 6
    endloop
  endfacet
  facet normal 0 0 1
    outer loop
      vertex 42.3925 -30.7999 6
      vertex 37.5419 -35.2542 6
      vertex 38.198 -35.8703 6
    endloop
  endfacet
  facet normal 0 0 1
    outer loop
      vertex 38.198 -35.8703 6
      vertex 32.8273 -39.6814 6
      vertex 33.401 -40.3749 6
    endloop
  endfacet
  facet normal 0 0 1
    outer loop
      vertex 33.401 -40.3749 6
      vertex 27.5951 -43.4829 6
      vertex 28.0773 -44.2428 6
    endloop
  endfacet
  facet normal 0 0 1
    outer loop
      vertex 28.0773 -44.2428 6
      vertex 21.9276 -46.5986 6
      vertex 22.3108 -47.4129 6
    endloop
  endfacet
  facet normal 0 0 1
    outer loop
      vertex 22.3108 -47.4129 6
      vertex 15.9144 -48.9794 6
      vertex 16.1925 -49.8354 6
    endloop
  endfacet
  facet normal 0 0 1
    outer loop
      vertex 16.1925 -49.8354 6
      vertex 9.65014 -50.5878 6
      vertex 9.81878 -51.4719 6
    endloop
  endfacet
  facet normal 0 0 1
    outer loop
      vertex 9.81878 -51.4719 6
      vertex 3.23371 -51.3984 6
      vertex 3.29022 -52.2966 6
    endloop
  endfacet
  facet normal 0 0 1
    outer loop
      vertex 3.29022 -52.2966 6
      vertex -3.23371 -51.3984 6
      vertex -3.29022 -52.2966 6
    endloop
  endfacet
  facet normal 0 0 1
    outer loop
      vertex -3.29022 -52.2966 6
      vertex -9.65014 -50.5878 6
      vertex -9.81878 -51.4719 6
    endloop
  endfacet
  facet normal 0 0 1
    outer loop
      vertex -9.81878 -51.4719 6
      vertex -15.9144 -48.9794 6
      vertex -16.1925 -49.8354 6
    endloop
  endfacet
  facet normal 0 0 1
    outer loop
      vertex -16.1925 -49.8354 6
      vertex -21.9276 -46.5986 6
      vertex -22.3108 -47.4129 6
    endloop
  endfacet
  facet normal 0 0 1
    outer loop
      vertex -22.3108 -47.4129 6
      vertex -27.5951 -43.4829 6
      vertex -28.0773 -44.2428 6
    endloop
  endfacet
  facet normal 0 0 1
    outer loop
      vertex -28.0773 -44.2428 6
      vertex -32.8273 -39.6814 6
      vertex -33.401 -40.3749 6
    endloop
  endfacet
  facet normal 0 0 1
    outer loop
      vertex -33.401 -40.3749 6
      vertex -37.5419 -35.2542 6
      vertex -38.198 -35.8703 6
    endloop
  endfacet
  facet normal 0 0 1
    outer loop
      vertex -38.198 -35.8703 6
      vertex -41.6644 -30.2709 6
      vertex -42.3925 -30.7999 6
    endloop
  endfacet
  facet normal 0 0 1
    outer loop
      vertex -42.3925 -30.7999 6
      vertex -45.1298 -24.8103 6
      vertex -45.9185 -25.2439 6
    endloop
  endfacet
  facet normal 0 0 1
    outer loop
      vertex 51.5 0 6
      vertex 51.0939 -6.45466 6
      vertex 51.9868 -6.56746 6
    endloop
  endfacet
  facet normal 0 0 1
    outer loop
      vertex -45.9185 -25.2439 6
      vertex -47.8835 -18.9584 6
      vertex -48.7203 -19.2897 6
    endloop
  endfacet
  facet normal 0 0 1
    outer loop
      vertex -48.7203 -19.2897 6
      vertex -49.882 -12.8075 6
      vertex -51.0939 -6.45466 6
    endloop
  endfacet
  facet normal 0 0 1
    outer loop
      vertex 47.8835 -18.9584 6
      vertex 45.1298 -24.8103 6
      vertex 48.7203 -19.2897 6
    endloop
  endfacet
  facet normal 0 0 1
    outer loop
      vertex 45.1298 -24.8103 6
      vertex 41.6644 -30.2709 6
      vertex 45.9185 -25.2439 6
    endloop
  endfacet
  facet normal 0 0 1
    outer loop
      vertex 41.6644 -30.2709 6
      vertex 37.5419 -35.2542 6
      vertex 42.3925 -30.7999 6
    endloop
  endfacet
  facet normal 0 0 1
    outer loop
      vertex 37.5419 -35.2542 6
      vertex 32.8273 -39.6814 6
      vertex 38.198 -35.8703 6
    endloop
  endfacet
  facet normal 0 0 1
    outer loop
      vertex 32.8273 -39.6814 6
      vertex 27.5951 -43.4829 6
      vertex 33.401 -40.3749 6
    endloop
  endfacet
  facet normal 0 0 1
    outer loop
      vertex 27.5951 -43.4829 6
      vertex 21.9276 -46.5986 6
      vertex 28.0773 -44.2428 6
    endloop
  endfacet
  facet normal 0 0 1
    outer loop
      vertex 21.9276 -46.5986 6
      vertex 15.9144 -48.9794 6
      vertex 22.3108 -47.4129 6
    endloop
  endfacet
  facet normal 0 0 1
    outer loop
      vertex 15.9144 -48.9794 6
      vertex 9.65014 -50.5878 6
      vertex 16.1925 -49.8354 6
    endloop
  endfacet
  facet normal 0 0 1
    outer loop
      vertex 9.65014 -50.5878 6
      vertex 3.23371 -51.3984 6
      vertex 9.81878 -51.4719 6
    endloop
  endfacet
  facet normal 0 0 1
    outer loop
      vertex 3.23371 -51.3984 6
      vertex -3.23371 -51.3984 6
      vertex 3.29022 -52.2966 6
    endloop
  endfacet
  facet normal 0 0 1
    outer loop
      vertex -3.23371 -51.3984 6
      vertex -9.65014 -50.5878 6
      vertex -3.29022 -52.2966 6
    endloop
  endfacet
  facet normal 0 0 1
    outer loop
      vertex -9.65014 -50.5878 6
      vertex -15.9144 -48.9794 6
      vertex -9.81878 -51.4719 6
    endloop
  endfacet
  facet normal 0 0 1
    outer loop
      vertex -15.9144 -48.9794 6
      vertex -21.9276 -46.5986 6
      vertex -16.1925 -49.8354 6
    endloop
  endfacet
  facet normal 0 0 1
    outer loop
      vertex -21.9276 -46.5986 6
      vertex -27.5951 -43.4829 6
      vertex -22.3108 -47.4129 6
    endloop
  endfacet
  facet normal 0 0 1
    outer loop
      vertex -27.5951 -43.4829 6
      vertex -32.8273 -39.6814 6
      vertex -28.0773 -44.2428 6
    endloop
  endfacet
  facet normal 0 0 1
    outer loop
      vertex -32.8273 -39.6814 6
      vertex -37.5419 -35.2542 6
      vertex -33.401 -40.3749 6
    endloop
  endfacet
  facet normal 0 0 1
    outer loop
      vertex -37.5419 -35.2542 6
      vertex -41.6644 -30.2709 6
      vertex -38.198 -35.8703 6
    endloop
  endfacet
  facet normal 0 0 1
    outer loop
      vertex -41.6644 -30.2709 6
      vertex -45.1298 -24.8103 6
      vertex -42.3925 -30.7999 6
    endloop
  endfacet
  facet normal 0 0 1
    outer loop
      vertex -45.1298 -24.8103 6
      vertex -47.8835 -18.9584 6
      vertex -45.9185 -25.2439 6
    endloop
  endfacet
  facet normal 0 0 1
    outer loop
      vertex -51.5 0 6
      vertex -51.0939 6.45466 6
      vertex -51.9868 6.56746 6
    endloop
  endfacet
  facet normal 0 0 1
    outer loop
      vertex -51.0939 -6.45466 1
      vertex -49.882 -12.8075 1
      vertex -47.8835 -18.9584 1
    endloop
  endfacet
  facet normal 0 0 1
    outer loop
      vertex -41.6644 -30.2709 1
      vertex -51.0939 -6.45466 1
      vertex -45.1298 -24.8103 1
    endloop
  endfacet
  facet normal 0 0 1
    outer loop
      vertex -45.1298 -24.8103 1
      vertex -51.0939 -6.45466 1
      vertex -47.8835 -18.9584 1
    endloop
  endfacet
  facet normal 0 0 1
    outer loop
      vertex -37.5419 -35.2542 1
      vertex -51.0939 -6.45466 1
      vertex -41.6644 -30.2709 1
    endloop
  endfacet
  facet normal 0 0 1
    outer loop
      vertex -32.8273 -39.6814 1
      vertex -51.0939 -6.45466 1
      vertex -37.5419 -35.2542 1
    endloop
  endfacet
  facet normal 0 0 1
    outer loop
      vertex -27.5951 -43.4829 1
      vertex -51.0939 -6.45466 1
      vertex -32.8273 -39.6814 1
    endloop
  endfacet
  facet normal 0 0 1
    outer loop
      vertex -21.9276 -46.5986 1
      vertex -51.0939 -6.45466 1
      vertex -27.5951 -43.4829 1
    endloop
  endfacet
  facet normal 0 0 1
    outer loop
      vertex -15.9144 -48.9794 1
      vertex -51.0939 -6.45466 1
      vertex -21.9276 -46.5986 1
    endloop
  endfacet
  facet normal 0 0 1
    outer loop
      vertex -9.65014 -50.5878 1
      vertex -51.0939 -6.45466 1
      vertex -15.9144 -48.9794 1
    endloop
  endfacet
  facet normal 0 0 1
    outer loop
      vertex -3.23371 -51.3984 1
      vertex -51.0939 -6.45466 1
      vertex -9.65014 -50.5878 1
    endloop
  endfacet
  facet normal 0 0 1
    outer loop
      vertex 3.23371 -51.3984 1
      vertex -51.0939 -6.45466 1
      vertex -3.23371 -51.3984 1
    endloop
  endfacet
  facet normal 0 0 1
    outer loop
      vertex 9.65014 -50.5878 1
      vertex -51.0939 -6.45466 1
      vertex 3.23371 -51.3984 1
    endloop
  endfacet
  facet normal 0 0 1
    outer loop
      vertex 15.9144 -48.9794 1
      vertex -51.0939 -6.45466 1
      vertex 9.65014 -50.5878 1
    endloop
  endfacet
  facet normal 0 0 1
    outer loop
      vertex 21.9276 -46.5986 1
      vertex -51.0939 -6.45466 1
      vertex 15.9144 -48.9794 1
    endloop
  endfacet
  facet normal 0 0 1
    outer loop
      vertex 27.5951 -43.4829 1
      vertex -51.0939 -6.45466 1
      vertex 21.9276 -46.5986 1
    endloop
  endfacet
  facet normal 0 0 1
    outer loop
      vertex 32.8273 -39.6814 1
      vertex -51.0939 -6.45466 1
      vertex 27.5951 -43.4829 1
    endloop
  endfacet
  facet normal 0 0 1
    outer loop
      vertex 37.5419 -35.2542 1
      vertex -51.0939 -6.45466 1
      vertex 32.8273 -39.6814 1
    endloop
  endfacet
  facet normal 0 0 1
    outer loop
      vertex 41.6644 -30.2709 1
      vertex -51.0939 -6.45466 1
      vertex 37.5419 -35.2542 1
    endloop
  endfacet
  facet normal 0 0 1
    outer loop
      vertex 45.1298 -24.8103 1
      vertex -51.0939 -6.45466 1
      vertex 41.6644 -30.2709 1
    endloop
  endfacet
  facet normal 0 0 1
    outer loop
      vertex 47.8835 -18.9584 1
      vertex -51.0939 -6.45466 1
      vertex 45.1298 -24.8103 1
    endloop
  endfacet
  facet normal 0 0 1
    outer loop
      vertex 49.882 -12.8075 1
      vertex -51.0939 -6.45466 1
      vertex 47.8835 -18.9584 1
    endloop
  endfacet
  facet normal 0 0 1
    outer loop
      vertex 51.0939 -6.45466 1
      vertex -51.0939 -6.45466 1
      vertex 49.882 -12.8075 1
    endloop
  endfacet
  facet normal 0 0 1
    outer loop
      vertex 51.5 0 1
      vertex -51.0939 -6.45466 1
      vertex 51.0939 -6.45466 1
    endloop
  endfacet
  facet normal 0 0 1
    outer loop
      vertex 0.156976 -2.49507 1
      vertex -51.0939 -6.45466 1
      vertex 51.5 0 1
    endloop
  endfacet
  facet normal 0 0 1
    outer loop
      vertex 0.156976 -2.49507 1
      vertex -0.156976 -2.49507 1
      vertex -51.0939 -6.45466 1
    endloop
  endfacet
  facet normal 0 0 1
    outer loop
      vertex 47.8835 18.9584 1
      vertex -51.0939 -6.45466 1
      vertex 49.882 12.8075 1
    endloop
  endfacet
  facet normal 0 0 1
    outer loop
      vertex 45.1298 24.8103 1
      vertex -51.0939 -6.45466 1
      vertex 47.8835 18.9584 1
    endloop
  endfacet
  facet normal 0 0 1
    outer loop
      vertex 41.6644 30.2709 1
      vertex -51.0939 -6.45466 1
      vertex 45.1298 24.8103 1
    endloop
  endfacet
  facet normal 0 0 1
    outer loop
      vertex 37.5419 35.2542 1
      vertex -51.0939 -6.45466 1
      vertex 41.6644 30.2709 1
    endloop
  endfacet
  facet normal 0 0 1
    outer loop
      vertex 32.8273 39.6814 1
      vertex -51.0939 -6.45466 1
      vertex 37.5419 35.2542 1
    endloop
  endfacet
  facet normal 0 0 1
    outer loop
      vertex 27.5951 43.4829 1
      vertex -51.0939 -6.45466 1
      vertex 32.8273 39.6814 1
    endloop
  endfacet
  facet normal 0 0 1
    outer loop
      vertex 21.9276 46.5986 1
      vertex -51.0939 -6.45466 1
      vertex 27.5951 43.4829 1
    endloop
  endfacet
  facet normal 0 0 1
    outer loop
      vertex 15.9144 48.9794 1
      vertex -51.0939 -6.45466 1
      vertex 21.9276 46.5986 1
    endloop
  endfacet
  facet normal 0 0 1
    outer loop
      vertex 9.65014 50.5878 1
      vertex -51.0939 -6.45466 1
      vertex 15.9144 48.9794 1
    endloop
  endfacet
  facet normal 0 0 1
    outer loop
      vertex 3.23371 51.3984 1
      vertex -51.0939 -6.45466 1
      vertex 9.65014 50.5878 1
    endloop
  endfacet
  facet normal 0 0 1
    outer loop
      vertex -3.23371 51.3984 1
      vertex -51.0939 -6.45466 1
      vertex 3.23371 51.3984 1
    endloop
  endfacet
  facet normal 0 0 1
    outer loop
      vertex -9.65014 50.5878 1
      vertex -51.0939 -6.45466 1
      vertex -3.23371 51.3984 1
    endloop
  endfacet
  facet normal 0 0 1
    outer loop
      vertex -15.9144 48.9794 1
      vertex -51.0939 -6.45466 1
      vertex -9.65014 50.5878 1
    endloop
  endfacet
  facet normal 0 0 1
    outer loop
      vertex -21.9276 46.5986 1
      vertex -51.0939 -6.45466 1
      vertex -15.9144 48.9794 1
    endloop
  endfacet
  facet normal 0 0 1
    outer loop
      vertex -27.5951 43.4829 1
      vertex -51.0939 -6.45466 1
      vertex -21.9276 46.5986 1
    endloop
  endfacet
  facet normal 0 0 1
    outer loop
      vertex -32.8273 39.6814 1
      vertex -51.0939 -6.45466 1
      vertex -27.5951 43.4829 1
    endloop
  endfacet
  facet normal 0 0 1
    outer loop
      vertex -37.5419 35.2542 1
      vertex -51.0939 -6.45466 1
      vertex -32.8273 39.6814 1
    endloop
  endfacet
  facet normal 0 0 1
    outer loop
      vertex -41.6644 30.2709 1
      vertex -51.0939 -6.45466 1
      vertex -37.5419 35.2542 1
    endloop
  endfacet
  facet normal 0 0 1
    outer loop
      vertex -45.1298 24.8103 1
      vertex -51.0939 -6.45466 1
      vertex -41.6644 30.2709 1
    endloop
  endfacet
  facet normal 0 0 1
    outer loop
      vertex -47.8835 18.9584 1
      vertex -51.0939 -6.45466 1
      vertex -45.1298 24.8103 1
    endloop
  endfacet
  facet normal 0 0 1
    outer loop
      vertex -49.882 12.8075 1
      vertex -51.0939 -6.45466 1
      vertex -47.8835 18.9584 1
    endloop
  endfacet
  facet normal 0 0 1
    outer loop
      vertex -51.0939 6.45466 1
      vertex -51.0939 -6.45466 1
      vertex -49.882 12.8075 1
    endloop
  endfacet
  facet normal 0 0 1
    outer loop
      vertex -51.5 0 1
      vertex -51.0939 -6.45466 1
      vertex -51.0939 6.45466 1
    endloop
  endfacet
  facet normal 0 0 1
    outer loop
      vertex -2.48029 0.313333 1
      vertex -51.0939 -6.45466 1
      vertex -2.5 0 1
    endloop
  endfacet
  facet normal 0 0 1
    outer loop
      vertex -2.42146 0.621725 1
      vertex -51.0939 -6.45466 1
      vertex -2.48029 0.313333 1
    endloop
  endfacet
  facet normal 0 0 1
    outer loop
      vertex -2.32444 0.920311 1
      vertex -51.0939 -6.45466 1
      vertex -2.42146 0.621725 1
    endloop
  endfacet
  facet normal 0 0 1
    outer loop
      vertex -2.19077 1.20438 1
      vertex -51.0939 -6.45466 1
      vertex -2.32444 0.920311 1
    endloop
  endfacet
  facet normal 0 0 1
    outer loop
      vertex -2.02254 1.46946 1
      vertex -51.0939 -6.45466 1
      vertex -2.19077 1.20438 1
    endloop
  endfacet
  facet normal 0 0 1
    outer loop
      vertex -1.82242 1.71137 1
      vertex -51.0939 -6.45466 1
      vertex -2.02254 1.46946 1
    endloop
  endfacet
  facet normal 0 0 1
    outer loop
      vertex -1.59356 1.92628 1
      vertex -51.0939 -6.45466 1
      vertex -1.82242 1.71137 1
    endloop
  endfacet
  facet normal 0 0 1
    outer loop
      vertex -1.33957 2.11082 1
      vertex -51.0939 -6.45466 1
      vertex -1.59356 1.92628 1
    endloop
  endfacet
  facet normal 0 0 1
    outer loop
      vertex -1.06445 2.26207 1
      vertex -51.0939 -6.45466 1
      vertex -1.33957 2.11082 1
    endloop
  endfacet
  facet normal 0 0 1
    outer loop
      vertex -0.772542 2.37764 1
      vertex -51.0939 -6.45466 1
      vertex -1.06445 2.26207 1
    endloop
  endfacet
  facet normal 0 0 1
    outer loop
      vertex -0.468453 2.45572 1
      vertex -51.0939 -6.45466 1
      vertex -0.772542 2.37764 1
    endloop
  endfacet
  facet normal 0 0 1
    outer loop
      vertex -0.156976 2.49507 1
      vertex 0.156976 2.49507 1
      vertex 49.882 12.8075 1
    endloop
  endfacet
  facet normal 0 0 1
    outer loop
      vertex 49.882 12.8075 1
      vertex -51.0939 -6.45466 1
      vertex -0.468453 2.45572 1
    endloop
  endfacet
  facet normal 0 0 1
    outer loop
      vertex 0.156976 2.49507 1
      vertex 0.468453 2.45572 1
      vertex 49.882 12.8075 1
    endloop
  endfacet
  facet normal 0 0 1
    outer loop
      vertex 0.468453 2.45572 1
      vertex 0.772542 2.37764 1
      vertex 49.882 12.8075 1
    endloop
  endfacet
  facet normal 0 0 1
    outer loop
      vertex 0.772542 2.37764 1
      vertex 1.06445 2.26207 1
      vertex 49.882 12.8075 1
    endloop
  endfacet
  facet normal 0 0 1
    outer loop
      vertex 1.06445 2.26207 1
      vertex 1.33957 2.11082 1
      vertex 49.882 12.8075 1
    endloop
  endfacet
  facet normal 0 0 1
    outer loop
      vertex 1.33957 2.11082 1
      vertex 1.59356 1.92628 1
      vertex 49.882 12.8075 1
    endloop
  endfacet
  facet normal 0 0 1
    outer loop
      vertex 1.59356 1.92628 1
      vertex 1.82242 1.71137 1
      vertex 49.882 12.8075 1
    endloop
  endfacet
  facet normal 0 0 1
    outer loop
      vertex 1.82242 1.71137 1
      vertex 2.02254 1.46946 1
      vertex 49.882 12.8075 1
    endloop
  endfacet
  facet normal 0 0 1
    outer loop
      vertex 2.02254 1.46946 1
      vertex 2.19077 1.20438 1
      vertex 49.882 12.8075 1
    endloop
  endfacet
  facet normal 0 0 1
    outer loop
      vertex 2.19077 1.20438 1
      vertex 2.32444 0.920311 1
      vertex 49.882 12.8075 1
    endloop
  endfacet
  facet normal 0 0 1
    outer loop
      vertex 49.882 12.8075 1
      vertex 2.32444 0.920311 1
      vertex 51.0939 6.45466 1
    endloop
  endfacet
  facet normal 0 0 1
    outer loop
      vertex 2.32444 0.920311 1
      vertex 2.42146 0.621725 1
      vertex 51.0939 6.45466 1
    endloop
  endfacet
  facet normal 0 0 1
    outer loop
      vertex 51.0939 6.45466 1
      vertex 2.48029 0.313333 1
      vertex 51.5 0 1
    endloop
  endfacet
  facet normal 0 0 1
    outer loop
      vertex 2.48029 0.313333 1
      vertex 2.5 0 1
      vertex 51.5 0 1
    endloop
  endfacet
  facet normal 0 0 1
    outer loop
      vertex 2.5 0 1
      vertex 2.48029 -0.313333 1
      vertex 51.5 0 1
    endloop
  endfacet
  facet normal 0 0 1
    outer loop
      vertex 2.48029 -0.313333 1
      vertex 2.42146 -0.621725 1
      vertex 51.5 0 1
    endloop
  endfacet
  facet normal 0 0 1
    outer loop
      vertex 2.42146 -0.621725 1
      vertex 2.32444 -0.920311 1
      vertex 51.5 0 1
    endloop
  endfacet
  facet normal 0 0 1
    outer loop
      vertex 2.32444 -0.920311 1
      vertex 2.19077 -1.20438 1
      vertex 51.5 0 1
    endloop
  endfacet
  facet normal 0 0 1
    outer loop
      vertex 2.19077 -1.20438 1
      vertex 2.02254 -1.46946 1
      vertex 51.5 0 1
    endloop
  endfacet
  facet normal 0 0 1
    outer loop
      vertex 2.02254 -1.46946 1
      vertex 1.82242 -1.71137 1
      vertex 51.5 0 1
    endloop
  endfacet
  facet normal 0 0 1
    outer loop
      vertex 1.82242 -1.71137 1
      vertex 1.59356 -1.92628 1
      vertex 51.5 0 1
    endloop
  endfacet
  facet normal 0 0 1
    outer loop
      vertex 1.59356 -1.92628 1
      vertex 1.33957 -2.11082 1
      vertex 51.5 0 1
    endloop
  endfacet
  facet normal 0 0 1
    outer loop
      vertex 1.33957 -2.11082 1
      vertex 1.06445 -2.26207 1
      vertex 51.5 0 1
    endloop
  endfacet
  facet normal 0 0 1
    outer loop
      vertex 1.06445 -2.26207 1
      vertex 0.772542 -2.37764 1
      vertex 51.5 0 1
    endloop
  endfacet
  facet normal 0 0 1
    outer loop
      vertex 0.772542 -2.37764 1
      vertex 0.468453 -2.45572 1
      vertex 51.5 0 1
    endloop
  endfacet
  facet normal 0 0 1
    outer loop
      vertex 0.468453 -2.45572 1
      vertex 0.156976 -2.49507 1
      vertex 51.5 0 1
    endloop
  endfacet
  facet normal 0 0 1
    outer loop
      vertex -0.156976 -2.49507 1
      vertex -0.468453 -2.45572 1
      vertex -51.0939 -6.45466 1
    endloop
  endfacet
  facet normal 0 0 1
    outer loop
      vertex -0.468453 -2.45572 1
      vertex -0.772542 -2.37764 1
      vertex -51.0939 -6.45466 1
    endloop
  endfacet
  facet normal 0 0 1
    outer loop
      vertex -0.772542 -2.37764 1
      vertex -1.06445 -2.26207 1
      vertex -51.0939 -6.45466 1
    endloop
  endfacet
  facet normal 0 0 1
    outer loop
      vertex -1.06445 -2.26207 1
      vertex -1.33957 -2.11082 1
      vertex -51.0939 -6.45466 1
    endloop
  endfacet
  facet normal 0 0 1
    outer loop
      vertex -1.33957 -2.11082 1
      vertex -1.59356 -1.92628 1
      vertex -51.0939 -6.45466 1
    endloop
  endfacet
  facet normal 0 0 1
    outer loop
      vertex -1.59356 -1.92628 1
      vertex -1.82242 -1.71137 1
      vertex -51.0939 -6.45466 1
    endloop
  endfacet
  facet normal 0 0 1
    outer loop
      vertex -1.82242 -1.71137 1
      vertex -2.02254 -1.46946 1
      vertex -51.0939 -6.45466 1
    endloop
  endfacet
  facet normal 0 0 1
    outer loop
      vertex -2.02254 -1.46946 1
      vertex -2.19077 -1.20438 1
      vertex -51.0939 -6.45466 1
    endloop
  endfacet
  facet normal 0 0 1
    outer loop
      vertex -2.19077 -1.20438 1
      vertex -2.32444 -0.920311 1
      vertex -51.0939 -6.45466 1
    endloop
  endfacet
  facet normal 0 0 1
    outer loop
      vertex -2.32444 -0.920311 1
      vertex -2.42146 -0.621725 1
      vertex -51.0939 -6.45466 1
    endloop
  endfacet
  facet normal 0 0 1
    outer loop
      vertex -2.42146 -0.621725 1
      vertex -2.48029 -0.313333 1
      vertex -51.0939 -6.45466 1
    endloop
  endfacet
  facet normal 0 0 1
    outer loop
      vertex -2.5 0 1
      vertex -51.0939 -6.45466 1
      vertex -2.48029 -0.313333 1
    endloop
  endfacet
  facet normal 0 0 1
    outer loop
      vertex -0.468453 2.45572 1
      vertex -0.156976 2.49507 1
      vertex 49.882 12.8075 1
    endloop
  endfacet
  facet normal 0 0 1
    outer loop
      vertex 2.42146 0.621725 1
      vertex 2.48029 0.313333 1
      vertex 51.0939 6.45466 1
    endloop
  endfacet
  facet normal 0.982287 0.187381 0
    outer loop
      vertex -51.0939 -6.45466 6
      vertex -49.882 -12.8075 6
      vertex -49.882 -12.8075 1
    endloop
  endfacet
  facet normal 0.982287 0.187381 0
    outer loop
      vertex -51.0939 -6.45466 1
      vertex -51.0939 -6.45466 6
      vertex -49.882 -12.8075 1
    endloop
  endfacet
  facet normal 0.998027 0.0627905 0
    outer loop
      vertex -51.5 0 6
      vertex -51.0939 -6.45466 6
      vertex -51.0939 -6.45466 1
    endloop
  endfacet
  facet normal 0.998027 0.0627905 0
    outer loop
      vertex -51.5 0 1
      vertex -51.5 0 6
      vertex -51.0939 -6.45466 1
    endloop
  endfacet
  facet normal 0.951057 0.309017 0
    outer loop
      vertex -49.882 -12.8075 6
      vertex -47.8835 -18.9584 6
      vertex -47.8835 -18.9584 1
    endloop
  endfacet
  facet normal 0.951057 0.309017 0
    outer loop
      vertex -49.882 -12.8075 1
      vertex -49.882 -12.8075 6
      vertex -47.8835 -18.9584 1
    endloop
  endfacet
  facet normal 0.904827 0.425779 0
    outer loop
      vertex -47.8835 -18.9584 6
      vertex -45.1298 -24.8103 6
      vertex -45.1298 -24.8103 1
    endloop
  endfacet
  facet normal 0.904827 0.425779 0
    outer loop
      vertex -47.8835 -18.9584 1
      vertex -47.8835 -18.9584 6
      vertex -45.1298 -24.8103 1
    endloop
  endfacet
  facet normal 0.844328 0.535827 0
    outer loop
      vertex -45.1298 -24.8103 6
      vertex -41.6644 -30.2709 6
      vertex -41.6644 -30.2709 1
    endloop
  endfacet
  facet normal 0.844328 0.535827 0
    outer loop
      vertex -45.1298 -24.8103 1
      vertex -45.1298 -24.8103 6
      vertex -41.6644 -30.2709 1
    endloop
  endfacet
  facet normal 0.770513 0.637424 0
    outer loop
      vertex -41.6644 -30.2709 6
      vertex -37.5419 -35.2542 6
      vertex -37.5419 -35.2542 1
    endloop
  endfacet
  facet normal 0.770513 0.637424 0
    outer loop
      vertex -41.6644 -30.2709 1
      vertex -41.6644 -30.2709 6
      vertex -37.5419 -35.2542 1
    endloop
  endfacet
  facet normal 0.684547 0.728969 0
    outer loop
      vertex -32.8273 -39.6814 6
      vertex -32.8273 -39.6814 1
      vertex -37.5419 -35.2542 6
    endloop
  endfacet
  facet normal 0.684547 0.728969 0
    outer loop
      vertex -37.5419 -35.2542 6
      vertex -32.8273 -39.6814 1
      vertex -37.5419 -35.2542 1
    endloop
  endfacet
  facet normal 0.587785 0.809017 0
    outer loop
      vertex -27.5951 -43.4829 6
      vertex -27.5951 -43.4829 1
      vertex -32.8273 -39.6814 6
    endloop
  endfacet
  facet normal 0.587785 0.809017 0
    outer loop
      vertex -32.8273 -39.6814 6
      vertex -27.5951 -43.4829 1
      vertex -32.8273 -39.6814 1
    endloop
  endfacet
  facet normal 0.481754 0.876307 0
    outer loop
      vertex -21.9276 -46.5986 6
      vertex -21.9276 -46.5986 1
      vertex -27.5951 -43.4829 6
    endloop
  endfacet
  facet normal 0.481754 0.876307 0
    outer loop
      vertex -27.5951 -43.4829 6
      vertex -21.9276 -46.5986 1
      vertex -27.5951 -43.4829 1
    endloop
  endfacet
  facet normal 0.368125 0.929776 0
    outer loop
      vertex -15.9144 -48.9794 6
      vertex -15.9144 -48.9794 1
      vertex -21.9276 -46.5986 6
    endloop
  endfacet
  facet normal 0.368125 0.929776 0
    outer loop
      vertex -21.9276 -46.5986 6
      vertex -15.9144 -48.9794 1
      vertex -21.9276 -46.5986 1
    endloop
  endfacet
  facet normal 0.24869 0.968583 0
    outer loop
      vertex -9.65014 -50.5878 6
      vertex -9.65014 -50.5878 1
      vertex -15.9144 -48.9794 6
    endloop
  endfacet
  facet normal 0.24869 0.968583 0
    outer loop
      vertex -15.9144 -48.9794 6
      vertex -9.65014 -50.5878 1
      vertex -15.9144 -48.9794 1
    endloop
  endfacet
  facet normal 0.125333 0.992115 0
    outer loop
      vertex -3.23371 -51.3984 6
      vertex -3.23371 -51.3984 1
      vertex -9.65014 -50.5878 6
    endloop
  endfacet
  facet normal 0.125333 0.992115 0
    outer loop
      vertex -9.65014 -50.5878 6
      vertex -3.23371 -51.3984 1
      vertex -9.65014 -50.5878 1
    endloop
  endfacet
  facet normal 0 1 0
    outer loop
      vertex 3.23371 -51.3984 6
      vertex 3.23371 -51.3984 1
      vertex -3.23371 -51.3984 6
    endloop
  endfacet
  facet normal 0 1 0
    outer loop
      vertex -3.23371 -51.3984 6
      vertex 3.23371 -51.3984 1
      vertex -3.23371 -51.3984 1
    endloop
  endfacet
  facet normal -0.125333 0.992115 0
    outer loop
      vertex 9.65014 -50.5878 6
      vertex 9.65014 -50.5878 1
      vertex 3.23371 -51.3984 6
    endloop
  endfacet
  facet normal -0.125333 0.992115 0
    outer loop
      vertex 3.23371 -51.3984 6
      vertex 9.65014 -50.5878 1
      vertex 3.23371 -51.3984 1
    endloop
  endfacet
  facet normal -0.24869 0.968583 0
    outer loop
      vertex 15.9144 -48.9794 6
      vertex 15.9144 -48.9794 1
      vertex 9.65014 -50.5878 6
    endloop
  endfacet
  facet normal -0.24869 0.968583 0
    outer loop
      vertex 9.65014 -50.5878 6
      vertex 15.9144 -48.9794 1
      vertex 9.65014 -50.5878 1
    endloop
  endfacet
  facet normal -0.368125 0.929776 0
    outer loop
      vertex 21.9276 -46.5986 6
      vertex 21.9276 -46.5986 1
      vertex 15.9144 -48.9794 6
    endloop
  endfacet
  facet normal -0.368125 0.929776 0
    outer loop
      vertex 15.9144 -48.9794 6
      vertex 21.9276 -46.5986 1
      vertex 15.9144 -48.9794 1
    endloop
  endfacet
  facet normal -0.481754 0.876307 0
    outer loop
      vertex 27.5951 -43.4829 6
      vertex 27.5951 -43.4829 1
      vertex 21.9276 -46.5986 6
    endloop
  endfacet
  facet normal -0.481754 0.876307 0
    outer loop
      vertex 21.9276 -46.5986 6
      vertex 27.5951 -43.4829 1
      vertex 21.9276 -46.5986 1
    endloop
  endfacet
  facet normal -0.587785 0.809017 0
    outer loop
      vertex 32.8273 -39.6814 6
      vertex 32.8273 -39.6814 1
      vertex 27.5951 -43.4829 6
    endloop
  endfacet
  facet normal -0.587785 0.809017 0
    outer loop
      vertex 27.5951 -43.4829 6
      vertex 32.8273 -39.6814 1
      vertex 27.5951 -43.4829 1
    endloop
  endfacet
  facet normal -0.684547 0.728969 0
    outer loop
      vertex 37.5419 -35.2542 6
      vertex 37.5419 -35.2542 1
      vertex 32.8273 -39.6814 6
    endloop
  endfacet
  facet normal -0.684547 0.728969 0
    outer loop
      vertex 32.8273 -39.6814 6
      vertex 37.5419 -35.2542 1
      vertex 32.8273 -39.6814 1
    endloop
  endfacet
  facet normal -0.770513 0.637424 0
    outer loop
      vertex 41.6644 -30.2709 6
      vertex 41.6644 -30.2709 1
      vertex 37.5419 -35.2542 6
    endloop
  endfacet
  facet normal -0.770513 0.637424 0
    outer loop
      vertex 37.5419 -35.2542 6
      vertex 41.6644 -30.2709 1
      vertex 37.5419 -35.2542 1
    endloop
  endfacet
  facet normal -0.844328 0.535827 0
    outer loop
      vertex 45.1298 -24.8103 6
      vertex 45.1298 -24.8103 1
      vertex 41.6644 -30.2709 6
    endloop
  endfacet
  facet normal -0.844328 0.535827 0
    outer loop
      vertex 41.6644 -30.2709 6
      vertex 45.1298 -24.8103 1
      vertex 41.6644 -30.2709 1
    endloop
  endfacet
  facet normal -0.904827 0.425779 0
    outer loop
      vertex 47.8835 -18.9584 6
      vertex 47.8835 -18.9584 1
      vertex 45.1298 -24.8103 6
    endloop
  endfacet
  facet normal -0.904827 0.425779 0
    outer loop
      vertex 45.1298 -24.8103 6
      vertex 47.8835 -18.9584 1
      vertex 45.1298 -24.8103 1
    endloop
  endfacet
  facet normal -0.951057 0.309017 0
    outer loop
      vertex 49.882 -12.8075 6
      vertex 49.882 -12.8075 1
      vertex 47.8835 -18.9584 6
    endloop
  endfacet
  facet normal -0.951057 0.309017 0
    outer loop
      vertex 47.8835 -18.9584 6
      vertex 49.882 -12.8075 1
      vertex 47.8835 -18.9584 1
    endloop
  endfacet
  facet normal -0.982287 0.187381 0
    outer loop
      vertex 51.0939 -6.45466 6
      vertex 51.0939 -6.45466 1
      vertex 49.882 -12.8075 6
    endloop
  endfacet
  facet normal -0.982287 0.187381 0
    outer loop
      vertex 49.882 -12.8075 6
      vertex 51.0939 -6.45466 1
      vertex 49.882 -12.8075 1
    endloop
  endfacet
  facet normal -0.998027 0.0627905 0
    outer loop
      vertex 51.5 0 6
      vertex 51.5 0 1
      vertex 51.0939 -6.45466 6
    endloop
  endfacet
  facet normal -0.998027 0.0627905 0
    outer loop
      vertex 51.0939 -6.45466 6
      vertex 51.5 0 1
      vertex 51.0939 -6.45466 1
    endloop
  endfacet
  facet normal -0.998027 -0.0627905 0
    outer loop
      vertex 51.5 0 6
      vertex 51.0939 6.45466 6
      vertex 51.5 0 1
    endloop
  endfacet
  facet normal -0.998027 -0.0627905 0
    outer loop
      vertex 51.5 0 1
      vertex 51.0939 6.45466 6
      vertex 51.0939 6.45466 1
    endloop
  endfacet
  facet normal -0.982287 -0.187381 0
    outer loop
      vertex 51.0939 6.45466 6
      vertex 49.882 12.8075 6
      vertex 51.0939 6.45466 1
    endloop
  endfacet
  facet normal -0.982287 -0.187381 0
    outer loop
      vertex 51.0939 6.45466 1
      vertex 49.882 12.8075 6
      vertex 49.882 12.8075 1
    endloop
  endfacet
  facet normal -0.951057 -0.309017 0
    outer loop
      vertex 49.882 12.8075 6
      vertex 47.8835 18.9584 6
      vertex 49.882 12.8075 1
    endloop
  endfacet
  facet normal -0.951057 -0.309017 0
    outer loop
      vertex 49.882 12.8075 1
      vertex 47.8835 18.9584 6
      vertex 47.8835 18.9584 1
    endloop
  endfacet
  facet normal -0.904827 -0.425779 0
    outer loop
      vertex 47.8835 18.9584 6
      vertex 45.1298 24.8103 6
      vertex 47.8835 18.9584 1
    endloop
  endfacet
  facet normal -0.904827 -0.425779 0
    outer loop
      vertex 47.8835 18.9584 1
      vertex 45.1298 24.8103 6
      vertex 45.1298 24.8103 1
    endloop
  endfacet
  facet normal -0.844328 -0.535827 0
    outer loop
      vertex 45.1298 24.8103 6
      vertex 41.6644 30.2709 6
      vertex 45.1298 24.8103 1
    endloop
  endfacet
  facet normal -0.844328 -0.535827 0
    outer loop
      vertex 45.1298 24.8103 1
      vertex 41.6644 30.2709 6
      vertex 41.6644 30.2709 1
    endloop
  endfacet
  facet normal -0.770513 -0.637424 0
    outer loop
      vertex 41.6644 30.2709 6
      vertex 37.5419 35.2542 6
      vertex 41.6644 30.2709 1
    endloop
  endfacet
  facet normal -0.770513 -0.637424 0
    outer loop
      vertex 41.6644 30.2709 1
      vertex 37.5419 35.2542 6
      vertex 37.5419 35.2542 1
    endloop
  endfacet
  facet normal -0.684547 -0.728969 0
    outer loop
      vertex 37.5419 35.2542 1
      vertex 37.5419 35.2542 6
      vertex 32.8273 39.6814 6
    endloop
  endfacet
  facet normal -0.684547 -0.728969 0
    outer loop
      vertex 32.8273 39.6814 1
      vertex 37.5419 35.2542 1
      vertex 32.8273 39.6814 6
    endloop
  endfacet
  facet normal -0.587785 -0.809017 0
    outer loop
      vertex 32.8273 39.6814 1
      vertex 32.8273 39.6814 6
      vertex 27.5951 43.4829 6
    endloop
  endfacet
  facet normal -0.587785 -0.809017 0
    outer loop
      vertex 27.5951 43.4829 1
      vertex 32.8273 39.6814 1
      vertex 27.5951 43.4829 6
    endloop
  endfacet
  facet normal -0.481754 -0.876307 0
    outer loop
      vertex 27.5951 43.4829 1
      vertex 27.5951 43.4829 6
      vertex 21.9276 46.5986 6
    endloop
  endfacet
  facet normal -0.481754 -0.876307 0
    outer loop
      vertex 21.9276 46.5986 1
      vertex 27.5951 43.4829 1
      vertex 21.9276 46.5986 6
    endloop
  endfacet
  facet normal -0.368125 -0.929776 0
    outer loop
      vertex 21.9276 46.5986 1
      vertex 21.9276 46.5986 6
      vertex 15.9144 48.9794 6
    endloop
  endfacet
  facet normal -0.368125 -0.929776 0
    outer loop
      vertex 15.9144 48.9794 1
      vertex 21.9276 46.5986 1
      vertex 15.9144 48.9794 6
    endloop
  endfacet
  facet normal -0.24869 -0.968583 0
    outer loop
      vertex 15.9144 48.9794 1
      vertex 15.9144 48.9794 6
      vertex 9.65014 50.5878 6
    endloop
  endfacet
  facet normal -0.24869 -0.968583 0
    outer loop
      vertex 9.65014 50.5878 1
      vertex 15.9144 48.9794 1
      vertex 9.65014 50.5878 6
    endloop
  endfacet
  facet normal -0.125333 -0.992115 0
    outer loop
      vertex 9.65014 50.5878 1
      vertex 9.65014 50.5878 6
      vertex 3.23371 51.3984 6
    endloop
  endfacet
  facet normal -0.125333 -0.992115 0
    outer loop
      vertex 3.23371 51.3984 1
      vertex 9.65014 50.5878 1
      vertex 3.23371 51.3984 6
    endloop
  endfacet
  facet normal 0 -1 0
    outer loop
      vertex 3.23371 51.3984 1
      vertex 3.23371 51.3984 6
      vertex -3.23371 51.3984 6
    endloop
  endfacet
  facet normal 0 -1 0
    outer loop
      vertex -3.23371 51.3984 1
      vertex 3.23371 51.3984 1
      vertex -3.23371 51.3984 6
    endloop
  endfacet
  facet normal 0.125333 -0.992115 0
    outer loop
      vertex -3.23371 51.3984 1
      vertex -3.23371 51.3984 6
      vertex -9.65014 50.5878 6
    endloop
  endfacet
  facet normal 0.125333 -0.992115 0
    outer loop
      vertex -9.65014 50.5878 1
      vertex -3.23371 51.3984 1
      vertex -9.65014 50.5878 6
    endloop
  endfacet
  facet normal 0.24869 -0.968583 0
    outer loop
      vertex -9.65014 50.5878 1
      vertex -9.65014 50.5878 6
      vertex -15.9144 48.9794 6
    endloop
  endfacet
  facet normal 0.24869 -0.968583 0
    outer loop
      vertex -15.9144 48.9794 1
      vertex -9.65014 50.5878 1
      vertex -15.9144 48.9794 6
    endloop
  endfacet
  facet normal 0.368125 -0.929776 0
    outer loop
      vertex -15.9144 48.9794 1
      vertex -15.9144 48.9794 6
      vertex -21.9276 46.5986 6
    endloop
  endfacet
  facet normal 0.368125 -0.929776 0
    outer loop
      vertex -21.9276 46.5986 1
      vertex -15.9144 48.9794 1
      vertex -21.9276 46.5986 6
    endloop
  endfacet
  facet normal 0.481754 -0.876307 0
    outer loop
      vertex -21.9276 46.5986 1
      vertex -21.9276 46.5986 6
      vertex -27.5951 43.4829 6
    endloop
  endfacet
  facet normal 0.481754 -0.876307 0
    outer loop
      vertex -27.5951 43.4829 1
      vertex -21.9276 46.5986 1
      vertex -27.5951 43.4829 6
    endloop
  endfacet
  facet normal 0.587785 -0.809017 0
    outer loop
      vertex -27.5951 43.4829 1
      vertex -27.5951 43.4829 6
      vertex -32.8273 39.6814 6
    endloop
  endfacet
  facet normal 0.587785 -0.809017 0
    outer loop
      vertex -32.8273 39.6814 1
      vertex -27.5951 43.4829 1
      vertex -32.8273 39.6814 6
    endloop
  endfacet
  facet normal 0.684547 -0.728969 0
    outer loop
      vertex -32.8273 39.6814 1
      vertex -32.8273 39.6814 6
      vertex -37.5419 35.2542 6
    endloop
  endfacet
  facet normal 0.684547 -0.728969 0
    outer loop
      vertex -37.5419 35.2542 1
      vertex -32.8273 39.6814 1
      vertex -37.5419 35.2542 6
    endloop
  endfacet
  facet normal 0.770513 -0.637424 0
    outer loop
      vertex -37.5419 35.2542 1
      vertex -37.5419 35.2542 6
      vertex -41.6644 30.2709 6
    endloop
  endfacet
  facet normal 0.770513 -0.637424 0
    outer loop
      vertex -41.6644 30.2709 1
      vertex -37.5419 35.2542 1
      vertex -41.6644 30.2709 6
    endloop
  endfacet
  facet normal 0.844328 -0.535827 0
    outer loop
      vertex -41.6644 30.2709 1
      vertex -41.6644 30.2709 6
      vertex -45.1298 24.8103 6
    endloop
  endfacet
  facet normal 0.844328 -0.535827 0
    outer loop
      vertex -45.1298 24.8103 1
      vertex -41.6644 30.2709 1
      vertex -45.1298 24.8103 6
    endloop
  endfacet
  facet normal 0.904827 -0.425779 0
    outer loop
      vertex -45.1298 24.8103 1
      vertex -45.1298 24.8103 6
      vertex -47.8835 18.9584 6
    endloop
  endfacet
  facet normal 0.904827 -0.425779 0
    outer loop
      vertex -47.8835 18.9584 1
      vertex -45.1298 24.8103 1
      vertex -47.8835 18.9584 6
    endloop
  endfacet
  facet normal 0.951057 -0.309017 0
    outer loop
      vertex -47.8835 18.9584 1
      vertex -47.8835 18.9584 6
      vertex -49.882 12.8075 6
    endloop
  endfacet
  facet normal 0.951057 -0.309017 0
    outer loop
      vertex -49.882 12.8075 1
      vertex -47.8835 18.9584 1
      vertex -49.882 12.8075 6
    endloop
  endfacet
  facet normal 0.982287 -0.187381 0
    outer loop
      vertex -49.882 12.8075 1
      vertex -49.882 12.8075 6
      vertex -51.0939 6.45466 6
    endloop
  endfacet
  facet normal 0.982287 -0.187381 0
    outer loop
      vertex -51.0939 6.45466 1
      vertex -49.882 12.8075 1
      vertex -51.0939 6.45466 6
    endloop
  endfacet
  facet normal 0.998027 -0.0627905 0
    outer loop
      vertex -51.0939 6.45466 1
      vertex -51.0939 6.45466 6
      vertex -51.5 0 6
    endloop
  endfacet
  facet normal 0.998027 -0.0627905 0
    outer loop
      vertex -51.5 0 1
      vertex -51.0939 6.45466 1
      vertex -51.5 0 6
    endloop
  endfacet
endsolid OpenSCAD_Model
