solid OpenSCAD_Model
  facet normal -1 -0 -0
    outer loop
      vertex -27.1648 -48.8017 -3.89037
      vertex -27.1648 -48.8017 4.28965
      vertex -27.1648 48.8017 -3.89037
    endloop
  endfacet
  facet normal -1 0 0
    outer loop
      vertex -27.1648 -40.9696 3.89037
      vertex -27.1648 -48.8017 4.28965
      vertex -27.1648 -48.4843 5.47428
    endloop
  endfacet
  facet normal -1 0 0
    outer loop
      vertex -27.1648 48.8017 -3.89037
      vertex -27.1648 -48.8017 4.28965
      vertex -27.1648 -40.9696 3.89037
    endloop
  endfacet
  facet normal -1 0 0
    outer loop
      vertex -27.1648 41.2272 3.89037
      vertex -27.1648 48.8017 -3.89037
      vertex -27.1648 -40.9696 3.89037
    endloop
  endfacet
  facet normal -1 0 0
    outer loop
      vertex -27.1648 48.8017 -3.89037
      vertex -27.1648 41.2272 3.89037
      vertex -27.1648 46.5417 5.8247
    endloop
  endfacet
  facet normal -1 0 0
    outer loop
      vertex -27.1648 48.8017 -3.89037
      vertex -27.1648 46.5417 5.8247
      vertex -27.1648 48.1451 5.8247
    endloop
  endfacet
  facet normal -1 0 0
    outer loop
      vertex -27.1648 48.8017 -3.89037
      vertex -27.1648 48.1451 5.8247
      vertex -27.1648 48.8017 4.02074
    endloop
  endfacet
  facet normal -1 0 0
    outer loop
      vertex -27.1648 -40.9696 3.89037
      vertex -27.1648 -48.4843 5.47428
      vertex -27.1648 -46.8809 5.47428
    endloop
  endfacet
  facet normal -0.62349 -0.781831 0
    outer loop
      vertex -27.1648 -48.8017 4.28965
      vertex -27.1648 -48.8017 -3.89037
      vertex -25.9112 -49.8014 -3.89037
    endloop
  endfacet
  facet normal -0.62349 -0.781831 0
    outer loop
      vertex -25.9112 -49.8014 4.28965
      vertex -27.1648 -48.8017 4.28965
      vertex -25.9112 -49.8014 -3.89037
    endloop
  endfacet
  facet normal -0.463213 -0.580851 -0.669362
    outer loop
      vertex -25.9112 -49.8014 -3.89037
      vertex -27.1648 -48.8017 -3.89037
      vertex -25.6703 -48.7462 -4.97276
    endloop
  endfacet
  facet normal -0.463213 -0.580851 -0.669362
    outer loop
      vertex -25.6703 -48.7462 -4.97276
      vertex -27.1648 -48.8017 -3.89037
      vertex -26.1896 -48.3321 -4.97276
    endloop
  endfacet
  facet normal -0.742936 -0 -0.669362
    outer loop
      vertex -27.1648 -48.8017 -3.89037
      vertex -27.1648 48.8017 -3.89037
      vertex -26.1896 -48.3321 -4.97276
    endloop
  endfacet
  facet normal -0.742936 -0 -0.669362
    outer loop
      vertex -26.1896 -48.3321 -4.97276
      vertex -27.1648 48.8017 -3.89037
      vertex -26.1896 48.3321 -4.97276
    endloop
  endfacet
  facet normal -0.62349 0.781831 0
    outer loop
      vertex -27.1648 48.8017 -3.89037
      vertex -27.1648 48.8017 4.02074
      vertex -25.9112 49.8014 -3.89037
    endloop
  endfacet
  facet normal -0.62349 0.781831 0
    outer loop
      vertex -25.9112 49.8014 -3.89037
      vertex -27.1648 48.8017 4.02074
      vertex -25.9112 49.8014 4.02074
    endloop
  endfacet
  facet normal -0.463213 0.580851 -0.669362
    outer loop
      vertex -26.1896 48.3321 -4.97276
      vertex -27.1648 48.8017 -3.89037
      vertex -25.9112 49.8014 -3.89037
    endloop
  endfacet
  facet normal -0.599682 0.751978 0.273698
    outer loop
      vertex -27.1648 48.1451 5.8247
      vertex -25.9112 49.1448 5.8247
      vertex -27.1648 48.8017 4.02074
    endloop
  endfacet
  facet normal -0.599682 0.751978 0.273698
    outer loop
      vertex -27.1648 48.8017 4.02074
      vertex -25.9112 49.1448 5.8247
      vertex -25.9112 49.8014 4.02074
    endloop
  endfacet
  facet normal -0.463213 0.580851 0.669362
    outer loop
      vertex -25.9112 49.1448 5.8247
      vertex -27.1648 48.1451 5.8247
      vertex -25.6703 48.0896 6.90709
    endloop
  endfacet
  facet normal -0.463213 0.580851 0.669362
    outer loop
      vertex -25.6703 48.0896 6.90709
      vertex -27.1648 48.1451 5.8247
      vertex -26.1896 47.6755 6.90709
    endloop
  endfacet
  facet normal -0.742936 0 0.669362
    outer loop
      vertex -27.1648 46.5417 5.8247
      vertex -26.1896 47.0113 6.90709
      vertex -27.1648 48.1451 5.8247
    endloop
  endfacet
  facet normal -0.742936 0 0.669362
    outer loop
      vertex -27.1648 48.1451 5.8247
      vertex -26.1896 47.0113 6.90709
      vertex -26.1896 47.6755 6.90709
    endloop
  endfacet
  facet normal -0.659896 -0.256979 0.706045
    outer loop
      vertex -27.1648 46.5417 5.8247
      vertex -27.1648 41.2272 3.89037
      vertex -26.1896 41.6968 4.97276
    endloop
  endfacet
  facet normal -0.659896 -0.256979 0.706045
    outer loop
      vertex -26.1896 47.0113 6.90709
      vertex -27.1648 46.5417 5.8247
      vertex -26.1896 41.6968 4.97276
    endloop
  endfacet
  facet normal -0.742936 0 0.669362
    outer loop
      vertex -27.1648 -40.9696 3.89037
      vertex -26.1896 -41.4393 4.97276
      vertex -27.1648 41.2272 3.89037
    endloop
  endfacet
  facet normal -0.742936 0 0.669362
    outer loop
      vertex -27.1648 41.2272 3.89037
      vertex -26.1896 -41.4393 4.97276
      vertex -26.1896 41.6968 4.97276
    endloop
  endfacet
  facet normal -0.687778 0.187882 0.701186
    outer loop
      vertex -27.1648 -40.9696 3.89037
      vertex -27.1648 -46.8809 5.47428
      vertex -26.1896 -47.3505 6.55667
    endloop
  endfacet
  facet normal -0.687778 0.187882 0.701186
    outer loop
      vertex -26.1896 -41.4393 4.97276
      vertex -27.1648 -40.9696 3.89037
      vertex -26.1896 -47.3505 6.55667
    endloop
  endfacet
  facet normal -0.742936 0 0.669362
    outer loop
      vertex -27.1648 -48.4843 5.47428
      vertex -26.1896 -48.0147 6.55667
      vertex -27.1648 -46.8809 5.47428
    endloop
  endfacet
  facet normal -0.742936 0 0.669362
    outer loop
      vertex -27.1648 -46.8809 5.47428
      vertex -26.1896 -48.0147 6.55667
      vertex -26.1896 -47.3505 6.55667
    endloop
  endfacet
  facet normal -0.463213 -0.580851 0.669362
    outer loop
      vertex -26.1896 -48.0147 6.55667
      vertex -27.1648 -48.4843 5.47428
      vertex -25.9112 -49.484 5.47428
    endloop
  endfacet
  facet normal -0.610243 -0.76522 0.20504
    outer loop
      vertex -27.1648 -48.4843 5.47428
      vertex -27.1648 -48.8017 4.28965
      vertex -25.9112 -49.8014 4.28965
    endloop
  endfacet
  facet normal -0.610243 -0.76522 0.20504
    outer loop
      vertex -25.9112 -49.484 5.47428
      vertex -27.1648 -48.4843 5.47428
      vertex -25.9112 -49.8014 4.28965
    endloop
  endfacet
  facet normal 1.3374e-019 -0.965926 0.258819
    outer loop
      vertex -25.9112 -49.484 5.47428
      vertex -25.9112 -49.8014 4.28965
      vertex 25.0888 -49.8014 4.28965
    endloop
  endfacet
  facet normal 0 -0.965926 0.258819
    outer loop
      vertex 25.0888 -49.484 5.47428
      vertex -25.9112 -49.484 5.47428
      vertex 25.0888 -49.8014 4.28965
    endloop
  endfacet
  facet normal 0 -1 0
    outer loop
      vertex -25.9112 -49.8014 4.28965
      vertex -25.9112 -49.8014 -3.89037
      vertex 25.0888 -49.8014 -3.89037
    endloop
  endfacet
  facet normal 0 -1 0
    outer loop
      vertex 25.0888 -49.8014 4.28965
      vertex -25.9112 -49.8014 4.28965
      vertex 25.0888 -49.8014 -3.89037
    endloop
  endfacet
  facet normal 0 -0.716026 -0.698074
    outer loop
      vertex 25.0888 -49.8014 -3.89037
      vertex -25.9112 -49.8014 -3.89037
      vertex -25.6703 -48.7462 -4.97276
    endloop
  endfacet
  facet normal 0 -0.716026 -0.698074
    outer loop
      vertex 25.3297 -48.7462 -4.97276
      vertex 25.0888 -49.8014 -3.89037
      vertex -25.6703 -48.7462 -4.97276
    endloop
  endfacet
  facet normal -0 -0 -1
    outer loop
      vertex -26.1896 -48.3321 -4.97276
      vertex -26.1896 48.3321 -4.97276
      vertex -25.6703 -48.7462 -4.97276
    endloop
  endfacet
  facet normal 0 0 -1
    outer loop
      vertex -25.6703 -48.7462 -4.97276
      vertex -26.1896 48.3321 -4.97276
      vertex -25.6703 48.7462 -4.97276
    endloop
  endfacet
  facet normal 0 -0 -1
    outer loop
      vertex -1.80194 0.867767 -4.97276
      vertex -25.6703 48.7462 -4.97276
      vertex 25.3297 48.7462 -4.97276
    endloop
  endfacet
  facet normal 0 0 -1
    outer loop
      vertex 1.24698 1.56366 -4.97276
      vertex 25.9772 48.5984 -4.97276
      vertex 26.2654 48 -4.97276
    endloop
  endfacet
  facet normal -0 0 -1
    outer loop
      vertex 1.24698 -1.56366 -4.97276
      vertex 26.2654 48 -4.97276
      vertex 26.2654 -48 -4.97276
    endloop
  endfacet
  facet normal 0 0 -1
    outer loop
      vertex -25.6703 -48.7462 -4.97276
      vertex 26.2654 -48 -4.97276
      vertex 25.9772 -48.5984 -4.97276
    endloop
  endfacet
  facet normal -0 0 -1
    outer loop
      vertex -25.6703 -48.7462 -4.97276
      vertex 25.9772 -48.5984 -4.97276
      vertex 25.3297 -48.7462 -4.97276
    endloop
  endfacet
  facet normal 0 -0 -1
    outer loop
      vertex -25.6703 -48.7462 -4.97276
      vertex -25.6703 48.7462 -4.97276
      vertex -1.80194 0.867767 -4.97276
    endloop
  endfacet
  facet normal 0 -0 -1
    outer loop
      vertex -0.445042 1.94986 -4.97276
      vertex -1.80194 0.867767 -4.97276
      vertex 25.3297 48.7462 -4.97276
    endloop
  endfacet
  facet normal 0 0 -1
    outer loop
      vertex -25.6703 -48.7462 -4.97276
      vertex -1.80194 0.867767 -4.97276
      vertex -1.80194 -0.867767 -4.97276
    endloop
  endfacet
  facet normal -0 0 -1
    outer loop
      vertex 1.24698 1.56366 -4.97276
      vertex 26.2654 48 -4.97276
      vertex 2 0 -4.97276
    endloop
  endfacet
  facet normal 0 0 -1
    outer loop
      vertex -25.6703 -48.7462 -4.97276
      vertex -0.445042 -1.94986 -4.97276
      vertex 26.2654 -48 -4.97276
    endloop
  endfacet
  facet normal -0 0 -1
    outer loop
      vertex 2 0 -4.97276
      vertex 26.2654 48 -4.97276
      vertex 1.24698 -1.56366 -4.97276
    endloop
  endfacet
  facet normal -0 0 -1
    outer loop
      vertex -0.445042 -1.94986 -4.97276
      vertex 1.24698 -1.56366 -4.97276
      vertex 26.2654 -48 -4.97276
    endloop
  endfacet
  facet normal -0 0 -1
    outer loop
      vertex -0.445042 1.94986 -4.97276
      vertex 25.9772 48.5984 -4.97276
      vertex 1.24698 1.56366 -4.97276
    endloop
  endfacet
  facet normal 0 0 -1
    outer loop
      vertex -0.445042 -1.94986 -4.97276
      vertex -25.6703 -48.7462 -4.97276
      vertex -1.80194 -0.867767 -4.97276
    endloop
  endfacet
  facet normal 0 0 -1
    outer loop
      vertex -0.445042 1.94986 -4.97276
      vertex 25.3297 48.7462 -4.97276
      vertex 25.9772 48.5984 -4.97276
    endloop
  endfacet
  facet normal -0.463213 0.580851 -0.669362
    outer loop
      vertex -25.6703 48.7462 -4.97276
      vertex -26.1896 48.3321 -4.97276
      vertex -25.9112 49.8014 -3.89037
    endloop
  endfacet
  facet normal 0 0.716026 -0.698074
    outer loop
      vertex -25.9112 49.8014 -3.89037
      vertex 25.0888 49.8014 -3.89037
      vertex -25.6703 48.7462 -4.97276
    endloop
  endfacet
  facet normal 0 0.716026 -0.698074
    outer loop
      vertex -25.6703 48.7462 -4.97276
      vertex 25.0888 49.8014 -3.89037
      vertex 25.3297 48.7462 -4.97276
    endloop
  endfacet
  facet normal 0 1 0
    outer loop
      vertex -25.9112 49.8014 -3.89037
      vertex -25.9112 49.8014 4.02074
      vertex 25.0888 49.8014 -3.89037
    endloop
  endfacet
  facet normal 0 1 0
    outer loop
      vertex 25.0888 49.8014 -3.89037
      vertex -25.9112 49.8014 4.02074
      vertex 25.0888 49.8014 4.02074
    endloop
  endfacet
  facet normal 0 0.939693 0.34202
    outer loop
      vertex -25.9112 49.1448 5.8247
      vertex 25.0888 49.1448 5.8247
      vertex -25.9112 49.8014 4.02074
    endloop
  endfacet
  facet normal 0 0.939693 0.34202
    outer loop
      vertex -25.9112 49.8014 4.02074
      vertex 25.0888 49.1448 5.8247
      vertex 25.0888 49.8014 4.02074
    endloop
  endfacet
  facet normal 0 0.716026 0.698074
    outer loop
      vertex -25.9112 49.1448 5.8247
      vertex -25.6703 48.0896 6.90709
      vertex 25.0888 49.1448 5.8247
    endloop
  endfacet
  facet normal -4.42306e-020 0.716026 0.698074
    outer loop
      vertex 25.0888 49.1448 5.8247
      vertex -25.6703 48.0896 6.90709
      vertex 25.3297 48.0896 6.90709
    endloop
  endfacet
  facet normal 0 -0 1
    outer loop
      vertex -26.1896 47.6755 6.90709
      vertex -26.1896 47.0113 6.90709
      vertex -25.6703 46.5972 6.90709
    endloop
  endfacet
  facet normal -0 0 1
    outer loop
      vertex 25.9772 46.745 6.90709
      vertex -26.1896 47.6755 6.90709
      vertex 25.3297 46.5972 6.90709
    endloop
  endfacet
  facet normal -0 0 1
    outer loop
      vertex 25.3297 46.5972 6.90709
      vertex -26.1896 47.6755 6.90709
      vertex -25.6703 46.5972 6.90709
    endloop
  endfacet
  facet normal -0 0 1
    outer loop
      vertex 26.2654 47.3434 6.90709
      vertex -26.1896 47.6755 6.90709
      vertex 25.9772 46.745 6.90709
    endloop
  endfacet
  facet normal 0 -0 1
    outer loop
      vertex 25.9772 47.9418 6.90709
      vertex -26.1896 47.6755 6.90709
      vertex 26.2654 47.3434 6.90709
    endloop
  endfacet
  facet normal 0 -0 1
    outer loop
      vertex 25.3297 48.0896 6.90709
      vertex -26.1896 47.6755 6.90709
      vertex 25.9772 47.9418 6.90709
    endloop
  endfacet
  facet normal 0 -0 1
    outer loop
      vertex -25.6703 48.0896 6.90709
      vertex -26.1896 47.6755 6.90709
      vertex 25.3297 48.0896 6.90709
    endloop
  endfacet
  facet normal -0.26314 -0.329967 0.906576
    outer loop
      vertex -26.1896 47.0113 6.90709
      vertex -26.1896 41.6968 4.97276
      vertex -25.6703 41.2827 4.97276
    endloop
  endfacet
  facet normal -0.26314 -0.329967 0.906576
    outer loop
      vertex -25.6703 46.5972 6.90709
      vertex -26.1896 47.0113 6.90709
      vertex -25.6703 41.2827 4.97276
    endloop
  endfacet
  facet normal 0 -0 1
    outer loop
      vertex -26.1896 41.6968 4.97276
      vertex -26.1896 -41.4393 4.97276
      vertex -25.6703 -41.0252 4.97276
    endloop
  endfacet
  facet normal -0 0 1
    outer loop
      vertex -25.5 -41.0252 4.97276
      vertex -26.1896 41.6968 4.97276
      vertex -25.6703 -41.0252 4.97276
    endloop
  endfacet
  facet normal 0 0 1
    outer loop
      vertex -25.5 -41.0252 4.97276
      vertex -25.6703 41.2827 4.97276
      vertex -26.1896 41.6968 4.97276
    endloop
  endfacet
  facet normal 0 0 1
    outer loop
      vertex -25.5 -41.0252 4.97276
      vertex -25.5 41.2827 4.97276
      vertex -25.6703 41.2827 4.97276
    endloop
  endfacet
  facet normal -0.202141 0.253476 0.945986
    outer loop
      vertex -26.1896 -41.4393 4.97276
      vertex -26.1896 -47.3505 6.55667
      vertex -25.6703 -46.9364 6.55667
    endloop
  endfacet
  facet normal -0.202141 0.253476 0.945986
    outer loop
      vertex -25.6703 -41.0252 4.97276
      vertex -26.1896 -41.4393 4.97276
      vertex -25.6703 -46.9364 6.55667
    endloop
  endfacet
  facet normal 0 -0 1
    outer loop
      vertex -26.1896 -47.3505 6.55667
      vertex -26.1896 -48.0147 6.55667
      vertex -25.6703 -48.4288 6.55667
    endloop
  endfacet
  facet normal -0 0 1
    outer loop
      vertex 25.9772 -48.281 6.55667
      vertex -26.1896 -47.3505 6.55667
      vertex 25.3297 -48.4288 6.55667
    endloop
  endfacet
  facet normal -0 0 1
    outer loop
      vertex 25.3297 -48.4288 6.55667
      vertex -26.1896 -47.3505 6.55667
      vertex -25.6703 -48.4288 6.55667
    endloop
  endfacet
  facet normal -0 0 1
    outer loop
      vertex 26.2654 -47.6826 6.55667
      vertex -26.1896 -47.3505 6.55667
      vertex 25.9772 -48.281 6.55667
    endloop
  endfacet
  facet normal 0 -0 1
    outer loop
      vertex 25.9772 -47.0842 6.55667
      vertex -26.1896 -47.3505 6.55667
      vertex 26.2654 -47.6826 6.55667
    endloop
  endfacet
  facet normal 0 -0 1
    outer loop
      vertex 25.3297 -46.9364 6.55667
      vertex -26.1896 -47.3505 6.55667
      vertex 25.9772 -47.0842 6.55667
    endloop
  endfacet
  facet normal 0 -0 1
    outer loop
      vertex -25.6703 -46.9364 6.55667
      vertex -26.1896 -47.3505 6.55667
      vertex 25.3297 -46.9364 6.55667
    endloop
  endfacet
  facet normal -0.463213 -0.580851 0.669362
    outer loop
      vertex -25.6703 -48.4288 6.55667
      vertex -26.1896 -48.0147 6.55667
      vertex -25.9112 -49.484 5.47428
    endloop
  endfacet
  facet normal 1.58346e-019 -0.716026 0.698074
    outer loop
      vertex -25.6703 -48.4288 6.55667
      vertex -25.9112 -49.484 5.47428
      vertex 25.0888 -49.484 5.47428
    endloop
  endfacet
  facet normal 0 -0.716026 0.698074
    outer loop
      vertex 25.3297 -48.4288 6.55667
      vertex -25.6703 -48.4288 6.55667
      vertex 25.0888 -49.484 5.47428
    endloop
  endfacet
  facet normal 0.165319 -0.724309 0.669362
    outer loop
      vertex 25.3297 -48.4288 6.55667
      vertex 25.0888 -49.484 5.47428
      vertex 26.6521 -49.1272 5.47428
    endloop
  endfacet
  facet normal 0.215296 -0.943274 0.252749
    outer loop
      vertex 25.0888 -49.484 5.47428
      vertex 25.0888 -49.8014 4.28965
      vertex 26.6521 -49.4446 4.28965
    endloop
  endfacet
  facet normal 0.215296 -0.943274 0.252749
    outer loop
      vertex 26.6521 -49.1272 5.47428
      vertex 25.0888 -49.484 5.47428
      vertex 26.6521 -49.4446 4.28965
    endloop
  endfacet
  facet normal 0.222521 -0.974928 0
    outer loop
      vertex 25.0888 -49.8014 4.28965
      vertex 25.0888 -49.8014 -3.89037
      vertex 26.6521 -49.4446 -3.89037
    endloop
  endfacet
  facet normal 0.222521 -0.974928 0
    outer loop
      vertex 26.6521 -49.4446 4.28965
      vertex 25.0888 -49.8014 4.28965
      vertex 26.6521 -49.4446 -3.89037
    endloop
  endfacet
  facet normal 0.165319 -0.724309 -0.669362
    outer loop
      vertex 26.6521 -49.4446 -3.89037
      vertex 25.0888 -49.8014 -3.89037
      vertex 25.9772 -48.5984 -4.97276
    endloop
  endfacet
  facet normal 0.165319 -0.724309 -0.669362
    outer loop
      vertex 25.9772 -48.5984 -4.97276
      vertex 25.0888 -49.8014 -3.89037
      vertex 25.3297 -48.7462 -4.97276
    endloop
  endfacet
  facet normal 0.669362 -0.322348 -0.669363
    outer loop
      vertex 26.6521 -49.4446 -3.89037
      vertex 25.9772 -48.5984 -4.97276
      vertex 26.2654 -48 -4.97276
    endloop
  endfacet
  facet normal 0.669362 -0.322348 -0.669362
    outer loop
      vertex 26.6521 -49.4446 -3.89037
      vertex 26.2654 -48 -4.97276
      vertex 27.3478 -48 -3.89037
    endloop
  endfacet
  facet normal 0.707107 0 -0.707107
    outer loop
      vertex 27.3478 -48 -3.89037
      vertex 26.2654 -48 -4.97276
      vertex 26.2654 48 -4.97276
    endloop
  endfacet
  facet normal 0.707107 0 -0.707107
    outer loop
      vertex 27.3478 48 -3.89037
      vertex 27.3478 -48 -3.89037
      vertex 26.2654 48 -4.97276
    endloop
  endfacet
  facet normal 0.669362 0.322348 -0.669362
    outer loop
      vertex 26.2654 48 -4.97276
      vertex 25.9772 48.5984 -4.97276
      vertex 27.3478 48 -3.89037
    endloop
  endfacet
  facet normal 0.669362 0.322348 -0.669363
    outer loop
      vertex 27.3478 48 -3.89037
      vertex 25.9772 48.5984 -4.97276
      vertex 26.6521 49.4446 -3.89037
    endloop
  endfacet
  facet normal 0.165319 0.724309 -0.669362
    outer loop
      vertex 25.9772 48.5984 -4.97276
      vertex 25.3297 48.7462 -4.97276
      vertex 26.6521 49.4446 -3.89037
    endloop
  endfacet
  facet normal 0.165319 0.724309 -0.669362
    outer loop
      vertex 25.3297 48.7462 -4.97276
      vertex 25.0888 49.8014 -3.89037
      vertex 26.6521 49.4446 -3.89037
    endloop
  endfacet
  facet normal 0.62349 -0.781831 0
    outer loop
      vertex -0.445042 1.94986 -4.97276
      vertex -0.445042 1.94986 -0.5
      vertex -1.80194 0.867767 -0.5
    endloop
  endfacet
  facet normal 0.62349 -0.781831 0
    outer loop
      vertex -1.80194 0.867767 -4.97276
      vertex -0.445042 1.94986 -4.97276
      vertex -1.80194 0.867767 -0.5
    endloop
  endfacet
  facet normal 1 0 0
    outer loop
      vertex -1.80194 0.867767 -4.97276
      vertex -1.80194 0.867767 -0.5
      vertex -1.80194 -0.867767 -0.5
    endloop
  endfacet
  facet normal 1 0 0
    outer loop
      vertex -1.80194 -0.867767 -4.97276
      vertex -1.80194 0.867767 -4.97276
      vertex -1.80194 -0.867767 -0.5
    endloop
  endfacet
  facet normal -0.222521 -0.974928 -0
    outer loop
      vertex 1.24698 1.56366 -4.97276
      vertex 1.24698 1.56366 -0.5
      vertex -0.445042 1.94986 -0.5
    endloop
  endfacet
  facet normal -0.222521 -0.974928 -0
    outer loop
      vertex -0.445042 1.94986 -4.97276
      vertex 1.24698 1.56366 -4.97276
      vertex -0.445042 1.94986 -0.5
    endloop
  endfacet
  facet normal -0.900969 -0.433884 0
    outer loop
      vertex 2 0 -0.5
      vertex 1.24698 1.56366 -0.5
      vertex 2 0 -4.97276
    endloop
  endfacet
  facet normal -0.900969 -0.433884 0
    outer loop
      vertex 2 0 -4.97276
      vertex 1.24698 1.56366 -0.5
      vertex 1.24698 1.56366 -4.97276
    endloop
  endfacet
  facet normal -0.900969 0.433884 0
    outer loop
      vertex 2 0 -0.5
      vertex 2 0 -4.97276
      vertex 1.24698 -1.56366 -0.5
    endloop
  endfacet
  facet normal -0.900969 0.433884 0
    outer loop
      vertex 1.24698 -1.56366 -0.5
      vertex 2 0 -4.97276
      vertex 1.24698 -1.56366 -4.97276
    endloop
  endfacet
  facet normal -0.222521 0.974928 0
    outer loop
      vertex 1.24698 -1.56366 -0.5
      vertex 1.24698 -1.56366 -4.97276
      vertex -0.445042 -1.94986 -0.5
    endloop
  endfacet
  facet normal -0.222521 0.974928 0
    outer loop
      vertex -0.445042 -1.94986 -0.5
      vertex 1.24698 -1.56366 -4.97276
      vertex -0.445042 -1.94986 -4.97276
    endloop
  endfacet
  facet normal 0.62349 0.781831 -0
    outer loop
      vertex -0.445042 -1.94986 -0.5
      vertex -0.445042 -1.94986 -4.97276
      vertex -1.80194 -0.867767 -0.5
    endloop
  endfacet
  facet normal 0.62349 0.781831 -0
    outer loop
      vertex -1.80194 -0.867767 -0.5
      vertex -0.445042 -1.94986 -4.97276
      vertex -1.80194 -0.867767 -4.97276
    endloop
  endfacet
  facet normal 0.222521 0.974928 0
    outer loop
      vertex 25.0888 49.8014 -3.89037
      vertex 25.0888 49.8014 4.02074
      vertex 26.6521 49.4446 -3.89037
    endloop
  endfacet
  facet normal 0.222521 0.974928 0
    outer loop
      vertex 26.6521 49.4446 -3.89037
      vertex 25.0888 49.8014 4.02074
      vertex 26.6521 49.4446 4.02074
    endloop
  endfacet
  facet normal 0.20971 0.918797 0.334415
    outer loop
      vertex 25.0888 49.1448 5.8247
      vertex 26.6521 48.788 5.8247
      vertex 25.0888 49.8014 4.02074
    endloop
  endfacet
  facet normal 0.20971 0.918797 0.334415
    outer loop
      vertex 25.0888 49.8014 4.02074
      vertex 26.6521 48.788 5.8247
      vertex 26.6521 49.4446 4.02074
    endloop
  endfacet
  facet normal 0.165319 0.724309 0.669362
    outer loop
      vertex 26.6521 48.788 5.8247
      vertex 25.0888 49.1448 5.8247
      vertex 25.9772 47.9418 6.90709
    endloop
  endfacet
  facet normal 0.165319 0.724309 0.669362
    outer loop
      vertex 25.9772 47.9418 6.90709
      vertex 25.0888 49.1448 5.8247
      vertex 25.3297 48.0896 6.90709
    endloop
  endfacet
  facet normal 0.669362 0.322348 0.669363
    outer loop
      vertex 26.6521 48.788 5.8247
      vertex 25.9772 47.9418 6.90709
      vertex 26.2654 47.3434 6.90709
    endloop
  endfacet
  facet normal 0.669362 0.322348 0.669362
    outer loop
      vertex 26.6521 48.788 5.8247
      vertex 26.2654 47.3434 6.90709
      vertex 27.3478 47.3434 5.8247
    endloop
  endfacet
  facet normal 0.684791 -0.249244 0.684791
    outer loop
      vertex 26.2654 47.3434 6.90709
      vertex 26.2654 42.0289 4.97276
      vertex 27.3478 42.0289 3.89037
    endloop
  endfacet
  facet normal 0.684791 -0.249244 0.684791
    outer loop
      vertex 27.3478 47.3434 5.8247
      vertex 26.2654 47.3434 6.90709
      vertex 27.3478 42.0289 3.89037
    endloop
  endfacet
  facet normal 0.579036 -0.27885 0.766133
    outer loop
      vertex 25.9772 46.745 6.90709
      vertex 25.9772 41.4305 4.97276
      vertex 26.2654 42.0289 4.97276
    endloop
  endfacet
  facet normal 0.579036 -0.27885 0.766133
    outer loop
      vertex 26.2654 47.3434 6.90709
      vertex 25.9772 46.745 6.90709
      vertex 26.2654 42.0289 4.97276
    endloop
  endfacet
  facet normal 0.0778274 -0.340983 0.936842
    outer loop
      vertex 25.3297 46.5972 6.90709
      vertex 25.3297 41.5 5.05185
      vertex 25.5 41.5 5.0377
    endloop
  endfacet
  facet normal 0.0778274 -0.340983 0.936842
    outer loop
      vertex 25.9772 41.4305 4.97276
      vertex 25.3297 46.5972 6.90709
      vertex 25.5 41.5 5.0377
    endloop
  endfacet
  facet normal 0.0778274 -0.340983 0.936842
    outer loop
      vertex 25.5 41.3216 4.97276
      vertex 25.9772 41.4305 4.97276
      vertex 25.5 41.5 5.0377
    endloop
  endfacet
  facet normal 0.0778274 -0.340983 0.936842
    outer loop
      vertex 25.9772 41.4305 4.97276
      vertex 25.9772 46.745 6.90709
      vertex 25.3297 46.5972 6.90709
    endloop
  endfacet
  facet normal 0 -0.34202 0.939693
    outer loop
      vertex -25.6703 46.5972 6.90709
      vertex -25.6703 41.2827 4.97276
      vertex -25.5 41.2827 4.97276
    endloop
  endfacet
  facet normal 0 -0.34202 0.939693
    outer loop
      vertex 25.3297 41.5 5.05185
      vertex -25.6703 46.5972 6.90709
      vertex -25.5 41.5 5.05185
    endloop
  endfacet
  facet normal 3.03865e-013 -0.34202 0.939693
    outer loop
      vertex -25.5 41.5 5.05185
      vertex -25.6703 46.5972 6.90709
      vertex -25.5 41.2827 4.97276
    endloop
  endfacet
  facet normal 0 -0.34202 0.939693
    outer loop
      vertex 25.3297 46.5972 6.90709
      vertex -25.6703 46.5972 6.90709
      vertex 25.3297 41.5 5.05185
    endloop
  endfacet
  facet normal 1 0 -0
    outer loop
      vertex -25.5 -41.0252 4.97276
      vertex -25.5 -41.5 3.875
      vertex -25.5 41.5 3.875
    endloop
  endfacet
  facet normal 1 0 0
    outer loop
      vertex -25.5 41.5 3.875
      vertex -25.5 41.5 5.05185
      vertex -25.5 41.2827 4.97276
    endloop
  endfacet
  facet normal 1 0 0
    outer loop
      vertex -25.5 -41.0252 4.97276
      vertex -25.5 41.5 3.875
      vertex -25.5 41.2827 4.97276
    endloop
  endfacet
  facet normal 1 0 -0
    outer loop
      vertex -25.5 -41.5 5.09999
      vertex -25.5 -41.5 3.875
      vertex -25.5 -41.0252 4.97276
    endloop
  endfacet
  facet normal -1.24275e-018 0.258819 0.965926
    outer loop
      vertex -25.5 -41.5 5.09999
      vertex -25.6703 -46.9364 6.55667
      vertex 25.3297 -46.9364 6.55667
    endloop
  endfacet
  facet normal 0 0.258819 0.965926
    outer loop
      vertex -25.5 -41.5 5.09999
      vertex -25.5 -41.0252 4.97276
      vertex -25.6703 -41.0252 4.97276
    endloop
  endfacet
  facet normal 3.49018e-015 0.258819 0.965926
    outer loop
      vertex -25.6703 -41.0252 4.97276
      vertex -25.6703 -46.9364 6.55667
      vertex -25.5 -41.5 5.09999
    endloop
  endfacet
  facet normal -0 0.258819 0.965926
    outer loop
      vertex 25.3297 -41.5 5.09999
      vertex -25.5 -41.5 5.09999
      vertex 25.3297 -46.9364 6.55667
    endloop
  endfacet
  facet normal 0.0589712 0.258369 0.964245
    outer loop
      vertex 25.3297 -41.5 5.09999
      vertex 25.3297 -46.9364 6.55667
      vertex 25.9772 -47.0842 6.55667
    endloop
  endfacet
  facet normal 0.0589712 0.258369 0.964245
    outer loop
      vertex 25.5 -41.5 5.08957
      vertex 25.3297 -41.5 5.09999
      vertex 25.9772 -47.0842 6.55667
    endloop
  endfacet
  facet normal 0.0589712 0.258369 0.964245
    outer loop
      vertex 25.9772 -41.173 4.97276
      vertex 25.5 -41.5 5.08957
      vertex 25.9772 -47.0842 6.55667
    endloop
  endfacet
  facet normal 0.0589712 0.258369 0.964245
    outer loop
      vertex 25.5 -41.064 4.97276
      vertex 25.5 -41.5 5.08957
      vertex 25.9772 -41.173 4.97276
    endloop
  endfacet
  facet normal 0.473404 0.22798 0.850832
    outer loop
      vertex 25.9772 -41.173 4.97276
      vertex 25.9772 -47.0842 6.55667
      vertex 26.2654 -47.6826 6.55667
    endloop
  endfacet
  facet normal 0.473404 0.22798 0.850832
    outer loop
      vertex 26.2654 -41.7713 4.97276
      vertex 25.9772 -41.173 4.97276
      vertex 26.2654 -47.6826 6.55667
    endloop
  endfacet
  facet normal 0.694747 0.186157 0.694747
    outer loop
      vertex 26.2654 -41.7713 4.97276
      vertex 26.2654 -47.6826 6.55667
      vertex 27.3478 -47.6826 5.47428
    endloop
  endfacet
  facet normal 0.694747 0.186157 0.694747
    outer loop
      vertex 27.3478 -41.7713 3.89037
      vertex 26.2654 -41.7713 4.97276
      vertex 27.3478 -47.6826 5.47428
    endloop
  endfacet
  facet normal 0.669362 -0.322348 0.669362
    outer loop
      vertex 26.2654 -47.6826 6.55667
      vertex 25.9772 -48.281 6.55667
      vertex 27.3478 -47.6826 5.47428
    endloop
  endfacet
  facet normal 0.669362 -0.322348 0.669363
    outer loop
      vertex 27.3478 -47.6826 5.47428
      vertex 25.9772 -48.281 6.55667
      vertex 26.6521 -49.1272 5.47428
    endloop
  endfacet
  facet normal 0.165319 -0.724309 0.669362
    outer loop
      vertex 25.9772 -48.281 6.55667
      vertex 25.3297 -48.4288 6.55667
      vertex 26.6521 -49.1272 5.47428
    endloop
  endfacet
  facet normal 0.894941 -0.430981 0.115481
    outer loop
      vertex 26.6521 -49.1272 5.47428
      vertex 26.6521 -49.4446 4.28965
      vertex 27.3478 -48 4.28965
    endloop
  endfacet
  facet normal 0.894941 -0.430981 0.115481
    outer loop
      vertex 27.3478 -47.6826 5.47428
      vertex 26.6521 -49.1272 5.47428
      vertex 27.3478 -48 4.28965
    endloop
  endfacet
  facet normal 0.900969 -0.433884 0
    outer loop
      vertex 26.6521 -49.4446 4.28965
      vertex 26.6521 -49.4446 -3.89037
      vertex 27.3478 -48 -3.89037
    endloop
  endfacet
  facet normal 0.900969 -0.433884 0
    outer loop
      vertex 27.3478 -48 4.28965
      vertex 26.6521 -49.4446 4.28965
      vertex 27.3478 -48 -3.89037
    endloop
  endfacet
  facet normal 1 0 -0
    outer loop
      vertex 27.3478 -48 4.28965
      vertex 27.3478 -48 -3.89037
      vertex 27.3478 48 -3.89037
    endloop
  endfacet
  facet normal 1 -0 -0
    outer loop
      vertex 27.3478 -41.7713 3.89037
      vertex 27.3478 -48 4.28965
      vertex 27.3478 48 -3.89037
    endloop
  endfacet
  facet normal 1 0 0
    outer loop
      vertex 27.3478 48 4.02074
      vertex 27.3478 42.0289 3.89037
      vertex 27.3478 48 -3.89037
    endloop
  endfacet
  facet normal 1 0 -0
    outer loop
      vertex 27.3478 42.0289 3.89037
      vertex 27.3478 -41.7713 3.89037
      vertex 27.3478 48 -3.89037
    endloop
  endfacet
  facet normal 1 0 -0
    outer loop
      vertex 27.3478 47.3434 5.8247
      vertex 27.3478 42.0289 3.89037
      vertex 27.3478 48 4.02074
    endloop
  endfacet
  facet normal 1 0 0
    outer loop
      vertex 27.3478 -41.7713 3.89037
      vertex 27.3478 -47.6826 5.47428
      vertex 27.3478 -48 4.28965
    endloop
  endfacet
  facet normal 0.900969 0.433884 0
    outer loop
      vertex 27.3478 48 -3.89037
      vertex 26.6521 49.4446 -3.89037
      vertex 26.6521 49.4446 4.02074
    endloop
  endfacet
  facet normal 0.900969 0.433884 -0
    outer loop
      vertex 27.3478 48 4.02074
      vertex 27.3478 48 -3.89037
      vertex 26.6521 49.4446 4.02074
    endloop
  endfacet
  facet normal 0 0 1
    outer loop
      vertex -4.6194 -1.91342 -0.5
      vertex -3.53553 -3.53553 -0.5
      vertex -1.91342 -4.6194 -0.5
    endloop
  endfacet
  facet normal -0 0 1
    outer loop
      vertex 1.91342 -4.6194 -0.5
      vertex -4.6194 -1.91342 -0.5
      vertex 0 -5 -0.5
    endloop
  endfacet
  facet normal 0 0 1
    outer loop
      vertex 0 -5 -0.5
      vertex -4.6194 -1.91342 -0.5
      vertex -1.91342 -4.6194 -0.5
    endloop
  endfacet
  facet normal -0 0 1
    outer loop
      vertex 3.53553 -3.53553 -0.5
      vertex -4.6194 -1.91342 -0.5
      vertex 1.91342 -4.6194 -0.5
    endloop
  endfacet
  facet normal -0 -0 1
    outer loop
      vertex -0.445042 -1.94986 -0.5
      vertex -4.6194 -1.91342 -0.5
      vertex 3.53553 -3.53553 -0.5
    endloop
  endfacet
  facet normal 0 -0 1
    outer loop
      vertex 1.24698 -1.56366 -0.5
      vertex -0.445042 -1.94986 -0.5
      vertex 4.6194 -1.91342 -0.5
    endloop
  endfacet
  facet normal 0 0 1
    outer loop
      vertex 1.24698 1.56366 -0.5
      vertex 2 0 -0.5
      vertex 4.6194 1.91342 -0.5
    endloop
  endfacet
  facet normal 0 -0 1
    outer loop
      vertex 0 5 -0.5
      vertex -4.6194 -1.91342 -0.5
      vertex 1.91342 4.6194 -0.5
    endloop
  endfacet
  facet normal 0 -0 1
    outer loop
      vertex -1.91342 4.6194 -0.5
      vertex -4.6194 -1.91342 -0.5
      vertex 0 5 -0.5
    endloop
  endfacet
  facet normal 0 -0 1
    outer loop
      vertex -3.53553 3.53553 -0.5
      vertex -4.6194 -1.91342 -0.5
      vertex -1.91342 4.6194 -0.5
    endloop
  endfacet
  facet normal 0 -0 1
    outer loop
      vertex -4.6194 1.91342 -0.5
      vertex -4.6194 -1.91342 -0.5
      vertex -3.53553 3.53553 -0.5
    endloop
  endfacet
  facet normal 0 0 1
    outer loop
      vertex -5 0 -0.5
      vertex -4.6194 -1.91342 -0.5
      vertex -4.6194 1.91342 -0.5
    endloop
  endfacet
  facet normal 0 0 1
    outer loop
      vertex 1.91342 4.6194 -0.5
      vertex -4.6194 -1.91342 -0.5
      vertex -1.80194 0.867767 -0.5
    endloop
  endfacet
  facet normal 0 -0 1
    outer loop
      vertex 1.91342 4.6194 -0.5
      vertex -0.445042 1.94986 -0.5
      vertex 3.53553 3.53553 -0.5
    endloop
  endfacet
  facet normal 0 0 1
    outer loop
      vertex 1.91342 4.6194 -0.5
      vertex -1.80194 0.867767 -0.5
      vertex -0.445042 1.94986 -0.5
    endloop
  endfacet
  facet normal 0 -0 1
    outer loop
      vertex 3.53553 3.53553 -0.5
      vertex 1.24698 1.56366 -0.5
      vertex 4.6194 1.91342 -0.5
    endloop
  endfacet
  facet normal 0 0 1
    outer loop
      vertex -0.445042 1.94986 -0.5
      vertex 1.24698 1.56366 -0.5
      vertex 3.53553 3.53553 -0.5
    endloop
  endfacet
  facet normal 0 -0 1
    outer loop
      vertex 4.6194 1.91342 -0.5
      vertex 2 0 -0.5
      vertex 5 0 -0.5
    endloop
  endfacet
  facet normal 0 0 1
    outer loop
      vertex 5 0 -0.5
      vertex 1.24698 -1.56366 -0.5
      vertex 4.6194 -1.91342 -0.5
    endloop
  endfacet
  facet normal 0 0 1
    outer loop
      vertex 4.6194 -1.91342 -0.5
      vertex -0.445042 -1.94986 -0.5
      vertex 3.53553 -3.53553 -0.5
    endloop
  endfacet
  facet normal 0 0 1
    outer loop
      vertex -0.445042 -1.94986 -0.5
      vertex -1.80194 -0.867767 -0.5
      vertex -4.6194 -1.91342 -0.5
    endloop
  endfacet
  facet normal 0 -0 1
    outer loop
      vertex 2 0 -0.5
      vertex 1.24698 -1.56366 -0.5
      vertex 5 0 -0.5
    endloop
  endfacet
  facet normal -0 0 1
    outer loop
      vertex -1.80194 -0.867767 -0.5
      vertex -1.80194 0.867767 -0.5
      vertex -4.6194 -1.91342 -0.5
    endloop
  endfacet
  facet normal 0.88994 0.428573 0.155988
    outer loop
      vertex 26.6521 49.4446 4.02074
      vertex 26.6521 48.788 5.8247
      vertex 27.3478 47.3434 5.8247
    endloop
  endfacet
  facet normal 0.88994 0.428573 0.155988
    outer loop
      vertex 27.3478 48 4.02074
      vertex 26.6521 49.4446 4.02074
      vertex 27.3478 47.3434 5.8247
    endloop
  endfacet
  facet normal 0.707107 -0 0.707107
    outer loop
      vertex 26.2654 42.0289 4.97276
      vertex 26.2654 -41.7713 4.97276
      vertex 27.3478 -41.7713 3.89037
    endloop
  endfacet
  facet normal 0.707107 -0 0.707107
    outer loop
      vertex 27.3478 42.0289 3.89037
      vertex 26.2654 42.0289 4.97276
      vertex 27.3478 -41.7713 3.89037
    endloop
  endfacet
  facet normal 0 -0 1
    outer loop
      vertex 25.5 41.3216 4.97276
      vertex 25.5 -41.064 4.97276
      vertex 25.9772 -41.173 4.97276
    endloop
  endfacet
  facet normal 0 0 1
    outer loop
      vertex 26.2654 -41.7713 4.97276
      vertex 25.5 41.3216 4.97276
      vertex 25.9772 -41.173 4.97276
    endloop
  endfacet
  facet normal 0 0 1
    outer loop
      vertex 26.2654 -41.7713 4.97276
      vertex 25.9772 41.4305 4.97276
      vertex 25.5 41.3216 4.97276
    endloop
  endfacet
  facet normal 0 0 1
    outer loop
      vertex 26.2654 -41.7713 4.97276
      vertex 26.2654 42.0289 4.97276
      vertex 25.9772 41.4305 4.97276
    endloop
  endfacet
  facet normal -1 0 0
    outer loop
      vertex 25.5 41.5 3.875
      vertex 25.5 41.3216 4.97276
      vertex 25.5 41.5 5.0377
    endloop
  endfacet
  facet normal -1 0 0
    outer loop
      vertex 25.5 -41.064 4.97276
      vertex 25.5 41.3216 4.97276
      vertex 25.5 41.5 3.875
    endloop
  endfacet
  facet normal -1 0 0
    outer loop
      vertex 25.5 -41.064 4.97276
      vertex 25.5 41.5 3.875
      vertex 25.5 -41.5 3.875
    endloop
  endfacet
  facet normal -1 0 0
    outer loop
      vertex 25.5 -41.064 4.97276
      vertex 25.5 -41.5 3.875
      vertex 25.5 -41.5 5.08957
    endloop
  endfacet
  facet normal 0 -1 0
    outer loop
      vertex 25.5 41.5 3.875
      vertex 25.5 41.5 5.0377
      vertex 25.3297 41.5 5.05185
    endloop
  endfacet
  facet normal -0 -1 -0
    outer loop
      vertex -25.5 41.5 3.875
      vertex 25.5 41.5 3.875
      vertex -25.5 41.5 5.05185
    endloop
  endfacet
  facet normal 0 -1 0
    outer loop
      vertex -25.5 41.5 5.05185
      vertex 25.5 41.5 3.875
      vertex 25.3297 41.5 5.05185
    endloop
  endfacet
  facet normal 0 0 1
    outer loop
      vertex -1.91342 4.6194 3.875
      vertex 25.5 41.5 3.875
      vertex -25.5 41.5 3.875
    endloop
  endfacet
  facet normal 0 0 1
    outer loop
      vertex 4.6194 1.91342 3.875
      vertex 5 0 3.875
      vertex 25.5 -41.5 3.875
    endloop
  endfacet
  facet normal 0 0 1
    outer loop
      vertex -25.5 -41.5 3.875
      vertex -5 0 3.875
      vertex -25.5 41.5 3.875
    endloop
  endfacet
  facet normal 0 0 1
    outer loop
      vertex -5 0 3.875
      vertex -4.6194 1.91342 3.875
      vertex -25.5 41.5 3.875
    endloop
  endfacet
  facet normal 0 0 1
    outer loop
      vertex -4.6194 1.91342 3.875
      vertex -3.53553 3.53553 3.875
      vertex -25.5 41.5 3.875
    endloop
  endfacet
  facet normal -0 -0 1
    outer loop
      vertex 0 -5 3.875
      vertex -1.91342 -4.6194 3.875
      vertex 25.5 -41.5 3.875
    endloop
  endfacet
  facet normal -0 0 1
    outer loop
      vertex 0 5 3.875
      vertex 25.5 41.5 3.875
      vertex -1.91342 4.6194 3.875
    endloop
  endfacet
  facet normal 0 0 1
    outer loop
      vertex 1.91342 4.6194 3.875
      vertex 25.5 41.5 3.875
      vertex 0 5 3.875
    endloop
  endfacet
  facet normal 0 0 1
    outer loop
      vertex 3.53553 3.53553 3.875
      vertex 25.5 41.5 3.875
      vertex 1.91342 4.6194 3.875
    endloop
  endfacet
  facet normal 0 0 1
    outer loop
      vertex 4.6194 1.91342 3.875
      vertex 25.5 41.5 3.875
      vertex 3.53553 3.53553 3.875
    endloop
  endfacet
  facet normal 0 -0 1
    outer loop
      vertex 5 0 3.875
      vertex 4.6194 -1.91342 3.875
      vertex 25.5 -41.5 3.875
    endloop
  endfacet
  facet normal 0 0 1
    outer loop
      vertex 25.5 -41.5 3.875
      vertex 25.5 41.5 3.875
      vertex 4.6194 1.91342 3.875
    endloop
  endfacet
  facet normal 0 -0 1
    outer loop
      vertex 4.6194 -1.91342 3.875
      vertex 3.53553 -3.53553 3.875
      vertex 25.5 -41.5 3.875
    endloop
  endfacet
  facet normal 0 -0 1
    outer loop
      vertex 3.53553 -3.53553 3.875
      vertex 1.91342 -4.6194 3.875
      vertex 25.5 -41.5 3.875
    endloop
  endfacet
  facet normal 0 -0 1
    outer loop
      vertex 1.91342 -4.6194 3.875
      vertex 0 -5 3.875
      vertex 25.5 -41.5 3.875
    endloop
  endfacet
  facet normal 0 0 1
    outer loop
      vertex -25.5 -41.5 3.875
      vertex 25.5 -41.5 3.875
      vertex -1.91342 -4.6194 3.875
    endloop
  endfacet
  facet normal 0 0 1
    outer loop
      vertex -25.5 -41.5 3.875
      vertex -1.91342 -4.6194 3.875
      vertex -3.53553 -3.53553 3.875
    endloop
  endfacet
  facet normal 0 0 1
    outer loop
      vertex -25.5 -41.5 3.875
      vertex -4.6194 -1.91342 3.875
      vertex -5 0 3.875
    endloop
  endfacet
  facet normal 0 0 1
    outer loop
      vertex -25.5 -41.5 3.875
      vertex -3.53553 -3.53553 3.875
      vertex -4.6194 -1.91342 3.875
    endloop
  endfacet
  facet normal 0 0 1
    outer loop
      vertex -3.53553 3.53553 3.875
      vertex -1.91342 4.6194 3.875
      vertex -25.5 41.5 3.875
    endloop
  endfacet
  facet normal 0 1 -0
    outer loop
      vertex 25.3297 -41.5 5.09999
      vertex 25.5 -41.5 5.08957
      vertex -25.5 -41.5 5.09999
    endloop
  endfacet
  facet normal 0 1 0
    outer loop
      vertex -25.5 -41.5 5.09999
      vertex 25.5 -41.5 5.08957
      vertex 25.5 -41.5 3.875
    endloop
  endfacet
  facet normal 0 1 -0
    outer loop
      vertex -25.5 -41.5 5.09999
      vertex 25.5 -41.5 3.875
      vertex -25.5 -41.5 3.875
    endloop
  endfacet
  facet normal 0.83147 0.55557 0
    outer loop
      vertex -4.6194 -1.91342 3.875
      vertex -3.53553 -3.53553 3.875
      vertex -3.53553 -3.53553 -0.5
    endloop
  endfacet
  facet normal 0.83147 0.55557 0
    outer loop
      vertex -4.6194 -1.91342 -0.5
      vertex -4.6194 -1.91342 3.875
      vertex -3.53553 -3.53553 -0.5
    endloop
  endfacet
  facet normal 0.980785 0.19509 0
    outer loop
      vertex -5 0 3.875
      vertex -4.6194 -1.91342 3.875
      vertex -4.6194 -1.91342 -0.5
    endloop
  endfacet
  facet normal 0.980785 0.19509 0
    outer loop
      vertex -5 0 -0.5
      vertex -5 0 3.875
      vertex -4.6194 -1.91342 -0.5
    endloop
  endfacet
  facet normal 0.980785 -0.19509 0
    outer loop
      vertex -4.6194 1.91342 -0.5
      vertex -4.6194 1.91342 3.875
      vertex -5 0 3.875
    endloop
  endfacet
  facet normal 0.980785 -0.19509 0
    outer loop
      vertex -5 0 -0.5
      vertex -4.6194 1.91342 -0.5
      vertex -5 0 3.875
    endloop
  endfacet
  facet normal 0.83147 -0.55557 0
    outer loop
      vertex -3.53553 3.53553 -0.5
      vertex -3.53553 3.53553 3.875
      vertex -4.6194 1.91342 3.875
    endloop
  endfacet
  facet normal 0.83147 -0.55557 0
    outer loop
      vertex -4.6194 1.91342 -0.5
      vertex -3.53553 3.53553 -0.5
      vertex -4.6194 1.91342 3.875
    endloop
  endfacet
  facet normal 0.55557 -0.83147 0
    outer loop
      vertex -1.91342 4.6194 -0.5
      vertex -1.91342 4.6194 3.875
      vertex -3.53553 3.53553 3.875
    endloop
  endfacet
  facet normal 0.55557 -0.83147 0
    outer loop
      vertex -3.53553 3.53553 -0.5
      vertex -1.91342 4.6194 -0.5
      vertex -3.53553 3.53553 3.875
    endloop
  endfacet
  facet normal 0.19509 -0.980785 0
    outer loop
      vertex 0 5 -0.5
      vertex 0 5 3.875
      vertex -1.91342 4.6194 3.875
    endloop
  endfacet
  facet normal 0.19509 -0.980785 0
    outer loop
      vertex -1.91342 4.6194 -0.5
      vertex 0 5 -0.5
      vertex -1.91342 4.6194 3.875
    endloop
  endfacet
  facet normal -0.19509 -0.980785 -0
    outer loop
      vertex 1.91342 4.6194 -0.5
      vertex 1.91342 4.6194 3.875
      vertex 0 5 3.875
    endloop
  endfacet
  facet normal -0.19509 -0.980785 -0
    outer loop
      vertex 0 5 -0.5
      vertex 1.91342 4.6194 -0.5
      vertex 0 5 3.875
    endloop
  endfacet
  facet normal -0.55557 -0.83147 -0
    outer loop
      vertex 3.53553 3.53553 -0.5
      vertex 3.53553 3.53553 3.875
      vertex 1.91342 4.6194 3.875
    endloop
  endfacet
  facet normal -0.55557 -0.83147 -0
    outer loop
      vertex 1.91342 4.6194 -0.5
      vertex 3.53553 3.53553 -0.5
      vertex 1.91342 4.6194 3.875
    endloop
  endfacet
  facet normal -0.83147 -0.55557 0
    outer loop
      vertex 4.6194 1.91342 3.875
      vertex 3.53553 3.53553 3.875
      vertex 4.6194 1.91342 -0.5
    endloop
  endfacet
  facet normal -0.83147 -0.55557 0
    outer loop
      vertex 4.6194 1.91342 -0.5
      vertex 3.53553 3.53553 3.875
      vertex 3.53553 3.53553 -0.5
    endloop
  endfacet
  facet normal -0.980785 -0.19509 0
    outer loop
      vertex 5 0 3.875
      vertex 4.6194 1.91342 3.875
      vertex 5 0 -0.5
    endloop
  endfacet
  facet normal -0.980785 -0.19509 0
    outer loop
      vertex 5 0 -0.5
      vertex 4.6194 1.91342 3.875
      vertex 4.6194 1.91342 -0.5
    endloop
  endfacet
  facet normal -0.980785 0.19509 0
    outer loop
      vertex 5 0 3.875
      vertex 5 0 -0.5
      vertex 4.6194 -1.91342 3.875
    endloop
  endfacet
  facet normal -0.980785 0.19509 0
    outer loop
      vertex 4.6194 -1.91342 3.875
      vertex 5 0 -0.5
      vertex 4.6194 -1.91342 -0.5
    endloop
  endfacet
  facet normal -0.83147 0.55557 0
    outer loop
      vertex 4.6194 -1.91342 3.875
      vertex 4.6194 -1.91342 -0.5
      vertex 3.53553 -3.53553 3.875
    endloop
  endfacet
  facet normal -0.83147 0.55557 0
    outer loop
      vertex 3.53553 -3.53553 3.875
      vertex 4.6194 -1.91342 -0.5
      vertex 3.53553 -3.53553 -0.5
    endloop
  endfacet
  facet normal -0.55557 0.83147 0
    outer loop
      vertex 3.53553 -3.53553 3.875
      vertex 3.53553 -3.53553 -0.5
      vertex 1.91342 -4.6194 3.875
    endloop
  endfacet
  facet normal -0.55557 0.83147 0
    outer loop
      vertex 1.91342 -4.6194 3.875
      vertex 3.53553 -3.53553 -0.5
      vertex 1.91342 -4.6194 -0.5
    endloop
  endfacet
  facet normal -0.19509 0.980785 0
    outer loop
      vertex 1.91342 -4.6194 3.875
      vertex 1.91342 -4.6194 -0.5
      vertex 0 -5 3.875
    endloop
  endfacet
  facet normal -0.19509 0.980785 0
    outer loop
      vertex 0 -5 3.875
      vertex 1.91342 -4.6194 -0.5
      vertex 0 -5 -0.5
    endloop
  endfacet
  facet normal 0.19509 0.980785 -0
    outer loop
      vertex 0 -5 3.875
      vertex 0 -5 -0.5
      vertex -1.91342 -4.6194 3.875
    endloop
  endfacet
  facet normal 0.19509 0.980785 -0
    outer loop
      vertex -1.91342 -4.6194 3.875
      vertex 0 -5 -0.5
      vertex -1.91342 -4.6194 -0.5
    endloop
  endfacet
  facet normal 0.55557 0.83147 -0
    outer loop
      vertex -1.91342 -4.6194 3.875
      vertex -1.91342 -4.6194 -0.5
      vertex -3.53553 -3.53553 3.875
    endloop
  endfacet
  facet normal 0.55557 0.83147 -0
    outer loop
      vertex -3.53553 -3.53553 3.875
      vertex -1.91342 -4.6194 -0.5
      vertex -3.53553 -3.53553 -0.5
    endloop
  endfacet
endsolid OpenSCAD_Model
