solid OpenSCAD_Model
  facet normal 0 -1 0
    outer loop
      vertex 11.8737 0 2.05889
      vertex -3.5 0 0
      vertex 25 0 0
    endloop
  endfacet
  facet normal 0 -1 0
    outer loop
      vertex 16.125 0 3.44023
      vertex 14.0719 0 2.52614
      vertex 25 0 0
    endloop
  endfacet
  facet normal 0 -1 0
    outer loop
      vertex 11.8737 0 2.05889
      vertex 9.62632 0 2.05889
      vertex -3.5 0 0
    endloop
  endfacet
  facet normal 0 -1 0
    outer loop
      vertex 20.5706 0 8.37758
      vertex 19.4469 0 6.43131
      vertex 25 0 7.4
    endloop
  endfacet
  facet normal 0 -1 0
    outer loop
      vertex 21.5 0 12.75
      vertex 21.2651 0 10.5149
      vertex 25 0 7.4
    endloop
  endfacet
  facet normal 0 -1 0
    outer loop
      vertex 21.2651 0 10.5149
      vertex 20.5706 0 8.37758
      vertex 25 0 7.4
    endloop
  endfacet
  facet normal 0 -1 0
    outer loop
      vertex 25 0 7.4
      vertex 19.4469 0 6.43131
      vertex 25 0 0
    endloop
  endfacet
  facet normal 0 -1 0
    outer loop
      vertex 19.4469 0 6.43131
      vertex 17.9432 0 4.76119
      vertex 25 0 0
    endloop
  endfacet
  facet normal 0 -1 0
    outer loop
      vertex 17.9432 0 4.76119
      vertex 16.125 0 3.44023
      vertex 25 0 0
    endloop
  endfacet
  facet normal 0 -1 0
    outer loop
      vertex 14.0719 0 2.52614
      vertex 11.8737 0 2.05889
      vertex 25 0 0
    endloop
  endfacet
  facet normal 0 -1 0
    outer loop
      vertex 7.42807 0 2.52614
      vertex -3.5 0 0
      vertex 9.62632 0 2.05889
    endloop
  endfacet
  facet normal 0 -1 0
    outer loop
      vertex 5.375 0 3.44023
      vertex -3.5 0 0
      vertex 7.42807 0 2.52614
    endloop
  endfacet
  facet normal 0 -1 0
    outer loop
      vertex 3.55685 0 4.76119
      vertex 2.05307 0 6.43131
      vertex -3.5 0 7.4
    endloop
  endfacet
  facet normal 0 -1 0
    outer loop
      vertex -3.5 0 7.4
      vertex -3.5 0 0
      vertex 5.375 0 3.44023
    endloop
  endfacet
  facet normal 0 -1 0
    outer loop
      vertex 0.234913 0 10.5149
      vertex -3.5 0 7.4
      vertex 0.929386 0 8.37758
    endloop
  endfacet
  facet normal 0 -1 0
    outer loop
      vertex 2.80054e-016 0 12.75
      vertex -3.5 0 7.4
      vertex 0.234913 0 10.5149
    endloop
  endfacet
  facet normal 0 -5.23465e-017 0
    outer loop
      vertex 0 0 12.75
      vertex -3.5 0 7.4
      vertex 2.80054e-016 0 12.75
    endloop
  endfacet
  facet normal 0 -1 0
    outer loop
      vertex 5.375 0 3.44023
      vertex 3.55685 0 4.76119
      vertex -3.5 0 7.4
    endloop
  endfacet
  facet normal 0 -1 0
    outer loop
      vertex 2.05307 0 6.43131
      vertex 0.929386 0 8.37758
      vertex -3.5 0 7.4
    endloop
  endfacet
  facet normal -0 -0 -1
    outer loop
      vertex -3.5 0 0
      vertex -3.5 5.4 0
      vertex 25 0 0
    endloop
  endfacet
  facet normal 0 0 -1
    outer loop
      vertex 25 0 0
      vertex -3.5 5.4 0
      vertex 0 12 0
    endloop
  endfacet
  facet normal 0 0 -1
    outer loop
      vertex 25 0 0
      vertex 0 12 0
      vertex 21.5 12 0
    endloop
  endfacet
  facet normal 0 0 -1
    outer loop
      vertex 25 0 0
      vertex 21.5 12 0
      vertex 25 5.4 0
    endloop
  endfacet
  facet normal -1 0 -0
    outer loop
      vertex -3.5 3.75 5.4
      vertex -3.5 0 7.4
      vertex -3.5 5.4 7.4
    endloop
  endfacet
  facet normal -1 0 -0
    outer loop
      vertex -3.5 0 0
      vertex -3.5 0 7.4
      vertex -3.5 0.35 5.4
    endloop
  endfacet
  facet normal -1 0 0
    outer loop
      vertex -3.5 0 0
      vertex -3.5 0.35 5.4
      vertex -3.5 0.35 2
    endloop
  endfacet
  facet normal -1 -0 0
    outer loop
      vertex -3.5 0 0
      vertex -3.5 0.35 2
      vertex -3.5 5.4 0
    endloop
  endfacet
  facet normal -1 0 0
    outer loop
      vertex -3.5 3.75 2
      vertex -3.5 5.4 0
      vertex -3.5 0.35 2
    endloop
  endfacet
  facet normal -1 0 0
    outer loop
      vertex -3.5 5.4 0
      vertex -3.5 3.75 5.4
      vertex -3.5 5.4 7.4
    endloop
  endfacet
  facet normal -1 -0 -0
    outer loop
      vertex -3.5 0.35 5.4
      vertex -3.5 0 7.4
      vertex -3.5 3.75 5.4
    endloop
  endfacet
  facet normal -1 0 0
    outer loop
      vertex -3.5 3.75 5.4
      vertex -3.5 5.4 0
      vertex -3.5 3.75 2
    endloop
  endfacet
  facet normal -0.836832 0 0.54746
    outer loop
      vertex -3.5 0 7.4
      vertex 0 0 12.75
      vertex -3.5 5.4 7.4
    endloop
  endfacet
  facet normal -0.836832 0 0.54746
    outer loop
      vertex -3.5 5.4 7.4
      vertex 0 0 12.75
      vertex 0 12 12.75
    endloop
  endfacet
  facet normal 0 -0 2.33378e-017
    outer loop
      vertex 0 12 12.75
      vertex 0 0 12.75
      vertex 2.80054e-016 0 12.75
    endloop
  endfacet
  facet normal -1.76475e-031 4.17669e-017 -2.78224e-032
    outer loop
      vertex 0 0 12.75
      vertex 2.80054e-016 0 12.75
      vertex 0.234913 -4.96281e-016 10.5149
    endloop
  endfacet
  facet normal -1.4803e-016 -3.45469e-033 -2.33378e-017
    outer loop
      vertex 0 0 12.75
      vertex 0 12 12.75
      vertex 2.80054e-016 0 12.75
    endloop
  endfacet
  facet normal -2.22045e-016 0 -2.33378e-017
    outer loop
      vertex 0.234913 0 10.5149
      vertex 0.234913 -4.96281e-016 10.5149
      vertex 2.80054e-016 0 12.75
    endloop
  endfacet
  facet normal -2.32193e-016 -0 -7.5444e-017
    outer loop
      vertex 0.234913 -4.96281e-016 10.5149
      vertex 0.234913 0 10.5149
      vertex 0.929386 -9.70872e-016 8.37758
    endloop
  endfacet
  facet normal -4.54237e-016 -2.70039e-016 -1.47591e-016
    outer loop
      vertex 0.929386 -9.70872e-016 8.37758
      vertex 0.234913 0 10.5149
      vertex 0.929386 0 8.37758
    endloop
  endfacet
  facet normal -4.98837e-016 -5.26946e-016 -2.88004e-016
    outer loop
      vertex 0.929386 -9.70872e-016 8.37758
      vertex 0.929386 0 8.37758
      vertex 2.05307 -1.40303e-015 6.43131
    endloop
  endfacet
  facet normal -7.20881e-016 -2.63473e-016 -4.16201e-016
    outer loop
      vertex 2.05307 -1.40303e-015 6.43131
      vertex 0.929386 0 8.37758
      vertex 2.05307 0 6.43131
    endloop
  endfacet
  facet normal -8.4008e-016 -4.78841e-016 -7.56411e-016
    outer loop
      vertex 2.05307 -1.40303e-015 6.43131
      vertex 2.05307 0 6.43131
      vertex 3.55685 -1.77387e-015 4.76119
    endloop
  endfacet
  facet normal -1.06212e-015 -4.78841e-016 -9.56341e-016
    outer loop
      vertex 3.55685 -1.77387e-015 4.76119
      vertex 2.05307 0 6.43131
      vertex 3.55685 0 4.76119
    endloop
  endfacet
  facet normal -7.08847e-016 -4.88506e-016 -9.75644e-016
    outer loop
      vertex 3.55685 -1.77387e-015 4.76119
      vertex 3.55685 0 4.76119
      vertex 5.375 -2.06718e-015 3.44023
    endloop
  endfacet
  facet normal -8.26056e-016 -2.44253e-016 -1.13697e-015
    outer loop
      vertex 5.375 -2.06718e-015 3.44023
      vertex 3.55685 0 4.76119
      vertex 5.375 0 3.44023
    endloop
  endfacet
  facet normal -4.48291e-016 -2.16305e-016 -1.00688e-015
    outer loop
      vertex 5.375 -2.06718e-015 3.44023
      vertex 5.375 0 3.44023
      vertex 7.42807 -2.27015e-015 2.52614
    endloop
  endfacet
  facet normal -4.92306e-016 -2.16305e-016 -1.10574e-015
    outer loop
      vertex 7.42807 -2.27015e-015 2.52614
      vertex 5.375 0 3.44023
      vertex 7.42807 0 2.52614
    endloop
  endfacet
  facet normal -2.19508e-016 -2.02019e-016 -1.03271e-015
    outer loop
      vertex 7.42807 -2.27015e-015 2.52614
      vertex 7.42807 0 2.52614
      vertex 9.62632 -2.3739e-015 2.05889
    endloop
  endfacet
  facet normal -2.2954e-016 -2.02019e-016 -1.0799e-015
    outer loop
      vertex 9.62632 -2.3739e-015 2.05889
      vertex 7.42807 0 2.52614
      vertex 9.62632 0 2.05889
    endloop
  endfacet
  facet normal -0 -1.97605e-016 -1.05631e-015
    outer loop
      vertex 9.62632 -2.3739e-015 2.05889
      vertex 9.62632 0 2.05889
      vertex 11.8737 -2.3739e-015 2.05889
    endloop
  endfacet
  facet normal 1.10546e-047 -1.97605e-016 -1.05631e-015
    outer loop
      vertex 11.8737 -2.3739e-015 2.05889
      vertex 9.62632 0 2.05889
      vertex 11.8737 0 2.05889
    endloop
  endfacet
  facet normal 2.2954e-016 -2.02019e-016 -1.0799e-015
    outer loop
      vertex 11.8737 -2.3739e-015 2.05889
      vertex 11.8737 0 2.05889
      vertex 14.0719 -2.27015e-015 2.52614
    endloop
  endfacet
  facet normal 2.19508e-016 -2.02019e-016 -1.03271e-015
    outer loop
      vertex 14.0719 -2.27015e-015 2.52614
      vertex 11.8737 0 2.05889
      vertex 14.0719 0 2.52614
    endloop
  endfacet
  facet normal 4.92306e-016 -2.16305e-016 -1.10574e-015
    outer loop
      vertex 14.0719 -2.27015e-015 2.52614
      vertex 14.0719 0 2.52614
      vertex 16.125 -2.06718e-015 3.44023
    endloop
  endfacet
  facet normal 4.48291e-016 -2.16305e-016 -1.00688e-015
    outer loop
      vertex 16.125 -2.06718e-015 3.44023
      vertex 14.0719 0 2.52614
      vertex 16.125 0 3.44023
    endloop
  endfacet
  facet normal 8.26056e-016 -2.44253e-016 -1.13697e-015
    outer loop
      vertex 16.125 -2.06718e-015 3.44023
      vertex 16.125 0 3.44023
      vertex 17.9432 -1.77387e-015 4.76119
    endloop
  endfacet
  facet normal 7.08847e-016 -4.88506e-016 -9.75644e-016
    outer loop
      vertex 17.9432 -1.77387e-015 4.76119
      vertex 16.125 0 3.44023
      vertex 17.9432 0 4.76119
    endloop
  endfacet
  facet normal 1.06212e-015 -4.99817e-016 -9.56341e-016
    outer loop
      vertex 19.4469 -1.40303e-015 6.43131
      vertex 17.9432 -1.77387e-015 4.76119
      vertex 17.9432 0 4.76119
    endloop
  endfacet
  facet normal 8.4008e-016 -4.78841e-016 -7.56411e-016
    outer loop
      vertex 19.4469 0 6.43131
      vertex 19.4469 -1.40303e-015 6.43131
      vertex 17.9432 0 4.76119
    endloop
  endfacet
  facet normal 7.20881e-016 -2.56414e-016 -4.16201e-016
    outer loop
      vertex 20.5706 -9.70872e-016 8.37758
      vertex 19.4469 -1.40303e-015 6.43131
      vertex 19.4469 0 6.43131
    endloop
  endfacet
  facet normal 4.98837e-016 -5.26946e-016 -2.88004e-016
    outer loop
      vertex 20.5706 0 8.37758
      vertex 20.5706 -9.70872e-016 8.37758
      vertex 19.4469 0 6.43131
    endloop
  endfacet
  facet normal 4.54237e-016 -2.52511e-016 -1.47591e-016
    outer loop
      vertex 21.2651 -4.96281e-016 10.5149
      vertex 20.5706 -9.70872e-016 8.37758
      vertex 20.5706 0 8.37758
    endloop
  endfacet
  facet normal 2.32193e-016 0 -7.5444e-017
    outer loop
      vertex 21.2651 0 10.5149
      vertex 21.2651 -4.96281e-016 10.5149
      vertex 20.5706 0 8.37758
    endloop
  endfacet
  facet normal 2.22045e-016 0 -2.33378e-017
    outer loop
      vertex 21.5 0 12.75
      vertex 21.2651 -4.96281e-016 10.5149
      vertex 21.2651 0 10.5149
    endloop
  endfacet
  facet normal 0.836832 -0 0.54746
    outer loop
      vertex 21.5 12 12.75
      vertex 21.5 0 12.75
      vertex 25 0 7.4
    endloop
  endfacet
  facet normal 0.836832 -0 0.54746
    outer loop
      vertex 25 5.4 7.4
      vertex 21.5 12 12.75
      vertex 25 0 7.4
    endloop
  endfacet
  facet normal 1 0 -0
    outer loop
      vertex 25 0.35 2
      vertex 25 0 0
      vertex 25 5.4 0
    endloop
  endfacet
  facet normal 1 0 -0
    outer loop
      vertex 25 3.75 5.4
      vertex 25 3.75 2
      vertex 25 5.4 0
    endloop
  endfacet
  facet normal 1 0 -0
    outer loop
      vertex 25 0 7.4
      vertex 25 0 0
      vertex 25 0.35 2
    endloop
  endfacet
  facet normal 1 0 0
    outer loop
      vertex 25 0 7.4
      vertex 25 0.35 2
      vertex 25 0.35 5.4
    endloop
  endfacet
  facet normal 1 0 0
    outer loop
      vertex 25 5.4 7.4
      vertex 25 3.75 5.4
      vertex 25 5.4 0
    endloop
  endfacet
  facet normal 1 0 0
    outer loop
      vertex 25 5.4 7.4
      vertex 25 0 7.4
      vertex 25 3.75 5.4
    endloop
  endfacet
  facet normal 1 0 -0
    outer loop
      vertex 25 3.75 2
      vertex 25 0.35 2
      vertex 25 5.4 0
    endloop
  endfacet
  facet normal 1 0 0
    outer loop
      vertex 25 0.35 5.4
      vertex 25 3.75 5.4
      vertex 25 0 7.4
    endloop
  endfacet
  facet normal 0.883462 0.468503 0
    outer loop
      vertex 25 5.4 0
      vertex 21.5 12 0
      vertex 21.5 12 12.75
    endloop
  endfacet
  facet normal 0.883462 0.468503 -0
    outer loop
      vertex 25 5.4 7.4
      vertex 25 5.4 0
      vertex 21.5 12 12.75
    endloop
  endfacet
  facet normal 0 1 0
    outer loop
      vertex 0 12 0
      vertex 0 12 12.75
      vertex 21.5 12 0
    endloop
  endfacet
  facet normal 0 1 0
    outer loop
      vertex 21.5 12 0
      vertex 0 12 12.75
      vertex 2 12 12.75
    endloop
  endfacet
  facet normal 0 1 0
    outer loop
      vertex 21.5 12 0
      vertex 2 12 12.75
      vertex 19.5 12 12.75
    endloop
  endfacet
  facet normal 0 1 0
    outer loop
      vertex 21.5 12 0
      vertex 19.5 12 12.75
      vertex 21.5 12 12.75
    endloop
  endfacet
  facet normal -0.883462 0.468503 0
    outer loop
      vertex -3.5 5.4 0
      vertex -3.5 5.4 7.4
      vertex 0 12 0
    endloop
  endfacet
  facet normal -0.883462 0.468503 0
    outer loop
      vertex 0 12 0
      vertex -3.5 5.4 7.4
      vertex 0 12 12.75
    endloop
  endfacet
  facet normal 0 1 -0
    outer loop
      vertex 6.10449 0.35 5.4
      vertex 6.95352 0.35 4.86652
      vertex -3.5 0.35 5.4
    endloop
  endfacet
  facet normal 0 1 0
    outer loop
      vertex -3.5 0.35 5.4
      vertex 6.95352 0.35 4.86652
      vertex 8.80294 0.35 4.21938
    endloop
  endfacet
  facet normal -0 1 -0
    outer loop
      vertex 8.80294 0.35 4.21938
      vertex 10.75 0.35 4
      vertex -3.5 0.35 5.4
    endloop
  endfacet
  facet normal 0 1 -0
    outer loop
      vertex 12.6971 0.35 4.21938
      vertex 25 0.35 5.4
      vertex 10.75 0.35 4
    endloop
  endfacet
  facet normal 0 1 0
    outer loop
      vertex 14.5465 0.35 4.86652
      vertex 15.3955 0.35 5.4
      vertex 25 0.35 5.4
    endloop
  endfacet
  facet normal 0 1 -0
    outer loop
      vertex 14.5465 0.35 4.86652
      vertex 25 0.35 5.4
      vertex 12.6971 0.35 4.21938
    endloop
  endfacet
  facet normal 0 1 0
    outer loop
      vertex 10.75 0.35 4
      vertex 25 0.35 5.4
      vertex 25 0.35 2
    endloop
  endfacet
  facet normal -0 1 -0
    outer loop
      vertex 10.75 0.35 4
      vertex 25 0.35 2
      vertex -3.5 0.35 5.4
    endloop
  endfacet
  facet normal 0 1 -0
    outer loop
      vertex -3.5 0.35 5.4
      vertex 25 0.35 2
      vertex -3.5 0.35 2
    endloop
  endfacet
  facet normal 0 0 -1
    outer loop
      vertex 6.10449 3.75 5.4
      vertex 6.10449 0.35 5.4
      vertex -3.5 3.75 5.4
    endloop
  endfacet
  facet normal 0 0 -1
    outer loop
      vertex -3.5 3.75 5.4
      vertex 6.10449 0.35 5.4
      vertex -3.5 0.35 5.4
    endloop
  endfacet
  facet normal 0 -1 0
    outer loop
      vertex 25 3.75 2
      vertex 25 3.75 5.4
      vertex 15.3955 3.75 5.4
    endloop
  endfacet
  facet normal -0 -1 0
    outer loop
      vertex 12.6971 3.75 4.21938
      vertex 25 3.75 2
      vertex 14.5465 3.75 4.86652
    endloop
  endfacet
  facet normal -0 -1 0
    outer loop
      vertex 14.5465 3.75 4.86652
      vertex 25 3.75 2
      vertex 15.3955 3.75 5.4
    endloop
  endfacet
  facet normal -0 -1 0
    outer loop
      vertex 10.75 3.75 4
      vertex 25 3.75 2
      vertex 12.6971 3.75 4.21938
    endloop
  endfacet
  facet normal 0 -1 0
    outer loop
      vertex 8.80294 3.75 4.21938
      vertex 25 3.75 2
      vertex 10.75 3.75 4
    endloop
  endfacet
  facet normal 0 -1 0
    outer loop
      vertex -3.5 3.75 5.4
      vertex 25 3.75 2
      vertex 8.80294 3.75 4.21938
    endloop
  endfacet
  facet normal 0 -1 0
    outer loop
      vertex -3.5 3.75 5.4
      vertex 8.80294 3.75 4.21938
      vertex 6.95352 3.75 4.86652
    endloop
  endfacet
  facet normal 0 -1 0
    outer loop
      vertex -3.5 3.75 5.4
      vertex 6.95352 3.75 4.86652
      vertex 6.10449 3.75 5.4
    endloop
  endfacet
  facet normal -0 -1 -0
    outer loop
      vertex -3.5 3.75 2
      vertex 25 3.75 2
      vertex -3.5 3.75 5.4
    endloop
  endfacet
  facet normal 0 0 1
    outer loop
      vertex 25 0.35 2
      vertex 25 3.75 2
      vertex -3.5 3.75 2
    endloop
  endfacet
  facet normal 0 0 1
    outer loop
      vertex -3.5 0.35 2
      vertex 25 0.35 2
      vertex -3.5 3.75 2
    endloop
  endfacet
  facet normal 0 1 0
    outer loop
      vertex 0 12 12.75
      vertex 0.234913 12 14.9851
      vertex 2 12 12.75
    endloop
  endfacet
  facet normal 0 1 0
    outer loop
      vertex 2 12 12.75
      vertex 0.234913 12 14.9851
      vertex 0.929386 12 17.1224
    endloop
  endfacet
  facet normal 0 1 0
    outer loop
      vertex 2 12 12.75
      vertex 0.929386 12 17.1224
      vertex 2.05307 12 19.0687
    endloop
  endfacet
  facet normal 0 1 0
    outer loop
      vertex 2.21938 12 14.6971
      vertex 2.05307 12 19.0687
      vertex 3.55685 12 20.7388
    endloop
  endfacet
  facet normal -8.87393e-016 1 -1.23349e-016
    outer loop
      vertex 3.90897 12 18.2055
      vertex 3.55685 12 20.7388
      vertex 5.375 12 22.0598
    endloop
  endfacet
  facet normal 3.25081e-016 1 -7.30142e-016
    outer loop
      vertex 5.29446 12 19.591
      vertex 5.375 12 22.0598
      vertex 7.42807 12 22.9739
    endloop
  endfacet
  facet normal 1.68597e-016 1 -7.93189e-016
    outer loop
      vertex 6.95352 12 20.6335
      vertex 7.42807 12 22.9739
      vertex 9.62632 12 23.4411
    endloop
  endfacet
  facet normal 0 1 0
    outer loop
      vertex 8.80294 12 21.2806
      vertex 9.62632 12 23.4411
      vertex 11.8737 12 23.4411
    endloop
  endfacet
  facet normal 0 1 0
    outer loop
      vertex 10.75 12 21.5
      vertex 11.8737 12 23.4411
      vertex 14.0719 12 22.9739
    endloop
  endfacet
  facet normal 0 1 0
    outer loop
      vertex 12.6971 12 21.2806
      vertex 14.0719 12 22.9739
      vertex 16.125 12 22.0598
    endloop
  endfacet
  facet normal 3.99928e-017 1 -1.2897e-015
    outer loop
      vertex 14.5465 12 20.6335
      vertex 16.125 12 22.0598
      vertex 17.9432 12 20.7388
    endloop
  endfacet
  facet normal 0 1 0
    outer loop
      vertex 16.2055 12 19.591
      vertex 17.9432 12 20.7388
      vertex 19.4469 12 19.0687
    endloop
  endfacet
  facet normal 0 1 0
    outer loop
      vertex 17.591 12 18.2055
      vertex 19.4469 12 19.0687
      vertex 20.5706 12 17.1224
    endloop
  endfacet
  facet normal 0 1 0
    outer loop
      vertex 18.6335 12 16.5465
      vertex 20.5706 12 17.1224
      vertex 21.2651 12 14.9851
    endloop
  endfacet
  facet normal 0 1 0
    outer loop
      vertex 19.5 12 12.75
      vertex 21.2651 12 14.9851
      vertex 21.5 12 12.75
    endloop
  endfacet
  facet normal 0 1 0
    outer loop
      vertex 19.2806 12 14.6971
      vertex 21.2651 12 14.9851
      vertex 19.5 12 12.75
    endloop
  endfacet
  facet normal 0 1 0
    outer loop
      vertex 17.591 12 18.2055
      vertex 20.5706 12 17.1224
      vertex 18.6335 12 16.5465
    endloop
  endfacet
  facet normal 0 1 0
    outer loop
      vertex 16.2055 12 19.591
      vertex 19.4469 12 19.0687
      vertex 17.591 12 18.2055
    endloop
  endfacet
  facet normal 0 1 0
    outer loop
      vertex 14.5465 12 20.6335
      vertex 17.9432 12 20.7388
      vertex 16.2055 12 19.591
    endloop
  endfacet
  facet normal 3.78225e-016 1 -1.66403e-015
    outer loop
      vertex 12.6971 12 21.2806
      vertex 16.125 12 22.0598
      vertex 14.5465 12 20.6335
    endloop
  endfacet
  facet normal 0 1 0
    outer loop
      vertex 10.75 12 21.5
      vertex 14.0719 12 22.9739
      vertex 12.6971 12 21.2806
    endloop
  endfacet
  facet normal 0 1 0
    outer loop
      vertex 8.80294 12 21.2806
      vertex 11.8737 12 23.4411
      vertex 10.75 12 21.5
    endloop
  endfacet
  facet normal -1.10829e-015 1 4.22375e-016
    outer loop
      vertex 6.95352 12 20.6335
      vertex 9.62632 12 23.4411
      vertex 8.80294 12 21.2806
    endloop
  endfacet
  facet normal 5.46548e-016 1 -8.69825e-016
    outer loop
      vertex 5.29446 12 19.591
      vertex 7.42807 12 22.9739
      vertex 6.95352 12 20.6335
    endloop
  endfacet
  facet normal 7.43802e-016 1 -7.43802e-016
    outer loop
      vertex 3.90897 12 18.2055
      vertex 5.375 12 22.0598
      vertex 5.29446 12 19.591
    endloop
  endfacet
  facet normal 0 1 0
    outer loop
      vertex 2.86652 12 16.5465
      vertex 3.55685 12 20.7388
      vertex 3.90897 12 18.2055
    endloop
  endfacet
  facet normal 0 1 0
    outer loop
      vertex 2.21938 12 14.6971
      vertex 3.55685 12 20.7388
      vertex 2.86652 12 16.5465
    endloop
  endfacet
  facet normal 0 1 0
    outer loop
      vertex 2 12 12.75
      vertex 2.05307 12 19.0687
      vertex 2.21938 12 14.6971
    endloop
  endfacet
  facet normal 0 1 0
    outer loop
      vertex 18.6335 12 16.5465
      vertex 21.2651 12 14.9851
      vertex 19.2806 12 14.6971
    endloop
  endfacet
  facet normal -0.994522 1.54733e-017 0.104528
    outer loop
      vertex 0 0 12.75
      vertex 0.234913 4.96281e-016 14.9851
      vertex 0 12 12.75
    endloop
  endfacet
  facet normal -0.994522 3.1913e-017 0.104528
    outer loop
      vertex 0 12 12.75
      vertex 0.234913 4.96281e-016 14.9851
      vertex 0.234913 12 14.9851
    endloop
  endfacet
  facet normal 0 -1 2.22045e-016
    outer loop
      vertex 0.234913 4.96281e-016 14.9851
      vertex 0 0 12.75
      vertex 0.234913 -4.96281e-016 10.5149
    endloop
  endfacet
  facet normal 0 -1 2.22045e-016
    outer loop
      vertex 2.05307 -1.40303e-015 6.43131
      vertex 0.234913 4.96281e-016 14.9851
      vertex 0.929386 -9.70872e-016 8.37758
    endloop
  endfacet
  facet normal -5.20043e-031 -1 2.22045e-016
    outer loop
      vertex 0.929386 -9.70872e-016 8.37758
      vertex 0.234913 4.96281e-016 14.9851
      vertex 0.234913 -4.96281e-016 10.5149
    endloop
  endfacet
  facet normal 0 -1 2.22045e-016
    outer loop
      vertex 3.55685 -1.77387e-015 4.76119
      vertex 0.234913 4.96281e-016 14.9851
      vertex 2.05307 -1.40303e-015 6.43131
    endloop
  endfacet
  facet normal 2.61127e-031 -1 2.22045e-016
    outer loop
      vertex 2.86652 -8.42989e-016 8.95352
      vertex 0.234913 4.96281e-016 14.9851
      vertex 3.55685 -1.77387e-015 4.76119
    endloop
  endfacet
  facet normal 0 -1 2.22045e-016
    outer loop
      vertex 6.95352 -1.75048e-015 4.86652
      vertex 5.29446 -1.51901e-015 5.90898
      vertex 7.42807 -2.27015e-015 2.52614
    endloop
  endfacet
  facet normal 5.4249e-034 -1 2.22045e-016
    outer loop
      vertex 10.75 -1.94289e-015 4
      vertex 8.80294 -1.89418e-015 4.21938
      vertex 11.8737 -2.3739e-015 2.05889
    endloop
  endfacet
  facet normal -3.40809e-034 -1 2.22045e-016
    outer loop
      vertex 12.6971 -1.89418e-015 4.21938
      vertex 10.75 -1.94289e-015 4
      vertex 14.0719 -2.27015e-015 2.52614
    endloop
  endfacet
  facet normal -2.12081e-033 -1 2.22045e-016
    outer loop
      vertex 14.5465 -1.75048e-015 4.86652
      vertex 12.6971 -1.89418e-015 4.21938
      vertex 16.125 -2.06718e-015 3.44023
    endloop
  endfacet
  facet normal -3.26208e-033 -1 2.22045e-016
    outer loop
      vertex 16.2055 -1.51901e-015 5.90898
      vertex 14.5465 -1.75048e-015 4.86652
      vertex 17.9432 -1.77387e-015 4.76119
    endloop
  endfacet
  facet normal -4.5673e-033 -1 2.22045e-016
    outer loop
      vertex 17.591 -1.21137e-015 7.29446
      vertex 16.2055 -1.51901e-015 5.90898
      vertex 19.4469 -1.40303e-015 6.43131
    endloop
  endfacet
  facet normal -1.48494e-031 -1 2.22045e-016
    outer loop
      vertex 19.2806 -4.32334e-016 10.8029
      vertex 18.6335 -8.42989e-016 8.95352
      vertex 20.5706 -9.70872e-016 8.37758
    endloop
  endfacet
  facet normal 1.30331e-032 -1 2.22045e-016
    outer loop
      vertex 19.2806 4.32334e-016 14.6971
      vertex 19.5 0 12.75
      vertex 21.5 0 12.75
    endloop
  endfacet
  facet normal -5.57793e-032 -1 2.22045e-016
    outer loop
      vertex 18.781 7.49401e-016 16.125
      vertex 19.2806 4.32334e-016 14.6971
      vertex 21.2651 4.96281e-016 14.9851
    endloop
  endfacet
  facet normal 2.32741e-032 -1 2.22045e-016
    outer loop
      vertex 19.5 0 12.75
      vertex 19.2806 -4.32334e-016 10.8029
      vertex 21.2651 -4.96281e-016 10.5149
    endloop
  endfacet
  facet normal -1.19653e-031 -1 2.22045e-016
    outer loop
      vertex 20.5706 9.70872e-016 17.1224
      vertex 18.781 7.49401e-016 16.125
      vertex 21.2651 4.96281e-016 14.9851
    endloop
  endfacet
  facet normal -1.34635e-032 -1 2.22045e-016
    outer loop
      vertex 21.2651 4.96281e-016 14.9851
      vertex 19.2806 4.32334e-016 14.6971
      vertex 21.5 0 12.75
    endloop
  endfacet
  facet normal 0 -1 2.22045e-016
    outer loop
      vertex 21.5 0 12.75
      vertex 19.5 0 12.75
      vertex 21.2651 -4.96281e-016 10.5149
    endloop
  endfacet
  facet normal 3.95161e-032 -1 2.22045e-016
    outer loop
      vertex 21.2651 -4.96281e-016 10.5149
      vertex 19.2806 -4.32334e-016 10.8029
      vertex 20.5706 -9.70872e-016 8.37758
    endloop
  endfacet
  facet normal -1.37407e-031 -1 2.22045e-016
    outer loop
      vertex 20.5706 -9.70872e-016 8.37758
      vertex 18.6335 -8.42989e-016 8.95352
      vertex 19.4469 -1.40303e-015 6.43131
    endloop
  endfacet
  facet normal 5.39446e-032 -1 2.22045e-016
    outer loop
      vertex 18.6335 -8.42989e-016 8.95352
      vertex 17.591 -1.21137e-015 7.29446
      vertex 19.4469 -1.40303e-015 6.43131
    endloop
  endfacet
  facet normal -4.57724e-034 -1 2.22045e-016
    outer loop
      vertex 19.4469 -1.40303e-015 6.43131
      vertex 16.2055 -1.51901e-015 5.90898
      vertex 17.9432 -1.77387e-015 4.76119
    endloop
  endfacet
  facet normal 5.67586e-032 -1 2.22045e-016
    outer loop
      vertex 2.21938 4.32334e-016 14.6971
      vertex 2.71904 7.49401e-016 16.125
      vertex 0.234913 4.96281e-016 14.9851
    endloop
  endfacet
  facet normal 2.38404e-034 -1 2.22045e-016
    outer loop
      vertex 17.9432 -1.77387e-015 4.76119
      vertex 14.5465 -1.75048e-015 4.86652
      vertex 16.125 -2.06718e-015 3.44023
    endloop
  endfacet
  facet normal -1.88084e-033 -1 2.22045e-016
    outer loop
      vertex 16.125 -2.06718e-015 3.44023
      vertex 12.6971 -1.89418e-015 4.21938
      vertex 14.0719 -2.27015e-015 2.52614
    endloop
  endfacet
  facet normal 8.69683e-034 -1 2.22045e-016
    outer loop
      vertex 14.0719 -2.27015e-015 2.52614
      vertex 10.75 -1.94289e-015 4
      vertex 11.8737 -2.3739e-015 2.05889
    endloop
  endfacet
  facet normal 0 -1 2.22045e-016
    outer loop
      vertex 11.8737 -2.3739e-015 2.05889
      vertex 8.80294 -1.89418e-015 4.21938
      vertex 9.62632 -2.3739e-015 2.05889
    endloop
  endfacet
  facet normal 0 -1 2.22045e-016
    outer loop
      vertex 9.62632 -2.3739e-015 2.05889
      vertex 6.95352 -1.75048e-015 4.86652
      vertex 7.42807 -2.27015e-015 2.52614
    endloop
  endfacet
  facet normal 0 -1 2.22045e-016
    outer loop
      vertex 7.42807 -2.27015e-015 2.52614
      vertex 5.29446 -1.51901e-015 5.90898
      vertex 5.375 -2.06718e-015 3.44023
    endloop
  endfacet
  facet normal -1.79939e-031 -1 2.22045e-016
    outer loop
      vertex 2.86652 -8.42989e-016 8.95352
      vertex 2.21938 -4.32334e-016 10.8029
      vertex 0.234913 4.96281e-016 14.9851
    endloop
  endfacet
  facet normal 0 -1 2.22045e-016
    outer loop
      vertex 5.29446 -1.51901e-015 5.90898
      vertex 3.90897 -1.21137e-015 7.29446
      vertex 5.375 -2.06718e-015 3.44023
    endloop
  endfacet
  facet normal 5.58334e-032 -1 2.22045e-016
    outer loop
      vertex 5.375 -2.06718e-015 3.44023
      vertex 2.86652 -8.42989e-016 8.95352
      vertex 3.55685 -1.77387e-015 4.76119
    endloop
  endfacet
  facet normal -6.92854e-031 -1 2.22045e-016
    outer loop
      vertex 3.90897 -1.21137e-015 7.29446
      vertex 2.86652 -8.42989e-016 8.95352
      vertex 5.375 -2.06718e-015 3.44023
    endloop
  endfacet
  facet normal 0 -1 2.22045e-016
    outer loop
      vertex 8.80294 -1.89418e-015 4.21938
      vertex 6.95352 -1.75048e-015 4.86652
      vertex 9.62632 -2.3739e-015 2.05889
    endloop
  endfacet
  facet normal 2.75333e-031 -1 2.22045e-016
    outer loop
      vertex 2.23791 1.05471e-015 17.5
      vertex 0.234913 4.96281e-016 14.9851
      vertex 2.71904 7.49401e-016 16.125
    endloop
  endfacet
  facet normal 0 -1 2.22045e-016
    outer loop
      vertex 1.14738 1.05471e-015 17.5
      vertex 0.234913 4.96281e-016 14.9851
      vertex 2.23791 1.05471e-015 17.5
    endloop
  endfacet
  facet normal -4.6989e-030 -1 2.22045e-016
    outer loop
      vertex 0.929386 9.70872e-016 17.1224
      vertex 0.234913 4.96281e-016 14.9851
      vertex 1.14738 1.05471e-015 17.5
    endloop
  endfacet
  facet normal 0 -1 2.22045e-016
    outer loop
      vertex 19.2621 1.05471e-015 17.5
      vertex 20.5706 9.70872e-016 17.1224
      vertex 20.3526 1.05471e-015 17.5
    endloop
  endfacet
  facet normal 1.76465e-031 -1 2.22045e-016
    outer loop
      vertex 19.2621 1.05471e-015 17.5
      vertex 18.781 7.49401e-016 16.125
      vertex 20.5706 9.70872e-016 17.1224
    endloop
  endfacet
  facet normal 6.30929e-032 -1 2.22045e-016
    outer loop
      vertex 2.21938 -4.32334e-016 10.8029
      vertex 2 0 12.75
      vertex 0.234913 4.96281e-016 14.9851
    endloop
  endfacet
  facet normal 2.32741e-032 -1 2.22045e-016
    outer loop
      vertex 2 0 12.75
      vertex 2.21938 4.32334e-016 14.6971
      vertex 0.234913 4.96281e-016 14.9851
    endloop
  endfacet
  facet normal 0.994522 3.09466e-017 0.104528
    outer loop
      vertex 21.2651 12 14.9851
      vertex 21.2651 4.96281e-016 14.9851
      vertex 21.5 0 12.75
    endloop
  endfacet
  facet normal 0.994522 1.54733e-017 0.104528
    outer loop
      vertex 21.5 12 12.75
      vertex 21.2651 12 14.9851
      vertex 21.5 0 12.75
    endloop
  endfacet
  facet normal 0 0 -1
    outer loop
      vertex 25 3.75 5.4
      vertex 25 0.35 5.4
      vertex 15.3955 3.75 5.4
    endloop
  endfacet
  facet normal 0 0 -1
    outer loop
      vertex 15.3955 3.75 5.4
      vertex 25 0.35 5.4
      vertex 15.3955 0.35 5.4
    endloop
  endfacet
  facet normal -0.993712 -1.65741e-017 -0.111965
    outer loop
      vertex 19.5 12 12.75
      vertex 19.5 0 12.75
      vertex 19.2806 12 14.6971
    endloop
  endfacet
  facet normal -0.993712 -3.31482e-017 -0.111965
    outer loop
      vertex 19.2806 12 14.6971
      vertex 19.5 0 12.75
      vertex 19.2806 4.32334e-016 14.6971
    endloop
  endfacet
  facet normal -0.993712 1.65741e-017 0.111965
    outer loop
      vertex 19.5 12 12.75
      vertex 19.2806 12 10.8029
      vertex 19.5 0 12.75
    endloop
  endfacet
  facet normal -0.993712 1.5538e-017 0.111965
    outer loop
      vertex 19.5 0 12.75
      vertex 19.2806 12 10.8029
      vertex 19.2806 -4.32334e-016 10.8029
    endloop
  endfacet
  facet normal 0 -1 0
    outer loop
      vertex 2.21938 12 10.8029
      vertex 2.86652 12 8.95352
      vertex 3.90897 12 7.29446
    endloop
  endfacet
  facet normal 0 -1 0
    outer loop
      vertex 6.95352 12 4.86652
      vertex 2.21938 12 10.8029
      vertex 5.29446 12 5.90897
    endloop
  endfacet
  facet normal 0 -1 0
    outer loop
      vertex 5.29446 12 5.90897
      vertex 2.21938 12 10.8029
      vertex 3.90897 12 7.29446
    endloop
  endfacet
  facet normal -1.33225e-015 -1 -1.06244e-015
    outer loop
      vertex 8.80294 12 4.21938
      vertex 2.21938 12 10.8029
      vertex 6.95352 12 4.86652
    endloop
  endfacet
  facet normal 3.42615e-017 -1 3.04078e-016
    outer loop
      vertex 10.75 12 4
      vertex 2.21938 12 10.8029
      vertex 8.80294 12 4.21938
    endloop
  endfacet
  facet normal -2.57786e-017 -1 2.28791e-016
    outer loop
      vertex 12.6971 12 4.21938
      vertex 2.21938 12 10.8029
      vertex 10.75 12 4
    endloop
  endfacet
  facet normal 5.56289e-016 -1 1.15515e-015
    outer loop
      vertex 14.5465 12 4.86652
      vertex 2.21938 12 10.8029
      vertex 12.6971 12 4.21938
    endloop
  endfacet
  facet normal 0 -1 0
    outer loop
      vertex 16.2055 12 5.90897
      vertex 2.21938 12 10.8029
      vertex 14.5465 12 4.86652
    endloop
  endfacet
  facet normal 0 -1 0
    outer loop
      vertex 17.591 12 7.29446
      vertex 2.21938 12 10.8029
      vertex 16.2055 12 5.90897
    endloop
  endfacet
  facet normal 0 -1 0
    outer loop
      vertex 18.6335 12 8.95352
      vertex 2.21938 12 10.8029
      vertex 17.591 12 7.29446
    endloop
  endfacet
  facet normal 0 -1 0
    outer loop
      vertex 19.2806 12 10.8029
      vertex 2.21938 12 10.8029
      vertex 18.6335 12 8.95352
    endloop
  endfacet
  facet normal -7.8449e-034 -1 9.12329e-016
    outer loop
      vertex 19.5 12 12.75
      vertex 2.21938 12 10.8029
      vertex 19.2806 12 10.8029
    endloop
  endfacet
  facet normal 0 -1 9.12329e-016
    outer loop
      vertex 2 12 12.75
      vertex 2.21938 12 10.8029
      vertex 19.5 12 12.75
    endloop
  endfacet
  facet normal 0.993712 1.65741e-017 0.111965
    outer loop
      vertex 2.21938 -4.32334e-016 10.8029
      vertex 2.21938 12 10.8029
      vertex 2 12 12.75
    endloop
  endfacet
  facet normal 0.993712 1.65741e-017 0.111965
    outer loop
      vertex 2 0 12.75
      vertex 2.21938 -4.32334e-016 10.8029
      vertex 2 12 12.75
    endloop
  endfacet
  facet normal 0.993712 -3.10774e-017 -0.111965
    outer loop
      vertex 2 12 12.75
      vertex 2.21938 12 14.6971
      vertex 2.21938 4.32334e-016 14.6971
    endloop
  endfacet
  facet normal 0.993712 -1.65741e-017 -0.111965
    outer loop
      vertex 2 0 12.75
      vertex 2 12 12.75
      vertex 2.21938 4.32334e-016 14.6971
    endloop
  endfacet
  facet normal -0.532032 1.8801e-016 0.846724
    outer loop
      vertex 16.2055 -1.51901e-015 5.90898
      vertex 16.2055 12 5.90897
      vertex 14.5465 12 4.86652
    endloop
  endfacet
  facet normal -0.532032 -2.46822e-016 0.846724
    outer loop
      vertex 15.3955 3.75 5.4
      vertex 16.2055 -1.51901e-015 5.90898
      vertex 14.5465 12 4.86652
    endloop
  endfacet
  facet normal -0.532032 1.82313e-016 0.846724
    outer loop
      vertex 14.5465 3.75 4.86652
      vertex 15.3955 3.75 5.4
      vertex 14.5465 12 4.86652
    endloop
  endfacet
  facet normal -0.532032 1.7421e-015 0.846724
    outer loop
      vertex 14.5465 0.35 4.86652
      vertex 16.2055 -1.51901e-015 5.90898
      vertex 15.3955 0.35 5.4
    endloop
  endfacet
  facet normal -0.532032 2.14869e-015 0.846724
    outer loop
      vertex 14.5465 -1.75048e-015 4.86652
      vertex 16.2055 -1.51901e-015 5.90898
      vertex 14.5465 0.35 4.86652
    endloop
  endfacet
  facet normal -0.532032 2.77965e-016 0.846724
    outer loop
      vertex 15.3955 3.75 5.4
      vertex 15.3955 0.35 5.4
      vertex 16.2055 -1.51901e-015 5.90898
    endloop
  endfacet
  facet normal -0.330279 2.39525e-015 0.943883
    outer loop
      vertex 14.5465 -1.75048e-015 4.86652
      vertex 14.5465 0.35 4.86652
      vertex 12.6971 0.35 4.21938
    endloop
  endfacet
  facet normal -0.330279 2.39525e-015 0.943883
    outer loop
      vertex 12.6971 -1.89418e-015 4.21938
      vertex 14.5465 -1.75048e-015 4.86652
      vertex 12.6971 0.35 4.21938
    endloop
  endfacet
  facet normal -0.111965 2.5217e-015 0.993712
    outer loop
      vertex 12.6971 -1.89418e-015 4.21938
      vertex 12.6971 0.35 4.21938
      vertex 10.75 0.35 4
    endloop
  endfacet
  facet normal -0.111965 2.5217e-015 0.993712
    outer loop
      vertex 10.75 -1.94289e-015 4
      vertex 12.6971 -1.89418e-015 4.21938
      vertex 10.75 0.35 4
    endloop
  endfacet
  facet normal 0.111965 2.5217e-015 0.993712
    outer loop
      vertex 10.75 -1.94289e-015 4
      vertex 10.75 0.35 4
      vertex 8.80294 0.35 4.21938
    endloop
  endfacet
  facet normal 0.111965 2.5217e-015 0.993712
    outer loop
      vertex 8.80294 -1.89418e-015 4.21938
      vertex 10.75 -1.94289e-015 4
      vertex 8.80294 0.35 4.21938
    endloop
  endfacet
  facet normal 0.330279 2.39525e-015 0.943883
    outer loop
      vertex 8.80294 -1.89418e-015 4.21938
      vertex 8.80294 0.35 4.21938
      vertex 6.95352 0.35 4.86652
    endloop
  endfacet
  facet normal 0.330279 2.39525e-015 0.943883
    outer loop
      vertex 6.95352 -1.75048e-015 4.86652
      vertex 8.80294 -1.89418e-015 4.21938
      vertex 6.95352 0.35 4.86652
    endloop
  endfacet
  facet normal 0.532032 2.77965e-016 0.846724
    outer loop
      vertex 6.10449 3.75 5.4
      vertex 5.29446 12 5.90897
      vertex 6.10449 0.35 5.4
    endloop
  endfacet
  facet normal 0.532032 2.14869e-015 0.846724
    outer loop
      vertex 6.95352 -1.75048e-015 4.86652
      vertex 6.95352 0.35 4.86652
      vertex 6.10449 0.35 5.4
    endloop
  endfacet
  facet normal 0.532032 1.29513e-015 0.846724
    outer loop
      vertex 5.29446 -1.51901e-015 5.90898
      vertex 6.95352 -1.75048e-015 4.86652
      vertex 6.10449 0.35 5.4
    endloop
  endfacet
  facet normal 0.532032 1.82313e-016 0.846724
    outer loop
      vertex 6.95352 3.75 4.86652
      vertex 6.95352 12 4.86652
      vertex 6.10449 3.75 5.4
    endloop
  endfacet
  facet normal 0.532032 1.04825e-016 0.846724
    outer loop
      vertex 6.95352 12 4.86652
      vertex 5.29446 12 5.90897
      vertex 6.10449 3.75 5.4
    endloop
  endfacet
  facet normal 0.532032 1.8801e-016 0.846724
    outer loop
      vertex 5.29446 12 5.90897
      vertex 5.29446 -1.51901e-015 5.90898
      vertex 6.10449 0.35 5.4
    endloop
  endfacet
  facet normal 0.330279 2.03233e-016 0.943883
    outer loop
      vertex 8.80294 3.75 4.21938
      vertex 8.80294 12 4.21938
      vertex 6.95352 12 4.86652
    endloop
  endfacet
  facet normal 0.330279 2.03233e-016 0.943883
    outer loop
      vertex 6.95352 3.75 4.86652
      vertex 8.80294 3.75 4.21938
      vertex 6.95352 12 4.86652
    endloop
  endfacet
  facet normal 0.111965 2.13962e-016 0.993712
    outer loop
      vertex 10.75 3.75 4
      vertex 10.75 12 4
      vertex 8.80294 12 4.21938
    endloop
  endfacet
  facet normal 0.111965 2.13962e-016 0.993712
    outer loop
      vertex 8.80294 3.75 4.21938
      vertex 10.75 3.75 4
      vertex 8.80294 12 4.21938
    endloop
  endfacet
  facet normal -0.111965 2.13962e-016 0.993712
    outer loop
      vertex 12.6971 3.75 4.21938
      vertex 12.6971 12 4.21938
      vertex 10.75 12 4
    endloop
  endfacet
  facet normal -0.111965 2.13962e-016 0.993712
    outer loop
      vertex 10.75 3.75 4
      vertex 12.6971 3.75 4.21938
      vertex 10.75 12 4
    endloop
  endfacet
  facet normal -0.330279 2.03233e-016 0.943883
    outer loop
      vertex 14.5465 3.75 4.86652
      vertex 14.5465 12 4.86652
      vertex 12.6971 12 4.21938
    endloop
  endfacet
  facet normal -0.330279 2.03233e-016 0.943883
    outer loop
      vertex 12.6971 3.75 4.21938
      vertex 14.5465 3.75 4.86652
      vertex 12.6971 12 4.21938
    endloop
  endfacet
  facet normal 0.943883 0 -0.330279
    outer loop
      vertex 2.71904 7.49401e-016 16.125
      vertex 2.21938 12 14.6971
      vertex 2.71904 12 16.125
    endloop
  endfacet
  facet normal 3.67189e-016 -6.84897e-016 -1.28485e-016
    outer loop
      vertex 2.71904 12 16.125
      vertex 2.21938 12 14.6971
      vertex 2.86652 12 16.5465
    endloop
  endfacet
  facet normal 0.943883 -9.77821e-017 -0.330279
    outer loop
      vertex 2.21938 4.32334e-016 14.6971
      vertex 2.21938 12 14.6971
      vertex 2.71904 7.49401e-016 16.125
    endloop
  endfacet
  facet normal -0 -1.21292e-015 0
    outer loop
      vertex 3.46566 12 17.5
      vertex 2.86652 12 16.5465
      vertex 3.90897 12 18.2055
    endloop
  endfacet
  facet normal -0 -2.14759e-015 0
    outer loop
      vertex 5.20344 12 19.5
      vertex 3.90897 12 18.2055
      vertex 5.29446 12 19.591
    endloop
  endfacet
  facet normal 0 0 0
    outer loop
      vertex 16.2055 12 19.591
      vertex 17.591 12 18.2055
      vertex 16.2966 12 19.5
    endloop
  endfacet
  facet normal 4.55333e-016 -1.16305e-015 2.86105e-016
    outer loop
      vertex 17.591 12 18.2055
      vertex 18.6335 12 16.5465
      vertex 18.0343 12 17.5
    endloop
  endfacet
  facet normal -0.943883 -9.77821e-017 -0.330279
    outer loop
      vertex 19.2806 12 14.6971
      vertex 19.2806 4.32334e-016 14.6971
      vertex 18.781 12 16.125
    endloop
  endfacet
  facet normal -9.60491e-016 -4.80031e-017 -3.3609e-016
    outer loop
      vertex 19.2806 12 14.6971
      vertex 18.781 12 16.125
      vertex 18.6335 12 16.5465
    endloop
  endfacet
  facet normal -0.943883 0 -0.330279
    outer loop
      vertex 18.781 12 16.125
      vertex 19.2806 4.32334e-016 14.6971
      vertex 18.781 7.49401e-016 16.125
    endloop
  endfacet
  facet normal 0.951057 9.14874e-017 0.309017
    outer loop
      vertex 20.5706 12 17.1224
      vertex 20.5706 9.70872e-016 17.1224
      vertex 21.2651 4.96281e-016 14.9851
    endloop
  endfacet
  facet normal 0.951057 9.14874e-017 0.309017
    outer loop
      vertex 21.2651 12 14.9851
      vertex 20.5706 12 17.1224
      vertex 21.2651 4.96281e-016 14.9851
    endloop
  endfacet
  facet normal 0 -5.1255e-016 0
    outer loop
      vertex 20.5706 12 17.1224
      vertex 19.4469 12 19.0687
      vertex 20.3526 12 17.5
    endloop
  endfacet
  facet normal 0.866025 2.56395e-016 0.5
    outer loop
      vertex 20.3526 1.05471e-015 17.5
      vertex 20.5706 9.70872e-016 17.1224
      vertex 20.3526 12 17.5
    endloop
  endfacet
  facet normal 0.866025 1.4803e-016 0.5
    outer loop
      vertex 20.5706 9.70872e-016 17.1224
      vertex 20.5706 12 17.1224
      vertex 20.3526 12 17.5
    endloop
  endfacet
  facet normal 0 3.56323e-016 0
    outer loop
      vertex 19.4469 12 19.0687
      vertex 17.9432 12 20.7388
      vertex 19.0586 12 19.5
    endloop
  endfacet
  facet normal 0 1.1704e-015 0
    outer loop
      vertex 2.05307 12 19.0687
      vertex 2.44142 12 19.5
      vertex 3.55685 12 20.7388
    endloop
  endfacet
  facet normal -0.866025 1.4803e-016 0.5
    outer loop
      vertex 0.929386 9.70872e-016 17.1224
      vertex 1.14738 1.05471e-015 17.5
      vertex 0.929386 12 17.1224
    endloop
  endfacet
  facet normal -0.866025 1.1117e-016 0.5
    outer loop
      vertex 0.929386 12 17.1224
      vertex 1.14738 1.05471e-015 17.5
      vertex 1.14738 12 17.5
    endloop
  endfacet
  facet normal 0 8.00067e-016 0
    outer loop
      vertex 0.929386 12 17.1224
      vertex 1.14738 12 17.5
      vertex 2.05307 12 19.0687
    endloop
  endfacet
  facet normal -0.951057 9.14874e-017 0.309017
    outer loop
      vertex 0.234913 4.96281e-016 14.9851
      vertex 0.929386 9.70872e-016 17.1224
      vertex 0.234913 12 14.9851
    endloop
  endfacet
  facet normal -0.951057 9.43504e-017 0.309017
    outer loop
      vertex 0.234913 12 14.9851
      vertex 0.929386 9.70872e-016 17.1224
      vertex 0.929386 12 17.1224
    endloop
  endfacet
  facet normal 0 0 7.66241e-016
    outer loop
      vertex 1.14738 12 17.5
      vertex 2.23791 12 17.5
      vertex 3.46566 12 17.5
    endloop
  endfacet
  facet normal 0 0 1
    outer loop
      vertex 2.23791 1.05471e-015 17.5
      vertex 2.23791 12 17.5
      vertex 1.14738 12 17.5
    endloop
  endfacet
  facet normal 0 0 1
    outer loop
      vertex 1.14738 1.05471e-015 17.5
      vertex 2.23791 1.05471e-015 17.5
      vertex 1.14738 12 17.5
    endloop
  endfacet
  facet normal 0.943883 0 0.330279
    outer loop
      vertex 2.23791 1.05471e-015 17.5
      vertex 2.71904 7.49401e-016 16.125
      vertex 2.71904 12 16.125
    endloop
  endfacet
  facet normal 0.943883 6.98614e-017 0.330279
    outer loop
      vertex 2.23791 12 17.5
      vertex 2.23791 1.05471e-015 17.5
      vertex 2.71904 12 16.125
    endloop
  endfacet
  facet normal 0.943883 4.88911e-017 0.330279
    outer loop
      vertex 2.86652 -8.42989e-016 8.95352
      vertex 2.86652 12 8.95352
      vertex 2.21938 12 10.8029
    endloop
  endfacet
  facet normal 0.943883 4.88911e-017 0.330279
    outer loop
      vertex 2.21938 -4.32334e-016 10.8029
      vertex 2.86652 -8.42989e-016 8.95352
      vertex 2.21938 12 10.8029
    endloop
  endfacet
  facet normal 0.846724 1.18135e-016 0.532032
    outer loop
      vertex 3.90897 -1.21137e-015 7.29446
      vertex 3.90897 12 7.29446
      vertex 2.86652 12 8.95352
    endloop
  endfacet
  facet normal 0.846724 7.87566e-017 0.532032
    outer loop
      vertex 2.86652 -8.42989e-016 8.95352
      vertex 3.90897 -1.21137e-015 7.29446
      vertex 2.86652 12 8.95352
    endloop
  endfacet
  facet normal 0.707107 1.57009e-016 0.707107
    outer loop
      vertex 5.29446 -1.51901e-015 5.90898
      vertex 5.29446 12 5.90897
      vertex 3.90897 12 7.29446
    endloop
  endfacet
  facet normal 0.707107 1.57009e-016 0.707107
    outer loop
      vertex 3.90897 -1.21137e-015 7.29446
      vertex 5.29446 -1.51901e-015 5.90898
      vertex 3.90897 12 7.29446
    endloop
  endfacet
  facet normal -0.707107 1.57009e-016 0.707107
    outer loop
      vertex 17.591 12 7.29446
      vertex 16.2055 12 5.90897
      vertex 17.591 -1.21137e-015 7.29446
    endloop
  endfacet
  facet normal -0.707107 1.57007e-016 0.707107
    outer loop
      vertex 17.591 -1.21137e-015 7.29446
      vertex 16.2055 12 5.90897
      vertex 16.2055 -1.51901e-015 5.90898
    endloop
  endfacet
  facet normal -0.846724 7.87566e-017 0.532032
    outer loop
      vertex 18.6335 12 8.95352
      vertex 17.591 12 7.29446
      vertex 18.6335 -8.42989e-016 8.95352
    endloop
  endfacet
  facet normal -0.846724 1.18136e-016 0.532032
    outer loop
      vertex 18.6335 -8.42989e-016 8.95352
      vertex 17.591 12 7.29446
      vertex 17.591 -1.21137e-015 7.29446
    endloop
  endfacet
  facet normal -0.943883 4.88911e-017 0.330279
    outer loop
      vertex 19.2806 12 10.8029
      vertex 18.6335 12 8.95352
      vertex 19.2806 -4.32334e-016 10.8029
    endloop
  endfacet
  facet normal -0.943883 4.58321e-017 0.330279
    outer loop
      vertex 19.2806 -4.32334e-016 10.8029
      vertex 18.6335 12 8.95352
      vertex 18.6335 -8.42989e-016 8.95352
    endloop
  endfacet
  facet normal -0.943883 0 0.330279
    outer loop
      vertex 19.2621 12 17.5
      vertex 18.781 12 16.125
      vertex 19.2621 1.05471e-015 17.5
    endloop
  endfacet
  facet normal -0.943883 0 0.330279
    outer loop
      vertex 19.2621 1.05471e-015 17.5
      vertex 18.781 12 16.125
      vertex 18.781 7.49401e-016 16.125
    endloop
  endfacet
  facet normal -0 0 1
    outer loop
      vertex 20.3526 1.05471e-015 17.5
      vertex 19.2621 12 17.5
      vertex 19.2621 1.05471e-015 17.5
    endloop
  endfacet
  facet normal 0 -0 1
    outer loop
      vertex 20.3526 12 17.5
      vertex 19.2621 12 17.5
      vertex 20.3526 1.05471e-015 17.5
    endloop
  endfacet
  facet normal 0 0 4.05799e-016
    outer loop
      vertex 18.0343 12 17.5
      vertex 19.2621 12 17.5
      vertex 20.3526 12 17.5
    endloop
  endfacet
  facet normal 0 -1 -0
    outer loop
      vertex 2.71904 12 16.125
      vertex 2.86652 12 16.5465
      vertex 2.23791 12 17.5
    endloop
  endfacet
  facet normal 0 -1 0
    outer loop
      vertex 2.23791 12 17.5
      vertex 2.86652 12 16.5465
      vertex 3.46566 12 17.5
    endloop
  endfacet
  facet normal 0 -1 -0
    outer loop
      vertex 3.46566 12 17.5
      vertex 3.90897 12 18.2055
      vertex 2.44142 12 19.5
    endloop
  endfacet
  facet normal 0 -1 0
    outer loop
      vertex 2.44142 12 19.5
      vertex 3.90897 12 18.2055
      vertex 5.20344 12 19.5
    endloop
  endfacet
  facet normal 0 -1 0
    outer loop
      vertex 3.46566 12 17.5
      vertex 2.44142 12 19.5
      vertex 2.05307 12 19.0687
    endloop
  endfacet
  facet normal 0 -1 0
    outer loop
      vertex 3.46566 12 17.5
      vertex 2.05307 12 19.0687
      vertex 1.14738 12 17.5
    endloop
  endfacet
  facet normal 0 -1 0
    outer loop
      vertex 9.62632 12 23.4411
      vertex 5.29446 12 19.591
      vertex 6.95352 12 20.6335
    endloop
  endfacet
  facet normal 0 -1 -0
    outer loop
      vertex 10.75 12 21.5
      vertex 14.0719 12 22.9739
      vertex 8.80294 12 21.2806
    endloop
  endfacet
  facet normal 0 -1 -0
    outer loop
      vertex 8.80294 12 21.2806
      vertex 11.8737 12 23.4411
      vertex 6.95352 12 20.6335
    endloop
  endfacet
  facet normal 0 -1 0
    outer loop
      vertex 5.20344 12 19.5
      vertex 5.29446 12 19.591
      vertex 7.42807 12 22.9739
    endloop
  endfacet
  facet normal -0 -1 -0
    outer loop
      vertex 12.6971 12 21.2806
      vertex 17.9432 12 20.7388
      vertex 10.75 12 21.5
    endloop
  endfacet
  facet normal -0 -1 -0
    outer loop
      vertex 14.5465 12 20.6335
      vertex 19.0586 12 19.5
      vertex 12.6971 12 21.2806
    endloop
  endfacet
  facet normal -0 -1 -0
    outer loop
      vertex 16.2055 12 19.591
      vertex 19.0586 12 19.5
      vertex 14.5465 12 20.6335
    endloop
  endfacet
  facet normal -0 -1 -0
    outer loop
      vertex 16.2966 12 19.5
      vertex 19.0586 12 19.5
      vertex 16.2055 12 19.591
    endloop
  endfacet
  facet normal 0 -1 0
    outer loop
      vertex 19.0586 12 19.5
      vertex 17.9432 12 20.7388
      vertex 12.6971 12 21.2806
    endloop
  endfacet
  facet normal 0 -1 0
    outer loop
      vertex 17.9432 12 20.7388
      vertex 16.125 12 22.0598
      vertex 10.75 12 21.5
    endloop
  endfacet
  facet normal 0 -1 0
    outer loop
      vertex 16.125 12 22.0598
      vertex 14.0719 12 22.9739
      vertex 10.75 12 21.5
    endloop
  endfacet
  facet normal 0 -1 0
    outer loop
      vertex 14.0719 12 22.9739
      vertex 11.8737 12 23.4411
      vertex 8.80294 12 21.2806
    endloop
  endfacet
  facet normal 0 -1 0
    outer loop
      vertex 11.8737 12 23.4411
      vertex 9.62632 12 23.4411
      vertex 6.95352 12 20.6335
    endloop
  endfacet
  facet normal 0 -1 0
    outer loop
      vertex 9.62632 12 23.4411
      vertex 7.42807 12 22.9739
      vertex 5.29446 12 19.591
    endloop
  endfacet
  facet normal 0 -1 0
    outer loop
      vertex 7.42807 12 22.9739
      vertex 5.375 12 22.0598
      vertex 5.20344 12 19.5
    endloop
  endfacet
  facet normal 0 -1 0
    outer loop
      vertex 5.375 12 22.0598
      vertex 3.55685 12 20.7388
      vertex 5.20344 12 19.5
    endloop
  endfacet
  facet normal 0 -1 0
    outer loop
      vertex 3.55685 12 20.7388
      vertex 2.44142 12 19.5
      vertex 5.20344 12 19.5
    endloop
  endfacet
  facet normal 0 -1 0
    outer loop
      vertex 17.591 12 18.2055
      vertex 18.0343 12 17.5
      vertex 20.3526 12 17.5
    endloop
  endfacet
  facet normal 0 -1 0
    outer loop
      vertex 19.0586 12 19.5
      vertex 17.591 12 18.2055
      vertex 19.4469 12 19.0687
    endloop
  endfacet
  facet normal 0 -1 0
    outer loop
      vertex 19.4469 12 19.0687
      vertex 17.591 12 18.2055
      vertex 20.3526 12 17.5
    endloop
  endfacet
  facet normal 0 -1 0
    outer loop
      vertex 16.2966 12 19.5
      vertex 17.591 12 18.2055
      vertex 19.0586 12 19.5
    endloop
  endfacet
  facet normal -0 -1 0
    outer loop
      vertex 18.6335 12 16.5465
      vertex 18.781 12 16.125
      vertex 19.2621 12 17.5
    endloop
  endfacet
  facet normal 0 -1 0
    outer loop
      vertex 18.0343 12 17.5
      vertex 18.6335 12 16.5465
      vertex 19.2621 12 17.5
    endloop
  endfacet
endsolid OpenSCAD_Model
