solid OpenSCAD_Model
  facet normal 0 0 -1
    outer loop
      vertex -36.5 0 0
      vertex -35.7024 7.58878 0
      vertex -35.7024 -7.58878 0
    endloop
  endfacet
  facet normal 0 0 -1
    outer loop
      vertex -35.7024 -7.58878 0
      vertex -35.7024 7.58878 0
      vertex -33.3444 14.8459 0
    endloop
  endfacet
  facet normal 0 0 -1
    outer loop
      vertex -31.5173 14.0324 0
      vertex -33.3444 14.8459 0
      vertex -29.5291 21.4542 0
    endloop
  endfacet
  facet normal 0 0 -1
    outer loop
      vertex -27.9111 20.2786 0
      vertex -29.5291 21.4542 0
      vertex -24.4233 27.1248 0
    endloop
  endfacet
  facet normal 0 0 -1
    outer loop
      vertex -23.085 25.6385 0
      vertex -24.4233 27.1248 0
      vertex -18.25 31.6099 0
    endloop
  endfacet
  facet normal 0 0 -1
    outer loop
      vertex -17.25 29.8779 0
      vertex -18.25 31.6099 0
      vertex -11.2791 34.7136 0
    endloop
  endfacet
  facet normal 0 0 -1
    outer loop
      vertex -10.6611 32.8115 0
      vertex -11.2791 34.7136 0
      vertex -3.81529 36.3 0
    endloop
  endfacet
  facet normal 0 0 -1
    outer loop
      vertex -3.60623 34.311 0
      vertex -3.81529 36.3 0
      vertex 3.81529 36.3 0
    endloop
  endfacet
  facet normal 0 0 -1
    outer loop
      vertex 3.60623 34.311 0
      vertex 3.81529 36.3 0
      vertex 11.2791 34.7136 0
    endloop
  endfacet
  facet normal 0 0 -1
    outer loop
      vertex 10.6611 32.8115 0
      vertex 11.2791 34.7136 0
      vertex 18.25 31.6099 0
    endloop
  endfacet
  facet normal 0 0 -1
    outer loop
      vertex 17.25 29.8779 0
      vertex 18.25 31.6099 0
      vertex 24.4233 27.1248 0
    endloop
  endfacet
  facet normal 0 0 -1
    outer loop
      vertex 23.085 25.6385 0
      vertex 24.4233 27.1248 0
      vertex 29.5291 21.4542 0
    endloop
  endfacet
  facet normal 0 0 -1
    outer loop
      vertex 27.9111 20.2786 0
      vertex 29.5291 21.4542 0
      vertex 33.3444 14.8459 0
    endloop
  endfacet
  facet normal 0 0 -1
    outer loop
      vertex 31.5173 14.0324 0
      vertex 33.3444 14.8459 0
      vertex 35.7024 7.58878 0
    endloop
  endfacet
  facet normal 0 0 -1
    outer loop
      vertex 34.5 0 0
      vertex 35.7024 7.58878 0
      vertex 36.5 0 0
    endloop
  endfacet
  facet normal 0 0 -1
    outer loop
      vertex 33.7461 -7.17295 0
      vertex 36.5 0 0
      vertex 35.7024 -7.58878 0
    endloop
  endfacet
  facet normal 0 0 -1
    outer loop
      vertex 31.5173 -14.0324 0
      vertex 35.7024 -7.58878 0
      vertex 33.3444 -14.8459 0
    endloop
  endfacet
  facet normal 0 0 -1
    outer loop
      vertex 27.9111 -20.2786 0
      vertex 33.3444 -14.8459 0
      vertex 29.5291 -21.4542 0
    endloop
  endfacet
  facet normal 0 0 -1
    outer loop
      vertex 23.085 -25.6385 0
      vertex 29.5291 -21.4542 0
      vertex 24.4233 -27.1248 0
    endloop
  endfacet
  facet normal 0 0 -1
    outer loop
      vertex 17.25 -29.8779 0
      vertex 24.4233 -27.1248 0
      vertex 18.25 -31.6099 0
    endloop
  endfacet
  facet normal 0 0 -1
    outer loop
      vertex 10.6611 -32.8115 0
      vertex 18.25 -31.6099 0
      vertex 11.2791 -34.7136 0
    endloop
  endfacet
  facet normal 0 0 -1
    outer loop
      vertex 3.60623 -34.311 0
      vertex 11.2791 -34.7136 0
      vertex 3.81529 -36.3 0
    endloop
  endfacet
  facet normal 0 0 -1
    outer loop
      vertex -3.60623 -34.311 0
      vertex 3.81529 -36.3 0
      vertex -3.81529 -36.3 0
    endloop
  endfacet
  facet normal 0 0 -1
    outer loop
      vertex -10.6611 -32.8115 0
      vertex -3.81529 -36.3 0
      vertex -11.2791 -34.7136 0
    endloop
  endfacet
  facet normal 0 0 -1
    outer loop
      vertex -17.25 -29.8779 0
      vertex -11.2791 -34.7136 0
      vertex -18.25 -31.6099 0
    endloop
  endfacet
  facet normal 0 0 -1
    outer loop
      vertex -27.9111 -20.2786 0
      vertex -18.25 -31.6099 0
      vertex -24.4233 -27.1248 0
    endloop
  endfacet
  facet normal 0 0 -1
    outer loop
      vertex -35.7024 -7.58878 0
      vertex -24.4233 -27.1248 0
      vertex -29.5291 -21.4542 0
    endloop
  endfacet
  facet normal 0 0 -1
    outer loop
      vertex -35.7024 -7.58878 0
      vertex -29.5291 -21.4542 0
      vertex -33.3444 -14.8459 0
    endloop
  endfacet
  facet normal 0 0 -1
    outer loop
      vertex -35.7024 -7.58878 0
      vertex -33.3444 14.8459 0
      vertex -34.5 0 0
    endloop
  endfacet
  facet normal 0 0 -1
    outer loop
      vertex -3.60623 -34.311 0
      vertex -3.81529 -36.3 0
      vertex -10.6611 -32.8115 0
    endloop
  endfacet
  facet normal 0 0 -1
    outer loop
      vertex -31.5173 -14.0324 0
      vertex -35.7024 -7.58878 0
      vertex -33.7461 -7.17295 0
    endloop
  endfacet
  facet normal 0 0 -1
    outer loop
      vertex -17.25 -29.8779 0
      vertex -18.25 -31.6099 0
      vertex -23.085 -25.6385 0
    endloop
  endfacet
  facet normal 0 0 -1
    outer loop
      vertex -35.7024 -7.58878 0
      vertex -31.5173 -14.0324 0
      vertex -24.4233 -27.1248 0
    endloop
  endfacet
  facet normal 0 0 -1
    outer loop
      vertex -23.085 -25.6385 0
      vertex -18.25 -31.6099 0
      vertex -27.9111 -20.2786 0
    endloop
  endfacet
  facet normal 0 0 -1
    outer loop
      vertex -31.5173 -14.0324 0
      vertex -27.9111 -20.2786 0
      vertex -24.4233 -27.1248 0
    endloop
  endfacet
  facet normal 0 0 -1
    outer loop
      vertex 33.7461 7.17295 0
      vertex 35.7024 7.58878 0
      vertex 34.5 0 0
    endloop
  endfacet
  facet normal 0 0 -1
    outer loop
      vertex 27.9111 20.2786 0
      vertex 33.3444 14.8459 0
      vertex 31.5173 14.0324 0
    endloop
  endfacet
  facet normal 0 0 -1
    outer loop
      vertex 31.5173 14.0324 0
      vertex 35.7024 7.58878 0
      vertex 33.7461 7.17295 0
    endloop
  endfacet
  facet normal 0 0 -1
    outer loop
      vertex 34.5 0 0
      vertex 36.5 0 0
      vertex 33.7461 -7.17295 0
    endloop
  endfacet
  facet normal 0 0 -1
    outer loop
      vertex 33.7461 -7.17295 0
      vertex 35.7024 -7.58878 0
      vertex 31.5173 -14.0324 0
    endloop
  endfacet
  facet normal 0 0 -1
    outer loop
      vertex 31.5173 -14.0324 0
      vertex 33.3444 -14.8459 0
      vertex 27.9111 -20.2786 0
    endloop
  endfacet
  facet normal 0 0 -1
    outer loop
      vertex 27.9111 -20.2786 0
      vertex 29.5291 -21.4542 0
      vertex 23.085 -25.6385 0
    endloop
  endfacet
  facet normal 0 0 -1
    outer loop
      vertex 23.085 -25.6385 0
      vertex 24.4233 -27.1248 0
      vertex 17.25 -29.8779 0
    endloop
  endfacet
  facet normal 0 0 -1
    outer loop
      vertex 17.25 -29.8779 0
      vertex 18.25 -31.6099 0
      vertex 10.6611 -32.8115 0
    endloop
  endfacet
  facet normal 0 0 -1
    outer loop
      vertex 10.6611 -32.8115 0
      vertex 11.2791 -34.7136 0
      vertex 3.60623 -34.311 0
    endloop
  endfacet
  facet normal 0 0 -1
    outer loop
      vertex 3.60623 -34.311 0
      vertex 3.81529 -36.3 0
      vertex -3.60623 -34.311 0
    endloop
  endfacet
  facet normal 0 0 -1
    outer loop
      vertex -33.7461 7.17295 0
      vertex -33.3444 14.8459 0
      vertex -31.5173 14.0324 0
    endloop
  endfacet
  facet normal 0 0 -1
    outer loop
      vertex -34.5 0 0
      vertex -33.3444 14.8459 0
      vertex -33.7461 7.17295 0
    endloop
  endfacet
  facet normal 0 0 -1
    outer loop
      vertex -33.7461 -7.17295 0
      vertex -35.7024 -7.58878 0
      vertex -34.5 0 0
    endloop
  endfacet
  facet normal 0 0 -1
    outer loop
      vertex -31.5173 14.0324 0
      vertex -29.5291 21.4542 0
      vertex -27.9111 20.2786 0
    endloop
  endfacet
  facet normal 0 0 -1
    outer loop
      vertex -27.9111 20.2786 0
      vertex -24.4233 27.1248 0
      vertex -23.085 25.6385 0
    endloop
  endfacet
  facet normal 0 0 -1
    outer loop
      vertex -23.085 25.6385 0
      vertex -18.25 31.6099 0
      vertex -17.25 29.8779 0
    endloop
  endfacet
  facet normal 0 0 -1
    outer loop
      vertex -17.25 29.8779 0
      vertex -11.2791 34.7136 0
      vertex -10.6611 32.8115 0
    endloop
  endfacet
  facet normal 0 0 -1
    outer loop
      vertex -10.6611 32.8115 0
      vertex -3.81529 36.3 0
      vertex -3.60623 34.311 0
    endloop
  endfacet
  facet normal 0 0 -1
    outer loop
      vertex -3.60623 34.311 0
      vertex 3.81529 36.3 0
      vertex 3.60623 34.311 0
    endloop
  endfacet
  facet normal 0 0 -1
    outer loop
      vertex 3.60623 34.311 0
      vertex 11.2791 34.7136 0
      vertex 10.6611 32.8115 0
    endloop
  endfacet
  facet normal 0 0 -1
    outer loop
      vertex 10.6611 32.8115 0
      vertex 18.25 31.6099 0
      vertex 17.25 29.8779 0
    endloop
  endfacet
  facet normal 0 0 -1
    outer loop
      vertex 17.25 29.8779 0
      vertex 24.4233 27.1248 0
      vertex 23.085 25.6385 0
    endloop
  endfacet
  facet normal 0 0 -1
    outer loop
      vertex 23.085 25.6385 0
      vertex 29.5291 21.4542 0
      vertex 27.9111 20.2786 0
    endloop
  endfacet
  facet normal 0 0 -1
    outer loop
      vertex -10.6611 -32.8115 0
      vertex -11.2791 -34.7136 0
      vertex -17.25 -29.8779 0
    endloop
  endfacet
  facet normal -0.994522 0.104529 0
    outer loop
      vertex -36.5 0 0
      vertex -36.5 0 18.1
      vertex -35.7024 7.58878 0
    endloop
  endfacet
  facet normal -0.994522 0.104529 0
    outer loop
      vertex -35.7024 7.58878 0
      vertex -36.5 0 18.1
      vertex -35.7024 7.58878 18.1
    endloop
  endfacet
  facet normal -0.994522 -0.104529 0
    outer loop
      vertex -36.5 0 0
      vertex -35.7024 -7.58878 0
      vertex -36.5 0 18.1
    endloop
  endfacet
  facet normal -0.994522 -0.104529 0
    outer loop
      vertex -36.5 0 18.1
      vertex -35.7024 -7.58878 0
      vertex -35.7024 -7.58878 18.1
    endloop
  endfacet
  facet normal -0.951057 -0.309017 0
    outer loop
      vertex -35.7024 -7.58878 0
      vertex -33.3444 -14.8459 0
      vertex -35.7024 -7.58878 18.1
    endloop
  endfacet
  facet normal -0.951057 -0.309017 0
    outer loop
      vertex -35.7024 -7.58878 18.1
      vertex -33.3444 -14.8459 0
      vertex -33.3444 -14.8459 18.1
    endloop
  endfacet
  facet normal -0.866025 -0.5 0
    outer loop
      vertex -33.3444 -14.8459 0
      vertex -29.5291 -21.4542 0
      vertex -33.3444 -14.8459 18.1
    endloop
  endfacet
  facet normal -0.866025 -0.5 0
    outer loop
      vertex -33.3444 -14.8459 18.1
      vertex -29.5291 -21.4542 0
      vertex -29.5291 -21.4542 18.1
    endloop
  endfacet
  facet normal -0.743145 -0.669131 0
    outer loop
      vertex -29.5291 -21.4542 0
      vertex -24.4233 -27.1248 0
      vertex -29.5291 -21.4542 18.1
    endloop
  endfacet
  facet normal -0.743145 -0.669131 0
    outer loop
      vertex -29.5291 -21.4542 18.1
      vertex -24.4233 -27.1248 0
      vertex -24.4233 -27.1248 18.1
    endloop
  endfacet
  facet normal -0.587785 -0.809017 0
    outer loop
      vertex -24.4233 -27.1248 18.1
      vertex -24.4233 -27.1248 0
      vertex -18.25 -31.6099 0
    endloop
  endfacet
  facet normal -0.587785 -0.809017 0
    outer loop
      vertex -18.25 -31.6099 18.1
      vertex -24.4233 -27.1248 18.1
      vertex -18.25 -31.6099 0
    endloop
  endfacet
  facet normal -0.406737 -0.913545 0
    outer loop
      vertex -18.25 -31.6099 18.1
      vertex -18.25 -31.6099 0
      vertex -11.2791 -34.7136 0
    endloop
  endfacet
  facet normal -0.406737 -0.913545 0
    outer loop
      vertex -11.2791 -34.7136 18.1
      vertex -18.25 -31.6099 18.1
      vertex -11.2791 -34.7136 0
    endloop
  endfacet
  facet normal -0.207912 -0.978148 0
    outer loop
      vertex -11.2791 -34.7136 18.1
      vertex -11.2791 -34.7136 0
      vertex -3.81529 -36.3 0
    endloop
  endfacet
  facet normal -0.207912 -0.978148 0
    outer loop
      vertex -3.81529 -36.3 18.1
      vertex -11.2791 -34.7136 18.1
      vertex -3.81529 -36.3 0
    endloop
  endfacet
  facet normal 0 -1 0
    outer loop
      vertex -3.81529 -36.3 18.1
      vertex -3.81529 -36.3 0
      vertex 3.81529 -36.3 0
    endloop
  endfacet
  facet normal 0 -1 0
    outer loop
      vertex 3.81529 -36.3 18.1
      vertex -3.81529 -36.3 18.1
      vertex 3.81529 -36.3 0
    endloop
  endfacet
  facet normal 0.207912 -0.978148 0
    outer loop
      vertex 3.81529 -36.3 18.1
      vertex 3.81529 -36.3 0
      vertex 11.2791 -34.7136 0
    endloop
  endfacet
  facet normal 0.207912 -0.978148 0
    outer loop
      vertex 11.2791 -34.7136 18.1
      vertex 3.81529 -36.3 18.1
      vertex 11.2791 -34.7136 0
    endloop
  endfacet
  facet normal 0.406737 -0.913545 0
    outer loop
      vertex 11.2791 -34.7136 18.1
      vertex 11.2791 -34.7136 0
      vertex 18.25 -31.6099 0
    endloop
  endfacet
  facet normal 0.406737 -0.913545 0
    outer loop
      vertex 18.25 -31.6099 18.1
      vertex 11.2791 -34.7136 18.1
      vertex 18.25 -31.6099 0
    endloop
  endfacet
  facet normal 0.587785 -0.809017 0
    outer loop
      vertex 18.25 -31.6099 18.1
      vertex 18.25 -31.6099 0
      vertex 24.4233 -27.1248 0
    endloop
  endfacet
  facet normal 0.587785 -0.809017 0
    outer loop
      vertex 24.4233 -27.1248 18.1
      vertex 18.25 -31.6099 18.1
      vertex 24.4233 -27.1248 0
    endloop
  endfacet
  facet normal 0.743145 -0.669131 0
    outer loop
      vertex 24.4233 -27.1248 18.1
      vertex 24.4233 -27.1248 0
      vertex 29.5291 -21.4542 0
    endloop
  endfacet
  facet normal 0.743145 -0.669131 0
    outer loop
      vertex 29.5291 -21.4542 18.1
      vertex 24.4233 -27.1248 18.1
      vertex 29.5291 -21.4542 0
    endloop
  endfacet
  facet normal 0.866025 -0.5 0
    outer loop
      vertex 29.5291 -21.4542 18.1
      vertex 29.5291 -21.4542 0
      vertex 33.3444 -14.8459 0
    endloop
  endfacet
  facet normal 0.866025 -0.5 0
    outer loop
      vertex 33.3444 -14.8459 18.1
      vertex 29.5291 -21.4542 18.1
      vertex 33.3444 -14.8459 0
    endloop
  endfacet
  facet normal 0.951057 -0.309017 0
    outer loop
      vertex 33.3444 -14.8459 18.1
      vertex 33.3444 -14.8459 0
      vertex 35.7024 -7.58878 0
    endloop
  endfacet
  facet normal 0.951057 -0.309017 0
    outer loop
      vertex 35.7024 -7.58878 18.1
      vertex 33.3444 -14.8459 18.1
      vertex 35.7024 -7.58878 0
    endloop
  endfacet
  facet normal 0.994522 -0.104529 0
    outer loop
      vertex 35.7024 -7.58878 18.1
      vertex 35.7024 -7.58878 0
      vertex 36.5 0 0
    endloop
  endfacet
  facet normal 0.994522 -0.104529 0
    outer loop
      vertex 36.5 0 18.1
      vertex 35.7024 -7.58878 18.1
      vertex 36.5 0 0
    endloop
  endfacet
  facet normal 0.994522 0.104529 0
    outer loop
      vertex 36.5 0 0
      vertex 35.7024 7.58878 0
      vertex 35.7024 7.58878 18.1
    endloop
  endfacet
  facet normal 0.994522 0.104529 0
    outer loop
      vertex 36.5 0 18.1
      vertex 36.5 0 0
      vertex 35.7024 7.58878 18.1
    endloop
  endfacet
  facet normal 0.951057 0.309017 0
    outer loop
      vertex 35.7024 7.58878 0
      vertex 33.3444 14.8459 0
      vertex 33.3444 14.8459 18.1
    endloop
  endfacet
  facet normal 0.951057 0.309017 0
    outer loop
      vertex 35.7024 7.58878 18.1
      vertex 35.7024 7.58878 0
      vertex 33.3444 14.8459 18.1
    endloop
  endfacet
  facet normal 0.866025 0.5 0
    outer loop
      vertex 33.3444 14.8459 0
      vertex 29.5291 21.4542 0
      vertex 29.5291 21.4542 18.1
    endloop
  endfacet
  facet normal 0.866025 0.5 0
    outer loop
      vertex 33.3444 14.8459 18.1
      vertex 33.3444 14.8459 0
      vertex 29.5291 21.4542 18.1
    endloop
  endfacet
  facet normal 0.743145 0.669131 0
    outer loop
      vertex 29.5291 21.4542 0
      vertex 24.4233 27.1248 0
      vertex 24.4233 27.1248 18.1
    endloop
  endfacet
  facet normal 0.743145 0.669131 0
    outer loop
      vertex 29.5291 21.4542 18.1
      vertex 29.5291 21.4542 0
      vertex 24.4233 27.1248 18.1
    endloop
  endfacet
  facet normal 0.587785 0.809017 0
    outer loop
      vertex 18.25 31.6099 0
      vertex 18.25 31.6099 18.1
      vertex 24.4233 27.1248 0
    endloop
  endfacet
  facet normal 0.587785 0.809017 0
    outer loop
      vertex 24.4233 27.1248 0
      vertex 18.25 31.6099 18.1
      vertex 24.4233 27.1248 18.1
    endloop
  endfacet
  facet normal 0.406737 0.913545 0
    outer loop
      vertex 11.2791 34.7136 0
      vertex 11.2791 34.7136 18.1
      vertex 18.25 31.6099 0
    endloop
  endfacet
  facet normal 0.406737 0.913545 0
    outer loop
      vertex 18.25 31.6099 0
      vertex 11.2791 34.7136 18.1
      vertex 18.25 31.6099 18.1
    endloop
  endfacet
  facet normal 0.207912 0.978148 0
    outer loop
      vertex 3.81529 36.3 0
      vertex 3.81529 36.3 18.1
      vertex 11.2791 34.7136 0
    endloop
  endfacet
  facet normal 0.207912 0.978148 0
    outer loop
      vertex 11.2791 34.7136 0
      vertex 3.81529 36.3 18.1
      vertex 11.2791 34.7136 18.1
    endloop
  endfacet
  facet normal 0 1 0
    outer loop
      vertex -3.81529 36.3 0
      vertex -3.81529 36.3 18.1
      vertex 3.81529 36.3 0
    endloop
  endfacet
  facet normal 0 1 0
    outer loop
      vertex 3.81529 36.3 0
      vertex -3.81529 36.3 18.1
      vertex 3.81529 36.3 18.1
    endloop
  endfacet
  facet normal -0.207912 0.978148 0
    outer loop
      vertex -11.2791 34.7136 0
      vertex -11.2791 34.7136 18.1
      vertex -3.81529 36.3 0
    endloop
  endfacet
  facet normal -0.207912 0.978148 0
    outer loop
      vertex -3.81529 36.3 0
      vertex -11.2791 34.7136 18.1
      vertex -3.81529 36.3 18.1
    endloop
  endfacet
  facet normal -0.406737 0.913545 0
    outer loop
      vertex -18.25 31.6099 0
      vertex -18.25 31.6099 18.1
      vertex -11.2791 34.7136 0
    endloop
  endfacet
  facet normal -0.406737 0.913545 0
    outer loop
      vertex -11.2791 34.7136 0
      vertex -18.25 31.6099 18.1
      vertex -11.2791 34.7136 18.1
    endloop
  endfacet
  facet normal -0.587785 0.809017 0
    outer loop
      vertex -24.4233 27.1248 0
      vertex -24.4233 27.1248 18.1
      vertex -18.25 31.6099 0
    endloop
  endfacet
  facet normal -0.587785 0.809017 0
    outer loop
      vertex -18.25 31.6099 0
      vertex -24.4233 27.1248 18.1
      vertex -18.25 31.6099 18.1
    endloop
  endfacet
  facet normal -0.743145 0.669131 0
    outer loop
      vertex -29.5291 21.4542 0
      vertex -29.5291 21.4542 18.1
      vertex -24.4233 27.1248 0
    endloop
  endfacet
  facet normal -0.743145 0.669131 0
    outer loop
      vertex -24.4233 27.1248 0
      vertex -29.5291 21.4542 18.1
      vertex -24.4233 27.1248 18.1
    endloop
  endfacet
  facet normal -0.866025 0.5 0
    outer loop
      vertex -33.3444 14.8459 0
      vertex -33.3444 14.8459 18.1
      vertex -29.5291 21.4542 0
    endloop
  endfacet
  facet normal -0.866025 0.5 0
    outer loop
      vertex -29.5291 21.4542 0
      vertex -33.3444 14.8459 18.1
      vertex -29.5291 21.4542 18.1
    endloop
  endfacet
  facet normal -0.951057 0.309017 0
    outer loop
      vertex -35.7024 7.58878 0
      vertex -35.7024 7.58878 18.1
      vertex -33.3444 14.8459 0
    endloop
  endfacet
  facet normal -0.951057 0.309017 0
    outer loop
      vertex -33.3444 14.8459 0
      vertex -35.7024 7.58878 18.1
      vertex -33.3444 14.8459 18.1
    endloop
  endfacet
  facet normal 0.994522 0.104528 0
    outer loop
      vertex -34.5 0 18.1
      vertex -33.7461 -7.17295 18.1
      vertex -33.7461 -7.17295 0
    endloop
  endfacet
  facet normal 0.994522 0.104528 0
    outer loop
      vertex -34.5 0 0
      vertex -34.5 0 18.1
      vertex -33.7461 -7.17295 0
    endloop
  endfacet
  facet normal 0.994522 -0.104528 0
    outer loop
      vertex -33.7461 7.17295 0
      vertex -33.7461 7.17295 18.1
      vertex -34.5 0 18.1
    endloop
  endfacet
  facet normal 0.994522 -0.104528 0
    outer loop
      vertex -34.5 0 0
      vertex -33.7461 7.17295 0
      vertex -34.5 0 18.1
    endloop
  endfacet
  facet normal 0.951057 -0.309017 0
    outer loop
      vertex -31.5173 14.0324 0
      vertex -31.5173 14.0324 18.1
      vertex -33.7461 7.17295 18.1
    endloop
  endfacet
  facet normal 0.951057 -0.309017 0
    outer loop
      vertex -33.7461 7.17295 0
      vertex -31.5173 14.0324 0
      vertex -33.7461 7.17295 18.1
    endloop
  endfacet
  facet normal 0.866025 -0.5 0
    outer loop
      vertex -27.9111 20.2786 0
      vertex -27.9111 20.2786 18.1
      vertex -31.5173 14.0324 18.1
    endloop
  endfacet
  facet normal 0.866025 -0.5 0
    outer loop
      vertex -31.5173 14.0324 0
      vertex -27.9111 20.2786 0
      vertex -31.5173 14.0324 18.1
    endloop
  endfacet
  facet normal 0.743145 -0.669131 0
    outer loop
      vertex -23.085 25.6385 0
      vertex -23.085 25.6385 18.1
      vertex -27.9111 20.2786 18.1
    endloop
  endfacet
  facet normal 0.743145 -0.669131 0
    outer loop
      vertex -27.9111 20.2786 0
      vertex -23.085 25.6385 0
      vertex -27.9111 20.2786 18.1
    endloop
  endfacet
  facet normal 0.587785 -0.809017 0
    outer loop
      vertex -17.25 29.8779 0
      vertex -17.25 29.8779 18.1
      vertex -23.085 25.6385 18.1
    endloop
  endfacet
  facet normal 0.587785 -0.809017 0
    outer loop
      vertex -23.085 25.6385 0
      vertex -17.25 29.8779 0
      vertex -23.085 25.6385 18.1
    endloop
  endfacet
  facet normal 0.406737 -0.913545 0
    outer loop
      vertex -10.6611 32.8115 0
      vertex -10.6611 32.8115 18.1
      vertex -17.25 29.8779 18.1
    endloop
  endfacet
  facet normal 0.406737 -0.913545 0
    outer loop
      vertex -17.25 29.8779 0
      vertex -10.6611 32.8115 0
      vertex -17.25 29.8779 18.1
    endloop
  endfacet
  facet normal 0.207912 -0.978148 0
    outer loop
      vertex -3.60623 34.311 0
      vertex -3.60623 34.311 18.1
      vertex -10.6611 32.8115 18.1
    endloop
  endfacet
  facet normal 0.207912 -0.978148 0
    outer loop
      vertex -10.6611 32.8115 0
      vertex -3.60623 34.311 0
      vertex -10.6611 32.8115 18.1
    endloop
  endfacet
  facet normal 0 -1 0
    outer loop
      vertex 3.60623 34.311 0
      vertex 3.60623 34.311 18.1
      vertex -3.60623 34.311 18.1
    endloop
  endfacet
  facet normal 0 -1 0
    outer loop
      vertex -3.60623 34.311 0
      vertex 3.60623 34.311 0
      vertex -3.60623 34.311 18.1
    endloop
  endfacet
  facet normal -0.207912 -0.978148 0
    outer loop
      vertex 10.6611 32.8115 0
      vertex 10.6611 32.8115 18.1
      vertex 3.60623 34.311 18.1
    endloop
  endfacet
  facet normal -0.207912 -0.978148 0
    outer loop
      vertex 3.60623 34.311 0
      vertex 10.6611 32.8115 0
      vertex 3.60623 34.311 18.1
    endloop
  endfacet
  facet normal -0.406737 -0.913545 0
    outer loop
      vertex 17.25 29.8779 0
      vertex 17.25 29.8779 18.1
      vertex 10.6611 32.8115 18.1
    endloop
  endfacet
  facet normal -0.406737 -0.913545 0
    outer loop
      vertex 10.6611 32.8115 0
      vertex 17.25 29.8779 0
      vertex 10.6611 32.8115 18.1
    endloop
  endfacet
  facet normal -0.587785 -0.809017 0
    outer loop
      vertex 23.085 25.6385 0
      vertex 23.085 25.6385 18.1
      vertex 17.25 29.8779 18.1
    endloop
  endfacet
  facet normal -0.587785 -0.809017 0
    outer loop
      vertex 17.25 29.8779 0
      vertex 23.085 25.6385 0
      vertex 17.25 29.8779 18.1
    endloop
  endfacet
  facet normal -0.743145 -0.669131 0
    outer loop
      vertex 27.9111 20.2786 18.1
      vertex 23.085 25.6385 18.1
      vertex 27.9111 20.2786 0
    endloop
  endfacet
  facet normal -0.743145 -0.669131 0
    outer loop
      vertex 27.9111 20.2786 0
      vertex 23.085 25.6385 18.1
      vertex 23.085 25.6385 0
    endloop
  endfacet
  facet normal -0.866025 -0.5 0
    outer loop
      vertex 31.5173 14.0324 18.1
      vertex 27.9111 20.2786 18.1
      vertex 31.5173 14.0324 0
    endloop
  endfacet
  facet normal -0.866025 -0.5 0
    outer loop
      vertex 31.5173 14.0324 0
      vertex 27.9111 20.2786 18.1
      vertex 27.9111 20.2786 0
    endloop
  endfacet
  facet normal -0.951057 -0.309017 0
    outer loop
      vertex 33.7461 7.17295 18.1
      vertex 31.5173 14.0324 18.1
      vertex 33.7461 7.17295 0
    endloop
  endfacet
  facet normal -0.951057 -0.309017 0
    outer loop
      vertex 33.7461 7.17295 0
      vertex 31.5173 14.0324 18.1
      vertex 31.5173 14.0324 0
    endloop
  endfacet
  facet normal -0.994522 -0.104528 0
    outer loop
      vertex 34.5 0 18.1
      vertex 33.7461 7.17295 18.1
      vertex 34.5 0 0
    endloop
  endfacet
  facet normal -0.994522 -0.104528 0
    outer loop
      vertex 34.5 0 0
      vertex 33.7461 7.17295 18.1
      vertex 33.7461 7.17295 0
    endloop
  endfacet
  facet normal -0.994522 0.104528 0
    outer loop
      vertex 34.5 0 18.1
      vertex 34.5 0 0
      vertex 33.7461 -7.17295 18.1
    endloop
  endfacet
  facet normal -0.994522 0.104528 0
    outer loop
      vertex 33.7461 -7.17295 18.1
      vertex 34.5 0 0
      vertex 33.7461 -7.17295 0
    endloop
  endfacet
  facet normal -0.951057 0.309017 0
    outer loop
      vertex 33.7461 -7.17295 18.1
      vertex 33.7461 -7.17295 0
      vertex 31.5173 -14.0324 18.1
    endloop
  endfacet
  facet normal -0.951057 0.309017 0
    outer loop
      vertex 31.5173 -14.0324 18.1
      vertex 33.7461 -7.17295 0
      vertex 31.5173 -14.0324 0
    endloop
  endfacet
  facet normal -0.866025 0.5 0
    outer loop
      vertex 31.5173 -14.0324 18.1
      vertex 31.5173 -14.0324 0
      vertex 27.9111 -20.2786 18.1
    endloop
  endfacet
  facet normal -0.866025 0.5 0
    outer loop
      vertex 27.9111 -20.2786 18.1
      vertex 31.5173 -14.0324 0
      vertex 27.9111 -20.2786 0
    endloop
  endfacet
  facet normal -0.743145 0.669131 0
    outer loop
      vertex 27.9111 -20.2786 18.1
      vertex 27.9111 -20.2786 0
      vertex 23.085 -25.6385 18.1
    endloop
  endfacet
  facet normal -0.743145 0.669131 0
    outer loop
      vertex 23.085 -25.6385 18.1
      vertex 27.9111 -20.2786 0
      vertex 23.085 -25.6385 0
    endloop
  endfacet
  facet normal -0.587785 0.809017 0
    outer loop
      vertex 23.085 -25.6385 18.1
      vertex 23.085 -25.6385 0
      vertex 17.25 -29.8779 18.1
    endloop
  endfacet
  facet normal -0.587785 0.809017 0
    outer loop
      vertex 17.25 -29.8779 18.1
      vertex 23.085 -25.6385 0
      vertex 17.25 -29.8779 0
    endloop
  endfacet
  facet normal -0.406737 0.913545 0
    outer loop
      vertex 17.25 -29.8779 18.1
      vertex 17.25 -29.8779 0
      vertex 10.6611 -32.8115 18.1
    endloop
  endfacet
  facet normal -0.406737 0.913545 0
    outer loop
      vertex 10.6611 -32.8115 18.1
      vertex 17.25 -29.8779 0
      vertex 10.6611 -32.8115 0
    endloop
  endfacet
  facet normal -0.207912 0.978148 0
    outer loop
      vertex 10.6611 -32.8115 18.1
      vertex 10.6611 -32.8115 0
      vertex 3.60623 -34.311 18.1
    endloop
  endfacet
  facet normal -0.207912 0.978148 0
    outer loop
      vertex 3.60623 -34.311 18.1
      vertex 10.6611 -32.8115 0
      vertex 3.60623 -34.311 0
    endloop
  endfacet
  facet normal 0 1 0
    outer loop
      vertex 3.60623 -34.311 18.1
      vertex 3.60623 -34.311 0
      vertex -3.60623 -34.311 18.1
    endloop
  endfacet
  facet normal 0 1 0
    outer loop
      vertex -3.60623 -34.311 18.1
      vertex 3.60623 -34.311 0
      vertex -3.60623 -34.311 0
    endloop
  endfacet
  facet normal 0.207912 0.978148 0
    outer loop
      vertex -3.60623 -34.311 18.1
      vertex -3.60623 -34.311 0
      vertex -10.6611 -32.8115 18.1
    endloop
  endfacet
  facet normal 0.207912 0.978148 0
    outer loop
      vertex -10.6611 -32.8115 18.1
      vertex -3.60623 -34.311 0
      vertex -10.6611 -32.8115 0
    endloop
  endfacet
  facet normal 0.406737 0.913545 0
    outer loop
      vertex -10.6611 -32.8115 18.1
      vertex -10.6611 -32.8115 0
      vertex -17.25 -29.8779 18.1
    endloop
  endfacet
  facet normal 0.406737 0.913545 0
    outer loop
      vertex -17.25 -29.8779 18.1
      vertex -10.6611 -32.8115 0
      vertex -17.25 -29.8779 0
    endloop
  endfacet
  facet normal 0.587785 0.809017 0
    outer loop
      vertex -17.25 -29.8779 18.1
      vertex -17.25 -29.8779 0
      vertex -23.085 -25.6385 18.1
    endloop
  endfacet
  facet normal 0.587785 0.809017 0
    outer loop
      vertex -23.085 -25.6385 18.1
      vertex -17.25 -29.8779 0
      vertex -23.085 -25.6385 0
    endloop
  endfacet
  facet normal 0.743145 0.669131 0
    outer loop
      vertex -27.9111 -20.2786 18.1
      vertex -23.085 -25.6385 18.1
      vertex -23.085 -25.6385 0
    endloop
  endfacet
  facet normal 0.743145 0.669131 0
    outer loop
      vertex -27.9111 -20.2786 0
      vertex -27.9111 -20.2786 18.1
      vertex -23.085 -25.6385 0
    endloop
  endfacet
  facet normal 0.866025 0.5 0
    outer loop
      vertex -31.5173 -14.0324 18.1
      vertex -27.9111 -20.2786 18.1
      vertex -27.9111 -20.2786 0
    endloop
  endfacet
  facet normal 0.866025 0.5 0
    outer loop
      vertex -31.5173 -14.0324 0
      vertex -31.5173 -14.0324 18.1
      vertex -27.9111 -20.2786 0
    endloop
  endfacet
  facet normal 0.951057 0.309017 0
    outer loop
      vertex -33.7461 -7.17295 18.1
      vertex -31.5173 -14.0324 18.1
      vertex -31.5173 -14.0324 0
    endloop
  endfacet
  facet normal 0.951057 0.309017 0
    outer loop
      vertex -33.7461 -7.17295 0
      vertex -33.7461 -7.17295 18.1
      vertex -31.5173 -14.0324 0
    endloop
  endfacet
  facet normal -0.777966 0.252776 0.575216
    outer loop
      vertex -33.3444 14.8459 18.1
      vertex -35.7024 7.58878 18.1
      vertex -26.9496 11.9987 28
    endloop
  endfacet
  facet normal -0.777966 0.252776 0.575216
    outer loop
      vertex -26.9496 11.9987 28
      vertex -35.7024 7.58878 18.1
      vertex -28.8554 6.1334 28
    endloop
  endfacet
  facet normal -0.81352 0.0855045 0.575216
    outer loop
      vertex -35.7024 7.58878 18.1
      vertex -36.5 0 18.1
      vertex -28.8554 6.1334 28
    endloop
  endfacet
  facet normal -0.81352 -0.0855044 0.575216
    outer loop
      vertex -29.5 0 28
      vertex -36.5 0 18.1
      vertex -28.8554 -6.1334 28
    endloop
  endfacet
  facet normal -0.81352 -0.0855045 0.575216
    outer loop
      vertex -28.8554 -6.1334 28
      vertex -36.5 0 18.1
      vertex -35.7024 -7.58878 18.1
    endloop
  endfacet
  facet normal -0.81352 0.0855044 0.575216
    outer loop
      vertex -28.8554 6.1334 28
      vertex -36.5 0 18.1
      vertex -29.5 0 28
    endloop
  endfacet
  facet normal -0.777966 -0.252776 0.575216
    outer loop
      vertex -28.8554 -6.1334 28
      vertex -35.7024 -7.58878 18.1
      vertex -26.9496 -11.9987 28
    endloop
  endfacet
  facet normal -0.777966 -0.252776 0.575216
    outer loop
      vertex -26.9496 -11.9987 28
      vertex -35.7024 -7.58878 18.1
      vertex -33.3444 -14.8459 18.1
    endloop
  endfacet
  facet normal -0.70841 -0.409001 0.575216
    outer loop
      vertex -26.9496 -11.9987 28
      vertex -33.3444 -14.8459 18.1
      vertex -29.5291 -21.4542 18.1
    endloop
  endfacet
  facet normal -0.607893 -0.54735 0.575216
    outer loop
      vertex -23.866 -17.3397 28
      vertex -29.5291 -21.4542 18.1
      vertex -19.7394 -21.9228 28
    endloop
  endfacet
  facet normal -0.607893 -0.54735 0.575216
    outer loop
      vertex -19.7394 -21.9228 28
      vertex -29.5291 -21.4542 18.1
      vertex -24.4233 -27.1248 18.1
    endloop
  endfacet
  facet normal -0.70841 -0.409001 0.575216
    outer loop
      vertex -26.9496 -11.9987 28
      vertex -29.5291 -21.4542 18.1
      vertex -23.866 -17.3397 28
    endloop
  endfacet
  facet normal -0.480809 -0.661777 0.575216
    outer loop
      vertex -19.7394 -21.9228 28
      vertex -24.4233 -27.1248 18.1
      vertex -18.25 -31.6099 18.1
    endloop
  endfacet
  facet normal -0.480809 -0.661777 0.575216
    outer loop
      vertex -14.75 -25.5477 28
      vertex -19.7394 -21.9228 28
      vertex -18.25 -31.6099 18.1
    endloop
  endfacet
  facet normal -0.332711 -0.747281 0.575216
    outer loop
      vertex -14.75 -25.5477 28
      vertex -18.25 -31.6099 18.1
      vertex -11.2791 -34.7136 18.1
    endloop
  endfacet
  facet normal -0.332711 -0.747281 0.575216
    outer loop
      vertex -9.116 -28.0562 28
      vertex -14.75 -25.5477 28
      vertex -11.2791 -34.7136 18.1
    endloop
  endfacet
  facet normal -0.170072 -0.800126 0.575216
    outer loop
      vertex -9.116 -28.0562 28
      vertex -11.2791 -34.7136 18.1
      vertex -3.08359 -29.3384 28
    endloop
  endfacet
  facet normal -0.170072 -0.800126 0.575216
    outer loop
      vertex -3.08359 -29.3384 28
      vertex -11.2791 -34.7136 18.1
      vertex -3.81529 -36.3 18.1
    endloop
  endfacet
  facet normal 0 -0.818001 0.575216
    outer loop
      vertex -3.08359 -29.3384 28
      vertex -3.81529 -36.3 18.1
      vertex 3.81529 -36.3 18.1
    endloop
  endfacet
  facet normal 0 -0.818001 0.575216
    outer loop
      vertex 3.08359 -29.3384 28
      vertex -3.08359 -29.3384 28
      vertex 3.81529 -36.3 18.1
    endloop
  endfacet
  facet normal 0.170072 -0.800126 0.575216
    outer loop
      vertex 11.2791 -34.7136 18.1
      vertex 3.08359 -29.3384 28
      vertex 3.81529 -36.3 18.1
    endloop
  endfacet
  facet normal 0.170072 -0.800126 0.575216
    outer loop
      vertex 9.116 -28.0562 28
      vertex 3.08359 -29.3384 28
      vertex 11.2791 -34.7136 18.1
    endloop
  endfacet
  facet normal 0.332711 -0.747281 0.575216
    outer loop
      vertex 14.75 -25.5477 28
      vertex 9.116 -28.0562 28
      vertex 11.2791 -34.7136 18.1
    endloop
  endfacet
  facet normal 0.332711 -0.747281 0.575216
    outer loop
      vertex 14.75 -25.5477 28
      vertex 11.2791 -34.7136 18.1
      vertex 18.25 -31.6099 18.1
    endloop
  endfacet
  facet normal 0.480809 -0.661777 0.575216
    outer loop
      vertex 19.7394 -21.9228 28
      vertex 14.75 -25.5477 28
      vertex 18.25 -31.6099 18.1
    endloop
  endfacet
  facet normal 0.480809 -0.661777 0.575216
    outer loop
      vertex 19.7394 -21.9228 28
      vertex 18.25 -31.6099 18.1
      vertex 24.4233 -27.1248 18.1
    endloop
  endfacet
  facet normal 0.607893 -0.54735 0.575216
    outer loop
      vertex 29.5291 -21.4542 18.1
      vertex 19.7394 -21.9228 28
      vertex 24.4233 -27.1248 18.1
    endloop
  endfacet
  facet normal 0.607893 -0.54735 0.575216
    outer loop
      vertex 23.866 -17.3397 28
      vertex 19.7394 -21.9228 28
      vertex 29.5291 -21.4542 18.1
    endloop
  endfacet
  facet normal 0.70841 -0.409001 0.575216
    outer loop
      vertex 26.9496 -11.9987 28
      vertex 23.866 -17.3397 28
      vertex 29.5291 -21.4542 18.1
    endloop
  endfacet
  facet normal 0.70841 -0.409001 0.575216
    outer loop
      vertex 33.3444 -14.8459 18.1
      vertex 26.9496 -11.9987 28
      vertex 29.5291 -21.4542 18.1
    endloop
  endfacet
  facet normal 0.777966 -0.252776 0.575216
    outer loop
      vertex 35.7024 -7.58878 18.1
      vertex 26.9496 -11.9987 28
      vertex 33.3444 -14.8459 18.1
    endloop
  endfacet
  facet normal 0.777966 -0.252776 0.575216
    outer loop
      vertex 28.8554 -6.1334 28
      vertex 26.9496 -11.9987 28
      vertex 35.7024 -7.58878 18.1
    endloop
  endfacet
  facet normal 0.81352 -0.0855045 0.575216
    outer loop
      vertex 36.5 0 18.1
      vertex 28.8554 -6.1334 28
      vertex 35.7024 -7.58878 18.1
    endloop
  endfacet
  facet normal 0.81352 -0.0855044 0.575216
    outer loop
      vertex 29.5 0 28
      vertex 28.8554 -6.1334 28
      vertex 36.5 0 18.1
    endloop
  endfacet
  facet normal 0.81352 0.0855044 0.575216
    outer loop
      vertex 36.5 0 18.1
      vertex 28.8554 6.1334 28
      vertex 29.5 0 28
    endloop
  endfacet
  facet normal 0.81352 0.0855045 0.575216
    outer loop
      vertex 35.7024 7.58878 18.1
      vertex 28.8554 6.1334 28
      vertex 36.5 0 18.1
    endloop
  endfacet
  facet normal 0.777966 0.252776 0.575216
    outer loop
      vertex 35.7024 7.58878 18.1
      vertex 26.9496 11.9987 28
      vertex 28.8554 6.1334 28
    endloop
  endfacet
  facet normal 0.777966 0.252776 0.575216
    outer loop
      vertex 33.3444 14.8459 18.1
      vertex 26.9496 11.9987 28
      vertex 35.7024 7.58878 18.1
    endloop
  endfacet
  facet normal 0.70841 0.409001 0.575216
    outer loop
      vertex 29.5291 21.4542 18.1
      vertex 26.9496 11.9987 28
      vertex 33.3444 14.8459 18.1
    endloop
  endfacet
  facet normal 0.607893 0.54735 0.575216
    outer loop
      vertex 29.5291 21.4542 18.1
      vertex 19.7394 21.9228 28
      vertex 23.866 17.3397 28
    endloop
  endfacet
  facet normal 0.607893 0.54735 0.575216
    outer loop
      vertex 24.4233 27.1248 18.1
      vertex 19.7394 21.9228 28
      vertex 29.5291 21.4542 18.1
    endloop
  endfacet
  facet normal 0.70841 0.409001 0.575216
    outer loop
      vertex 29.5291 21.4542 18.1
      vertex 23.866 17.3397 28
      vertex 26.9496 11.9987 28
    endloop
  endfacet
  facet normal 0.480809 0.661777 0.575216
    outer loop
      vertex 24.4233 27.1248 18.1
      vertex 18.25 31.6099 18.1
      vertex 19.7394 21.9228 28
    endloop
  endfacet
  facet normal 0.480809 0.661777 0.575216
    outer loop
      vertex 18.25 31.6099 18.1
      vertex 14.75 25.5477 28
      vertex 19.7394 21.9228 28
    endloop
  endfacet
  facet normal 0.332711 0.747281 0.575216
    outer loop
      vertex 18.25 31.6099 18.1
      vertex 11.2791 34.7136 18.1
      vertex 14.75 25.5477 28
    endloop
  endfacet
  facet normal 0.170072 0.800126 0.575216
    outer loop
      vertex 11.2791 34.7136 18.1
      vertex 3.08359 29.3384 28
      vertex 9.116 28.0562 28
    endloop
  endfacet
  facet normal 0.170072 0.800126 0.575216
    outer loop
      vertex 3.81529 36.3 18.1
      vertex 3.08359 29.3384 28
      vertex 11.2791 34.7136 18.1
    endloop
  endfacet
  facet normal 0.332711 0.747281 0.575216
    outer loop
      vertex 11.2791 34.7136 18.1
      vertex 9.116 28.0562 28
      vertex 14.75 25.5477 28
    endloop
  endfacet
  facet normal 0 0.818001 0.575216
    outer loop
      vertex -3.81529 36.3 18.1
      vertex -3.08359 29.3384 28
      vertex 3.81529 36.3 18.1
    endloop
  endfacet
  facet normal 0 0.818001 0.575216
    outer loop
      vertex 3.81529 36.3 18.1
      vertex -3.08359 29.3384 28
      vertex 3.08359 29.3384 28
    endloop
  endfacet
  facet normal -0.170072 0.800126 0.575216
    outer loop
      vertex -3.81529 36.3 18.1
      vertex -11.2791 34.7136 18.1
      vertex -3.08359 29.3384 28
    endloop
  endfacet
  facet normal -0.170072 0.800126 0.575216
    outer loop
      vertex -3.08359 29.3384 28
      vertex -11.2791 34.7136 18.1
      vertex -9.116 28.0562 28
    endloop
  endfacet
  facet normal -0.332711 0.747281 0.575216
    outer loop
      vertex -11.2791 34.7136 18.1
      vertex -14.75 25.5477 28
      vertex -9.116 28.0562 28
    endloop
  endfacet
  facet normal -0.332711 0.747281 0.575216
    outer loop
      vertex -11.2791 34.7136 18.1
      vertex -18.25 31.6099 18.1
      vertex -14.75 25.5477 28
    endloop
  endfacet
  facet normal -0.480809 0.661777 0.575216
    outer loop
      vertex -18.25 31.6099 18.1
      vertex -19.7394 21.9228 28
      vertex -14.75 25.5477 28
    endloop
  endfacet
  facet normal -0.480809 0.661777 0.575216
    outer loop
      vertex -18.25 31.6099 18.1
      vertex -24.4233 27.1248 18.1
      vertex -19.7394 21.9228 28
    endloop
  endfacet
  facet normal -0.607893 0.54735 0.575216
    outer loop
      vertex -24.4233 27.1248 18.1
      vertex -29.5291 21.4542 18.1
      vertex -19.7394 21.9228 28
    endloop
  endfacet
  facet normal -0.607893 0.54735 0.575216
    outer loop
      vertex -19.7394 21.9228 28
      vertex -29.5291 21.4542 18.1
      vertex -23.866 17.3397 28
    endloop
  endfacet
  facet normal -0.70841 0.409001 0.575216
    outer loop
      vertex -23.866 17.3397 28
      vertex -29.5291 21.4542 18.1
      vertex -26.9496 11.9987 28
    endloop
  endfacet
  facet normal -0.70841 0.409001 0.575216
    outer loop
      vertex -29.5291 21.4542 18.1
      vertex -33.3444 14.8459 18.1
      vertex -26.9496 11.9987 28
    endloop
  endfacet
  facet normal 0.81352 0.0855045 -0.575216
    outer loop
      vertex -26.8991 -5.71757 28
      vertex -33.7461 -7.17295 18.1
      vertex -34.5 0 18.1
    endloop
  endfacet
  facet normal 0.81352 0.0855044 -0.575216
    outer loop
      vertex -27.5 0 28
      vertex -26.8991 -5.71757 28
      vertex -34.5 0 18.1
    endloop
  endfacet
  facet normal 0.81352 -0.0855044 -0.575216
    outer loop
      vertex -26.8991 5.71757 28
      vertex -27.5 0 28
      vertex -34.5 0 18.1
    endloop
  endfacet
  facet normal 0.81352 -0.0855045 -0.575216
    outer loop
      vertex -33.7461 7.17295 18.1
      vertex -26.8991 5.71757 28
      vertex -34.5 0 18.1
    endloop
  endfacet
  facet normal 0.777966 0.252776 -0.575216
    outer loop
      vertex -25.1225 -11.1853 28
      vertex -31.5173 -14.0324 18.1
      vertex -33.7461 -7.17295 18.1
    endloop
  endfacet
  facet normal 0.777966 0.252776 -0.575216
    outer loop
      vertex -26.8991 -5.71757 28
      vertex -25.1225 -11.1853 28
      vertex -33.7461 -7.17295 18.1
    endloop
  endfacet
  facet normal 0.777966 -0.252776 -0.575216
    outer loop
      vertex -25.1225 11.1853 28
      vertex -26.8991 5.71757 28
      vertex -33.7461 7.17295 18.1
    endloop
  endfacet
  facet normal 0.777966 -0.252776 -0.575216
    outer loop
      vertex -31.5173 14.0324 18.1
      vertex -25.1225 11.1853 28
      vertex -33.7461 7.17295 18.1
    endloop
  endfacet
  facet normal 0.70841 -0.409001 -0.575216
    outer loop
      vertex -27.9111 20.2786 18.1
      vertex -25.1225 11.1853 28
      vertex -31.5173 14.0324 18.1
    endloop
  endfacet
  facet normal 0.70841 -0.409001 -0.575216
    outer loop
      vertex -22.248 16.1641 28
      vertex -25.1225 11.1853 28
      vertex -27.9111 20.2786 18.1
    endloop
  endfacet
  facet normal 0.607894 -0.54735 -0.575216
    outer loop
      vertex -18.4011 20.4365 28
      vertex -22.248 16.1641 28
      vertex -27.9111 20.2786 18.1
    endloop
  endfacet
  facet normal 0.607893 -0.54735 -0.575216
    outer loop
      vertex -23.085 25.6385 18.1
      vertex -18.4011 20.4365 28
      vertex -27.9111 20.2786 18.1
    endloop
  endfacet
  facet normal 0.480809 -0.661777 -0.575216
    outer loop
      vertex -17.25 29.8779 18.1
      vertex -18.4011 20.4365 28
      vertex -23.085 25.6385 18.1
    endloop
  endfacet
  facet normal 0.480809 -0.661777 -0.575216
    outer loop
      vertex -17.25 29.8779 18.1
      vertex -13.75 23.8157 28
      vertex -18.4011 20.4365 28
    endloop
  endfacet
  facet normal 0.332711 -0.747281 -0.575216
    outer loop
      vertex -10.6611 32.8115 18.1
      vertex -13.75 23.8157 28
      vertex -17.25 29.8779 18.1
    endloop
  endfacet
  facet normal 0.332711 -0.747281 -0.575216
    outer loop
      vertex -10.6611 32.8115 18.1
      vertex -8.49797 26.1541 28
      vertex -13.75 23.8157 28
    endloop
  endfacet
  facet normal 0.170072 -0.800126 -0.575216
    outer loop
      vertex -2.87453 27.3494 28
      vertex -8.49797 26.1541 28
      vertex -10.6611 32.8115 18.1
    endloop
  endfacet
  facet normal 0.170072 -0.800126 -0.575216
    outer loop
      vertex -3.60623 34.311 18.1
      vertex -2.87453 27.3494 28
      vertex -10.6611 32.8115 18.1
    endloop
  endfacet
  facet normal 0 -0.818001 -0.575216
    outer loop
      vertex 3.60623 34.311 18.1
      vertex 2.87453 27.3494 28
      vertex -2.87453 27.3494 28
    endloop
  endfacet
  facet normal 0 -0.818001 -0.575216
    outer loop
      vertex -3.60623 34.311 18.1
      vertex 3.60623 34.311 18.1
      vertex -2.87453 27.3494 28
    endloop
  endfacet
  facet normal -0.170072 -0.800126 -0.575216
    outer loop
      vertex 3.60623 34.311 18.1
      vertex 10.6611 32.8115 18.1
      vertex 2.87453 27.3494 28
    endloop
  endfacet
  facet normal -0.332711 -0.747281 -0.575216
    outer loop
      vertex 10.6611 32.8115 18.1
      vertex 13.75 23.8157 28
      vertex 8.49797 26.1541 28
    endloop
  endfacet
  facet normal -0.332711 -0.747281 -0.575216
    outer loop
      vertex 17.25 29.8779 18.1
      vertex 13.75 23.8157 28
      vertex 10.6611 32.8115 18.1
    endloop
  endfacet
  facet normal -0.170072 -0.800126 -0.575216
    outer loop
      vertex 10.6611 32.8115 18.1
      vertex 8.49797 26.1541 28
      vertex 2.87453 27.3494 28
    endloop
  endfacet
  facet normal -0.480809 -0.661777 -0.575216
    outer loop
      vertex 17.25 29.8779 18.1
      vertex 18.4011 20.4365 28
      vertex 13.75 23.8157 28
    endloop
  endfacet
  facet normal -0.480809 -0.661777 -0.575216
    outer loop
      vertex 23.085 25.6385 18.1
      vertex 18.4011 20.4365 28
      vertex 17.25 29.8779 18.1
    endloop
  endfacet
  facet normal -0.607893 -0.54735 -0.575216
    outer loop
      vertex 23.085 25.6385 18.1
      vertex 27.9111 20.2786 18.1
      vertex 18.4011 20.4365 28
    endloop
  endfacet
  facet normal -0.607894 -0.54735 -0.575216
    outer loop
      vertex 27.9111 20.2786 18.1
      vertex 22.248 16.1641 28
      vertex 18.4011 20.4365 28
    endloop
  endfacet
  facet normal -0.70841 -0.409001 -0.575216
    outer loop
      vertex 27.9111 20.2786 18.1
      vertex 25.1225 11.1853 28
      vertex 22.248 16.1641 28
    endloop
  endfacet
  facet normal -0.70841 -0.409001 -0.575216
    outer loop
      vertex 27.9111 20.2786 18.1
      vertex 31.5173 14.0324 18.1
      vertex 25.1225 11.1853 28
    endloop
  endfacet
  facet normal -0.777966 -0.252776 -0.575216
    outer loop
      vertex 31.5173 14.0324 18.1
      vertex 33.7461 7.17295 18.1
      vertex 25.1225 11.1853 28
    endloop
  endfacet
  facet normal -0.777966 -0.252776 -0.575216
    outer loop
      vertex 33.7461 7.17295 18.1
      vertex 26.8991 5.71757 28
      vertex 25.1225 11.1853 28
    endloop
  endfacet
  facet normal -0.81352 -0.0855045 -0.575216
    outer loop
      vertex 33.7461 7.17295 18.1
      vertex 34.5 0 18.1
      vertex 26.8991 5.71757 28
    endloop
  endfacet
  facet normal -0.81352 0.0855044 -0.575216
    outer loop
      vertex 27.5 0 28
      vertex 34.5 0 18.1
      vertex 26.8991 -5.71757 28
    endloop
  endfacet
  facet normal -0.81352 0.0855045 -0.575216
    outer loop
      vertex 34.5 0 18.1
      vertex 33.7461 -7.17295 18.1
      vertex 26.8991 -5.71757 28
    endloop
  endfacet
  facet normal -0.81352 -0.0855044 -0.575216
    outer loop
      vertex 34.5 0 18.1
      vertex 27.5 0 28
      vertex 26.8991 5.71757 28
    endloop
  endfacet
  facet normal -0.777966 0.252776 -0.575216
    outer loop
      vertex 26.8991 -5.71757 28
      vertex 33.7461 -7.17295 18.1
      vertex 25.1225 -11.1853 28
    endloop
  endfacet
  facet normal -0.777966 0.252776 -0.575216
    outer loop
      vertex 33.7461 -7.17295 18.1
      vertex 31.5173 -14.0324 18.1
      vertex 25.1225 -11.1853 28
    endloop
  endfacet
  facet normal -0.70841 0.409001 -0.575216
    outer loop
      vertex 31.5173 -14.0324 18.1
      vertex 27.9111 -20.2786 18.1
      vertex 25.1225 -11.1853 28
    endloop
  endfacet
  facet normal -0.607894 0.54735 -0.575216
    outer loop
      vertex 22.248 -16.1641 28
      vertex 27.9111 -20.2786 18.1
      vertex 18.4011 -20.4365 28
    endloop
  endfacet
  facet normal -0.607893 0.54735 -0.575216
    outer loop
      vertex 27.9111 -20.2786 18.1
      vertex 23.085 -25.6385 18.1
      vertex 18.4011 -20.4365 28
    endloop
  endfacet
  facet normal -0.70841 0.409001 -0.575216
    outer loop
      vertex 25.1225 -11.1853 28
      vertex 27.9111 -20.2786 18.1
      vertex 22.248 -16.1641 28
    endloop
  endfacet
  facet normal -0.480809 0.661777 -0.575216
    outer loop
      vertex 18.4011 -20.4365 28
      vertex 23.085 -25.6385 18.1
      vertex 17.25 -29.8779 18.1
    endloop
  endfacet
  facet normal -0.480809 0.661777 -0.575216
    outer loop
      vertex 18.4011 -20.4365 28
      vertex 17.25 -29.8779 18.1
      vertex 13.75 -23.8157 28
    endloop
  endfacet
  facet normal -0.332711 0.747281 -0.575216
    outer loop
      vertex 13.75 -23.8157 28
      vertex 17.25 -29.8779 18.1
      vertex 10.6611 -32.8115 18.1
    endloop
  endfacet
  facet normal -0.170072 0.800126 -0.575216
    outer loop
      vertex 8.49797 -26.1541 28
      vertex 10.6611 -32.8115 18.1
      vertex 2.87453 -27.3494 28
    endloop
  endfacet
  facet normal -0.170072 0.800126 -0.575216
    outer loop
      vertex 10.6611 -32.8115 18.1
      vertex 3.60623 -34.311 18.1
      vertex 2.87453 -27.3494 28
    endloop
  endfacet
  facet normal -0.332711 0.747281 -0.575216
    outer loop
      vertex 13.75 -23.8157 28
      vertex 10.6611 -32.8115 18.1
      vertex 8.49797 -26.1541 28
    endloop
  endfacet
  facet normal 0 0.818001 -0.575216
    outer loop
      vertex 2.87453 -27.3494 28
      vertex 3.60623 -34.311 18.1
      vertex -2.87453 -27.3494 28
    endloop
  endfacet
  facet normal 0 0.818001 -0.575216
    outer loop
      vertex -2.87453 -27.3494 28
      vertex 3.60623 -34.311 18.1
      vertex -3.60623 -34.311 18.1
    endloop
  endfacet
  facet normal 0.170072 0.800126 -0.575216
    outer loop
      vertex -2.87453 -27.3494 28
      vertex -3.60623 -34.311 18.1
      vertex -10.6611 -32.8115 18.1
    endloop
  endfacet
  facet normal 0.332711 0.747281 -0.575216
    outer loop
      vertex -13.75 -23.8157 28
      vertex -10.6611 -32.8115 18.1
      vertex -17.25 -29.8779 18.1
    endloop
  endfacet
  facet normal 0.170072 0.800126 -0.575216
    outer loop
      vertex -8.49797 -26.1541 28
      vertex -2.87453 -27.3494 28
      vertex -10.6611 -32.8115 18.1
    endloop
  endfacet
  facet normal 0.332711 0.747281 -0.575216
    outer loop
      vertex -8.49797 -26.1541 28
      vertex -10.6611 -32.8115 18.1
      vertex -13.75 -23.8157 28
    endloop
  endfacet
  facet normal 0.480809 0.661777 -0.575216
    outer loop
      vertex -13.75 -23.8157 28
      vertex -17.25 -29.8779 18.1
      vertex -18.4011 -20.4365 28
    endloop
  endfacet
  facet normal 0.480809 0.661777 -0.575216
    outer loop
      vertex -18.4011 -20.4365 28
      vertex -17.25 -29.8779 18.1
      vertex -23.085 -25.6385 18.1
    endloop
  endfacet
  facet normal 0.607893 0.54735 -0.575216
    outer loop
      vertex -18.4011 -20.4365 28
      vertex -23.085 -25.6385 18.1
      vertex -27.9111 -20.2786 18.1
    endloop
  endfacet
  facet normal 0.70841 0.409001 -0.575216
    outer loop
      vertex -25.1225 -11.1853 28
      vertex -27.9111 -20.2786 18.1
      vertex -31.5173 -14.0324 18.1
    endloop
  endfacet
  facet normal 0.607894 0.54735 -0.575216
    outer loop
      vertex -22.248 -16.1641 28
      vertex -18.4011 -20.4365 28
      vertex -27.9111 -20.2786 18.1
    endloop
  endfacet
  facet normal 0.70841 0.409001 -0.575216
    outer loop
      vertex -25.1225 -11.1853 28
      vertex -22.248 -16.1641 28
      vertex -27.9111 -20.2786 18.1
    endloop
  endfacet
  facet normal -0.951057 0.309017 0
    outer loop
      vertex -28.8554 6.1334 28
      vertex -28.8554 6.1334 46
      vertex -26.9496 11.9987 28
    endloop
  endfacet
  facet normal -0.951057 0.309017 0
    outer loop
      vertex -26.9496 11.9987 28
      vertex -28.8554 6.1334 46
      vertex -26.9496 11.9987 46
    endloop
  endfacet
  facet normal -0.866025 0.5 0
    outer loop
      vertex -26.9496 11.9987 28
      vertex -26.9496 11.9987 46
      vertex -23.866 17.3397 28
    endloop
  endfacet
  facet normal -0.866025 0.5 0
    outer loop
      vertex -23.866 17.3397 28
      vertex -26.9496 11.9987 46
      vertex -23.866 17.3397 46
    endloop
  endfacet
  facet normal -0.994522 0.104528 0
    outer loop
      vertex -29.5 0 28
      vertex -29.5 0 46
      vertex -28.8554 6.1334 28
    endloop
  endfacet
  facet normal -0.994522 0.104528 0
    outer loop
      vertex -28.8554 6.1334 28
      vertex -29.5 0 46
      vertex -28.8554 6.1334 46
    endloop
  endfacet
  facet normal -0.994522 -0.104528 0
    outer loop
      vertex -29.5 0 28
      vertex -28.8554 -6.1334 28
      vertex -29.5 0 46
    endloop
  endfacet
  facet normal -0.994522 -0.104528 0
    outer loop
      vertex -29.5 0 46
      vertex -28.8554 -6.1334 28
      vertex -28.8554 -6.1334 46
    endloop
  endfacet
  facet normal -0.951057 -0.309017 0
    outer loop
      vertex -28.8554 -6.1334 28
      vertex -26.9496 -11.9987 28
      vertex -28.8554 -6.1334 46
    endloop
  endfacet
  facet normal -0.951057 -0.309017 0
    outer loop
      vertex -28.8554 -6.1334 46
      vertex -26.9496 -11.9987 28
      vertex -26.9496 -11.9987 46
    endloop
  endfacet
  facet normal -0.866025 -0.5 0
    outer loop
      vertex -26.9496 -11.9987 28
      vertex -23.866 -17.3397 28
      vertex -26.9496 -11.9987 46
    endloop
  endfacet
  facet normal -0.866025 -0.5 0
    outer loop
      vertex -26.9496 -11.9987 46
      vertex -23.866 -17.3397 28
      vertex -23.866 -17.3397 46
    endloop
  endfacet
  facet normal -0.743145 -0.669131 0
    outer loop
      vertex -23.866 -17.3397 28
      vertex -19.7394 -21.9228 28
      vertex -23.866 -17.3397 46
    endloop
  endfacet
  facet normal -0.743145 -0.669131 0
    outer loop
      vertex -23.866 -17.3397 46
      vertex -19.7394 -21.9228 28
      vertex -19.7394 -21.9228 46
    endloop
  endfacet
  facet normal -0.587785 -0.809017 0
    outer loop
      vertex -19.7394 -21.9228 46
      vertex -19.7394 -21.9228 28
      vertex -14.75 -25.5477 28
    endloop
  endfacet
  facet normal -0.587785 -0.809017 0
    outer loop
      vertex -14.75 -25.5477 46
      vertex -19.7394 -21.9228 46
      vertex -14.75 -25.5477 28
    endloop
  endfacet
  facet normal -0.406737 -0.913545 0
    outer loop
      vertex -14.75 -25.5477 46
      vertex -14.75 -25.5477 28
      vertex -9.116 -28.0562 28
    endloop
  endfacet
  facet normal -0.406737 -0.913545 0
    outer loop
      vertex -9.116 -28.0562 46
      vertex -14.75 -25.5477 46
      vertex -9.116 -28.0562 28
    endloop
  endfacet
  facet normal -0.207912 -0.978148 0
    outer loop
      vertex -9.116 -28.0562 46
      vertex -9.116 -28.0562 28
      vertex -3.08359 -29.3384 28
    endloop
  endfacet
  facet normal -0.207912 -0.978148 0
    outer loop
      vertex -3.08359 -29.3384 46
      vertex -9.116 -28.0562 46
      vertex -3.08359 -29.3384 28
    endloop
  endfacet
  facet normal 0 -1 0
    outer loop
      vertex -3.08359 -29.3384 46
      vertex -3.08359 -29.3384 28
      vertex 3.08359 -29.3384 28
    endloop
  endfacet
  facet normal 0 -1 0
    outer loop
      vertex 3.08359 -29.3384 46
      vertex -3.08359 -29.3384 46
      vertex 3.08359 -29.3384 28
    endloop
  endfacet
  facet normal 0.207912 -0.978148 0
    outer loop
      vertex 3.08359 -29.3384 46
      vertex 3.08359 -29.3384 28
      vertex 9.116 -28.0562 28
    endloop
  endfacet
  facet normal 0.207912 -0.978148 0
    outer loop
      vertex 9.116 -28.0562 46
      vertex 3.08359 -29.3384 46
      vertex 9.116 -28.0562 28
    endloop
  endfacet
  facet normal 0.406737 -0.913545 0
    outer loop
      vertex 9.116 -28.0562 46
      vertex 9.116 -28.0562 28
      vertex 14.75 -25.5477 28
    endloop
  endfacet
  facet normal 0.406737 -0.913545 0
    outer loop
      vertex 14.75 -25.5477 46
      vertex 9.116 -28.0562 46
      vertex 14.75 -25.5477 28
    endloop
  endfacet
  facet normal 0.587785 -0.809017 0
    outer loop
      vertex 14.75 -25.5477 46
      vertex 14.75 -25.5477 28
      vertex 19.7394 -21.9228 28
    endloop
  endfacet
  facet normal 0.587785 -0.809017 0
    outer loop
      vertex 19.7394 -21.9228 46
      vertex 14.75 -25.5477 46
      vertex 19.7394 -21.9228 28
    endloop
  endfacet
  facet normal 0.743145 -0.669131 0
    outer loop
      vertex 19.7394 -21.9228 46
      vertex 19.7394 -21.9228 28
      vertex 23.866 -17.3397 28
    endloop
  endfacet
  facet normal 0.743145 -0.669131 0
    outer loop
      vertex 23.866 -17.3397 46
      vertex 19.7394 -21.9228 46
      vertex 23.866 -17.3397 28
    endloop
  endfacet
  facet normal 0.866025 -0.5 0
    outer loop
      vertex 23.866 -17.3397 46
      vertex 23.866 -17.3397 28
      vertex 26.9496 -11.9987 28
    endloop
  endfacet
  facet normal 0.866025 -0.5 0
    outer loop
      vertex 26.9496 -11.9987 46
      vertex 23.866 -17.3397 46
      vertex 26.9496 -11.9987 28
    endloop
  endfacet
  facet normal 0.951057 -0.309017 0
    outer loop
      vertex 26.9496 -11.9987 46
      vertex 26.9496 -11.9987 28
      vertex 28.8554 -6.1334 28
    endloop
  endfacet
  facet normal 0.951057 -0.309017 0
    outer loop
      vertex 28.8554 -6.1334 46
      vertex 26.9496 -11.9987 46
      vertex 28.8554 -6.1334 28
    endloop
  endfacet
  facet normal 0.994522 -0.104528 0
    outer loop
      vertex 28.8554 -6.1334 46
      vertex 28.8554 -6.1334 28
      vertex 29.5 0 28
    endloop
  endfacet
  facet normal 0.994522 -0.104528 0
    outer loop
      vertex 29.5 0 46
      vertex 28.8554 -6.1334 46
      vertex 29.5 0 28
    endloop
  endfacet
  facet normal 0.994522 0.104528 0
    outer loop
      vertex 29.5 0 28
      vertex 28.8554 6.1334 28
      vertex 28.8554 6.1334 46
    endloop
  endfacet
  facet normal 0.994522 0.104528 0
    outer loop
      vertex 29.5 0 46
      vertex 29.5 0 28
      vertex 28.8554 6.1334 46
    endloop
  endfacet
  facet normal 0.951057 0.309017 0
    outer loop
      vertex 28.8554 6.1334 28
      vertex 26.9496 11.9987 28
      vertex 26.9496 11.9987 46
    endloop
  endfacet
  facet normal 0.951057 0.309017 0
    outer loop
      vertex 28.8554 6.1334 46
      vertex 28.8554 6.1334 28
      vertex 26.9496 11.9987 46
    endloop
  endfacet
  facet normal 0.866025 0.5 0
    outer loop
      vertex 26.9496 11.9987 28
      vertex 23.866 17.3397 28
      vertex 23.866 17.3397 46
    endloop
  endfacet
  facet normal 0.866025 0.5 0
    outer loop
      vertex 26.9496 11.9987 46
      vertex 26.9496 11.9987 28
      vertex 23.866 17.3397 46
    endloop
  endfacet
  facet normal 0.743145 0.669131 0
    outer loop
      vertex 23.866 17.3397 28
      vertex 19.7394 21.9228 28
      vertex 19.7394 21.9228 46
    endloop
  endfacet
  facet normal 0.743145 0.669131 0
    outer loop
      vertex 23.866 17.3397 46
      vertex 23.866 17.3397 28
      vertex 19.7394 21.9228 46
    endloop
  endfacet
  facet normal 0.587785 0.809017 0
    outer loop
      vertex 14.75 25.5477 28
      vertex 14.75 25.5477 46
      vertex 19.7394 21.9228 28
    endloop
  endfacet
  facet normal 0.587785 0.809017 0
    outer loop
      vertex 19.7394 21.9228 28
      vertex 14.75 25.5477 46
      vertex 19.7394 21.9228 46
    endloop
  endfacet
  facet normal 0.406737 0.913545 0
    outer loop
      vertex 9.116 28.0562 28
      vertex 9.116 28.0562 46
      vertex 14.75 25.5477 28
    endloop
  endfacet
  facet normal 0.406737 0.913545 0
    outer loop
      vertex 14.75 25.5477 28
      vertex 9.116 28.0562 46
      vertex 14.75 25.5477 46
    endloop
  endfacet
  facet normal 0.207912 0.978148 0
    outer loop
      vertex 3.08359 29.3384 28
      vertex 3.08359 29.3384 46
      vertex 9.116 28.0562 28
    endloop
  endfacet
  facet normal 0.207912 0.978148 0
    outer loop
      vertex 9.116 28.0562 28
      vertex 3.08359 29.3384 46
      vertex 9.116 28.0562 46
    endloop
  endfacet
  facet normal 0 1 0
    outer loop
      vertex -3.08359 29.3384 28
      vertex -3.08359 29.3384 46
      vertex 3.08359 29.3384 28
    endloop
  endfacet
  facet normal 0 1 0
    outer loop
      vertex 3.08359 29.3384 28
      vertex -3.08359 29.3384 46
      vertex 3.08359 29.3384 46
    endloop
  endfacet
  facet normal -0.207912 0.978148 0
    outer loop
      vertex -9.116 28.0562 28
      vertex -9.116 28.0562 46
      vertex -3.08359 29.3384 28
    endloop
  endfacet
  facet normal -0.207912 0.978148 0
    outer loop
      vertex -3.08359 29.3384 28
      vertex -9.116 28.0562 46
      vertex -3.08359 29.3384 46
    endloop
  endfacet
  facet normal -0.406737 0.913545 0
    outer loop
      vertex -14.75 25.5477 28
      vertex -14.75 25.5477 46
      vertex -9.116 28.0562 28
    endloop
  endfacet
  facet normal -0.406737 0.913545 0
    outer loop
      vertex -9.116 28.0562 28
      vertex -14.75 25.5477 46
      vertex -9.116 28.0562 46
    endloop
  endfacet
  facet normal -0.587785 0.809017 0
    outer loop
      vertex -19.7394 21.9228 28
      vertex -19.7394 21.9228 46
      vertex -14.75 25.5477 28
    endloop
  endfacet
  facet normal -0.587785 0.809017 0
    outer loop
      vertex -14.75 25.5477 28
      vertex -19.7394 21.9228 46
      vertex -14.75 25.5477 46
    endloop
  endfacet
  facet normal -0.743145 0.669131 0
    outer loop
      vertex -23.866 17.3397 28
      vertex -23.866 17.3397 46
      vertex -19.7394 21.9228 28
    endloop
  endfacet
  facet normal -0.743145 0.669131 0
    outer loop
      vertex -19.7394 21.9228 28
      vertex -23.866 17.3397 46
      vertex -19.7394 21.9228 46
    endloop
  endfacet
  facet normal 0.994522 0.104528 0
    outer loop
      vertex -27.5 0 46
      vertex -26.8991 -5.71757 46
      vertex -26.8991 -5.71757 28
    endloop
  endfacet
  facet normal 0.994522 0.104528 0
    outer loop
      vertex -27.5 0 28
      vertex -27.5 0 46
      vertex -26.8991 -5.71757 28
    endloop
  endfacet
  facet normal 0.951057 0.309017 0
    outer loop
      vertex -26.8991 -5.71757 46
      vertex -25.1225 -11.1853 46
      vertex -25.1225 -11.1853 28
    endloop
  endfacet
  facet normal 0.951057 0.309017 0
    outer loop
      vertex -26.8991 -5.71757 28
      vertex -26.8991 -5.71757 46
      vertex -25.1225 -11.1853 28
    endloop
  endfacet
  facet normal 0.994522 -0.104528 0
    outer loop
      vertex -26.8991 5.71757 28
      vertex -26.8991 5.71757 46
      vertex -27.5 0 46
    endloop
  endfacet
  facet normal 0.994522 -0.104528 0
    outer loop
      vertex -27.5 0 28
      vertex -26.8991 5.71757 28
      vertex -27.5 0 46
    endloop
  endfacet
  facet normal 0.951057 -0.309017 0
    outer loop
      vertex -25.1225 11.1853 28
      vertex -25.1225 11.1853 46
      vertex -26.8991 5.71757 46
    endloop
  endfacet
  facet normal 0.951057 -0.309017 0
    outer loop
      vertex -26.8991 5.71757 28
      vertex -25.1225 11.1853 28
      vertex -26.8991 5.71757 46
    endloop
  endfacet
  facet normal 0.866025 0.5 0
    outer loop
      vertex -25.1225 -11.1853 46
      vertex -22.248 -16.1641 46
      vertex -22.248 -16.1641 28
    endloop
  endfacet
  facet normal 0.866025 0.5 0
    outer loop
      vertex -25.1225 -11.1853 28
      vertex -25.1225 -11.1853 46
      vertex -22.248 -16.1641 28
    endloop
  endfacet
  facet normal 0.866025 -0.5 0
    outer loop
      vertex -22.248 16.1641 28
      vertex -22.248 16.1641 46
      vertex -25.1225 11.1853 46
    endloop
  endfacet
  facet normal 0.866025 -0.5 0
    outer loop
      vertex -25.1225 11.1853 28
      vertex -22.248 16.1641 28
      vertex -25.1225 11.1853 46
    endloop
  endfacet
  facet normal 0.743145 -0.66913 0
    outer loop
      vertex -18.4011 20.4365 28
      vertex -18.4011 20.4365 46
      vertex -22.248 16.1641 46
    endloop
  endfacet
  facet normal 0.743145 -0.66913 0
    outer loop
      vertex -22.248 16.1641 28
      vertex -18.4011 20.4365 28
      vertex -22.248 16.1641 46
    endloop
  endfacet
  facet normal 0.587785 -0.809017 0
    outer loop
      vertex -13.75 23.8157 28
      vertex -13.75 23.8157 46
      vertex -18.4011 20.4365 46
    endloop
  endfacet
  facet normal 0.587785 -0.809017 0
    outer loop
      vertex -18.4011 20.4365 28
      vertex -13.75 23.8157 28
      vertex -18.4011 20.4365 46
    endloop
  endfacet
  facet normal 0.406737 -0.913546 0
    outer loop
      vertex -8.49797 26.1541 28
      vertex -8.49797 26.1541 46
      vertex -13.75 23.8157 46
    endloop
  endfacet
  facet normal 0.406737 -0.913546 0
    outer loop
      vertex -13.75 23.8157 28
      vertex -8.49797 26.1541 28
      vertex -13.75 23.8157 46
    endloop
  endfacet
  facet normal 0.207912 -0.978148 0
    outer loop
      vertex -2.87453 27.3494 28
      vertex -2.87453 27.3494 46
      vertex -8.49797 26.1541 46
    endloop
  endfacet
  facet normal 0.207912 -0.978148 0
    outer loop
      vertex -8.49797 26.1541 28
      vertex -2.87453 27.3494 28
      vertex -8.49797 26.1541 46
    endloop
  endfacet
  facet normal 0 -1 0
    outer loop
      vertex 2.87453 27.3494 28
      vertex 2.87453 27.3494 46
      vertex -2.87453 27.3494 46
    endloop
  endfacet
  facet normal 0 -1 0
    outer loop
      vertex -2.87453 27.3494 28
      vertex 2.87453 27.3494 28
      vertex -2.87453 27.3494 46
    endloop
  endfacet
  facet normal -0.207912 -0.978148 0
    outer loop
      vertex 8.49797 26.1541 28
      vertex 8.49797 26.1541 46
      vertex 2.87453 27.3494 46
    endloop
  endfacet
  facet normal -0.207912 -0.978148 0
    outer loop
      vertex 2.87453 27.3494 28
      vertex 8.49797 26.1541 28
      vertex 2.87453 27.3494 46
    endloop
  endfacet
  facet normal -0.406737 -0.913546 0
    outer loop
      vertex 13.75 23.8157 28
      vertex 13.75 23.8157 46
      vertex 8.49797 26.1541 46
    endloop
  endfacet
  facet normal -0.406737 -0.913546 0
    outer loop
      vertex 8.49797 26.1541 28
      vertex 13.75 23.8157 28
      vertex 8.49797 26.1541 46
    endloop
  endfacet
  facet normal -0.587785 -0.809017 0
    outer loop
      vertex 18.4011 20.4365 28
      vertex 18.4011 20.4365 46
      vertex 13.75 23.8157 46
    endloop
  endfacet
  facet normal -0.587785 -0.809017 0
    outer loop
      vertex 13.75 23.8157 28
      vertex 18.4011 20.4365 28
      vertex 13.75 23.8157 46
    endloop
  endfacet
  facet normal -0.743145 -0.66913 0
    outer loop
      vertex 22.248 16.1641 46
      vertex 18.4011 20.4365 46
      vertex 22.248 16.1641 28
    endloop
  endfacet
  facet normal -0.743145 -0.66913 0
    outer loop
      vertex 22.248 16.1641 28
      vertex 18.4011 20.4365 46
      vertex 18.4011 20.4365 28
    endloop
  endfacet
  facet normal -0.866025 -0.5 0
    outer loop
      vertex 25.1225 11.1853 46
      vertex 22.248 16.1641 46
      vertex 25.1225 11.1853 28
    endloop
  endfacet
  facet normal -0.866025 -0.5 0
    outer loop
      vertex 25.1225 11.1853 28
      vertex 22.248 16.1641 46
      vertex 22.248 16.1641 28
    endloop
  endfacet
  facet normal -0.951057 -0.309017 0
    outer loop
      vertex 26.8991 5.71757 46
      vertex 25.1225 11.1853 46
      vertex 26.8991 5.71757 28
    endloop
  endfacet
  facet normal -0.951057 -0.309017 0
    outer loop
      vertex 26.8991 5.71757 28
      vertex 25.1225 11.1853 46
      vertex 25.1225 11.1853 28
    endloop
  endfacet
  facet normal -0.994522 -0.104528 0
    outer loop
      vertex 27.5 0 46
      vertex 26.8991 5.71757 46
      vertex 27.5 0 28
    endloop
  endfacet
  facet normal -0.994522 -0.104528 0
    outer loop
      vertex 27.5 0 28
      vertex 26.8991 5.71757 46
      vertex 26.8991 5.71757 28
    endloop
  endfacet
  facet normal -0.994522 0.104528 0
    outer loop
      vertex 27.5 0 46
      vertex 27.5 0 28
      vertex 26.8991 -5.71757 46
    endloop
  endfacet
  facet normal -0.994522 0.104528 0
    outer loop
      vertex 26.8991 -5.71757 46
      vertex 27.5 0 28
      vertex 26.8991 -5.71757 28
    endloop
  endfacet
  facet normal -0.951057 0.309017 0
    outer loop
      vertex 26.8991 -5.71757 46
      vertex 26.8991 -5.71757 28
      vertex 25.1225 -11.1853 46
    endloop
  endfacet
  facet normal -0.951057 0.309017 0
    outer loop
      vertex 25.1225 -11.1853 46
      vertex 26.8991 -5.71757 28
      vertex 25.1225 -11.1853 28
    endloop
  endfacet
  facet normal -0.866025 0.5 0
    outer loop
      vertex 25.1225 -11.1853 46
      vertex 25.1225 -11.1853 28
      vertex 22.248 -16.1641 46
    endloop
  endfacet
  facet normal -0.866025 0.5 0
    outer loop
      vertex 22.248 -16.1641 46
      vertex 25.1225 -11.1853 28
      vertex 22.248 -16.1641 28
    endloop
  endfacet
  facet normal -0.743145 0.66913 0
    outer loop
      vertex 22.248 -16.1641 46
      vertex 22.248 -16.1641 28
      vertex 18.4011 -20.4365 46
    endloop
  endfacet
  facet normal -0.743145 0.66913 0
    outer loop
      vertex 18.4011 -20.4365 46
      vertex 22.248 -16.1641 28
      vertex 18.4011 -20.4365 28
    endloop
  endfacet
  facet normal -0.587785 0.809017 0
    outer loop
      vertex 18.4011 -20.4365 46
      vertex 18.4011 -20.4365 28
      vertex 13.75 -23.8157 46
    endloop
  endfacet
  facet normal -0.587785 0.809017 0
    outer loop
      vertex 13.75 -23.8157 46
      vertex 18.4011 -20.4365 28
      vertex 13.75 -23.8157 28
    endloop
  endfacet
  facet normal -0.406737 0.913546 0
    outer loop
      vertex 13.75 -23.8157 46
      vertex 13.75 -23.8157 28
      vertex 8.49797 -26.1541 46
    endloop
  endfacet
  facet normal -0.406737 0.913546 0
    outer loop
      vertex 8.49797 -26.1541 46
      vertex 13.75 -23.8157 28
      vertex 8.49797 -26.1541 28
    endloop
  endfacet
  facet normal -0.207912 0.978148 0
    outer loop
      vertex 8.49797 -26.1541 46
      vertex 8.49797 -26.1541 28
      vertex 2.87453 -27.3494 46
    endloop
  endfacet
  facet normal -0.207912 0.978148 0
    outer loop
      vertex 2.87453 -27.3494 46
      vertex 8.49797 -26.1541 28
      vertex 2.87453 -27.3494 28
    endloop
  endfacet
  facet normal 0 1 0
    outer loop
      vertex 2.87453 -27.3494 46
      vertex 2.87453 -27.3494 28
      vertex -2.87453 -27.3494 46
    endloop
  endfacet
  facet normal 0 1 0
    outer loop
      vertex -2.87453 -27.3494 46
      vertex 2.87453 -27.3494 28
      vertex -2.87453 -27.3494 28
    endloop
  endfacet
  facet normal 0.207912 0.978148 0
    outer loop
      vertex -2.87453 -27.3494 46
      vertex -2.87453 -27.3494 28
      vertex -8.49797 -26.1541 46
    endloop
  endfacet
  facet normal 0.207912 0.978148 0
    outer loop
      vertex -8.49797 -26.1541 46
      vertex -2.87453 -27.3494 28
      vertex -8.49797 -26.1541 28
    endloop
  endfacet
  facet normal 0.587785 0.809017 0
    outer loop
      vertex -13.75 -23.8157 46
      vertex -13.75 -23.8157 28
      vertex -18.4011 -20.4365 46
    endloop
  endfacet
  facet normal 0.587785 0.809017 0
    outer loop
      vertex -18.4011 -20.4365 46
      vertex -13.75 -23.8157 28
      vertex -18.4011 -20.4365 28
    endloop
  endfacet
  facet normal 0.406737 0.913546 0
    outer loop
      vertex -8.49797 -26.1541 46
      vertex -8.49797 -26.1541 28
      vertex -13.75 -23.8157 46
    endloop
  endfacet
  facet normal 0.406737 0.913546 0
    outer loop
      vertex -13.75 -23.8157 46
      vertex -8.49797 -26.1541 28
      vertex -13.75 -23.8157 28
    endloop
  endfacet
  facet normal 0.743145 0.66913 0
    outer loop
      vertex -22.248 -16.1641 46
      vertex -18.4011 -20.4365 46
      vertex -18.4011 -20.4365 28
    endloop
  endfacet
  facet normal 0.743145 0.66913 0
    outer loop
      vertex -22.248 -16.1641 28
      vertex -22.248 -16.1641 46
      vertex -18.4011 -20.4365 28
    endloop
  endfacet
  facet normal 0 0 1
    outer loop
      vertex -28.8554 6.1334 46
      vertex -29.5 0 46
      vertex -28.8554 -6.1334 46
    endloop
  endfacet
  facet normal 0 0 1
    outer loop
      vertex -26.8991 -5.71757 46
      vertex -28.8554 6.1334 46
      vertex -26.9496 -11.9987 46
    endloop
  endfacet
  facet normal 0 0 1
    outer loop
      vertex -26.9496 -11.9987 46
      vertex -28.8554 6.1334 46
      vertex -28.8554 -6.1334 46
    endloop
  endfacet
  facet normal 0 0 1
    outer loop
      vertex 18.4011 -20.4365 46
      vertex 13.75 -23.8157 46
      vertex 19.7394 -21.9228 46
    endloop
  endfacet
  facet normal 0 0 1
    outer loop
      vertex -18.4011 -20.4365 46
      vertex -22.248 -16.1641 46
      vertex -19.7394 -21.9228 46
    endloop
  endfacet
  facet normal 0 0 1
    outer loop
      vertex -13.75 23.8157 46
      vertex -8.49797 26.1541 46
      vertex -9.116 28.0562 46
    endloop
  endfacet
  facet normal 0 0 1
    outer loop
      vertex -23.866 17.3397 46
      vertex -28.8554 6.1334 46
      vertex -19.7394 21.9228 46
    endloop
  endfacet
  facet normal 0 0 1
    outer loop
      vertex -26.9496 11.9987 46
      vertex -28.8554 6.1334 46
      vertex -23.866 17.3397 46
    endloop
  endfacet
  facet normal 0 0 1
    outer loop
      vertex -23.866 -17.3397 46
      vertex -26.8991 -5.71757 46
      vertex -26.9496 -11.9987 46
    endloop
  endfacet
  facet normal 0 0 1
    outer loop
      vertex 22.248 -16.1641 46
      vertex 18.4011 -20.4365 46
      vertex 23.866 -17.3397 46
    endloop
  endfacet
  facet normal 0 0 1
    outer loop
      vertex -8.49797 26.1541 46
      vertex -2.87453 27.3494 46
      vertex -3.08359 29.3384 46
    endloop
  endfacet
  facet normal 0 0 1
    outer loop
      vertex -22.248 16.1641 46
      vertex -18.4011 20.4365 46
      vertex -14.75 25.5477 46
    endloop
  endfacet
  facet normal 0 0 1
    outer loop
      vertex -19.7394 21.9228 46
      vertex -22.248 16.1641 46
      vertex -14.75 25.5477 46
    endloop
  endfacet
  facet normal 0 0 1
    outer loop
      vertex -19.7394 21.9228 46
      vertex -28.8554 6.1334 46
      vertex -22.248 16.1641 46
    endloop
  endfacet
  facet normal 0 0 1
    outer loop
      vertex -14.75 25.5477 46
      vertex -18.4011 20.4365 46
      vertex -9.116 28.0562 46
    endloop
  endfacet
  facet normal 0 0 1
    outer loop
      vertex -18.4011 20.4365 46
      vertex -13.75 23.8157 46
      vertex -9.116 28.0562 46
    endloop
  endfacet
  facet normal 0 0 1
    outer loop
      vertex -9.116 28.0562 46
      vertex -8.49797 26.1541 46
      vertex -3.08359 29.3384 46
    endloop
  endfacet
  facet normal 0 0 1
    outer loop
      vertex -25.1225 11.1853 46
      vertex -22.248 16.1641 46
      vertex -28.8554 6.1334 46
    endloop
  endfacet
  facet normal 0 0 1
    outer loop
      vertex -3.08359 29.3384 46
      vertex -2.87453 27.3494 46
      vertex 3.08359 29.3384 46
    endloop
  endfacet
  facet normal 0 0 1
    outer loop
      vertex 3.08359 29.3384 46
      vertex 2.87453 27.3494 46
      vertex 9.116 28.0562 46
    endloop
  endfacet
  facet normal 0 0 1
    outer loop
      vertex 9.116 28.0562 46
      vertex 8.49797 26.1541 46
      vertex 14.75 25.5477 46
    endloop
  endfacet
  facet normal 0 0 1
    outer loop
      vertex 14.75 25.5477 46
      vertex 13.75 23.8157 46
      vertex 19.7394 21.9228 46
    endloop
  endfacet
  facet normal 0 0 1
    outer loop
      vertex 19.7394 21.9228 46
      vertex 18.4011 20.4365 46
      vertex 23.866 17.3397 46
    endloop
  endfacet
  facet normal 0 0 1
    outer loop
      vertex 23.866 17.3397 46
      vertex 22.248 16.1641 46
      vertex 26.9496 11.9987 46
    endloop
  endfacet
  facet normal 0 0 1
    outer loop
      vertex 26.9496 11.9987 46
      vertex 25.1225 11.1853 46
      vertex 28.8554 6.1334 46
    endloop
  endfacet
  facet normal 0 0 1
    outer loop
      vertex 28.8554 6.1334 46
      vertex 26.8991 5.71757 46
      vertex 29.5 0 46
    endloop
  endfacet
  facet normal 0 0 1
    outer loop
      vertex 29.5 0 46
      vertex 27.5 0 46
      vertex 28.8554 -6.1334 46
    endloop
  endfacet
  facet normal 0 0 1
    outer loop
      vertex 27.5 0 46
      vertex 26.8991 -5.71757 46
      vertex 28.8554 -6.1334 46
    endloop
  endfacet
  facet normal 0 0 1
    outer loop
      vertex 28.8554 -6.1334 46
      vertex 25.1225 -11.1853 46
      vertex 26.9496 -11.9987 46
    endloop
  endfacet
  facet normal 0 0 1
    outer loop
      vertex 26.9496 -11.9987 46
      vertex 22.248 -16.1641 46
      vertex 23.866 -17.3397 46
    endloop
  endfacet
  facet normal 0 0 1
    outer loop
      vertex -2.87453 27.3494 46
      vertex 2.87453 27.3494 46
      vertex 3.08359 29.3384 46
    endloop
  endfacet
  facet normal 0 0 1
    outer loop
      vertex 23.866 -17.3397 46
      vertex 18.4011 -20.4365 46
      vertex 19.7394 -21.9228 46
    endloop
  endfacet
  facet normal 0 0 1
    outer loop
      vertex 2.87453 27.3494 46
      vertex 8.49797 26.1541 46
      vertex 9.116 28.0562 46
    endloop
  endfacet
  facet normal 0 0 1
    outer loop
      vertex 19.7394 -21.9228 46
      vertex 13.75 -23.8157 46
      vertex 14.75 -25.5477 46
    endloop
  endfacet
  facet normal 0 0 1
    outer loop
      vertex 8.49797 26.1541 46
      vertex 13.75 23.8157 46
      vertex 14.75 25.5477 46
    endloop
  endfacet
  facet normal 0 0 1
    outer loop
      vertex 14.75 -25.5477 46
      vertex 8.49797 -26.1541 46
      vertex 9.116 -28.0562 46
    endloop
  endfacet
  facet normal 0 0 1
    outer loop
      vertex 13.75 23.8157 46
      vertex 18.4011 20.4365 46
      vertex 19.7394 21.9228 46
    endloop
  endfacet
  facet normal 0 0 1
    outer loop
      vertex 9.116 -28.0562 46
      vertex 2.87453 -27.3494 46
      vertex 3.08359 -29.3384 46
    endloop
  endfacet
  facet normal 0 0 1
    outer loop
      vertex 18.4011 20.4365 46
      vertex 22.248 16.1641 46
      vertex 23.866 17.3397 46
    endloop
  endfacet
  facet normal 0 0 1
    outer loop
      vertex 3.08359 -29.3384 46
      vertex -2.87453 -27.3494 46
      vertex -3.08359 -29.3384 46
    endloop
  endfacet
  facet normal 0 0 1
    outer loop
      vertex 22.248 16.1641 46
      vertex 25.1225 11.1853 46
      vertex 26.9496 11.9987 46
    endloop
  endfacet
  facet normal 0 0 1
    outer loop
      vertex -3.08359 -29.3384 46
      vertex -8.49797 -26.1541 46
      vertex -9.116 -28.0562 46
    endloop
  endfacet
  facet normal 0 0 1
    outer loop
      vertex 25.1225 11.1853 46
      vertex 26.8991 5.71757 46
      vertex 28.8554 6.1334 46
    endloop
  endfacet
  facet normal 0 0 1
    outer loop
      vertex -9.116 -28.0562 46
      vertex -13.75 -23.8157 46
      vertex -14.75 -25.5477 46
    endloop
  endfacet
  facet normal 0 0 1
    outer loop
      vertex 26.8991 5.71757 46
      vertex 27.5 0 46
      vertex 29.5 0 46
    endloop
  endfacet
  facet normal 0 0 1
    outer loop
      vertex -14.75 -25.5477 46
      vertex -18.4011 -20.4365 46
      vertex -19.7394 -21.9228 46
    endloop
  endfacet
  facet normal 0 0 1
    outer loop
      vertex 26.8991 -5.71757 46
      vertex 25.1225 -11.1853 46
      vertex 28.8554 -6.1334 46
    endloop
  endfacet
  facet normal 0 0 1
    outer loop
      vertex -19.7394 -21.9228 46
      vertex -22.248 -16.1641 46
      vertex -23.866 -17.3397 46
    endloop
  endfacet
  facet normal 0 0 1
    outer loop
      vertex -22.248 -16.1641 46
      vertex -25.1225 -11.1853 46
      vertex -23.866 -17.3397 46
    endloop
  endfacet
  facet normal 0 0 1
    outer loop
      vertex -26.8991 -5.71757 46
      vertex -27.5 0 46
      vertex -28.8554 6.1334 46
    endloop
  endfacet
  facet normal 0 0 1
    outer loop
      vertex -25.1225 -11.1853 46
      vertex -26.8991 -5.71757 46
      vertex -23.866 -17.3397 46
    endloop
  endfacet
  facet normal 0 0 1
    outer loop
      vertex 13.75 -23.8157 46
      vertex 8.49797 -26.1541 46
      vertex 14.75 -25.5477 46
    endloop
  endfacet
  facet normal 0 0 1
    outer loop
      vertex 8.49797 -26.1541 46
      vertex 2.87453 -27.3494 46
      vertex 9.116 -28.0562 46
    endloop
  endfacet
  facet normal 0 0 1
    outer loop
      vertex 2.87453 -27.3494 46
      vertex -2.87453 -27.3494 46
      vertex 3.08359 -29.3384 46
    endloop
  endfacet
  facet normal 0 0 1
    outer loop
      vertex -2.87453 -27.3494 46
      vertex -8.49797 -26.1541 46
      vertex -3.08359 -29.3384 46
    endloop
  endfacet
  facet normal 0 0 1
    outer loop
      vertex -8.49797 -26.1541 46
      vertex -13.75 -23.8157 46
      vertex -9.116 -28.0562 46
    endloop
  endfacet
  facet normal 0 0 1
    outer loop
      vertex -13.75 -23.8157 46
      vertex -18.4011 -20.4365 46
      vertex -14.75 -25.5477 46
    endloop
  endfacet
  facet normal 0 0 1
    outer loop
      vertex -27.5 0 46
      vertex -26.8991 5.71757 46
      vertex -28.8554 6.1334 46
    endloop
  endfacet
  facet normal 0 0 1
    outer loop
      vertex 25.1225 -11.1853 46
      vertex 22.248 -16.1641 46
      vertex 26.9496 -11.9987 46
    endloop
  endfacet
  facet normal 0 0 1
    outer loop
      vertex -26.8991 5.71757 46
      vertex -25.1225 11.1853 46
      vertex -28.8554 6.1334 46
    endloop
  endfacet
endsolid OpenSCAD_Model
