solid OpenSCAD_Model
  facet normal -1 0 0
    outer loop
      vertex 0 0 0
      vertex 0 0 17
      vertex 0 6 2
    endloop
  endfacet
  facet normal -1 0 0
    outer loop
      vertex 0 0 0
      vertex 0 6 2
      vertex 0 15.75 0
    endloop
  endfacet
  facet normal -1 0 0
    outer loop
      vertex 0 10.75 17
      vertex 0 15.75 0
      vertex 0 10.75 2
    endloop
  endfacet
  facet normal -1 0 0
    outer loop
      vertex 0 6 2
      vertex 0 10.75 2
      vertex 0 15.75 0
    endloop
  endfacet
  facet normal -1 0 0
    outer loop
      vertex 0 15.75 0
      vertex 0 10.75 17
      vertex 0 15.75 17
    endloop
  endfacet
  facet normal -1 0 0
    outer loop
      vertex 0 6 2
      vertex 0 0 17
      vertex 0 6 17
    endloop
  endfacet
  facet normal 0 -1 0
    outer loop
      vertex 129 0 2
      vertex 0 0 0
      vertex 172 0 0
    endloop
  endfacet
  facet normal 0 -1 0
    outer loop
      vertex 43 0 2
      vertex 43 0 17
      vertex 0 0 17
    endloop
  endfacet
  facet normal 0 -1 0
    outer loop
      vertex 172 0 17
      vertex 129 0 17
      vertex 172 0 0
    endloop
  endfacet
  facet normal 0 -1 0
    outer loop
      vertex 43 0 2
      vertex 0 0 0
      vertex 129 0 2
    endloop
  endfacet
  facet normal 0 -1 0
    outer loop
      vertex 0 0 17
      vertex 0 0 0
      vertex 43 0 2
    endloop
  endfacet
  facet normal 0 -1 0
    outer loop
      vertex 129 0 17
      vertex 129 0 2
      vertex 172 0 0
    endloop
  endfacet
  facet normal 0 0 -1
    outer loop
      vertex 0 0 0
      vertex 0 15.75 0
      vertex 172 0 0
    endloop
  endfacet
  facet normal 0 0 -1
    outer loop
      vertex 172 0 0
      vertex 0 15.75 0
      vertex 172 15.75 0
    endloop
  endfacet
  facet normal 0 1 0
    outer loop
      vertex 0 15.75 0
      vertex 0 15.75 17
      vertex 172 15.75 0
    endloop
  endfacet
  facet normal 0 1 0
    outer loop
      vertex 172 15.75 0
      vertex 0 15.75 17
      vertex 172 15.75 17
    endloop
  endfacet
  facet normal 0 0 1
    outer loop
      vertex 0 15.75 17
      vertex 0 10.75 17
      vertex 172 10.75 17
    endloop
  endfacet
  facet normal 0 0 1
    outer loop
      vertex 172 15.75 17
      vertex 0 15.75 17
      vertex 172 10.75 17
    endloop
  endfacet
  facet normal 0 -1 0
    outer loop
      vertex 172 10.75 2
      vertex 172 10.75 17
      vertex 0 10.75 17
    endloop
  endfacet
  facet normal 0 -1 0
    outer loop
      vertex 0 10.75 2
      vertex 172 10.75 2
      vertex 0 10.75 17
    endloop
  endfacet
  facet normal 0 0 1
    outer loop
      vertex 43 6 2
      vertex 43 0 2
      vertex 129 0 2
    endloop
  endfacet
  facet normal 0 0 1
    outer loop
      vertex 172 10.75 2
      vertex 43 6 2
      vertex 129 6 2
    endloop
  endfacet
  facet normal 0 0 1
    outer loop
      vertex 129 6 2
      vertex 43 6 2
      vertex 129 0 2
    endloop
  endfacet
  facet normal 0 0 1
    outer loop
      vertex 172 10.75 2
      vertex 129 6 2
      vertex 172 6 2
    endloop
  endfacet
  facet normal 0 0 1
    outer loop
      vertex 0 10.75 2
      vertex 43 6 2
      vertex 172 10.75 2
    endloop
  endfacet
  facet normal 0 0 1
    outer loop
      vertex 0 6 2
      vertex 43 6 2
      vertex 0 10.75 2
    endloop
  endfacet
  facet normal 0 1 0
    outer loop
      vertex 43 6 17
      vertex 43 6 2
      vertex 0 6 17
    endloop
  endfacet
  facet normal 0 1 0
    outer loop
      vertex 0 6 17
      vertex 43 6 2
      vertex 0 6 2
    endloop
  endfacet
  facet normal 0 0 1
    outer loop
      vertex 0 6 17
      vertex 0 0 17
      vertex 43 0 17
    endloop
  endfacet
  facet normal 0 0 1
    outer loop
      vertex 43 6 17
      vertex 0 6 17
      vertex 43 0 17
    endloop
  endfacet
  facet normal 1 0 0
    outer loop
      vertex 43 6 2
      vertex 43 6 17
      vertex 43 0 17
    endloop
  endfacet
  facet normal 1 0 0
    outer loop
      vertex 43 0 2
      vertex 43 6 2
      vertex 43 0 17
    endloop
  endfacet
  facet normal -1 0 0
    outer loop
      vertex 129 6 17
      vertex 129 6 2
      vertex 129 0 17
    endloop
  endfacet
  facet normal -1 0 0
    outer loop
      vertex 129 0 17
      vertex 129 6 2
      vertex 129 0 2
    endloop
  endfacet
  facet normal 0 0 1
    outer loop
      vertex 129 6 17
      vertex 129 0 17
      vertex 172 0 17
    endloop
  endfacet
  facet normal 0 0 1
    outer loop
      vertex 172 6 17
      vertex 129 6 17
      vertex 172 0 17
    endloop
  endfacet
  facet normal 1 0 0
    outer loop
      vertex 172 10.75 2
      vertex 172 0 0
      vertex 172 15.75 0
    endloop
  endfacet
  facet normal 1 0 0
    outer loop
      vertex 172 6 2
      vertex 172 6 17
      vertex 172 0 17
    endloop
  endfacet
  facet normal 1 0 0
    outer loop
      vertex 172 15.75 17
      vertex 172 10.75 17
      vertex 172 15.75 0
    endloop
  endfacet
  facet normal 1 0 0
    outer loop
      vertex 172 6 2
      vertex 172 0 0
      vertex 172 10.75 2
    endloop
  endfacet
  facet normal 1 0 0
    outer loop
      vertex 172 0 17
      vertex 172 0 0
      vertex 172 6 2
    endloop
  endfacet
  facet normal 1 0 0
    outer loop
      vertex 172 10.75 17
      vertex 172 10.75 2
      vertex 172 15.75 0
    endloop
  endfacet
  facet normal 0 1 0
    outer loop
      vertex 172 6 17
      vertex 172 6 2
      vertex 129 6 17
    endloop
  endfacet
  facet normal 0 1 0
    outer loop
      vertex 129 6 17
      vertex 172 6 2
      vertex 129 6 2
    endloop
  endfacet
endsolid OpenSCAD_Model
