  0
SECTION
  2
BLOCKS
  0
ENDSEC
  0
SECTION
  2
ENTITIES
  0
LINE
  8
0
 10
-88.0333
 20
-18.7121
 11
-82.2191
 21
-36.6063
  0
LINE
  8
0
 10
-82.2191
 20
-36.6063
 11
-72.8115
 21
-52.9007
  0
LINE
  8
0
 10
-72.8115
 20
-52.9007
 11
-60.2217
 21
-66.883
  0
LINE
  8
0
 10
-60.2217
 20
-66.883
 11
-45
 21
-77.9423
  0
LINE
  8
0
 10
-45
 20
-77.9423
 11
-27.8115
 21
-85.5951
  0
LINE
  8
0
 10
-27.8115
 20
-85.5951
 11
-9.40755
 21
-89.507
  0
LINE
  8
0
 10
-9.40755
 20
-89.507
 11
9.40755
 21
-89.507
  0
LINE
  8
0
 10
9.40755
 20
-89.507
 11
27.8115
 21
-85.5951
  0
LINE
  8
0
 10
27.8115
 20
-85.5951
 11
45
 21
-77.9423
  0
LINE
  8
0
 10
45
 20
-77.9423
 11
60.2217
 21
-66.883
  0
LINE
  8
0
 10
60.2217
 20
-66.883
 11
72.8115
 21
-52.9007
  0
LINE
  8
0
 10
72.8115
 20
-52.9007
 11
82.2191
 21
-36.6063
  0
LINE
  8
0
 10
82.2191
 20
-36.6063
 11
88.0333
 21
-18.7121
  0
LINE
  8
0
 10
88.0333
 20
-18.7121
 11
90
 21
0
  0
LINE
  8
0
 10
90
 20
0
 11
90
 21
245
  0
LINE
  8
0
 10
90
 20
245
 11
20.1
 21
245
  0
LINE
  8
0
 10
20.1
 20
245
 11
20.1
 21
225
  0
LINE
  8
0
 10
20.1
 20
225
 11
20
 21
225
  0
LINE
  8
0
 10
20
 20
225
 11
20
 21
315
  0
LINE
  8
0
 10
20
 20
315
 11
-20
 21
315
  0
LINE
  8
0
 10
-20
 20
315
 11
-20
 21
225
  0
LINE
  8
0
 10
-20
 20
225
 11
-20.1
 21
225
  0
LINE
  8
0
 10
-20.1
 20
225
 11
-20.1
 21
245
  0
LINE
  8
0
 10
-20.1
 20
245
 11
-90
 21
245
  0
LINE
  8
0
 10
-90
 20
245
 11
-90
 21
0
  0
LINE
  8
0
 10
-90
 20
0
 11
-88.0333
 21
-18.7121
  0
LINE
  8
0
 10
14.191
 20
309.412
 11
14.191
 21
310.588
  0
LINE
  8
0
 10
14.191
 20
310.588
 11
15.309
 21
310.951
  0
LINE
  8
0
 10
15.309
 20
310.951
 11
16
 21
310
  0
LINE
  8
0
 10
16
 20
310
 11
15.309
 21
309.049
  0
LINE
  8
0
 10
15.309
 20
309.049
 11
14.191
 21
309.412
  0
LINE
  8
0
 10
-10.809
 20
309.412
 11
-10.809
 21
310.588
  0
LINE
  8
0
 10
-10.809
 20
310.588
 11
-9.69099
 21
310.951
  0
LINE
  8
0
 10
-9.69099
 20
310.951
 11
-9
 21
310
  0
LINE
  8
0
 10
-9
 20
310
 11
-9.69099
 21
309.049
  0
LINE
  8
0
 10
-9.69099
 20
309.049
 11
-10.809
 21
309.412
  0
LINE
  8
0
 10
9.19098
 20
309.412
 11
9.19098
 21
310.588
  0
LINE
  8
0
 10
9.19098
 20
310.588
 11
10.309
 21
310.951
  0
LINE
  8
0
 10
10.309
 20
310.951
 11
11
 21
310
  0
LINE
  8
0
 10
11
 20
310
 11
10.309
 21
309.049
  0
LINE
  8
0
 10
10.309
 20
309.049
 11
9.19098
 21
309.412
  0
LINE
  8
0
 10
-15.809
 20
309.412
 11
-15.809
 21
310.588
  0
LINE
  8
0
 10
-15.809
 20
310.588
 11
-14.691
 21
310.951
  0
LINE
  8
0
 10
-14.691
 20
310.951
 11
-14
 21
310
  0
LINE
  8
0
 10
-14
 20
310
 11
-14.691
 21
309.049
  0
LINE
  8
0
 10
-14.691
 20
309.049
 11
-15.809
 21
309.412
  0
LINE
  8
0
 10
-5.80902
 20
309.412
 11
-5.80902
 21
310.588
  0
LINE
  8
0
 10
-5.80902
 20
310.588
 11
-4.69099
 21
310.951
  0
LINE
  8
0
 10
-4.69099
 20
310.951
 11
-4
 21
310
  0
LINE
  8
0
 10
-4
 20
310
 11
-4.69099
 21
309.049
  0
LINE
  8
0
 10
-4.69099
 20
309.049
 11
-5.80902
 21
309.412
  0
LINE
  8
0
 10
4.19098
 20
309.412
 11
4.19098
 21
310.588
  0
LINE
  8
0
 10
4.19098
 20
310.588
 11
5.30901
 21
310.951
  0
LINE
  8
0
 10
5.30901
 20
310.951
 11
6
 21
310
  0
LINE
  8
0
 10
6
 20
310
 11
5.30901
 21
309.049
  0
LINE
  8
0
 10
5.30901
 20
309.049
 11
4.19098
 21
309.412
  0
LINE
  8
0
 10
4.19098
 20
305.412
 11
4.19098
 21
306.588
  0
LINE
  8
0
 10
4.19098
 20
306.588
 11
5.30901
 21
306.951
  0
LINE
  8
0
 10
5.30901
 20
306.951
 11
6
 21
306
  0
LINE
  8
0
 10
6
 20
306
 11
5.30901
 21
305.049
  0
LINE
  8
0
 10
5.30901
 20
305.049
 11
4.19098
 21
305.412
  0
LINE
  8
0
 10
14.191
 20
305.412
 11
14.191
 21
306.588
  0
LINE
  8
0
 10
14.191
 20
306.588
 11
15.309
 21
306.951
  0
LINE
  8
0
 10
15.309
 20
306.951
 11
16
 21
306
  0
LINE
  8
0
 10
16
 20
306
 11
15.309
 21
305.049
  0
LINE
  8
0
 10
15.309
 20
305.049
 11
14.191
 21
305.412
  0
LINE
  8
0
 10
-15.809
 20
305.412
 11
-15.809
 21
306.588
  0
LINE
  8
0
 10
-15.809
 20
306.588
 11
-14.691
 21
306.951
  0
LINE
  8
0
 10
-14.691
 20
306.951
 11
-14
 21
306
  0
LINE
  8
0
 10
-14
 20
306
 11
-14.691
 21
305.049
  0
LINE
  8
0
 10
-14.691
 20
305.049
 11
-15.809
 21
305.412
  0
LINE
  8
0
 10
-5.80902
 20
305.412
 11
-5.80902
 21
306.588
  0
LINE
  8
0
 10
-5.80902
 20
306.588
 11
-4.69099
 21
306.951
  0
LINE
  8
0
 10
-4.69099
 20
306.951
 11
-4
 21
306
  0
LINE
  8
0
 10
-4
 20
306
 11
-4.69099
 21
305.049
  0
LINE
  8
0
 10
-4.69099
 20
305.049
 11
-5.80902
 21
305.412
  0
LINE
  8
0
 10
-15.809
 20
301.412
 11
-15.809
 21
302.588
  0
LINE
  8
0
 10
-15.809
 20
302.588
 11
-14.691
 21
302.951
  0
LINE
  8
0
 10
-14.691
 20
302.951
 11
-14
 21
302
  0
LINE
  8
0
 10
-14
 20
302
 11
-14.691
 21
301.049
  0
LINE
  8
0
 10
-14.691
 20
301.049
 11
-15.809
 21
301.412
  0
LINE
  8
0
 10
4.19098
 20
301.412
 11
4.19098
 21
302.588
  0
LINE
  8
0
 10
4.19098
 20
302.588
 11
5.30901
 21
302.951
  0
LINE
  8
0
 10
5.30901
 20
302.951
 11
6
 21
302
  0
LINE
  8
0
 10
6
 20
302
 11
5.30901
 21
301.049
  0
LINE
  8
0
 10
5.30901
 20
301.049
 11
4.19098
 21
301.412
  0
LINE
  8
0
 10
-5.80902
 20
301.412
 11
-5.80902
 21
302.588
  0
LINE
  8
0
 10
-5.80902
 20
302.588
 11
-4.69099
 21
302.951
  0
LINE
  8
0
 10
-4.69099
 20
302.951
 11
-4
 21
302
  0
LINE
  8
0
 10
-4
 20
302
 11
-4.69099
 21
301.049
  0
LINE
  8
0
 10
-4.69099
 20
301.049
 11
-5.80902
 21
301.412
  0
LINE
  8
0
 10
14.191
 20
301.412
 11
14.191
 21
302.588
  0
LINE
  8
0
 10
14.191
 20
302.588
 11
15.309
 21
302.951
  0
LINE
  8
0
 10
15.309
 20
302.951
 11
16
 21
302
  0
LINE
  8
0
 10
16
 20
302
 11
15.309
 21
301.049
  0
LINE
  8
0
 10
15.309
 20
301.049
 11
14.191
 21
301.412
  0
LINE
  8
0
 10
-5.80902
 20
297.412
 11
-5.80902
 21
298.588
  0
LINE
  8
0
 10
-5.80902
 20
298.588
 11
-4.69099
 21
298.951
  0
LINE
  8
0
 10
-4.69099
 20
298.951
 11
-4
 21
298
  0
LINE
  8
0
 10
-4
 20
298
 11
-4.69099
 21
297.049
  0
LINE
  8
0
 10
-4.69099
 20
297.049
 11
-5.80902
 21
297.412
  0
LINE
  8
0
 10
-15.809
 20
297.412
 11
-15.809
 21
298.588
  0
LINE
  8
0
 10
-15.809
 20
298.588
 11
-14.691
 21
298.951
  0
LINE
  8
0
 10
-14.691
 20
298.951
 11
-14
 21
298
  0
LINE
  8
0
 10
-14
 20
298
 11
-14.691
 21
297.049
  0
LINE
  8
0
 10
-14.691
 20
297.049
 11
-15.809
 21
297.412
  0
LINE
  8
0
 10
4.19098
 20
297.412
 11
4.19098
 21
298.588
  0
LINE
  8
0
 10
4.19098
 20
298.588
 11
5.30901
 21
298.951
  0
LINE
  8
0
 10
5.30901
 20
298.951
 11
6
 21
298
  0
LINE
  8
0
 10
6
 20
298
 11
5.30901
 21
297.049
  0
LINE
  8
0
 10
5.30901
 20
297.049
 11
4.19098
 21
297.412
  0
LINE
  8
0
 10
14.191
 20
297.412
 11
14.191
 21
298.588
  0
LINE
  8
0
 10
14.191
 20
298.588
 11
15.309
 21
298.951
  0
LINE
  8
0
 10
15.309
 20
298.951
 11
16
 21
298
  0
LINE
  8
0
 10
16
 20
298
 11
15.309
 21
297.049
  0
LINE
  8
0
 10
15.309
 20
297.049
 11
14.191
 21
297.412
  0
LINE
  8
0
 10
-15.809
 20
293.412
 11
-15.809
 21
294.588
  0
LINE
  8
0
 10
-15.809
 20
294.588
 11
-14.691
 21
294.951
  0
LINE
  8
0
 10
-14.691
 20
294.951
 11
-14
 21
294
  0
LINE
  8
0
 10
-14
 20
294
 11
-14.691
 21
293.049
  0
LINE
  8
0
 10
-14.691
 20
293.049
 11
-15.809
 21
293.412
  0
LINE
  8
0
 10
-5.80902
 20
293.412
 11
-5.80902
 21
294.588
  0
LINE
  8
0
 10
-5.80902
 20
294.588
 11
-4.69099
 21
294.951
  0
LINE
  8
0
 10
-4.69099
 20
294.951
 11
-4
 21
294
  0
LINE
  8
0
 10
-4
 20
294
 11
-4.69099
 21
293.049
  0
LINE
  8
0
 10
-4.69099
 20
293.049
 11
-5.80902
 21
293.412
  0
LINE
  8
0
 10
4.19098
 20
293.412
 11
4.19098
 21
294.588
  0
LINE
  8
0
 10
4.19098
 20
294.588
 11
5.30901
 21
294.951
  0
LINE
  8
0
 10
5.30901
 20
294.951
 11
6
 21
294
  0
LINE
  8
0
 10
6
 20
294
 11
5.30901
 21
293.049
  0
LINE
  8
0
 10
5.30901
 20
293.049
 11
4.19098
 21
293.412
  0
LINE
  8
0
 10
14.191
 20
293.412
 11
14.191
 21
294.588
  0
LINE
  8
0
 10
14.191
 20
294.588
 11
15.309
 21
294.951
  0
LINE
  8
0
 10
15.309
 20
294.951
 11
16
 21
294
  0
LINE
  8
0
 10
16
 20
294
 11
15.309
 21
293.049
  0
LINE
  8
0
 10
15.309
 20
293.049
 11
14.191
 21
293.412
  0
LINE
  8
0
 10
-15.809
 20
289.412
 11
-15.809
 21
290.588
  0
LINE
  8
0
 10
-15.809
 20
290.588
 11
-14.691
 21
290.951
  0
LINE
  8
0
 10
-14.691
 20
290.951
 11
-14
 21
290
  0
LINE
  8
0
 10
-14
 20
290
 11
-14.691
 21
289.049
  0
LINE
  8
0
 10
-14.691
 20
289.049
 11
-15.809
 21
289.412
  0
LINE
  8
0
 10
-5.80902
 20
289.412
 11
-5.80902
 21
290.588
  0
LINE
  8
0
 10
-5.80902
 20
290.588
 11
-4.69099
 21
290.951
  0
LINE
  8
0
 10
-4.69099
 20
290.951
 11
-4
 21
290
  0
LINE
  8
0
 10
-4
 20
290
 11
-4.69099
 21
289.049
  0
LINE
  8
0
 10
-4.69099
 20
289.049
 11
-5.80902
 21
289.412
  0
LINE
  8
0
 10
14.191
 20
289.412
 11
14.191
 21
290.588
  0
LINE
  8
0
 10
14.191
 20
290.588
 11
15.309
 21
290.951
  0
LINE
  8
0
 10
15.309
 20
290.951
 11
16
 21
290
  0
LINE
  8
0
 10
16
 20
290
 11
15.309
 21
289.049
  0
LINE
  8
0
 10
15.309
 20
289.049
 11
14.191
 21
289.412
  0
LINE
  8
0
 10
4.19098
 20
289.412
 11
4.19098
 21
290.588
  0
LINE
  8
0
 10
4.19098
 20
290.588
 11
5.30901
 21
290.951
  0
LINE
  8
0
 10
5.30901
 20
290.951
 11
6
 21
290
  0
LINE
  8
0
 10
6
 20
290
 11
5.30901
 21
289.049
  0
LINE
  8
0
 10
5.30901
 20
289.049
 11
4.19098
 21
289.412
  0
LINE
  8
0
 10
14.191
 20
285.412
 11
14.191
 21
286.588
  0
LINE
  8
0
 10
14.191
 20
286.588
 11
15.309
 21
286.951
  0
LINE
  8
0
 10
15.309
 20
286.951
 11
16
 21
286
  0
LINE
  8
0
 10
16
 20
286
 11
15.309
 21
285.049
  0
LINE
  8
0
 10
15.309
 20
285.049
 11
14.191
 21
285.412
  0
LINE
  8
0
 10
4.19098
 20
285.412
 11
4.19098
 21
286.588
  0
LINE
  8
0
 10
4.19098
 20
286.588
 11
5.30901
 21
286.951
  0
LINE
  8
0
 10
5.30901
 20
286.951
 11
6
 21
286
  0
LINE
  8
0
 10
6
 20
286
 11
5.30901
 21
285.049
  0
LINE
  8
0
 10
5.30901
 20
285.049
 11
4.19098
 21
285.412
  0
LINE
  8
0
 10
-5.80902
 20
285.412
 11
-5.80902
 21
286.588
  0
LINE
  8
0
 10
-5.80902
 20
286.588
 11
-4.69099
 21
286.951
  0
LINE
  8
0
 10
-4.69099
 20
286.951
 11
-4
 21
286
  0
LINE
  8
0
 10
-4
 20
286
 11
-4.69099
 21
285.049
  0
LINE
  8
0
 10
-4.69099
 20
285.049
 11
-5.80902
 21
285.412
  0
LINE
  8
0
 10
-15.809
 20
285.412
 11
-15.809
 21
286.588
  0
LINE
  8
0
 10
-15.809
 20
286.588
 11
-14.691
 21
286.951
  0
LINE
  8
0
 10
-14.691
 20
286.951
 11
-14
 21
286
  0
LINE
  8
0
 10
-14
 20
286
 11
-14.691
 21
285.049
  0
LINE
  8
0
 10
-14.691
 20
285.049
 11
-15.809
 21
285.412
  0
LINE
  8
0
 10
-15.809
 20
281.412
 11
-15.809
 21
282.588
  0
LINE
  8
0
 10
-15.809
 20
282.588
 11
-14.691
 21
282.951
  0
LINE
  8
0
 10
-14.691
 20
282.951
 11
-14
 21
282
  0
LINE
  8
0
 10
-14
 20
282
 11
-14.691
 21
281.049
  0
LINE
  8
0
 10
-14.691
 20
281.049
 11
-15.809
 21
281.412
  0
LINE
  8
0
 10
14.191
 20
281.412
 11
14.191
 21
282.588
  0
LINE
  8
0
 10
14.191
 20
282.588
 11
15.309
 21
282.951
  0
LINE
  8
0
 10
15.309
 20
282.951
 11
16
 21
282
  0
LINE
  8
0
 10
16
 20
282
 11
15.309
 21
281.049
  0
LINE
  8
0
 10
15.309
 20
281.049
 11
14.191
 21
281.412
  0
LINE
  8
0
 10
4.19098
 20
281.412
 11
4.19098
 21
282.588
  0
LINE
  8
0
 10
4.19098
 20
282.588
 11
5.30901
 21
282.951
  0
LINE
  8
0
 10
5.30901
 20
282.951
 11
6
 21
282
  0
LINE
  8
0
 10
6
 20
282
 11
5.30901
 21
281.049
  0
LINE
  8
0
 10
5.30901
 20
281.049
 11
4.19098
 21
281.412
  0
LINE
  8
0
 10
-5.80902
 20
281.412
 11
-5.80902
 21
282.588
  0
LINE
  8
0
 10
-5.80902
 20
282.588
 11
-4.69099
 21
282.951
  0
LINE
  8
0
 10
-4.69099
 20
282.951
 11
-4
 21
282
  0
LINE
  8
0
 10
-4
 20
282
 11
-4.69099
 21
281.049
  0
LINE
  8
0
 10
-4.69099
 20
281.049
 11
-5.80902
 21
281.412
  0
LINE
  8
0
 10
4.19098
 20
277.412
 11
4.19098
 21
278.588
  0
LINE
  8
0
 10
4.19098
 20
278.588
 11
5.30901
 21
278.951
  0
LINE
  8
0
 10
5.30901
 20
278.951
 11
6
 21
278
  0
LINE
  8
0
 10
6
 20
278
 11
5.30901
 21
277.049
  0
LINE
  8
0
 10
5.30901
 20
277.049
 11
4.19098
 21
277.412
  0
LINE
  8
0
 10
-15.809
 20
277.412
 11
-15.809
 21
278.588
  0
LINE
  8
0
 10
-15.809
 20
278.588
 11
-14.691
 21
278.951
  0
LINE
  8
0
 10
-14.691
 20
278.951
 11
-14
 21
278
  0
LINE
  8
0
 10
-14
 20
278
 11
-14.691
 21
277.049
  0
LINE
  8
0
 10
-14.691
 20
277.049
 11
-15.809
 21
277.412
  0
LINE
  8
0
 10
-5.80902
 20
277.412
 11
-5.80902
 21
278.588
  0
LINE
  8
0
 10
-5.80902
 20
278.588
 11
-4.69099
 21
278.951
  0
LINE
  8
0
 10
-4.69099
 20
278.951
 11
-4
 21
278
  0
LINE
  8
0
 10
-4
 20
278
 11
-4.69099
 21
277.049
  0
LINE
  8
0
 10
-4.69099
 20
277.049
 11
-5.80902
 21
277.412
  0
LINE
  8
0
 10
14.191
 20
277.412
 11
14.191
 21
278.588
  0
LINE
  8
0
 10
14.191
 20
278.588
 11
15.309
 21
278.951
  0
LINE
  8
0
 10
15.309
 20
278.951
 11
16
 21
278
  0
LINE
  8
0
 10
16
 20
278
 11
15.309
 21
277.049
  0
LINE
  8
0
 10
15.309
 20
277.049
 11
14.191
 21
277.412
  0
LINE
  8
0
 10
4.19098
 20
273.412
 11
4.19098
 21
274.588
  0
LINE
  8
0
 10
4.19098
 20
274.588
 11
5.30901
 21
274.951
  0
LINE
  8
0
 10
5.30901
 20
274.951
 11
6
 21
274
  0
LINE
  8
0
 10
6
 20
274
 11
5.30901
 21
273.049
  0
LINE
  8
0
 10
5.30901
 20
273.049
 11
4.19098
 21
273.412
  0
LINE
  8
0
 10
14.191
 20
273.412
 11
14.191
 21
274.588
  0
LINE
  8
0
 10
14.191
 20
274.588
 11
15.309
 21
274.951
  0
LINE
  8
0
 10
15.309
 20
274.951
 11
16
 21
274
  0
LINE
  8
0
 10
16
 20
274
 11
15.309
 21
273.049
  0
LINE
  8
0
 10
15.309
 20
273.049
 11
14.191
 21
273.412
  0
LINE
  8
0
 10
-5.80902
 20
273.412
 11
-5.80902
 21
274.588
  0
LINE
  8
0
 10
-5.80902
 20
274.588
 11
-4.69099
 21
274.951
  0
LINE
  8
0
 10
-4.69099
 20
274.951
 11
-4
 21
274
  0
LINE
  8
0
 10
-4
 20
274
 11
-4.69099
 21
273.049
  0
LINE
  8
0
 10
-4.69099
 20
273.049
 11
-5.80902
 21
273.412
  0
LINE
  8
0
 10
-15.809
 20
273.412
 11
-15.809
 21
274.588
  0
LINE
  8
0
 10
-15.809
 20
274.588
 11
-14.691
 21
274.951
  0
LINE
  8
0
 10
-14.691
 20
274.951
 11
-14
 21
274
  0
LINE
  8
0
 10
-14
 20
274
 11
-14.691
 21
273.049
  0
LINE
  8
0
 10
-14.691
 20
273.049
 11
-15.809
 21
273.412
  0
LINE
  8
0
 10
-15.809
 20
269.412
 11
-15.809
 21
270.588
  0
LINE
  8
0
 10
-15.809
 20
270.588
 11
-14.691
 21
270.951
  0
LINE
  8
0
 10
-14.691
 20
270.951
 11
-14
 21
270
  0
LINE
  8
0
 10
-14
 20
270
 11
-14.691
 21
269.049
  0
LINE
  8
0
 10
-14.691
 20
269.049
 11
-15.809
 21
269.412
  0
LINE
  8
0
 10
4.19098
 20
269.412
 11
4.19098
 21
270.588
  0
LINE
  8
0
 10
4.19098
 20
270.588
 11
5.30901
 21
270.951
  0
LINE
  8
0
 10
5.30901
 20
270.951
 11
6
 21
270
  0
LINE
  8
0
 10
6
 20
270
 11
5.30901
 21
269.049
  0
LINE
  8
0
 10
5.30901
 20
269.049
 11
4.19098
 21
269.412
  0
LINE
  8
0
 10
-5.80902
 20
269.412
 11
-5.80902
 21
270.588
  0
LINE
  8
0
 10
-5.80902
 20
270.588
 11
-4.69099
 21
270.951
  0
LINE
  8
0
 10
-4.69099
 20
270.951
 11
-4
 21
270
  0
LINE
  8
0
 10
-4
 20
270
 11
-4.69099
 21
269.049
  0
LINE
  8
0
 10
-4.69099
 20
269.049
 11
-5.80902
 21
269.412
  0
LINE
  8
0
 10
14.191
 20
269.412
 11
14.191
 21
270.588
  0
LINE
  8
0
 10
14.191
 20
270.588
 11
15.309
 21
270.951
  0
LINE
  8
0
 10
15.309
 20
270.951
 11
16
 21
270
  0
LINE
  8
0
 10
16
 20
270
 11
15.309
 21
269.049
  0
LINE
  8
0
 10
15.309
 20
269.049
 11
14.191
 21
269.412
  0
LINE
  8
0
 10
-5.80902
 20
265.412
 11
-5.80902
 21
266.588
  0
LINE
  8
0
 10
-5.80902
 20
266.588
 11
-4.69099
 21
266.951
  0
LINE
  8
0
 10
-4.69099
 20
266.951
 11
-4
 21
266
  0
LINE
  8
0
 10
-4
 20
266
 11
-4.69099
 21
265.049
  0
LINE
  8
0
 10
-4.69099
 20
265.049
 11
-5.80902
 21
265.412
  0
LINE
  8
0
 10
-15.809
 20
265.412
 11
-15.809
 21
266.588
  0
LINE
  8
0
 10
-15.809
 20
266.588
 11
-14.691
 21
266.951
  0
LINE
  8
0
 10
-14.691
 20
266.951
 11
-14
 21
266
  0
LINE
  8
0
 10
-14
 20
266
 11
-14.691
 21
265.049
  0
LINE
  8
0
 10
-14.691
 20
265.049
 11
-15.809
 21
265.412
  0
LINE
  8
0
 10
4.19098
 20
265.412
 11
4.19098
 21
266.588
  0
LINE
  8
0
 10
4.19098
 20
266.588
 11
5.30901
 21
266.951
  0
LINE
  8
0
 10
5.30901
 20
266.951
 11
6
 21
266
  0
LINE
  8
0
 10
6
 20
266
 11
5.30901
 21
265.049
  0
LINE
  8
0
 10
5.30901
 20
265.049
 11
4.19098
 21
265.412
  0
LINE
  8
0
 10
14.191
 20
265.412
 11
14.191
 21
266.588
  0
LINE
  8
0
 10
14.191
 20
266.588
 11
15.309
 21
266.951
  0
LINE
  8
0
 10
15.309
 20
266.951
 11
16
 21
266
  0
LINE
  8
0
 10
16
 20
266
 11
15.309
 21
265.049
  0
LINE
  8
0
 10
15.309
 20
265.049
 11
14.191
 21
265.412
  0
LINE
  8
0
 10
4.19098
 20
261.412
 11
4.19098
 21
262.588
  0
LINE
  8
0
 10
4.19098
 20
262.588
 11
5.30901
 21
262.951
  0
LINE
  8
0
 10
5.30901
 20
262.951
 11
6
 21
262
  0
LINE
  8
0
 10
6
 20
262
 11
5.30901
 21
261.049
  0
LINE
  8
0
 10
5.30901
 20
261.049
 11
4.19098
 21
261.412
  0
LINE
  8
0
 10
-5.80902
 20
261.412
 11
-5.80902
 21
262.588
  0
LINE
  8
0
 10
-5.80902
 20
262.588
 11
-4.69099
 21
262.951
  0
LINE
  8
0
 10
-4.69099
 20
262.951
 11
-4
 21
262
  0
LINE
  8
0
 10
-4
 20
262
 11
-4.69099
 21
261.049
  0
LINE
  8
0
 10
-4.69099
 20
261.049
 11
-5.80902
 21
261.412
  0
LINE
  8
0
 10
-15.809
 20
261.412
 11
-15.809
 21
262.588
  0
LINE
  8
0
 10
-15.809
 20
262.588
 11
-14.691
 21
262.951
  0
LINE
  8
0
 10
-14.691
 20
262.951
 11
-14
 21
262
  0
LINE
  8
0
 10
-14
 20
262
 11
-14.691
 21
261.049
  0
LINE
  8
0
 10
-14.691
 20
261.049
 11
-15.809
 21
261.412
  0
LINE
  8
0
 10
14.191
 20
261.412
 11
14.191
 21
262.588
  0
LINE
  8
0
 10
14.191
 20
262.588
 11
15.309
 21
262.951
  0
LINE
  8
0
 10
15.309
 20
262.951
 11
16
 21
262
  0
LINE
  8
0
 10
16
 20
262
 11
15.309
 21
261.049
  0
LINE
  8
0
 10
15.309
 20
261.049
 11
14.191
 21
261.412
  0
LINE
  8
0
 10
-15.809
 20
257.412
 11
-15.809
 21
258.588
  0
LINE
  8
0
 10
-15.809
 20
258.588
 11
-14.691
 21
258.951
  0
LINE
  8
0
 10
-14.691
 20
258.951
 11
-14
 21
258
  0
LINE
  8
0
 10
-14
 20
258
 11
-14.691
 21
257.049
  0
LINE
  8
0
 10
-14.691
 20
257.049
 11
-15.809
 21
257.412
  0
LINE
  8
0
 10
-5.80902
 20
257.412
 11
-5.80902
 21
258.588
  0
LINE
  8
0
 10
-5.80902
 20
258.588
 11
-4.69099
 21
258.951
  0
LINE
  8
0
 10
-4.69099
 20
258.951
 11
-4
 21
258
  0
LINE
  8
0
 10
-4
 20
258
 11
-4.69099
 21
257.049
  0
LINE
  8
0
 10
-4.69099
 20
257.049
 11
-5.80902
 21
257.412
  0
LINE
  8
0
 10
4.19098
 20
257.412
 11
4.19098
 21
258.588
  0
LINE
  8
0
 10
4.19098
 20
258.588
 11
5.30901
 21
258.951
  0
LINE
  8
0
 10
5.30901
 20
258.951
 11
6
 21
258
  0
LINE
  8
0
 10
6
 20
258
 11
5.30901
 21
257.049
  0
LINE
  8
0
 10
5.30901
 20
257.049
 11
4.19098
 21
257.412
  0
LINE
  8
0
 10
14.191
 20
257.412
 11
14.191
 21
258.588
  0
LINE
  8
0
 10
14.191
 20
258.588
 11
15.309
 21
258.951
  0
LINE
  8
0
 10
15.309
 20
258.951
 11
16
 21
258
  0
LINE
  8
0
 10
16
 20
258
 11
15.309
 21
257.049
  0
LINE
  8
0
 10
15.309
 20
257.049
 11
14.191
 21
257.412
  0
LINE
  8
0
 10
4.19098
 20
253.412
 11
4.19098
 21
254.588
  0
LINE
  8
0
 10
4.19098
 20
254.588
 11
5.30901
 21
254.951
  0
LINE
  8
0
 10
5.30901
 20
254.951
 11
6
 21
254
  0
LINE
  8
0
 10
6
 20
254
 11
5.30901
 21
253.049
  0
LINE
  8
0
 10
5.30901
 20
253.049
 11
4.19098
 21
253.412
  0
LINE
  8
0
 10
14.191
 20
253.412
 11
14.191
 21
254.588
  0
LINE
  8
0
 10
14.191
 20
254.588
 11
15.309
 21
254.951
  0
LINE
  8
0
 10
15.309
 20
254.951
 11
16
 21
254
  0
LINE
  8
0
 10
16
 20
254
 11
15.309
 21
253.049
  0
LINE
  8
0
 10
15.309
 20
253.049
 11
14.191
 21
253.412
  0
LINE
  8
0
 10
-5.80902
 20
253.412
 11
-5.80902
 21
254.588
  0
LINE
  8
0
 10
-5.80902
 20
254.588
 11
-4.69099
 21
254.951
  0
LINE
  8
0
 10
-4.69099
 20
254.951
 11
-4
 21
254
  0
LINE
  8
0
 10
-4
 20
254
 11
-4.69099
 21
253.049
  0
LINE
  8
0
 10
-4.69099
 20
253.049
 11
-5.80902
 21
253.412
  0
LINE
  8
0
 10
-15.809
 20
253.412
 11
-15.809
 21
254.588
  0
LINE
  8
0
 10
-15.809
 20
254.588
 11
-14.691
 21
254.951
  0
LINE
  8
0
 10
-14.691
 20
254.951
 11
-14
 21
254
  0
LINE
  8
0
 10
-14
 20
254
 11
-14.691
 21
253.049
  0
LINE
  8
0
 10
-14.691
 20
253.049
 11
-15.809
 21
253.412
  0
LINE
  8
0
 10
14.191
 20
249.412
 11
14.191
 21
250.588
  0
LINE
  8
0
 10
14.191
 20
250.588
 11
15.309
 21
250.951
  0
LINE
  8
0
 10
15.309
 20
250.951
 11
16
 21
250
  0
LINE
  8
0
 10
16
 20
250
 11
15.309
 21
249.049
  0
LINE
  8
0
 10
15.309
 20
249.049
 11
14.191
 21
249.412
  0
LINE
  8
0
 10
4.19098
 20
249.412
 11
4.19098
 21
250.588
  0
LINE
  8
0
 10
4.19098
 20
250.588
 11
5.30901
 21
250.951
  0
LINE
  8
0
 10
5.30901
 20
250.951
 11
6
 21
250
  0
LINE
  8
0
 10
6
 20
250
 11
5.30901
 21
249.049
  0
LINE
  8
0
 10
5.30901
 20
249.049
 11
4.19098
 21
249.412
  0
LINE
  8
0
 10
-15.809
 20
249.412
 11
-15.809
 21
250.588
  0
LINE
  8
0
 10
-15.809
 20
250.588
 11
-14.691
 21
250.951
  0
LINE
  8
0
 10
-14.691
 20
250.951
 11
-14
 21
250
  0
LINE
  8
0
 10
-14
 20
250
 11
-14.691
 21
249.049
  0
LINE
  8
0
 10
-14.691
 20
249.049
 11
-15.809
 21
249.412
  0
LINE
  8
0
 10
-5.80902
 20
249.412
 11
-5.80902
 21
250.588
  0
LINE
  8
0
 10
-5.80902
 20
250.588
 11
-4.69099
 21
250.951
  0
LINE
  8
0
 10
-4.69099
 20
250.951
 11
-4
 21
250
  0
LINE
  8
0
 10
-4
 20
250
 11
-4.69099
 21
249.049
  0
LINE
  8
0
 10
-4.69099
 20
249.049
 11
-5.80902
 21
249.412
  0
LINE
  8
0
 10
14.191
 20
245.412
 11
14.191
 21
246.588
  0
LINE
  8
0
 10
14.191
 20
246.588
 11
15.309
 21
246.951
  0
LINE
  8
0
 10
15.309
 20
246.951
 11
16
 21
246
  0
LINE
  8
0
 10
16
 20
246
 11
15.309
 21
245.049
  0
LINE
  8
0
 10
15.309
 20
245.049
 11
14.191
 21
245.412
  0
LINE
  8
0
 10
-15.809
 20
245.412
 11
-15.809
 21
246.588
  0
LINE
  8
0
 10
-15.809
 20
246.588
 11
-14.691
 21
246.951
  0
LINE
  8
0
 10
-14.691
 20
246.951
 11
-14
 21
246
  0
LINE
  8
0
 10
-14
 20
246
 11
-14.691
 21
245.049
  0
LINE
  8
0
 10
-14.691
 20
245.049
 11
-15.809
 21
245.412
  0
LINE
  8
0
 10
-5.80902
 20
245.412
 11
-5.80902
 21
246.588
  0
LINE
  8
0
 10
-5.80902
 20
246.588
 11
-4.69099
 21
246.951
  0
LINE
  8
0
 10
-4.69099
 20
246.951
 11
-4
 21
246
  0
LINE
  8
0
 10
-4
 20
246
 11
-4.69099
 21
245.049
  0
LINE
  8
0
 10
-4.69099
 20
245.049
 11
-5.80902
 21
245.412
  0
LINE
  8
0
 10
4.19098
 20
245.412
 11
4.19098
 21
246.588
  0
LINE
  8
0
 10
4.19098
 20
246.588
 11
5.30901
 21
246.951
  0
LINE
  8
0
 10
5.30901
 20
246.951
 11
6
 21
246
  0
LINE
  8
0
 10
6
 20
246
 11
5.30901
 21
245.049
  0
LINE
  8
0
 10
5.30901
 20
245.049
 11
4.19098
 21
245.412
  0
LINE
  8
0
 10
-15.809
 20
241.412
 11
-15.809
 21
242.588
  0
LINE
  8
0
 10
-15.809
 20
242.588
 11
-14.691
 21
242.951
  0
LINE
  8
0
 10
-14.691
 20
242.951
 11
-14
 21
242
  0
LINE
  8
0
 10
-14
 20
242
 11
-14.691
 21
241.049
  0
LINE
  8
0
 10
-14.691
 20
241.049
 11
-15.809
 21
241.412
  0
LINE
  8
0
 10
-5.80902
 20
241.412
 11
-5.80902
 21
242.588
  0
LINE
  8
0
 10
-5.80902
 20
242.588
 11
-4.69099
 21
242.951
  0
LINE
  8
0
 10
-4.69099
 20
242.951
 11
-4
 21
242
  0
LINE
  8
0
 10
-4
 20
242
 11
-4.69099
 21
241.049
  0
LINE
  8
0
 10
-4.69099
 20
241.049
 11
-5.80902
 21
241.412
  0
LINE
  8
0
 10
4.19098
 20
241.412
 11
4.19098
 21
242.588
  0
LINE
  8
0
 10
4.19098
 20
242.588
 11
5.30901
 21
242.951
  0
LINE
  8
0
 10
5.30901
 20
242.951
 11
6
 21
242
  0
LINE
  8
0
 10
6
 20
242
 11
5.30901
 21
241.049
  0
LINE
  8
0
 10
5.30901
 20
241.049
 11
4.19098
 21
241.412
  0
LINE
  8
0
 10
14.191
 20
241.412
 11
14.191
 21
242.588
  0
LINE
  8
0
 10
14.191
 20
242.588
 11
15.309
 21
242.951
  0
LINE
  8
0
 10
15.309
 20
242.951
 11
16
 21
242
  0
LINE
  8
0
 10
16
 20
242
 11
15.309
 21
241.049
  0
LINE
  8
0
 10
15.309
 20
241.049
 11
14.191
 21
241.412
  0
LINE
  8
0
 10
-77.809
 20
239.412
 11
-77.809
 21
240.588
  0
LINE
  8
0
 10
-77.809
 20
240.588
 11
-76.691
 21
240.951
  0
LINE
  8
0
 10
-76.691
 20
240.951
 11
-76
 21
240
  0
LINE
  8
0
 10
-76
 20
240
 11
-76.691
 21
239.049
  0
LINE
  8
0
 10
-76.691
 20
239.049
 11
-77.809
 21
239.412
  0
LINE
  8
0
 10
-81.809
 20
239.412
 11
-81.809
 21
240.588
  0
LINE
  8
0
 10
-81.809
 20
240.588
 11
-80.691
 21
240.951
  0
LINE
  8
0
 10
-80.691
 20
240.951
 11
-80
 21
240
  0
LINE
  8
0
 10
-80
 20
240
 11
-80.691
 21
239.049
  0
LINE
  8
0
 10
-80.691
 20
239.049
 11
-81.809
 21
239.412
  0
LINE
  8
0
 10
-69.809
 20
239.412
 11
-69.809
 21
240.588
  0
LINE
  8
0
 10
-69.809
 20
240.588
 11
-68.691
 21
240.951
  0
LINE
  8
0
 10
-68.691
 20
240.951
 11
-68
 21
240
  0
LINE
  8
0
 10
-68
 20
240
 11
-68.691
 21
239.049
  0
LINE
  8
0
 10
-68.691
 20
239.049
 11
-69.809
 21
239.412
  0
LINE
  8
0
 10
-73.809
 20
239.412
 11
-73.809
 21
240.588
  0
LINE
  8
0
 10
-73.809
 20
240.588
 11
-72.691
 21
240.951
  0
LINE
  8
0
 10
-72.691
 20
240.951
 11
-72
 21
240
  0
LINE
  8
0
 10
-72
 20
240
 11
-72.691
 21
239.049
  0
LINE
  8
0
 10
-72.691
 20
239.049
 11
-73.809
 21
239.412
  0
LINE
  8
0
 10
48.291
 20
239.412
 11
48.291
 21
240.588
  0
LINE
  8
0
 10
48.291
 20
240.588
 11
49.409
 21
240.951
  0
LINE
  8
0
 10
49.409
 20
240.951
 11
50.1
 21
240
  0
LINE
  8
0
 10
50.1
 20
240
 11
49.409
 21
239.049
  0
LINE
  8
0
 10
49.409
 20
239.049
 11
48.291
 21
239.412
  0
LINE
  8
0
 10
-33.809
 20
239.412
 11
-33.809
 21
240.588
  0
LINE
  8
0
 10
-33.809
 20
240.588
 11
-32.691
 21
240.951
  0
LINE
  8
0
 10
-32.691
 20
240.951
 11
-32
 21
240
  0
LINE
  8
0
 10
-32
 20
240
 11
-32.691
 21
239.049
  0
LINE
  8
0
 10
-32.691
 20
239.049
 11
-33.809
 21
239.412
  0
LINE
  8
0
 10
-37.809
 20
239.412
 11
-37.809
 21
240.588
  0
LINE
  8
0
 10
-37.809
 20
240.588
 11
-36.691
 21
240.951
  0
LINE
  8
0
 10
-36.691
 20
240.951
 11
-36
 21
240
  0
LINE
  8
0
 10
-36
 20
240
 11
-36.691
 21
239.049
  0
LINE
  8
0
 10
-36.691
 20
239.049
 11
-37.809
 21
239.412
  0
LINE
  8
0
 10
-41.809
 20
239.412
 11
-41.809
 21
240.588
  0
LINE
  8
0
 10
-41.809
 20
240.588
 11
-40.691
 21
240.951
  0
LINE
  8
0
 10
-40.691
 20
240.951
 11
-40
 21
240
  0
LINE
  8
0
 10
-40
 20
240
 11
-40.691
 21
239.049
  0
LINE
  8
0
 10
-40.691
 20
239.049
 11
-41.809
 21
239.412
  0
LINE
  8
0
 10
-45.809
 20
239.412
 11
-45.809
 21
240.588
  0
LINE
  8
0
 10
-45.809
 20
240.588
 11
-44.691
 21
240.951
  0
LINE
  8
0
 10
-44.691
 20
240.951
 11
-44
 21
240
  0
LINE
  8
0
 10
-44
 20
240
 11
-44.691
 21
239.049
  0
LINE
  8
0
 10
-44.691
 20
239.049
 11
-45.809
 21
239.412
  0
LINE
  8
0
 10
-49.809
 20
239.412
 11
-49.809
 21
240.588
  0
LINE
  8
0
 10
-49.809
 20
240.588
 11
-48.691
 21
240.951
  0
LINE
  8
0
 10
-48.691
 20
240.951
 11
-48
 21
240
  0
LINE
  8
0
 10
-48
 20
240
 11
-48.691
 21
239.049
  0
LINE
  8
0
 10
-48.691
 20
239.049
 11
-49.809
 21
239.412
  0
LINE
  8
0
 10
-53.809
 20
239.412
 11
-53.809
 21
240.588
  0
LINE
  8
0
 10
-53.809
 20
240.588
 11
-52.691
 21
240.951
  0
LINE
  8
0
 10
-52.691
 20
240.951
 11
-52
 21
240
  0
LINE
  8
0
 10
-52
 20
240
 11
-52.691
 21
239.049
  0
LINE
  8
0
 10
-52.691
 20
239.049
 11
-53.809
 21
239.412
  0
LINE
  8
0
 10
-57.809
 20
239.412
 11
-57.809
 21
240.588
  0
LINE
  8
0
 10
-57.809
 20
240.588
 11
-56.691
 21
240.951
  0
LINE
  8
0
 10
-56.691
 20
240.951
 11
-56
 21
240
  0
LINE
  8
0
 10
-56
 20
240
 11
-56.691
 21
239.049
  0
LINE
  8
0
 10
-56.691
 20
239.049
 11
-57.809
 21
239.412
  0
LINE
  8
0
 10
-61.809
 20
239.412
 11
-61.809
 21
240.588
  0
LINE
  8
0
 10
-61.809
 20
240.588
 11
-60.691
 21
240.951
  0
LINE
  8
0
 10
-60.691
 20
240.951
 11
-60
 21
240
  0
LINE
  8
0
 10
-60
 20
240
 11
-60.691
 21
239.049
  0
LINE
  8
0
 10
-60.691
 20
239.049
 11
-61.809
 21
239.412
  0
LINE
  8
0
 10
-65.809
 20
239.412
 11
-65.809
 21
240.588
  0
LINE
  8
0
 10
-65.809
 20
240.588
 11
-64.691
 21
240.951
  0
LINE
  8
0
 10
-64.691
 20
240.951
 11
-64
 21
240
  0
LINE
  8
0
 10
-64
 20
240
 11
-64.691
 21
239.049
  0
LINE
  8
0
 10
-64.691
 20
239.049
 11
-65.809
 21
239.412
  0
LINE
  8
0
 10
28.291
 20
239.412
 11
28.291
 21
240.588
  0
LINE
  8
0
 10
28.291
 20
240.588
 11
29.409
 21
240.951
  0
LINE
  8
0
 10
29.409
 20
240.951
 11
30.1
 21
240
  0
LINE
  8
0
 10
30.1
 20
240
 11
29.409
 21
239.049
  0
LINE
  8
0
 10
29.409
 20
239.049
 11
28.291
 21
239.412
  0
LINE
  8
0
 10
68.291
 20
239.412
 11
68.291
 21
240.588
  0
LINE
  8
0
 10
68.291
 20
240.588
 11
69.409
 21
240.951
  0
LINE
  8
0
 10
69.409
 20
240.951
 11
70.1
 21
240
  0
LINE
  8
0
 10
70.1
 20
240
 11
69.409
 21
239.049
  0
LINE
  8
0
 10
69.409
 20
239.049
 11
68.291
 21
239.412
  0
LINE
  8
0
 10
72.291
 20
239.412
 11
72.291
 21
240.588
  0
LINE
  8
0
 10
72.291
 20
240.588
 11
73.409
 21
240.951
  0
LINE
  8
0
 10
73.409
 20
240.951
 11
74.1
 21
240
  0
LINE
  8
0
 10
74.1
 20
240
 11
73.409
 21
239.049
  0
LINE
  8
0
 10
73.409
 20
239.049
 11
72.291
 21
239.412
  0
LINE
  8
0
 10
76.291
 20
239.412
 11
76.291
 21
240.588
  0
LINE
  8
0
 10
76.291
 20
240.588
 11
77.409
 21
240.951
  0
LINE
  8
0
 10
77.409
 20
240.951
 11
78.1
 21
240
  0
LINE
  8
0
 10
78.1
 20
240
 11
77.409
 21
239.049
  0
LINE
  8
0
 10
77.409
 20
239.049
 11
76.291
 21
239.412
  0
LINE
  8
0
 10
80.291
 20
239.412
 11
80.291
 21
240.588
  0
LINE
  8
0
 10
80.291
 20
240.588
 11
81.409
 21
240.951
  0
LINE
  8
0
 10
81.409
 20
240.951
 11
82.1
 21
240
  0
LINE
  8
0
 10
82.1
 20
240
 11
81.409
 21
239.049
  0
LINE
  8
0
 10
81.409
 20
239.049
 11
80.291
 21
239.412
  0
LINE
  8
0
 10
84.291
 20
239.412
 11
84.291
 21
240.588
  0
LINE
  8
0
 10
84.291
 20
240.588
 11
85.409
 21
240.951
  0
LINE
  8
0
 10
85.409
 20
240.951
 11
86.1
 21
240
  0
LINE
  8
0
 10
86.1
 20
240
 11
85.409
 21
239.049
  0
LINE
  8
0
 10
85.409
 20
239.049
 11
84.291
 21
239.412
  0
LINE
  8
0
 10
24.291
 20
239.412
 11
24.291
 21
240.588
  0
LINE
  8
0
 10
24.291
 20
240.588
 11
25.409
 21
240.951
  0
LINE
  8
0
 10
25.409
 20
240.951
 11
26.1
 21
240
  0
LINE
  8
0
 10
26.1
 20
240
 11
25.409
 21
239.049
  0
LINE
  8
0
 10
25.409
 20
239.049
 11
24.291
 21
239.412
  0
LINE
  8
0
 10
40.291
 20
239.412
 11
40.291
 21
240.588
  0
LINE
  8
0
 10
40.291
 20
240.588
 11
41.409
 21
240.951
  0
LINE
  8
0
 10
41.409
 20
240.951
 11
42.1
 21
240
  0
LINE
  8
0
 10
42.1
 20
240
 11
41.409
 21
239.049
  0
LINE
  8
0
 10
41.409
 20
239.049
 11
40.291
 21
239.412
  0
LINE
  8
0
 10
36.291
 20
239.412
 11
36.291
 21
240.588
  0
LINE
  8
0
 10
36.291
 20
240.588
 11
37.409
 21
240.951
  0
LINE
  8
0
 10
37.409
 20
240.951
 11
38.1
 21
240
  0
LINE
  8
0
 10
38.1
 20
240
 11
37.409
 21
239.049
  0
LINE
  8
0
 10
37.409
 20
239.049
 11
36.291
 21
239.412
  0
LINE
  8
0
 10
32.291
 20
239.412
 11
32.291
 21
240.588
  0
LINE
  8
0
 10
32.291
 20
240.588
 11
33.409
 21
240.951
  0
LINE
  8
0
 10
33.409
 20
240.951
 11
34.1
 21
240
  0
LINE
  8
0
 10
34.1
 20
240
 11
33.409
 21
239.049
  0
LINE
  8
0
 10
33.409
 20
239.049
 11
32.291
 21
239.412
  0
LINE
  8
0
 10
64.291
 20
239.412
 11
64.291
 21
240.588
  0
LINE
  8
0
 10
64.291
 20
240.588
 11
65.409
 21
240.951
  0
LINE
  8
0
 10
65.409
 20
240.951
 11
66.1
 21
240
  0
LINE
  8
0
 10
66.1
 20
240
 11
65.409
 21
239.049
  0
LINE
  8
0
 10
65.409
 20
239.049
 11
64.291
 21
239.412
  0
LINE
  8
0
 10
60.291
 20
239.412
 11
60.291
 21
240.588
  0
LINE
  8
0
 10
60.291
 20
240.588
 11
61.409
 21
240.951
  0
LINE
  8
0
 10
61.409
 20
240.951
 11
62.1
 21
240
  0
LINE
  8
0
 10
62.1
 20
240
 11
61.409
 21
239.049
  0
LINE
  8
0
 10
61.409
 20
239.049
 11
60.291
 21
239.412
  0
LINE
  8
0
 10
-85.809
 20
239.412
 11
-85.809
 21
240.588
  0
LINE
  8
0
 10
-85.809
 20
240.588
 11
-84.691
 21
240.951
  0
LINE
  8
0
 10
-84.691
 20
240.951
 11
-84
 21
240
  0
LINE
  8
0
 10
-84
 20
240
 11
-84.691
 21
239.049
  0
LINE
  8
0
 10
-84.691
 20
239.049
 11
-85.809
 21
239.412
  0
LINE
  8
0
 10
-25.809
 20
239.412
 11
-25.809
 21
240.588
  0
LINE
  8
0
 10
-25.809
 20
240.588
 11
-24.691
 21
240.951
  0
LINE
  8
0
 10
-24.691
 20
240.951
 11
-24
 21
240
  0
LINE
  8
0
 10
-24
 20
240
 11
-24.691
 21
239.049
  0
LINE
  8
0
 10
-24.691
 20
239.049
 11
-25.809
 21
239.412
  0
LINE
  8
0
 10
-29.809
 20
239.412
 11
-29.809
 21
240.588
  0
LINE
  8
0
 10
-29.809
 20
240.588
 11
-28.691
 21
240.951
  0
LINE
  8
0
 10
-28.691
 20
240.951
 11
-28
 21
240
  0
LINE
  8
0
 10
-28
 20
240
 11
-28.691
 21
239.049
  0
LINE
  8
0
 10
-28.691
 20
239.049
 11
-29.809
 21
239.412
  0
LINE
  8
0
 10
56.291
 20
239.412
 11
56.291
 21
240.588
  0
LINE
  8
0
 10
56.291
 20
240.588
 11
57.409
 21
240.951
  0
LINE
  8
0
 10
57.409
 20
240.951
 11
58.1
 21
240
  0
LINE
  8
0
 10
58.1
 20
240
 11
57.409
 21
239.049
  0
LINE
  8
0
 10
57.409
 20
239.049
 11
56.291
 21
239.412
  0
LINE
  8
0
 10
52.291
 20
239.412
 11
52.291
 21
240.588
  0
LINE
  8
0
 10
52.291
 20
240.588
 11
53.409
 21
240.951
  0
LINE
  8
0
 10
53.409
 20
240.951
 11
54.1
 21
240
  0
LINE
  8
0
 10
54.1
 20
240
 11
53.409
 21
239.049
  0
LINE
  8
0
 10
53.409
 20
239.049
 11
52.291
 21
239.412
  0
LINE
  8
0
 10
44.291
 20
239.412
 11
44.291
 21
240.588
  0
LINE
  8
0
 10
44.291
 20
240.588
 11
45.409
 21
240.951
  0
LINE
  8
0
 10
45.409
 20
240.951
 11
46.1
 21
240
  0
LINE
  8
0
 10
46.1
 20
240
 11
45.409
 21
239.049
  0
LINE
  8
0
 10
45.409
 20
239.049
 11
44.291
 21
239.412
  0
LINE
  8
0
 10
4.19098
 20
237.412
 11
4.19098
 21
238.588
  0
LINE
  8
0
 10
4.19098
 20
238.588
 11
5.30901
 21
238.951
  0
LINE
  8
0
 10
5.30901
 20
238.951
 11
6
 21
238
  0
LINE
  8
0
 10
6
 20
238
 11
5.30901
 21
237.049
  0
LINE
  8
0
 10
5.30901
 20
237.049
 11
4.19098
 21
237.412
  0
LINE
  8
0
 10
-15.809
 20
237.412
 11
-15.809
 21
238.588
  0
LINE
  8
0
 10
-15.809
 20
238.588
 11
-14.691
 21
238.951
  0
LINE
  8
0
 10
-14.691
 20
238.951
 11
-14
 21
238
  0
LINE
  8
0
 10
-14
 20
238
 11
-14.691
 21
237.049
  0
LINE
  8
0
 10
-14.691
 20
237.049
 11
-15.809
 21
237.412
  0
LINE
  8
0
 10
-5.80902
 20
237.412
 11
-5.80902
 21
238.588
  0
LINE
  8
0
 10
-5.80902
 20
238.588
 11
-4.69099
 21
238.951
  0
LINE
  8
0
 10
-4.69099
 20
238.951
 11
-4
 21
238
  0
LINE
  8
0
 10
-4
 20
238
 11
-4.69099
 21
237.049
  0
LINE
  8
0
 10
-4.69099
 20
237.049
 11
-5.80902
 21
237.412
  0
LINE
  8
0
 10
14.191
 20
237.412
 11
14.191
 21
238.588
  0
LINE
  8
0
 10
14.191
 20
238.588
 11
15.309
 21
238.951
  0
LINE
  8
0
 10
15.309
 20
238.951
 11
16
 21
238
  0
LINE
  8
0
 10
16
 20
238
 11
15.309
 21
237.049
  0
LINE
  8
0
 10
15.309
 20
237.049
 11
14.191
 21
237.412
  0
LINE
  8
0
 10
84.291
 20
234.412
 11
84.291
 21
235.588
  0
LINE
  8
0
 10
84.291
 20
235.588
 11
85.409
 21
235.951
  0
LINE
  8
0
 10
85.409
 20
235.951
 11
86.1
 21
235
  0
LINE
  8
0
 10
86.1
 20
235
 11
85.409
 21
234.049
  0
LINE
  8
0
 10
85.409
 20
234.049
 11
84.291
 21
234.412
  0
LINE
  8
0
 10
24.291
 20
234.412
 11
24.291
 21
235.588
  0
LINE
  8
0
 10
24.291
 20
235.588
 11
25.409
 21
235.951
  0
LINE
  8
0
 10
25.409
 20
235.951
 11
26.1
 21
235
  0
LINE
  8
0
 10
26.1
 20
235
 11
25.409
 21
234.049
  0
LINE
  8
0
 10
25.409
 20
234.049
 11
24.291
 21
234.412
  0
LINE
  8
0
 10
-25.809
 20
234.412
 11
-25.809
 21
235.588
  0
LINE
  8
0
 10
-25.809
 20
235.588
 11
-24.691
 21
235.951
  0
LINE
  8
0
 10
-24.691
 20
235.951
 11
-24
 21
235
  0
LINE
  8
0
 10
-24
 20
235
 11
-24.691
 21
234.049
  0
LINE
  8
0
 10
-24.691
 20
234.049
 11
-25.809
 21
234.412
  0
LINE
  8
0
 10
-85.809
 20
234.412
 11
-85.809
 21
235.588
  0
LINE
  8
0
 10
-85.809
 20
235.588
 11
-84.691
 21
235.951
  0
LINE
  8
0
 10
-84.691
 20
235.951
 11
-84
 21
235
  0
LINE
  8
0
 10
-84
 20
235
 11
-84.691
 21
234.049
  0
LINE
  8
0
 10
-84.691
 20
234.049
 11
-85.809
 21
234.412
  0
LINE
  8
0
 10
4.19098
 20
233.412
 11
4.19098
 21
234.588
  0
LINE
  8
0
 10
4.19098
 20
234.588
 11
5.30901
 21
234.951
  0
LINE
  8
0
 10
5.30901
 20
234.951
 11
6
 21
234
  0
LINE
  8
0
 10
6
 20
234
 11
5.30901
 21
233.049
  0
LINE
  8
0
 10
5.30901
 20
233.049
 11
4.19098
 21
233.412
  0
LINE
  8
0
 10
-15.809
 20
233.412
 11
-15.809
 21
234.588
  0
LINE
  8
0
 10
-15.809
 20
234.588
 11
-14.691
 21
234.951
  0
LINE
  8
0
 10
-14.691
 20
234.951
 11
-14
 21
234
  0
LINE
  8
0
 10
-14
 20
234
 11
-14.691
 21
233.049
  0
LINE
  8
0
 10
-14.691
 20
233.049
 11
-15.809
 21
233.412
  0
LINE
  8
0
 10
-5.80902
 20
233.412
 11
-5.80902
 21
234.588
  0
LINE
  8
0
 10
-5.80902
 20
234.588
 11
-4.69099
 21
234.951
  0
LINE
  8
0
 10
-4.69099
 20
234.951
 11
-4
 21
234
  0
LINE
  8
0
 10
-4
 20
234
 11
-4.69099
 21
233.049
  0
LINE
  8
0
 10
-4.69099
 20
233.049
 11
-5.80902
 21
233.412
  0
LINE
  8
0
 10
14.191
 20
233.412
 11
14.191
 21
234.588
  0
LINE
  8
0
 10
14.191
 20
234.588
 11
15.309
 21
234.951
  0
LINE
  8
0
 10
15.309
 20
234.951
 11
16
 21
234
  0
LINE
  8
0
 10
16
 20
234
 11
15.309
 21
233.049
  0
LINE
  8
0
 10
15.309
 20
233.049
 11
14.191
 21
233.412
  0
LINE
  8
0
 10
84.291
 20
229.412
 11
84.291
 21
230.588
  0
LINE
  8
0
 10
84.291
 20
230.588
 11
85.409
 21
230.951
  0
LINE
  8
0
 10
85.409
 20
230.951
 11
86.1
 21
230
  0
LINE
  8
0
 10
86.1
 20
230
 11
85.409
 21
229.049
  0
LINE
  8
0
 10
85.409
 20
229.049
 11
84.291
 21
229.412
  0
LINE
  8
0
 10
-81.809
 20
229.412
 11
-81.809
 21
230.588
  0
LINE
  8
0
 10
-81.809
 20
230.588
 11
-80.691
 21
230.951
  0
LINE
  8
0
 10
-80.691
 20
230.951
 11
-80
 21
230
  0
LINE
  8
0
 10
-80
 20
230
 11
-80.691
 21
229.049
  0
LINE
  8
0
 10
-80.691
 20
229.049
 11
-81.809
 21
229.412
  0
LINE
  8
0
 10
28.291
 20
229.412
 11
28.291
 21
230.588
  0
LINE
  8
0
 10
28.291
 20
230.588
 11
29.409
 21
230.951
  0
LINE
  8
0
 10
29.409
 20
230.951
 11
30.1
 21
230
  0
LINE
  8
0
 10
30.1
 20
230
 11
29.409
 21
229.049
  0
LINE
  8
0
 10
29.409
 20
229.049
 11
28.291
 21
229.412
  0
LINE
  8
0
 10
24.291
 20
229.412
 11
24.291
 21
230.588
  0
LINE
  8
0
 10
24.291
 20
230.588
 11
25.409
 21
230.951
  0
LINE
  8
0
 10
25.409
 20
230.951
 11
26.1
 21
230
  0
LINE
  8
0
 10
26.1
 20
230
 11
25.409
 21
229.049
  0
LINE
  8
0
 10
25.409
 20
229.049
 11
24.291
 21
229.412
  0
LINE
  8
0
 10
-77.809
 20
229.412
 11
-77.809
 21
230.588
  0
LINE
  8
0
 10
-77.809
 20
230.588
 11
-76.691
 21
230.951
  0
LINE
  8
0
 10
-76.691
 20
230.951
 11
-76
 21
230
  0
LINE
  8
0
 10
-76
 20
230
 11
-76.691
 21
229.049
  0
LINE
  8
0
 10
-76.691
 20
229.049
 11
-77.809
 21
229.412
  0
LINE
  8
0
 10
-73.809
 20
229.412
 11
-73.809
 21
230.588
  0
LINE
  8
0
 10
-73.809
 20
230.588
 11
-72.691
 21
230.951
  0
LINE
  8
0
 10
-72.691
 20
230.951
 11
-72
 21
230
  0
LINE
  8
0
 10
-72
 20
230
 11
-72.691
 21
229.049
  0
LINE
  8
0
 10
-72.691
 20
229.049
 11
-73.809
 21
229.412
  0
LINE
  8
0
 10
-69.809
 20
229.412
 11
-69.809
 21
230.588
  0
LINE
  8
0
 10
-69.809
 20
230.588
 11
-68.691
 21
230.951
  0
LINE
  8
0
 10
-68.691
 20
230.951
 11
-68
 21
230
  0
LINE
  8
0
 10
-68
 20
230
 11
-68.691
 21
229.049
  0
LINE
  8
0
 10
-68.691
 20
229.049
 11
-69.809
 21
229.412
  0
LINE
  8
0
 10
-65.809
 20
229.412
 11
-65.809
 21
230.588
  0
LINE
  8
0
 10
-65.809
 20
230.588
 11
-64.691
 21
230.951
  0
LINE
  8
0
 10
-64.691
 20
230.951
 11
-64
 21
230
  0
LINE
  8
0
 10
-64
 20
230
 11
-64.691
 21
229.049
  0
LINE
  8
0
 10
-64.691
 20
229.049
 11
-65.809
 21
229.412
  0
LINE
  8
0
 10
-61.809
 20
229.412
 11
-61.809
 21
230.588
  0
LINE
  8
0
 10
-61.809
 20
230.588
 11
-60.691
 21
230.951
  0
LINE
  8
0
 10
-60.691
 20
230.951
 11
-60
 21
230
  0
LINE
  8
0
 10
-60
 20
230
 11
-60.691
 21
229.049
  0
LINE
  8
0
 10
-60.691
 20
229.049
 11
-61.809
 21
229.412
  0
LINE
  8
0
 10
-57.809
 20
229.412
 11
-57.809
 21
230.588
  0
LINE
  8
0
 10
-57.809
 20
230.588
 11
-56.691
 21
230.951
  0
LINE
  8
0
 10
-56.691
 20
230.951
 11
-56
 21
230
  0
LINE
  8
0
 10
-56
 20
230
 11
-56.691
 21
229.049
  0
LINE
  8
0
 10
-56.691
 20
229.049
 11
-57.809
 21
229.412
  0
LINE
  8
0
 10
-53.809
 20
229.412
 11
-53.809
 21
230.588
  0
LINE
  8
0
 10
-53.809
 20
230.588
 11
-52.691
 21
230.951
  0
LINE
  8
0
 10
-52.691
 20
230.951
 11
-52
 21
230
  0
LINE
  8
0
 10
-52
 20
230
 11
-52.691
 21
229.049
  0
LINE
  8
0
 10
-52.691
 20
229.049
 11
-53.809
 21
229.412
  0
LINE
  8
0
 10
-49.809
 20
229.412
 11
-49.809
 21
230.588
  0
LINE
  8
0
 10
-49.809
 20
230.588
 11
-48.691
 21
230.951
  0
LINE
  8
0
 10
-48.691
 20
230.951
 11
-48
 21
230
  0
LINE
  8
0
 10
-48
 20
230
 11
-48.691
 21
229.049
  0
LINE
  8
0
 10
-48.691
 20
229.049
 11
-49.809
 21
229.412
  0
LINE
  8
0
 10
-45.809
 20
229.412
 11
-45.809
 21
230.588
  0
LINE
  8
0
 10
-45.809
 20
230.588
 11
-44.691
 21
230.951
  0
LINE
  8
0
 10
-44.691
 20
230.951
 11
-44
 21
230
  0
LINE
  8
0
 10
-44
 20
230
 11
-44.691
 21
229.049
  0
LINE
  8
0
 10
-44.691
 20
229.049
 11
-45.809
 21
229.412
  0
LINE
  8
0
 10
-41.809
 20
229.412
 11
-41.809
 21
230.588
  0
LINE
  8
0
 10
-41.809
 20
230.588
 11
-40.691
 21
230.951
  0
LINE
  8
0
 10
-40.691
 20
230.951
 11
-40
 21
230
  0
LINE
  8
0
 10
-40
 20
230
 11
-40.691
 21
229.049
  0
LINE
  8
0
 10
-40.691
 20
229.049
 11
-41.809
 21
229.412
  0
LINE
  8
0
 10
-37.809
 20
229.412
 11
-37.809
 21
230.588
  0
LINE
  8
0
 10
-37.809
 20
230.588
 11
-36.691
 21
230.951
  0
LINE
  8
0
 10
-36.691
 20
230.951
 11
-36
 21
230
  0
LINE
  8
0
 10
-36
 20
230
 11
-36.691
 21
229.049
  0
LINE
  8
0
 10
-36.691
 20
229.049
 11
-37.809
 21
229.412
  0
LINE
  8
0
 10
-33.809
 20
229.412
 11
-33.809
 21
230.588
  0
LINE
  8
0
 10
-33.809
 20
230.588
 11
-32.691
 21
230.951
  0
LINE
  8
0
 10
-32.691
 20
230.951
 11
-32
 21
230
  0
LINE
  8
0
 10
-32
 20
230
 11
-32.691
 21
229.049
  0
LINE
  8
0
 10
-32.691
 20
229.049
 11
-33.809
 21
229.412
  0
LINE
  8
0
 10
-29.809
 20
229.412
 11
-29.809
 21
230.588
  0
LINE
  8
0
 10
-29.809
 20
230.588
 11
-28.691
 21
230.951
  0
LINE
  8
0
 10
-28.691
 20
230.951
 11
-28
 21
230
  0
LINE
  8
0
 10
-28
 20
230
 11
-28.691
 21
229.049
  0
LINE
  8
0
 10
-28.691
 20
229.049
 11
-29.809
 21
229.412
  0
LINE
  8
0
 10
-25.809
 20
229.412
 11
-25.809
 21
230.588
  0
LINE
  8
0
 10
-25.809
 20
230.588
 11
-24.691
 21
230.951
  0
LINE
  8
0
 10
-24.691
 20
230.951
 11
-24
 21
230
  0
LINE
  8
0
 10
-24
 20
230
 11
-24.691
 21
229.049
  0
LINE
  8
0
 10
-24.691
 20
229.049
 11
-25.809
 21
229.412
  0
LINE
  8
0
 10
-85.809
 20
229.412
 11
-85.809
 21
230.588
  0
LINE
  8
0
 10
-85.809
 20
230.588
 11
-84.691
 21
230.951
  0
LINE
  8
0
 10
-84.691
 20
230.951
 11
-84
 21
230
  0
LINE
  8
0
 10
-84
 20
230
 11
-84.691
 21
229.049
  0
LINE
  8
0
 10
-84.691
 20
229.049
 11
-85.809
 21
229.412
  0
LINE
  8
0
 10
44.291
 20
229.412
 11
44.291
 21
230.588
  0
LINE
  8
0
 10
44.291
 20
230.588
 11
45.409
 21
230.951
  0
LINE
  8
0
 10
45.409
 20
230.951
 11
46.1
 21
230
  0
LINE
  8
0
 10
46.1
 20
230
 11
45.409
 21
229.049
  0
LINE
  8
0
 10
45.409
 20
229.049
 11
44.291
 21
229.412
  0
LINE
  8
0
 10
-5.80902
 20
229.412
 11
-5.80902
 21
230.588
  0
LINE
  8
0
 10
-5.80902
 20
230.588
 11
-4.69099
 21
230.951
  0
LINE
  8
0
 10
-4.69099
 20
230.951
 11
-4
 21
230
  0
LINE
  8
0
 10
-4
 20
230
 11
-4.69099
 21
229.049
  0
LINE
  8
0
 10
-4.69099
 20
229.049
 11
-5.80902
 21
229.412
  0
LINE
  8
0
 10
4.19098
 20
229.412
 11
4.19098
 21
230.588
  0
LINE
  8
0
 10
4.19098
 20
230.588
 11
5.30901
 21
230.951
  0
LINE
  8
0
 10
5.30901
 20
230.951
 11
6
 21
230
  0
LINE
  8
0
 10
6
 20
230
 11
5.30901
 21
229.049
  0
LINE
  8
0
 10
5.30901
 20
229.049
 11
4.19098
 21
229.412
  0
LINE
  8
0
 10
14.191
 20
229.412
 11
14.191
 21
230.588
  0
LINE
  8
0
 10
14.191
 20
230.588
 11
15.309
 21
230.951
  0
LINE
  8
0
 10
15.309
 20
230.951
 11
16
 21
230
  0
LINE
  8
0
 10
16
 20
230
 11
15.309
 21
229.049
  0
LINE
  8
0
 10
15.309
 20
229.049
 11
14.191
 21
229.412
  0
LINE
  8
0
 10
-15.809
 20
229.412
 11
-15.809
 21
230.588
  0
LINE
  8
0
 10
-15.809
 20
230.588
 11
-14.691
 21
230.951
  0
LINE
  8
0
 10
-14.691
 20
230.951
 11
-14
 21
230
  0
LINE
  8
0
 10
-14
 20
230
 11
-14.691
 21
229.049
  0
LINE
  8
0
 10
-14.691
 20
229.049
 11
-15.809
 21
229.412
  0
LINE
  8
0
 10
-10.809
 20
229.412
 11
-10.809
 21
230.588
  0
LINE
  8
0
 10
-10.809
 20
230.588
 11
-9.69099
 21
230.951
  0
LINE
  8
0
 10
-9.69099
 20
230.951
 11
-9
 21
230
  0
LINE
  8
0
 10
-9
 20
230
 11
-9.69099
 21
229.049
  0
LINE
  8
0
 10
-9.69099
 20
229.049
 11
-10.809
 21
229.412
  0
LINE
  8
0
 10
9.19098
 20
229.412
 11
9.19098
 21
230.588
  0
LINE
  8
0
 10
9.19098
 20
230.588
 11
10.309
 21
230.951
  0
LINE
  8
0
 10
10.309
 20
230.951
 11
11
 21
230
  0
LINE
  8
0
 10
11
 20
230
 11
10.309
 21
229.049
  0
LINE
  8
0
 10
10.309
 20
229.049
 11
9.19098
 21
229.412
  0
LINE
  8
0
 10
32.291
 20
229.412
 11
32.291
 21
230.588
  0
LINE
  8
0
 10
32.291
 20
230.588
 11
33.409
 21
230.951
  0
LINE
  8
0
 10
33.409
 20
230.951
 11
34.1
 21
230
  0
LINE
  8
0
 10
34.1
 20
230
 11
33.409
 21
229.049
  0
LINE
  8
0
 10
33.409
 20
229.049
 11
32.291
 21
229.412
  0
LINE
  8
0
 10
36.291
 20
229.412
 11
36.291
 21
230.588
  0
LINE
  8
0
 10
36.291
 20
230.588
 11
37.409
 21
230.951
  0
LINE
  8
0
 10
37.409
 20
230.951
 11
38.1
 21
230
  0
LINE
  8
0
 10
38.1
 20
230
 11
37.409
 21
229.049
  0
LINE
  8
0
 10
37.409
 20
229.049
 11
36.291
 21
229.412
  0
LINE
  8
0
 10
40.291
 20
229.412
 11
40.291
 21
230.588
  0
LINE
  8
0
 10
40.291
 20
230.588
 11
41.409
 21
230.951
  0
LINE
  8
0
 10
41.409
 20
230.951
 11
42.1
 21
230
  0
LINE
  8
0
 10
42.1
 20
230
 11
41.409
 21
229.049
  0
LINE
  8
0
 10
41.409
 20
229.049
 11
40.291
 21
229.412
  0
LINE
  8
0
 10
80.291
 20
229.412
 11
80.291
 21
230.588
  0
LINE
  8
0
 10
80.291
 20
230.588
 11
81.409
 21
230.951
  0
LINE
  8
0
 10
81.409
 20
230.951
 11
82.1
 21
230
  0
LINE
  8
0
 10
82.1
 20
230
 11
81.409
 21
229.049
  0
LINE
  8
0
 10
81.409
 20
229.049
 11
80.291
 21
229.412
  0
LINE
  8
0
 10
48.291
 20
229.412
 11
48.291
 21
230.588
  0
LINE
  8
0
 10
48.291
 20
230.588
 11
49.409
 21
230.951
  0
LINE
  8
0
 10
49.409
 20
230.951
 11
50.1
 21
230
  0
LINE
  8
0
 10
50.1
 20
230
 11
49.409
 21
229.049
  0
LINE
  8
0
 10
49.409
 20
229.049
 11
48.291
 21
229.412
  0
LINE
  8
0
 10
52.291
 20
229.412
 11
52.291
 21
230.588
  0
LINE
  8
0
 10
52.291
 20
230.588
 11
53.409
 21
230.951
  0
LINE
  8
0
 10
53.409
 20
230.951
 11
54.1
 21
230
  0
LINE
  8
0
 10
54.1
 20
230
 11
53.409
 21
229.049
  0
LINE
  8
0
 10
53.409
 20
229.049
 11
52.291
 21
229.412
  0
LINE
  8
0
 10
56.291
 20
229.412
 11
56.291
 21
230.588
  0
LINE
  8
0
 10
56.291
 20
230.588
 11
57.409
 21
230.951
  0
LINE
  8
0
 10
57.409
 20
230.951
 11
58.1
 21
230
  0
LINE
  8
0
 10
58.1
 20
230
 11
57.409
 21
229.049
  0
LINE
  8
0
 10
57.409
 20
229.049
 11
56.291
 21
229.412
  0
LINE
  8
0
 10
60.291
 20
229.412
 11
60.291
 21
230.588
  0
LINE
  8
0
 10
60.291
 20
230.588
 11
61.409
 21
230.951
  0
LINE
  8
0
 10
61.409
 20
230.951
 11
62.1
 21
230
  0
LINE
  8
0
 10
62.1
 20
230
 11
61.409
 21
229.049
  0
LINE
  8
0
 10
61.409
 20
229.049
 11
60.291
 21
229.412
  0
LINE
  8
0
 10
64.291
 20
229.412
 11
64.291
 21
230.588
  0
LINE
  8
0
 10
64.291
 20
230.588
 11
65.409
 21
230.951
  0
LINE
  8
0
 10
65.409
 20
230.951
 11
66.1
 21
230
  0
LINE
  8
0
 10
66.1
 20
230
 11
65.409
 21
229.049
  0
LINE
  8
0
 10
65.409
 20
229.049
 11
64.291
 21
229.412
  0
LINE
  8
0
 10
68.291
 20
229.412
 11
68.291
 21
230.588
  0
LINE
  8
0
 10
68.291
 20
230.588
 11
69.409
 21
230.951
  0
LINE
  8
0
 10
69.409
 20
230.951
 11
70.1
 21
230
  0
LINE
  8
0
 10
70.1
 20
230
 11
69.409
 21
229.049
  0
LINE
  8
0
 10
69.409
 20
229.049
 11
68.291
 21
229.412
  0
LINE
  8
0
 10
72.291
 20
229.412
 11
72.291
 21
230.588
  0
LINE
  8
0
 10
72.291
 20
230.588
 11
73.409
 21
230.951
  0
LINE
  8
0
 10
73.409
 20
230.951
 11
74.1
 21
230
  0
LINE
  8
0
 10
74.1
 20
230
 11
73.409
 21
229.049
  0
LINE
  8
0
 10
73.409
 20
229.049
 11
72.291
 21
229.412
  0
LINE
  8
0
 10
76.291
 20
229.412
 11
76.291
 21
230.588
  0
LINE
  8
0
 10
76.291
 20
230.588
 11
77.409
 21
230.951
  0
LINE
  8
0
 10
77.409
 20
230.951
 11
78.1
 21
230
  0
LINE
  8
0
 10
78.1
 20
230
 11
77.409
 21
229.049
  0
LINE
  8
0
 10
77.409
 20
229.049
 11
76.291
 21
229.412
  0
LINE
  8
0
 10
84.191
 20
220.412
 11
84.191
 21
221.588
  0
LINE
  8
0
 10
84.191
 20
221.588
 11
85.309
 21
221.951
  0
LINE
  8
0
 10
85.309
 20
221.951
 11
86
 21
221
  0
LINE
  8
0
 10
86
 20
221
 11
85.309
 21
220.049
  0
LINE
  8
0
 10
85.309
 20
220.049
 11
84.191
 21
220.412
  0
LINE
  8
0
 10
-85.809
 20
220.412
 11
-85.809
 21
221.588
  0
LINE
  8
0
 10
-85.809
 20
221.588
 11
-84.691
 21
221.951
  0
LINE
  8
0
 10
-84.691
 20
221.951
 11
-84
 21
221
  0
LINE
  8
0
 10
-84
 20
221
 11
-84.691
 21
220.049
  0
LINE
  8
0
 10
-84.691
 20
220.049
 11
-85.809
 21
220.412
  0
LINE
  8
0
 10
84.191
 20
216.412
 11
84.191
 21
217.588
  0
LINE
  8
0
 10
84.191
 20
217.588
 11
85.309
 21
217.951
  0
LINE
  8
0
 10
85.309
 20
217.951
 11
86
 21
217
  0
LINE
  8
0
 10
86
 20
217
 11
85.309
 21
216.049
  0
LINE
  8
0
 10
85.309
 20
216.049
 11
84.191
 21
216.412
  0
LINE
  8
0
 10
-85.809
 20
216.412
 11
-85.809
 21
217.588
  0
LINE
  8
0
 10
-85.809
 20
217.588
 11
-84.691
 21
217.951
  0
LINE
  8
0
 10
-84.691
 20
217.951
 11
-84
 21
217
  0
LINE
  8
0
 10
-84
 20
217
 11
-84.691
 21
216.049
  0
LINE
  8
0
 10
-84.691
 20
216.049
 11
-85.809
 21
216.412
  0
LINE
  8
0
 10
84.191
 20
212.412
 11
84.191
 21
213.588
  0
LINE
  8
0
 10
84.191
 20
213.588
 11
85.309
 21
213.951
  0
LINE
  8
0
 10
85.309
 20
213.951
 11
86
 21
213
  0
LINE
  8
0
 10
86
 20
213
 11
85.309
 21
212.049
  0
LINE
  8
0
 10
85.309
 20
212.049
 11
84.191
 21
212.412
  0
LINE
  8
0
 10
-85.809
 20
212.412
 11
-85.809
 21
213.588
  0
LINE
  8
0
 10
-85.809
 20
213.588
 11
-84.691
 21
213.951
  0
LINE
  8
0
 10
-84.691
 20
213.951
 11
-84
 21
213
  0
LINE
  8
0
 10
-84
 20
213
 11
-84.691
 21
212.049
  0
LINE
  8
0
 10
-84.691
 20
212.049
 11
-85.809
 21
212.412
  0
LINE
  8
0
 10
84.191
 20
208.412
 11
84.191
 21
209.588
  0
LINE
  8
0
 10
84.191
 20
209.588
 11
85.309
 21
209.951
  0
LINE
  8
0
 10
85.309
 20
209.951
 11
86
 21
209
  0
LINE
  8
0
 10
86
 20
209
 11
85.309
 21
208.049
  0
LINE
  8
0
 10
85.309
 20
208.049
 11
84.191
 21
208.412
  0
LINE
  8
0
 10
-85.809
 20
208.412
 11
-85.809
 21
209.588
  0
LINE
  8
0
 10
-85.809
 20
209.588
 11
-84.691
 21
209.951
  0
LINE
  8
0
 10
-84.691
 20
209.951
 11
-84
 21
209
  0
LINE
  8
0
 10
-84
 20
209
 11
-84.691
 21
208.049
  0
LINE
  8
0
 10
-84.691
 20
208.049
 11
-85.809
 21
208.412
  0
LINE
  8
0
 10
84.191
 20
204.412
 11
84.191
 21
205.588
  0
LINE
  8
0
 10
84.191
 20
205.588
 11
85.309
 21
205.951
  0
LINE
  8
0
 10
85.309
 20
205.951
 11
86
 21
205
  0
LINE
  8
0
 10
86
 20
205
 11
85.309
 21
204.049
  0
LINE
  8
0
 10
85.309
 20
204.049
 11
84.191
 21
204.412
  0
LINE
  8
0
 10
-85.809
 20
204.412
 11
-85.809
 21
205.588
  0
LINE
  8
0
 10
-85.809
 20
205.588
 11
-84.691
 21
205.951
  0
LINE
  8
0
 10
-84.691
 20
205.951
 11
-84
 21
205
  0
LINE
  8
0
 10
-84
 20
205
 11
-84.691
 21
204.049
  0
LINE
  8
0
 10
-84.691
 20
204.049
 11
-85.809
 21
204.412
  0
LINE
  8
0
 10
84.191
 20
200.412
 11
84.191
 21
201.588
  0
LINE
  8
0
 10
84.191
 20
201.588
 11
85.309
 21
201.951
  0
LINE
  8
0
 10
85.309
 20
201.951
 11
86
 21
201
  0
LINE
  8
0
 10
86
 20
201
 11
85.309
 21
200.049
  0
LINE
  8
0
 10
85.309
 20
200.049
 11
84.191
 21
200.412
  0
LINE
  8
0
 10
-85.809
 20
200.412
 11
-85.809
 21
201.588
  0
LINE
  8
0
 10
-85.809
 20
201.588
 11
-84.691
 21
201.951
  0
LINE
  8
0
 10
-84.691
 20
201.951
 11
-84
 21
201
  0
LINE
  8
0
 10
-84
 20
201
 11
-84.691
 21
200.049
  0
LINE
  8
0
 10
-84.691
 20
200.049
 11
-85.809
 21
200.412
  0
LINE
  8
0
 10
84.191
 20
196.412
 11
84.191
 21
197.588
  0
LINE
  8
0
 10
84.191
 20
197.588
 11
85.309
 21
197.951
  0
LINE
  8
0
 10
85.309
 20
197.951
 11
86
 21
197
  0
LINE
  8
0
 10
86
 20
197
 11
85.309
 21
196.049
  0
LINE
  8
0
 10
85.309
 20
196.049
 11
84.191
 21
196.412
  0
LINE
  8
0
 10
-85.809
 20
196.412
 11
-85.809
 21
197.588
  0
LINE
  8
0
 10
-85.809
 20
197.588
 11
-84.691
 21
197.951
  0
LINE
  8
0
 10
-84.691
 20
197.951
 11
-84
 21
197
  0
LINE
  8
0
 10
-84
 20
197
 11
-84.691
 21
196.049
  0
LINE
  8
0
 10
-84.691
 20
196.049
 11
-85.809
 21
196.412
  0
LINE
  8
0
 10
84.191
 20
192.412
 11
84.191
 21
193.588
  0
LINE
  8
0
 10
84.191
 20
193.588
 11
85.309
 21
193.951
  0
LINE
  8
0
 10
85.309
 20
193.951
 11
86
 21
193
  0
LINE
  8
0
 10
86
 20
193
 11
85.309
 21
192.049
  0
LINE
  8
0
 10
85.309
 20
192.049
 11
84.191
 21
192.412
  0
LINE
  8
0
 10
-85.809
 20
192.412
 11
-85.809
 21
193.588
  0
LINE
  8
0
 10
-85.809
 20
193.588
 11
-84.691
 21
193.951
  0
LINE
  8
0
 10
-84.691
 20
193.951
 11
-84
 21
193
  0
LINE
  8
0
 10
-84
 20
193
 11
-84.691
 21
192.049
  0
LINE
  8
0
 10
-84.691
 20
192.049
 11
-85.809
 21
192.412
  0
LINE
  8
0
 10
84.191
 20
188.412
 11
84.191
 21
189.588
  0
LINE
  8
0
 10
84.191
 20
189.588
 11
85.309
 21
189.951
  0
LINE
  8
0
 10
85.309
 20
189.951
 11
86
 21
189
  0
LINE
  8
0
 10
86
 20
189
 11
85.309
 21
188.049
  0
LINE
  8
0
 10
85.309
 20
188.049
 11
84.191
 21
188.412
  0
LINE
  8
0
 10
-85.809
 20
188.412
 11
-85.809
 21
189.588
  0
LINE
  8
0
 10
-85.809
 20
189.588
 11
-84.691
 21
189.951
  0
LINE
  8
0
 10
-84.691
 20
189.951
 11
-84
 21
189
  0
LINE
  8
0
 10
-84
 20
189
 11
-84.691
 21
188.049
  0
LINE
  8
0
 10
-84.691
 20
188.049
 11
-85.809
 21
188.412
  0
LINE
  8
0
 10
-85.809
 20
184.412
 11
-85.809
 21
185.588
  0
LINE
  8
0
 10
-85.809
 20
185.588
 11
-84.691
 21
185.951
  0
LINE
  8
0
 10
-84.691
 20
185.951
 11
-84
 21
185
  0
LINE
  8
0
 10
-84
 20
185
 11
-84.691
 21
184.049
  0
LINE
  8
0
 10
-84.691
 20
184.049
 11
-85.809
 21
184.412
  0
LINE
  8
0
 10
84.191
 20
184.412
 11
84.191
 21
185.588
  0
LINE
  8
0
 10
84.191
 20
185.588
 11
85.309
 21
185.951
  0
LINE
  8
0
 10
85.309
 20
185.951
 11
86
 21
185
  0
LINE
  8
0
 10
86
 20
185
 11
85.309
 21
184.049
  0
LINE
  8
0
 10
85.309
 20
184.049
 11
84.191
 21
184.412
  0
LINE
  8
0
 10
84.191
 20
180.412
 11
84.191
 21
181.588
  0
LINE
  8
0
 10
84.191
 20
181.588
 11
85.309
 21
181.951
  0
LINE
  8
0
 10
85.309
 20
181.951
 11
86
 21
181
  0
LINE
  8
0
 10
86
 20
181
 11
85.309
 21
180.049
  0
LINE
  8
0
 10
85.309
 20
180.049
 11
84.191
 21
180.412
  0
LINE
  8
0
 10
-85.809
 20
180.412
 11
-85.809
 21
181.588
  0
LINE
  8
0
 10
-85.809
 20
181.588
 11
-84.691
 21
181.951
  0
LINE
  8
0
 10
-84.691
 20
181.951
 11
-84
 21
181
  0
LINE
  8
0
 10
-84
 20
181
 11
-84.691
 21
180.049
  0
LINE
  8
0
 10
-84.691
 20
180.049
 11
-85.809
 21
180.412
  0
LINE
  8
0
 10
84.191
 20
176.412
 11
84.191
 21
177.588
  0
LINE
  8
0
 10
84.191
 20
177.588
 11
85.309
 21
177.951
  0
LINE
  8
0
 10
85.309
 20
177.951
 11
86
 21
177
  0
LINE
  8
0
 10
86
 20
177
 11
85.309
 21
176.049
  0
LINE
  8
0
 10
85.309
 20
176.049
 11
84.191
 21
176.412
  0
LINE
  8
0
 10
-85.809
 20
176.412
 11
-85.809
 21
177.588
  0
LINE
  8
0
 10
-85.809
 20
177.588
 11
-84.691
 21
177.951
  0
LINE
  8
0
 10
-84.691
 20
177.951
 11
-84
 21
177
  0
LINE
  8
0
 10
-84
 20
177
 11
-84.691
 21
176.049
  0
LINE
  8
0
 10
-84.691
 20
176.049
 11
-85.809
 21
176.412
  0
LINE
  8
0
 10
84.191
 20
172.412
 11
84.191
 21
173.588
  0
LINE
  8
0
 10
84.191
 20
173.588
 11
85.309
 21
173.951
  0
LINE
  8
0
 10
85.309
 20
173.951
 11
86
 21
173
  0
LINE
  8
0
 10
86
 20
173
 11
85.309
 21
172.049
  0
LINE
  8
0
 10
85.309
 20
172.049
 11
84.191
 21
172.412
  0
LINE
  8
0
 10
-85.809
 20
172.412
 11
-85.809
 21
173.588
  0
LINE
  8
0
 10
-85.809
 20
173.588
 11
-84.691
 21
173.951
  0
LINE
  8
0
 10
-84.691
 20
173.951
 11
-84
 21
173
  0
LINE
  8
0
 10
-84
 20
173
 11
-84.691
 21
172.049
  0
LINE
  8
0
 10
-84.691
 20
172.049
 11
-85.809
 21
172.412
  0
LINE
  8
0
 10
84.191
 20
168.412
 11
84.191
 21
169.588
  0
LINE
  8
0
 10
84.191
 20
169.588
 11
85.309
 21
169.951
  0
LINE
  8
0
 10
85.309
 20
169.951
 11
86
 21
169
  0
LINE
  8
0
 10
86
 20
169
 11
85.309
 21
168.049
  0
LINE
  8
0
 10
85.309
 20
168.049
 11
84.191
 21
168.412
  0
LINE
  8
0
 10
-85.809
 20
168.412
 11
-85.809
 21
169.588
  0
LINE
  8
0
 10
-85.809
 20
169.588
 11
-84.691
 21
169.951
  0
LINE
  8
0
 10
-84.691
 20
169.951
 11
-84
 21
169
  0
LINE
  8
0
 10
-84
 20
169
 11
-84.691
 21
168.049
  0
LINE
  8
0
 10
-84.691
 20
168.049
 11
-85.809
 21
168.412
  0
LINE
  8
0
 10
84.191
 20
164.412
 11
84.191
 21
165.588
  0
LINE
  8
0
 10
84.191
 20
165.588
 11
85.309
 21
165.951
  0
LINE
  8
0
 10
85.309
 20
165.951
 11
86
 21
165
  0
LINE
  8
0
 10
86
 20
165
 11
85.309
 21
164.049
  0
LINE
  8
0
 10
85.309
 20
164.049
 11
84.191
 21
164.412
  0
LINE
  8
0
 10
-85.809
 20
164.412
 11
-85.809
 21
165.588
  0
LINE
  8
0
 10
-85.809
 20
165.588
 11
-84.691
 21
165.951
  0
LINE
  8
0
 10
-84.691
 20
165.951
 11
-84
 21
165
  0
LINE
  8
0
 10
-84
 20
165
 11
-84.691
 21
164.049
  0
LINE
  8
0
 10
-84.691
 20
164.049
 11
-85.809
 21
164.412
  0
LINE
  8
0
 10
84.191
 20
160.412
 11
84.191
 21
161.588
  0
LINE
  8
0
 10
84.191
 20
161.588
 11
85.309
 21
161.951
  0
LINE
  8
0
 10
85.309
 20
161.951
 11
86
 21
161
  0
LINE
  8
0
 10
86
 20
161
 11
85.309
 21
160.049
  0
LINE
  8
0
 10
85.309
 20
160.049
 11
84.191
 21
160.412
  0
LINE
  8
0
 10
-85.809
 20
160.412
 11
-85.809
 21
161.588
  0
LINE
  8
0
 10
-85.809
 20
161.588
 11
-84.691
 21
161.951
  0
LINE
  8
0
 10
-84.691
 20
161.951
 11
-84
 21
161
  0
LINE
  8
0
 10
-84
 20
161
 11
-84.691
 21
160.049
  0
LINE
  8
0
 10
-84.691
 20
160.049
 11
-85.809
 21
160.412
  0
LINE
  8
0
 10
84.191
 20
156.412
 11
84.191
 21
157.588
  0
LINE
  8
0
 10
84.191
 20
157.588
 11
85.309
 21
157.951
  0
LINE
  8
0
 10
85.309
 20
157.951
 11
86
 21
157
  0
LINE
  8
0
 10
86
 20
157
 11
85.309
 21
156.049
  0
LINE
  8
0
 10
85.309
 20
156.049
 11
84.191
 21
156.412
  0
LINE
  8
0
 10
-85.809
 20
156.412
 11
-85.809
 21
157.588
  0
LINE
  8
0
 10
-85.809
 20
157.588
 11
-84.691
 21
157.951
  0
LINE
  8
0
 10
-84.691
 20
157.951
 11
-84
 21
157
  0
LINE
  8
0
 10
-84
 20
157
 11
-84.691
 21
156.049
  0
LINE
  8
0
 10
-84.691
 20
156.049
 11
-85.809
 21
156.412
  0
LINE
  8
0
 10
-85.809
 20
152.412
 11
-85.809
 21
153.588
  0
LINE
  8
0
 10
-85.809
 20
153.588
 11
-84.691
 21
153.951
  0
LINE
  8
0
 10
-84.691
 20
153.951
 11
-84
 21
153
  0
LINE
  8
0
 10
-84
 20
153
 11
-84.691
 21
152.049
  0
LINE
  8
0
 10
-84.691
 20
152.049
 11
-85.809
 21
152.412
  0
LINE
  8
0
 10
84.191
 20
152.412
 11
84.191
 21
153.588
  0
LINE
  8
0
 10
84.191
 20
153.588
 11
85.309
 21
153.951
  0
LINE
  8
0
 10
85.309
 20
153.951
 11
86
 21
153
  0
LINE
  8
0
 10
86
 20
153
 11
85.309
 21
152.049
  0
LINE
  8
0
 10
85.309
 20
152.049
 11
84.191
 21
152.412
  0
LINE
  8
0
 10
-85.809
 20
148.412
 11
-85.809
 21
149.588
  0
LINE
  8
0
 10
-85.809
 20
149.588
 11
-84.691
 21
149.951
  0
LINE
  8
0
 10
-84.691
 20
149.951
 11
-84
 21
149
  0
LINE
  8
0
 10
-84
 20
149
 11
-84.691
 21
148.049
  0
LINE
  8
0
 10
-84.691
 20
148.049
 11
-85.809
 21
148.412
  0
LINE
  8
0
 10
84.191
 20
148.412
 11
84.191
 21
149.588
  0
LINE
  8
0
 10
84.191
 20
149.588
 11
85.309
 21
149.951
  0
LINE
  8
0
 10
85.309
 20
149.951
 11
86
 21
149
  0
LINE
  8
0
 10
86
 20
149
 11
85.309
 21
148.049
  0
LINE
  8
0
 10
85.309
 20
148.049
 11
84.191
 21
148.412
  0
LINE
  8
0
 10
84.191
 20
144.412
 11
84.191
 21
145.588
  0
LINE
  8
0
 10
84.191
 20
145.588
 11
85.309
 21
145.951
  0
LINE
  8
0
 10
85.309
 20
145.951
 11
86
 21
145
  0
LINE
  8
0
 10
86
 20
145
 11
85.309
 21
144.049
  0
LINE
  8
0
 10
85.309
 20
144.049
 11
84.191
 21
144.412
  0
LINE
  8
0
 10
-85.809
 20
144.412
 11
-85.809
 21
145.588
  0
LINE
  8
0
 10
-85.809
 20
145.588
 11
-84.691
 21
145.951
  0
LINE
  8
0
 10
-84.691
 20
145.951
 11
-84
 21
145
  0
LINE
  8
0
 10
-84
 20
145
 11
-84.691
 21
144.049
  0
LINE
  8
0
 10
-84.691
 20
144.049
 11
-85.809
 21
144.412
  0
LINE
  8
0
 10
-85.809
 20
140.412
 11
-85.809
 21
141.588
  0
LINE
  8
0
 10
-85.809
 20
141.588
 11
-84.691
 21
141.951
  0
LINE
  8
0
 10
-84.691
 20
141.951
 11
-84
 21
141
  0
LINE
  8
0
 10
-84
 20
141
 11
-84.691
 21
140.049
  0
LINE
  8
0
 10
-84.691
 20
140.049
 11
-85.809
 21
140.412
  0
LINE
  8
0
 10
84.191
 20
140.412
 11
84.191
 21
141.588
  0
LINE
  8
0
 10
84.191
 20
141.588
 11
85.309
 21
141.951
  0
LINE
  8
0
 10
85.309
 20
141.951
 11
86
 21
141
  0
LINE
  8
0
 10
86
 20
141
 11
85.309
 21
140.049
  0
LINE
  8
0
 10
85.309
 20
140.049
 11
84.191
 21
140.412
  0
LINE
  8
0
 10
-85.809
 20
136.412
 11
-85.809
 21
137.588
  0
LINE
  8
0
 10
-85.809
 20
137.588
 11
-84.691
 21
137.951
  0
LINE
  8
0
 10
-84.691
 20
137.951
 11
-84
 21
137
  0
LINE
  8
0
 10
-84
 20
137
 11
-84.691
 21
136.049
  0
LINE
  8
0
 10
-84.691
 20
136.049
 11
-85.809
 21
136.412
  0
LINE
  8
0
 10
84.191
 20
136.412
 11
84.191
 21
137.588
  0
LINE
  8
0
 10
84.191
 20
137.588
 11
85.309
 21
137.951
  0
LINE
  8
0
 10
85.309
 20
137.951
 11
86
 21
137
  0
LINE
  8
0
 10
86
 20
137
 11
85.309
 21
136.049
  0
LINE
  8
0
 10
85.309
 20
136.049
 11
84.191
 21
136.412
  0
LINE
  8
0
 10
-85.809
 20
132.412
 11
-85.809
 21
133.588
  0
LINE
  8
0
 10
-85.809
 20
133.588
 11
-84.691
 21
133.951
  0
LINE
  8
0
 10
-84.691
 20
133.951
 11
-84
 21
133
  0
LINE
  8
0
 10
-84
 20
133
 11
-84.691
 21
132.049
  0
LINE
  8
0
 10
-84.691
 20
132.049
 11
-85.809
 21
132.412
  0
LINE
  8
0
 10
84.191
 20
132.412
 11
84.191
 21
133.588
  0
LINE
  8
0
 10
84.191
 20
133.588
 11
85.309
 21
133.951
  0
LINE
  8
0
 10
85.309
 20
133.951
 11
86
 21
133
  0
LINE
  8
0
 10
86
 20
133
 11
85.309
 21
132.049
  0
LINE
  8
0
 10
85.309
 20
132.049
 11
84.191
 21
132.412
  0
LINE
  8
0
 10
84.191
 20
128.412
 11
84.191
 21
129.588
  0
LINE
  8
0
 10
84.191
 20
129.588
 11
85.309
 21
129.951
  0
LINE
  8
0
 10
85.309
 20
129.951
 11
86
 21
129
  0
LINE
  8
0
 10
86
 20
129
 11
85.309
 21
128.049
  0
LINE
  8
0
 10
85.309
 20
128.049
 11
84.191
 21
128.412
  0
LINE
  8
0
 10
-85.809
 20
128.412
 11
-85.809
 21
129.588
  0
LINE
  8
0
 10
-85.809
 20
129.588
 11
-84.691
 21
129.951
  0
LINE
  8
0
 10
-84.691
 20
129.951
 11
-84
 21
129
  0
LINE
  8
0
 10
-84
 20
129
 11
-84.691
 21
128.049
  0
LINE
  8
0
 10
-84.691
 20
128.049
 11
-85.809
 21
128.412
  0
LINE
  8
0
 10
-85.809
 20
124.412
 11
-85.809
 21
125.588
  0
LINE
  8
0
 10
-85.809
 20
125.588
 11
-84.691
 21
125.951
  0
LINE
  8
0
 10
-84.691
 20
125.951
 11
-84
 21
125
  0
LINE
  8
0
 10
-84
 20
125
 11
-84.691
 21
124.049
  0
LINE
  8
0
 10
-84.691
 20
124.049
 11
-85.809
 21
124.412
  0
LINE
  8
0
 10
84.191
 20
124.412
 11
84.191
 21
125.588
  0
LINE
  8
0
 10
84.191
 20
125.588
 11
85.309
 21
125.951
  0
LINE
  8
0
 10
85.309
 20
125.951
 11
86
 21
125
  0
LINE
  8
0
 10
86
 20
125
 11
85.309
 21
124.049
  0
LINE
  8
0
 10
85.309
 20
124.049
 11
84.191
 21
124.412
  0
LINE
  8
0
 10
84.191
 20
120.412
 11
84.191
 21
121.588
  0
LINE
  8
0
 10
84.191
 20
121.588
 11
85.309
 21
121.951
  0
LINE
  8
0
 10
85.309
 20
121.951
 11
86
 21
121
  0
LINE
  8
0
 10
86
 20
121
 11
85.309
 21
120.049
  0
LINE
  8
0
 10
85.309
 20
120.049
 11
84.191
 21
120.412
  0
LINE
  8
0
 10
-85.809
 20
120.412
 11
-85.809
 21
121.588
  0
LINE
  8
0
 10
-85.809
 20
121.588
 11
-84.691
 21
121.951
  0
LINE
  8
0
 10
-84.691
 20
121.951
 11
-84
 21
121
  0
LINE
  8
0
 10
-84
 20
121
 11
-84.691
 21
120.049
  0
LINE
  8
0
 10
-84.691
 20
120.049
 11
-85.809
 21
120.412
  0
LINE
  8
0
 10
-85.809
 20
116.412
 11
-85.809
 21
117.588
  0
LINE
  8
0
 10
-85.809
 20
117.588
 11
-84.691
 21
117.951
  0
LINE
  8
0
 10
-84.691
 20
117.951
 11
-84
 21
117
  0
LINE
  8
0
 10
-84
 20
117
 11
-84.691
 21
116.049
  0
LINE
  8
0
 10
-84.691
 20
116.049
 11
-85.809
 21
116.412
  0
LINE
  8
0
 10
84.191
 20
116.412
 11
84.191
 21
117.588
  0
LINE
  8
0
 10
84.191
 20
117.588
 11
85.309
 21
117.951
  0
LINE
  8
0
 10
85.309
 20
117.951
 11
86
 21
117
  0
LINE
  8
0
 10
86
 20
117
 11
85.309
 21
116.049
  0
LINE
  8
0
 10
85.309
 20
116.049
 11
84.191
 21
116.412
  0
LINE
  8
0
 10
84.191
 20
112.412
 11
84.191
 21
113.588
  0
LINE
  8
0
 10
84.191
 20
113.588
 11
85.309
 21
113.951
  0
LINE
  8
0
 10
85.309
 20
113.951
 11
86
 21
113
  0
LINE
  8
0
 10
86
 20
113
 11
85.309
 21
112.049
  0
LINE
  8
0
 10
85.309
 20
112.049
 11
84.191
 21
112.412
  0
LINE
  8
0
 10
-85.809
 20
112.412
 11
-85.809
 21
113.588
  0
LINE
  8
0
 10
-85.809
 20
113.588
 11
-84.691
 21
113.951
  0
LINE
  8
0
 10
-84.691
 20
113.951
 11
-84
 21
113
  0
LINE
  8
0
 10
-84
 20
113
 11
-84.691
 21
112.049
  0
LINE
  8
0
 10
-84.691
 20
112.049
 11
-85.809
 21
112.412
  0
LINE
  8
0
 10
-85.809
 20
108.412
 11
-85.809
 21
109.588
  0
LINE
  8
0
 10
-85.809
 20
109.588
 11
-84.691
 21
109.951
  0
LINE
  8
0
 10
-84.691
 20
109.951
 11
-84
 21
109
  0
LINE
  8
0
 10
-84
 20
109
 11
-84.691
 21
108.049
  0
LINE
  8
0
 10
-84.691
 20
108.049
 11
-85.809
 21
108.412
  0
LINE
  8
0
 10
84.191
 20
108.412
 11
84.191
 21
109.588
  0
LINE
  8
0
 10
84.191
 20
109.588
 11
85.309
 21
109.951
  0
LINE
  8
0
 10
85.309
 20
109.951
 11
86
 21
109
  0
LINE
  8
0
 10
86
 20
109
 11
85.309
 21
108.049
  0
LINE
  8
0
 10
85.309
 20
108.049
 11
84.191
 21
108.412
  0
LINE
  8
0
 10
84.191
 20
104.412
 11
84.191
 21
105.588
  0
LINE
  8
0
 10
84.191
 20
105.588
 11
85.309
 21
105.951
  0
LINE
  8
0
 10
85.309
 20
105.951
 11
86
 21
105
  0
LINE
  8
0
 10
86
 20
105
 11
85.309
 21
104.049
  0
LINE
  8
0
 10
85.309
 20
104.049
 11
84.191
 21
104.412
  0
LINE
  8
0
 10
-85.809
 20
104.412
 11
-85.809
 21
105.588
  0
LINE
  8
0
 10
-85.809
 20
105.588
 11
-84.691
 21
105.951
  0
LINE
  8
0
 10
-84.691
 20
105.951
 11
-84
 21
105
  0
LINE
  8
0
 10
-84
 20
105
 11
-84.691
 21
104.049
  0
LINE
  8
0
 10
-84.691
 20
104.049
 11
-85.809
 21
104.412
  0
LINE
  8
0
 10
-85.809
 20
100.412
 11
-85.809
 21
101.588
  0
LINE
  8
0
 10
-85.809
 20
101.588
 11
-84.691
 21
101.951
  0
LINE
  8
0
 10
-84.691
 20
101.951
 11
-84
 21
101
  0
LINE
  8
0
 10
-84
 20
101
 11
-84.691
 21
100.049
  0
LINE
  8
0
 10
-84.691
 20
100.049
 11
-85.809
 21
100.412
  0
LINE
  8
0
 10
84.191
 20
100.412
 11
84.191
 21
101.588
  0
LINE
  8
0
 10
84.191
 20
101.588
 11
85.309
 21
101.951
  0
LINE
  8
0
 10
85.309
 20
101.951
 11
86
 21
101
  0
LINE
  8
0
 10
86
 20
101
 11
85.309
 21
100.049
  0
LINE
  8
0
 10
85.309
 20
100.049
 11
84.191
 21
100.412
  0
LINE
  8
0
 10
84.191
 20
96.4122
 11
84.191
 21
97.5878
  0
LINE
  8
0
 10
84.191
 20
97.5878
 11
85.309
 21
97.951
  0
LINE
  8
0
 10
85.309
 20
97.951
 11
86
 21
97
  0
LINE
  8
0
 10
86
 20
97
 11
85.309
 21
96.0489
  0
LINE
  8
0
 10
85.309
 20
96.0489
 11
84.191
 21
96.4122
  0
LINE
  8
0
 10
-85.809
 20
96.4122
 11
-85.809
 21
97.5878
  0
LINE
  8
0
 10
-85.809
 20
97.5878
 11
-84.691
 21
97.951
  0
LINE
  8
0
 10
-84.691
 20
97.951
 11
-84
 21
97
  0
LINE
  8
0
 10
-84
 20
97
 11
-84.691
 21
96.0489
  0
LINE
  8
0
 10
-84.691
 20
96.0489
 11
-85.809
 21
96.4122
  0
LINE
  8
0
 10
-85.809
 20
92.4122
 11
-85.809
 21
93.5878
  0
LINE
  8
0
 10
-85.809
 20
93.5878
 11
-84.691
 21
93.951
  0
LINE
  8
0
 10
-84.691
 20
93.951
 11
-84
 21
93
  0
LINE
  8
0
 10
-84
 20
93
 11
-84.691
 21
92.0489
  0
LINE
  8
0
 10
-84.691
 20
92.0489
 11
-85.809
 21
92.4122
  0
LINE
  8
0
 10
84.191
 20
92.4122
 11
84.191
 21
93.5878
  0
LINE
  8
0
 10
84.191
 20
93.5878
 11
85.309
 21
93.951
  0
LINE
  8
0
 10
85.309
 20
93.951
 11
86
 21
93
  0
LINE
  8
0
 10
86
 20
93
 11
85.309
 21
92.0489
  0
LINE
  8
0
 10
85.309
 20
92.0489
 11
84.191
 21
92.4122
  0
LINE
  8
0
 10
84.191
 20
88.4122
 11
84.191
 21
89.5878
  0
LINE
  8
0
 10
84.191
 20
89.5878
 11
85.309
 21
89.951
  0
LINE
  8
0
 10
85.309
 20
89.951
 11
86
 21
89
  0
LINE
  8
0
 10
86
 20
89
 11
85.309
 21
88.0489
  0
LINE
  8
0
 10
85.309
 20
88.0489
 11
84.191
 21
88.4122
  0
LINE
  8
0
 10
-85.809
 20
88.4122
 11
-85.809
 21
89.5878
  0
LINE
  8
0
 10
-85.809
 20
89.5878
 11
-84.691
 21
89.951
  0
LINE
  8
0
 10
-84.691
 20
89.951
 11
-84
 21
89
  0
LINE
  8
0
 10
-84
 20
89
 11
-84.691
 21
88.0489
  0
LINE
  8
0
 10
-84.691
 20
88.0489
 11
-85.809
 21
88.4122
  0
LINE
  8
0
 10
84.191
 20
84.4122
 11
84.191
 21
85.5878
  0
LINE
  8
0
 10
84.191
 20
85.5878
 11
85.309
 21
85.951
  0
LINE
  8
0
 10
85.309
 20
85.951
 11
86
 21
85
  0
LINE
  8
0
 10
86
 20
85
 11
85.309
 21
84.0489
  0
LINE
  8
0
 10
85.309
 20
84.0489
 11
84.191
 21
84.4122
  0
LINE
  8
0
 10
-85.809
 20
84.4122
 11
-85.809
 21
85.5878
  0
LINE
  8
0
 10
-85.809
 20
85.5878
 11
-84.691
 21
85.951
  0
LINE
  8
0
 10
-84.691
 20
85.951
 11
-84
 21
85
  0
LINE
  8
0
 10
-84
 20
85
 11
-84.691
 21
84.0489
  0
LINE
  8
0
 10
-84.691
 20
84.0489
 11
-85.809
 21
84.4122
  0
LINE
  8
0
 10
84.191
 20
80.4122
 11
84.191
 21
81.5878
  0
LINE
  8
0
 10
84.191
 20
81.5878
 11
85.309
 21
81.951
  0
LINE
  8
0
 10
85.309
 20
81.951
 11
86
 21
81
  0
LINE
  8
0
 10
86
 20
81
 11
85.309
 21
80.0489
  0
LINE
  8
0
 10
85.309
 20
80.0489
 11
84.191
 21
80.4122
  0
LINE
  8
0
 10
-85.809
 20
80.4122
 11
-85.809
 21
81.5878
  0
LINE
  8
0
 10
-85.809
 20
81.5878
 11
-84.691
 21
81.951
  0
LINE
  8
0
 10
-84.691
 20
81.951
 11
-84
 21
81
  0
LINE
  8
0
 10
-84
 20
81
 11
-84.691
 21
80.0489
  0
LINE
  8
0
 10
-84.691
 20
80.0489
 11
-85.809
 21
80.4122
  0
LINE
  8
0
 10
84.191
 20
76.4122
 11
84.191
 21
77.5878
  0
LINE
  8
0
 10
84.191
 20
77.5878
 11
85.309
 21
77.951
  0
LINE
  8
0
 10
85.309
 20
77.951
 11
86
 21
77
  0
LINE
  8
0
 10
86
 20
77
 11
85.309
 21
76.0489
  0
LINE
  8
0
 10
85.309
 20
76.0489
 11
84.191
 21
76.4122
  0
LINE
  8
0
 10
-85.809
 20
76.4122
 11
-85.809
 21
77.5878
  0
LINE
  8
0
 10
-85.809
 20
77.5878
 11
-84.691
 21
77.951
  0
LINE
  8
0
 10
-84.691
 20
77.951
 11
-84
 21
77
  0
LINE
  8
0
 10
-84
 20
77
 11
-84.691
 21
76.0489
  0
LINE
  8
0
 10
-84.691
 20
76.0489
 11
-85.809
 21
76.4122
  0
LINE
  8
0
 10
84.191
 20
72.4122
 11
84.191
 21
73.5878
  0
LINE
  8
0
 10
84.191
 20
73.5878
 11
85.309
 21
73.951
  0
LINE
  8
0
 10
85.309
 20
73.951
 11
86
 21
73
  0
LINE
  8
0
 10
86
 20
73
 11
85.309
 21
72.0489
  0
LINE
  8
0
 10
85.309
 20
72.0489
 11
84.191
 21
72.4122
  0
LINE
  8
0
 10
-85.809
 20
72.4122
 11
-85.809
 21
73.5878
  0
LINE
  8
0
 10
-85.809
 20
73.5878
 11
-84.691
 21
73.951
  0
LINE
  8
0
 10
-84.691
 20
73.951
 11
-84
 21
73
  0
LINE
  8
0
 10
-84
 20
73
 11
-84.691
 21
72.0489
  0
LINE
  8
0
 10
-84.691
 20
72.0489
 11
-85.809
 21
72.4122
  0
LINE
  8
0
 10
84.191
 20
68.4122
 11
84.191
 21
69.5878
  0
LINE
  8
0
 10
84.191
 20
69.5878
 11
85.309
 21
69.951
  0
LINE
  8
0
 10
85.309
 20
69.951
 11
86
 21
69
  0
LINE
  8
0
 10
86
 20
69
 11
85.309
 21
68.0489
  0
LINE
  8
0
 10
85.309
 20
68.0489
 11
84.191
 21
68.4122
  0
LINE
  8
0
 10
-85.809
 20
68.4122
 11
-85.809
 21
69.5878
  0
LINE
  8
0
 10
-85.809
 20
69.5878
 11
-84.691
 21
69.951
  0
LINE
  8
0
 10
-84.691
 20
69.951
 11
-84
 21
69
  0
LINE
  8
0
 10
-84
 20
69
 11
-84.691
 21
68.0489
  0
LINE
  8
0
 10
-84.691
 20
68.0489
 11
-85.809
 21
68.4122
  0
LINE
  8
0
 10
-85.809
 20
64.4122
 11
-85.809
 21
65.5878
  0
LINE
  8
0
 10
-85.809
 20
65.5878
 11
-84.691
 21
65.951
  0
LINE
  8
0
 10
-84.691
 20
65.951
 11
-84
 21
65
  0
LINE
  8
0
 10
-84
 20
65
 11
-84.691
 21
64.0489
  0
LINE
  8
0
 10
-84.691
 20
64.0489
 11
-85.809
 21
64.4122
  0
LINE
  8
0
 10
84.191
 20
64.4122
 11
84.191
 21
65.5878
  0
LINE
  8
0
 10
84.191
 20
65.5878
 11
85.309
 21
65.951
  0
LINE
  8
0
 10
85.309
 20
65.951
 11
86
 21
65
  0
LINE
  8
0
 10
86
 20
65
 11
85.309
 21
64.0489
  0
LINE
  8
0
 10
85.309
 20
64.0489
 11
84.191
 21
64.4122
  0
LINE
  8
0
 10
-85.1045
 20
-0.994507
 11
-85.2079
 21
-0.978134
  0
LINE
  8
0
 10
-85.2079
 20
-0.978134
 11
-85.309
 21
-0.95105
  0
LINE
  8
0
 10
-85.309
 20
-0.95105
 11
-85.4067
 21
-0.913544
  0
LINE
  8
0
 10
-85.4067
 20
-0.913544
 11
-85.5
 21
-0.866013
  0
LINE
  8
0
 10
-85.5
 20
-0.866013
 11
-85.5878
 21
-0.809006
  0
LINE
  8
0
 10
-85.5878
 20
-0.809006
 11
-85.6691
 21
-0.743134
  0
LINE
  8
0
 10
-85.6691
 20
-0.743134
 11
-85.7431
 21
-0.669128
  0
LINE
  8
0
 10
-85.7431
 20
-0.669128
 11
-85.809
 21
-0.587784
  0
LINE
  8
0
 10
-85.809
 20
-0.587784
 11
-85.866
 21
-0.499985
  0
LINE
  8
0
 10
-85.866
 20
-0.499985
 11
-85.9135
 21
-0.406723
  0
LINE
  8
0
 10
-85.9135
 20
-0.406723
 11
-85.951
 21
-0.309006
  0
LINE
  8
0
 10
-85.951
 20
-0.309006
 11
-85.9781
 21
-0.207901
  0
LINE
  8
0
 10
-85.9781
 20
-0.207901
 11
-85.9945
 21
-0.104523
  0
LINE
  8
0
 10
-85.9945
 20
-0.104523
 11
-86
 21
0
  0
LINE
  8
0
 10
-86
 20
0
 11
-84
 21
0
  0
LINE
  8
0
 10
-84
 20
0
 11
-84.0055
 21
-0.104523
  0
LINE
  8
0
 10
-84.0055
 20
-0.104523
 11
-84.0219
 21
-0.207901
  0
LINE
  8
0
 10
-84.0219
 20
-0.207901
 11
-84.0489
 21
-0.309006
  0
LINE
  8
0
 10
-84.0489
 20
-0.309006
 11
-84.0864
 21
-0.406723
  0
LINE
  8
0
 10
-84.0864
 20
-0.406723
 11
-84.134
 21
-0.499985
  0
LINE
  8
0
 10
-84.134
 20
-0.499985
 11
-84.191
 21
-0.587784
  0
LINE
  8
0
 10
-84.191
 20
-0.587784
 11
-84.2569
 21
-0.669128
  0
LINE
  8
0
 10
-84.2569
 20
-0.669128
 11
-84.3309
 21
-0.743134
  0
LINE
  8
0
 10
-84.3309
 20
-0.743134
 11
-84.4122
 21
-0.809006
  0
LINE
  8
0
 10
-84.4122
 20
-0.809006
 11
-84.5
 21
-0.866013
  0
LINE
  8
0
 10
-84.5
 20
-0.866013
 11
-84.5933
 21
-0.913544
  0
LINE
  8
0
 10
-84.5933
 20
-0.913544
 11
-84.691
 21
-0.95105
  0
LINE
  8
0
 10
-84.691
 20
-0.95105
 11
-84.7921
 21
-0.978134
  0
LINE
  8
0
 10
-84.7921
 20
-0.978134
 11
-84.8955
 21
-0.994507
  0
LINE
  8
0
 10
-84.8955
 20
-0.994507
 11
-85
 21
-1
  0
LINE
  8
0
 10
-85
 20
-1
 11
-85.1045
 21
-0.994507
  0
LINE
  8
0
 10
84.8955
 20
-0.994507
 11
84.7921
 21
-0.978134
  0
LINE
  8
0
 10
84.7921
 20
-0.978134
 11
84.691
 21
-0.95105
  0
LINE
  8
0
 10
84.691
 20
-0.95105
 11
84.5933
 21
-0.913544
  0
LINE
  8
0
 10
84.5933
 20
-0.913544
 11
84.5
 21
-0.866013
  0
LINE
  8
0
 10
84.5
 20
-0.866013
 11
84.4122
 21
-0.809006
  0
LINE
  8
0
 10
84.4122
 20
-0.809006
 11
84.3309
 21
-0.743134
  0
LINE
  8
0
 10
84.3309
 20
-0.743134
 11
84.2569
 21
-0.669128
  0
LINE
  8
0
 10
84.2569
 20
-0.669128
 11
84.191
 21
-0.587784
  0
LINE
  8
0
 10
84.191
 20
-0.587784
 11
84.134
 21
-0.499985
  0
LINE
  8
0
 10
84.134
 20
-0.499985
 11
84.0864
 21
-0.406723
  0
LINE
  8
0
 10
84.0864
 20
-0.406723
 11
84.0489
 21
-0.309006
  0
LINE
  8
0
 10
84.0489
 20
-0.309006
 11
84.0219
 21
-0.207901
  0
LINE
  8
0
 10
84.0219
 20
-0.207901
 11
84.0055
 21
-0.104523
  0
LINE
  8
0
 10
84.0055
 20
-0.104523
 11
84
 21
0
  0
LINE
  8
0
 10
84
 20
0
 11
86
 21
0
  0
LINE
  8
0
 10
86
 20
0
 11
85.9945
 21
-0.104523
  0
LINE
  8
0
 10
85.9945
 20
-0.104523
 11
85.9781
 21
-0.207901
  0
LINE
  8
0
 10
85.9781
 20
-0.207901
 11
85.951
 21
-0.309006
  0
LINE
  8
0
 10
85.951
 20
-0.309006
 11
85.9135
 21
-0.406723
  0
LINE
  8
0
 10
85.9135
 20
-0.406723
 11
85.866
 21
-0.499985
  0
LINE
  8
0
 10
85.866
 20
-0.499985
 11
85.809
 21
-0.587784
  0
LINE
  8
0
 10
85.809
 20
-0.587784
 11
85.7431
 21
-0.669128
  0
LINE
  8
0
 10
85.7431
 20
-0.669128
 11
85.6691
 21
-0.743134
  0
LINE
  8
0
 10
85.6691
 20
-0.743134
 11
85.5878
 21
-0.809006
  0
LINE
  8
0
 10
85.5878
 20
-0.809006
 11
85.5
 21
-0.866013
  0
LINE
  8
0
 10
85.5
 20
-0.866013
 11
85.4067
 21
-0.913544
  0
LINE
  8
0
 10
85.4067
 20
-0.913544
 11
85.309
 21
-0.95105
  0
LINE
  8
0
 10
85.309
 20
-0.95105
 11
85.2079
 21
-0.978134
  0
LINE
  8
0
 10
85.2079
 20
-0.978134
 11
85.1045
 21
-0.994507
  0
LINE
  8
0
 10
85.1045
 20
-0.994507
 11
85
 21
-1
  0
LINE
  8
0
 10
85
 20
-1
 11
84.8955
 21
-0.994507
  0
LINE
  8
0
 10
-83.8132
 20
-15.7546
 11
-83.9166
 21
-15.7382
  0
LINE
  8
0
 10
-83.9166
 20
-15.7382
 11
-84.0177
 21
-15.7112
  0
LINE
  8
0
 10
-84.0177
 20
-15.7112
 11
-84.1154
 21
-15.6736
  0
LINE
  8
0
 10
-84.1154
 20
-15.6736
 11
-84.2086
 21
-15.6261
  0
LINE
  8
0
 10
-84.2086
 20
-15.6261
 11
-84.2964
 21
-15.5691
  0
LINE
  8
0
 10
-84.2964
 20
-15.5691
 11
-84.3778
 21
-15.5032
  0
LINE
  8
0
 10
-84.3778
 20
-15.5032
 11
-84.4518
 21
-15.4292
  0
LINE
  8
0
 10
-84.4518
 20
-15.4292
 11
-84.5177
 21
-15.3479
  0
LINE
  8
0
 10
-84.5177
 20
-15.3479
 11
-84.5747
 21
-15.2601
  0
LINE
  8
0
 10
-84.5747
 20
-15.2601
 11
-84.6222
 21
-15.1668
  0
LINE
  8
0
 10
-84.6222
 20
-15.1668
 11
-84.6597
 21
-15.0691
  0
LINE
  8
0
 10
-84.6597
 20
-15.0691
 11
-84.6868
 21
-14.968
  0
LINE
  8
0
 10
-84.6868
 20
-14.968
 11
-84.7032
 21
-14.8646
  0
LINE
  8
0
 10
-84.7032
 20
-14.8646
 11
-84.7086
 21
-14.7601
  0
LINE
  8
0
 10
-84.7086
 20
-14.7601
 11
-84.7032
 21
-14.6556
  0
LINE
  8
0
 10
-84.7032
 20
-14.6556
 11
-84.6868
 21
-14.5522
  0
LINE
  8
0
 10
-84.6868
 20
-14.5522
 11
-84.6597
 21
-14.4511
  0
LINE
  8
0
 10
-84.6597
 20
-14.4511
 11
-84.6222
 21
-14.3533
  0
LINE
  8
0
 10
-84.6222
 20
-14.3533
 11
-84.5747
 21
-14.2601
  0
LINE
  8
0
 10
-84.5747
 20
-14.2601
 11
-84.5177
 21
-14.1723
  0
LINE
  8
0
 10
-84.5177
 20
-14.1723
 11
-84.4518
 21
-14.091
  0
LINE
  8
0
 10
-84.4518
 20
-14.091
 11
-84.3778
 21
-14.0169
  0
LINE
  8
0
 10
-84.3778
 20
-14.0169
 11
-84.2964
 21
-13.9511
  0
LINE
  8
0
 10
-84.2964
 20
-13.9511
 11
-84.2086
 21
-13.8941
  0
LINE
  8
0
 10
-84.2086
 20
-13.8941
 11
-84.1154
 21
-13.8465
  0
LINE
  8
0
 10
-84.1154
 20
-13.8465
 11
-84.0177
 21
-13.809
  0
LINE
  8
0
 10
-84.0177
 20
-13.809
 11
-83.9166
 21
-13.7819
  0
LINE
  8
0
 10
-83.9166
 20
-13.7819
 11
-83.8132
 21
-13.7656
  0
LINE
  8
0
 10
-83.8132
 20
-13.7656
 11
-83.7086
 21
-13.7601
  0
LINE
  8
0
 10
-83.7086
 20
-13.7601
 11
-83.6041
 21
-13.7656
  0
LINE
  8
0
 10
-83.6041
 20
-13.7656
 11
-83.5007
 21
-13.7819
  0
LINE
  8
0
 10
-83.5007
 20
-13.7819
 11
-83.3996
 21
-13.809
  0
LINE
  8
0
 10
-83.3996
 20
-13.809
 11
-83.3019
 21
-13.8465
  0
LINE
  8
0
 10
-83.3019
 20
-13.8465
 11
-83.2086
 21
-13.8941
  0
LINE
  8
0
 10
-83.2086
 20
-13.8941
 11
-83.1209
 21
-13.9511
  0
LINE
  8
0
 10
-83.1209
 20
-13.9511
 11
-83.0395
 21
-14.0169
  0
LINE
  8
0
 10
-83.0395
 20
-14.0169
 11
-82.9655
 21
-14.091
  0
LINE
  8
0
 10
-82.9655
 20
-14.091
 11
-82.8996
 21
-14.1723
  0
LINE
  8
0
 10
-82.8996
 20
-14.1723
 11
-82.8426
 21
-14.2601
  0
LINE
  8
0
 10
-82.8426
 20
-14.2601
 11
-82.7951
 21
-14.3533
  0
LINE
  8
0
 10
-82.7951
 20
-14.3533
 11
-82.7576
 21
-14.4511
  0
LINE
  8
0
 10
-82.7576
 20
-14.4511
 11
-82.7305
 21
-14.5522
  0
LINE
  8
0
 10
-82.7305
 20
-14.5522
 11
-82.7141
 21
-14.6556
  0
LINE
  8
0
 10
-82.7141
 20
-14.6556
 11
-82.7086
 21
-14.7601
  0
LINE
  8
0
 10
-82.7086
 20
-14.7601
 11
-82.7141
 21
-14.8646
  0
LINE
  8
0
 10
-82.7141
 20
-14.8646
 11
-82.7305
 21
-14.968
  0
LINE
  8
0
 10
-82.7305
 20
-14.968
 11
-82.7576
 21
-15.0691
  0
LINE
  8
0
 10
-82.7576
 20
-15.0691
 11
-82.7951
 21
-15.1668
  0
LINE
  8
0
 10
-82.7951
 20
-15.1668
 11
-82.8426
 21
-15.2601
  0
LINE
  8
0
 10
-82.8426
 20
-15.2601
 11
-82.8996
 21
-15.3479
  0
LINE
  8
0
 10
-82.8996
 20
-15.3479
 11
-82.9655
 21
-15.4292
  0
LINE
  8
0
 10
-82.9655
 20
-15.4292
 11
-83.0395
 21
-15.5032
  0
LINE
  8
0
 10
-83.0395
 20
-15.5032
 11
-83.1209
 21
-15.5691
  0
LINE
  8
0
 10
-83.1209
 20
-15.5691
 11
-83.2086
 21
-15.6261
  0
LINE
  8
0
 10
-83.2086
 20
-15.6261
 11
-83.3019
 21
-15.6736
  0
LINE
  8
0
 10
-83.3019
 20
-15.6736
 11
-83.3996
 21
-15.7112
  0
LINE
  8
0
 10
-83.3996
 20
-15.7112
 11
-83.5007
 21
-15.7382
  0
LINE
  8
0
 10
-83.5007
 20
-15.7382
 11
-83.6041
 21
-15.7546
  0
LINE
  8
0
 10
-83.6041
 20
-15.7546
 11
-83.7086
 21
-15.7601
  0
LINE
  8
0
 10
-83.7086
 20
-15.7601
 11
-83.8132
 21
-15.7546
  0
LINE
  8
0
 10
83.6041
 20
-15.7546
 11
83.5007
 21
-15.7382
  0
LINE
  8
0
 10
83.5007
 20
-15.7382
 11
83.3996
 21
-15.7112
  0
LINE
  8
0
 10
83.3996
 20
-15.7112
 11
83.3019
 21
-15.6736
  0
LINE
  8
0
 10
83.3019
 20
-15.6736
 11
83.2086
 21
-15.6261
  0
LINE
  8
0
 10
83.2086
 20
-15.6261
 11
83.1209
 21
-15.5691
  0
LINE
  8
0
 10
83.1209
 20
-15.5691
 11
83.0395
 21
-15.5032
  0
LINE
  8
0
 10
83.0395
 20
-15.5032
 11
82.9655
 21
-15.4292
  0
LINE
  8
0
 10
82.9655
 20
-15.4292
 11
82.8996
 21
-15.3479
  0
LINE
  8
0
 10
82.8996
 20
-15.3479
 11
82.8426
 21
-15.2601
  0
LINE
  8
0
 10
82.8426
 20
-15.2601
 11
82.7951
 21
-15.1668
  0
LINE
  8
0
 10
82.7951
 20
-15.1668
 11
82.7576
 21
-15.0691
  0
LINE
  8
0
 10
82.7576
 20
-15.0691
 11
82.7305
 21
-14.968
  0
LINE
  8
0
 10
82.7305
 20
-14.968
 11
82.7141
 21
-14.8646
  0
LINE
  8
0
 10
82.7141
 20
-14.8646
 11
82.7086
 21
-14.7601
  0
LINE
  8
0
 10
82.7086
 20
-14.7601
 11
82.7141
 21
-14.6556
  0
LINE
  8
0
 10
82.7141
 20
-14.6556
 11
82.7305
 21
-14.5522
  0
LINE
  8
0
 10
82.7305
 20
-14.5522
 11
82.7576
 21
-14.4511
  0
LINE
  8
0
 10
82.7576
 20
-14.4511
 11
82.7951
 21
-14.3533
  0
LINE
  8
0
 10
82.7951
 20
-14.3533
 11
82.8426
 21
-14.2601
  0
LINE
  8
0
 10
82.8426
 20
-14.2601
 11
82.8996
 21
-14.1723
  0
LINE
  8
0
 10
82.8996
 20
-14.1723
 11
82.9655
 21
-14.091
  0
LINE
  8
0
 10
82.9655
 20
-14.091
 11
83.0395
 21
-14.0169
  0
LINE
  8
0
 10
83.0395
 20
-14.0169
 11
83.1209
 21
-13.9511
  0
LINE
  8
0
 10
83.1209
 20
-13.9511
 11
83.2086
 21
-13.8941
  0
LINE
  8
0
 10
83.2086
 20
-13.8941
 11
83.3019
 21
-13.8465
  0
LINE
  8
0
 10
83.3019
 20
-13.8465
 11
83.3996
 21
-13.809
  0
LINE
  8
0
 10
83.3996
 20
-13.809
 11
83.5007
 21
-13.7819
  0
LINE
  8
0
 10
83.5007
 20
-13.7819
 11
83.6041
 21
-13.7656
  0
LINE
  8
0
 10
83.6041
 20
-13.7656
 11
83.7086
 21
-13.7601
  0
LINE
  8
0
 10
83.7086
 20
-13.7601
 11
83.8132
 21
-13.7656
  0
LINE
  8
0
 10
83.8132
 20
-13.7656
 11
83.9166
 21
-13.7819
  0
LINE
  8
0
 10
83.9166
 20
-13.7819
 11
84.0177
 21
-13.809
  0
LINE
  8
0
 10
84.0177
 20
-13.809
 11
84.1154
 21
-13.8465
  0
LINE
  8
0
 10
84.1154
 20
-13.8465
 11
84.2086
 21
-13.8941
  0
LINE
  8
0
 10
84.2086
 20
-13.8941
 11
84.2964
 21
-13.9511
  0
LINE
  8
0
 10
84.2964
 20
-13.9511
 11
84.3778
 21
-14.0169
  0
LINE
  8
0
 10
84.3778
 20
-14.0169
 11
84.4518
 21
-14.091
  0
LINE
  8
0
 10
84.4518
 20
-14.091
 11
84.5177
 21
-14.1723
  0
LINE
  8
0
 10
84.5177
 20
-14.1723
 11
84.5747
 21
-14.2601
  0
LINE
  8
0
 10
84.5747
 20
-14.2601
 11
84.6222
 21
-14.3533
  0
LINE
  8
0
 10
84.6222
 20
-14.3533
 11
84.6597
 21
-14.4511
  0
LINE
  8
0
 10
84.6597
 20
-14.4511
 11
84.6868
 21
-14.5522
  0
LINE
  8
0
 10
84.6868
 20
-14.5522
 11
84.7032
 21
-14.6556
  0
LINE
  8
0
 10
84.7032
 20
-14.6556
 11
84.7086
 21
-14.7601
  0
LINE
  8
0
 10
84.7086
 20
-14.7601
 11
84.7032
 21
-14.8646
  0
LINE
  8
0
 10
84.7032
 20
-14.8646
 11
84.6868
 21
-14.968
  0
LINE
  8
0
 10
84.6868
 20
-14.968
 11
84.6597
 21
-15.0691
  0
LINE
  8
0
 10
84.6597
 20
-15.0691
 11
84.6222
 21
-15.1668
  0
LINE
  8
0
 10
84.6222
 20
-15.1668
 11
84.5747
 21
-15.2601
  0
LINE
  8
0
 10
84.5747
 20
-15.2601
 11
84.5177
 21
-15.3479
  0
LINE
  8
0
 10
84.5177
 20
-15.3479
 11
84.4518
 21
-15.4292
  0
LINE
  8
0
 10
84.4518
 20
-15.4292
 11
84.3778
 21
-15.5032
  0
LINE
  8
0
 10
84.3778
 20
-15.5032
 11
84.2964
 21
-15.5691
  0
LINE
  8
0
 10
84.2964
 20
-15.5691
 11
84.2086
 21
-15.6261
  0
LINE
  8
0
 10
84.2086
 20
-15.6261
 11
84.1154
 21
-15.6736
  0
LINE
  8
0
 10
84.1154
 20
-15.6736
 11
84.0177
 21
-15.7112
  0
LINE
  8
0
 10
84.0177
 20
-15.7112
 11
83.9166
 21
-15.7382
  0
LINE
  8
0
 10
83.9166
 20
-15.7382
 11
83.8132
 21
-15.7546
  0
LINE
  8
0
 10
83.8132
 20
-15.7546
 11
83.7086
 21
-15.7601
  0
LINE
  8
0
 10
83.7086
 20
-15.7601
 11
83.6041
 21
-15.7546
  0
LINE
  8
0
 10
79.7693
 20
-30.0662
 11
79.666
 21
-30.0499
  0
LINE
  8
0
 10
79.666
 20
-30.0499
 11
79.5648
 21
-30.0228
  0
LINE
  8
0
 10
79.5648
 20
-30.0228
 11
79.4671
 21
-29.9852
  0
LINE
  8
0
 10
79.4671
 20
-29.9852
 11
79.3739
 21
-29.9377
  0
LINE
  8
0
 10
79.3739
 20
-29.9377
 11
79.2861
 21
-29.8807
  0
LINE
  8
0
 10
79.2861
 20
-29.8807
 11
79.2047
 21
-29.8148
  0
LINE
  8
0
 10
79.2047
 20
-29.8148
 11
79.1307
 21
-29.7408
  0
LINE
  8
0
 10
79.1307
 20
-29.7408
 11
79.0648
 21
-29.6595
  0
LINE
  8
0
 10
79.0648
 20
-29.6595
 11
79.0078
 21
-29.5717
  0
LINE
  8
0
 10
79.0078
 20
-29.5717
 11
78.9603
 21
-29.4784
  0
LINE
  8
0
 10
78.9603
 20
-29.4784
 11
78.9228
 21
-29.3807
  0
LINE
  8
0
 10
78.9228
 20
-29.3807
 11
78.8957
 21
-29.2796
  0
LINE
  8
0
 10
78.8957
 20
-29.2796
 11
78.8793
 21
-29.1762
  0
LINE
  8
0
 10
78.8793
 20
-29.1762
 11
78.8739
 21
-29.0717
  0
LINE
  8
0
 10
78.8739
 20
-29.0717
 11
78.8793
 21
-28.9672
  0
LINE
  8
0
 10
78.8793
 20
-28.9672
 11
78.8957
 21
-28.8638
  0
LINE
  8
0
 10
78.8957
 20
-28.8638
 11
78.9228
 21
-28.7627
  0
LINE
  8
0
 10
78.9228
 20
-28.7627
 11
78.9603
 21
-28.665
  0
LINE
  8
0
 10
78.9603
 20
-28.665
 11
79.0078
 21
-28.5717
  0
LINE
  8
0
 10
79.0078
 20
-28.5717
 11
79.0648
 21
-28.4839
  0
LINE
  8
0
 10
79.0648
 20
-28.4839
 11
79.1307
 21
-28.4026
  0
LINE
  8
0
 10
79.1307
 20
-28.4026
 11
79.2047
 21
-28.3286
  0
LINE
  8
0
 10
79.2047
 20
-28.3286
 11
79.2861
 21
-28.2627
  0
LINE
  8
0
 10
79.2861
 20
-28.2627
 11
79.3739
 21
-28.2057
  0
LINE
  8
0
 10
79.3739
 20
-28.2057
 11
79.4671
 21
-28.1582
  0
LINE
  8
0
 10
79.4671
 20
-28.1582
 11
79.5648
 21
-28.1207
  0
LINE
  8
0
 10
79.5648
 20
-28.1207
 11
79.666
 21
-28.0936
  0
LINE
  8
0
 10
79.666
 20
-28.0936
 11
79.7693
 21
-28.0772
  0
LINE
  8
0
 10
79.7693
 20
-28.0772
 11
79.8739
 21
-28.0717
  0
LINE
  8
0
 10
79.8739
 20
-28.0717
 11
79.9784
 21
-28.0772
  0
LINE
  8
0
 10
79.9784
 20
-28.0772
 11
80.0818
 21
-28.0936
  0
LINE
  8
0
 10
80.0818
 20
-28.0936
 11
80.1829
 21
-28.1207
  0
LINE
  8
0
 10
80.1829
 20
-28.1207
 11
80.2806
 21
-28.1582
  0
LINE
  8
0
 10
80.2806
 20
-28.1582
 11
80.3739
 21
-28.2057
  0
LINE
  8
0
 10
80.3739
 20
-28.2057
 11
80.4617
 21
-28.2627
  0
LINE
  8
0
 10
80.4617
 20
-28.2627
 11
80.543
 21
-28.3286
  0
LINE
  8
0
 10
80.543
 20
-28.3286
 11
80.617
 21
-28.4026
  0
LINE
  8
0
 10
80.617
 20
-28.4026
 11
80.6829
 21
-28.4839
  0
LINE
  8
0
 10
80.6829
 20
-28.4839
 11
80.7399
 21
-28.5717
  0
LINE
  8
0
 10
80.7399
 20
-28.5717
 11
80.7874
 21
-28.665
  0
LINE
  8
0
 10
80.7874
 20
-28.665
 11
80.8249
 21
-28.7627
  0
LINE
  8
0
 10
80.8249
 20
-28.7627
 11
80.852
 21
-28.8638
  0
LINE
  8
0
 10
80.852
 20
-28.8638
 11
80.8684
 21
-28.9672
  0
LINE
  8
0
 10
80.8684
 20
-28.9672
 11
80.8739
 21
-29.0717
  0
LINE
  8
0
 10
80.8739
 20
-29.0717
 11
80.8684
 21
-29.1762
  0
LINE
  8
0
 10
80.8684
 20
-29.1762
 11
80.852
 21
-29.2796
  0
LINE
  8
0
 10
80.852
 20
-29.2796
 11
80.8249
 21
-29.3807
  0
LINE
  8
0
 10
80.8249
 20
-29.3807
 11
80.7874
 21
-29.4784
  0
LINE
  8
0
 10
80.7874
 20
-29.4784
 11
80.7399
 21
-29.5717
  0
LINE
  8
0
 10
80.7399
 20
-29.5717
 11
80.6829
 21
-29.6595
  0
LINE
  8
0
 10
80.6829
 20
-29.6595
 11
80.617
 21
-29.7408
  0
LINE
  8
0
 10
80.617
 20
-29.7408
 11
80.543
 21
-29.8148
  0
LINE
  8
0
 10
80.543
 20
-29.8148
 11
80.4617
 21
-29.8807
  0
LINE
  8
0
 10
80.4617
 20
-29.8807
 11
80.3739
 21
-29.9377
  0
LINE
  8
0
 10
80.3739
 20
-29.9377
 11
80.2806
 21
-29.9852
  0
LINE
  8
0
 10
80.2806
 20
-29.9852
 11
80.1829
 21
-30.0228
  0
LINE
  8
0
 10
80.1829
 20
-30.0228
 11
80.0818
 21
-30.0499
  0
LINE
  8
0
 10
80.0818
 20
-30.0499
 11
79.9784
 21
-30.0662
  0
LINE
  8
0
 10
79.9784
 20
-30.0662
 11
79.8739
 21
-30.0717
  0
LINE
  8
0
 10
79.8739
 20
-30.0717
 11
79.7693
 21
-30.0662
  0
LINE
  8
0
 10
-79.9784
 20
-30.0662
 11
-80.0818
 21
-30.0499
  0
LINE
  8
0
 10
-80.0818
 20
-30.0499
 11
-80.1829
 21
-30.0228
  0
LINE
  8
0
 10
-80.1829
 20
-30.0228
 11
-80.2806
 21
-29.9852
  0
LINE
  8
0
 10
-80.2806
 20
-29.9852
 11
-80.3739
 21
-29.9377
  0
LINE
  8
0
 10
-80.3739
 20
-29.9377
 11
-80.4617
 21
-29.8807
  0
LINE
  8
0
 10
-80.4617
 20
-29.8807
 11
-80.543
 21
-29.8148
  0
LINE
  8
0
 10
-80.543
 20
-29.8148
 11
-80.617
 21
-29.7408
  0
LINE
  8
0
 10
-80.617
 20
-29.7408
 11
-80.6829
 21
-29.6595
  0
LINE
  8
0
 10
-80.6829
 20
-29.6595
 11
-80.7399
 21
-29.5717
  0
LINE
  8
0
 10
-80.7399
 20
-29.5717
 11
-80.7874
 21
-29.4784
  0
LINE
  8
0
 10
-80.7874
 20
-29.4784
 11
-80.8249
 21
-29.3807
  0
LINE
  8
0
 10
-80.8249
 20
-29.3807
 11
-80.852
 21
-29.2796
  0
LINE
  8
0
 10
-80.852
 20
-29.2796
 11
-80.8684
 21
-29.1762
  0
LINE
  8
0
 10
-80.8684
 20
-29.1762
 11
-80.8739
 21
-29.0717
  0
LINE
  8
0
 10
-80.8739
 20
-29.0717
 11
-80.8684
 21
-28.9672
  0
LINE
  8
0
 10
-80.8684
 20
-28.9672
 11
-80.852
 21
-28.8638
  0
LINE
  8
0
 10
-80.852
 20
-28.8638
 11
-80.8249
 21
-28.7627
  0
LINE
  8
0
 10
-80.8249
 20
-28.7627
 11
-80.7874
 21
-28.665
  0
LINE
  8
0
 10
-80.7874
 20
-28.665
 11
-80.7399
 21
-28.5717
  0
LINE
  8
0
 10
-80.7399
 20
-28.5717
 11
-80.6829
 21
-28.4839
  0
LINE
  8
0
 10
-80.6829
 20
-28.4839
 11
-80.617
 21
-28.4026
  0
LINE
  8
0
 10
-80.617
 20
-28.4026
 11
-80.543
 21
-28.3286
  0
LINE
  8
0
 10
-80.543
 20
-28.3286
 11
-80.4617
 21
-28.2627
  0
LINE
  8
0
 10
-80.4617
 20
-28.2627
 11
-80.3739
 21
-28.2057
  0
LINE
  8
0
 10
-80.3739
 20
-28.2057
 11
-80.2806
 21
-28.1582
  0
LINE
  8
0
 10
-80.2806
 20
-28.1582
 11
-80.1829
 21
-28.1207
  0
LINE
  8
0
 10
-80.1829
 20
-28.1207
 11
-80.0818
 21
-28.0936
  0
LINE
  8
0
 10
-80.0818
 20
-28.0936
 11
-79.9784
 21
-28.0772
  0
LINE
  8
0
 10
-79.9784
 20
-28.0772
 11
-79.8739
 21
-28.0717
  0
LINE
  8
0
 10
-79.8739
 20
-28.0717
 11
-79.7693
 21
-28.0772
  0
LINE
  8
0
 10
-79.7693
 20
-28.0772
 11
-79.666
 21
-28.0936
  0
LINE
  8
0
 10
-79.666
 20
-28.0936
 11
-79.5648
 21
-28.1207
  0
LINE
  8
0
 10
-79.5648
 20
-28.1207
 11
-79.4671
 21
-28.1582
  0
LINE
  8
0
 10
-79.4671
 20
-28.1582
 11
-79.3739
 21
-28.2057
  0
LINE
  8
0
 10
-79.3739
 20
-28.2057
 11
-79.2861
 21
-28.2627
  0
LINE
  8
0
 10
-79.2861
 20
-28.2627
 11
-79.2047
 21
-28.3286
  0
LINE
  8
0
 10
-79.2047
 20
-28.3286
 11
-79.1307
 21
-28.4026
  0
LINE
  8
0
 10
-79.1307
 20
-28.4026
 11
-79.0648
 21
-28.4839
  0
LINE
  8
0
 10
-79.0648
 20
-28.4839
 11
-79.0078
 21
-28.5717
  0
LINE
  8
0
 10
-79.0078
 20
-28.5717
 11
-78.9603
 21
-28.665
  0
LINE
  8
0
 10
-78.9603
 20
-28.665
 11
-78.9228
 21
-28.7627
  0
LINE
  8
0
 10
-78.9228
 20
-28.7627
 11
-78.8957
 21
-28.8638
  0
LINE
  8
0
 10
-78.8957
 20
-28.8638
 11
-78.8793
 21
-28.9672
  0
LINE
  8
0
 10
-78.8793
 20
-28.9672
 11
-78.8739
 21
-29.0717
  0
LINE
  8
0
 10
-78.8739
 20
-29.0717
 11
-78.8793
 21
-29.1762
  0
LINE
  8
0
 10
-78.8793
 20
-29.1762
 11
-78.8957
 21
-29.2796
  0
LINE
  8
0
 10
-78.8957
 20
-29.2796
 11
-78.9228
 21
-29.3807
  0
LINE
  8
0
 10
-78.9228
 20
-29.3807
 11
-78.9603
 21
-29.4784
  0
LINE
  8
0
 10
-78.9603
 20
-29.4784
 11
-79.0078
 21
-29.5717
  0
LINE
  8
0
 10
-79.0078
 20
-29.5717
 11
-79.0648
 21
-29.6595
  0
LINE
  8
0
 10
-79.0648
 20
-29.6595
 11
-79.1307
 21
-29.7408
  0
LINE
  8
0
 10
-79.1307
 20
-29.7408
 11
-79.2047
 21
-29.8148
  0
LINE
  8
0
 10
-79.2047
 20
-29.8148
 11
-79.2861
 21
-29.8807
  0
LINE
  8
0
 10
-79.2861
 20
-29.8807
 11
-79.3739
 21
-29.9377
  0
LINE
  8
0
 10
-79.3739
 20
-29.9377
 11
-79.4671
 21
-29.9852
  0
LINE
  8
0
 10
-79.4671
 20
-29.9852
 11
-79.5648
 21
-30.0228
  0
LINE
  8
0
 10
-79.5648
 20
-30.0228
 11
-79.666
 21
-30.0499
  0
LINE
  8
0
 10
-79.666
 20
-30.0499
 11
-79.7693
 21
-30.0662
  0
LINE
  8
0
 10
-79.7693
 20
-30.0662
 11
-79.8739
 21
-30.0717
  0
LINE
  8
0
 10
-79.8739
 20
-30.0717
 11
-79.9784
 21
-30.0662
  0
LINE
  8
0
 10
73.5076
 20
-43.4945
 11
73.4042
 21
-43.4781
  0
LINE
  8
0
 10
73.4042
 20
-43.4781
 11
73.3031
 21
-43.451
  0
LINE
  8
0
 10
73.3031
 20
-43.451
 11
73.2054
 21
-43.4135
  0
LINE
  8
0
 10
73.2054
 20
-43.4135
 11
73.1122
 21
-43.366
  0
LINE
  8
0
 10
73.1122
 20
-43.366
 11
73.0244
 21
-43.309
  0
LINE
  8
0
 10
73.0244
 20
-43.309
 11
72.943
 21
-43.2431
  0
LINE
  8
0
 10
72.943
 20
-43.2431
 11
72.869
 21
-43.1691
  0
LINE
  8
0
 10
72.869
 20
-43.1691
 11
72.8031
 21
-43.0878
  0
LINE
  8
0
 10
72.8031
 20
-43.0878
 11
72.7461
 21
-43
  0
LINE
  8
0
 10
72.7461
 20
-43
 11
72.6986
 21
-42.9067
  0
LINE
  8
0
 10
72.6986
 20
-42.9067
 11
72.6611
 21
-42.809
  0
LINE
  8
0
 10
72.6611
 20
-42.809
 11
72.634
 21
-42.7079
  0
LINE
  8
0
 10
72.634
 20
-42.7079
 11
72.6176
 21
-42.6045
  0
LINE
  8
0
 10
72.6176
 20
-42.6045
 11
72.6122
 21
-42.5
  0
LINE
  8
0
 10
72.6122
 20
-42.5
 11
72.6176
 21
-42.3955
  0
LINE
  8
0
 10
72.6176
 20
-42.3955
 11
72.634
 21
-42.2921
  0
LINE
  8
0
 10
72.634
 20
-42.2921
 11
72.6611
 21
-42.191
  0
LINE
  8
0
 10
72.6611
 20
-42.191
 11
72.6986
 21
-42.0933
  0
LINE
  8
0
 10
72.6986
 20
-42.0933
 11
72.7461
 21
-42
  0
LINE
  8
0
 10
72.7461
 20
-42
 11
72.8031
 21
-41.9122
  0
LINE
  8
0
 10
72.8031
 20
-41.9122
 11
72.869
 21
-41.8309
  0
LINE
  8
0
 10
72.869
 20
-41.8309
 11
72.943
 21
-41.7569
  0
LINE
  8
0
 10
72.943
 20
-41.7569
 11
73.0244
 21
-41.691
  0
LINE
  8
0
 10
73.0244
 20
-41.691
 11
73.1122
 21
-41.634
  0
LINE
  8
0
 10
73.1122
 20
-41.634
 11
73.2054
 21
-41.5864
  0
LINE
  8
0
 10
73.2054
 20
-41.5864
 11
73.3031
 21
-41.5489
  0
LINE
  8
0
 10
73.3031
 20
-41.5489
 11
73.4042
 21
-41.5219
  0
LINE
  8
0
 10
73.4042
 20
-41.5219
 11
73.5076
 21
-41.5055
  0
LINE
  8
0
 10
73.5076
 20
-41.5055
 11
73.6122
 21
-41.5
  0
LINE
  8
0
 10
73.6122
 20
-41.5
 11
73.7167
 21
-41.5055
  0
LINE
  8
0
 10
73.7167
 20
-41.5055
 11
73.8201
 21
-41.5219
  0
LINE
  8
0
 10
73.8201
 20
-41.5219
 11
73.9212
 21
-41.5489
  0
LINE
  8
0
 10
73.9212
 20
-41.5489
 11
74.0189
 21
-41.5864
  0
LINE
  8
0
 10
74.0189
 20
-41.5864
 11
74.1122
 21
-41.634
  0
LINE
  8
0
 10
74.1122
 20
-41.634
 11
74.1999
 21
-41.691
  0
LINE
  8
0
 10
74.1999
 20
-41.691
 11
74.2813
 21
-41.7569
  0
LINE
  8
0
 10
74.2813
 20
-41.7569
 11
74.3553
 21
-41.8309
  0
LINE
  8
0
 10
74.3553
 20
-41.8309
 11
74.4212
 21
-41.9122
  0
LINE
  8
0
 10
74.4212
 20
-41.9122
 11
74.4782
 21
-42
  0
LINE
  8
0
 10
74.4782
 20
-42
 11
74.5257
 21
-42.0933
  0
LINE
  8
0
 10
74.5257
 20
-42.0933
 11
74.5632
 21
-42.191
  0
LINE
  8
0
 10
74.5632
 20
-42.191
 11
74.5903
 21
-42.2921
  0
LINE
  8
0
 10
74.5903
 20
-42.2921
 11
74.6067
 21
-42.3955
  0
LINE
  8
0
 10
74.6067
 20
-42.3955
 11
74.6122
 21
-42.5
  0
LINE
  8
0
 10
74.6122
 20
-42.5
 11
74.6067
 21
-42.6045
  0
LINE
  8
0
 10
74.6067
 20
-42.6045
 11
74.5903
 21
-42.7079
  0
LINE
  8
0
 10
74.5903
 20
-42.7079
 11
74.5632
 21
-42.809
  0
LINE
  8
0
 10
74.5632
 20
-42.809
 11
74.5257
 21
-42.9067
  0
LINE
  8
0
 10
74.5257
 20
-42.9067
 11
74.4782
 21
-43
  0
LINE
  8
0
 10
74.4782
 20
-43
 11
74.4212
 21
-43.0878
  0
LINE
  8
0
 10
74.4212
 20
-43.0878
 11
74.3553
 21
-43.1691
  0
LINE
  8
0
 10
74.3553
 20
-43.1691
 11
74.2813
 21
-43.2431
  0
LINE
  8
0
 10
74.2813
 20
-43.2431
 11
74.1999
 21
-43.309
  0
LINE
  8
0
 10
74.1999
 20
-43.309
 11
74.1122
 21
-43.366
  0
LINE
  8
0
 10
74.1122
 20
-43.366
 11
74.0189
 21
-43.4135
  0
LINE
  8
0
 10
74.0189
 20
-43.4135
 11
73.9212
 21
-43.451
  0
LINE
  8
0
 10
73.9212
 20
-43.451
 11
73.8201
 21
-43.4781
  0
LINE
  8
0
 10
73.8201
 20
-43.4781
 11
73.7167
 21
-43.4945
  0
LINE
  8
0
 10
73.7167
 20
-43.4945
 11
73.6122
 21
-43.5
  0
LINE
  8
0
 10
73.6122
 20
-43.5
 11
73.5076
 21
-43.4945
  0
LINE
  8
0
 10
-73.7167
 20
-43.4945
 11
-73.8201
 21
-43.4781
  0
LINE
  8
0
 10
-73.8201
 20
-43.4781
 11
-73.9212
 21
-43.451
  0
LINE
  8
0
 10
-73.9212
 20
-43.451
 11
-74.0189
 21
-43.4135
  0
LINE
  8
0
 10
-74.0189
 20
-43.4135
 11
-74.1122
 21
-43.366
  0
LINE
  8
0
 10
-74.1122
 20
-43.366
 11
-74.1999
 21
-43.309
  0
LINE
  8
0
 10
-74.1999
 20
-43.309
 11
-74.2813
 21
-43.2431
  0
LINE
  8
0
 10
-74.2813
 20
-43.2431
 11
-74.3553
 21
-43.1691
  0
LINE
  8
0
 10
-74.3553
 20
-43.1691
 11
-74.4212
 21
-43.0878
  0
LINE
  8
0
 10
-74.4212
 20
-43.0878
 11
-74.4782
 21
-43
  0
LINE
  8
0
 10
-74.4782
 20
-43
 11
-74.5257
 21
-42.9067
  0
LINE
  8
0
 10
-74.5257
 20
-42.9067
 11
-74.5632
 21
-42.809
  0
LINE
  8
0
 10
-74.5632
 20
-42.809
 11
-74.5903
 21
-42.7079
  0
LINE
  8
0
 10
-74.5903
 20
-42.7079
 11
-74.6067
 21
-42.6045
  0
LINE
  8
0
 10
-74.6067
 20
-42.6045
 11
-74.6122
 21
-42.5
  0
LINE
  8
0
 10
-74.6122
 20
-42.5
 11
-74.6067
 21
-42.3955
  0
LINE
  8
0
 10
-74.6067
 20
-42.3955
 11
-74.5903
 21
-42.2921
  0
LINE
  8
0
 10
-74.5903
 20
-42.2921
 11
-74.5632
 21
-42.191
  0
LINE
  8
0
 10
-74.5632
 20
-42.191
 11
-74.5257
 21
-42.0933
  0
LINE
  8
0
 10
-74.5257
 20
-42.0933
 11
-74.4782
 21
-42
  0
LINE
  8
0
 10
-74.4782
 20
-42
 11
-74.4212
 21
-41.9122
  0
LINE
  8
0
 10
-74.4212
 20
-41.9122
 11
-74.3553
 21
-41.8309
  0
LINE
  8
0
 10
-74.3553
 20
-41.8309
 11
-74.2813
 21
-41.7569
  0
LINE
  8
0
 10
-74.2813
 20
-41.7569
 11
-74.1999
 21
-41.691
  0
LINE
  8
0
 10
-74.1999
 20
-41.691
 11
-74.1122
 21
-41.634
  0
LINE
  8
0
 10
-74.1122
 20
-41.634
 11
-74.0189
 21
-41.5864
  0
LINE
  8
0
 10
-74.0189
 20
-41.5864
 11
-73.9212
 21
-41.5489
  0
LINE
  8
0
 10
-73.9212
 20
-41.5489
 11
-73.8201
 21
-41.5219
  0
LINE
  8
0
 10
-73.8201
 20
-41.5219
 11
-73.7167
 21
-41.5055
  0
LINE
  8
0
 10
-73.7167
 20
-41.5055
 11
-73.6122
 21
-41.5
  0
LINE
  8
0
 10
-73.6122
 20
-41.5
 11
-73.5076
 21
-41.5055
  0
LINE
  8
0
 10
-73.5076
 20
-41.5055
 11
-73.4042
 21
-41.5219
  0
LINE
  8
0
 10
-73.4042
 20
-41.5219
 11
-73.3031
 21
-41.5489
  0
LINE
  8
0
 10
-73.3031
 20
-41.5489
 11
-73.2054
 21
-41.5864
  0
LINE
  8
0
 10
-73.2054
 20
-41.5864
 11
-73.1122
 21
-41.634
  0
LINE
  8
0
 10
-73.1122
 20
-41.634
 11
-73.0244
 21
-41.691
  0
LINE
  8
0
 10
-73.0244
 20
-41.691
 11
-72.943
 21
-41.7569
  0
LINE
  8
0
 10
-72.943
 20
-41.7569
 11
-72.869
 21
-41.8309
  0
LINE
  8
0
 10
-72.869
 20
-41.8309
 11
-72.8031
 21
-41.9122
  0
LINE
  8
0
 10
-72.8031
 20
-41.9122
 11
-72.7461
 21
-42
  0
LINE
  8
0
 10
-72.7461
 20
-42
 11
-72.6986
 21
-42.0933
  0
LINE
  8
0
 10
-72.6986
 20
-42.0933
 11
-72.6611
 21
-42.191
  0
LINE
  8
0
 10
-72.6611
 20
-42.191
 11
-72.634
 21
-42.2921
  0
LINE
  8
0
 10
-72.634
 20
-42.2921
 11
-72.6176
 21
-42.3955
  0
LINE
  8
0
 10
-72.6176
 20
-42.3955
 11
-72.6122
 21
-42.5
  0
LINE
  8
0
 10
-72.6122
 20
-42.5
 11
-72.6176
 21
-42.6045
  0
LINE
  8
0
 10
-72.6176
 20
-42.6045
 11
-72.634
 21
-42.7079
  0
LINE
  8
0
 10
-72.634
 20
-42.7079
 11
-72.6611
 21
-42.809
  0
LINE
  8
0
 10
-72.6611
 20
-42.809
 11
-72.6986
 21
-42.9067
  0
LINE
  8
0
 10
-72.6986
 20
-42.9067
 11
-72.7461
 21
-43
  0
LINE
  8
0
 10
-72.7461
 20
-43
 11
-72.8031
 21
-43.0878
  0
LINE
  8
0
 10
-72.8031
 20
-43.0878
 11
-72.869
 21
-43.1691
  0
LINE
  8
0
 10
-72.869
 20
-43.1691
 11
-72.943
 21
-43.2431
  0
LINE
  8
0
 10
-72.943
 20
-43.2431
 11
-73.0244
 21
-43.309
  0
LINE
  8
0
 10
-73.0244
 20
-43.309
 11
-73.1122
 21
-43.366
  0
LINE
  8
0
 10
-73.1122
 20
-43.366
 11
-73.2054
 21
-43.4135
  0
LINE
  8
0
 10
-73.2054
 20
-43.4135
 11
-73.3031
 21
-43.451
  0
LINE
  8
0
 10
-73.3031
 20
-43.451
 11
-73.4042
 21
-43.4781
  0
LINE
  8
0
 10
-73.4042
 20
-43.4781
 11
-73.5076
 21
-43.4945
  0
LINE
  8
0
 10
-73.5076
 20
-43.4945
 11
-73.6122
 21
-43.5
  0
LINE
  8
0
 10
-73.6122
 20
-43.5
 11
-73.7167
 21
-43.4945
  0
LINE
  8
0
 10
65.0092
 20
-55.6315
 11
64.9059
 21
-55.6151
  0
LINE
  8
0
 10
64.9059
 20
-55.6151
 11
64.8047
 21
-55.588
  0
LINE
  8
0
 10
64.8047
 20
-55.588
 11
64.707
 21
-55.5505
  0
LINE
  8
0
 10
64.707
 20
-55.5505
 11
64.6138
 21
-55.503
  0
LINE
  8
0
 10
64.6138
 20
-55.503
 11
64.526
 21
-55.446
  0
LINE
  8
0
 10
64.526
 20
-55.446
 11
64.4446
 21
-55.3801
  0
LINE
  8
0
 10
64.4446
 20
-55.3801
 11
64.3706
 21
-55.3061
  0
LINE
  8
0
 10
64.3706
 20
-55.3061
 11
64.3047
 21
-55.2247
  0
LINE
  8
0
 10
64.3047
 20
-55.2247
 11
64.2477
 21
-55.1369
  0
LINE
  8
0
 10
64.2477
 20
-55.1369
 11
64.2002
 21
-55.0437
  0
LINE
  8
0
 10
64.2002
 20
-55.0437
 11
64.1627
 21
-54.946
  0
LINE
  8
0
 10
64.1627
 20
-54.946
 11
64.1356
 21
-54.8448
  0
LINE
  8
0
 10
64.1356
 20
-54.8448
 11
64.1192
 21
-54.7415
  0
LINE
  8
0
 10
64.1192
 20
-54.7415
 11
64.1138
 21
-54.6369
  0
LINE
  8
0
 10
64.1138
 20
-54.6369
 11
64.1192
 21
-54.5324
  0
LINE
  8
0
 10
64.1192
 20
-54.5324
 11
64.1356
 21
-54.429
  0
LINE
  8
0
 10
64.1356
 20
-54.429
 11
64.1627
 21
-54.3279
  0
LINE
  8
0
 10
64.1627
 20
-54.3279
 11
64.2002
 21
-54.2302
  0
LINE
  8
0
 10
64.2002
 20
-54.2302
 11
64.2477
 21
-54.1369
  0
LINE
  8
0
 10
64.2477
 20
-54.1369
 11
64.3047
 21
-54.0491
  0
LINE
  8
0
 10
64.3047
 20
-54.0491
 11
64.3706
 21
-53.9678
  0
LINE
  8
0
 10
64.3706
 20
-53.9678
 11
64.4446
 21
-53.8938
  0
LINE
  8
0
 10
64.4446
 20
-53.8938
 11
64.526
 21
-53.8279
  0
LINE
  8
0
 10
64.526
 20
-53.8279
 11
64.6138
 21
-53.7709
  0
LINE
  8
0
 10
64.6138
 20
-53.7709
 11
64.707
 21
-53.7234
  0
LINE
  8
0
 10
64.707
 20
-53.7234
 11
64.8047
 21
-53.6859
  0
LINE
  8
0
 10
64.8047
 20
-53.6859
 11
64.9059
 21
-53.6588
  0
LINE
  8
0
 10
64.9059
 20
-53.6588
 11
65.0092
 21
-53.6424
  0
LINE
  8
0
 10
65.0092
 20
-53.6424
 11
65.1138
 21
-53.6369
  0
LINE
  8
0
 10
65.1138
 20
-53.6369
 11
65.2183
 21
-53.6424
  0
LINE
  8
0
 10
65.2183
 20
-53.6424
 11
65.3217
 21
-53.6588
  0
LINE
  8
0
 10
65.3217
 20
-53.6588
 11
65.4228
 21
-53.6859
  0
LINE
  8
0
 10
65.4228
 20
-53.6859
 11
65.5205
 21
-53.7234
  0
LINE
  8
0
 10
65.5205
 20
-53.7234
 11
65.6138
 21
-53.7709
  0
LINE
  8
0
 10
65.6138
 20
-53.7709
 11
65.7016
 21
-53.8279
  0
LINE
  8
0
 10
65.7016
 20
-53.8279
 11
65.7829
 21
-53.8938
  0
LINE
  8
0
 10
65.7829
 20
-53.8938
 11
65.8569
 21
-53.9678
  0
LINE
  8
0
 10
65.8569
 20
-53.9678
 11
65.9228
 21
-54.0491
  0
LINE
  8
0
 10
65.9228
 20
-54.0491
 11
65.9798
 21
-54.1369
  0
LINE
  8
0
 10
65.9798
 20
-54.1369
 11
66.0273
 21
-54.2302
  0
LINE
  8
0
 10
66.0273
 20
-54.2302
 11
66.0648
 21
-54.3279
  0
LINE
  8
0
 10
66.0648
 20
-54.3279
 11
66.0919
 21
-54.429
  0
LINE
  8
0
 10
66.0919
 20
-54.429
 11
66.1083
 21
-54.5324
  0
LINE
  8
0
 10
66.1083
 20
-54.5324
 11
66.1138
 21
-54.6369
  0
LINE
  8
0
 10
66.1138
 20
-54.6369
 11
66.1083
 21
-54.7415
  0
LINE
  8
0
 10
66.1083
 20
-54.7415
 11
66.0919
 21
-54.8448
  0
LINE
  8
0
 10
66.0919
 20
-54.8448
 11
66.0648
 21
-54.946
  0
LINE
  8
0
 10
66.0648
 20
-54.946
 11
66.0273
 21
-55.0437
  0
LINE
  8
0
 10
66.0273
 20
-55.0437
 11
65.9798
 21
-55.1369
  0
LINE
  8
0
 10
65.9798
 20
-55.1369
 11
65.9228
 21
-55.2247
  0
LINE
  8
0
 10
65.9228
 20
-55.2247
 11
65.8569
 21
-55.3061
  0
LINE
  8
0
 10
65.8569
 20
-55.3061
 11
65.7829
 21
-55.3801
  0
LINE
  8
0
 10
65.7829
 20
-55.3801
 11
65.7016
 21
-55.446
  0
LINE
  8
0
 10
65.7016
 20
-55.446
 11
65.6138
 21
-55.503
  0
LINE
  8
0
 10
65.6138
 20
-55.503
 11
65.5205
 21
-55.5505
  0
LINE
  8
0
 10
65.5205
 20
-55.5505
 11
65.4228
 21
-55.588
  0
LINE
  8
0
 10
65.4228
 20
-55.588
 11
65.3217
 21
-55.6151
  0
LINE
  8
0
 10
65.3217
 20
-55.6151
 11
65.2183
 21
-55.6315
  0
LINE
  8
0
 10
65.2183
 20
-55.6315
 11
65.1138
 21
-55.6369
  0
LINE
  8
0
 10
65.1138
 20
-55.6369
 11
65.0092
 21
-55.6315
  0
LINE
  8
0
 10
-65.2183
 20
-55.6315
 11
-65.3217
 21
-55.6151
  0
LINE
  8
0
 10
-65.3217
 20
-55.6151
 11
-65.4228
 21
-55.588
  0
LINE
  8
0
 10
-65.4228
 20
-55.588
 11
-65.5205
 21
-55.5505
  0
LINE
  8
0
 10
-65.5205
 20
-55.5505
 11
-65.6138
 21
-55.503
  0
LINE
  8
0
 10
-65.6138
 20
-55.503
 11
-65.7016
 21
-55.446
  0
LINE
  8
0
 10
-65.7016
 20
-55.446
 11
-65.7829
 21
-55.3801
  0
LINE
  8
0
 10
-65.7829
 20
-55.3801
 11
-65.8569
 21
-55.3061
  0
LINE
  8
0
 10
-65.8569
 20
-55.3061
 11
-65.9228
 21
-55.2247
  0
LINE
  8
0
 10
-65.9228
 20
-55.2247
 11
-65.9798
 21
-55.1369
  0
LINE
  8
0
 10
-65.9798
 20
-55.1369
 11
-66.0273
 21
-55.0437
  0
LINE
  8
0
 10
-66.0273
 20
-55.0437
 11
-66.0648
 21
-54.946
  0
LINE
  8
0
 10
-66.0648
 20
-54.946
 11
-66.0919
 21
-54.8448
  0
LINE
  8
0
 10
-66.0919
 20
-54.8448
 11
-66.1083
 21
-54.7415
  0
LINE
  8
0
 10
-66.1083
 20
-54.7415
 11
-66.1138
 21
-54.6369
  0
LINE
  8
0
 10
-66.1138
 20
-54.6369
 11
-66.1083
 21
-54.5324
  0
LINE
  8
0
 10
-66.1083
 20
-54.5324
 11
-66.0919
 21
-54.429
  0
LINE
  8
0
 10
-66.0919
 20
-54.429
 11
-66.0648
 21
-54.3279
  0
LINE
  8
0
 10
-66.0648
 20
-54.3279
 11
-66.0273
 21
-54.2302
  0
LINE
  8
0
 10
-66.0273
 20
-54.2302
 11
-65.9798
 21
-54.1369
  0
LINE
  8
0
 10
-65.9798
 20
-54.1369
 11
-65.9228
 21
-54.0491
  0
LINE
  8
0
 10
-65.9228
 20
-54.0491
 11
-65.8569
 21
-53.9678
  0
LINE
  8
0
 10
-65.8569
 20
-53.9678
 11
-65.7829
 21
-53.8938
  0
LINE
  8
0
 10
-65.7829
 20
-53.8938
 11
-65.7016
 21
-53.8279
  0
LINE
  8
0
 10
-65.7016
 20
-53.8279
 11
-65.6138
 21
-53.7709
  0
LINE
  8
0
 10
-65.6138
 20
-53.7709
 11
-65.5205
 21
-53.7234
  0
LINE
  8
0
 10
-65.5205
 20
-53.7234
 11
-65.4228
 21
-53.6859
  0
LINE
  8
0
 10
-65.4228
 20
-53.6859
 11
-65.3217
 21
-53.6588
  0
LINE
  8
0
 10
-65.3217
 20
-53.6588
 11
-65.2183
 21
-53.6424
  0
LINE
  8
0
 10
-65.2183
 20
-53.6424
 11
-65.1138
 21
-53.6369
  0
LINE
  8
0
 10
-65.1138
 20
-53.6369
 11
-65.0092
 21
-53.6424
  0
LINE
  8
0
 10
-65.0092
 20
-53.6424
 11
-64.9059
 21
-53.6588
  0
LINE
  8
0
 10
-64.9059
 20
-53.6588
 11
-64.8047
 21
-53.6859
  0
LINE
  8
0
 10
-64.8047
 20
-53.6859
 11
-64.707
 21
-53.7234
  0
LINE
  8
0
 10
-64.707
 20
-53.7234
 11
-64.6138
 21
-53.7709
  0
LINE
  8
0
 10
-64.6138
 20
-53.7709
 11
-64.526
 21
-53.8279
  0
LINE
  8
0
 10
-64.526
 20
-53.8279
 11
-64.4446
 21
-53.8938
  0
LINE
  8
0
 10
-64.4446
 20
-53.8938
 11
-64.3706
 21
-53.9678
  0
LINE
  8
0
 10
-64.3706
 20
-53.9678
 11
-64.3047
 21
-54.0491
  0
LINE
  8
0
 10
-64.3047
 20
-54.0491
 11
-64.2477
 21
-54.1369
  0
LINE
  8
0
 10
-64.2477
 20
-54.1369
 11
-64.2002
 21
-54.2302
  0
LINE
  8
0
 10
-64.2002
 20
-54.2302
 11
-64.1627
 21
-54.3279
  0
LINE
  8
0
 10
-64.1627
 20
-54.3279
 11
-64.1356
 21
-54.429
  0
LINE
  8
0
 10
-64.1356
 20
-54.429
 11
-64.1192
 21
-54.5324
  0
LINE
  8
0
 10
-64.1192
 20
-54.5324
 11
-64.1138
 21
-54.6369
  0
LINE
  8
0
 10
-64.1138
 20
-54.6369
 11
-64.1192
 21
-54.7415
  0
LINE
  8
0
 10
-64.1192
 20
-54.7415
 11
-64.1356
 21
-54.8448
  0
LINE
  8
0
 10
-64.1356
 20
-54.8448
 11
-64.1627
 21
-54.946
  0
LINE
  8
0
 10
-64.1627
 20
-54.946
 11
-64.2002
 21
-55.0437
  0
LINE
  8
0
 10
-64.2002
 20
-55.0437
 11
-64.2477
 21
-55.1369
  0
LINE
  8
0
 10
-64.2477
 20
-55.1369
 11
-64.3047
 21
-55.2247
  0
LINE
  8
0
 10
-64.3047
 20
-55.2247
 11
-64.3706
 21
-55.3061
  0
LINE
  8
0
 10
-64.3706
 20
-55.3061
 11
-64.4446
 21
-55.3801
  0
LINE
  8
0
 10
-64.4446
 20
-55.3801
 11
-64.526
 21
-55.446
  0
LINE
  8
0
 10
-64.526
 20
-55.446
 11
-64.6138
 21
-55.503
  0
LINE
  8
0
 10
-64.6138
 20
-55.503
 11
-64.707
 21
-55.5505
  0
LINE
  8
0
 10
-64.707
 20
-55.5505
 11
-64.8047
 21
-55.588
  0
LINE
  8
0
 10
-64.8047
 20
-55.588
 11
-64.9059
 21
-55.6151
  0
LINE
  8
0
 10
-64.9059
 20
-55.6151
 11
-65.0092
 21
-55.6315
  0
LINE
  8
0
 10
-65.0092
 20
-55.6315
 11
-65.1138
 21
-55.6369
  0
LINE
  8
0
 10
-65.1138
 20
-55.6369
 11
-65.2183
 21
-55.6315
  0
LINE
  8
0
 10
-54.7415
 20
-66.1083
 11
-54.8448
 21
-66.0919
  0
LINE
  8
0
 10
-54.8448
 20
-66.0919
 11
-54.946
 21
-66.0648
  0
LINE
  8
0
 10
-54.946
 20
-66.0648
 11
-55.0437
 21
-66.0273
  0
LINE
  8
0
 10
-55.0437
 20
-66.0273
 11
-55.1369
 21
-65.9798
  0
LINE
  8
0
 10
-55.1369
 20
-65.9798
 11
-55.2247
 21
-65.9228
  0
LINE
  8
0
 10
-55.2247
 20
-65.9228
 11
-55.3061
 21
-65.8569
  0
LINE
  8
0
 10
-55.3061
 20
-65.8569
 11
-55.3801
 21
-65.7829
  0
LINE
  8
0
 10
-55.3801
 20
-65.7829
 11
-55.446
 21
-65.7016
  0
LINE
  8
0
 10
-55.446
 20
-65.7016
 11
-55.503
 21
-65.6138
  0
LINE
  8
0
 10
-55.503
 20
-65.6138
 11
-55.5505
 21
-65.5205
  0
LINE
  8
0
 10
-55.5505
 20
-65.5205
 11
-55.588
 21
-65.4228
  0
LINE
  8
0
 10
-55.588
 20
-65.4228
 11
-55.6151
 21
-65.3217
  0
LINE
  8
0
 10
-55.6151
 20
-65.3217
 11
-55.6315
 21
-65.2183
  0
LINE
  8
0
 10
-55.6315
 20
-65.2183
 11
-55.6369
 21
-65.1138
  0
LINE
  8
0
 10
-55.6369
 20
-65.1138
 11
-55.6315
 21
-65.0092
  0
LINE
  8
0
 10
-55.6315
 20
-65.0092
 11
-55.6151
 21
-64.9059
  0
LINE
  8
0
 10
-55.6151
 20
-64.9059
 11
-55.588
 21
-64.8047
  0
LINE
  8
0
 10
-55.588
 20
-64.8047
 11
-55.5505
 21
-64.707
  0
LINE
  8
0
 10
-55.5505
 20
-64.707
 11
-55.503
 21
-64.6138
  0
LINE
  8
0
 10
-55.503
 20
-64.6138
 11
-55.446
 21
-64.526
  0
LINE
  8
0
 10
-55.446
 20
-64.526
 11
-55.3801
 21
-64.4446
  0
LINE
  8
0
 10
-55.3801
 20
-64.4446
 11
-55.3061
 21
-64.3706
  0
LINE
  8
0
 10
-55.3061
 20
-64.3706
 11
-55.2247
 21
-64.3047
  0
LINE
  8
0
 10
-55.2247
 20
-64.3047
 11
-55.1369
 21
-64.2477
  0
LINE
  8
0
 10
-55.1369
 20
-64.2477
 11
-55.0437
 21
-64.2002
  0
LINE
  8
0
 10
-55.0437
 20
-64.2002
 11
-54.946
 21
-64.1627
  0
LINE
  8
0
 10
-54.946
 20
-64.1627
 11
-54.8448
 21
-64.1356
  0
LINE
  8
0
 10
-54.8448
 20
-64.1356
 11
-54.7415
 21
-64.1192
  0
LINE
  8
0
 10
-54.7415
 20
-64.1192
 11
-54.6369
 21
-64.1138
  0
LINE
  8
0
 10
-54.6369
 20
-64.1138
 11
-54.5324
 21
-64.1192
  0
LINE
  8
0
 10
-54.5324
 20
-64.1192
 11
-54.429
 21
-64.1356
  0
LINE
  8
0
 10
-54.429
 20
-64.1356
 11
-54.3279
 21
-64.1627
  0
LINE
  8
0
 10
-54.3279
 20
-64.1627
 11
-54.2302
 21
-64.2002
  0
LINE
  8
0
 10
-54.2302
 20
-64.2002
 11
-54.1369
 21
-64.2477
  0
LINE
  8
0
 10
-54.1369
 20
-64.2477
 11
-54.0491
 21
-64.3047
  0
LINE
  8
0
 10
-54.0491
 20
-64.3047
 11
-53.9678
 21
-64.3706
  0
LINE
  8
0
 10
-53.9678
 20
-64.3706
 11
-53.8938
 21
-64.4446
  0
LINE
  8
0
 10
-53.8938
 20
-64.4446
 11
-53.8279
 21
-64.526
  0
LINE
  8
0
 10
-53.8279
 20
-64.526
 11
-53.7709
 21
-64.6138
  0
LINE
  8
0
 10
-53.7709
 20
-64.6138
 11
-53.7234
 21
-64.707
  0
LINE
  8
0
 10
-53.7234
 20
-64.707
 11
-53.6859
 21
-64.8047
  0
LINE
  8
0
 10
-53.6859
 20
-64.8047
 11
-53.6588
 21
-64.9059
  0
LINE
  8
0
 10
-53.6588
 20
-64.9059
 11
-53.6424
 21
-65.0092
  0
LINE
  8
0
 10
-53.6424
 20
-65.0092
 11
-53.6369
 21
-65.1138
  0
LINE
  8
0
 10
-53.6369
 20
-65.1138
 11
-53.6424
 21
-65.2183
  0
LINE
  8
0
 10
-53.6424
 20
-65.2183
 11
-53.6588
 21
-65.3217
  0
LINE
  8
0
 10
-53.6588
 20
-65.3217
 11
-53.6859
 21
-65.4228
  0
LINE
  8
0
 10
-53.6859
 20
-65.4228
 11
-53.7234
 21
-65.5205
  0
LINE
  8
0
 10
-53.7234
 20
-65.5205
 11
-53.7709
 21
-65.6138
  0
LINE
  8
0
 10
-53.7709
 20
-65.6138
 11
-53.8279
 21
-65.7016
  0
LINE
  8
0
 10
-53.8279
 20
-65.7016
 11
-53.8938
 21
-65.7829
  0
LINE
  8
0
 10
-53.8938
 20
-65.7829
 11
-53.9678
 21
-65.8569
  0
LINE
  8
0
 10
-53.9678
 20
-65.8569
 11
-54.0491
 21
-65.9228
  0
LINE
  8
0
 10
-54.0491
 20
-65.9228
 11
-54.1369
 21
-65.9798
  0
LINE
  8
0
 10
-54.1369
 20
-65.9798
 11
-54.2302
 21
-66.0273
  0
LINE
  8
0
 10
-54.2302
 20
-66.0273
 11
-54.3279
 21
-66.0648
  0
LINE
  8
0
 10
-54.3279
 20
-66.0648
 11
-54.429
 21
-66.0919
  0
LINE
  8
0
 10
-54.429
 20
-66.0919
 11
-54.5324
 21
-66.1083
  0
LINE
  8
0
 10
-54.5324
 20
-66.1083
 11
-54.6369
 21
-66.1138
  0
LINE
  8
0
 10
-54.6369
 20
-66.1138
 11
-54.7415
 21
-66.1083
  0
LINE
  8
0
 10
54.5324
 20
-66.1083
 11
54.429
 21
-66.0919
  0
LINE
  8
0
 10
54.429
 20
-66.0919
 11
54.3279
 21
-66.0648
  0
LINE
  8
0
 10
54.3279
 20
-66.0648
 11
54.2302
 21
-66.0273
  0
LINE
  8
0
 10
54.2302
 20
-66.0273
 11
54.1369
 21
-65.9798
  0
LINE
  8
0
 10
54.1369
 20
-65.9798
 11
54.0491
 21
-65.9228
  0
LINE
  8
0
 10
54.0491
 20
-65.9228
 11
53.9678
 21
-65.8569
  0
LINE
  8
0
 10
53.9678
 20
-65.8569
 11
53.8938
 21
-65.7829
  0
LINE
  8
0
 10
53.8938
 20
-65.7829
 11
53.8279
 21
-65.7016
  0
LINE
  8
0
 10
53.8279
 20
-65.7016
 11
53.7709
 21
-65.6138
  0
LINE
  8
0
 10
53.7709
 20
-65.6138
 11
53.7234
 21
-65.5205
  0
LINE
  8
0
 10
53.7234
 20
-65.5205
 11
53.6859
 21
-65.4228
  0
LINE
  8
0
 10
53.6859
 20
-65.4228
 11
53.6588
 21
-65.3217
  0
LINE
  8
0
 10
53.6588
 20
-65.3217
 11
53.6424
 21
-65.2183
  0
LINE
  8
0
 10
53.6424
 20
-65.2183
 11
53.6369
 21
-65.1138
  0
LINE
  8
0
 10
53.6369
 20
-65.1138
 11
53.6424
 21
-65.0092
  0
LINE
  8
0
 10
53.6424
 20
-65.0092
 11
53.6588
 21
-64.9059
  0
LINE
  8
0
 10
53.6588
 20
-64.9059
 11
53.6859
 21
-64.8047
  0
LINE
  8
0
 10
53.6859
 20
-64.8047
 11
53.7234
 21
-64.707
  0
LINE
  8
0
 10
53.7234
 20
-64.707
 11
53.7709
 21
-64.6138
  0
LINE
  8
0
 10
53.7709
 20
-64.6138
 11
53.8279
 21
-64.526
  0
LINE
  8
0
 10
53.8279
 20
-64.526
 11
53.8938
 21
-64.4446
  0
LINE
  8
0
 10
53.8938
 20
-64.4446
 11
53.9678
 21
-64.3706
  0
LINE
  8
0
 10
53.9678
 20
-64.3706
 11
54.0491
 21
-64.3047
  0
LINE
  8
0
 10
54.0491
 20
-64.3047
 11
54.1369
 21
-64.2477
  0
LINE
  8
0
 10
54.1369
 20
-64.2477
 11
54.2302
 21
-64.2002
  0
LINE
  8
0
 10
54.2302
 20
-64.2002
 11
54.3279
 21
-64.1627
  0
LINE
  8
0
 10
54.3279
 20
-64.1627
 11
54.429
 21
-64.1356
  0
LINE
  8
0
 10
54.429
 20
-64.1356
 11
54.5324
 21
-64.1192
  0
LINE
  8
0
 10
54.5324
 20
-64.1192
 11
54.6369
 21
-64.1138
  0
LINE
  8
0
 10
54.6369
 20
-64.1138
 11
54.7415
 21
-64.1192
  0
LINE
  8
0
 10
54.7415
 20
-64.1192
 11
54.8448
 21
-64.1356
  0
LINE
  8
0
 10
54.8448
 20
-64.1356
 11
54.946
 21
-64.1627
  0
LINE
  8
0
 10
54.946
 20
-64.1627
 11
55.0437
 21
-64.2002
  0
LINE
  8
0
 10
55.0437
 20
-64.2002
 11
55.1369
 21
-64.2477
  0
LINE
  8
0
 10
55.1369
 20
-64.2477
 11
55.2247
 21
-64.3047
  0
LINE
  8
0
 10
55.2247
 20
-64.3047
 11
55.3061
 21
-64.3706
  0
LINE
  8
0
 10
55.3061
 20
-64.3706
 11
55.3801
 21
-64.4446
  0
LINE
  8
0
 10
55.3801
 20
-64.4446
 11
55.446
 21
-64.526
  0
LINE
  8
0
 10
55.446
 20
-64.526
 11
55.503
 21
-64.6138
  0
LINE
  8
0
 10
55.503
 20
-64.6138
 11
55.5505
 21
-64.707
  0
LINE
  8
0
 10
55.5505
 20
-64.707
 11
55.588
 21
-64.8047
  0
LINE
  8
0
 10
55.588
 20
-64.8047
 11
55.6151
 21
-64.9059
  0
LINE
  8
0
 10
55.6151
 20
-64.9059
 11
55.6315
 21
-65.0092
  0
LINE
  8
0
 10
55.6315
 20
-65.0092
 11
55.6369
 21
-65.1138
  0
LINE
  8
0
 10
55.6369
 20
-65.1138
 11
55.6315
 21
-65.2183
  0
LINE
  8
0
 10
55.6315
 20
-65.2183
 11
55.6151
 21
-65.3217
  0
LINE
  8
0
 10
55.6151
 20
-65.3217
 11
55.588
 21
-65.4228
  0
LINE
  8
0
 10
55.588
 20
-65.4228
 11
55.5505
 21
-65.5205
  0
LINE
  8
0
 10
55.5505
 20
-65.5205
 11
55.503
 21
-65.6138
  0
LINE
  8
0
 10
55.503
 20
-65.6138
 11
55.446
 21
-65.7016
  0
LINE
  8
0
 10
55.446
 20
-65.7016
 11
55.3801
 21
-65.7829
  0
LINE
  8
0
 10
55.3801
 20
-65.7829
 11
55.3061
 21
-65.8569
  0
LINE
  8
0
 10
55.3061
 20
-65.8569
 11
55.2247
 21
-65.9228
  0
LINE
  8
0
 10
55.2247
 20
-65.9228
 11
55.1369
 21
-65.9798
  0
LINE
  8
0
 10
55.1369
 20
-65.9798
 11
55.0437
 21
-66.0273
  0
LINE
  8
0
 10
55.0437
 20
-66.0273
 11
54.946
 21
-66.0648
  0
LINE
  8
0
 10
54.946
 20
-66.0648
 11
54.8448
 21
-66.0919
  0
LINE
  8
0
 10
54.8448
 20
-66.0919
 11
54.7415
 21
-66.1083
  0
LINE
  8
0
 10
54.7415
 20
-66.1083
 11
54.6369
 21
-66.1138
  0
LINE
  8
0
 10
54.6369
 20
-66.1138
 11
54.5324
 21
-66.1083
  0
LINE
  8
0
 10
-42.6045
 20
-74.6067
 11
-42.7079
 21
-74.5903
  0
LINE
  8
0
 10
-42.7079
 20
-74.5903
 11
-42.809
 21
-74.5632
  0
LINE
  8
0
 10
-42.809
 20
-74.5632
 11
-42.9067
 21
-74.5257
  0
LINE
  8
0
 10
-42.9067
 20
-74.5257
 11
-43
 21
-74.4782
  0
LINE
  8
0
 10
-43
 20
-74.4782
 11
-43.0878
 21
-74.4212
  0
LINE
  8
0
 10
-43.0878
 20
-74.4212
 11
-43.1691
 21
-74.3553
  0
LINE
  8
0
 10
-43.1691
 20
-74.3553
 11
-43.2431
 21
-74.2813
  0
LINE
  8
0
 10
-43.2431
 20
-74.2813
 11
-43.309
 21
-74.1999
  0
LINE
  8
0
 10
-43.309
 20
-74.1999
 11
-43.366
 21
-74.1122
  0
LINE
  8
0
 10
-43.366
 20
-74.1122
 11
-43.4135
 21
-74.0189
  0
LINE
  8
0
 10
-43.4135
 20
-74.0189
 11
-43.451
 21
-73.9212
  0
LINE
  8
0
 10
-43.451
 20
-73.9212
 11
-43.4781
 21
-73.8201
  0
LINE
  8
0
 10
-43.4781
 20
-73.8201
 11
-43.4945
 21
-73.7167
  0
LINE
  8
0
 10
-43.4945
 20
-73.7167
 11
-43.5
 21
-73.6122
  0
LINE
  8
0
 10
-43.5
 20
-73.6122
 11
-43.4945
 21
-73.5076
  0
LINE
  8
0
 10
-43.4945
 20
-73.5076
 11
-43.4781
 21
-73.4042
  0
LINE
  8
0
 10
-43.4781
 20
-73.4042
 11
-43.451
 21
-73.3031
  0
LINE
  8
0
 10
-43.451
 20
-73.3031
 11
-43.4135
 21
-73.2054
  0
LINE
  8
0
 10
-43.4135
 20
-73.2054
 11
-43.366
 21
-73.1122
  0
LINE
  8
0
 10
-43.366
 20
-73.1122
 11
-43.309
 21
-73.0244
  0
LINE
  8
0
 10
-43.309
 20
-73.0244
 11
-43.2431
 21
-72.943
  0
LINE
  8
0
 10
-43.2431
 20
-72.943
 11
-43.1691
 21
-72.869
  0
LINE
  8
0
 10
-43.1691
 20
-72.869
 11
-43.0878
 21
-72.8031
  0
LINE
  8
0
 10
-43.0878
 20
-72.8031
 11
-43
 21
-72.7461
  0
LINE
  8
0
 10
-43
 20
-72.7461
 11
-42.9067
 21
-72.6986
  0
LINE
  8
0
 10
-42.9067
 20
-72.6986
 11
-42.809
 21
-72.6611
  0
LINE
  8
0
 10
-42.809
 20
-72.6611
 11
-42.7079
 21
-72.634
  0
LINE
  8
0
 10
-42.7079
 20
-72.634
 11
-42.6045
 21
-72.6176
  0
LINE
  8
0
 10
-42.6045
 20
-72.6176
 11
-42.5
 21
-72.6122
  0
LINE
  8
0
 10
-42.5
 20
-72.6122
 11
-42.3955
 21
-72.6176
  0
LINE
  8
0
 10
-42.3955
 20
-72.6176
 11
-42.2921
 21
-72.634
  0
LINE
  8
0
 10
-42.2921
 20
-72.634
 11
-42.191
 21
-72.6611
  0
LINE
  8
0
 10
-42.191
 20
-72.6611
 11
-42.0933
 21
-72.6986
  0
LINE
  8
0
 10
-42.0933
 20
-72.6986
 11
-42
 21
-72.7461
  0
LINE
  8
0
 10
-42
 20
-72.7461
 11
-41.9122
 21
-72.8031
  0
LINE
  8
0
 10
-41.9122
 20
-72.8031
 11
-41.8309
 21
-72.869
  0
LINE
  8
0
 10
-41.8309
 20
-72.869
 11
-41.7569
 21
-72.943
  0
LINE
  8
0
 10
-41.7569
 20
-72.943
 11
-41.691
 21
-73.0244
  0
LINE
  8
0
 10
-41.691
 20
-73.0244
 11
-41.634
 21
-73.1122
  0
LINE
  8
0
 10
-41.634
 20
-73.1122
 11
-41.5864
 21
-73.2054
  0
LINE
  8
0
 10
-41.5864
 20
-73.2054
 11
-41.5489
 21
-73.3031
  0
LINE
  8
0
 10
-41.5489
 20
-73.3031
 11
-41.5219
 21
-73.4042
  0
LINE
  8
0
 10
-41.5219
 20
-73.4042
 11
-41.5055
 21
-73.5076
  0
LINE
  8
0
 10
-41.5055
 20
-73.5076
 11
-41.5
 21
-73.6122
  0
LINE
  8
0
 10
-41.5
 20
-73.6122
 11
-41.5055
 21
-73.7167
  0
LINE
  8
0
 10
-41.5055
 20
-73.7167
 11
-41.5219
 21
-73.8201
  0
LINE
  8
0
 10
-41.5219
 20
-73.8201
 11
-41.5489
 21
-73.9212
  0
LINE
  8
0
 10
-41.5489
 20
-73.9212
 11
-41.5864
 21
-74.0189
  0
LINE
  8
0
 10
-41.5864
 20
-74.0189
 11
-41.634
 21
-74.1122
  0
LINE
  8
0
 10
-41.634
 20
-74.1122
 11
-41.691
 21
-74.1999
  0
LINE
  8
0
 10
-41.691
 20
-74.1999
 11
-41.7569
 21
-74.2813
  0
LINE
  8
0
 10
-41.7569
 20
-74.2813
 11
-41.8309
 21
-74.3553
  0
LINE
  8
0
 10
-41.8309
 20
-74.3553
 11
-41.9122
 21
-74.4212
  0
LINE
  8
0
 10
-41.9122
 20
-74.4212
 11
-42
 21
-74.4782
  0
LINE
  8
0
 10
-42
 20
-74.4782
 11
-42.0933
 21
-74.5257
  0
LINE
  8
0
 10
-42.0933
 20
-74.5257
 11
-42.191
 21
-74.5632
  0
LINE
  8
0
 10
-42.191
 20
-74.5632
 11
-42.2921
 21
-74.5903
  0
LINE
  8
0
 10
-42.2921
 20
-74.5903
 11
-42.3955
 21
-74.6067
  0
LINE
  8
0
 10
-42.3955
 20
-74.6067
 11
-42.5
 21
-74.6122
  0
LINE
  8
0
 10
-42.5
 20
-74.6122
 11
-42.6045
 21
-74.6067
  0
LINE
  8
0
 10
42.3955
 20
-74.6067
 11
42.2921
 21
-74.5903
  0
LINE
  8
0
 10
42.2921
 20
-74.5903
 11
42.191
 21
-74.5632
  0
LINE
  8
0
 10
42.191
 20
-74.5632
 11
42.0933
 21
-74.5257
  0
LINE
  8
0
 10
42.0933
 20
-74.5257
 11
42
 21
-74.4782
  0
LINE
  8
0
 10
42
 20
-74.4782
 11
41.9122
 21
-74.4212
  0
LINE
  8
0
 10
41.9122
 20
-74.4212
 11
41.8309
 21
-74.3553
  0
LINE
  8
0
 10
41.8309
 20
-74.3553
 11
41.7569
 21
-74.2813
  0
LINE
  8
0
 10
41.7569
 20
-74.2813
 11
41.691
 21
-74.1999
  0
LINE
  8
0
 10
41.691
 20
-74.1999
 11
41.634
 21
-74.1122
  0
LINE
  8
0
 10
41.634
 20
-74.1122
 11
41.5864
 21
-74.0189
  0
LINE
  8
0
 10
41.5864
 20
-74.0189
 11
41.5489
 21
-73.9212
  0
LINE
  8
0
 10
41.5489
 20
-73.9212
 11
41.5219
 21
-73.8201
  0
LINE
  8
0
 10
41.5219
 20
-73.8201
 11
41.5055
 21
-73.7167
  0
LINE
  8
0
 10
41.5055
 20
-73.7167
 11
41.5
 21
-73.6122
  0
LINE
  8
0
 10
41.5
 20
-73.6122
 11
41.5055
 21
-73.5076
  0
LINE
  8
0
 10
41.5055
 20
-73.5076
 11
41.5219
 21
-73.4042
  0
LINE
  8
0
 10
41.5219
 20
-73.4042
 11
41.5489
 21
-73.3031
  0
LINE
  8
0
 10
41.5489
 20
-73.3031
 11
41.5864
 21
-73.2054
  0
LINE
  8
0
 10
41.5864
 20
-73.2054
 11
41.634
 21
-73.1122
  0
LINE
  8
0
 10
41.634
 20
-73.1122
 11
41.691
 21
-73.0244
  0
LINE
  8
0
 10
41.691
 20
-73.0244
 11
41.7569
 21
-72.943
  0
LINE
  8
0
 10
41.7569
 20
-72.943
 11
41.8309
 21
-72.869
  0
LINE
  8
0
 10
41.8309
 20
-72.869
 11
41.9122
 21
-72.8031
  0
LINE
  8
0
 10
41.9122
 20
-72.8031
 11
42
 21
-72.7461
  0
LINE
  8
0
 10
42
 20
-72.7461
 11
42.0933
 21
-72.6986
  0
LINE
  8
0
 10
42.0933
 20
-72.6986
 11
42.191
 21
-72.6611
  0
LINE
  8
0
 10
42.191
 20
-72.6611
 11
42.2921
 21
-72.634
  0
LINE
  8
0
 10
42.2921
 20
-72.634
 11
42.3955
 21
-72.6176
  0
LINE
  8
0
 10
42.3955
 20
-72.6176
 11
42.5
 21
-72.6122
  0
LINE
  8
0
 10
42.5
 20
-72.6122
 11
42.6045
 21
-72.6176
  0
LINE
  8
0
 10
42.6045
 20
-72.6176
 11
42.7079
 21
-72.634
  0
LINE
  8
0
 10
42.7079
 20
-72.634
 11
42.809
 21
-72.6611
  0
LINE
  8
0
 10
42.809
 20
-72.6611
 11
42.9067
 21
-72.6986
  0
LINE
  8
0
 10
42.9067
 20
-72.6986
 11
43
 21
-72.7461
  0
LINE
  8
0
 10
43
 20
-72.7461
 11
43.0878
 21
-72.8031
  0
LINE
  8
0
 10
43.0878
 20
-72.8031
 11
43.1691
 21
-72.869
  0
LINE
  8
0
 10
43.1691
 20
-72.869
 11
43.2431
 21
-72.943
  0
LINE
  8
0
 10
43.2431
 20
-72.943
 11
43.309
 21
-73.0244
  0
LINE
  8
0
 10
43.309
 20
-73.0244
 11
43.366
 21
-73.1122
  0
LINE
  8
0
 10
43.366
 20
-73.1122
 11
43.4135
 21
-73.2054
  0
LINE
  8
0
 10
43.4135
 20
-73.2054
 11
43.451
 21
-73.3031
  0
LINE
  8
0
 10
43.451
 20
-73.3031
 11
43.4781
 21
-73.4042
  0
LINE
  8
0
 10
43.4781
 20
-73.4042
 11
43.4945
 21
-73.5076
  0
LINE
  8
0
 10
43.4945
 20
-73.5076
 11
43.5
 21
-73.6122
  0
LINE
  8
0
 10
43.5
 20
-73.6122
 11
43.4945
 21
-73.7167
  0
LINE
  8
0
 10
43.4945
 20
-73.7167
 11
43.4781
 21
-73.8201
  0
LINE
  8
0
 10
43.4781
 20
-73.8201
 11
43.451
 21
-73.9212
  0
LINE
  8
0
 10
43.451
 20
-73.9212
 11
43.4135
 21
-74.0189
  0
LINE
  8
0
 10
43.4135
 20
-74.0189
 11
43.366
 21
-74.1122
  0
LINE
  8
0
 10
43.366
 20
-74.1122
 11
43.309
 21
-74.1999
  0
LINE
  8
0
 10
43.309
 20
-74.1999
 11
43.2431
 21
-74.2813
  0
LINE
  8
0
 10
43.2431
 20
-74.2813
 11
43.1691
 21
-74.3553
  0
LINE
  8
0
 10
43.1691
 20
-74.3553
 11
43.0878
 21
-74.4212
  0
LINE
  8
0
 10
43.0878
 20
-74.4212
 11
43
 21
-74.4782
  0
LINE
  8
0
 10
43
 20
-74.4782
 11
42.9067
 21
-74.5257
  0
LINE
  8
0
 10
42.9067
 20
-74.5257
 11
42.809
 21
-74.5632
  0
LINE
  8
0
 10
42.809
 20
-74.5632
 11
42.7079
 21
-74.5903
  0
LINE
  8
0
 10
42.7079
 20
-74.5903
 11
42.6045
 21
-74.6067
  0
LINE
  8
0
 10
42.6045
 20
-74.6067
 11
42.5
 21
-74.6122
  0
LINE
  8
0
 10
42.5
 20
-74.6122
 11
42.3955
 21
-74.6067
  0
LINE
  8
0
 10
-29.1762
 20
-80.8684
 11
-29.2796
 21
-80.852
  0
LINE
  8
0
 10
-29.2796
 20
-80.852
 11
-29.3807
 21
-80.8249
  0
LINE
  8
0
 10
-29.3807
 20
-80.8249
 11
-29.4784
 21
-80.7874
  0
LINE
  8
0
 10
-29.4784
 20
-80.7874
 11
-29.5717
 21
-80.7399
  0
LINE
  8
0
 10
-29.5717
 20
-80.7399
 11
-29.6595
 21
-80.6829
  0
LINE
  8
0
 10
-29.6595
 20
-80.6829
 11
-29.7408
 21
-80.617
  0
LINE
  8
0
 10
-29.7408
 20
-80.617
 11
-29.8148
 21
-80.543
  0
LINE
  8
0
 10
-29.8148
 20
-80.543
 11
-29.8807
 21
-80.4617
  0
LINE
  8
0
 10
-29.8807
 20
-80.4617
 11
-29.9377
 21
-80.3739
  0
LINE
  8
0
 10
-29.9377
 20
-80.3739
 11
-29.9852
 21
-80.2806
  0
LINE
  8
0
 10
-29.9852
 20
-80.2806
 11
-30.0228
 21
-80.1829
  0
LINE
  8
0
 10
-30.0228
 20
-80.1829
 11
-30.0499
 21
-80.0818
  0
LINE
  8
0
 10
-30.0499
 20
-80.0818
 11
-30.0662
 21
-79.9784
  0
LINE
  8
0
 10
-30.0662
 20
-79.9784
 11
-30.0717
 21
-79.8739
  0
LINE
  8
0
 10
-30.0717
 20
-79.8739
 11
-30.0662
 21
-79.7693
  0
LINE
  8
0
 10
-30.0662
 20
-79.7693
 11
-30.0499
 21
-79.666
  0
LINE
  8
0
 10
-30.0499
 20
-79.666
 11
-30.0228
 21
-79.5648
  0
LINE
  8
0
 10
-30.0228
 20
-79.5648
 11
-29.9852
 21
-79.4671
  0
LINE
  8
0
 10
-29.9852
 20
-79.4671
 11
-29.9377
 21
-79.3739
  0
LINE
  8
0
 10
-29.9377
 20
-79.3739
 11
-29.8807
 21
-79.2861
  0
LINE
  8
0
 10
-29.8807
 20
-79.2861
 11
-29.8148
 21
-79.2047
  0
LINE
  8
0
 10
-29.8148
 20
-79.2047
 11
-29.7408
 21
-79.1307
  0
LINE
  8
0
 10
-29.7408
 20
-79.1307
 11
-29.6595
 21
-79.0648
  0
LINE
  8
0
 10
-29.6595
 20
-79.0648
 11
-29.5717
 21
-79.0078
  0
LINE
  8
0
 10
-29.5717
 20
-79.0078
 11
-29.4784
 21
-78.9603
  0
LINE
  8
0
 10
-29.4784
 20
-78.9603
 11
-29.3807
 21
-78.9228
  0
LINE
  8
0
 10
-29.3807
 20
-78.9228
 11
-29.2796
 21
-78.8957
  0
LINE
  8
0
 10
-29.2796
 20
-78.8957
 11
-29.1762
 21
-78.8793
  0
LINE
  8
0
 10
-29.1762
 20
-78.8793
 11
-29.0717
 21
-78.8739
  0
LINE
  8
0
 10
-29.0717
 20
-78.8739
 11
-28.9672
 21
-78.8793
  0
LINE
  8
0
 10
-28.9672
 20
-78.8793
 11
-28.8638
 21
-78.8957
  0
LINE
  8
0
 10
-28.8638
 20
-78.8957
 11
-28.7627
 21
-78.9228
  0
LINE
  8
0
 10
-28.7627
 20
-78.9228
 11
-28.665
 21
-78.9603
  0
LINE
  8
0
 10
-28.665
 20
-78.9603
 11
-28.5717
 21
-79.0078
  0
LINE
  8
0
 10
-28.5717
 20
-79.0078
 11
-28.4839
 21
-79.0648
  0
LINE
  8
0
 10
-28.4839
 20
-79.0648
 11
-28.4026
 21
-79.1307
  0
LINE
  8
0
 10
-28.4026
 20
-79.1307
 11
-28.3286
 21
-79.2047
  0
LINE
  8
0
 10
-28.3286
 20
-79.2047
 11
-28.2627
 21
-79.2861
  0
LINE
  8
0
 10
-28.2627
 20
-79.2861
 11
-28.2057
 21
-79.3739
  0
LINE
  8
0
 10
-28.2057
 20
-79.3739
 11
-28.1582
 21
-79.4671
  0
LINE
  8
0
 10
-28.1582
 20
-79.4671
 11
-28.1207
 21
-79.5648
  0
LINE
  8
0
 10
-28.1207
 20
-79.5648
 11
-28.0936
 21
-79.666
  0
LINE
  8
0
 10
-28.0936
 20
-79.666
 11
-28.0772
 21
-79.7693
  0
LINE
  8
0
 10
-28.0772
 20
-79.7693
 11
-28.0717
 21
-79.8739
  0
LINE
  8
0
 10
-28.0717
 20
-79.8739
 11
-28.0772
 21
-79.9784
  0
LINE
  8
0
 10
-28.0772
 20
-79.9784
 11
-28.0936
 21
-80.0818
  0
LINE
  8
0
 10
-28.0936
 20
-80.0818
 11
-28.1207
 21
-80.1829
  0
LINE
  8
0
 10
-28.1207
 20
-80.1829
 11
-28.1582
 21
-80.2806
  0
LINE
  8
0
 10
-28.1582
 20
-80.2806
 11
-28.2057
 21
-80.3739
  0
LINE
  8
0
 10
-28.2057
 20
-80.3739
 11
-28.2627
 21
-80.4617
  0
LINE
  8
0
 10
-28.2627
 20
-80.4617
 11
-28.3286
 21
-80.543
  0
LINE
  8
0
 10
-28.3286
 20
-80.543
 11
-28.4026
 21
-80.617
  0
LINE
  8
0
 10
-28.4026
 20
-80.617
 11
-28.4839
 21
-80.6829
  0
LINE
  8
0
 10
-28.4839
 20
-80.6829
 11
-28.5717
 21
-80.7399
  0
LINE
  8
0
 10
-28.5717
 20
-80.7399
 11
-28.665
 21
-80.7874
  0
LINE
  8
0
 10
-28.665
 20
-80.7874
 11
-28.7627
 21
-80.8249
  0
LINE
  8
0
 10
-28.7627
 20
-80.8249
 11
-28.8638
 21
-80.852
  0
LINE
  8
0
 10
-28.8638
 20
-80.852
 11
-28.9672
 21
-80.8684
  0
LINE
  8
0
 10
-28.9672
 20
-80.8684
 11
-29.0717
 21
-80.8739
  0
LINE
  8
0
 10
-29.0717
 20
-80.8739
 11
-29.1762
 21
-80.8684
  0
LINE
  8
0
 10
28.9672
 20
-80.8684
 11
28.8638
 21
-80.852
  0
LINE
  8
0
 10
28.8638
 20
-80.852
 11
28.7627
 21
-80.8249
  0
LINE
  8
0
 10
28.7627
 20
-80.8249
 11
28.665
 21
-80.7874
  0
LINE
  8
0
 10
28.665
 20
-80.7874
 11
28.5717
 21
-80.7399
  0
LINE
  8
0
 10
28.5717
 20
-80.7399
 11
28.4839
 21
-80.6829
  0
LINE
  8
0
 10
28.4839
 20
-80.6829
 11
28.4026
 21
-80.617
  0
LINE
  8
0
 10
28.4026
 20
-80.617
 11
28.3286
 21
-80.543
  0
LINE
  8
0
 10
28.3286
 20
-80.543
 11
28.2627
 21
-80.4617
  0
LINE
  8
0
 10
28.2627
 20
-80.4617
 11
28.2057
 21
-80.3739
  0
LINE
  8
0
 10
28.2057
 20
-80.3739
 11
28.1582
 21
-80.2806
  0
LINE
  8
0
 10
28.1582
 20
-80.2806
 11
28.1207
 21
-80.1829
  0
LINE
  8
0
 10
28.1207
 20
-80.1829
 11
28.0936
 21
-80.0818
  0
LINE
  8
0
 10
28.0936
 20
-80.0818
 11
28.0772
 21
-79.9784
  0
LINE
  8
0
 10
28.0772
 20
-79.9784
 11
28.0717
 21
-79.8739
  0
LINE
  8
0
 10
28.0717
 20
-79.8739
 11
28.0772
 21
-79.7693
  0
LINE
  8
0
 10
28.0772
 20
-79.7693
 11
28.0936
 21
-79.666
  0
LINE
  8
0
 10
28.0936
 20
-79.666
 11
28.1207
 21
-79.5648
  0
LINE
  8
0
 10
28.1207
 20
-79.5648
 11
28.1582
 21
-79.4671
  0
LINE
  8
0
 10
28.1582
 20
-79.4671
 11
28.2057
 21
-79.3739
  0
LINE
  8
0
 10
28.2057
 20
-79.3739
 11
28.2627
 21
-79.2861
  0
LINE
  8
0
 10
28.2627
 20
-79.2861
 11
28.3286
 21
-79.2047
  0
LINE
  8
0
 10
28.3286
 20
-79.2047
 11
28.4026
 21
-79.1307
  0
LINE
  8
0
 10
28.4026
 20
-79.1307
 11
28.4839
 21
-79.0648
  0
LINE
  8
0
 10
28.4839
 20
-79.0648
 11
28.5717
 21
-79.0078
  0
LINE
  8
0
 10
28.5717
 20
-79.0078
 11
28.665
 21
-78.9603
  0
LINE
  8
0
 10
28.665
 20
-78.9603
 11
28.7627
 21
-78.9228
  0
LINE
  8
0
 10
28.7627
 20
-78.9228
 11
28.8638
 21
-78.8957
  0
LINE
  8
0
 10
28.8638
 20
-78.8957
 11
28.9672
 21
-78.8793
  0
LINE
  8
0
 10
28.9672
 20
-78.8793
 11
29.0717
 21
-78.8739
  0
LINE
  8
0
 10
29.0717
 20
-78.8739
 11
29.1762
 21
-78.8793
  0
LINE
  8
0
 10
29.1762
 20
-78.8793
 11
29.2796
 21
-78.8957
  0
LINE
  8
0
 10
29.2796
 20
-78.8957
 11
29.3807
 21
-78.9228
  0
LINE
  8
0
 10
29.3807
 20
-78.9228
 11
29.4784
 21
-78.9603
  0
LINE
  8
0
 10
29.4784
 20
-78.9603
 11
29.5717
 21
-79.0078
  0
LINE
  8
0
 10
29.5717
 20
-79.0078
 11
29.6595
 21
-79.0648
  0
LINE
  8
0
 10
29.6595
 20
-79.0648
 11
29.7408
 21
-79.1307
  0
LINE
  8
0
 10
29.7408
 20
-79.1307
 11
29.8148
 21
-79.2047
  0
LINE
  8
0
 10
29.8148
 20
-79.2047
 11
29.8807
 21
-79.2861
  0
LINE
  8
0
 10
29.8807
 20
-79.2861
 11
29.9377
 21
-79.3739
  0
LINE
  8
0
 10
29.9377
 20
-79.3739
 11
29.9852
 21
-79.4671
  0
LINE
  8
0
 10
29.9852
 20
-79.4671
 11
30.0228
 21
-79.5648
  0
LINE
  8
0
 10
30.0228
 20
-79.5648
 11
30.0499
 21
-79.666
  0
LINE
  8
0
 10
30.0499
 20
-79.666
 11
30.0662
 21
-79.7693
  0
LINE
  8
0
 10
30.0662
 20
-79.7693
 11
30.0717
 21
-79.8739
  0
LINE
  8
0
 10
30.0717
 20
-79.8739
 11
30.0662
 21
-79.9784
  0
LINE
  8
0
 10
30.0662
 20
-79.9784
 11
30.0499
 21
-80.0818
  0
LINE
  8
0
 10
30.0499
 20
-80.0818
 11
30.0228
 21
-80.1829
  0
LINE
  8
0
 10
30.0228
 20
-80.1829
 11
29.9852
 21
-80.2806
  0
LINE
  8
0
 10
29.9852
 20
-80.2806
 11
29.9377
 21
-80.3739
  0
LINE
  8
0
 10
29.9377
 20
-80.3739
 11
29.8807
 21
-80.4617
  0
LINE
  8
0
 10
29.8807
 20
-80.4617
 11
29.8148
 21
-80.543
  0
LINE
  8
0
 10
29.8148
 20
-80.543
 11
29.7408
 21
-80.617
  0
LINE
  8
0
 10
29.7408
 20
-80.617
 11
29.6595
 21
-80.6829
  0
LINE
  8
0
 10
29.6595
 20
-80.6829
 11
29.5717
 21
-80.7399
  0
LINE
  8
0
 10
29.5717
 20
-80.7399
 11
29.4784
 21
-80.7874
  0
LINE
  8
0
 10
29.4784
 20
-80.7874
 11
29.3807
 21
-80.8249
  0
LINE
  8
0
 10
29.3807
 20
-80.8249
 11
29.2796
 21
-80.852
  0
LINE
  8
0
 10
29.2796
 20
-80.852
 11
29.1762
 21
-80.8684
  0
LINE
  8
0
 10
29.1762
 20
-80.8684
 11
29.0717
 21
-80.8739
  0
LINE
  8
0
 10
29.0717
 20
-80.8739
 11
28.9672
 21
-80.8684
  0
LINE
  8
0
 10
-14.8646
 20
-84.7032
 11
-14.968
 21
-84.6868
  0
LINE
  8
0
 10
-14.968
 20
-84.6868
 11
-15.0691
 21
-84.6597
  0
LINE
  8
0
 10
-15.0691
 20
-84.6597
 11
-15.1668
 21
-84.6222
  0
LINE
  8
0
 10
-15.1668
 20
-84.6222
 11
-15.2601
 21
-84.5747
  0
LINE
  8
0
 10
-15.2601
 20
-84.5747
 11
-15.3479
 21
-84.5177
  0
LINE
  8
0
 10
-15.3479
 20
-84.5177
 11
-15.4292
 21
-84.4518
  0
LINE
  8
0
 10
-15.4292
 20
-84.4518
 11
-15.5032
 21
-84.3778
  0
LINE
  8
0
 10
-15.5032
 20
-84.3778
 11
-15.5691
 21
-84.2964
  0
LINE
  8
0
 10
-15.5691
 20
-84.2964
 11
-15.6261
 21
-84.2086
  0
LINE
  8
0
 10
-15.6261
 20
-84.2086
 11
-15.6736
 21
-84.1154
  0
LINE
  8
0
 10
-15.6736
 20
-84.1154
 11
-15.7112
 21
-84.0177
  0
LINE
  8
0
 10
-15.7112
 20
-84.0177
 11
-15.7382
 21
-83.9166
  0
LINE
  8
0
 10
-15.7382
 20
-83.9166
 11
-15.7546
 21
-83.8132
  0
LINE
  8
0
 10
-15.7546
 20
-83.8132
 11
-15.7601
 21
-83.7086
  0
LINE
  8
0
 10
-15.7601
 20
-83.7086
 11
-15.7546
 21
-83.6041
  0
LINE
  8
0
 10
-15.7546
 20
-83.6041
 11
-15.7382
 21
-83.5007
  0
LINE
  8
0
 10
-15.7382
 20
-83.5007
 11
-15.7112
 21
-83.3996
  0
LINE
  8
0
 10
-15.7112
 20
-83.3996
 11
-15.6736
 21
-83.3019
  0
LINE
  8
0
 10
-15.6736
 20
-83.3019
 11
-15.6261
 21
-83.2086
  0
LINE
  8
0
 10
-15.6261
 20
-83.2086
 11
-15.5691
 21
-83.1209
  0
LINE
  8
0
 10
-15.5691
 20
-83.1209
 11
-15.5032
 21
-83.0395
  0
LINE
  8
0
 10
-15.5032
 20
-83.0395
 11
-15.4292
 21
-82.9655
  0
LINE
  8
0
 10
-15.4292
 20
-82.9655
 11
-15.3479
 21
-82.8996
  0
LINE
  8
0
 10
-15.3479
 20
-82.8996
 11
-15.2601
 21
-82.8426
  0
LINE
  8
0
 10
-15.2601
 20
-82.8426
 11
-15.1668
 21
-82.7951
  0
LINE
  8
0
 10
-15.1668
 20
-82.7951
 11
-15.0691
 21
-82.7576
  0
LINE
  8
0
 10
-15.0691
 20
-82.7576
 11
-14.968
 21
-82.7305
  0
LINE
  8
0
 10
-14.968
 20
-82.7305
 11
-14.8646
 21
-82.7141
  0
LINE
  8
0
 10
-14.8646
 20
-82.7141
 11
-14.7601
 21
-82.7086
  0
LINE
  8
0
 10
-14.7601
 20
-82.7086
 11
-14.6556
 21
-82.7141
  0
LINE
  8
0
 10
-14.6556
 20
-82.7141
 11
-14.5522
 21
-82.7305
  0
LINE
  8
0
 10
-14.5522
 20
-82.7305
 11
-14.4511
 21
-82.7576
  0
LINE
  8
0
 10
-14.4511
 20
-82.7576
 11
-14.3533
 21
-82.7951
  0
LINE
  8
0
 10
-14.3533
 20
-82.7951
 11
-14.2601
 21
-82.8426
  0
LINE
  8
0
 10
-14.2601
 20
-82.8426
 11
-14.1723
 21
-82.8996
  0
LINE
  8
0
 10
-14.1723
 20
-82.8996
 11
-14.091
 21
-82.9655
  0
LINE
  8
0
 10
-14.091
 20
-82.9655
 11
-14.0169
 21
-83.0395
  0
LINE
  8
0
 10
-14.0169
 20
-83.0395
 11
-13.9511
 21
-83.1209
  0
LINE
  8
0
 10
-13.9511
 20
-83.1209
 11
-13.8941
 21
-83.2086
  0
LINE
  8
0
 10
-13.8941
 20
-83.2086
 11
-13.8465
 21
-83.3019
  0
LINE
  8
0
 10
-13.8465
 20
-83.3019
 11
-13.809
 21
-83.3996
  0
LINE
  8
0
 10
-13.809
 20
-83.3996
 11
-13.7819
 21
-83.5007
  0
LINE
  8
0
 10
-13.7819
 20
-83.5007
 11
-13.7656
 21
-83.6041
  0
LINE
  8
0
 10
-13.7656
 20
-83.6041
 11
-13.7601
 21
-83.7086
  0
LINE
  8
0
 10
-13.7601
 20
-83.7086
 11
-13.7656
 21
-83.8132
  0
LINE
  8
0
 10
-13.7656
 20
-83.8132
 11
-13.7819
 21
-83.9166
  0
LINE
  8
0
 10
-13.7819
 20
-83.9166
 11
-13.809
 21
-84.0177
  0
LINE
  8
0
 10
-13.809
 20
-84.0177
 11
-13.8465
 21
-84.1154
  0
LINE
  8
0
 10
-13.8465
 20
-84.1154
 11
-13.8941
 21
-84.2086
  0
LINE
  8
0
 10
-13.8941
 20
-84.2086
 11
-13.9511
 21
-84.2964
  0
LINE
  8
0
 10
-13.9511
 20
-84.2964
 11
-14.0169
 21
-84.3778
  0
LINE
  8
0
 10
-14.0169
 20
-84.3778
 11
-14.091
 21
-84.4518
  0
LINE
  8
0
 10
-14.091
 20
-84.4518
 11
-14.1723
 21
-84.5177
  0
LINE
  8
0
 10
-14.1723
 20
-84.5177
 11
-14.2601
 21
-84.5747
  0
LINE
  8
0
 10
-14.2601
 20
-84.5747
 11
-14.3533
 21
-84.6222
  0
LINE
  8
0
 10
-14.3533
 20
-84.6222
 11
-14.4511
 21
-84.6597
  0
LINE
  8
0
 10
-14.4511
 20
-84.6597
 11
-14.5522
 21
-84.6868
  0
LINE
  8
0
 10
-14.5522
 20
-84.6868
 11
-14.6556
 21
-84.7032
  0
LINE
  8
0
 10
-14.6556
 20
-84.7032
 11
-14.7601
 21
-84.7086
  0
LINE
  8
0
 10
-14.7601
 20
-84.7086
 11
-14.8646
 21
-84.7032
  0
LINE
  8
0
 10
14.6556
 20
-84.7032
 11
14.5522
 21
-84.6868
  0
LINE
  8
0
 10
14.5522
 20
-84.6868
 11
14.4511
 21
-84.6597
  0
LINE
  8
0
 10
14.4511
 20
-84.6597
 11
14.3533
 21
-84.6222
  0
LINE
  8
0
 10
14.3533
 20
-84.6222
 11
14.2601
 21
-84.5747
  0
LINE
  8
0
 10
14.2601
 20
-84.5747
 11
14.1723
 21
-84.5177
  0
LINE
  8
0
 10
14.1723
 20
-84.5177
 11
14.091
 21
-84.4518
  0
LINE
  8
0
 10
14.091
 20
-84.4518
 11
14.0169
 21
-84.3778
  0
LINE
  8
0
 10
14.0169
 20
-84.3778
 11
13.9511
 21
-84.2964
  0
LINE
  8
0
 10
13.9511
 20
-84.2964
 11
13.8941
 21
-84.2086
  0
LINE
  8
0
 10
13.8941
 20
-84.2086
 11
13.8465
 21
-84.1154
  0
LINE
  8
0
 10
13.8465
 20
-84.1154
 11
13.809
 21
-84.0177
  0
LINE
  8
0
 10
13.809
 20
-84.0177
 11
13.7819
 21
-83.9166
  0
LINE
  8
0
 10
13.7819
 20
-83.9166
 11
13.7656
 21
-83.8132
  0
LINE
  8
0
 10
13.7656
 20
-83.8132
 11
13.7601
 21
-83.7086
  0
LINE
  8
0
 10
13.7601
 20
-83.7086
 11
13.7656
 21
-83.6041
  0
LINE
  8
0
 10
13.7656
 20
-83.6041
 11
13.7819
 21
-83.5007
  0
LINE
  8
0
 10
13.7819
 20
-83.5007
 11
13.809
 21
-83.3996
  0
LINE
  8
0
 10
13.809
 20
-83.3996
 11
13.8465
 21
-83.3019
  0
LINE
  8
0
 10
13.8465
 20
-83.3019
 11
13.8941
 21
-83.2086
  0
LINE
  8
0
 10
13.8941
 20
-83.2086
 11
13.9511
 21
-83.1209
  0
LINE
  8
0
 10
13.9511
 20
-83.1209
 11
14.0169
 21
-83.0395
  0
LINE
  8
0
 10
14.0169
 20
-83.0395
 11
14.091
 21
-82.9655
  0
LINE
  8
0
 10
14.091
 20
-82.9655
 11
14.1723
 21
-82.8996
  0
LINE
  8
0
 10
14.1723
 20
-82.8996
 11
14.2601
 21
-82.8426
  0
LINE
  8
0
 10
14.2601
 20
-82.8426
 11
14.3533
 21
-82.7951
  0
LINE
  8
0
 10
14.3533
 20
-82.7951
 11
14.4511
 21
-82.7576
  0
LINE
  8
0
 10
14.4511
 20
-82.7576
 11
14.5522
 21
-82.7305
  0
LINE
  8
0
 10
14.5522
 20
-82.7305
 11
14.6556
 21
-82.7141
  0
LINE
  8
0
 10
14.6556
 20
-82.7141
 11
14.7601
 21
-82.7086
  0
LINE
  8
0
 10
14.7601
 20
-82.7086
 11
14.8646
 21
-82.7141
  0
LINE
  8
0
 10
14.8646
 20
-82.7141
 11
14.968
 21
-82.7305
  0
LINE
  8
0
 10
14.968
 20
-82.7305
 11
15.0691
 21
-82.7576
  0
LINE
  8
0
 10
15.0691
 20
-82.7576
 11
15.1668
 21
-82.7951
  0
LINE
  8
0
 10
15.1668
 20
-82.7951
 11
15.2601
 21
-82.8426
  0
LINE
  8
0
 10
15.2601
 20
-82.8426
 11
15.3479
 21
-82.8996
  0
LINE
  8
0
 10
15.3479
 20
-82.8996
 11
15.4292
 21
-82.9655
  0
LINE
  8
0
 10
15.4292
 20
-82.9655
 11
15.5032
 21
-83.0395
  0
LINE
  8
0
 10
15.5032
 20
-83.0395
 11
15.5691
 21
-83.1209
  0
LINE
  8
0
 10
15.5691
 20
-83.1209
 11
15.6261
 21
-83.2086
  0
LINE
  8
0
 10
15.6261
 20
-83.2086
 11
15.6736
 21
-83.3019
  0
LINE
  8
0
 10
15.6736
 20
-83.3019
 11
15.7112
 21
-83.3996
  0
LINE
  8
0
 10
15.7112
 20
-83.3996
 11
15.7382
 21
-83.5007
  0
LINE
  8
0
 10
15.7382
 20
-83.5007
 11
15.7546
 21
-83.6041
  0
LINE
  8
0
 10
15.7546
 20
-83.6041
 11
15.7601
 21
-83.7086
  0
LINE
  8
0
 10
15.7601
 20
-83.7086
 11
15.7546
 21
-83.8132
  0
LINE
  8
0
 10
15.7546
 20
-83.8132
 11
15.7382
 21
-83.9166
  0
LINE
  8
0
 10
15.7382
 20
-83.9166
 11
15.7112
 21
-84.0177
  0
LINE
  8
0
 10
15.7112
 20
-84.0177
 11
15.6736
 21
-84.1154
  0
LINE
  8
0
 10
15.6736
 20
-84.1154
 11
15.6261
 21
-84.2086
  0
LINE
  8
0
 10
15.6261
 20
-84.2086
 11
15.5691
 21
-84.2964
  0
LINE
  8
0
 10
15.5691
 20
-84.2964
 11
15.5032
 21
-84.3778
  0
LINE
  8
0
 10
15.5032
 20
-84.3778
 11
15.4292
 21
-84.4518
  0
LINE
  8
0
 10
15.4292
 20
-84.4518
 11
15.3479
 21
-84.5177
  0
LINE
  8
0
 10
15.3479
 20
-84.5177
 11
15.2601
 21
-84.5747
  0
LINE
  8
0
 10
15.2601
 20
-84.5747
 11
15.1668
 21
-84.6222
  0
LINE
  8
0
 10
15.1668
 20
-84.6222
 11
15.0691
 21
-84.6597
  0
LINE
  8
0
 10
15.0691
 20
-84.6597
 11
14.968
 21
-84.6868
  0
LINE
  8
0
 10
14.968
 20
-84.6868
 11
14.8646
 21
-84.7032
  0
LINE
  8
0
 10
14.8646
 20
-84.7032
 11
14.7601
 21
-84.7086
  0
LINE
  8
0
 10
14.7601
 20
-84.7086
 11
14.6556
 21
-84.7032
  0
LINE
  8
0
 10
-0.104523
 20
-85.9945
 11
-0.207901
 21
-85.9781
  0
LINE
  8
0
 10
-0.207901
 20
-85.9781
 11
-0.309006
 21
-85.951
  0
LINE
  8
0
 10
-0.309006
 20
-85.951
 11
-0.406723
 21
-85.9135
  0
LINE
  8
0
 10
-0.406723
 20
-85.9135
 11
-0.5
 21
-85.866
  0
LINE
  8
0
 10
-0.5
 20
-85.866
 11
-0.587784
 21
-85.809
  0
LINE
  8
0
 10
-0.587784
 20
-85.809
 11
-0.669128
 21
-85.7431
  0
LINE
  8
0
 10
-0.669128
 20
-85.7431
 11
-0.743134
 21
-85.6691
  0
LINE
  8
0
 10
-0.743134
 20
-85.6691
 11
-0.809006
 21
-85.5878
  0
LINE
  8
0
 10
-0.809006
 20
-85.5878
 11
-0.866013
 21
-85.5
  0
LINE
  8
0
 10
-0.866013
 20
-85.5
 11
-0.913544
 21
-85.4067
  0
LINE
  8
0
 10
-0.913544
 20
-85.4067
 11
-0.95105
 21
-85.309
  0
LINE
  8
0
 10
-0.95105
 20
-85.309
 11
-0.978134
 21
-85.2079
  0
LINE
  8
0
 10
-0.978134
 20
-85.2079
 11
-0.994507
 21
-85.1045
  0
LINE
  8
0
 10
-0.994507
 20
-85.1045
 11
-1
 21
-85
  0
LINE
  8
0
 10
-1
 20
-85
 11
-0.994507
 21
-84.8955
  0
LINE
  8
0
 10
-0.994507
 20
-84.8955
 11
-0.978134
 21
-84.7921
  0
LINE
  8
0
 10
-0.978134
 20
-84.7921
 11
-0.95105
 21
-84.691
  0
LINE
  8
0
 10
-0.95105
 20
-84.691
 11
-0.913544
 21
-84.5933
  0
LINE
  8
0
 10
-0.913544
 20
-84.5933
 11
-0.866013
 21
-84.5
  0
LINE
  8
0
 10
-0.866013
 20
-84.5
 11
-0.809006
 21
-84.4122
  0
LINE
  8
0
 10
-0.809006
 20
-84.4122
 11
-0.743134
 21
-84.3309
  0
LINE
  8
0
 10
-0.743134
 20
-84.3309
 11
-0.669128
 21
-84.2569
  0
LINE
  8
0
 10
-0.669128
 20
-84.2569
 11
-0.587784
 21
-84.191
  0
LINE
  8
0
 10
-0.587784
 20
-84.191
 11
-0.499985
 21
-84.134
  0
LINE
  8
0
 10
-0.499985
 20
-84.134
 11
-0.406723
 21
-84.0864
  0
LINE
  8
0
 10
-0.406723
 20
-84.0864
 11
-0.309006
 21
-84.0489
  0
LINE
  8
0
 10
-0.309006
 20
-84.0489
 11
-0.207901
 21
-84.0219
  0
LINE
  8
0
 10
-0.207901
 20
-84.0219
 11
-0.104523
 21
-84.0055
  0
LINE
  8
0
 10
-0.104523
 20
-84.0055
 11
0
 21
-84
  0
LINE
  8
0
 10
0
 20
-84
 11
0.104523
 21
-84.0055
  0
LINE
  8
0
 10
0.104523
 20
-84.0055
 11
0.207901
 21
-84.0219
  0
LINE
  8
0
 10
0.207901
 20
-84.0219
 11
0.309006
 21
-84.0489
  0
LINE
  8
0
 10
0.309006
 20
-84.0489
 11
0.406723
 21
-84.0864
  0
LINE
  8
0
 10
0.406723
 20
-84.0864
 11
0.5
 21
-84.134
  0
LINE
  8
0
 10
0.5
 20
-84.134
 11
0.587784
 21
-84.191
  0
LINE
  8
0
 10
0.587784
 20
-84.191
 11
0.669128
 21
-84.2569
  0
LINE
  8
0
 10
0.669128
 20
-84.2569
 11
0.743134
 21
-84.3309
  0
LINE
  8
0
 10
0.743134
 20
-84.3309
 11
0.809006
 21
-84.4122
  0
LINE
  8
0
 10
0.809006
 20
-84.4122
 11
0.866013
 21
-84.5
  0
LINE
  8
0
 10
0.866013
 20
-84.5
 11
0.913544
 21
-84.5933
  0
LINE
  8
0
 10
0.913544
 20
-84.5933
 11
0.95105
 21
-84.691
  0
LINE
  8
0
 10
0.95105
 20
-84.691
 11
0.978134
 21
-84.7921
  0
LINE
  8
0
 10
0.978134
 20
-84.7921
 11
0.994507
 21
-84.8955
  0
LINE
  8
0
 10
0.994507
 20
-84.8955
 11
1
 21
-85
  0
LINE
  8
0
 10
1
 20
-85
 11
0.994507
 21
-85.1045
  0
LINE
  8
0
 10
0.994507
 20
-85.1045
 11
0.978134
 21
-85.2079
  0
LINE
  8
0
 10
0.978134
 20
-85.2079
 11
0.95105
 21
-85.309
  0
LINE
  8
0
 10
0.95105
 20
-85.309
 11
0.913544
 21
-85.4067
  0
LINE
  8
0
 10
0.913544
 20
-85.4067
 11
0.866013
 21
-85.5
  0
LINE
  8
0
 10
0.866013
 20
-85.5
 11
0.809006
 21
-85.5878
  0
LINE
  8
0
 10
0.809006
 20
-85.5878
 11
0.743134
 21
-85.6691
  0
LINE
  8
0
 10
0.743134
 20
-85.6691
 11
0.669128
 21
-85.7431
  0
LINE
  8
0
 10
0.669128
 20
-85.7431
 11
0.587784
 21
-85.809
  0
LINE
  8
0
 10
0.587784
 20
-85.809
 11
0.5
 21
-85.866
  0
LINE
  8
0
 10
0.5
 20
-85.866
 11
0.406723
 21
-85.9135
  0
LINE
  8
0
 10
0.406723
 20
-85.9135
 11
0.309006
 21
-85.951
  0
LINE
  8
0
 10
0.309006
 20
-85.951
 11
0.207901
 21
-85.9781
  0
LINE
  8
0
 10
0.207901
 20
-85.9781
 11
0.104523
 21
-85.9945
  0
LINE
  8
0
 10
0.104523
 20
-85.9945
 11
0
 21
-86
  0
LINE
  8
0
 10
0
 20
-86
 11
-0.104523
 21
-85.9945
  0
ENDSEC
  0
SECTION
  2
OBJECTS
  0
DICTIONARY
  0
ENDSEC
  0
EOF
