999
Inkscape export via OpenSCAD DXF Export
  0
SECTION
  2
HEADER
  9
$ACADVER
  1
AC1014
  9
$HANDSEED
  5
FFFF
  9
$MEASUREMENT
 70
     1
  0
ENDSEC
  0
SECTION
  2
TABLES
  0
TABLE
  2
VPORT
  5
8
330
0
100
AcDbSymbolTable
 70
     4
  0
VPORT
  5
2E
330
8
100
AcDbSymbolTableRecord
100
AcDbViewportTableRecord
  2
*ACTIVE
 70
     0
 10
0.0
 20
0.0
 11
1.0
 21
1.0
 12
210.0
 22
148.5
 13
0.0
 23
0.0
 14
10.0
 24
10.0
 15
10.0
 25
10.0
 16
0.0
 26
0.0
 36
1.0
 17
0.0
 27
0.0
 37
0.0
 40
341.0
 41
1.24
 42
50.0
 43
0.0
 44
0.0
 50
0.0
 51
0.0
 71
     0
 72
   100
 73
     1
 74
     3
 75
     0
 76
     0
 77
     0
 78
     0
  0
ENDTAB
  0
TABLE
  2
LTYPE
  5
5
330
0
100
AcDbSymbolTable
 70
     1
  0
LTYPE
  5
14
330
5
100
AcDbSymbolTableRecord
100
AcDbLinetypeTableRecord
  2
BYBLOCK
 70
     0
  3

 72
    65
 73
     0
 40
0.0
  0
LTYPE
  5
15
330
5
100
AcDbSymbolTableRecord
100
AcDbLinetypeTableRecord
  2
BYLAYER
 70
     0
  3

 72
    65
 73
     0
 40
0.0
  0
LTYPE
  5
16
330
5
100
AcDbSymbolTableRecord
100
AcDbLinetypeTableRecord
  2
CONTINUOUS
 70
     0
  3
Solid line
 72
    65
 73
     0
 40
0.0
  0
ENDTAB
  0
TABLE
0
TABLE
2
LAYER
5
2
330
0
100
AcDbSymbolTable
70
2
0
LAYER
5
10
330
2
100
AcDbSymbolTableRecord
100
AcDbLayerTableRecord
2
Layer_1
70
0
62
7
6
CONTINUOUS
0
LAYER
5
10
330
2
100
AcDbSymbolTableRecord
100
AcDbLayerTableRecord
2
Layer
70
0
62
7
6
CONTINUOUS
0
ENDTAB
0
ENDSEC
  0
ENDTAB
  0
TABLE
  2
STYLE
  5
3
330
0
100
AcDbSymbolTable
 70
     1
  0
STYLE
  5
11
330
3
100
AcDbSymbolTableRecord
100
AcDbTextStyleTableRecord
  2
STANDARD
 70
     0
 40
0.0
 41
1.0
 50
0.0
 71
     0
 42
2.5
  3
txt
  4

  0
ENDTAB
  0
TABLE
  2
VIEW
  5
6
330
0
100
AcDbSymbolTable
 70
     0
  0
ENDTAB
  0
TABLE
  2
UCS
  5
7
330
0
100
AcDbSymbolTable
 70
     0
  0
ENDTAB
  0
TABLE
  2
APPID
  5
9
330
0
100
AcDbSymbolTable
 70
     2
  0
APPID
  5
12
330
9
100
AcDbSymbolTableRecord
100
AcDbRegAppTableRecord
  2
ACAD
 70
     0
  0
ENDTAB
  0
TABLE
  2
DIMSTYLE
  5
A
330
0
100
AcDbSymbolTable
 70
     1
  0
DIMSTYLE
105
27
330
A
100
AcDbSymbolTableRecord
100
AcDbDimStyleTableRecord
  2
ISO-25
 70
     0
  3

  4

  5

  6

  7

 40
1.0
 41
2.5
 42
0.625
 43
3.75
 44
1.25
 45
0.0
 46
0.0
 47
0.0
 48
0.0
140
2.5
141
2.5
142
0.0
143
0.03937007874016
144
1.0
145
0.0
146
1.0
147
0.625
 71
     0
 72
     0
 73
     0
 74
     0
 75
     0
 76
     0
 77
     1
 78
     8
170
     0
171
     3
172
     1
173
     0
174
     0
175
     0
176
     0
177
     0
178
     0
270
     2
271
     2
272
     2
273
     2
274
     3
340
11
275
     0
280
     0
281
     0
282
     0
283
     0
284
     8
285
     0
286
     0
287
     3
288
     0
  0
ENDTAB
  0
TABLE
  2
BLOCK_RECORD
  5
1
330
0
100
AcDbSymbolTable
 70
     1
  0
BLOCK_RECORD
  5
1F
330
1
100
AcDbSymbolTableRecord
100
AcDbBlockTableRecord
  2
*MODEL_SPACE
  0
BLOCK_RECORD
  5
1B
330
1
100
AcDbSymbolTableRecord
100
AcDbBlockTableRecord
  2
*PAPER_SPACE
  0
ENDTAB
  0
ENDSEC
  0
SECTION
  2
BLOCKS
  0
BLOCK
  5
20
330
1F
100
AcDbEntity
  8
0
100
AcDbBlockBegin
  2
*MODEL_SPACE
 70
     0
 10
0.0
 20
0.0
 30
0.0
  3
*MODEL_SPACE
  1

  0
ENDBLK
  5
21
330
1F
100
AcDbEntity
  8
0
100
AcDbBlockEnd
  0
BLOCK
  5
1C
330
1B
100
AcDbEntity
 67
     1
  8
0
100
AcDbBlockBegin
  2
*PAPER_SPACE
  1

  0
ENDBLK
  5
1D
330
1B
100
AcDbEntity
 67
     1
  8
0
100
AcDbBlockEnd
  0
ENDSEC
  0
SECTION
  2
ENTITIES
0
DIMENSION
5
83
100
AcDbEntity
62
256
370
-1
6
ByLayer
1
total_width
3
Standard
70
0
71
5
72
1
41
1.0
100
AcDbAlignedDimension
13
-186.726537
23
0.000000
33
0.0
14
361.839756
24
0.000000
34
0.0
50
0.000000
100
AcDbRotatedDimension
0
DIMENSION
5
83
100
AcDbEntity
62
256
370
-1
6
ByLayer
1
total_height
3
Standard
70
0
71
5
72
1
41
1.0
100
AcDbAlignedDimension
13
0.000000
23
-78.707225
33
0.0
14
0.000000
24
171.521713
34
0.0
50
90.000000
100
AcDbRotatedDimension
0
DIMENSION
8
Layer_1
5
83
100
AcDbEntity
62
256
370
-1
6
ByLayer
1
Layer_1_width
3
Standard
70
0
71
5
72
1
41
1.0
100
AcDbAlignedDimension
13
-186.726537
23
0.000000
33
0.0
14
361.839756
24
0.000000
34
0.0
50
0.000000
100
AcDbRotatedDimension
0
DIMENSION
8
Layer_1
5
83
100
AcDbEntity
62
256
370
-1
6
ByLayer
1
Layer_1_height
3
Standard
70
0
71
5
72
1
41
1.0
100
AcDbAlignedDimension
13
0.000000
23
-78.707225
33
0.0
14
0.000000
24
171.235819
34
0.0
50
90.000000
100
AcDbRotatedDimension
0
DIMENSION
8
Layer
5
83
100
AcDbEntity
62
256
370
-1
6
ByLayer
1
Layer_width
3
Standard
70
0
71
5
72
1
41
1.0
100
AcDbAlignedDimension
13
-186.039984
23
0.000000
33
0.0
14
358.441776
24
0.000000
34
0.0
50
0.000000
100
AcDbRotatedDimension
0
DIMENSION
8
Layer
5
83
100
AcDbEntity
62
256
370
-1
6
ByLayer
1
Layer_height
3
Standard
70
0
71
5
72
1
41
1.0
100
AcDbAlignedDimension
13
0.000000
23
-77.359272
33
0.0
14
0.000000
24
171.521713
34
0.0
50
90.000000
100
AcDbRotatedDimension
0
LWPOLYLINE
100
AcDbPolyline
8
Layer_1
90
217
70
0
10
88.698411
20
-77.409518
30
0.0
10
51.606349
20
-74.587296
30
0.0
10
25.425198
20
-72.647018
30
0.0
10
12.095238
20
-71.765074
30
0.0
10
9.400583
20
-71.744600
30
0.0
10
4.145139
20
-71.450092
30
0.0
10
0.749062
20
-71.090817
30
0.0
10
-3.056883
20
-70.531923
30
0.0
10
-7.195919
20
-69.729707
30
0.0
10
-11.591270
20
-68.640465
30
0.0
10
-16.166160
20
-67.220494
30
0.0
10
-20.843812
20
-65.426090
30
0.0
10
-25.547451
20
-63.213550
30
0.0
10
-30.200298
20
-60.539171
30
0.0
10
-34.725579
20
-57.359249
30
0.0
10
-36.916389
20
-55.566051
30
0.0
10
-39.046516
20
-53.630080
30
0.0
10
-41.106363
20
-51.545871
30
0.0
10
-43.086334
20
-49.307961
30
0.0
10
-44.976830
20
-46.910888
30
0.0
10
-46.768255
20
-44.349189
30
0.0
10
-48.638228
20
-41.780550
30
0.0
10
-50.757282
20
-39.363250
30
0.0
10
-53.105188
20
-37.092711
30
0.0
10
-55.661719
20
-34.964356
30
0.0
10
-58.406648
20
-32.973608
30
0.0
10
-61.319747
20
-31.115890
30
0.0
10
-64.380788
20
-29.386625
30
0.0
10
-67.569544
20
-27.781236
30
0.0
10
-74.249289
20
-24.923778
30
0.0
10
-81.197160
20
-22.506897
30
0.0
10
-88.251338
20
-20.493980
30
0.0
10
-95.250000
20
-18.848407
30
0.0
10
-102.031326
20
-17.533564
30
0.0
10
-108.433495
20
-16.512834
30
0.0
10
-114.294685
20
-15.749600
30
0.0
10
-119.453075
20
-15.207245
30
0.0
10
-127.014174
20
-14.638709
30
0.0
10
-129.822222
20
-14.514292
30
0.0
10
-137.230556
20
-15.119052
30
0.0
10
-144.960169
20
-15.534823
30
0.0
10
-154.012699
20
-15.723809
30
0.0
10
-158.716140
20
-15.662386
30
0.0
10
-163.367610
20
-15.459223
30
0.0
10
-167.839541
20
-15.085970
30
0.0
10
-172.004366
20
-14.514281
30
0.0
10
-175.734518
20
-13.715805
30
0.0
10
-178.902431
20
-12.662196
30
0.0
10
-180.235683
20
-12.030858
30
0.0
10
-181.380537
20
-11.325106
30
0.0
10
-182.321048
20
-10.541396
30
0.0
10
-183.041270
20
-9.676185
30
0.0
10
-184.147638
20
-7.629602
30
0.0
10
-185.050843
20
-5.134172
30
0.0
10
-185.755611
20
-2.213519
30
0.0
10
-186.266667
20
1.108734
30
0.0
10
-186.588734
20
4.808963
30
0.0
10
-186.726537
20
8.863545
30
0.0
10
-186.684802
20
13.248857
30
0.0
10
-186.468253
20
17.941274
30
0.0
10
-185.529612
20
28.152931
30
0.0
10
-183.948412
20
39.309529
30
0.0
10
-181.762449
20
51.222079
30
0.0
10
-179.009523
20
63.701593
30
0.0
10
-176.154228
20
75.422004
30
0.0
10
-173.554067
20
85.347029
30
0.0
10
-171.086198
20
93.722352
30
0.0
10
-168.627778
20
100.793657
30
0.0
10
-166.055965
20
106.806629
30
0.0
10
-163.247916
20
112.006952
30
0.0
10
-161.716916
20
114.379146
30
0.0
10
-160.080790
20
116.640310
30
0.0
10
-156.431745
20
120.952388
30
0.0
10
-154.241058
20
123.150556
30
0.0
10
-151.568452
20
125.497552
30
0.0
10
-148.366679
20
127.972115
30
0.0
10
-144.588492
20
130.552983
30
0.0
10
-140.186644
20
133.218897
30
0.0
10
-135.113889
20
135.948593
30
0.0
10
-129.322978
20
138.720812
30
0.0
10
-122.766666
20
141.514292
30
0.0
10
-115.397705
20
144.307772
30
0.0
10
-107.168849
20
147.079991
30
0.0
10
-98.032849
20
149.809688
30
0.0
10
-87.942460
20
152.475601
30
0.0
10
-76.850433
20
155.056470
30
0.0
10
-64.709523
20
157.531033
30
0.0
10
-51.472482
20
159.878028
30
0.0
10
-37.092063
20
162.076196
30
0.0
10
-22.632702
20
164.036160
30
0.0
10
-9.183246
20
165.698468
30
0.0
10
3.266935
20
167.086743
30
0.0
10
14.728472
20
168.224609
30
0.0
10
34.728137
20
169.843607
30
0.0
10
50.900794
20
170.744450
30
0.0
10
63.331486
20
171.116127
30
0.0
10
72.105258
20
171.147624
30
0.0
10
79.022222
20
170.946037
30
0.0
10
81.245982
20
171.095653
30
0.0
10
88.194444
20
171.235819
30
0.0
10
93.570368
20
171.157665
30
0.0
10
100.283383
20
170.903515
30
0.0
10
108.385460
20
170.415493
30
0.0
10
117.928571
20
169.635720
30
0.0
10
128.964688
20
168.506319
30
0.0
10
141.545783
20
166.969413
30
0.0
10
155.723827
20
164.967123
30
0.0
10
171.550793
20
162.441573
30
0.0
10
189.078651
20
159.334884
30
0.0
10
208.359374
20
155.589179
30
0.0
10
229.444933
20
151.146581
30
0.0
10
252.387300
20
145.949211
30
0.0
10
263.842194
20
143.097017
30
0.0
10
274.346537
20
140.140584
30
0.0
10
283.941965
20
137.089066
30
0.0
10
292.670115
20
133.951618
30
0.0
10
300.572623
20
130.737393
30
0.0
10
307.691126
20
127.455546
30
0.0
10
314.067260
20
124.115230
30
0.0
10
319.742662
20
120.725601
30
0.0
10
324.758967
20
117.295812
30
0.0
10
329.157813
20
113.835016
30
0.0
10
332.980836
20
110.352369
30
0.0
10
336.269672
20
106.857025
30
0.0
10
339.065958
20
103.358136
30
0.0
10
341.411330
20
99.864859
30
0.0
10
343.347425
20
96.386346
30
0.0
10
344.915878
20
92.931752
30
0.0
10
346.158328
20
89.510231
30
0.0
10
347.116409
20
86.130936
30
0.0
10
347.831758
20
82.803023
30
0.0
10
348.346012
20
79.535646
30
0.0
10
348.937781
20
73.219112
30
0.0
10
349.224806
20
67.254569
30
0.0
10
349.540178
20
61.715250
30
0.0
10
349.812586
20
59.127934
30
0.0
10
350.216990
20
56.674386
30
0.0
10
350.795027
20
54.363761
30
0.0
10
351.588333
20
52.205212
30
0.0
10
352.638544
20
50.207893
30
0.0
10
353.987298
20
48.380959
30
0.0
10
356.672112
20
45.062052
30
0.0
10
358.721452
20
42.051432
30
0.0
10
360.199104
20
39.336106
30
0.0
10
361.168849
20
36.903082
30
0.0
10
361.694472
20
34.739365
30
0.0
10
361.839756
20
32.831963
30
0.0
10
361.668484
20
31.167884
30
0.0
10
361.244441
20
29.734134
30
0.0
10
360.631409
20
28.517720
30
0.0
10
359.893173
20
27.505649
30
0.0
10
358.296221
20
26.042567
30
0.0
10
356.963853
20
25.240942
30
0.0
10
356.406337
20
24.996833
30
0.0
10
357.767055
20
19.591771
30
0.0
10
358.957683
20
13.898504
30
0.0
10
360.034918
20
7.156353
30
0.0
10
360.424707
20
3.613416
30
0.0
10
360.658580
20
0.074024
30
0.0
10
360.694015
20
-3.373236
30
0.0
10
360.488490
20
-6.639776
30
0.0
10
359.999482
20
-9.637007
30
0.0
10
359.184469
20
-12.276342
30
0.0
10
358.000928
20
-14.469191
30
0.0
10
357.257672
20
-15.370500
30
0.0
10
356.406337
20
-16.126967
30
0.0
10
354.876715
20
-17.369171
30
0.0
10
353.807752
20
-18.391676
30
0.0
10
352.399792
20
-19.881536
30
0.0
10
351.734790
20
-20.400861
30
0.0
10
350.878438
20
-20.804431
30
0.0
10
349.667734
20
-21.118232
30
0.0
10
347.939674
20
-21.368250
30
0.0
10
342.279481
20
-21.780877
30
0.0
10
332.593841
20
-22.250200
30
0.0
10
317.578737
20
-22.984105
30
0.0
10
295.930151
20
-24.190479
30
0.0
10
274.300466
20
-25.659860
30
0.0
10
259.417656
20
-27.025299
30
0.0
10
250.091095
20
-28.258447
30
0.0
10
247.139337
20
-28.816553
30
0.0
10
245.130158
20
-29.330956
30
0.0
10
243.914729
20
-29.798111
30
0.0
10
243.344221
20
-30.214476
30
0.0
10
243.269807
20
-30.576507
30
0.0
10
243.542659
20
-30.880660
30
0.0
10
244.534847
20
-31.301160
30
0.0
10
245.130159
20
-31.447626
30
0.0
10
244.260814
20
-31.600391
30
0.0
10
241.803969
20
-32.216176
30
0.0
10
237.986409
20
-33.531217
30
0.0
10
233.034921
20
-35.781748
30
0.0
10
230.204824
20
-37.331646
30
0.0
10
227.176290
20
-39.204005
30
0.0
10
223.977666
20
-41.428354
30
0.0
10
220.637301
20
-44.034223
30
0.0
10
217.183544
20
-47.051141
30
0.0
10
213.644742
20
-50.508637
30
0.0
10
210.049243
20
-54.436241
30
0.0
10
206.425396
20
-58.863483
30
0.0
10
204.546933
20
-61.118272
30
0.0
10
202.547991
20
-63.200167
30
0.0
10
200.440380
20
-65.115812
30
0.0
10
198.235912
20
-66.871851
30
0.0
10
195.946400
20
-68.474927
30
0.0
10
193.583655
20
-69.931685
30
0.0
10
188.685714
20
-72.432823
30
0.0
10
183.636582
20
-74.428419
30
0.0
10
178.530753
20
-75.971624
30
0.0
10
173.462722
20
-77.115592
30
0.0
10
168.526983
20
-77.913476
30
0.0
10
163.818030
20
-78.418428
30
0.0
10
159.430356
20
-78.683602
30
0.0
10
151.996824
20
-78.707225
30
0.0
10
146.982340
20
-78.409568
30
0.0
10
145.142856
20
-78.215856
30
0.0
10
88.698411
20
-77.409518
30
0.0
0
LWPOLYLINE
100
AcDbPolyline
8
Layer
90
184
70
0
10
88.375987
20
171.235371
30
0.0
10
121.303169
20
168.207463
30
0.0
10
137.739990
20
166.457265
30
0.0
10
154.145328
20
164.474909
30
0.0
10
170.508955
20
162.204400
30
0.0
10
186.820643
20
159.589740
30
0.0
10
203.070164
20
156.574934
30
0.0
10
219.247291
20
153.103985
30
0.0
10
233.555982
20
149.645406
30
0.0
10
247.792519
20
146.035452
30
0.0
10
261.879433
20
142.079041
30
0.0
10
268.842570
20
139.909951
30
0.0
10
275.739250
20
137.581091
30
0.0
10
282.559789
20
135.068075
30
0.0
10
289.294501
20
132.346519
30
0.0
10
295.933704
20
129.392037
30
0.0
10
302.467713
20
126.180243
30
0.0
10
308.886845
20
122.686753
30
0.0
10
315.181415
20
118.887181
30
0.0
10
321.341740
20
114.757141
30
0.0
10
327.358135
20
110.272250
30
0.0
10
330.072557
20
108.058742
30
0.0
10
332.526320
20
105.721174
30
0.0
10
334.737226
20
103.268018
30
0.0
10
336.723074
20
100.707744
30
0.0
10
338.501665
20
98.048825
30
0.0
10
340.090800
20
95.299730
30
0.0
10
341.508279
20
92.468931
30
0.0
10
342.771903
20
89.564899
30
0.0
10
344.908785
20
83.571021
30
0.0
10
346.643851
20
77.385864
30
0.0
10
348.119504
20
71.077197
30
0.0
10
349.478148
20
64.712789
30
0.0
10
353.931487
20
45.602680
30
0.0
10
355.923159
20
35.932308
30
0.0
10
357.463076
20
26.218547
30
0.0
10
357.994464
20
21.353244
30
0.0
10
358.329919
20
16.486513
30
0.0
10
358.441776
20
11.621493
30
0.0
10
358.302370
20
6.761323
30
0.0
10
357.884037
20
1.909143
30
0.0
10
357.159112
20
-2.931907
30
0.0
10
356.099930
20
-7.758688
30
0.0
10
354.678827
20
-12.568060
30
0.0
10
353.249244
20
-14.372681
30
0.0
10
351.752282
20
-15.985991
30
0.0
10
350.191136
20
-17.417867
30
0.0
10
348.569001
20
-18.678182
30
0.0
10
346.889073
20
-19.776814
30
0.0
10
345.154546
20
-20.723637
30
0.0
10
341.534477
20
-22.201362
30
0.0
10
337.734359
20
-23.190362
30
0.0
10
333.779751
20
-23.769641
30
0.0
10
329.696217
20
-24.018205
30
0.0
10
325.509319
20
-24.015060
30
0.0
10
316.927675
20
-23.569662
30
0.0
10
308.239316
20
-23.065487
30
0.0
10
303.919024
20
-22.988871
30
0.0
10
299.648738
20
-23.134578
30
0.0
10
295.454022
20
-23.581610
30
0.0
10
291.360437
20
-24.408975
30
0.0
10
280.965423
20
-25.079712
30
0.0
10
270.748942
20
-26.064206
30
0.0
10
265.726540
20
-26.737339
30
0.0
10
260.771436
20
-27.564786
30
0.0
10
255.891187
20
-28.571836
30
0.0
10
251.093346
20
-29.783781
30
0.0
10
246.385470
20
-31.225912
30
0.0
10
241.775113
20
-32.923520
30
0.0
10
237.269832
20
-34.901895
30
0.0
10
232.877180
20
-37.186330
30
0.0
10
228.604713
20
-39.802115
30
0.0
10
224.459986
20
-42.774541
30
0.0
10
220.450555
20
-46.128900
30
0.0
10
216.583974
20
-49.890481
30
0.0
10
214.696956
20
-52.985958
30
0.0
10
212.509784
20
-55.862126
30
0.0
10
210.049166
20
-58.523997
30
0.0
10
207.341812
20
-60.976583
30
0.0
10
204.414431
20
-63.224898
30
0.0
10
201.293731
20
-65.273955
30
0.0
10
198.006421
20
-67.128766
30
0.0
10
194.579210
20
-68.794343
30
0.0
10
191.038807
20
-70.275700
30
0.0
10
187.411921
20
-71.577849
30
0.0
10
183.725260
20
-72.705803
30
0.0
10
180.005534
20
-73.664576
30
0.0
10
176.279452
20
-74.459178
30
0.0
10
172.573721
20
-75.094624
30
0.0
10
165.330152
20
-75.908096
30
0.0
10
155.303554
20
-76.670268
30
0.0
10
145.534550
20
-77.128194
30
0.0
10
135.935654
20
-77.338866
30
0.0
10
126.419380
20
-77.359272
30
0.0
10
107.284753
20
-77.057252
30
0.0
10
87.430777
20
-76.678055
30
0.0
10
64.524069
20
-75.336867
30
0.0
10
41.418414
20
-73.643104
30
0.0
10
18.330231
20
-71.704437
30
0.0
10
-4.524065
20
-69.628539
30
0.0
10
-10.052630
20
-68.494323
30
0.0
10
-15.191980
20
-66.901924
30
0.0
10
-17.649417
20
-65.914179
30
0.0
10
-20.050012
20
-64.788214
30
0.0
10
-24.734625
20
-62.090062
30
0.0
10
-29.353719
20
-58.744339
30
0.0
10
-34.015191
20
-54.687914
30
0.0
10
-38.826941
20
-49.857657
30
0.0
10
-43.896867
20
-44.190439
30
0.0
10
-47.568152
20
-40.335777
30
0.0
10
-51.419871
20
-37.066051
30
0.0
10
-55.460177
20
-34.280897
30
0.0
10
-59.697222
20
-31.879948
30
0.0
10
-64.139158
20
-29.762839
30
0.0
10
-68.794138
20
-27.829204
30
0.0
10
-78.775837
20
-24.110892
30
0.0
10
-83.810965
20
-22.254161
30
0.0
10
-88.842776
20
-20.654845
30
0.0
10
-93.874457
20
-19.294993
30
0.0
10
-98.909195
20
-18.156653
30
0.0
10
-103.950176
20
-17.221873
30
0.0
10
-109.000588
20
-16.472701
30
0.0
10
-114.063616
20
-15.891185
30
0.0
10
-119.142449
20
-15.459374
30
0.0
10
-129.360273
20
-14.973055
30
0.0
10
-139.679555
20
-14.870130
30
0.0
10
-160.724466
20
-15.239999
30
0.0
10
-163.705380
20
-14.087279
30
0.0
10
-166.558415
20
-12.731135
30
0.0
10
-169.270440
20
-11.182772
30
0.0
10
-171.828321
20
-9.453393
30
0.0
10
-174.218926
20
-7.554203
30
0.0
10
-176.429121
20
-5.496405
30
0.0
10
-178.445773
20
-3.291203
30
0.0
10
-180.255750
20
-0.949801
30
0.0
10
-181.845919
20
1.516597
30
0.0
10
-183.203146
20
4.096788
30
0.0
10
-184.314300
20
6.779566
30
0.0
10
-185.166246
20
9.553729
30
0.0
10
-185.745852
20
12.408072
30
0.0
10
-186.039984
20
15.331391
30
0.0
10
-186.035511
20
18.312484
30
0.0
10
-185.719299
20
21.340144
30
0.0
10
-184.470428
20
31.554329
30
0.0
10
-182.939894
20
41.738245
30
0.0
10
-181.131236
20
51.882608
30
0.0
10
-179.047993
20
61.978132
30
0.0
10
-176.693704
20
72.015533
30
0.0
10
-174.071910
20
81.985525
30
0.0
10
-171.186149
20
91.878823
30
0.0
10
-168.039960
20
101.686141
30
0.0
10
-166.106512
20
105.771360
30
0.0
10
-163.905919
20
109.637203
30
0.0
10
-161.455084
20
113.289602
30
0.0
10
-158.770913
20
116.734487
30
0.0
10
-155.870311
20
119.977788
30
0.0
10
-152.770184
20
123.025435
30
0.0
10
-149.487436
20
125.883360
30
0.0
10
-146.038973
20
128.557491
30
0.0
10
-142.441700
20
131.053761
30
0.0
10
-138.712522
20
133.378098
30
0.0
10
-134.868345
20
135.536434
30
0.0
10
-130.926073
20
137.534699
30
0.0
10
-126.902612
20
139.378823
30
0.0
10
-122.814867
20
141.074736
30
0.0
10
-114.514145
20
144.045653
30
0.0
10
-105.223131
20
147.120735
30
0.0
10
-95.858958
20
149.898624
30
0.0
10
-86.428239
20
152.402350
30
0.0
10
-76.937587
20
154.654943
30
0.0
10
-67.393614
20
156.679432
30
0.0
10
-57.802934
20
158.498848
30
0.0
10
-48.172158
20
160.136220
30
0.0
10
-38.507900
20
161.614577
30
0.0
10
-19.105389
20
164.186366
30
0.0
10
0.351697
20
166.398454
30
0.0
10
39.217984
20
170.480472
30
0.0
10
45.347404
20
171.041162
30
0.0
10
51.484421
20
171.368090
30
0.0
10
57.627425
20
171.511520
30
0.0
10
63.774810
20
171.521713
30
0.0
10
76.076287
20
171.343439
30
0.0
10
88.375987
20
171.235371
30
0.0
10
88.375987
20
171.235371
30
0.0
  0
ENDSEC
  0
SECTION
  2
OBJECTS
  0
DICTIONARY
  5
C
330
0
100
AcDbDictionary
  3
ACAD_GROUP
350
D
  3
ACAD_MLINESTYLE
350
17
  0
DICTIONARY
  5
D
330
C
100
AcDbDictionary
  0
DICTIONARY
  5
1A
330
C
100
AcDbDictionary
  0
DICTIONARY
  5
17
330
C
100
AcDbDictionary
  3
STANDARD
350
18
  0
DICTIONARY
  5
19
330
C
100
AcDbDictionary
  0
ENDSEC
  0
EOF
