solid OpenSCAD_Model
  facet normal -1 0 0
    outer loop
      vertex 0 50 0
      vertex 0 37.8532 6.57295
      vertex 0 50 15
    endloop
  endfacet
  facet normal -1 0 0
    outer loop
      vertex 0 50 0
      vertex 0 36.7634 5.07295
      vertex 0 37.8532 6.57295
    endloop
  endfacet
  facet normal -1 0 0
    outer loop
      vertex 0 50 0
      vertex 0 35 4.5
      vertex 0 36.7634 5.07295
    endloop
  endfacet
  facet normal -1 0 0
    outer loop
      vertex 0 32.1468 6.57295
      vertex 0 22.8532 6.57295
      vertex 0 32.1468 8.42705
    endloop
  endfacet
  facet normal -1 0 0
    outer loop
      vertex 0 33.2366 5.07295
      vertex 0 22.8532 6.57295
      vertex 0 32.1468 6.57295
    endloop
  endfacet
  facet normal -1 0 0
    outer loop
      vertex 0 21.7634 5.07295
      vertex 0 33.2366 5.07295
      vertex 0 35 4.5
    endloop
  endfacet
  facet normal -1 0 0
    outer loop
      vertex 0 20 4.5
      vertex 0 35 4.5
      vertex 0 50 0
    endloop
  endfacet
  facet normal -1 0 0
    outer loop
      vertex 0 33.2366 5.07295
      vertex 0 21.7634 5.07295
      vertex 0 22.8532 6.57295
    endloop
  endfacet
  facet normal -1 0 0
    outer loop
      vertex 0 35 4.5
      vertex 0 20 4.5
      vertex 0 21.7634 5.07295
    endloop
  endfacet
  facet normal -1 -0 0
    outer loop
      vertex 0 17.1468 6.57295
      vertex 0 0 0
      vertex 0 17.1468 8.42705
    endloop
  endfacet
  facet normal -1 -0 0
    outer loop
      vertex 0 18.2366 5.07295
      vertex 0 0 0
      vertex 0 17.1468 6.57295
    endloop
  endfacet
  facet normal -1 -0 0
    outer loop
      vertex 0 20 4.5
      vertex 0 0 0
      vertex 0 18.2366 5.07295
    endloop
  endfacet
  facet normal -1 0 0
    outer loop
      vertex 0 0 0
      vertex 0 20 4.5
      vertex 0 50 0
    endloop
  endfacet
  facet normal -1 0 0
    outer loop
      vertex 0 37.8532 8.42705
      vertex 0 50 15
      vertex 0 37.8532 6.57295
    endloop
  endfacet
  facet normal -1 0 0
    outer loop
      vertex 0 36.7634 9.92705
      vertex 0 50 15
      vertex 0 37.8532 8.42705
    endloop
  endfacet
  facet normal -1 0 0
    outer loop
      vertex 0 35 10.5
      vertex 0 50 15
      vertex 0 36.7634 9.92705
    endloop
  endfacet
  facet normal -1 0 0
    outer loop
      vertex 0 22.8532 8.42705
      vertex 0 32.1468 8.42705
      vertex 0 22.8532 6.57295
    endloop
  endfacet
  facet normal -1 0 0
    outer loop
      vertex 0 32.1468 8.42705
      vertex 0 22.8532 8.42705
      vertex 0 33.2366 9.92705
    endloop
  endfacet
  facet normal -1 0 0
    outer loop
      vertex 0 21.7634 9.92705
      vertex 0 33.2366 9.92705
      vertex 0 22.8532 8.42705
    endloop
  endfacet
  facet normal -1 0 0
    outer loop
      vertex 0 33.2366 9.92705
      vertex 0 21.7634 9.92705
      vertex 0 35 10.5
    endloop
  endfacet
  facet normal -1 0 0
    outer loop
      vertex 0 20 10.5
      vertex 0 35 10.5
      vertex 0 21.7634 9.92705
    endloop
  endfacet
  facet normal -1 0 0
    outer loop
      vertex 0 35 10.5
      vertex 0 20 10.5
      vertex 0 50 15
    endloop
  endfacet
  facet normal -1 0 0
    outer loop
      vertex 0 0 15
      vertex 0 17.1468 8.42705
      vertex 0 0 0
    endloop
  endfacet
  facet normal -1 0 0
    outer loop
      vertex 0 20 10.5
      vertex 0 0 15
      vertex 0 50 15
    endloop
  endfacet
  facet normal -1 0 0
    outer loop
      vertex 0 18.2366 9.92705
      vertex 0 0 15
      vertex 0 20 10.5
    endloop
  endfacet
  facet normal -1 0 0
    outer loop
      vertex 0 17.1468 8.42705
      vertex 0 0 15
      vertex 0 18.2366 9.92705
    endloop
  endfacet
  facet normal -1 0 0
    outer loop
      vertex 0 21.4266 7.03647
      vertex 0 22.8532 6.57295
      vertex 0 21.7634 5.07295
    endloop
  endfacet
  facet normal -1 0 0
    outer loop
      vertex 0 22.8532 6.57295
      vertex 0 21.4266 7.03647
      vertex 0 22.8532 8.42705
    endloop
  endfacet
  facet normal -1 0 0
    outer loop
      vertex 0 20.8817 8.71352
      vertex 0 22.8532 8.42705
      vertex 0 21.4266 7.03647
    endloop
  endfacet
  facet normal -1 0 0
    outer loop
      vertex 0 20 6
      vertex 0 21.7634 5.07295
      vertex 0 20 4.5
    endloop
  endfacet
  facet normal -1 0 0
    outer loop
      vertex 0 21.7634 5.07295
      vertex 0 20 6
      vertex 0 21.4266 7.03647
    endloop
  endfacet
  facet normal -1 0 0
    outer loop
      vertex 0 18.2366 5.07295
      vertex 0 20 6
      vertex 0 20 4.5
    endloop
  endfacet
  facet normal -1 -0 0
    outer loop
      vertex 0 20 6
      vertex 0 18.2366 5.07295
      vertex 0 18.5734 7.03647
    endloop
  endfacet
  facet normal -1 0 0
    outer loop
      vertex 0 22.8532 8.42705
      vertex 0 20.8817 8.71352
      vertex 0 21.7634 9.92705
    endloop
  endfacet
  facet normal -1 0 0
    outer loop
      vertex 0 20.8817 8.71352
      vertex 0 20 10.5
      vertex 0 21.7634 9.92705
    endloop
  endfacet
  facet normal -1 0 0
    outer loop
      vertex 0 19.1183 8.71352
      vertex 0 20 10.5
      vertex 0 20.8817 8.71352
    endloop
  endfacet
  facet normal -1 0 0
    outer loop
      vertex 0 19.1183 8.71352
      vertex 0 18.2366 9.92705
      vertex 0 20 10.5
    endloop
  endfacet
  facet normal -1 0 0
    outer loop
      vertex 0 17.1468 8.42705
      vertex 0 19.1183 8.71352
      vertex 0 18.5734 7.03647
    endloop
  endfacet
  facet normal -1 0 0
    outer loop
      vertex 0 17.1468 6.57295
      vertex 0 18.5734 7.03647
      vertex 0 18.2366 5.07295
    endloop
  endfacet
  facet normal -1 0 0
    outer loop
      vertex 0 17.1468 8.42705
      vertex 0 18.5734 7.03647
      vertex 0 17.1468 6.57295
    endloop
  endfacet
  facet normal -1 -0 0
    outer loop
      vertex 0 19.1183 8.71352
      vertex 0 17.1468 8.42705
      vertex 0 18.2366 9.92705
    endloop
  endfacet
  facet normal -1 0 0
    outer loop
      vertex 0 36.4266 7.03647
      vertex 0 37.8532 6.57295
      vertex 0 36.7634 5.07295
    endloop
  endfacet
  facet normal -1 0 0
    outer loop
      vertex 0 37.8532 6.57295
      vertex 0 36.4266 7.03647
      vertex 0 37.8532 8.42705
    endloop
  endfacet
  facet normal -1 0 0
    outer loop
      vertex 0 35.8817 8.71352
      vertex 0 37.8532 8.42705
      vertex 0 36.4266 7.03647
    endloop
  endfacet
  facet normal -1 0 0
    outer loop
      vertex 0 35 6
      vertex 0 36.7634 5.07295
      vertex 0 35 4.5
    endloop
  endfacet
  facet normal -1 0 0
    outer loop
      vertex 0 36.7634 5.07295
      vertex 0 35 6
      vertex 0 36.4266 7.03647
    endloop
  endfacet
  facet normal -1 0 0
    outer loop
      vertex 0 33.2366 5.07295
      vertex 0 35 6
      vertex 0 35 4.5
    endloop
  endfacet
  facet normal -1 -0 0
    outer loop
      vertex 0 35 6
      vertex 0 33.2366 5.07295
      vertex 0 33.5734 7.03647
    endloop
  endfacet
  facet normal -1 0 0
    outer loop
      vertex 0 37.8532 8.42705
      vertex 0 35.8817 8.71352
      vertex 0 36.7634 9.92705
    endloop
  endfacet
  facet normal -1 0 0
    outer loop
      vertex 0 35.8817 8.71352
      vertex 0 35 10.5
      vertex 0 36.7634 9.92705
    endloop
  endfacet
  facet normal -1 0 0
    outer loop
      vertex 0 34.1183 8.71352
      vertex 0 35 10.5
      vertex 0 35.8817 8.71352
    endloop
  endfacet
  facet normal -1 0 0
    outer loop
      vertex 0 34.1183 8.71352
      vertex 0 33.2366 9.92705
      vertex 0 35 10.5
    endloop
  endfacet
  facet normal -1 0 0
    outer loop
      vertex 0 32.1468 8.42705
      vertex 0 34.1183 8.71352
      vertex 0 33.5734 7.03647
    endloop
  endfacet
  facet normal -1 0 0
    outer loop
      vertex 0 32.1468 6.57295
      vertex 0 33.5734 7.03647
      vertex 0 33.2366 5.07295
    endloop
  endfacet
  facet normal -1 0 0
    outer loop
      vertex 0 32.1468 8.42705
      vertex 0 33.5734 7.03647
      vertex 0 32.1468 6.57295
    endloop
  endfacet
  facet normal -1 -0 0
    outer loop
      vertex 0 34.1183 8.71352
      vertex 0 32.1468 8.42705
      vertex 0 33.2366 9.92705
    endloop
  endfacet
  facet normal 0 0 1
    outer loop
      vertex 6 50 15
      vertex 0 50 15
      vertex 6 21 15
    endloop
  endfacet
  facet normal -0 0 1
    outer loop
      vertex 21 6 15
      vertex 50 0 15
      vertex 50 6 15
    endloop
  endfacet
  facet normal 0 0 1
    outer loop
      vertex 21 6 15
      vertex 0 0 15
      vertex 50 0 15
    endloop
  endfacet
  facet normal 0 0 1
    outer loop
      vertex 6 21 15
      vertex 0 0 15
      vertex 21 6 15
    endloop
  endfacet
  facet normal 0 0 1
    outer loop
      vertex 0 0 15
      vertex 6 21 15
      vertex 0 50 15
    endloop
  endfacet
  facet normal 1 0 0
    outer loop
      vertex 6 50 15
      vertex 6 36.4266 7.03647
      vertex 6 50 4
    endloop
  endfacet
  facet normal 1 0 0
    outer loop
      vertex 6 50 15
      vertex 6 35.8817 8.71352
      vertex 6 36.4266 7.03647
    endloop
  endfacet
  facet normal 1 -0 0
    outer loop
      vertex 6 21 15
      vertex 6 35.8817 8.71352
      vertex 6 50 15
    endloop
  endfacet
  facet normal 1 0 0
    outer loop
      vertex 6 34.1183 8.71352
      vertex 6 22.8532 8.42705
      vertex 6 33.5734 7.03647
    endloop
  endfacet
  facet normal 1 0 0
    outer loop
      vertex 6 35.8817 8.71352
      vertex 6 21 15
      vertex 6 34.1183 8.71352
    endloop
  endfacet
  facet normal 1 -0 0
    outer loop
      vertex 6 21 14
      vertex 6 34.1183 8.71352
      vertex 6 21 15
    endloop
  endfacet
  facet normal 1 0 0
    outer loop
      vertex 6 34.1183 8.71352
      vertex 6 21 14
      vertex 6 22.8532 8.42705
    endloop
  endfacet
  facet normal 1 0 0
    outer loop
      vertex 6 22.8532 8.42705
      vertex 6 21 14
      vertex 6 21.7634 9.92705
    endloop
  endfacet
  facet normal 1 0 0
    outer loop
      vertex 6 21 14
      vertex 6 20 10.5
      vertex 6 21.7634 9.92705
    endloop
  endfacet
  facet normal 1 0 0
    outer loop
      vertex 6 21 14
      vertex 6 18.2366 9.92705
      vertex 6 20 10.5
    endloop
  endfacet
  facet normal 1 0 0
    outer loop
      vertex 6 10.2857 4
      vertex 6 18.2366 9.92705
      vertex 6 21 14
    endloop
  endfacet
  facet normal 1 0 0
    outer loop
      vertex 6 17.1468 8.42705
      vertex 6 10.2857 4
      vertex 6 17.1468 6.57295
    endloop
  endfacet
  facet normal 1 0 0
    outer loop
      vertex 6 18.2366 9.92705
      vertex 6 10.2857 4
      vertex 6 17.1468 8.42705
    endloop
  endfacet
  facet normal 1 -0 0
    outer loop
      vertex 6 35 6
      vertex 6 50 4
      vertex 6 36.4266 7.03647
    endloop
  endfacet
  facet normal 1 0 0
    outer loop
      vertex 6 22.8532 6.57295
      vertex 6 33.5734 7.03647
      vertex 6 22.8532 8.42705
    endloop
  endfacet
  facet normal 1 0 0
    outer loop
      vertex 6 21.7634 5.07295
      vertex 6 33.5734 7.03647
      vertex 6 22.8532 6.57295
    endloop
  endfacet
  facet normal 1 0 0
    outer loop
      vertex 6 33.5734 7.03647
      vertex 6 21.7634 5.07295
      vertex 6 35 6
    endloop
  endfacet
  facet normal 1 0 0
    outer loop
      vertex 6 20 4.5
      vertex 6 35 6
      vertex 6 21.7634 5.07295
    endloop
  endfacet
  facet normal 1 0 0
    outer loop
      vertex 6 35 6
      vertex 6 20 4.5
      vertex 6 50 4
    endloop
  endfacet
  facet normal 1 0 0
    outer loop
      vertex 6 20 4.5
      vertex 6 10.2857 4
      vertex 6 50 4
    endloop
  endfacet
  facet normal 1 0 0
    outer loop
      vertex 6 18.2366 5.07295
      vertex 6 10.2857 4
      vertex 6 20 4.5
    endloop
  endfacet
  facet normal 1 0 0
    outer loop
      vertex 6 10.2857 4
      vertex 6 18.2366 5.07295
      vertex 6 17.1468 6.57295
    endloop
  endfacet
  facet normal 0 0 -1
    outer loop
      vertex 28.4635 20.5734 0
      vertex 50 6 0
      vertex 50 0 0
    endloop
  endfacet
  facet normal 0 0 -1
    outer loop
      vertex 50 6 0
      vertex 28.4635 20.5734 0
      vertex 29.5 22 0
    endloop
  endfacet
  facet normal 0 0 -1
    outer loop
      vertex 0 0 0
      vertex 28.4635 20.5734 0
      vertex 50 0 0
    endloop
  endfacet
  facet normal 0 0 -1
    outer loop
      vertex 0 50 0
      vertex 20.7865 28.8817 0
      vertex 20.7865 27.1183 0
    endloop
  endfacet
  facet normal -0 0 -1
    outer loop
      vertex 28.4635 20.5734 0
      vertex 0 0 0
      vertex 26.7865 21.1183 0
    endloop
  endfacet
  facet normal 0 0 -1
    outer loop
      vertex 0 0 0
      vertex 20.7865 27.1183 0
      vertex 26.7865 21.1183 0
    endloop
  endfacet
  facet normal 0 0 -1
    outer loop
      vertex 0 50 0
      vertex 20.7865 27.1183 0
      vertex 0 0 0
    endloop
  endfacet
  facet normal 0 0 -1
    outer loop
      vertex 20.7865 28.8817 0
      vertex 0 50 0
      vertex 6 50 0
    endloop
  endfacet
  facet normal 0 0 -1
    outer loop
      vertex 28.4635 23.4266 0
      vertex 50 6 0
      vertex 29.5 22 0
    endloop
  endfacet
  facet normal 0 0 -1
    outer loop
      vertex 22.4635 29.4266 0
      vertex 50 6 0
      vertex 28.4635 23.4266 0
    endloop
  endfacet
  facet normal 0 0 -1
    outer loop
      vertex 22.4635 29.4266 0
      vertex 6 50 0
      vertex 50 6 0
    endloop
  endfacet
  facet normal 0 0 -1
    outer loop
      vertex 6 50 0
      vertex 22.4635 29.4266 0
      vertex 20.7865 28.8817 0
    endloop
  endfacet
  facet normal 0 -1 0
    outer loop
      vertex 22.4271 0 9.26336
      vertex 34.0729 0 10.3532
      vertex 20.9271 0 10.3532
    endloop
  endfacet
  facet normal 0 -1 0
    outer loop
      vertex 22.4271 0 9.26336
      vertex 32.5729 0 9.26336
      vertex 34.0729 0 10.3532
    endloop
  endfacet
  facet normal 0 -1 0
    outer loop
      vertex 23 0 7.5
      vertex 32.5729 0 9.26336
      vertex 22.4271 0 9.26336
    endloop
  endfacet
  facet normal 0 -1 0
    outer loop
      vertex 23 0 7.5
      vertex 32 0 7.5
      vertex 32.5729 0 9.26336
    endloop
  endfacet
  facet normal 0 -1 0
    outer loop
      vertex 22.4271 0 5.73664
      vertex 32 0 7.5
      vertex 23 0 7.5
    endloop
  endfacet
  facet normal 0 -1 0
    outer loop
      vertex 22.4271 0 5.73664
      vertex 32.5729 0 5.73664
      vertex 32 0 7.5
    endloop
  endfacet
  facet normal 0 -1 0
    outer loop
      vertex 20.9271 0 4.64683
      vertex 32.5729 0 5.73664
      vertex 22.4271 0 5.73664
    endloop
  endfacet
  facet normal 0 -1 -0
    outer loop
      vertex 32.5729 0 5.73664
      vertex 20.9271 0 4.64683
      vertex 34.0729 0 4.64683
    endloop
  endfacet
  facet normal 0 -1 0
    outer loop
      vertex 20.9271 0 10.3532
      vertex 0 0 15
      vertex 19.0729 0 10.3532
    endloop
  endfacet
  facet normal 0 -1 0
    outer loop
      vertex 0 0 15
      vertex 17.5729 0 9.26336
      vertex 19.0729 0 10.3532
    endloop
  endfacet
  facet normal 0 -1 0
    outer loop
      vertex 0 0 15
      vertex 17 0 7.5
      vertex 17.5729 0 9.26336
    endloop
  endfacet
  facet normal 0 -1 0
    outer loop
      vertex 0 0 0
      vertex 17 0 7.5
      vertex 0 0 15
    endloop
  endfacet
  facet normal 0 -1 -0
    outer loop
      vertex 17 0 7.5
      vertex 0 0 0
      vertex 17.5729 0 5.73664
    endloop
  endfacet
  facet normal 0 -1 0
    outer loop
      vertex 0 0 0
      vertex 20.9271 0 4.64683
      vertex 19.0729 0 4.64683
    endloop
  endfacet
  facet normal 0 -1 0
    outer loop
      vertex 20.9271 0 4.64683
      vertex 50 0 0
      vertex 34.0729 0 4.64683
    endloop
  endfacet
  facet normal 0 -1 -0
    outer loop
      vertex 20.9271 0 4.64683
      vertex 0 0 0
      vertex 50 0 0
    endloop
  endfacet
  facet normal 0 -1 -0
    outer loop
      vertex 17.5729 0 5.73664
      vertex 0 0 0
      vertex 19.0729 0 4.64683
    endloop
  endfacet
  facet normal 0 -1 0
    outer loop
      vertex 0 0 15
      vertex 20.9271 0 10.3532
      vertex 50 0 15
    endloop
  endfacet
  facet normal 0 -1 0
    outer loop
      vertex 34.0729 0 10.3532
      vertex 50 0 15
      vertex 20.9271 0 10.3532
    endloop
  endfacet
  facet normal 0 -1 0
    outer loop
      vertex 35.9271 0 10.3532
      vertex 50 0 15
      vertex 34.0729 0 10.3532
    endloop
  endfacet
  facet normal 0 -1 0
    outer loop
      vertex 37.4271 0 9.26336
      vertex 50 0 15
      vertex 35.9271 0 10.3532
    endloop
  endfacet
  facet normal 0 -1 0
    outer loop
      vertex 38 0 7.5
      vertex 50 0 15
      vertex 37.4271 0 9.26336
    endloop
  endfacet
  facet normal 0 -1 0
    outer loop
      vertex 50 0 0
      vertex 38 0 7.5
      vertex 37.4271 0 5.73664
    endloop
  endfacet
  facet normal 0 -1 0
    outer loop
      vertex 38 0 7.5
      vertex 50 0 0
      vertex 50 0 15
    endloop
  endfacet
  facet normal 0 -1 0
    outer loop
      vertex 35.9271 0 4.64683
      vertex 50 0 0
      vertex 37.4271 0 5.73664
    endloop
  endfacet
  facet normal 0 -1 0
    outer loop
      vertex 34.0729 0 4.64683
      vertex 50 0 0
      vertex 35.9271 0 4.64683
    endloop
  endfacet
  facet normal 0 -1 0
    outer loop
      vertex 18.7865 0 8.38168
      vertex 19.0729 0 10.3532
      vertex 17.5729 0 9.26336
    endloop
  endfacet
  facet normal 0 -1 0
    outer loop
      vertex 19.0729 0 10.3532
      vertex 20.4635 0 8.92658
      vertex 20.9271 0 10.3532
    endloop
  endfacet
  facet normal 0 -1 -0
    outer loop
      vertex 20.9271 0 10.3532
      vertex 20.4635 0 8.92658
      vertex 22.4271 0 9.26336
    endloop
  endfacet
  facet normal 0 -1 -0
    outer loop
      vertex 19.0729 0 10.3532
      vertex 18.7865 0 8.38168
      vertex 20.4635 0 8.92658
    endloop
  endfacet
  facet normal 0 -1 0
    outer loop
      vertex 17 0 7.5
      vertex 18.7865 0 8.38168
      vertex 17.5729 0 9.26336
    endloop
  endfacet
  facet normal 0 -1 0
    outer loop
      vertex 17 0 7.5
      vertex 18.7865 0 6.61832
      vertex 18.7865 0 8.38168
    endloop
  endfacet
  facet normal 0 -1 0
    outer loop
      vertex 19.0729 0 4.64683
      vertex 18.7865 0 6.61832
      vertex 17.5729 0 5.73664
    endloop
  endfacet
  facet normal 0 -1 0
    outer loop
      vertex 17.5729 0 5.73664
      vertex 18.7865 0 6.61832
      vertex 17 0 7.5
    endloop
  endfacet
  facet normal 0 -1 0
    outer loop
      vertex 21.5 0 7.5
      vertex 22.4271 0 9.26336
      vertex 20.4635 0 8.92658
    endloop
  endfacet
  facet normal 0 -1 0
    outer loop
      vertex 21.5 0 7.5
      vertex 23 0 7.5
      vertex 22.4271 0 9.26336
    endloop
  endfacet
  facet normal 0 -1 0
    outer loop
      vertex 22.4271 0 5.73664
      vertex 21.5 0 7.5
      vertex 20.4635 0 6.07341
    endloop
  endfacet
  facet normal 0 -1 0
    outer loop
      vertex 21.5 0 7.5
      vertex 22.4271 0 5.73664
      vertex 23 0 7.5
    endloop
  endfacet
  facet normal 0 -1 0
    outer loop
      vertex 18.7865 0 6.61832
      vertex 19.0729 0 4.64683
      vertex 20.4635 0 6.07341
    endloop
  endfacet
  facet normal 0 -1 0
    outer loop
      vertex 20.9271 0 4.64683
      vertex 20.4635 0 6.07341
      vertex 19.0729 0 4.64683
    endloop
  endfacet
  facet normal 0 -1 0
    outer loop
      vertex 20.4635 0 6.07341
      vertex 20.9271 0 4.64683
      vertex 22.4271 0 5.73664
    endloop
  endfacet
  facet normal 0 -1 0
    outer loop
      vertex 33.7865 0 8.38168
      vertex 34.0729 0 10.3532
      vertex 32.5729 0 9.26336
    endloop
  endfacet
  facet normal 0 -1 0
    outer loop
      vertex 34.0729 0 10.3532
      vertex 35.4635 0 8.92658
      vertex 35.9271 0 10.3532
    endloop
  endfacet
  facet normal 0 -1 -0
    outer loop
      vertex 35.9271 0 10.3532
      vertex 35.4635 0 8.92658
      vertex 37.4271 0 9.26336
    endloop
  endfacet
  facet normal 0 -1 -0
    outer loop
      vertex 34.0729 0 10.3532
      vertex 33.7865 0 8.38168
      vertex 35.4635 0 8.92658
    endloop
  endfacet
  facet normal 0 -1 0
    outer loop
      vertex 32 0 7.5
      vertex 33.7865 0 8.38168
      vertex 32.5729 0 9.26336
    endloop
  endfacet
  facet normal 0 -1 0
    outer loop
      vertex 32 0 7.5
      vertex 33.7865 0 6.61832
      vertex 33.7865 0 8.38168
    endloop
  endfacet
  facet normal 0 -1 0
    outer loop
      vertex 34.0729 0 4.64683
      vertex 33.7865 0 6.61832
      vertex 32.5729 0 5.73664
    endloop
  endfacet
  facet normal 0 -1 0
    outer loop
      vertex 32.5729 0 5.73664
      vertex 33.7865 0 6.61832
      vertex 32 0 7.5
    endloop
  endfacet
  facet normal 0 -1 0
    outer loop
      vertex 36.5 0 7.5
      vertex 37.4271 0 9.26336
      vertex 35.4635 0 8.92658
    endloop
  endfacet
  facet normal 0 -1 0
    outer loop
      vertex 36.5 0 7.5
      vertex 38 0 7.5
      vertex 37.4271 0 9.26336
    endloop
  endfacet
  facet normal 0 -1 0
    outer loop
      vertex 37.4271 0 5.73664
      vertex 36.5 0 7.5
      vertex 35.4635 0 6.07341
    endloop
  endfacet
  facet normal 0 -1 0
    outer loop
      vertex 36.5 0 7.5
      vertex 37.4271 0 5.73664
      vertex 38 0 7.5
    endloop
  endfacet
  facet normal 0 -1 0
    outer loop
      vertex 33.7865 0 6.61832
      vertex 34.0729 0 4.64683
      vertex 35.4635 0 6.07341
    endloop
  endfacet
  facet normal 0 -1 0
    outer loop
      vertex 35.9271 0 4.64683
      vertex 35.4635 0 6.07341
      vertex 34.0729 0 4.64683
    endloop
  endfacet
  facet normal 0 -1 0
    outer loop
      vertex 35.4635 0 6.07341
      vertex 35.9271 0 4.64683
      vertex 37.4271 0 5.73664
    endloop
  endfacet
  facet normal 0 1 -0
    outer loop
      vertex 6 50 4
      vertex 0 50 15
      vertex 6 50 15
    endloop
  endfacet
  facet normal 0 1 0
    outer loop
      vertex 0 50 0
      vertex 6 50 4
      vertex 6 50 0
    endloop
  endfacet
  facet normal 0 1 0
    outer loop
      vertex 6 50 4
      vertex 0 50 0
      vertex 0 50 15
    endloop
  endfacet
  facet normal 1 -0 0
    outer loop
      vertex 50 0 15
      vertex 50 6 4
      vertex 50 6 15
    endloop
  endfacet
  facet normal 1 0 0
    outer loop
      vertex 50 0 0
      vertex 50 6 4
      vertex 50 0 15
    endloop
  endfacet
  facet normal 1 0 0
    outer loop
      vertex 50 6 4
      vertex 50 0 0
      vertex 50 6 0
    endloop
  endfacet
  facet normal 0 1 -0
    outer loop
      vertex 35.4635 6 8.92658
      vertex 21 6 15
      vertex 50 6 15
    endloop
  endfacet
  facet normal 0 1 -0
    outer loop
      vertex 33.7865 6 8.38168
      vertex 21 6 15
      vertex 35.4635 6 8.92658
    endloop
  endfacet
  facet normal 0 1 0
    outer loop
      vertex 21 6 15
      vertex 33.7865 6 8.38168
      vertex 21 6 14
    endloop
  endfacet
  facet normal -0 1 -0
    outer loop
      vertex 22.4271 6 9.26336
      vertex 21 6 14
      vertex 33.7865 6 8.38168
    endloop
  endfacet
  facet normal 0 1 0
    outer loop
      vertex 50 6 15
      vertex 36.5 6 7.5
      vertex 35.4635 6 8.92658
    endloop
  endfacet
  facet normal 0 1 -0
    outer loop
      vertex 50 6 4
      vertex 36.5 6 7.5
      vertex 50 6 15
    endloop
  endfacet
  facet normal 0 1 0
    outer loop
      vertex 33.7865 6 6.61832
      vertex 20.9271 6 4.64683
      vertex 22.4271 6 5.73664
    endloop
  endfacet
  facet normal 0 1 0
    outer loop
      vertex 10.2857 6 4
      vertex 20.9271 6 4.64683
      vertex 50 6 4
    endloop
  endfacet
  facet normal 0 1 0
    outer loop
      vertex 35.4635 6 6.07341
      vertex 50 6 4
      vertex 20.9271 6 4.64683
    endloop
  endfacet
  facet normal 0 1 0
    outer loop
      vertex 36.5 6 7.5
      vertex 50 6 4
      vertex 35.4635 6 6.07341
    endloop
  endfacet
  facet normal 0 1 0
    outer loop
      vertex 19.0729 6 10.3532
      vertex 21 6 14
      vertex 20.9271 6 10.3532
    endloop
  endfacet
  facet normal 0 1 0
    outer loop
      vertex 17.5729 6 9.26336
      vertex 21 6 14
      vertex 19.0729 6 10.3532
    endloop
  endfacet
  facet normal 0 1 -0
    outer loop
      vertex 17.5729 6 9.26336
      vertex 10.2857 6 4
      vertex 21 6 14
    endloop
  endfacet
  facet normal 0 1 -0
    outer loop
      vertex 17 6 7.5
      vertex 10.2857 6 4
      vertex 17.5729 6 9.26336
    endloop
  endfacet
  facet normal 0 1 0
    outer loop
      vertex 17.5729 6 5.73664
      vertex 10.2857 6 4
      vertex 17 6 7.5
    endloop
  endfacet
  facet normal 0 1 0
    outer loop
      vertex 19.0729 6 4.64683
      vertex 10.2857 6 4
      vertex 17.5729 6 5.73664
    endloop
  endfacet
  facet normal 0 1 0
    outer loop
      vertex 20.9271 6 4.64683
      vertex 10.2857 6 4
      vertex 19.0729 6 4.64683
    endloop
  endfacet
  facet normal 0 1 0
    outer loop
      vertex 21 6 14
      vertex 22.4271 6 9.26336
      vertex 20.9271 6 10.3532
    endloop
  endfacet
  facet normal 0 1 0
    outer loop
      vertex 33.7865 6 8.38168
      vertex 23 6 7.5
      vertex 22.4271 6 9.26336
    endloop
  endfacet
  facet normal 0 1 -0
    outer loop
      vertex 33.7865 6 6.61832
      vertex 23 6 7.5
      vertex 33.7865 6 8.38168
    endloop
  endfacet
  facet normal 0 1 0
    outer loop
      vertex 20.9271 6 4.64683
      vertex 33.7865 6 6.61832
      vertex 35.4635 6 6.07341
    endloop
  endfacet
  facet normal 0 1 0
    outer loop
      vertex 33.7865 6 6.61832
      vertex 22.4271 6 5.73664
      vertex 23 6 7.5
    endloop
  endfacet
  facet normal 0 0 1
    outer loop
      vertex 50 6 4
      vertex 28.4635 23.4266 4
      vertex 29.5 22 4
    endloop
  endfacet
  facet normal 0 0 1
    outer loop
      vertex 50 6 4
      vertex 22.4635 29.4266 4
      vertex 28.4635 23.4266 4
    endloop
  endfacet
  facet normal 0 0 1
    outer loop
      vertex 6 10.2857 4
      vertex 20.7865 27.1183 4
      vertex 20.7865 28.8817 4
    endloop
  endfacet
  facet normal 0 0 1
    outer loop
      vertex 6 50 4
      vertex 22.4635 29.4266 4
      vertex 50 6 4
    endloop
  endfacet
  facet normal 0 0 1
    outer loop
      vertex 6 50 4
      vertex 20.7865 28.8817 4
      vertex 22.4635 29.4266 4
    endloop
  endfacet
  facet normal 0 0 1
    outer loop
      vertex 6 10.2857 4
      vertex 20.7865 28.8817 4
      vertex 6 50 4
    endloop
  endfacet
  facet normal 0 0 1
    outer loop
      vertex 20.7865 27.1183 4
      vertex 6 10.2857 4
      vertex 10.2857 6 4
    endloop
  endfacet
  facet normal -0 0 1
    outer loop
      vertex 28.4635 20.5734 4
      vertex 50 6 4
      vertex 29.5 22 4
    endloop
  endfacet
  facet normal 0 0 1
    outer loop
      vertex 10.2857 6 4
      vertex 28.4635 20.5734 4
      vertex 26.7865 21.1183 4
    endloop
  endfacet
  facet normal 0 0 1
    outer loop
      vertex 28.4635 20.5734 4
      vertex 10.2857 6 4
      vertex 50 6 4
    endloop
  endfacet
  facet normal 0 0 1
    outer loop
      vertex 10.2857 6 4
      vertex 26.7865 21.1183 4
      vertex 20.7865 27.1183 4
    endloop
  endfacet
  facet normal 0.707107 0.707107 0
    outer loop
      vertex 50 6 4
      vertex 6 50 0
      vertex 6 50 4
    endloop
  endfacet
  facet normal 0.707107 0.707107 0
    outer loop
      vertex 6 50 0
      vertex 50 6 4
      vertex 50 6 0
    endloop
  endfacet
  facet normal 0.707107 0.707107 0
    outer loop
      vertex 21 6 15
      vertex 6 21 14
      vertex 6 21 15
    endloop
  endfacet
  facet normal 0.707107 0.707107 0
    outer loop
      vertex 6 21 14
      vertex 21 6 15
      vertex 21 6 14
    endloop
  endfacet
  facet normal 0.563619 0.563619 -0.603877
    outer loop
      vertex 6 10.2857 4
      vertex 21 6 14
      vertex 10.2857 6 4
    endloop
  endfacet
  facet normal 0.563619 0.563619 -0.603877
    outer loop
      vertex 21 6 14
      vertex 6 10.2857 4
      vertex 6 21 14
    endloop
  endfacet
  facet normal -0.809017 0 0.587786
    outer loop
      vertex 35.4635 0 6.07341
      vertex 36.5 6 7.5
      vertex 35.4635 6 6.07341
    endloop
  endfacet
  facet normal -0.809017 0 0.587786
    outer loop
      vertex 36.5 6 7.5
      vertex 35.4635 0 6.07341
      vertex 36.5 0 7.5
    endloop
  endfacet
  facet normal 1 -0 0
    outer loop
      vertex 33.7865 0 8.38168
      vertex 33.7865 6 6.61832
      vertex 33.7865 6 8.38168
    endloop
  endfacet
  facet normal 1 0 0
    outer loop
      vertex 33.7865 6 6.61832
      vertex 33.7865 0 8.38168
      vertex 33.7865 0 6.61832
    endloop
  endfacet
  facet normal 0.309017 0 0.951056
    outer loop
      vertex 33.7865 6 6.61832
      vertex 35.4635 0 6.07341
      vertex 35.4635 6 6.07341
    endloop
  endfacet
  facet normal 0.309017 0 0.951056
    outer loop
      vertex 35.4635 0 6.07341
      vertex 33.7865 6 6.61832
      vertex 33.7865 0 6.61832
    endloop
  endfacet
  facet normal -0.809016 0 -0.587786
    outer loop
      vertex 36.5 0 7.5
      vertex 35.4635 6 8.92658
      vertex 36.5 6 7.5
    endloop
  endfacet
  facet normal -0.809016 -0 -0.587786
    outer loop
      vertex 35.4635 6 8.92658
      vertex 36.5 0 7.5
      vertex 35.4635 0 8.92658
    endloop
  endfacet
  facet normal 0.309017 0 -0.951056
    outer loop
      vertex 33.7865 0 8.38168
      vertex 35.4635 6 8.92658
      vertex 35.4635 0 8.92658
    endloop
  endfacet
  facet normal 0.309017 0 -0.951056
    outer loop
      vertex 35.4635 6 8.92658
      vertex 33.7865 0 8.38168
      vertex 33.7865 6 8.38168
    endloop
  endfacet
  facet normal -0.809016 0 0.587787
    outer loop
      vertex 20.4635 0 6.07341
      vertex 20.9271 6 6.7114
      vertex 20.4635 6 6.07341
    endloop
  endfacet
  facet normal -0.809017 2.16983e-007 0.587786
    outer loop
      vertex 21.5 0 7.5
      vertex 20.9271 6 6.7114
      vertex 20.4635 0 6.07341
    endloop
  endfacet
  facet normal -0.809017 0 0.587785
    outer loop
      vertex 20.9271 6 6.7114
      vertex 21.5 0 7.5
      vertex 21.5 6 7.5
    endloop
  endfacet
  facet normal 1 -0 0
    outer loop
      vertex 18.7865 0 8.38168
      vertex 18.7865 6 6.61832
      vertex 18.7865 6 8.38168
    endloop
  endfacet
  facet normal 1 0 0
    outer loop
      vertex 18.7865 6 6.61832
      vertex 18.7865 0 8.38168
      vertex 18.7865 0 6.61832
    endloop
  endfacet
  facet normal 0.309017 0 0.951056
    outer loop
      vertex 19.0729 6 6.52524
      vertex 20.4635 0 6.07341
      vertex 20.4635 6 6.07341
    endloop
  endfacet
  facet normal 0.309017 -0 0.951057
    outer loop
      vertex 18.7865 0 6.61832
      vertex 19.0729 6 6.52524
      vertex 18.7865 6 6.61832
    endloop
  endfacet
  facet normal 0.309017 -2.35499e-008 0.951056
    outer loop
      vertex 19.0729 6 6.52524
      vertex 18.7865 0 6.61832
      vertex 20.4635 0 6.07341
    endloop
  endfacet
  facet normal -0.809017 0 -0.587785
    outer loop
      vertex 21.5 0 7.5
      vertex 20.9271 6 8.2886
      vertex 21.5 6 7.5
    endloop
  endfacet
  facet normal -0.809016 1.75201e-007 -0.587786
    outer loop
      vertex 20.4635 0 8.92658
      vertex 20.9271 6 8.2886
      vertex 21.5 0 7.5
    endloop
  endfacet
  facet normal -0.809016 0 -0.587787
    outer loop
      vertex 20.9271 6 8.2886
      vertex 20.4635 0 8.92658
      vertex 20.4635 6 8.92658
    endloop
  endfacet
  facet normal 0.309017 0 -0.951057
    outer loop
      vertex 20.4635 0 8.92658
      vertex 19.0729 6 8.47476
      vertex 20.4635 6 8.92658
    endloop
  endfacet
  facet normal 0.309017 5.20333e-008 -0.951056
    outer loop
      vertex 18.7865 0 8.38168
      vertex 19.0729 6 8.47476
      vertex 20.4635 0 8.92658
    endloop
  endfacet
  facet normal 0.309018 0 -0.951056
    outer loop
      vertex 19.0729 6 8.47476
      vertex 18.7865 0 8.38168
      vertex 18.7865 6 8.38168
    endloop
  endfacet
  facet normal 3.17891e-007 1 2.30962e-007
    outer loop
      vertex 20.9271 6 10.3532
      vertex 21.5 6 7.5
      vertex 20.9271 6 8.2886
    endloop
  endfacet
  facet normal -3.17891e-007 1 1.03289e-007
    outer loop
      vertex 22.4271 6 5.73664
      vertex 21.5 6 7.5
      vertex 20.9271 6 10.3532
    endloop
  endfacet
  facet normal -2.15939e-007 1 1.56889e-007
    outer loop
      vertex 22.4271 6 5.73664
      vertex 20.9271 6 6.7114
      vertex 21.5 6 7.5
    endloop
  endfacet
  facet normal -1.67803e-007 1 2.30962e-007
    outer loop
      vertex 20.9271 6 6.7114
      vertex 22.4271 6 5.73664
      vertex 20.9271 6 4.64683
    endloop
  endfacet
  facet normal -8.24816e-008 1 2.53851e-007
    outer loop
      vertex 18.7865 6 8.38168
      vertex 19.0729 6 10.3532
      vertex 19.0729 6 8.47476
    endloop
  endfacet
  facet normal -1.96468e-007 1 2.70415e-007
    outer loop
      vertex 18.7865 6 8.38168
      vertex 17.5729 6 5.73664
      vertex 19.0729 6 10.3532
    endloop
  endfacet
  facet normal 3.92935e-007 1 -0
    outer loop
      vertex 18.7865 6 6.61832
      vertex 17.5729 6 5.73664
      vertex 18.7865 6 8.38168
    endloop
  endfacet
  facet normal 1.21424e-007 1 3.73704e-007
    outer loop
      vertex 19.0729 6 6.52524
      vertex 17.5729 6 5.73664
      vertex 18.7865 6 6.61832
    endloop
  endfacet
  facet normal 1.84434e-007 1 2.53851e-007
    outer loop
      vertex 17.5729 6 5.73664
      vertex 19.0729 6 6.52524
      vertex 19.0729 6 4.64683
    endloop
  endfacet
  facet normal -3.17892e-007 1 1.03289e-007
    outer loop
      vertex 23 6 7.5
      vertex 22.4271 6 5.73664
      vertex 20.9271 6 10.3532
    endloop
  endfacet
  facet normal -0 1 3.34251e-007
    outer loop
      vertex 19.0729 6 4.64683
      vertex 20.4635 6 6.07341
      vertex 20.9271 6 4.64683
    endloop
  endfacet
  facet normal 8.24814e-008 1 2.53851e-007
    outer loop
      vertex 20.4635 6 6.07341
      vertex 19.0729 6 4.64683
      vertex 19.0729 6 6.52524
    endloop
  endfacet
  facet normal -3.1789e-007 1 2.30962e-007
    outer loop
      vertex 20.9271 6 6.7114
      vertex 20.9271 6 4.64683
      vertex 20.4635 6 6.07341
    endloop
  endfacet
  facet normal 0 1 3.34251e-007
    outer loop
      vertex 20.9271 6 10.3532
      vertex 20.4635 6 8.92658
      vertex 19.0729 6 10.3532
    endloop
  endfacet
  facet normal 3.1789e-007 1 2.30962e-007
    outer loop
      vertex 20.4635 6 8.92658
      vertex 20.9271 6 10.3532
      vertex 20.9271 6 8.2886
    endloop
  endfacet
  facet normal -8.24813e-008 1 2.53851e-007
    outer loop
      vertex 19.0729 6 10.3532
      vertex 20.4635 6 8.92658
      vertex 19.0729 6 8.47476
    endloop
  endfacet
  facet normal 3.17892e-007 1 1.03289e-007
    outer loop
      vertex 19.0729 6 10.3532
      vertex 17.5729 6 5.73664
      vertex 17 6 7.5
    endloop
  endfacet
  facet normal 8.32251e-007 1 -2.70414e-007
    outer loop
      vertex 17.5729 6 9.26336
      vertex 19.0729 6 10.3532
      vertex 17 6 7.5
    endloop
  endfacet
  facet normal -8.32251e-007 1 -2.70414e-007
    outer loop
      vertex 22.4271 6 9.26336
      vertex 23 6 7.5
      vertex 20.9271 6 10.3532
    endloop
  endfacet
  facet normal 0 -0.587786 0.809017
    outer loop
      vertex 0 36.4266 7.03647
      vertex 6 35 6
      vertex 6 36.4266 7.03647
    endloop
  endfacet
  facet normal 0 -0.587786 0.809017
    outer loop
      vertex 6 35 6
      vertex 0 36.4266 7.03647
      vertex 0 35 6
    endloop
  endfacet
  facet normal 0 0 -1
    outer loop
      vertex 0 34.1183 8.71352
      vertex 6 35.8817 8.71352
      vertex 6 34.1183 8.71352
    endloop
  endfacet
  facet normal -0 0 -1
    outer loop
      vertex 6 35.8817 8.71352
      vertex 0 34.1183 8.71352
      vertex 0 35.8817 8.71352
    endloop
  endfacet
  facet normal 0 -0.951057 -0.309017
    outer loop
      vertex 0 36.4266 7.03647
      vertex 6 35.8817 8.71352
      vertex 0 35.8817 8.71352
    endloop
  endfacet
  facet normal 0 -0.951057 -0.309017
    outer loop
      vertex 6 35.8817 8.71352
      vertex 0 36.4266 7.03647
      vertex 6 36.4266 7.03647
    endloop
  endfacet
  facet normal 0 0.951057 -0.309017
    outer loop
      vertex 6 33.5734 7.03647
      vertex 0 34.1183 8.71352
      vertex 6 34.1183 8.71352
    endloop
  endfacet
  facet normal 0 0.951057 -0.309017
    outer loop
      vertex 0 34.1183 8.71352
      vertex 6 33.5734 7.03647
      vertex 0 33.5734 7.03647
    endloop
  endfacet
  facet normal -0 0.587785 0.809017
    outer loop
      vertex 0 35 6
      vertex 6 33.5734 7.03647
      vertex 6 35 6
    endloop
  endfacet
  facet normal 0 0.587785 0.809017
    outer loop
      vertex 6 33.5734 7.03647
      vertex 0 35 6
      vertex 0 33.5734 7.03647
    endloop
  endfacet
  facet normal 0 -0.587785 0.809017
    outer loop
      vertex 0 21.4266 7.03647
      vertex 6 20.638 6.46353
      vertex 6 21.4266 7.03647
    endloop
  endfacet
  facet normal -6.2167e-008 -0.587785 0.809017
    outer loop
      vertex 0 20 6
      vertex 6 20.638 6.46353
      vertex 0 21.4266 7.03647
    endloop
  endfacet
  facet normal 0 -0.587786 0.809017
    outer loop
      vertex 6 20.638 6.46353
      vertex 0 20 6
      vertex 6 20 6
    endloop
  endfacet
  facet normal 0 0 -1
    outer loop
      vertex 0 19.1183 8.71352
      vertex 6 20.8817 8.71352
      vertex 6 19.1183 8.71352
    endloop
  endfacet
  facet normal -0 0 -1
    outer loop
      vertex 6 20.8817 8.71352
      vertex 0 19.1183 8.71352
      vertex 0 20.8817 8.71352
    endloop
  endfacet
  facet normal 0 -0.951056 -0.309018
    outer loop
      vertex 0 20.8817 8.71352
      vertex 6 21.1254 7.96352
      vertex 6 20.8817 8.71352
    endloop
  endfacet
  facet normal 1.24688e-007 -0.951057 -0.309017
    outer loop
      vertex 0 21.4266 7.03647
      vertex 6 21.1254 7.96352
      vertex 0 20.8817 8.71352
    endloop
  endfacet
  facet normal 0 -0.951057 -0.309016
    outer loop
      vertex 6 21.1254 7.96352
      vertex 0 21.4266 7.03647
      vertex 6 21.4266 7.03647
    endloop
  endfacet
  facet normal 0 0.951057 -0.309016
    outer loop
      vertex 6 18.8746 7.96353
      vertex 0 19.1183 8.71352
      vertex 6 19.1183 8.71352
    endloop
  endfacet
  facet normal 0 0.951056 -0.309018
    outer loop
      vertex 0 18.5734 7.03647
      vertex 6 18.8746 7.96353
      vertex 6 18.5734 7.03647
    endloop
  endfacet
  facet normal -1.28528e-007 0.951057 -0.309017
    outer loop
      vertex 6 18.8746 7.96353
      vertex 0 18.5734 7.03647
      vertex 0 19.1183 8.71352
    endloop
  endfacet
  facet normal -0 0.587785 0.809018
    outer loop
      vertex 0 20 6
      vertex 6 19.362 6.46353
      vertex 6 20 6
    endloop
  endfacet
  facet normal 4.11222e-008 0.587785 0.809017
    outer loop
      vertex 0 18.5734 7.03647
      vertex 6 19.362 6.46353
      vertex 0 20 6
    endloop
  endfacet
  facet normal 0 0.587785 0.809017
    outer loop
      vertex 6 19.362 6.46353
      vertex 0 18.5734 7.03647
      vertex 6 18.5734 7.03647
    endloop
  endfacet
  facet normal 1 0 0
    outer loop
      vertex 6 21.7634 9.92705
      vertex 6 20 10.5
      vertex 6 18.2366 9.92705
    endloop
  endfacet
  facet normal 1 -3.73704e-007 1.21424e-007
    outer loop
      vertex 6 18.8746 7.96353
      vertex 6 18.2366 9.92705
      vertex 6 18.5734 7.03647
    endloop
  endfacet
  facet normal 1 1.56889e-007 2.15939e-007
    outer loop
      vertex 6 18.2366 5.07295
      vertex 6 19.362 6.46353
      vertex 6 18.5734 7.03647
    endloop
  endfacet
  facet normal 1 8.82195e-008 2.71512e-007
    outer loop
      vertex 6 19.362 6.46353
      vertex 6 18.2366 5.07295
      vertex 6 20 4.5
    endloop
  endfacet
  facet normal 1 2.70416e-007 1.96468e-007
    outer loop
      vertex 6 18.2366 5.07295
      vertex 6 18.5734 7.03647
      vertex 6 18.2366 9.92705
    endloop
  endfacet
  facet normal 1 -8.75081e-007 0
    outer loop
      vertex 6 22.8532 6.57295
      vertex 6 22.8532 8.42705
      vertex 6 21.7634 9.92705
    endloop
  endfacet
  facet normal 1 -2.70415e-007 1.96468e-007
    outer loop
      vertex 6 21.7634 5.07295
      vertex 6 22.8532 6.57295
      vertex 6 21.7634 9.92705
    endloop
  endfacet
  facet normal 1 2.70414e-007 1.96468e-007
    outer loop
      vertex 6 17.1468 6.57295
      vertex 6 18.2366 5.07295
      vertex 6 18.2366 9.92705
    endloop
  endfacet
  facet normal 1 8.75079e-007 0
    outer loop
      vertex 6 17.1468 8.42705
      vertex 6 17.1468 6.57295
      vertex 6 18.2366 9.92705
    endloop
  endfacet
  facet normal 1 -2.70414e-007 1.96468e-007
    outer loop
      vertex 6 21.7634 9.92705
      vertex 6 21.4266 7.03647
      vertex 6 21.7634 5.07295
    endloop
  endfacet
  facet normal 1 3.73705e-007 1.21424e-007
    outer loop
      vertex 6 21.4266 7.03647
      vertex 6 21.7634 9.92705
      vertex 6 21.1254 7.96352
    endloop
  endfacet
  facet normal 1 -1.56889e-007 2.15939e-007
    outer loop
      vertex 6 20.638 6.46353
      vertex 6 21.7634 5.07295
      vertex 6 21.4266 7.03647
    endloop
  endfacet
  facet normal 1 -8.82194e-008 2.71512e-007
    outer loop
      vertex 6 21.7634 5.07295
      vertex 6 20.638 6.46353
      vertex 6 20 4.5
    endloop
  endfacet
  facet normal 1 -6.04665e-007 4.39315e-007
    outer loop
      vertex 6 21.7634 9.92705
      vertex 6 20.8817 8.71352
      vertex 6 21.1254 7.96352
    endloop
  endfacet
  facet normal 1 0 0
    outer loop
      vertex 6 21.7634 9.92705
      vertex 6 19.1183 8.71352
      vertex 6 20.8817 8.71352
    endloop
  endfacet
  facet normal 1 6.04668e-007 4.39316e-007
    outer loop
      vertex 6 19.1183 8.71352
      vertex 6 18.2366 9.92705
      vertex 6 18.8746 7.96353
    endloop
  endfacet
  facet normal 1 -0 0
    outer loop
      vertex 6 18.2366 9.92705
      vertex 6 19.1183 8.71352
      vertex 6 21.7634 9.92705
    endloop
  endfacet
  facet normal 1 -2.30962e-007 3.17891e-007
    outer loop
      vertex 6 20 6
      vertex 6 20 4.5
      vertex 6 20.638 6.46353
    endloop
  endfacet
  facet normal 1 2.30961e-007 3.17891e-007
    outer loop
      vertex 6 20 4.5
      vertex 6 20 6
      vertex 6 19.362 6.46353
    endloop
  endfacet
  facet normal -0.809016 -0.587786 0
    outer loop
      vertex 29.5 22 0
      vertex 28.4635 23.4266 4
      vertex 28.4635 23.4266 0
    endloop
  endfacet
  facet normal -0.809016 -0.587786 0
    outer loop
      vertex 28.4635 23.4266 4
      vertex 29.5 22 0
      vertex 29.5 22 4
    endloop
  endfacet
  facet normal 1 -0 0
    outer loop
      vertex 20.7865 27.1183 4
      vertex 20.7865 28.8817 0
      vertex 20.7865 28.8817 4
    endloop
  endfacet
  facet normal 1 0 0
    outer loop
      vertex 20.7865 28.8817 0
      vertex 20.7865 27.1183 4
      vertex 20.7865 27.1183 0
    endloop
  endfacet
  facet normal -0.707107 -0.707107 0
    outer loop
      vertex 28.4635 23.4266 0
      vertex 22.4635 29.4266 4
      vertex 22.4635 29.4266 0
    endloop
  endfacet
  facet normal -0.707107 -0.707107 0
    outer loop
      vertex 22.4635 29.4266 4
      vertex 28.4635 23.4266 0
      vertex 28.4635 23.4266 4
    endloop
  endfacet
  facet normal 0.707107 0.707107 0
    outer loop
      vertex 26.7865 21.1183 4
      vertex 20.7865 27.1183 0
      vertex 20.7865 27.1183 4
    endloop
  endfacet
  facet normal 0.707107 0.707107 0
    outer loop
      vertex 20.7865 27.1183 0
      vertex 26.7865 21.1183 4
      vertex 26.7865 21.1183 0
    endloop
  endfacet
  facet normal 0.309017 -0.951056 0
    outer loop
      vertex 20.7865 28.8817 0
      vertex 22.4635 29.4266 4
      vertex 20.7865 28.8817 4
    endloop
  endfacet
  facet normal 0.309017 -0.951056 0
    outer loop
      vertex 22.4635 29.4266 4
      vertex 20.7865 28.8817 0
      vertex 22.4635 29.4266 0
    endloop
  endfacet
  facet normal 0.309017 0.951056 -0
    outer loop
      vertex 28.4635 20.5734 0
      vertex 26.7865 21.1183 4
      vertex 28.4635 20.5734 4
    endloop
  endfacet
  facet normal 0.309017 0.951056 0
    outer loop
      vertex 26.7865 21.1183 4
      vertex 28.4635 20.5734 0
      vertex 26.7865 21.1183 0
    endloop
  endfacet
  facet normal -0.809017 0.587785 0
    outer loop
      vertex 28.4635 20.5734 0
      vertex 29.5 22 4
      vertex 29.5 22 0
    endloop
  endfacet
  facet normal -0.809017 0.587785 0
    outer loop
      vertex 29.5 22 4
      vertex 28.4635 20.5734 0
      vertex 28.4635 20.5734 4
    endloop
  endfacet
endsolid OpenSCAD_Model
