solid OpenSCAD_Model
  facet normal -1 0 0
    outer loop
      vertex 0 37.4369 9
      vertex 0 50 15
      vertex 0 50 9
    endloop
  endfacet
  facet normal -1 0 0
    outer loop
      vertex 0 36.7634 9.92705
      vertex 0 50 15
      vertex 0 37.4369 9
    endloop
  endfacet
  facet normal -1 0 0
    outer loop
      vertex 0 35 10.5
      vertex 0 50 15
      vertex 0 36.7634 9.92705
    endloop
  endfacet
  facet normal -1 0 0
    outer loop
      vertex 0 22.4369 9
      vertex 0 33.2366 9.92705
      vertex 0 32.5631 9
    endloop
  endfacet
  facet normal -1 0 0
    outer loop
      vertex 0 21.7634 9.92705
      vertex 0 33.2366 9.92705
      vertex 0 22.4369 9
    endloop
  endfacet
  facet normal -1 0 0
    outer loop
      vertex 0 33.2366 9.92705
      vertex 0 21.7634 9.92705
      vertex 0 35 10.5
    endloop
  endfacet
  facet normal -1 0 0
    outer loop
      vertex 0 20 10.5
      vertex 0 35 10.5
      vertex 0 21.7634 9.92705
    endloop
  endfacet
  facet normal -1 0 0
    outer loop
      vertex 0 35 10.5
      vertex 0 20 10.5
      vertex 0 50 15
    endloop
  endfacet
  facet normal -1 0 0
    outer loop
      vertex 0 0 15
      vertex 0 17.5631 9
      vertex 0 0 9
    endloop
  endfacet
  facet normal -1 0 0
    outer loop
      vertex 0 17.5631 9
      vertex 0 0 15
      vertex 0 18.2366 9.92705
    endloop
  endfacet
  facet normal -1 0 0
    outer loop
      vertex 0 18.2366 9.92705
      vertex 0 0 15
      vertex 0 20 10.5
    endloop
  endfacet
  facet normal -1 0 0
    outer loop
      vertex 0 20 10.5
      vertex 0 0 15
      vertex 0 50 15
    endloop
  endfacet
  facet normal -1 0 0
    outer loop
      vertex 0 50 0
      vertex 0 37.4369 6
      vertex 0 50 6
    endloop
  endfacet
  facet normal -1 0 0
    outer loop
      vertex 0 50 0
      vertex 0 36.7634 5.07295
      vertex 0 37.4369 6
    endloop
  endfacet
  facet normal -1 0 0
    outer loop
      vertex 0 50 0
      vertex 0 35 4.5
      vertex 0 36.7634 5.07295
    endloop
  endfacet
  facet normal -1 0 0
    outer loop
      vertex 0 33.2366 5.07295
      vertex 0 22.4369 6
      vertex 0 32.5631 6
    endloop
  endfacet
  facet normal -1 0 0
    outer loop
      vertex 0 21.7634 5.07295
      vertex 0 33.2366 5.07295
      vertex 0 35 4.5
    endloop
  endfacet
  facet normal -1 0 0
    outer loop
      vertex 0 20 4.5
      vertex 0 35 4.5
      vertex 0 50 0
    endloop
  endfacet
  facet normal -1 0 0
    outer loop
      vertex 0 33.2366 5.07295
      vertex 0 21.7634 5.07295
      vertex 0 22.4369 6
    endloop
  endfacet
  facet normal -1 0 0
    outer loop
      vertex 0 35 4.5
      vertex 0 20 4.5
      vertex 0 21.7634 5.07295
    endloop
  endfacet
  facet normal -1 0 0
    outer loop
      vertex 0 0 0
      vertex 0 20 4.5
      vertex 0 50 0
    endloop
  endfacet
  facet normal -1 0 0
    outer loop
      vertex 0 0 0
      vertex 0 18.2366 5.07295
      vertex 0 20 4.5
    endloop
  endfacet
  facet normal -1 0 0
    outer loop
      vertex 0 0 0
      vertex 0 17.5631 6
      vertex 0 18.2366 5.07295
    endloop
  endfacet
  facet normal -1 -0 0
    outer loop
      vertex 0 17.5631 6
      vertex 0 0 0
      vertex 0 0 6
    endloop
  endfacet
  facet normal -1 0 0
    outer loop
      vertex 0 21.4266 7.03647
      vertex 0 22.8532 6.57295
      vertex 0 22.4369 6
    endloop
  endfacet
  facet normal -1 0 0
    outer loop
      vertex 0 22.8532 6.57295
      vertex 0 21.4266 7.03647
      vertex 0 22.8532 8.42705
    endloop
  endfacet
  facet normal -1 0 0
    outer loop
      vertex 0 21.4266 7.03647
      vertex 0 22.4369 6
      vertex 0 21.7634 5.07295
    endloop
  endfacet
  facet normal -1 0 0
    outer loop
      vertex 0 20.8817 8.71352
      vertex 0 22.8532 8.42705
      vertex 0 21.4266 7.03647
    endloop
  endfacet
  facet normal -1 0 0
    outer loop
      vertex 0 22.8532 8.42705
      vertex 0 20.8817 8.71352
      vertex 0 22.4369 9
    endloop
  endfacet
  facet normal -1 0 0
    outer loop
      vertex 0 20 6
      vertex 0 21.7634 5.07295
      vertex 0 20 4.5
    endloop
  endfacet
  facet normal -1 0 0
    outer loop
      vertex 0 21.7634 5.07295
      vertex 0 20 6
      vertex 0 21.4266 7.03647
    endloop
  endfacet
  facet normal -1 0 0
    outer loop
      vertex 0 18.2366 5.07295
      vertex 0 20 6
      vertex 0 20 4.5
    endloop
  endfacet
  facet normal -1 -0 0
    outer loop
      vertex 0 20 6
      vertex 0 18.2366 5.07295
      vertex 0 18.5734 7.03647
    endloop
  endfacet
  facet normal -1 -0 0
    outer loop
      vertex 0 22.4369 9
      vertex 0 20.8817 8.71352
      vertex 0 21.7634 9.92705
    endloop
  endfacet
  facet normal -1 0 0
    outer loop
      vertex 0 20.8817 8.71352
      vertex 0 20 10.5
      vertex 0 21.7634 9.92705
    endloop
  endfacet
  facet normal -1 0 0
    outer loop
      vertex 0 19.1183 8.71352
      vertex 0 20 10.5
      vertex 0 20.8817 8.71352
    endloop
  endfacet
  facet normal -1 0 0
    outer loop
      vertex 0 19.1183 8.71352
      vertex 0 18.2366 9.92705
      vertex 0 20 10.5
    endloop
  endfacet
  facet normal -1 0 0
    outer loop
      vertex 0 17.1468 8.42705
      vertex 0 19.1183 8.71352
      vertex 0 18.5734 7.03647
    endloop
  endfacet
  facet normal -1 0 0
    outer loop
      vertex 0 17.5631 6
      vertex 0 18.5734 7.03647
      vertex 0 18.2366 5.07295
    endloop
  endfacet
  facet normal -1 0 0
    outer loop
      vertex 0 19.1183 8.71352
      vertex 0 17.5631 9
      vertex 0 18.2366 9.92705
    endloop
  endfacet
  facet normal -1 0 0
    outer loop
      vertex 0 17.1468 6.57295
      vertex 0 18.5734 7.03647
      vertex 0 17.5631 6
    endloop
  endfacet
  facet normal -1 0 0
    outer loop
      vertex 0 17.1468 8.42705
      vertex 0 18.5734 7.03647
      vertex 0 17.1468 6.57295
    endloop
  endfacet
  facet normal -1 -0 0
    outer loop
      vertex 0 19.1183 8.71352
      vertex 0 17.1468 8.42705
      vertex 0 17.5631 9
    endloop
  endfacet
  facet normal -1 0 0
    outer loop
      vertex 0 36.4266 7.03647
      vertex 0 37.8532 6.57295
      vertex 0 37.4369 6
    endloop
  endfacet
  facet normal -1 0 0
    outer loop
      vertex 0 37.8532 6.57295
      vertex 0 36.4266 7.03647
      vertex 0 37.8532 8.42705
    endloop
  endfacet
  facet normal -1 0 0
    outer loop
      vertex 0 36.4266 7.03647
      vertex 0 37.4369 6
      vertex 0 36.7634 5.07295
    endloop
  endfacet
  facet normal -1 0 0
    outer loop
      vertex 0 35.8817 8.71352
      vertex 0 37.8532 8.42705
      vertex 0 36.4266 7.03647
    endloop
  endfacet
  facet normal -1 0 0
    outer loop
      vertex 0 37.8532 8.42705
      vertex 0 35.8817 8.71352
      vertex 0 37.4369 9
    endloop
  endfacet
  facet normal -1 0 0
    outer loop
      vertex 0 35 6
      vertex 0 36.7634 5.07295
      vertex 0 35 4.5
    endloop
  endfacet
  facet normal -1 0 0
    outer loop
      vertex 0 36.7634 5.07295
      vertex 0 35 6
      vertex 0 36.4266 7.03647
    endloop
  endfacet
  facet normal -1 0 0
    outer loop
      vertex 0 33.2366 5.07295
      vertex 0 35 6
      vertex 0 35 4.5
    endloop
  endfacet
  facet normal -1 -0 0
    outer loop
      vertex 0 35 6
      vertex 0 33.2366 5.07295
      vertex 0 33.5734 7.03647
    endloop
  endfacet
  facet normal -1 -0 0
    outer loop
      vertex 0 37.4369 9
      vertex 0 35.8817 8.71352
      vertex 0 36.7634 9.92705
    endloop
  endfacet
  facet normal -1 0 0
    outer loop
      vertex 0 35.8817 8.71352
      vertex 0 35 10.5
      vertex 0 36.7634 9.92705
    endloop
  endfacet
  facet normal -1 0 0
    outer loop
      vertex 0 34.1183 8.71352
      vertex 0 35 10.5
      vertex 0 35.8817 8.71352
    endloop
  endfacet
  facet normal -1 0 0
    outer loop
      vertex 0 34.1183 8.71352
      vertex 0 33.2366 9.92705
      vertex 0 35 10.5
    endloop
  endfacet
  facet normal -1 0 0
    outer loop
      vertex 0 32.1468 8.42705
      vertex 0 34.1183 8.71352
      vertex 0 33.5734 7.03647
    endloop
  endfacet
  facet normal -1 0 0
    outer loop
      vertex 0 32.5631 6
      vertex 0 33.5734 7.03647
      vertex 0 33.2366 5.07295
    endloop
  endfacet
  facet normal -1 0 0
    outer loop
      vertex 0 32.1468 6.57295
      vertex 0 33.5734 7.03647
      vertex 0 32.5631 6
    endloop
  endfacet
  facet normal -1 0 0
    outer loop
      vertex 0 34.1183 8.71352
      vertex 0 32.5631 9
      vertex 0 33.2366 9.92705
    endloop
  endfacet
  facet normal -1 0 0
    outer loop
      vertex 0 32.1468 8.42705
      vertex 0 33.5734 7.03647
      vertex 0 32.1468 6.57295
    endloop
  endfacet
  facet normal -1 -0 0
    outer loop
      vertex 0 34.1183 8.71352
      vertex 0 32.1468 8.42705
      vertex 0 32.5631 9
    endloop
  endfacet
  facet normal 0 0 1
    outer loop
      vertex 10 50 15
      vertex 0 50 15
      vertex 10 25 15
    endloop
  endfacet
  facet normal -0 0 1
    outer loop
      vertex 25 10 15
      vertex 50 0 15
      vertex 50 10 15
    endloop
  endfacet
  facet normal 0 0 1
    outer loop
      vertex 25 10 15
      vertex 0 0 15
      vertex 50 0 15
    endloop
  endfacet
  facet normal 0 0 1
    outer loop
      vertex 10 25 15
      vertex 0 0 15
      vertex 25 10 15
    endloop
  endfacet
  facet normal 0 0 1
    outer loop
      vertex 0 0 15
      vertex 10 25 15
      vertex 0 50 15
    endloop
  endfacet
  facet normal 1 0 0
    outer loop
      vertex 10 17.1468 6.67037
      vertex 10 14.2857 4
      vertex 10 17.1468 6.57295
    endloop
  endfacet
  facet normal 1 0 0
    outer loop
      vertex 10 25 14
      vertex 10 21.7634 9.92705
      vertex 10 22.8532 8.42705
    endloop
  endfacet
  facet normal 1 0 -0
    outer loop
      vertex 10 21.7634 9.92705
      vertex 10 25 14
      vertex 10 20.9272 10.1987
    endloop
  endfacet
  facet normal 1 0 0
    outer loop
      vertex 10 50 15
      vertex 10 36.4266 7.03647
      vertex 10 50 4
    endloop
  endfacet
  facet normal 1 0 0
    outer loop
      vertex 10 50 15
      vertex 10 35.8817 8.71352
      vertex 10 36.4266 7.03647
    endloop
  endfacet
  facet normal 1 -0 0
    outer loop
      vertex 10 25 15
      vertex 10 35.8817 8.71352
      vertex 10 50 15
    endloop
  endfacet
  facet normal 1 -0 0
    outer loop
      vertex 10 25 14
      vertex 10 34.1183 8.71352
      vertex 10 25 15
    endloop
  endfacet
  facet normal 1 0 0
    outer loop
      vertex 10 35.8817 8.71352
      vertex 10 25 15
      vertex 10 34.1183 8.71352
    endloop
  endfacet
  facet normal 1 -0 0
    outer loop
      vertex 10 35 6
      vertex 10 50 4
      vertex 10 36.4266 7.03647
    endloop
  endfacet
  facet normal 1 0 0
    outer loop
      vertex 10 34.1183 8.71352
      vertex 10 25 14
      vertex 10 33.5734 7.03647
    endloop
  endfacet
  facet normal 1 -0 0
    outer loop
      vertex 10 22.8532 8.42705
      vertex 10 33.5734 7.03647
      vertex 10 25 14
    endloop
  endfacet
  facet normal 1 0 0
    outer loop
      vertex 10 22.8532 6.57295
      vertex 10 33.5734 7.03647
      vertex 10 22.8532 8.42705
    endloop
  endfacet
  facet normal 1 0 0
    outer loop
      vertex 10 21.7634 5.07295
      vertex 10 33.5734 7.03647
      vertex 10 22.8532 6.57295
    endloop
  endfacet
  facet normal 1 0 0
    outer loop
      vertex 10 33.5734 7.03647
      vertex 10 21.7634 5.07295
      vertex 10 35 6
    endloop
  endfacet
  facet normal 1 0 0
    outer loop
      vertex 10 20 4.5
      vertex 10 35 6
      vertex 10 21.7634 5.07295
    endloop
  endfacet
  facet normal 1 0 0
    outer loop
      vertex 10 35 6
      vertex 10 20 4.5
      vertex 10 50 4
    endloop
  endfacet
  facet normal 1 0 0
    outer loop
      vertex 10 20 4.5
      vertex 10 14.2857 4
      vertex 10 50 4
    endloop
  endfacet
  facet normal 1 0 0
    outer loop
      vertex 10 18.2366 5.07295
      vertex 10 14.2857 4
      vertex 10 20 4.5
    endloop
  endfacet
  facet normal 1 0 0
    outer loop
      vertex 10 14.2857 4
      vertex 10 18.2366 5.07295
      vertex 10 17.1468 6.57295
    endloop
  endfacet
  facet normal 1 -0 0
    outer loop
      vertex 10 20.8817 8.71352
      vertex 10 22.8532 8.42705
      vertex 10 21.7634 9.92705
    endloop
  endfacet
  facet normal 1 0 0
    outer loop
      vertex 10 22.8532 8.42705
      vertex 10 21.4266 7.03647
      vertex 10 22.8532 6.57295
    endloop
  endfacet
  facet normal 1 0 0
    outer loop
      vertex 10 22.8532 6.57295
      vertex 10 21.4266 7.03647
      vertex 10 21.7634 5.07295
    endloop
  endfacet
  facet normal 1 0 0
    outer loop
      vertex 10 20.8817 8.71352
      vertex 10 21.7634 9.92705
      vertex 10 20.9272 10.1987
    endloop
  endfacet
  facet normal 1 0 0
    outer loop
      vertex 10 22.8532 8.42705
      vertex 10 20.8817 8.71352
      vertex 10 21.4266 7.03647
    endloop
  endfacet
  facet normal 1 0 0
    outer loop
      vertex 10 20 10.5
      vertex 10 20.8817 8.71352
      vertex 10 20.9272 10.1987
    endloop
  endfacet
  facet normal 1 0 0
    outer loop
      vertex 10 20 10.5
      vertex 10 19.1183 8.71352
      vertex 10 20.8817 8.71352
    endloop
  endfacet
  facet normal 1 0 0
    outer loop
      vertex 10 17.1468 8.42705
      vertex 10 19.1183 8.71352
      vertex 10 18.2366 9.92705
    endloop
  endfacet
  facet normal 1 -0 0
    outer loop
      vertex 10 18.2366 9.92705
      vertex 10 19.1183 8.71352
      vertex 10 20 10.5
    endloop
  endfacet
  facet normal 1 -0 0
    outer loop
      vertex 10 20 6
      vertex 10 21.7634 5.07295
      vertex 10 21.4266 7.03647
    endloop
  endfacet
  facet normal 1 0 0
    outer loop
      vertex 10 20 6
      vertex 10 20 4.5
      vertex 10 21.7634 5.07295
    endloop
  endfacet
  facet normal 1 0 0
    outer loop
      vertex 10 18.2366 5.07295
      vertex 10 20 6
      vertex 10 18.5734 7.03647
    endloop
  endfacet
  facet normal 1 0 0
    outer loop
      vertex 10 20 6
      vertex 10 18.2366 5.07295
      vertex 10 20 4.5
    endloop
  endfacet
  facet normal 1 0 0
    outer loop
      vertex 10 19.1183 8.71352
      vertex 10 17.1468 8.42705
      vertex 10 18.5734 7.03647
    endloop
  endfacet
  facet normal 1 0 0
    outer loop
      vertex 10 18.5734 7.03647
      vertex 10 17.1468 8.42705
      vertex 10 17.1468 6.67037
    endloop
  endfacet
  facet normal 1 0 0
    outer loop
      vertex 10 17.1468 6.57295
      vertex 10 18.5734 7.03647
      vertex 10 17.1468 6.67037
    endloop
  endfacet
  facet normal 1 0 0
    outer loop
      vertex 10 18.5734 7.03647
      vertex 10 17.1468 6.57295
      vertex 10 18.2366 5.07295
    endloop
  endfacet
  facet normal 0 1 0
    outer loop
      vertex 10 50 15
      vertex 0 50 9
      vertex 0 50 15
    endloop
  endfacet
  facet normal 0 1 0
    outer loop
      vertex 0 50 9
      vertex -1 50 8
      vertex -1 50 9
    endloop
  endfacet
  facet normal 0 1 -0
    outer loop
      vertex 10 50 4
      vertex 0 50 9
      vertex 10 50 15
    endloop
  endfacet
  facet normal 0 1 0
    outer loop
      vertex 0 50 9
      vertex 0 50 6
      vertex -1 50 8
    endloop
  endfacet
  facet normal 0 1 0
    outer loop
      vertex 0 50 9
      vertex 10 50 4
      vertex 0 50 6
    endloop
  endfacet
  facet normal 0 1 0
    outer loop
      vertex 0 50 0
      vertex 10 50 4
      vertex 10 50 0
    endloop
  endfacet
  facet normal 0 1 0
    outer loop
      vertex 10 50 4
      vertex 0 50 0
      vertex 0 50 6
    endloop
  endfacet
  facet normal 0 0 -1
    outer loop
      vertex 0 0 0
      vertex 50 10 0
      vertex 50 0 0
    endloop
  endfacet
  facet normal -0 0 -1
    outer loop
      vertex 50 10 0
      vertex 0 0 0
      vertex 10 50 0
    endloop
  endfacet
  facet normal -0 0 -1
    outer loop
      vertex 10 50 0
      vertex 0 0 0
      vertex 0 50 0
    endloop
  endfacet
  facet normal 0 -1 0
    outer loop
      vertex 22.4271 0 9.26336
      vertex 34.0729 0 10.3532
      vertex 20.9271 0 10.3532
    endloop
  endfacet
  facet normal 0 -1 0
    outer loop
      vertex 22.4271 0 9.26336
      vertex 32.5729 0 9.26336
      vertex 34.0729 0 10.3532
    endloop
  endfacet
  facet normal 0 -1 0
    outer loop
      vertex 22.5126 0 9
      vertex 32.5729 0 9.26336
      vertex 22.4271 0 9.26336
    endloop
  endfacet
  facet normal 0 -1 0
    outer loop
      vertex 32.5729 0 9.26336
      vertex 22.5126 0 9
      vertex 32.4874 0 9
    endloop
  endfacet
  facet normal 0 -1 0
    outer loop
      vertex 20.9271 0 10.3532
      vertex 0 0 15
      vertex 19.0729 0 10.3532
    endloop
  endfacet
  facet normal 0 -1 0
    outer loop
      vertex 0 0 15
      vertex 17.5729 0 9.26336
      vertex 19.0729 0 10.3532
    endloop
  endfacet
  facet normal 0 -1 0
    outer loop
      vertex 0 0 9
      vertex 17.5729 0 9.26336
      vertex 0 0 15
    endloop
  endfacet
  facet normal 0 -1 0
    outer loop
      vertex 17.5729 0 9.26336
      vertex 0 0 9
      vertex 17.4874 0 9
    endloop
  endfacet
  facet normal 0 -1 0
    outer loop
      vertex 0 0 15
      vertex 20.9271 0 10.3532
      vertex 50 0 15
    endloop
  endfacet
  facet normal 0 -1 0
    outer loop
      vertex 34.0729 0 10.3532
      vertex 50 0 15
      vertex 20.9271 0 10.3532
    endloop
  endfacet
  facet normal 0 -1 0
    outer loop
      vertex 35.9271 0 10.3532
      vertex 50 0 15
      vertex 34.0729 0 10.3532
    endloop
  endfacet
  facet normal 0 -1 0
    outer loop
      vertex 37.4271 0 9.26336
      vertex 50 0 15
      vertex 35.9271 0 10.3532
    endloop
  endfacet
  facet normal 0 -1 0
    outer loop
      vertex 50 0 9
      vertex 37.4271 0 9.26336
      vertex 37.5126 0 9
    endloop
  endfacet
  facet normal 0 -1 0
    outer loop
      vertex 37.4271 0 9.26336
      vertex 50 0 9
      vertex 50 0 15
    endloop
  endfacet
  facet normal 0 -1 0
    outer loop
      vertex 0 0 6
      vertex 17.5729 0 5.73664
      vertex 17.4874 0 6
    endloop
  endfacet
  facet normal 0 -1 0
    outer loop
      vertex 0 0 0
      vertex 17.5729 0 5.73664
      vertex 0 0 6
    endloop
  endfacet
  facet normal 0 -1 0
    outer loop
      vertex 0 0 0
      vertex 20.9271 0 4.64683
      vertex 19.0729 0 4.64683
    endloop
  endfacet
  facet normal 0 -1 0
    outer loop
      vertex 20.9271 0 4.64683
      vertex 50 0 0
      vertex 34.0729 0 4.64683
    endloop
  endfacet
  facet normal 0 -1 -0
    outer loop
      vertex 20.9271 0 4.64683
      vertex 0 0 0
      vertex 50 0 0
    endloop
  endfacet
  facet normal 0 -1 -0
    outer loop
      vertex 17.5729 0 5.73664
      vertex 0 0 0
      vertex 19.0729 0 4.64683
    endloop
  endfacet
  facet normal 0 -1 0
    outer loop
      vertex 22.4271 0 5.73664
      vertex 32.4874 0 6
      vertex 22.5126 0 6
    endloop
  endfacet
  facet normal 0 -1 0
    outer loop
      vertex 22.4271 0 5.73664
      vertex 32.5729 0 5.73664
      vertex 32.4874 0 6
    endloop
  endfacet
  facet normal 0 -1 0
    outer loop
      vertex 20.9271 0 4.64683
      vertex 32.5729 0 5.73664
      vertex 22.4271 0 5.73664
    endloop
  endfacet
  facet normal 0 -1 -0
    outer loop
      vertex 32.5729 0 5.73664
      vertex 20.9271 0 4.64683
      vertex 34.0729 0 4.64683
    endloop
  endfacet
  facet normal 0 -1 0
    outer loop
      vertex 37.4271 0 5.73664
      vertex 50 0 6
      vertex 37.5126 0 6
    endloop
  endfacet
  facet normal 0 -1 0
    outer loop
      vertex 50 0 0
      vertex 37.4271 0 5.73664
      vertex 35.9271 0 4.64683
    endloop
  endfacet
  facet normal 0 -1 0
    outer loop
      vertex 34.0729 0 4.64683
      vertex 50 0 0
      vertex 35.9271 0 4.64683
    endloop
  endfacet
  facet normal 0 -1 0
    outer loop
      vertex 37.4271 0 5.73664
      vertex 50 0 0
      vertex 50 0 6
    endloop
  endfacet
  facet normal 0 -1 0
    outer loop
      vertex 18.7865 0 8.38168
      vertex 19.0729 0 10.3532
      vertex 17.5729 0 9.26336
    endloop
  endfacet
  facet normal 0 -1 0
    outer loop
      vertex 19.0729 0 10.3532
      vertex 20.4635 0 8.92658
      vertex 20.9271 0 10.3532
    endloop
  endfacet
  facet normal 0 -1 0
    outer loop
      vertex 18.7865 0 8.38168
      vertex 17.5729 0 9.26336
      vertex 17.4874 0 9
    endloop
  endfacet
  facet normal 0 -1 -0
    outer loop
      vertex 20.9271 0 10.3532
      vertex 20.4635 0 8.92658
      vertex 22.4271 0 9.26336
    endloop
  endfacet
  facet normal 0 -1 -0
    outer loop
      vertex 22.4271 0 9.26336
      vertex 20.4635 0 8.92658
      vertex 22.5126 0 9
    endloop
  endfacet
  facet normal 0 -1 -0
    outer loop
      vertex 19.0729 0 10.3532
      vertex 18.7865 0 8.38168
      vertex 20.4635 0 8.92658
    endloop
  endfacet
  facet normal 0 -1 0
    outer loop
      vertex 17 0 7.5
      vertex 18.7865 0 8.38168
      vertex 17.4874 0 9
    endloop
  endfacet
  facet normal 0 -1 0
    outer loop
      vertex 17 0 7.5
      vertex 18.7865 0 6.61832
      vertex 18.7865 0 8.38168
    endloop
  endfacet
  facet normal 0 -1 0
    outer loop
      vertex 17.5729 0 5.73664
      vertex 18.7865 0 6.61832
      vertex 17.4874 0 6
    endloop
  endfacet
  facet normal 0 -1 0
    outer loop
      vertex 17.4874 0 6
      vertex 18.7865 0 6.61832
      vertex 17 0 7.5
    endloop
  endfacet
  facet normal 0 -1 0
    outer loop
      vertex 21.5 0 7.5
      vertex 22.5126 0 9
      vertex 20.4635 0 8.92658
    endloop
  endfacet
  facet normal 0 -1 0
    outer loop
      vertex 21.5 0 7.5
      vertex 23 0 7.5
      vertex 22.5126 0 9
    endloop
  endfacet
  facet normal 0 -1 0
    outer loop
      vertex 22.5126 0 6
      vertex 21.5 0 7.5
      vertex 20.4635 0 6.07341
    endloop
  endfacet
  facet normal 0 -1 0
    outer loop
      vertex 21.5 0 7.5
      vertex 22.5126 0 6
      vertex 23 0 7.5
    endloop
  endfacet
  facet normal 0 -1 0
    outer loop
      vertex 19.0729 0 4.64683
      vertex 18.7865 0 6.61832
      vertex 17.5729 0 5.73664
    endloop
  endfacet
  facet normal 0 -1 0
    outer loop
      vertex 18.7865 0 6.61832
      vertex 19.0729 0 4.64683
      vertex 20.4635 0 6.07341
    endloop
  endfacet
  facet normal 0 -1 0
    outer loop
      vertex 20.9271 0 4.64683
      vertex 20.4635 0 6.07341
      vertex 19.0729 0 4.64683
    endloop
  endfacet
  facet normal -0 -1 0
    outer loop
      vertex 22.4271 0 5.73664
      vertex 20.4635 0 6.07341
      vertex 20.9271 0 4.64683
    endloop
  endfacet
  facet normal 0 -1 0
    outer loop
      vertex 20.4635 0 6.07341
      vertex 22.4271 0 5.73664
      vertex 22.5126 0 6
    endloop
  endfacet
  facet normal 0 -1 0
    outer loop
      vertex 33.7865 0 8.38168
      vertex 34.0729 0 10.3532
      vertex 32.5729 0 9.26336
    endloop
  endfacet
  facet normal 0 -1 0
    outer loop
      vertex 34.0729 0 10.3532
      vertex 35.4635 0 8.92658
      vertex 35.9271 0 10.3532
    endloop
  endfacet
  facet normal 0 -1 0
    outer loop
      vertex 33.7865 0 8.38168
      vertex 32.5729 0 9.26336
      vertex 32.4874 0 9
    endloop
  endfacet
  facet normal 0 -1 -0
    outer loop
      vertex 35.9271 0 10.3532
      vertex 35.4635 0 8.92658
      vertex 37.4271 0 9.26336
    endloop
  endfacet
  facet normal 0 -1 -0
    outer loop
      vertex 37.4271 0 9.26336
      vertex 35.4635 0 8.92658
      vertex 37.5126 0 9
    endloop
  endfacet
  facet normal 0 -1 -0
    outer loop
      vertex 34.0729 0 10.3532
      vertex 33.7865 0 8.38168
      vertex 35.4635 0 8.92658
    endloop
  endfacet
  facet normal 0 -1 0
    outer loop
      vertex 32 0 7.5
      vertex 33.7865 0 8.38168
      vertex 32.4874 0 9
    endloop
  endfacet
  facet normal 0 -1 0
    outer loop
      vertex 32 0 7.5
      vertex 33.7865 0 6.61832
      vertex 33.7865 0 8.38168
    endloop
  endfacet
  facet normal 0 -1 0
    outer loop
      vertex 32.5729 0 5.73664
      vertex 33.7865 0 6.61832
      vertex 32.4874 0 6
    endloop
  endfacet
  facet normal 0 -1 0
    outer loop
      vertex 32.4874 0 6
      vertex 33.7865 0 6.61832
      vertex 32 0 7.5
    endloop
  endfacet
  facet normal 0 -1 0
    outer loop
      vertex 36.5 0 7.5
      vertex 37.5126 0 9
      vertex 35.4635 0 8.92658
    endloop
  endfacet
  facet normal 0 -1 0
    outer loop
      vertex 36.5 0 7.5
      vertex 38 0 7.5
      vertex 37.5126 0 9
    endloop
  endfacet
  facet normal 0 -1 0
    outer loop
      vertex 37.5126 0 6
      vertex 36.5 0 7.5
      vertex 35.4635 0 6.07341
    endloop
  endfacet
  facet normal 0 -1 0
    outer loop
      vertex 36.5 0 7.5
      vertex 37.5126 0 6
      vertex 38 0 7.5
    endloop
  endfacet
  facet normal 0 -1 0
    outer loop
      vertex 34.0729 0 4.64683
      vertex 33.7865 0 6.61832
      vertex 32.5729 0 5.73664
    endloop
  endfacet
  facet normal 0 -1 0
    outer loop
      vertex 33.7865 0 6.61832
      vertex 34.0729 0 4.64683
      vertex 35.4635 0 6.07341
    endloop
  endfacet
  facet normal 0 -1 0
    outer loop
      vertex 35.9271 0 4.64683
      vertex 35.4635 0 6.07341
      vertex 34.0729 0 4.64683
    endloop
  endfacet
  facet normal -0 -1 0
    outer loop
      vertex 37.4271 0 5.73664
      vertex 35.4635 0 6.07341
      vertex 35.9271 0 4.64683
    endloop
  endfacet
  facet normal 0 -1 0
    outer loop
      vertex 35.4635 0 6.07341
      vertex 37.4271 0 5.73664
      vertex 37.5126 0 6
    endloop
  endfacet
  facet normal 1 0 0
    outer loop
      vertex 50 -1 8
      vertex 50 0 9
      vertex 50 -1 9
    endloop
  endfacet
  facet normal 1 0 0
    outer loop
      vertex 50 0 9
      vertex 50 -1 8
      vertex 50 0 6
    endloop
  endfacet
  facet normal 1 -0 0
    outer loop
      vertex 50 0 9
      vertex 50 10 4
      vertex 50 10 15
    endloop
  endfacet
  facet normal 1 0 0
    outer loop
      vertex 50 0 9
      vertex 50 10 15
      vertex 50 0 15
    endloop
  endfacet
  facet normal 1 -0 0
    outer loop
      vertex 50 0 6
      vertex 50 10 4
      vertex 50 0 9
    endloop
  endfacet
  facet normal 1 0 0
    outer loop
      vertex 50 0 0
      vertex 50 10 4
      vertex 50 0 6
    endloop
  endfacet
  facet normal 1 0 0
    outer loop
      vertex 50 10 4
      vertex 50 0 0
      vertex 50 10 0
    endloop
  endfacet
  facet normal 0 1 -0
    outer loop
      vertex 35.4635 10 8.92658
      vertex 25 10 15
      vertex 50 10 15
    endloop
  endfacet
  facet normal 0 1 -0
    outer loop
      vertex 33.7865 10 8.38168
      vertex 25 10 15
      vertex 35.4635 10 8.92658
    endloop
  endfacet
  facet normal 0 1 0
    outer loop
      vertex 25 10 15
      vertex 33.7865 10 8.38168
      vertex 25 10 14
    endloop
  endfacet
  facet normal 0 1 0
    outer loop
      vertex 23 10 7.5
      vertex 25 10 14
      vertex 33.7865 10 8.38168
    endloop
  endfacet
  facet normal 0 1 0
    outer loop
      vertex 50 10 15
      vertex 36.5 10 7.5
      vertex 35.4635 10 8.92658
    endloop
  endfacet
  facet normal 0 1 -0
    outer loop
      vertex 50 10 4
      vertex 36.5 10 7.5
      vertex 50 10 15
    endloop
  endfacet
  facet normal 0 1 0
    outer loop
      vertex 33.7865 10 6.61832
      vertex 20.9271 10 4.64683
      vertex 22.4271 10 5.73664
    endloop
  endfacet
  facet normal 0 1 0
    outer loop
      vertex 14.2857 10 4
      vertex 20.9271 10 4.64683
      vertex 50 10 4
    endloop
  endfacet
  facet normal 0 1 0
    outer loop
      vertex 35.4635 10 6.07341
      vertex 50 10 4
      vertex 20.9271 10 4.64683
    endloop
  endfacet
  facet normal 0 1 0
    outer loop
      vertex 36.5 10 7.5
      vertex 50 10 4
      vertex 35.4635 10 6.07341
    endloop
  endfacet
  facet normal 0 1 0
    outer loop
      vertex 25 10 14
      vertex 22.4271 10 9.26336
      vertex 21.0202 10 10.2855
    endloop
  endfacet
  facet normal 0 1 0
    outer loop
      vertex 25 10 14
      vertex 23 10 7.5
      vertex 22.4271 10 9.26336
    endloop
  endfacet
  facet normal 0 1 -0
    outer loop
      vertex 33.7865 10 6.61832
      vertex 23 10 7.5
      vertex 33.7865 10 8.38168
    endloop
  endfacet
  facet normal 0 1 0
    outer loop
      vertex 20.9271 10 4.64683
      vertex 33.7865 10 6.61832
      vertex 35.4635 10 6.07341
    endloop
  endfacet
  facet normal 0 1 0
    outer loop
      vertex 33.7865 10 6.61832
      vertex 22.4271 10 5.73664
      vertex 23 10 7.5
    endloop
  endfacet
  facet normal 0 1 0
    outer loop
      vertex 17.5729 10 5.73664
      vertex 14.2857 10 4
      vertex 17.241 10 6.75827
    endloop
  endfacet
  facet normal 0 1 0
    outer loop
      vertex 19.0729 10 4.64683
      vertex 14.2857 10 4
      vertex 17.5729 10 5.73664
    endloop
  endfacet
  facet normal 0 1 0
    outer loop
      vertex 20.9271 10 4.64683
      vertex 14.2857 10 4
      vertex 19.0729 10 4.64683
    endloop
  endfacet
  facet normal 0 1 0
    outer loop
      vertex 20.4635 10 8.92658
      vertex 20.9271 10 10.3532
      vertex 21.0202 10 10.2855
    endloop
  endfacet
  facet normal 0 1 0
    outer loop
      vertex 20.4635 10 8.92658
      vertex 21.0202 10 10.2855
      vertex 22.4271 10 9.26336
    endloop
  endfacet
  facet normal 0 1 0
    outer loop
      vertex 20.9271 10 10.3532
      vertex 20.4635 10 8.92658
      vertex 19.0729 10 10.3532
    endloop
  endfacet
  facet normal 0 1 0
    outer loop
      vertex 18.7865 10 8.38168
      vertex 19.0729 10 10.3532
      vertex 20.4635 10 8.92658
    endloop
  endfacet
  facet normal 0 1 0
    outer loop
      vertex 21.5 10 7.5
      vertex 22.4271 10 9.26336
      vertex 23 10 7.5
    endloop
  endfacet
  facet normal 0 1 0
    outer loop
      vertex 22.4271 10 9.26336
      vertex 21.5 10 7.5
      vertex 20.4635 10 8.92658
    endloop
  endfacet
  facet normal 0 1 -0
    outer loop
      vertex 22.4271 10 5.73664
      vertex 21.5 10 7.5
      vertex 23 10 7.5
    endloop
  endfacet
  facet normal 0 1 0
    outer loop
      vertex 21.5 10 7.5
      vertex 22.4271 10 5.73664
      vertex 20.4635 10 6.07341
    endloop
  endfacet
  facet normal 0 1 0
    outer loop
      vertex 19.0729 10 10.3532
      vertex 18.7865 10 8.38168
      vertex 17.5729 10 9.26336
    endloop
  endfacet
  facet normal 0 1 0
    outer loop
      vertex 18.7865 10 8.38168
      vertex 17 10 7.5
      vertex 17.5729 10 9.26336
    endloop
  endfacet
  facet normal 0 1 -0
    outer loop
      vertex 18.7865 10 6.61832
      vertex 17 10 7.5
      vertex 18.7865 10 8.38168
    endloop
  endfacet
  facet normal 0 1 0
    outer loop
      vertex 17 10 7.5
      vertex 18.7865 10 6.61832
      vertex 17.241 10 6.75827
    endloop
  endfacet
  facet normal 0 1 -0
    outer loop
      vertex 19.0729 10 4.64683
      vertex 18.7865 10 6.61832
      vertex 20.4635 10 6.07341
    endloop
  endfacet
  facet normal 0 1 0
    outer loop
      vertex 18.7865 10 6.61832
      vertex 17.5729 10 5.73664
      vertex 17.241 10 6.75827
    endloop
  endfacet
  facet normal 0 1 -0
    outer loop
      vertex 20.9271 10 4.64683
      vertex 20.4635 10 6.07341
      vertex 22.4271 10 5.73664
    endloop
  endfacet
  facet normal 0 1 0
    outer loop
      vertex 19.0729 10 4.64683
      vertex 20.4635 10 6.07341
      vertex 20.9271 10 4.64683
    endloop
  endfacet
  facet normal 0 1 0
    outer loop
      vertex 18.7865 10 6.61832
      vertex 19.0729 10 4.64683
      vertex 17.5729 10 5.73664
    endloop
  endfacet
  facet normal -0 0 1
    outer loop
      vertex -1 17.5631 9
      vertex 0 0 9
      vertex 0 17.5631 9
    endloop
  endfacet
  facet normal 0 0 1
    outer loop
      vertex 0 0 9
      vertex -1 17.5631 9
      vertex -1 0 9
    endloop
  endfacet
  facet normal -0 0 1
    outer loop
      vertex -1 50 9
      vertex 0 37.4369 9
      vertex 0 50 9
    endloop
  endfacet
  facet normal 0 0 1
    outer loop
      vertex 0 37.4369 9
      vertex -1 50 9
      vertex -1 37.4369 9
    endloop
  endfacet
  facet normal -0 0 1
    outer loop
      vertex -1 32.5631 9
      vertex 0 22.4369 9
      vertex 0 32.5631 9
    endloop
  endfacet
  facet normal 0 0 1
    outer loop
      vertex 0 22.4369 9
      vertex -1 32.5631 9
      vertex -1 22.4369 9
    endloop
  endfacet
  facet normal -1 0 0
    outer loop
      vertex -1 17.1468 8
      vertex -1 0 8
      vertex -1 17.1468 8.42705
    endloop
  endfacet
  facet normal -1 0 0
    outer loop
      vertex -1 0 9
      vertex -1 17.1468 8.42705
      vertex -1 0 8
    endloop
  endfacet
  facet normal -1 0 0
    outer loop
      vertex -1 17.1468 8.42705
      vertex -1 0 9
      vertex -1 17.5631 9
    endloop
  endfacet
  facet normal -1 0 0
    outer loop
      vertex -1 37.8532 8.42705
      vertex -1 50 8
      vertex -1 37.8532 8
    endloop
  endfacet
  facet normal -1 0 0
    outer loop
      vertex -1 50 8
      vertex -1 37.8532 8.42705
      vertex -1 50 9
    endloop
  endfacet
  facet normal -1 -0 0
    outer loop
      vertex -1 50 9
      vertex -1 37.8532 8.42705
      vertex -1 37.4369 9
    endloop
  endfacet
  facet normal -1 0 0
    outer loop
      vertex -1 32.1468 8
      vertex -1 22.8532 8
      vertex -1 32.1468 8.42705
    endloop
  endfacet
  facet normal -1 0 0
    outer loop
      vertex -1 22.8532 8.42705
      vertex -1 32.1468 8.42705
      vertex -1 22.8532 8
    endloop
  endfacet
  facet normal -1 0 0
    outer loop
      vertex -1 32.1468 8.42705
      vertex -1 22.8532 8.42705
      vertex -1 32.5631 9
    endloop
  endfacet
  facet normal -1 -0 0
    outer loop
      vertex -1 32.5631 9
      vertex -1 22.8532 8.42705
      vertex -1 22.4369 9
    endloop
  endfacet
  facet normal -0.894427 0 -0.447214
    outer loop
      vertex 0 0 6
      vertex -0.286474 17.1468 6.57295
      vertex 0 17.5631 6
    endloop
  endfacet
  facet normal -0.894427 0 -0.447214
    outer loop
      vertex -1 0 8
      vertex -0.286474 17.1468 6.57295
      vertex 0 0 6
    endloop
  endfacet
  facet normal -0.894427 0 -0.447214
    outer loop
      vertex -0.286474 17.1468 6.57295
      vertex -1 0 8
      vertex -1 17.1468 8
    endloop
  endfacet
  facet normal -0.894427 0 -0.447214
    outer loop
      vertex 0 50 6
      vertex -0.286474 37.8532 6.57295
      vertex -1 50 8
    endloop
  endfacet
  facet normal -0.894427 0 -0.447214
    outer loop
      vertex -0.286474 37.8532 6.57295
      vertex 0 50 6
      vertex 0 37.4369 6
    endloop
  endfacet
  facet normal -0.894427 -0 -0.447214
    outer loop
      vertex -1 50 8
      vertex -0.286474 37.8532 6.57295
      vertex -1 37.8532 8
    endloop
  endfacet
  facet normal -0.894427 -0 -0.447214
    outer loop
      vertex -0.286474 32.1468 6.57295
      vertex -0.286474 22.8532 6.57295
      vertex -1 32.1468 8
    endloop
  endfacet
  facet normal -0.894427 0 -0.447214
    outer loop
      vertex 0 32.5631 6
      vertex -0.286474 22.8532 6.57295
      vertex -0.286474 32.1468 6.57295
    endloop
  endfacet
  facet normal -0.894427 0 -0.447214
    outer loop
      vertex -0.286474 22.8532 6.57295
      vertex 0 32.5631 6
      vertex 0 22.4369 6
    endloop
  endfacet
  facet normal -0.894427 -0 -0.447214
    outer loop
      vertex -1 32.1468 8
      vertex -0.286474 22.8532 6.57295
      vertex -1 22.8532 8
    endloop
  endfacet
  facet normal 0 -1 0
    outer loop
      vertex -1 0 8
      vertex 0 0 9
      vertex -1 0 9
    endloop
  endfacet
  facet normal 0 -1 -0
    outer loop
      vertex 0 0 9
      vertex -1 0 8
      vertex 0 0 6
    endloop
  endfacet
  facet normal -0 0 1
    outer loop
      vertex 0 0 9
      vertex 17.4874 -1 9
      vertex 17.4874 0 9
    endloop
  endfacet
  facet normal 0 0 1
    outer loop
      vertex 17.4874 -1 9
      vertex 0 0 9
      vertex 0 -1 9
    endloop
  endfacet
  facet normal -0 0 1
    outer loop
      vertex 37.5126 0 9
      vertex 50 -1 9
      vertex 50 0 9
    endloop
  endfacet
  facet normal 0 0 1
    outer loop
      vertex 50 -1 9
      vertex 37.5126 0 9
      vertex 37.5126 -1 9
    endloop
  endfacet
  facet normal -0 0 1
    outer loop
      vertex 22.5126 0 9
      vertex 32.4874 -1 9
      vertex 32.4874 0 9
    endloop
  endfacet
  facet normal 0 0 1
    outer loop
      vertex 32.4874 -1 9
      vertex 22.5126 0 9
      vertex 22.5126 -1 9
    endloop
  endfacet
  facet normal -1 0 0
    outer loop
      vertex 0 -1 8
      vertex 0 0 9
      vertex 0 0 6
    endloop
  endfacet
  facet normal -1 -0 0
    outer loop
      vertex 0 0 9
      vertex 0 -1 8
      vertex 0 -1 9
    endloop
  endfacet
  facet normal 0 -1 0
    outer loop
      vertex 17.1625 -1 8
      vertex 0 -1 9
      vertex 0 -1 8
    endloop
  endfacet
  facet normal 0 -1 0
    outer loop
      vertex 0 -1 9
      vertex 17.1625 -1 8
      vertex 17.4874 -1 9
    endloop
  endfacet
  facet normal 0 -1 0
    outer loop
      vertex 37.8375 -1 8
      vertex 50 -1 9
      vertex 37.5126 -1 9
    endloop
  endfacet
  facet normal 0 -1 -0
    outer loop
      vertex 50 -1 9
      vertex 37.8375 -1 8
      vertex 50 -1 8
    endloop
  endfacet
  facet normal 0 -1 0
    outer loop
      vertex 22.8375 -1 8
      vertex 32.4874 -1 9
      vertex 22.5126 -1 9
    endloop
  endfacet
  facet normal 0 -1 0
    outer loop
      vertex 32.4874 -1 9
      vertex 22.8375 -1 8
      vertex 32.1625 -1 8
    endloop
  endfacet
  facet normal 0 -0.894427 -0.447214
    outer loop
      vertex 0 -1 8
      vertex 17 -0.75 7.5
      vertex 17.1625 -1 8
    endloop
  endfacet
  facet normal 0 -0.894427 -0.447214
    outer loop
      vertex 0 0 6
      vertex 17 -0.75 7.5
      vertex 0 -1 8
    endloop
  endfacet
  facet normal 0 -0.894427 -0.447214
    outer loop
      vertex 17 -0.75 7.5
      vertex 0 0 6
      vertex 17.4874 0 6
    endloop
  endfacet
  facet normal 0 -0.894427 -0.447214
    outer loop
      vertex 38 -0.75 7.5
      vertex 50 -1 8
      vertex 37.8375 -1 8
    endloop
  endfacet
  facet normal -0 -0.894427 -0.447214
    outer loop
      vertex 50 0 6
      vertex 38 -0.75 7.5
      vertex 37.5126 0 6
    endloop
  endfacet
  facet normal 0 -0.894427 -0.447214
    outer loop
      vertex 38 -0.75 7.5
      vertex 50 0 6
      vertex 50 -1 8
    endloop
  endfacet
  facet normal 0 -0.894427 -0.447214
    outer loop
      vertex 23 -0.75 7.5
      vertex 32.1625 -1 8
      vertex 22.8375 -1 8
    endloop
  endfacet
  facet normal 0 -0.894427 -0.447214
    outer loop
      vertex 23 -0.75 7.5
      vertex 32 -0.75 7.5
      vertex 32.1625 -1 8
    endloop
  endfacet
  facet normal 0 -0.894427 -0.447214
    outer loop
      vertex 22.5126 0 6
      vertex 32 -0.75 7.5
      vertex 23 -0.75 7.5
    endloop
  endfacet
  facet normal 0 -0.894427 -0.447214
    outer loop
      vertex 32 -0.75 7.5
      vertex 22.5126 0 6
      vertex 32.4874 0 6
    endloop
  endfacet
  facet normal 0 0 1
    outer loop
      vertex 10 50 4
      vertex 14.2857 10 4
      vertex 50 10 4
    endloop
  endfacet
  facet normal 0 0 1
    outer loop
      vertex 14.2857 10 4
      vertex 10 50 4
      vertex 10 14.2857 4
    endloop
  endfacet
  facet normal 0.707107 0.707107 0
    outer loop
      vertex 50 10 4
      vertex 10 50 0
      vertex 10 50 4
    endloop
  endfacet
  facet normal 0.707107 0.707107 0
    outer loop
      vertex 10 50 0
      vertex 50 10 4
      vertex 50 10 0
    endloop
  endfacet
  facet normal 0.707107 0.707107 0
    outer loop
      vertex 25 10 15
      vertex 10 25 14
      vertex 10 25 15
    endloop
  endfacet
  facet normal 0.707107 0.707107 0
    outer loop
      vertex 10 25 14
      vertex 25 10 15
      vertex 25 10 14
    endloop
  endfacet
  facet normal 0.563619 0.563619 -0.603877
    outer loop
      vertex 17.241 10 6.75827
      vertex 14.2857 10 4
      vertex 17 11.0357 7.5
    endloop
  endfacet
  facet normal 0.56362 0.563617 -0.603878
    outer loop
      vertex 20.9271 10.1656 10.3532
      vertex 25 10 14
      vertex 21.0202 10 10.2855
    endloop
  endfacet
  facet normal 0.563619 0.563619 -0.603877
    outer loop
      vertex 19.0729 12.0197 10.3532
      vertex 25 10 14
      vertex 20.9271 10.1656 10.3532
    endloop
  endfacet
  facet normal 0.563619 0.563619 -0.603877
    outer loop
      vertex 14.2857 10 4
      vertex 17.5729 12.3521 9.26336
      vertex 17 11.0357 7.5
    endloop
  endfacet
  facet normal 0.563619 0.563619 -0.603877
    outer loop
      vertex 11.8822 17.1468 8.42705
      vertex 17.5729 12.3521 9.26336
      vertex 14.2857 10 4
    endloop
  endfacet
  facet normal 0.563619 0.563619 -0.603878
    outer loop
      vertex 12.3995 18.2366 9.92705
      vertex 19.0729 12.0197 10.3532
      vertex 17.5729 12.3521 9.26336
    endloop
  endfacet
  facet normal 0.563619 0.563619 -0.603877
    outer loop
      vertex 10 25 14
      vertex 19.0729 12.0197 10.3532
      vertex 12.3995 18.2366 9.92705
    endloop
  endfacet
  facet normal 0.563618 0.563619 -0.603878
    outer loop
      vertex 10 25 14
      vertex 12.3995 18.2366 9.92705
      vertex 11.25 20 10.5
    endloop
  endfacet
  facet normal 0.563619 0.563619 -0.603877
    outer loop
      vertex 10 25 14
      vertex 11.25 20 10.5
      vertex 10 20.9272 10.1987
    endloop
  endfacet
  facet normal 0.563619 0.563619 -0.603877
    outer loop
      vertex 19.0729 12.0197 10.3532
      vertex 10 25 14
      vertex 25 10 14
    endloop
  endfacet
  facet normal 0.563619 0.563619 -0.603877
    outer loop
      vertex 17.5729 12.3521 9.26336
      vertex 11.8822 17.1468 8.42705
      vertex 12.3995 18.2366 9.92705
    endloop
  endfacet
  facet normal 0.563619 0.563619 -0.603877
    outer loop
      vertex 10 14.2857 4
      vertex 11.8822 17.1468 8.42705
      vertex 14.2857 10 4
    endloop
  endfacet
  facet normal 0.563619 0.563619 -0.603877
    outer loop
      vertex 11.8822 17.1468 8.42705
      vertex 10 14.2857 4
      vertex 10 17.1468 6.67037
    endloop
  endfacet
  facet normal -0.809017 0 0.587786
    outer loop
      vertex 35.4635 0 6.07341
      vertex 36.5 10 7.5
      vertex 35.4635 10 6.07341
    endloop
  endfacet
  facet normal -0.809017 0 0.587786
    outer loop
      vertex 36.5 10 7.5
      vertex 35.4635 0 6.07341
      vertex 36.5 0 7.5
    endloop
  endfacet
  facet normal 1 -0 0
    outer loop
      vertex 33.7865 0 8.38168
      vertex 33.7865 10 6.61832
      vertex 33.7865 10 8.38168
    endloop
  endfacet
  facet normal 1 0 0
    outer loop
      vertex 33.7865 10 6.61832
      vertex 33.7865 0 8.38168
      vertex 33.7865 0 6.61832
    endloop
  endfacet
  facet normal 0.309017 0 0.951056
    outer loop
      vertex 33.7865 10 6.61832
      vertex 35.4635 0 6.07341
      vertex 35.4635 10 6.07341
    endloop
  endfacet
  facet normal 0.309017 0 0.951056
    outer loop
      vertex 35.4635 0 6.07341
      vertex 33.7865 10 6.61832
      vertex 33.7865 0 6.61832
    endloop
  endfacet
  facet normal 0.309017 0 -0.951056
    outer loop
      vertex 33.7865 0 8.38168
      vertex 35.4635 10 8.92658
      vertex 35.4635 0 8.92658
    endloop
  endfacet
  facet normal 0.309017 0 -0.951056
    outer loop
      vertex 35.4635 10 8.92658
      vertex 33.7865 0 8.38168
      vertex 33.7865 10 8.38168
    endloop
  endfacet
  facet normal -0.809016 0 -0.587786
    outer loop
      vertex 36.5 0 7.5
      vertex 35.4635 10 8.92658
      vertex 36.5 10 7.5
    endloop
  endfacet
  facet normal -0.809016 -0 -0.587786
    outer loop
      vertex 35.4635 10 8.92658
      vertex 36.5 0 7.5
      vertex 35.4635 0 8.92658
    endloop
  endfacet
  facet normal -0.951056 0 0.309018
    outer loop
      vertex 38 -0.75 7.5
      vertex 38 0 7.5
      vertex 37.5126 0 6
    endloop
  endfacet
  facet normal 0.951056 0 -0.309018
    outer loop
      vertex 32.1625 -1 8
      vertex 32 0 7.5
      vertex 32.4874 0 9
    endloop
  endfacet
  facet normal 0.951056 0 -0.309018
    outer loop
      vertex 32.1625 -1 8
      vertex 32.4874 0 9
      vertex 32.4874 -1 9
    endloop
  endfacet
  facet normal 0.951056 0 -0.309018
    outer loop
      vertex 32 0 7.5
      vertex 32.1625 -1 8
      vertex 32 -0.75 7.5
    endloop
  endfacet
  facet normal 0.951057 0 0.309016
    outer loop
      vertex 32.4874 0 6
      vertex 32 0 7.5
      vertex 32 -0.75 7.5
    endloop
  endfacet
  facet normal -0.951056 0 -0.309018
    outer loop
      vertex 37.8375 -1 8
      vertex 38 0 7.5
      vertex 38 -0.75 7.5
    endloop
  endfacet
  facet normal -0.951056 0 -0.309018
    outer loop
      vertex 38 0 7.5
      vertex 37.8375 -1 8
      vertex 37.5126 0 9
    endloop
  endfacet
  facet normal -0.951056 -0 -0.309018
    outer loop
      vertex 37.5126 0 9
      vertex 37.8375 -1 8
      vertex 37.5126 -1 9
    endloop
  endfacet
  facet normal -0.809017 0 0.587786
    outer loop
      vertex 20.4635 0 6.07341
      vertex 21.5 10 7.5
      vertex 20.4635 10 6.07341
    endloop
  endfacet
  facet normal -0.809017 0 0.587786
    outer loop
      vertex 21.5 10 7.5
      vertex 20.4635 0 6.07341
      vertex 21.5 0 7.5
    endloop
  endfacet
  facet normal 1 -0 0
    outer loop
      vertex 18.7865 0 8.38168
      vertex 18.7865 10 6.61832
      vertex 18.7865 10 8.38168
    endloop
  endfacet
  facet normal 1 0 0
    outer loop
      vertex 18.7865 10 6.61832
      vertex 18.7865 0 8.38168
      vertex 18.7865 0 6.61832
    endloop
  endfacet
  facet normal 0.309017 0 0.951056
    outer loop
      vertex 18.7865 10 6.61832
      vertex 20.4635 0 6.07341
      vertex 20.4635 10 6.07341
    endloop
  endfacet
  facet normal 0.309017 0 0.951056
    outer loop
      vertex 20.4635 0 6.07341
      vertex 18.7865 10 6.61832
      vertex 18.7865 0 6.61832
    endloop
  endfacet
  facet normal -0.809016 0 -0.587786
    outer loop
      vertex 21.5 0 7.5
      vertex 20.4635 10 8.92658
      vertex 21.5 10 7.5
    endloop
  endfacet
  facet normal -0.809016 -0 -0.587786
    outer loop
      vertex 20.4635 10 8.92658
      vertex 21.5 0 7.5
      vertex 20.4635 0 8.92658
    endloop
  endfacet
  facet normal 0.309017 0 -0.951056
    outer loop
      vertex 18.7865 0 8.38168
      vertex 20.4635 10 8.92658
      vertex 20.4635 0 8.92658
    endloop
  endfacet
  facet normal 0.309017 0 -0.951056
    outer loop
      vertex 20.4635 10 8.92658
      vertex 18.7865 0 8.38168
      vertex 18.7865 10 8.38168
    endloop
  endfacet
  facet normal 0.951057 0 -0.309017
    outer loop
      vertex 17.5729 10 9.26336
      vertex 17 11.0357 7.5
      vertex 17.5729 12.3521 9.26336
    endloop
  endfacet
  facet normal 0.951057 0 -0.309017
    outer loop
      vertex 17 11.0357 7.5
      vertex 17.5729 10 9.26336
      vertex 17 10 7.5
    endloop
  endfacet
  facet normal -0.587789 -0 -0.809014
    outer loop
      vertex 20.9271 10.1656 10.3532
      vertex 21.0202 10 10.2855
      vertex 20.9271 10 10.3532
    endloop
  endfacet
  facet normal 0.587785 0 -0.809017
    outer loop
      vertex 17.5729 10 9.26336
      vertex 19.0729 12.0197 10.3532
      vertex 19.0729 10 10.3532
    endloop
  endfacet
  facet normal 0.587785 0 -0.809017
    outer loop
      vertex 19.0729 12.0197 10.3532
      vertex 17.5729 10 9.26336
      vertex 17.5729 12.3521 9.26336
    endloop
  endfacet
  facet normal 0.951056 0 0.309017
    outer loop
      vertex 17.241 10 6.75827
      vertex 17 11.0357 7.5
      vertex 17 10 7.5
    endloop
  endfacet
  facet normal 0 0 -1
    outer loop
      vertex 19.0729 10 10.3532
      vertex 20.9271 10.1656 10.3532
      vertex 20.9271 10 10.3532
    endloop
  endfacet
  facet normal -0 0 -1
    outer loop
      vertex 20.9271 10.1656 10.3532
      vertex 19.0729 10 10.3532
      vertex 19.0729 12.0197 10.3532
    endloop
  endfacet
  facet normal -0.951057 0 0.309017
    outer loop
      vertex 23 -0.75 7.5
      vertex 23 0 7.5
      vertex 22.5126 0 6
    endloop
  endfacet
  facet normal 0.951057 6.04666e-007 -0.309017
    outer loop
      vertex 17.1625 -1 8
      vertex 17 0 7.5
      vertex 17.4874 0 9
    endloop
  endfacet
  facet normal 0.951057 0 -0.309016
    outer loop
      vertex 17.1625 -1 8
      vertex 17.4874 0 9
      vertex 17.4874 -1 9
    endloop
  endfacet
  facet normal 0.951056 0 -0.309018
    outer loop
      vertex 17 0 7.5
      vertex 17.1625 -1 8
      vertex 17 -0.75 7.5
    endloop
  endfacet
  facet normal 0.951057 0 0.309017
    outer loop
      vertex 17.4874 0 6
      vertex 17 0 7.5
      vertex 17 -0.75 7.5
    endloop
  endfacet
  facet normal -0.951056 0 -0.309018
    outer loop
      vertex 22.8375 -1 8
      vertex 23 0 7.5
      vertex 23 -0.75 7.5
    endloop
  endfacet
  facet normal -0.951057 6.04666e-007 -0.309017
    outer loop
      vertex 23 0 7.5
      vertex 22.8375 -1 8
      vertex 22.5126 0 9
    endloop
  endfacet
  facet normal -0.951057 -0 -0.309016
    outer loop
      vertex 22.5126 0 9
      vertex 22.8375 -1 8
      vertex 22.5126 -1 9
    endloop
  endfacet
  facet normal 0 -0.587786 0.809017
    outer loop
      vertex 0 36.4266 7.03647
      vertex 10 35 6
      vertex 10 36.4266 7.03647
    endloop
  endfacet
  facet normal 0 -0.587786 0.809017
    outer loop
      vertex 10 35 6
      vertex 0 36.4266 7.03647
      vertex 0 35 6
    endloop
  endfacet
  facet normal 0 0 -1
    outer loop
      vertex 0 34.1183 8.71352
      vertex 10 35.8817 8.71352
      vertex 10 34.1183 8.71352
    endloop
  endfacet
  facet normal -0 0 -1
    outer loop
      vertex 10 35.8817 8.71352
      vertex 0 34.1183 8.71352
      vertex 0 35.8817 8.71352
    endloop
  endfacet
  facet normal 0 -0.951057 -0.309017
    outer loop
      vertex 0 36.4266 7.03647
      vertex 10 35.8817 8.71352
      vertex 0 35.8817 8.71352
    endloop
  endfacet
  facet normal 0 -0.951057 -0.309017
    outer loop
      vertex 10 35.8817 8.71352
      vertex 0 36.4266 7.03647
      vertex 10 36.4266 7.03647
    endloop
  endfacet
  facet normal 0 0.951057 -0.309017
    outer loop
      vertex 10 33.5734 7.03647
      vertex 0 34.1183 8.71352
      vertex 10 34.1183 8.71352
    endloop
  endfacet
  facet normal 0 0.951057 -0.309017
    outer loop
      vertex 0 34.1183 8.71352
      vertex 10 33.5734 7.03647
      vertex 0 33.5734 7.03647
    endloop
  endfacet
  facet normal -0 0.587785 0.809017
    outer loop
      vertex 0 35 6
      vertex 10 33.5734 7.03647
      vertex 10 35 6
    endloop
  endfacet
  facet normal 0 0.587785 0.809017
    outer loop
      vertex 10 33.5734 7.03647
      vertex 0 35 6
      vertex 0 33.5734 7.03647
    endloop
  endfacet
  facet normal 0 -0.809017 0.587785
    outer loop
      vertex 0 37.4369 6
      vertex 0 37.8532 6.57295
      vertex -0.286474 37.8532 6.57295
    endloop
  endfacet
  facet normal 0 -0.809018 -0.587784
    outer loop
      vertex -1 37.8532 8.42705
      vertex 0 37.4369 9
      vertex -1 37.4369 9
    endloop
  endfacet
  facet normal 0 -0.809018 -0.587784
    outer loop
      vertex 0 37.4369 9
      vertex -1 37.8532 8.42705
      vertex 0 37.8532 8.42705
    endloop
  endfacet
  facet normal 0 -1 0
    outer loop
      vertex -1 37.8532 8
      vertex 0 37.8532 8.42705
      vertex -1 37.8532 8.42705
    endloop
  endfacet
  facet normal 0 -1 0
    outer loop
      vertex -0.286474 37.8532 6.57295
      vertex 0 37.8532 8.42705
      vertex -1 37.8532 8
    endloop
  endfacet
  facet normal 0 -1 -0
    outer loop
      vertex 0 37.8532 8.42705
      vertex -0.286474 37.8532 6.57295
      vertex 0 37.8532 6.57295
    endloop
  endfacet
  facet normal 0 1 0
    outer loop
      vertex 0 32.1468 8.42705
      vertex -1 32.1468 8
      vertex -1 32.1468 8.42705
    endloop
  endfacet
  facet normal 0 1 0
    outer loop
      vertex -0.286474 32.1468 6.57295
      vertex 0 32.1468 8.42705
      vertex 0 32.1468 6.57295
    endloop
  endfacet
  facet normal 0 1 0
    outer loop
      vertex 0 32.1468 8.42705
      vertex -0.286474 32.1468 6.57295
      vertex -1 32.1468 8
    endloop
  endfacet
  facet normal 0 0.809015 0.587789
    outer loop
      vertex 0 32.1468 6.57295
      vertex 0 32.5631 6
      vertex -0.286474 32.1468 6.57295
    endloop
  endfacet
  facet normal 0 0.809015 -0.587788
    outer loop
      vertex 0 32.1468 8.42705
      vertex -1 32.5631 9
      vertex 0 32.5631 9
    endloop
  endfacet
  facet normal 0 0.809015 -0.587788
    outer loop
      vertex -1 32.5631 9
      vertex 0 32.1468 8.42705
      vertex -1 32.1468 8.42705
    endloop
  endfacet
  facet normal 0 -0.587785 0.809017
    outer loop
      vertex 0 21.4266 7.03647
      vertex 10 20 6
      vertex 10 21.4266 7.03647
    endloop
  endfacet
  facet normal 0 -0.587785 0.809017
    outer loop
      vertex 10 20 6
      vertex 0 21.4266 7.03647
      vertex 0 20 6
    endloop
  endfacet
  facet normal 0 0 -1
    outer loop
      vertex 0 19.1183 8.71352
      vertex 10 20.8817 8.71352
      vertex 10 19.1183 8.71352
    endloop
  endfacet
  facet normal -0 0 -1
    outer loop
      vertex 10 20.8817 8.71352
      vertex 0 19.1183 8.71352
      vertex 0 20.8817 8.71352
    endloop
  endfacet
  facet normal 0 -0.951057 -0.309017
    outer loop
      vertex 0 21.4266 7.03647
      vertex 10 20.8817 8.71352
      vertex 0 20.8817 8.71352
    endloop
  endfacet
  facet normal 0 -0.951057 -0.309017
    outer loop
      vertex 10 20.8817 8.71352
      vertex 0 21.4266 7.03647
      vertex 10 21.4266 7.03647
    endloop
  endfacet
  facet normal 0 0.951057 -0.309017
    outer loop
      vertex 10 18.5734 7.03647
      vertex 0 19.1183 8.71352
      vertex 10 19.1183 8.71352
    endloop
  endfacet
  facet normal 0 0.951057 -0.309017
    outer loop
      vertex 0 19.1183 8.71352
      vertex 10 18.5734 7.03647
      vertex 0 18.5734 7.03647
    endloop
  endfacet
  facet normal -0 0.587785 0.809017
    outer loop
      vertex 0 20 6
      vertex 10 18.5734 7.03647
      vertex 10 20 6
    endloop
  endfacet
  facet normal 0 0.587785 0.809017
    outer loop
      vertex 10 18.5734 7.03647
      vertex 0 20 6
      vertex 0 18.5734 7.03647
    endloop
  endfacet
  facet normal 0 -0.309017 -0.951056
    outer loop
      vertex 10 20.9272 10.1987
      vertex 11.25 20 10.5
      vertex 10 20 10.5
    endloop
  endfacet
  facet normal -0 1 0
    outer loop
      vertex 10 17.1468 8.42705
      vertex 11.8822 17.1468 8.42705
      vertex 10 17.1468 6.67037
    endloop
  endfacet
  facet normal 0 0.809017 -0.587786
    outer loop
      vertex 11.8822 17.1468 8.42705
      vertex 10 18.2366 9.92705
      vertex 12.3995 18.2366 9.92705
    endloop
  endfacet
  facet normal 0 0.809017 -0.587786
    outer loop
      vertex 10 18.2366 9.92705
      vertex 11.8822 17.1468 8.42705
      vertex 10 17.1468 8.42705
    endloop
  endfacet
  facet normal 0 0.309017 -0.951056
    outer loop
      vertex 10 18.2366 9.92705
      vertex 11.25 20 10.5
      vertex 12.3995 18.2366 9.92705
    endloop
  endfacet
  facet normal 0 0.309017 -0.951056
    outer loop
      vertex 11.25 20 10.5
      vertex 10 18.2366 9.92705
      vertex 10 20 10.5
    endloop
  endfacet
  facet normal 0 1 0
    outer loop
      vertex 0 17.1468 8.42705
      vertex -1 17.1468 8
      vertex -1 17.1468 8.42705
    endloop
  endfacet
  facet normal 0 1 0
    outer loop
      vertex -0.286474 17.1468 6.57295
      vertex 0 17.1468 8.42705
      vertex 0 17.1468 6.57295
    endloop
  endfacet
  facet normal 0 1 0
    outer loop
      vertex 0 17.1468 8.42705
      vertex -0.286474 17.1468 6.57295
      vertex -1 17.1468 8
    endloop
  endfacet
  facet normal 0 -0.809017 0.587785
    outer loop
      vertex 0 22.4369 6
      vertex 0 22.8532 6.57295
      vertex -0.286474 22.8532 6.57295
    endloop
  endfacet
  facet normal 0 -0.809018 -0.587784
    outer loop
      vertex -1 22.8532 8.42705
      vertex 0 22.4369 9
      vertex -1 22.4369 9
    endloop
  endfacet
  facet normal 0 -0.809018 -0.587784
    outer loop
      vertex 0 22.4369 9
      vertex -1 22.8532 8.42705
      vertex 0 22.8532 8.42705
    endloop
  endfacet
  facet normal 0 -1 0
    outer loop
      vertex -1 22.8532 8
      vertex 0 22.8532 8.42705
      vertex -1 22.8532 8.42705
    endloop
  endfacet
  facet normal 0 -1 0
    outer loop
      vertex -0.286474 22.8532 6.57295
      vertex 0 22.8532 8.42705
      vertex -1 22.8532 8
    endloop
  endfacet
  facet normal 0 -1 -0
    outer loop
      vertex 0 22.8532 8.42705
      vertex -0.286474 22.8532 6.57295
      vertex 0 22.8532 6.57295
    endloop
  endfacet
  facet normal 0 0.809017 0.587785
    outer loop
      vertex 0 17.1468 6.57295
      vertex 0 17.5631 6
      vertex -0.286474 17.1468 6.57295
    endloop
  endfacet
  facet normal 0 0.809016 -0.587786
    outer loop
      vertex 0 17.1468 8.42705
      vertex -1 17.5631 9
      vertex 0 17.5631 9
    endloop
  endfacet
  facet normal 0 0.809016 -0.587786
    outer loop
      vertex -1 17.5631 9
      vertex 0 17.1468 8.42705
      vertex -1 17.1468 8.42705
    endloop
  endfacet
endsolid OpenSCAD_Model
